<svg enable-background="new 0 0 230.9 333.2" viewBox="0 0 230.9 333.2" xmlns="http://www.w3.org/2000/svg"><path d="m138.6 0 33.5 16.3-37.6 3.1c-5.4 41.1-57.7 44.1-57.7 44.1v40.7l-29.4-20.4-.2-39.1s51.4-3.9 55.3-42zm-40 216.1 30.5 22.6 1-139.4-31.4 3.1z"/><path d="m222.1 284.8-16.3 20.7-16.4-20.7h-8.7v48.4l10.5-.1v-29.1l14.6 17.1 14.6-17.2v29.3h10.5v-48.4z"/><path d="m135.4 284.8h10.4v48.4h-10.4z"/><path d="m86.5 284.8h-9.4l-20.1 48.3h11.2l3.1-7.8h20.7l3.2 7.8h11.2zm-11 30.6 6.4-15.9 6.3 15.9z"/><path d="m11.9 285.7c-.2 1.5-.7 2.9-1.4 4.2-.5.8-1.2 1.5-2.1 2.1-1.4.9-4.9 1.5-8.4 1.7v8.7h10.9v30.8h10v-49.4h-8.7z"/></svg>