<?xml version="1.0" encoding="UTF-8" standalone="no"?>
<!-- Generator: Adobe Illustrator 22.1.0, SVG Export Plug-In . SVG Version: 6.00 Build 0)  -->

<svg
   xmlns:dc="http://purl.org/dc/elements/1.1/"
   xmlns:cc="http://creativecommons.org/ns#"
   xmlns:rdf="http://www.w3.org/1999/02/22-rdf-syntax-ns#"
   xmlns:svg="http://www.w3.org/2000/svg"
   xmlns="http://www.w3.org/2000/svg"
   xmlns:sodipodi="http://sodipodi.sourceforge.net/DTD/sodipodi-0.dtd"
   xmlns:inkscape="http://www.inkscape.org/namespaces/inkscape"
   version="1.1"
   id="Layer_1"
   x="0px"
   y="0px"
   viewBox="0 0 230.9 333.2"
   style="enable-background:new 0 0 230.9 333.2;"
   xml:space="preserve"
   sodipodi:docname="footer-logo.svg"
   inkscape:version="0.92.3 (2405546, 2018-03-11)"><metadata
   id="metadata900"><rdf:RDF><cc:Work
       rdf:about=""><dc:format>image/svg+xml</dc:format><dc:type
         rdf:resource="http://purl.org/dc/dcmitype/StillImage" /></cc:Work></rdf:RDF></metadata><defs
   id="defs898" /><sodipodi:namedview
   pagecolor="#ffffff"
   bordercolor="#666666"
   borderopacity="1"
   objecttolerance="10"
   gridtolerance="10"
   guidetolerance="10"
   inkscape:pageopacity="0"
   inkscape:pageshadow="2"
   inkscape:window-width="2556"
   inkscape:window-height="1400"
   id="namedview896"
   showgrid="false"
   inkscape:zoom="3.6344536"
   inkscape:cx="115.45"
   inkscape:cy="166.60001"
   inkscape:window-x="0"
   inkscape:window-y="18"
   inkscape:window-maximized="0"
   inkscape:current-layer="Layer_1" />
<style
   type="text/css"
   id="style881">
	.st0{fill:#FFFFFF;}
</style>
<title
   id="title883">new-logo-footer-white</title>
<path
   class="st0"
   d="M138.6,0l33.5,16.3l-37.6,3.1c-5.4,41.1-57.7,44.1-57.7,44.1v40.7L47.4,83.8l-0.2-39.1c0,0,51.4-3.9,55.3-42  L138.6,0z M98.6,216.1l30.5,22.6l1-139.4l-31.4,3.1L98.6,216.1z"
   id="path885"
   style="fill:#000000" />
<polygon
   class="st0"
   points="222.1,284.8 205.8,305.5 189.4,284.8 180.7,284.8 180.7,333.2 191.2,333.1 191.2,304 205.8,321.1   220.4,303.9 220.4,333.2 230.9,333.2 230.9,284.8 "
   id="polygon887"
   style="fill:#000000" />
<rect
   x="135.4"
   y="284.8"
   class="st0"
   width="10.4"
   height="48.4"
   id="rect889"
   style="fill:#000000" />
<path
   class="st0"
   d="M86.5,284.8h-9.4l-20.1,48.3h11.2l3.1-7.8h20.7l3.2,7.8h11.2L86.5,284.8z M75.5,315.4l6.4-15.9l6.3,15.9H75.5z"
   id="path891"
   style="fill:#000000" />
<path
   class="st0"
   d="M11.9,285.7c-0.2,1.5-0.7,2.9-1.4,4.2c-0.5,0.8-1.2,1.5-2.1,2.1c-1.4,0.9-4.9,1.5-8.4,1.7v8.7h10.9v30.8h10  v-49.4h-8.7L11.9,285.7z"
   id="path893"
   style="fill:#000000" />
</svg>