<?xml version="1.0" encoding="UTF-8"?>
<!-- Generator: Adobe Illustrator 21.0.0, SVG Export Plug-In . SVG Version: 6.00 Build 0)  -->
<svg version="1.1" id="Layer_1" xmlns="http://www.w3.org/2000/svg" xmlns:xlink="http://www.w3.org/1999/xlink" x="0px" y="0px" viewBox="0 0 240 48.8" style="enable-background:new 0 0 240 48.8;" xml:space="preserve">
<style type="text/css">
	.st0{filter:url(#Adobe_OpacityMaskFilter);}
	.st1{fill:#FFFFFF;}
	.st2{mask:url(#mask-2);}
	.st3{fill:#018AFD;}
	.st4{fill:#00A2FD;}
	.st5{fill:#06C0FD;}
	.st6{fill:#03B5FD;}
	.st7{fill:#0074FD;}
	.st8{fill:#005CFD;}
	.st9{filter:url(#Adobe_OpacityMaskFilter_1_);}
	.st10{mask:url(#mask-4);fill:#003CFD;}
	.st11{fill:#0E13FD;}
</style>
<title>buoyant_black</title>
<desc>Created with Sketch.</desc>
<g id="Page-1">
	<g id="working-state" transform="translate(-109.000000, -9.000000)">
		<g id="buoyant_black" transform="translate(109.000000, 9.000000)">
			<g id="angles" transform="translate(0.000000, 0.734694)">
				<path id="Fill-1" d="M65.5,32.8c2.5,0,4.1-1.5,4.1-3.8c0-2-1.4-3.7-4.1-3.7h-7.2v7.6H65.5z M65.3,22.1c2.4,0,3.8-1.5,3.8-3.5      S67.7,15,65.3,15h-7.1v7.1H65.3z M54.6,34.1V13.7c0-1.2,0.7-1.9,2-1.9H66c4.3,0,6.8,2.7,6.8,6.2c0,3.1-2,5.1-4.2,5.6      c2.6,0.4,4.7,3,4.7,6c0,3.8-2.5,6.5-7,6.5h-9.7C55.3,36,54.6,35.3,54.6,34.1L54.6,34.1z"/>
				<path id="Fill-3" d="M81.4,13.4c0-1,0.8-1.8,1.9-1.8c1,0,1.8,0.8,1.8,1.8v13c0,4.1,2.3,6.8,6.6,6.8c4.3,0,6.5-2.7,6.5-6.8v-13      c0-1,0.8-1.8,1.9-1.8c1,0,1.8,0.8,1.8,1.8v13.1c0,6-3.4,10-10.2,10c-6.8,0-10.2-4-10.2-9.9V13.4z"/>
				<path id="Fill-5" d="M122.1,14.6c-5.2,0-8.5,4-8.5,9.3c0,5.3,3.3,9.3,8.5,9.3c5.1,0,8.5-4,8.5-9.3      C130.6,18.6,127.3,14.6,122.1,14.6 M122.1,11.4c7.2,0,12.2,5.3,12.2,12.5c0,7.2-5,12.5-12.2,12.5s-12.2-5.3-12.2-12.5      C109.9,16.7,114.9,11.4,122.1,11.4"/>
				<path id="Fill-7" d="M159.4,14.3l-7.8,11.6v8.5c0,1-0.8,1.8-1.8,1.8s-1.8-0.8-1.8-1.8v-8.5l-7.8-11.6c-0.2-0.3-0.3-0.6-0.3-1      c0-1,0.8-1.7,1.7-1.7c0.6,0,1.2,0.3,1.5,0.8l6.7,10.3l6.7-10.3c0.3-0.5,0.9-0.8,1.5-0.8c0.9,0,1.7,0.8,1.7,1.7      C159.6,13.7,159.5,14,159.4,14.3"/>
				<path id="Fill-9" d="M179.4,27.8l-4.8-12.8l-4.8,12.8H179.4z M185.7,34.3c0,1-0.8,1.9-1.9,1.9c-0.8,0-1.5-0.5-1.7-1.2l-1.5-4      h-12l-1.5,4c-0.3,0.7-0.9,1.2-1.7,1.2c-1,0-1.9-0.8-1.9-1.9c0-0.2,0.1-0.5,0.1-0.7l8-20c0.4-1.2,1.6-2,2.9-2c1.4,0,2.5,0.9,3,2      l8,20C185.7,33.8,185.7,34.1,185.7,34.3L185.7,34.3z"/>
				<path id="Fill-11" d="M209.6,35.3l-12.9-17.8v17c0,1-0.8,1.8-1.8,1.8c-1,0-1.9-0.8-1.9-1.8V14c0-1.3,1.1-2.4,2.4-2.4      c0.8,0,1.5,0.4,1.9,1L210,29.9V13.4c0-1,0.8-1.8,1.8-1.8c1,0,1.9,0.8,1.9,1.8v20.5c0,1.2-1,2.3-2.3,2.3      C210.7,36.2,210,35.9,209.6,35.3"/>
				<g id="Group-15" transform="translate(158.481116, 8.011964)">
					<g id="Clip-14">
					</g>
					<defs>
						<filter id="Adobe_OpacityMaskFilter" filterUnits="userSpaceOnUse" x="62.4" y="3.8" width="19.1" height="24.4">
							<feColorMatrix type="matrix" values="1 0 0 0 0  0 1 0 0 0  0 0 1 0 0  0 0 0 1 0"/>
						</filter>
					</defs>
					<mask maskUnits="userSpaceOnUse" x="62.4" y="3.8" width="19.1" height="24.4" id="mask-2">
						<g class="st0">
							<polygon id="path-1" class="st1" points="81.5,3.8 81.5,28.2 62.4,28.2 62.4,3.8        "/>
						</g>
					</mask>
					<path id="Fill-13" class="st2" d="M70.2,26.4V7h-6.1c-0.9,0-1.6-0.7-1.6-1.6c0-0.9,0.7-1.6,1.6-1.6h15.8c0.9,0,1.6,0.7,1.6,1.6       c0,0.9-0.8,1.6-1.6,1.6h-6.1v19.4c0,1-0.8,1.8-1.8,1.8C71,28.2,70.2,27.4,70.2,26.4"/>
				</g>
				<path id="Fill-16" class="st3" d="M25.9,34c0,3.8,0,7.7,0,11.5c0,0.5-0.2,0.8-0.6,1.1c-0.8,0.4-1.5,0.9-2.3,1.3      c-0.7,0.4-0.8,0.3-0.8-0.5c0-7.3,0-14.5,0-21.8c0-0.4,0-0.8-0.1-1.2c-0.2-0.6-0.6-1-1.1-1.3c-4.6-2.7-9.2-5.3-13.8-8      c-1.8-1-3.6-2.1-5.4-3.1c-0.5-0.3-0.5-0.5,0-0.8c0.9-0.5,1.7-1,2.6-1.5c0.3-0.2,0.5-0.2,0.7,0c6.7,3.9,13.5,7.8,20.2,11.7      c0.5,0.3,0.6,0.6,0.6,1.1C25.9,26.3,25.9,30.1,25.9,34"/>
				<path id="Fill-18" class="st4" d="M31.4,30.7c0,3.8,0,7.7,0,11.5c0,0.6-0.2,0.9-0.7,1.2c-0.8,0.4-1.6,0.9-2.4,1.4      c-0.4,0.2-0.6,0.1-0.6-0.3c0-0.1,0-0.3,0-0.5c0-7.2,0-14.5,0-21.7c0-1.2-0.4-1.9-1.4-2.5C20,16.2,13.7,12.5,7.4,8.9      C7.2,8.8,6.8,8.8,6.8,8.4c0-0.3,0.4-0.4,0.6-0.5C8.2,7.4,9,7,9.8,6.5c0.2-0.1,0.4-0.1,0.7,0c6.6,3.8,13.3,7.7,19.9,11.5      c0.7,0.4,1,0.9,0.9,1.7C31.4,23.3,31.4,27,31.4,30.7L31.4,30.7z"/>
				<path id="Fill-20" class="st5" d="M42.5,24.4c0,3.9,0,7.7,0,11.6c0,0.5-0.1,0.8-0.6,1c-0.8,0.4-1.6,0.9-2.3,1.3      c-0.2,0.1-0.4,0.3-0.6,0.2c-0.3-0.1-0.2-0.4-0.2-0.7c0-7.3,0-14.6,0-22c0-1.1-0.5-1.9-1.4-2.4c-6-3.4-11.9-6.8-17.8-10.3      c-0.5-0.3-0.9-0.5-1.4-0.8c-0.4-0.2-0.4-0.4,0-0.6c0.9-0.5,1.8-1.1,2.8-1.6c0.2-0.1,0.4-0.1,0.7,0C28.4,4,35.2,8,42,11.9      c0.3,0.2,0.5,0.4,0.5,0.8C42.5,16.6,42.5,20.5,42.5,24.4"/>
				<path id="Fill-22" class="st6" d="M36.9,27.6c0,3.9,0,7.7,0,11.6c0,0.5-0.2,0.8-0.6,1c-0.8,0.4-1.6,0.9-2.5,1.4      c-0.5,0.3-0.6,0.2-0.6-0.4c0-7.3,0-14.6,0-21.9c0-1.3-0.5-2.1-1.6-2.8c-6.3-3.6-12.6-7.3-18.9-10.9c-0.5-0.3-0.5-0.5,0-0.8      c0.9-0.5,1.8-1,2.7-1.5c0.2-0.1,0.4-0.1,0.7,0c6.3,3.6,12.6,7.3,18.8,10.9c0.5,0.3,1,0.6,1.5,0.9c0.4,0.2,0.5,0.5,0.5,0.9      C36.9,19.8,36.9,23.7,36.9,27.6"/>
				<path id="Fill-24" class="st7" d="M20.3,36.4v10.8c0,0.1,0,0.2,0,0.4c0,0.6-0.2,0.6-0.7,0.4c-0.9-0.5-1.7-1-2.6-1.5      c-0.3-0.2-0.4-0.4-0.4-0.7c0-5.6,0-11.3,0-16.9c0-1.2-0.4-2-1.5-2.6c-5-2.8-9.9-5.7-14.9-8.6C0.1,17.5,0,17.4,0,17.2      C0,16.1,0,15,0,14c0-0.5,0.2-0.6,0.7-0.4c3.7,2.1,7.3,4.2,11,6.3c2.7,1.6,5.5,3.2,8.2,4.7c0.3,0.2,0.4,0.4,0.4,0.8      C20.3,29.1,20.3,32.8,20.3,36.4"/>
				<path id="Fill-26" class="st8" d="M14.8,36.5c0,2.6,0,5.2,0,7.8c0,0.7-0.1,0.8-0.7,0.4c-0.8-0.5-1.7-1-2.5-1.5      c-0.3-0.2-0.5-0.4-0.5-0.8c0-3.5,0-7,0-10.5c0-1.2-0.4-2-1.5-2.6c-3.1-1.7-6.1-3.5-9.2-5.3C0.1,23.9,0,23.7,0,23.4      c0-1,0-2,0-2.9C0,20.3,0,20,0.2,19.9c0.2-0.1,0.4,0,0.6,0.1c4.5,2.6,9,5.2,13.5,7.7c0.4,0.3,0.6,0.6,0.6,1.1      C14.8,31.4,14.8,34,14.8,36.5L14.8,36.5z"/>
				<g id="Group-30" transform="translate(0.000000, 18.199719)">
					<g id="Clip-29">
					</g>
					<defs>
						<filter id="Adobe_OpacityMaskFilter_1_" filterUnits="userSpaceOnUse" x="0" y="8" width="9.3" height="15.5">
							<feColorMatrix type="matrix" values="1 0 0 0 0  0 1 0 0 0  0 0 1 0 0  0 0 0 1 0"/>
						</filter>
					</defs>
					<mask maskUnits="userSpaceOnUse" x="0" y="8" width="9.3" height="15.5" id="mask-4">
						<g class="st9">
							<polygon id="path-3" class="st1" points="0,23.5 0,8 9.3,8 9.3,23.5        "/>
						</g>
					</mask>
					<path id="Fill-28" class="st10" d="M9.2,18.3c0,1.6,0,3.1,0,4.7c0,0.6-0.2,0.7-0.7,0.4c-0.9-0.5-1.8-1-2.7-1.5       c-0.3-0.2-0.4-0.3-0.4-0.7c0-1.5,0-2.9,0-4.4c0-1.1-0.4-1.9-1.4-2.4c-1.2-0.7-2.4-1.4-3.6-2c-0.4-0.2-0.6-0.5-0.6-1       c0.1-0.9,0-1.8,0-2.7C0,8.4,0,8.2,0.2,8.1c0.2-0.1,0.4,0,0.6,0.1c2.7,1.6,5.4,3.1,8.1,4.7c0.3,0.2,0.4,0.4,0.4,0.7       C9.2,15.1,9.2,16.7,9.2,18.3"/>
				</g>
				<path id="Fill-31" class="st11" d="M0,34.7c0-0.5,0-1.1,0-1.6c0-0.4,0.2-0.5,0.5-0.4c1,0.5,1.9,1.1,2.9,1.7      c0.2,0.1,0.2,0.3,0.2,0.5c0,1,0,2.1,0,3.2c0,0.5-0.2,0.6-0.6,0.4c-0.9-0.5-1.8-1.1-2.7-1.6C0.1,36.7,0,36.5,0,36.2      C0,35.7,0,35.2,0,34.7"/>
			</g>
		</g>
	</g>
</g>
</svg>