<svg enable-background="new 0 0 512 512" height="512" viewBox="0 0 512 512" width="512" xmlns="http://www.w3.org/2000/svg"><g fill="#fff"><path d="m396.064 164.585c-5.316 0-9.625 4.31-9.625 9.625v212.23h-199.039c-5.316 0-9.625 4.31-9.625 9.625s4.31 9.625 9.625 9.625h208.664c5.316 0 9.625-4.31 9.625-9.625v-221.855c.001-5.316-4.309-9.625-9.625-9.625z"/><path d="m396.064 106.311h-280.127c-5.316 0-9.625 4.31-9.625 9.625v280.127c0 5.316 4.31 9.625 9.625 9.625h39.405c5.316 0 9.625-4.31 9.625-9.625s-4.31-9.625-9.625-9.625h-29.78v-260.876h260.876v16.562c0 5.316 4.31 9.625 9.625 9.625s9.625-4.31 9.625-9.625v-26.188c.002-5.315-4.308-9.625-9.624-9.625z"/><path d="m281.356 153.342h-114.31c-5.316 0-9.625 4.31-9.625 9.625 0 5.316 4.31 9.625 9.625 9.625h114.31c5.316 0 9.625-4.31 9.625-9.625.001-5.315-4.309-9.625-9.625-9.625z"/><path d="m217.096 194.441h-50.049c-5.316 0-9.625 4.31-9.625 9.625 0 5.316 4.31 9.625 9.625 9.625h50.049c5.316 0 9.625-4.31 9.625-9.625s-4.309-9.625-9.625-9.625z"/><path d="m512 186.057c0-5.316-4.31-9.625-9.625-9.625h-39.438v-50.694h39.438c5.316 0 9.625-4.31 9.625-9.625s-4.31-9.625-9.625-9.625h-39.438v-47.798c0-5.316-4.31-9.625-9.625-9.625h-47.796v-39.439c0-5.316-4.31-9.625-9.625-9.625s-9.625 4.31-9.625 9.625v39.438h-50.696v-39.438c0-5.316-4.31-9.625-9.625-9.625-5.316 0-9.625 4.31-9.625 9.625v39.438h-50.694v-39.438c0-5.316-4.31-9.625-9.625-9.625-5.316 0-9.625 4.31-9.625 9.625v39.438h-50.694v-39.438c0-5.316-4.31-9.625-9.625-9.625s-9.625 4.31-9.625 9.625v39.438h-50.694v-39.438c0-5.316-4.31-9.625-9.625-9.625-5.316 0-9.625 4.31-9.625 9.625v39.438h-47.799c-5.316 0-9.625 4.31-9.625 9.625v47.796h-39.439c-5.316 0-9.625 4.31-9.625 9.625s4.31 9.625 9.625 9.625h39.438v50.694h-39.438c-5.315.001-9.625 4.311-9.625 9.627s4.31 9.625 9.625 9.625h39.438v50.694h-39.438c-5.315 0-9.625 4.309-9.625 9.625s4.31 9.625 9.625 9.625h39.438v50.694h-39.438c-5.316 0-9.625 4.31-9.625 9.625s4.31 9.625 9.625 9.625h39.438v50.694h-39.438c-5.316 0-9.625 4.31-9.625 9.625s4.31 9.625 9.625 9.625h39.438v47.796c0 5.316 4.31 9.625 9.625 9.625h47.797v39.438c0 5.316 4.31 9.625 9.625 9.625s9.625-4.31 9.625-9.625v-39.438h50.694v39.438c0 5.316 4.31 9.625 9.625 9.625s9.625-4.31 9.625-9.625v-39.438h50.694v39.438c0 5.316 4.31 9.625 9.625 9.625 5.316 0 9.625-4.31 9.625-9.625v-39.438h50.694v39.438c0 5.316 4.31 9.625 9.625 9.625 5.316 0 9.625-4.31 9.625-9.625v-39.438h50.694v39.438c0 5.316 4.31 9.625 9.625 9.625s9.625-4.31 9.625-9.625v-39.438h47.796c5.316 0 9.625-4.31 9.625-9.625v-47.796h39.438c5.316 0 9.625-4.31 9.625-9.625s-4.31-9.625-9.625-9.625h-39.438v-50.693h39.438c5.316 0 9.625-4.31 9.625-9.625 0-5.316-4.31-9.625-9.625-9.625h-39.438v-50.694h39.438c5.316 0 9.625-4.31 9.625-9.625s-4.31-9.625-9.625-9.625h-39.438v-50.694h39.438v.001c5.32-.001 9.63-4.31 9.63-9.626zm-68.315 257.629h-375.37v-375.371h375.371v375.371z"/></g></svg>