<?xml version="1.0" encoding="iso-8859-1"?>
<!-- Generator: Adobe Illustrator 19.0.0, SVG Export Plug-In . SVG Version: 6.00 Build 0)  -->
<svg xmlns="http://www.w3.org/2000/svg" xmlns:xlink="http://www.w3.org/1999/xlink" version="1.1" id="Layer_1" x="0px" y="0px" viewBox="0 0 512 512" style="enable-background:new 0 0 512 512;" xml:space="preserve" width="512px" height="512px">
<g>
	<g>
		<path d="M396.064,164.585c-5.316,0-9.625,4.31-9.625,9.625v212.23H187.4c-5.316,0-9.625,4.31-9.625,9.625s4.31,9.625,9.625,9.625    h208.664c5.316,0,9.625-4.31,9.625-9.625V174.21C405.69,168.894,401.38,164.585,396.064,164.585z" fill="#FFFFFF"/>
	</g>
</g>
<g>
	<g>
		<path d="M396.064,106.311H115.937c-5.316,0-9.625,4.31-9.625,9.625v280.127c0,5.316,4.31,9.625,9.625,9.625h39.405    c5.316,0,9.625-4.31,9.625-9.625s-4.31-9.625-9.625-9.625h-29.78V125.562h260.876v16.562c0,5.316,4.31,9.625,9.625,9.625    s9.625-4.31,9.625-9.625v-26.188C405.69,110.621,401.38,106.311,396.064,106.311z" fill="#FFFFFF"/>
	</g>
</g>
<g>
	<g>
		<path d="M281.356,153.342h-114.31c-5.316,0-9.625,4.31-9.625,9.625c0,5.316,4.31,9.625,9.625,9.625h114.31    c5.316,0,9.625-4.31,9.625-9.625C290.982,157.652,286.672,153.342,281.356,153.342z" fill="#FFFFFF"/>
	</g>
</g>
<g>
	<g>
		<path d="M217.096,194.441h-50.049c-5.316,0-9.625,4.31-9.625,9.625c0,5.316,4.31,9.625,9.625,9.625h50.049    c5.316,0,9.625-4.31,9.625-9.625C226.721,198.751,222.412,194.441,217.096,194.441z" fill="#FFFFFF"/>
	</g>
</g>
<g>
	<g>
		<path d="M512,186.057c0-5.316-4.31-9.625-9.625-9.625h-39.438v-50.694h39.438c5.316,0,9.625-4.31,9.625-9.625    s-4.31-9.625-9.625-9.625h-39.438V58.69c0-5.316-4.31-9.625-9.625-9.625h-47.796V9.626c0-5.316-4.31-9.625-9.625-9.625    s-9.625,4.31-9.625,9.625v39.438H335.57V9.626c0-5.316-4.31-9.625-9.625-9.625c-5.316,0-9.625,4.31-9.625,9.625v39.438h-50.694    V9.626c0-5.316-4.31-9.625-9.625-9.625c-5.316,0-9.625,4.31-9.625,9.625v39.438h-50.694V9.626c0-5.316-4.31-9.625-9.625-9.625    s-9.625,4.31-9.625,9.625v39.438h-50.694V9.626c0-5.316-4.31-9.625-9.625-9.625c-5.316,0-9.625,4.31-9.625,9.625v39.438H58.689    c-5.316,0-9.625,4.31-9.625,9.625v47.796H9.625c-5.316,0-9.625,4.31-9.625,9.625s4.31,9.625,9.625,9.625h39.438v50.694H9.625    C4.31,176.43,0,180.74,0,186.056s4.31,9.625,9.625,9.625h39.438v50.694H9.625C4.31,246.375,0,250.684,0,256    c0,5.316,4.31,9.625,9.625,9.625h39.438v50.694H9.625c-5.316,0-9.625,4.31-9.625,9.625s4.31,9.625,9.625,9.625h39.438v50.694    H9.625c-5.316,0-9.625,4.31-9.625,9.625s4.31,9.625,9.625,9.625h39.438v47.796c0,5.316,4.31,9.625,9.625,9.625h47.797v39.438    c0,5.316,4.31,9.625,9.625,9.625s9.625-4.31,9.625-9.625v-39.438h50.694v39.438c0,5.316,4.31,9.625,9.625,9.625    s9.625-4.31,9.625-9.625v-39.438h50.694v39.438c0,5.316,4.31,9.625,9.625,9.625c5.316,0,9.625-4.31,9.625-9.625v-39.438h50.694    v39.438c0,5.316,4.31,9.625,9.625,9.625c5.316,0,9.625-4.31,9.625-9.625v-39.438h50.694v39.438c0,5.316,4.31,9.625,9.625,9.625    s9.625-4.31,9.625-9.625v-39.438h47.796c5.316,0,9.625-4.31,9.625-9.625v-47.796h39.438c5.316,0,9.625-4.31,9.625-9.625    s-4.31-9.625-9.625-9.625h-39.438V335.57h39.438c5.316,0,9.625-4.31,9.625-9.625c0-5.316-4.31-9.625-9.625-9.625h-39.438v-50.694    h39.438c5.316,0,9.625-4.31,9.625-9.625s-4.31-9.625-9.625-9.625h-39.438v-50.694h39.438v0.001    C507.69,195.682,512,191.373,512,186.057z M443.685,443.686H68.315V68.315h375.371V443.686z" fill="#FFFFFF"/>
	</g>
</g>
<g>
</g>
<g>
</g>
<g>
</g>
<g>
</g>
<g>
</g>
<g>
</g>
<g>
</g>
<g>
</g>
<g>
</g>
<g>
</g>
<g>
</g>
<g>
</g>
<g>
</g>
<g>
</g>
<g>
</g>
</svg>
