<?xml version="1.0" encoding="iso-8859-1"?>
<!-- Generator: Adobe Illustrator 19.0.0, SVG Export Plug-In . SVG Version: 6.00 Build 0)  -->
<svg xmlns="http://www.w3.org/2000/svg" xmlns:xlink="http://www.w3.org/1999/xlink" version="1.1" id="Capa_1" x="0px" y="0px" viewBox="0 0 512 512" style="enable-background:new 0 0 512 512;" xml:space="preserve" width="512px" height="512px">
<g>
	<g>
		<g>
			<path d="M164.571,338.286h182.857V173.714H164.571V338.286z M301.714,192H320c5.049,0,9.143,4.093,9.143,9.143     c0,5.049-4.093,9.143-9.143,9.143h-18.286c-5.049,0-9.143-4.093-9.143-9.143C292.571,196.093,296.665,192,301.714,192z      M301.714,228.571H320c5.049,0,9.143,4.093,9.143,9.143s-4.093,9.143-9.143,9.143h-18.286c-5.049,0-9.143-4.093-9.143-9.143     S296.665,228.571,301.714,228.571z M301.714,265.143H320c5.049,0,9.143,4.093,9.143,9.143c0,5.049-4.093,9.143-9.143,9.143     h-18.286c-5.049,0-9.143-4.093-9.143-9.143C292.571,269.236,296.665,265.143,301.714,265.143z M301.714,301.714H320     c5.049,0,9.143,4.093,9.143,9.143c0,5.049-4.093,9.143-9.143,9.143h-18.286c-5.049,0-9.143-4.093-9.143-9.143     C292.571,305.808,296.665,301.714,301.714,301.714z M246.857,192h18.286c5.049,0,9.143,4.093,9.143,9.143     c0,5.049-4.093,9.143-9.143,9.143h-18.286c-5.049,0-9.143-4.093-9.143-9.143C237.714,196.093,241.808,192,246.857,192z      M246.857,228.571h18.286c5.049,0,9.143,4.093,9.143,9.143s-4.093,9.143-9.143,9.143h-18.286c-5.049,0-9.143-4.093-9.143-9.143     S241.808,228.571,246.857,228.571z M246.857,265.143h18.286c5.049,0,9.143,4.093,9.143,9.143c0,5.049-4.093,9.143-9.143,9.143     h-18.286c-5.049,0-9.143-4.093-9.143-9.143C237.714,269.236,241.808,265.143,246.857,265.143z M246.857,301.714h18.286     c5.049,0,9.143,4.093,9.143,9.143c0,5.049-4.093,9.143-9.143,9.143h-18.286c-5.049,0-9.143-4.093-9.143-9.143     C237.714,305.808,241.808,301.714,246.857,301.714z M192,192h18.286c5.049,0,9.143,4.093,9.143,9.143     c0,5.049-4.093,9.143-9.143,9.143H192c-5.049,0-9.143-4.093-9.143-9.143C182.857,196.093,186.951,192,192,192z M192,228.571     h18.286c5.049,0,9.143,4.093,9.143,9.143s-4.093,9.143-9.143,9.143H192c-5.049,0-9.143-4.093-9.143-9.143     S186.951,228.571,192,228.571z M192,265.143h18.286c5.049,0,9.143,4.093,9.143,9.143c0,5.049-4.093,9.143-9.143,9.143H192     c-5.049,0-9.143-4.093-9.143-9.143C182.857,269.236,186.951,265.143,192,265.143z M192,301.714h18.286     c5.049,0,9.143,4.093,9.143,9.143c0,5.049-4.093,9.143-9.143,9.143H192c-5.049,0-9.143-4.093-9.143-9.143     C182.857,305.808,186.951,301.714,192,301.714z" fill="#FFFFFF"/>
			<path d="M502.857,0H428.16c-3.907,10.94-14.257,18.255-25.874,18.286c-7.178-0.029-14.063-2.849-19.2-7.863     C380.09,7.507,377.807,3.941,376.411,0H9.143C4.1,0.015,0.015,4.1,0,9.143v493.714c0.015,5.043,4.1,9.128,9.143,9.143h367.269     c1.395-3.941,3.679-7.507,6.674-10.423c6.686-6.57,16.265-9.27,25.397-7.158c9.133,2.112,16.554,8.742,19.677,17.581h74.697     c5.043-0.015,9.128-4.1,9.143-9.143V9.143C511.985,4.1,507.9,0.015,502.857,0z M322.651,30.08     c2.616-2.637,6.567-3.43,9.998-2.006s5.658,4.783,5.637,8.497c-0.024,4.127-2.81,7.726-6.798,8.784     c-3.989,1.058-8.192-0.687-10.258-4.259C319.162,37.524,319.745,33.01,322.651,30.08z M335.634,79.634     c-3.593,3.539-9.368,3.518-12.934-0.049c-3.566-3.566-3.588-9.341-0.049-12.934c3.593-3.539,9.368-3.518,12.934,0.049     C339.152,70.266,339.174,76.041,335.634,79.634z M322.651,103.223c3.103-3.165,8.012-3.691,11.715-1.256     c3.703,2.435,5.166,7.151,3.49,11.254c-1.676,4.103-6.021,6.446-10.37,5.592c-4.349-0.854-7.486-4.666-7.486-9.099     C320.031,107.293,320.979,104.974,322.651,103.223z M286.08,30.08c2.616-2.637,6.567-3.43,9.998-2.006s5.658,4.783,5.637,8.497     c-0.024,4.127-2.81,7.726-6.798,8.784c-3.989,1.058-8.192-0.687-10.258-4.259C282.591,37.524,283.174,33.01,286.08,30.08z      M286.08,103.223c2.654-2.547,6.556-3.299,9.966-1.92c1.107,0.464,2.128,1.113,3.017,1.92c1.669,1.753,2.616,4.071,2.651,6.491     c-0.016,0.613-0.077,1.224-0.183,1.829c-0.099,0.573-0.284,1.128-0.549,1.646c-0.182,0.562-0.46,1.088-0.823,1.554     c-0.366,0.549-0.731,1.006-1.097,1.463c-0.889,0.807-1.91,1.456-3.017,1.92c-1.085,0.512-2.275,0.763-3.474,0.731     c-3.697-0.015-7.023-2.246-8.441-5.66C282.713,109.783,283.482,105.852,286.08,103.223z M286.08,66.651     c3.593-3.539,9.368-3.518,12.934,0.049c3.566,3.566,3.588,9.341,0.049,12.934c-3.593,3.539-9.368,3.518-12.934-0.049     C282.562,76.019,282.541,70.244,286.08,66.651z M249.509,30.08c2.616-2.637,6.567-3.43,9.997-2.006s5.658,4.783,5.637,8.497     c-0.024,4.127-2.81,7.726-6.798,8.784c-3.989,1.058-8.192-0.687-10.258-4.259C246.02,37.524,246.603,33.01,249.509,30.08z      M262.491,79.634c-0.889,0.807-1.91,1.456-3.017,1.92c-1.085,0.512-2.275,0.763-3.474,0.731c-3.696-0.015-7.023-2.246-8.441-5.66     c-1.417-3.414-0.649-7.345,1.949-9.974c2.617-2.617,6.564-3.378,9.966-1.92c1.107,0.464,2.128,1.113,3.017,1.92     C266.027,70.257,266.027,76.029,262.491,79.634z M249.509,103.223c3.103-3.165,8.012-3.691,11.715-1.256     c3.703,2.435,5.166,7.151,3.49,11.254c-1.676,4.103-6.021,6.446-10.37,5.592c-4.349-0.854-7.486-4.666-7.486-9.099     C246.888,107.293,247.836,104.974,249.509,103.223z M212.937,30.08c2.616-2.637,6.567-3.43,9.998-2.006s5.658,4.783,5.637,8.497     c-0.024,4.127-2.81,7.726-6.798,8.784c-3.989,1.058-8.192-0.687-10.258-4.259C209.448,37.524,210.031,33.01,212.937,30.08z      M212.937,66.651c0.889-0.807,1.91-1.456,3.017-1.92c3.405-1.434,7.338-0.677,9.966,1.92c2.637,2.616,3.43,6.567,2.006,9.998     c-1.424,3.431-4.783,5.658-8.497,5.637c-1.199,0.031-2.389-0.219-3.474-0.731c-1.108-0.464-2.128-1.113-3.017-1.92     C209.402,76.029,209.402,70.257,212.937,66.651z M212.937,103.223c3.103-3.165,8.012-3.691,11.715-1.256     c3.703,2.435,5.166,7.151,3.49,11.254c-1.676,4.103-6.021,6.446-10.37,5.592c-4.349-0.854-7.486-4.666-7.486-9.099     C210.317,107.293,211.264,104.974,212.937,103.223z M176.366,30.08c2.616-2.637,6.567-3.43,9.998-2.006s5.658,4.783,5.637,8.497     c-0.024,4.127-2.81,7.726-6.798,8.784c-3.989,1.058-8.192-0.687-10.258-4.259C172.877,37.524,173.46,33.01,176.366,30.08z      M176.366,103.223c2.654-2.547,6.556-3.299,9.966-1.92c1.107,0.464,2.128,1.113,3.017,1.92c1.669,1.753,2.616,4.071,2.651,6.491     c-0.016,0.613-0.077,1.224-0.183,1.829c-0.099,0.573-0.284,1.128-0.549,1.646c-0.182,0.562-0.46,1.088-0.823,1.554     c-0.366,0.549-0.731,1.006-1.097,1.463c-0.889,0.807-1.909,1.456-3.017,1.92c-1.085,0.512-2.275,0.763-3.474,0.731     c-3.697-0.015-7.023-2.246-8.441-5.66C172.999,109.783,173.767,105.852,176.366,103.223z M176.366,66.651     c3.593-3.539,9.368-3.518,12.934,0.049c3.566,3.566,3.588,9.341,0.049,12.934c-3.593,3.539-9.368,3.518-12.934-0.049     C172.848,76.019,172.826,70.244,176.366,66.651z M139.794,30.08c2.616-2.637,6.567-3.43,9.998-2.006     c3.43,1.424,5.658,4.783,5.637,8.497c-0.024,4.127-2.81,7.726-6.798,8.784c-3.989,1.058-8.192-0.687-10.258-4.259     C136.305,37.524,136.888,33.01,139.794,30.08z M152.777,79.634c-3.593,3.539-9.368,3.518-12.934-0.049     c-3.566-3.566-3.588-9.341-0.049-12.934c3.593-3.539,9.368-3.518,12.934,0.049C156.295,70.266,156.316,76.041,152.777,79.634z      M139.794,103.223c2.929-2.963,7.486-3.582,11.1-1.508c3.613,2.074,5.377,6.322,4.295,10.345     c-1.082,4.024-4.737,6.814-8.904,6.797c-0.613-0.016-1.224-0.077-1.829-0.183c-0.573-0.099-1.128-0.284-1.646-0.549     c-0.562-0.182-1.088-0.46-1.554-0.823c-0.549-0.366-1.006-0.731-1.463-1.097C136.259,112.6,136.259,106.829,139.794,103.223z      M103.223,30.08c2.628-2.597,6.561-3.354,9.966-1.92c1.107,0.464,2.128,1.113,3.017,1.92c3.535,3.606,3.535,9.377,0,12.983     c-0.889,0.807-1.91,1.456-3.017,1.92c-1.099,0.469-2.279,0.718-3.474,0.731c-2.42-0.035-4.739-0.982-6.491-2.651     c-1.684-1.743-2.634-4.068-2.651-6.491C100.607,34.151,101.553,31.833,103.223,30.08z M116.206,79.634     c-3.593,3.539-9.368,3.518-12.934-0.049c-3.566-3.566-3.588-9.341-0.049-12.934c3.593-3.539,9.368-3.518,12.934,0.049     C119.723,70.266,119.745,76.041,116.206,79.634z M69.637,28.074c3.431-1.424,7.382-0.632,9.998,2.006     c3.535,3.606,3.535,9.377,0,12.983c-2.616,2.637-6.567,3.43-9.998,2.006c-3.43-1.424-5.658-4.783-5.637-8.497     C63.978,32.857,66.206,29.499,69.637,28.074z M79.634,79.634c-3.593,3.539-9.368,3.518-12.934-0.049     c-3.566-3.566-3.588-9.341-0.049-12.934c3.593-3.539,9.368-3.518,12.934,0.049C83.152,70.266,83.174,76.041,79.634,79.634z      M30.08,30.08c2.616-2.637,6.567-3.43,9.998-2.006c3.43,1.424,5.658,4.783,5.637,8.497c-0.035,2.42-0.982,4.739-2.651,6.491     c-3.606,3.535-9.377,3.535-12.983,0C26.545,39.457,26.545,33.686,30.08,30.08z M28.16,398.811     c0.442-1.119,1.094-2.143,1.92-3.017c2.628-2.597,6.561-3.354,9.966-1.92c1.119,0.442,2.143,1.094,3.017,1.92     c0.807,0.889,1.456,1.91,1.92,3.017c0.469,1.099,0.718,2.279,0.731,3.474c-0.035,2.42-0.982,4.739-2.651,6.491     c-3.606,3.535-9.377,3.535-12.983,0c-1.67-1.753-2.616-4.071-2.651-6.491C27.442,401.091,27.69,399.91,28.16,398.811z      M27.429,365.714c0.035-2.42,0.982-4.739,2.651-6.491c0.874-0.826,1.898-1.478,3.017-1.92c1.667-0.73,3.521-0.922,5.303-0.549     c0.573,0.1,1.128,0.284,1.646,0.549c0.583,0.2,1.136,0.477,1.646,0.823c0.479,0.338,0.937,0.704,1.371,1.097     c3.535,3.606,3.535,9.377,0,12.983l-1.371,1.097c-0.509,0.346-1.063,0.623-1.646,0.823c-0.518,0.264-1.073,0.449-1.646,0.549     c-0.604,0.106-1.215,0.167-1.829,0.183c-1.195-0.013-2.375-0.262-3.474-0.731c-1.119-0.442-2.143-1.094-3.017-1.92     c-0.366-0.457-0.731-0.914-1.097-1.463c-0.363-0.466-0.641-0.992-0.823-1.554c-0.264-0.518-0.449-1.073-0.549-1.646     C27.51,366.938,27.449,366.327,27.429,365.714z M45.531,330.971c-0.099,0.573-0.284,1.128-0.549,1.646     c-0.182,0.562-0.46,1.088-0.823,1.554c-0.366,0.549-0.731,1.006-1.097,1.463c-0.889,0.807-1.91,1.456-3.017,1.92     c-2.214,0.976-4.735,0.976-6.949,0c-1.108-0.464-2.128-1.113-3.017-1.92c-0.366-0.457-0.731-0.914-1.097-1.463     c-0.363-0.466-0.641-0.992-0.823-1.554c-0.264-0.518-0.449-1.073-0.549-1.646c-0.106-0.604-0.167-1.215-0.183-1.829     c0.013-1.195,0.262-2.375,0.731-3.474c0.442-1.119,1.094-2.143,1.92-3.017c0.889-0.807,1.91-1.456,3.017-1.92     c2.214-0.975,4.735-0.975,6.949,0c1.107,0.464,2.128,1.113,3.017,1.92c0.826,0.874,1.478,1.898,1.92,3.017     c0.469,1.099,0.718,2.279,0.731,3.474C45.699,329.756,45.638,330.367,45.531,330.971z M45.531,294.4     c-0.099,0.573-0.284,1.128-0.549,1.646c-0.2,0.583-0.476,1.136-0.823,1.646l-1.097,1.371c-1.753,1.67-4.071,2.617-6.491,2.651     c-1.195-0.013-2.375-0.262-3.474-0.731c-1.119-0.442-2.143-1.093-3.017-1.92c-0.393-0.435-0.76-0.893-1.097-1.371     c-0.346-0.51-0.623-1.063-0.823-1.646c-0.264-0.518-0.449-1.073-0.549-1.646c-0.106-0.604-0.167-1.215-0.183-1.829     c0.035-2.42,0.982-4.739,2.651-6.491c0.874-0.826,1.898-1.478,3.017-1.92c3.404-1.434,7.338-0.677,9.966,1.92l1.097,1.371     c0.346,0.509,0.623,1.063,0.823,1.646c0.264,0.518,0.449,1.073,0.549,1.646c0.102,0.605,0.163,1.216,0.183,1.829     C45.699,293.185,45.638,293.796,45.531,294.4z M44.983,259.474c-0.464,1.108-1.113,2.128-1.92,3.017     c-0.889,0.807-1.91,1.456-3.017,1.92c-1.099,0.469-2.279,0.718-3.474,0.731c-2.42-0.035-4.739-0.982-6.491-2.651     c-0.807-0.889-1.456-1.91-1.92-3.017c-0.469-1.099-0.718-2.279-0.731-3.474c0.035-2.42,0.982-4.739,2.651-6.491     c2.632-2.589,6.56-3.345,9.966-1.92c1.107,0.464,2.128,1.113,3.017,1.92c1.669,1.753,2.616,4.071,2.651,6.491     C45.701,257.195,45.452,258.375,44.983,259.474z M27.429,219.429c-0.022-3.714,2.206-7.073,5.637-8.497s7.382-0.632,9.998,2.006     c3.535,3.606,3.535,9.377,0,12.983c-0.434,0.393-0.892,0.76-1.371,1.097c-0.509,0.346-1.063,0.623-1.646,0.823     c-0.518,0.264-1.073,0.449-1.646,0.549c-0.604,0.106-1.215,0.167-1.829,0.183c-0.613-0.02-1.224-0.081-1.829-0.183     c-0.573-0.099-1.128-0.284-1.646-0.549c-0.583-0.2-1.136-0.477-1.646-0.823c-0.479-0.337-0.937-0.704-1.371-1.097l-1.097-1.371     c-0.346-0.509-0.623-1.063-0.823-1.646c-0.264-0.518-0.449-1.073-0.549-1.646C27.505,220.653,27.444,220.042,27.429,219.429z      M45.531,184.686c-0.099,0.573-0.284,1.128-0.549,1.646c-0.2,0.583-0.476,1.136-0.823,1.646     c-0.338,0.479-0.704,0.937-1.097,1.371c-3.606,3.535-9.377,3.535-12.983,0c-0.393-0.435-0.76-0.893-1.097-1.371     c-0.346-0.509-0.623-1.063-0.823-1.646c-0.264-0.518-0.449-1.073-0.549-1.646c-0.106-0.604-0.167-1.215-0.183-1.829     c0.013-1.195,0.262-2.375,0.731-3.474c0.464-1.108,1.113-2.128,1.92-3.017c3.667-3.383,9.316-3.383,12.983,0     c0.807,0.889,1.456,1.91,1.92,3.017c0.469,1.099,0.718,2.279,0.731,3.474C45.699,183.47,45.638,184.082,45.531,184.686z      M30.08,139.794c0.889-0.807,1.91-1.456,3.017-1.92c3.402-1.458,7.349-0.697,9.966,1.92c3.535,3.606,3.535,9.377,0,12.983     c-1.753,1.67-4.071,2.617-6.491,2.651c-1.195-0.013-2.375-0.262-3.474-0.731c-1.108-0.464-2.128-1.113-3.017-1.92     C26.545,149.171,26.545,143.4,30.08,139.794z M30.08,103.223c0.889-0.807,1.91-1.456,3.017-1.92     c3.409-1.388,7.316-0.635,9.966,1.92c3.535,3.606,3.535,9.377,0,12.983c-1.753,1.67-4.071,2.617-6.491,2.651     c-1.199,0.031-2.389-0.219-3.474-0.731c-1.108-0.464-2.128-1.113-3.017-1.92C26.545,112.6,26.545,106.829,30.08,103.223z      M30.106,66.678c3.575-3.575,9.367-3.587,12.956-0.026c3.535,3.606,3.535,9.377,0,12.983c-3.606,3.535-9.377,3.535-12.983,0     C26.52,76.045,26.532,70.253,30.106,66.678z M44.983,478.903c-0.464,1.108-1.113,2.128-1.92,3.017     c-3.606,3.536-9.377,3.536-12.983,0c-3.535-3.606-3.535-9.377,0-12.983c0.874-0.826,1.898-1.478,3.017-1.92     c2.226-0.914,4.723-0.914,6.949,0c1.119,0.442,2.143,1.094,3.017,1.92c1.669,1.753,2.616,4.071,2.651,6.491     C45.701,476.623,45.452,477.804,44.983,478.903z M44.983,442.331c-0.442,1.119-1.093,2.143-1.92,3.017     c-0.457,0.366-0.914,0.731-1.463,1.097c-0.466,0.363-0.992,0.641-1.554,0.823c-0.545,0.278-1.132,0.463-1.737,0.549     c-0.573,0.106-1.154,0.167-1.737,0.183c-2.42-0.035-4.739-0.982-6.491-2.651c-0.827-0.874-1.478-1.898-1.92-3.017     c-0.975-2.214-0.975-4.735,0-6.949c0.442-1.119,1.094-2.143,1.92-3.017c3.667-3.383,9.316-3.383,12.983,0     c0.826,0.874,1.478,1.898,1.92,3.017C45.958,437.596,45.958,440.118,44.983,442.331z M81.554,478.903     c-0.464,1.108-1.113,2.128-1.92,3.017l-1.371,1.097c-0.51,0.346-1.063,0.623-1.646,0.823c-0.518,0.264-1.073,0.449-1.646,0.549     c-0.605,0.102-1.216,0.163-1.829,0.183c-3.697-0.015-7.023-2.246-8.441-5.66c-1.417-3.414-0.649-7.345,1.949-9.974     c0.889-0.807,1.91-1.456,3.017-1.92c3.409-1.388,7.316-0.635,9.966,1.92c1.669,1.753,2.616,4.071,2.651,6.491     C82.317,476.628,82.067,477.818,81.554,478.903z M79.634,445.349l-1.371,1.097c-0.51,0.346-1.063,0.623-1.646,0.823     c-0.518,0.264-1.073,0.449-1.646,0.549c-1.207,0.244-2.45,0.244-3.657,0c-0.573-0.099-1.128-0.284-1.646-0.549     c-0.583-0.2-1.136-0.477-1.646-0.823l-1.371-1.097c-1.67-1.753-2.616-4.071-2.651-6.491c0.013-1.195,0.262-2.375,0.731-3.474     c0.442-1.119,1.094-2.143,1.92-3.017c0.435-0.393,0.893-0.759,1.371-1.097c0.51-0.346,1.063-0.623,1.646-0.823     c0.518-0.264,1.073-0.449,1.646-0.549c1.204-0.274,2.453-0.274,3.657,0c0.573,0.1,1.128,0.285,1.646,0.549     c0.583,0.2,1.136,0.477,1.646,0.823c0.479,0.338,0.937,0.704,1.371,1.097c0.826,0.874,1.478,1.898,1.92,3.017     c0.512,1.085,0.763,2.275,0.731,3.474C82.251,441.278,81.304,443.596,79.634,445.349z M79.634,408.777l-1.371,1.097     c-0.51,0.346-1.063,0.623-1.646,0.823c-0.518,0.264-1.073,0.449-1.646,0.549c-1.207,0.244-2.45,0.244-3.657,0     c-0.573-0.099-1.128-0.284-1.646-0.549c-0.583-0.2-1.136-0.477-1.646-0.823l-1.371-1.097c-1.67-1.753-2.616-4.071-2.651-6.491     c0.013-1.195,0.262-2.375,0.731-3.474c0.442-1.119,1.094-2.143,1.92-3.017l1.371-1.097c0.51-0.346,1.063-0.623,1.646-0.823     c0.518-0.264,1.073-0.449,1.646-0.549c1.212-0.182,2.445-0.182,3.657,0c0.573,0.1,1.128,0.285,1.646,0.549     c0.583,0.2,1.136,0.477,1.646,0.823l1.371,1.097c0.826,0.874,1.478,1.898,1.92,3.017c0.47,1.099,0.718,2.279,0.731,3.474     C82.251,404.706,81.304,407.024,79.634,408.777z M82.103,367.543c-0.099,0.573-0.284,1.128-0.549,1.646     c-0.182,0.562-0.46,1.088-0.823,1.554c-0.314,0.525-0.681,1.015-1.097,1.463c-0.889,0.807-1.909,1.456-3.017,1.92     c-2.213,0.976-4.735,0.976-6.949,0c-1.108-0.464-2.128-1.113-3.017-1.92c-3.535-3.606-3.535-9.377,0-12.983     c0.889-0.807,1.91-1.456,3.017-1.92c3.41-1.379,7.312-0.627,9.966,1.92c1.669,1.753,2.616,4.071,2.651,6.491     C82.266,366.327,82.205,366.938,82.103,367.543z M82.103,330.971c-0.099,0.573-0.284,1.128-0.549,1.646     c-0.182,0.562-0.46,1.088-0.823,1.554c-0.366,0.549-0.731,1.006-1.097,1.463c-0.874,0.827-1.898,1.478-3.017,1.92     c-1.099,0.47-2.279,0.718-3.474,0.731c-2.42-0.035-4.739-0.982-6.491-2.651c-0.366-0.457-0.731-0.914-1.097-1.463     c-0.363-0.466-0.641-0.992-0.823-1.554c-0.264-0.518-0.449-1.073-0.549-1.646c-0.106-0.604-0.167-1.215-0.183-1.829     c0.013-1.195,0.262-2.375,0.731-3.474c0.464-1.108,1.113-2.128,1.92-3.017c3.643-3.442,9.34-3.442,12.983,0     c1.669,1.753,2.616,4.071,2.651,6.491C82.27,329.756,82.209,330.367,82.103,330.971z M82.103,294.4     c-0.099,0.573-0.284,1.128-0.549,1.646c-0.2,0.583-0.476,1.136-0.823,1.646l-1.097,1.371l-1.371,1.097     c-0.51,0.346-1.063,0.623-1.646,0.823c-0.518,0.264-1.073,0.449-1.646,0.549c-0.604,0.106-1.215,0.167-1.829,0.183     c-2.42-0.035-4.739-0.982-6.491-2.651l-1.097-1.371c-0.346-0.51-0.623-1.063-0.823-1.646c-0.264-0.518-0.449-1.073-0.549-1.646     c-0.106-0.604-0.167-1.215-0.183-1.829c0.035-2.42,0.982-4.739,2.651-6.491c2.212-2.118,5.311-3.037,8.32-2.469     c0.573,0.1,1.128,0.285,1.646,0.549c0.583,0.2,1.136,0.477,1.646,0.823l1.371,1.097c1.669,1.753,2.616,4.071,2.651,6.491     C82.27,293.185,82.209,293.796,82.103,294.4z M81.554,259.474c-0.464,1.108-1.113,2.128-1.92,3.017     c-1.753,1.67-4.071,2.617-6.491,2.651c-1.195-0.013-2.375-0.262-3.474-0.731c-2.296-0.833-4.104-2.641-4.937-4.937     c-0.469-1.099-0.718-2.279-0.731-3.474c0.035-2.42,0.982-4.739,2.651-6.491c0.889-0.807,1.91-1.456,3.017-1.92     c3.405-1.425,7.334-0.669,9.966,1.92c1.669,1.753,2.616,4.071,2.651,6.491C82.317,257.199,82.067,258.389,81.554,259.474z      M66.651,212.937c2.617-2.617,6.564-3.378,9.966-1.92c1.107,0.464,2.128,1.113,3.017,1.92c3.535,3.606,3.535,9.377,0,12.983     c-0.889,0.807-1.909,1.456-3.017,1.92c-1.085,0.512-2.275,0.763-3.474,0.731c-0.613-0.016-1.224-0.077-1.829-0.183     c-0.573-0.099-1.128-0.284-1.646-0.549c-0.562-0.182-1.088-0.46-1.554-0.823c-0.525-0.313-1.015-0.681-1.463-1.097     C63.116,222.314,63.116,216.543,66.651,212.937z M82.103,184.686c-0.099,0.573-0.284,1.128-0.549,1.646     c-0.2,0.583-0.476,1.136-0.823,1.646l-1.097,1.371l-1.371,1.097c-0.51,0.346-1.063,0.623-1.646,0.823     c-0.518,0.264-1.073,0.449-1.646,0.549c-0.604,0.106-1.215,0.167-1.829,0.183c-1.199,0.031-2.389-0.219-3.474-0.731     c-1.108-0.464-2.128-1.113-3.017-1.92c-1.684-1.743-2.634-4.068-2.651-6.491c0.013-1.195,0.262-2.375,0.731-3.474     c0.833-2.296,2.641-4.104,4.937-4.937c1.099-0.47,2.279-0.718,3.474-0.731c2.42,0.035,4.739,0.982,6.491,2.651     c0.807,0.889,1.456,1.91,1.92,3.017c0.512,1.085,0.763,2.275,0.731,3.474C82.27,183.47,82.209,184.082,82.103,184.686z      M79.634,152.777c-3.103,3.165-8.012,3.691-11.715,1.256c-3.703-2.435-5.166-7.151-3.49-11.254s6.021-6.446,10.37-5.592     c4.349,0.854,7.486,4.666,7.486,9.099C82.251,148.706,81.304,151.024,79.634,152.777z M82.103,111.543     c-0.099,0.573-0.284,1.128-0.549,1.646c-0.182,0.562-0.46,1.088-0.823,1.554c-0.366,0.549-0.731,1.006-1.097,1.463     c-0.889,0.807-1.909,1.456-3.017,1.92c-1.085,0.512-2.275,0.763-3.474,0.731c-5.049,0-9.143-4.093-9.143-9.143     s4.093-9.143,9.143-9.143c1.195,0.013,2.375,0.262,3.474,0.731c1.107,0.464,2.128,1.113,3.017,1.92     c1.669,1.753,2.616,4.071,2.651,6.491C82.27,110.328,82.209,110.939,82.103,111.543z M116.206,481.92     c-1.753,1.67-4.071,2.617-6.491,2.651c-0.613-0.02-1.224-0.081-1.829-0.183c-0.573-0.099-1.128-0.284-1.646-0.549     c-0.583-0.2-1.136-0.477-1.646-0.823l-1.371-1.097c-0.807-0.889-1.456-1.909-1.92-3.017c-0.975-2.214-0.975-4.735,0-6.949     c0.464-1.108,1.113-2.128,1.92-3.017c2.649-2.555,6.557-3.308,9.966-1.92c1.119,0.442,2.143,1.094,3.017,1.92     C119.741,472.543,119.741,478.314,116.206,481.92z M116.206,445.349c-0.889,0.807-1.91,1.456-3.017,1.92     c-1.099,0.47-2.279,0.718-3.474,0.731c-2.432,0.024-4.771-0.932-6.491-2.651c-1.72-1.72-2.675-4.059-2.652-6.491     c0.013-1.195,0.262-2.375,0.731-3.474c0.865-2.276,2.63-4.096,4.879-5.03c2.249-0.934,4.783-0.901,7.007,0.093     c1.107,0.464,2.128,1.113,3.017,1.92c0.826,0.874,1.478,1.898,1.92,3.017c0.469,1.099,0.718,2.279,0.731,3.474     C118.822,441.278,117.875,443.596,116.206,445.349z M116.206,408.777c-1.753,1.67-4.071,2.617-6.491,2.651     c-1.199,0.031-2.389-0.219-3.474-0.731c-1.108-0.464-2.128-1.113-3.017-1.92c-1.67-1.753-2.616-4.071-2.651-6.491     c0.013-1.195,0.262-2.375,0.731-3.474c0.833-2.296,2.641-4.104,4.937-4.937c2.214-0.975,4.735-0.975,6.949,0     c2.296,0.833,4.104,2.641,4.937,4.937c0.512,1.085,0.763,2.275,0.731,3.474C118.822,404.706,117.875,407.024,116.206,408.777z      M118.674,367.543c-0.099,0.573-0.284,1.128-0.549,1.646c-0.182,0.562-0.46,1.088-0.823,1.554     c-0.366,0.549-0.731,1.006-1.097,1.463c-1.753,1.67-4.071,2.617-6.491,2.651c-0.613-0.02-1.224-0.081-1.829-0.183     c-0.573-0.099-1.128-0.284-1.646-0.549c-0.583-0.2-1.136-0.477-1.646-0.823l-1.371-1.097c-0.366-0.457-0.731-0.914-1.097-1.463     c-0.363-0.466-0.641-0.992-0.823-1.554c-0.264-0.518-0.449-1.073-0.549-1.646c-0.102-0.605-0.163-1.216-0.183-1.829     c0.035-2.42,0.982-4.739,2.651-6.491c0.435-0.393,0.893-0.759,1.371-1.097c0.51-0.346,1.063-0.623,1.646-0.823     c0.518-0.264,1.073-0.449,1.646-0.549c0.596-0.156,1.213-0.217,1.829-0.183c0.585-0.03,1.171,0.032,1.737,0.183     c0.605,0.085,1.192,0.271,1.737,0.549c0.583,0.2,1.136,0.477,1.646,0.823c0.479,0.338,0.937,0.704,1.371,1.097     c1.669,1.753,2.616,4.071,2.651,6.491C118.837,366.327,118.776,366.938,118.674,367.543z M118.674,330.971     c-0.099,0.573-0.284,1.128-0.549,1.646c-0.182,0.562-0.46,1.088-0.823,1.554c-0.366,0.549-0.731,1.006-1.097,1.463l-1.371,1.097     c-0.509,0.346-1.063,0.623-1.646,0.823c-0.518,0.264-1.073,0.449-1.646,0.549c-0.604,0.106-1.215,0.167-1.829,0.183     c-1.195-0.013-2.375-0.262-3.474-0.731c-1.108-0.464-2.128-1.113-3.017-1.92c-0.416-0.448-0.784-0.938-1.097-1.463     c-0.363-0.466-0.641-0.992-0.823-1.554c-0.264-0.518-0.449-1.073-0.549-1.646c-0.106-0.604-0.167-1.215-0.183-1.829     c0.013-1.195,0.262-2.375,0.731-3.474c0.442-1.119,1.094-2.143,1.92-3.017c0.889-0.807,1.91-1.456,3.017-1.92     c3.41-1.379,7.312-0.627,9.966,1.92c0.826,0.874,1.478,1.898,1.92,3.017c0.469,1.099,0.718,2.279,0.731,3.474     C118.842,329.756,118.78,330.367,118.674,330.971z M118.674,294.4c-0.099,0.573-0.284,1.128-0.549,1.646     c-0.2,0.583-0.477,1.136-0.823,1.646c-0.338,0.479-0.704,0.937-1.097,1.371c-0.874,0.827-1.898,1.478-3.017,1.92     c-2.214,0.976-4.735,0.976-6.949,0c-1.119-0.442-2.143-1.093-3.017-1.92c-0.393-0.435-0.76-0.893-1.097-1.371     c-0.346-0.51-0.623-1.063-0.823-1.646c-0.264-0.518-0.449-1.073-0.549-1.646c-0.106-0.604-0.167-1.215-0.183-1.829     c0.035-2.42,0.982-4.739,2.651-6.491c0.874-0.826,1.898-1.478,3.017-1.92c2.214-0.975,4.735-0.975,6.949,0     c1.119,0.442,2.143,1.094,3.017,1.92c1.669,1.753,2.616,4.071,2.651,6.491C118.842,293.185,118.78,293.796,118.674,294.4z      M118.126,259.474c-0.833,2.296-2.641,4.104-4.937,4.937c-1.099,0.469-2.279,0.718-3.474,0.731     c-2.42-0.035-4.739-0.982-6.491-2.651c-0.807-0.889-1.456-1.91-1.92-3.017c-0.469-1.099-0.718-2.279-0.731-3.474     c0.035-2.42,0.982-4.739,2.651-6.491c1.729-1.706,4.063-2.659,6.491-2.651c1.195,0.013,2.375,0.262,3.474,0.731     c1.107,0.464,2.128,1.113,3.017,1.92c1.669,1.753,2.616,4.071,2.651,6.491C118.844,257.195,118.595,258.375,118.126,259.474z      M100.571,219.429c0.035-2.42,0.982-4.739,2.651-6.491c3.593-3.539,9.368-3.518,12.934,0.049s3.588,9.341,0.049,12.934     c-0.434,0.393-0.892,0.76-1.371,1.097c-0.509,0.346-1.063,0.623-1.646,0.823c-0.518,0.264-1.073,0.449-1.646,0.549     c-0.604,0.106-1.215,0.167-1.829,0.183c-2.42-0.035-4.739-0.982-6.491-2.651l-1.097-1.371c-0.346-0.509-0.623-1.063-0.823-1.646     c-0.264-0.518-0.449-1.073-0.549-1.646C100.648,220.653,100.587,220.042,100.571,219.429z M116.206,189.349l-1.371,1.097     c-0.509,0.346-1.063,0.623-1.646,0.823c-0.518,0.264-1.073,0.449-1.646,0.549c-0.604,0.106-1.215,0.167-1.829,0.183     c-2.42-0.035-4.739-0.982-6.491-2.651c-1.684-1.743-2.634-4.068-2.651-6.491c0.013-1.195,0.262-2.375,0.731-3.474     c0.464-1.108,1.113-2.128,1.92-3.017c3.667-3.383,9.316-3.383,12.983,0c0.807,0.889,1.456,1.91,1.92,3.017     c0.469,1.099,0.718,2.279,0.731,3.474C118.839,185.281,117.89,187.605,116.206,189.349z M118.674,148.114     c-0.099,0.573-0.284,1.128-0.549,1.646c-0.182,0.562-0.46,1.088-0.823,1.554c-0.366,0.549-0.731,1.006-1.097,1.463     c-1.753,1.67-4.071,2.617-6.491,2.651c-2.424-0.018-4.748-0.967-6.491-2.651c-3.535-3.606-3.535-9.377,0-12.983     c2.616-2.637,6.567-3.43,9.998-2.006s5.658,4.783,5.637,8.497C118.842,146.899,118.78,147.51,118.674,148.114z M118.428,113.22     c-1.676,4.103-6.021,6.446-10.37,5.592c-4.349-0.854-7.486-4.666-7.486-9.099c0.031-2.421,0.979-4.741,2.651-6.491     c3.103-3.165,8.012-3.691,11.715-1.256C118.641,104.402,120.104,109.117,118.428,113.22z M152.777,481.92     c-3.606,3.536-9.377,3.536-12.983,0c-0.807-0.889-1.456-1.909-1.92-3.017c-0.469-1.099-0.718-2.279-0.731-3.474     c0.035-2.42,0.982-4.739,2.651-6.491c0.874-0.826,1.898-1.478,3.017-1.92c2.226-0.914,4.723-0.914,6.949,0     c1.119,0.442,2.143,1.094,3.017,1.92C156.312,472.543,156.312,478.314,152.777,481.92z M152.777,445.349     c-1.753,1.67-4.071,2.617-6.491,2.651c-1.195-0.013-2.375-0.262-3.474-0.731c-1.108-0.464-2.128-1.113-3.017-1.92     c-1.67-1.753-2.616-4.071-2.651-6.491c0.013-1.195,0.262-2.375,0.731-3.474c0.464-1.108,1.113-2.128,1.92-3.017     c0.874-0.826,1.898-1.478,3.017-1.92c3.409-1.388,7.316-0.635,9.966,1.92c0.807,0.889,1.456,1.91,1.92,3.017     c0.469,1.099,0.718,2.279,0.731,3.474C155.394,441.278,154.447,443.596,152.777,445.349z M152.777,408.777     c-0.889,0.807-1.91,1.456-3.017,1.92c-1.085,0.512-2.275,0.763-3.474,0.731c-2.42-0.035-4.739-0.982-6.491-2.651     c-0.827-0.874-1.478-1.898-1.92-3.017c-0.975-2.213-0.975-4.735,0-6.949c0.442-1.119,1.094-2.143,1.92-3.017     c0.889-0.807,1.91-1.456,3.017-1.92c2.226-0.914,4.723-0.914,6.949,0c2.296,0.833,4.104,2.641,4.937,4.937     c0.469,1.099,0.718,2.279,0.731,3.474C155.394,404.706,154.447,407.024,152.777,408.777z M174.446,435.383     c0.442-1.119,1.094-2.143,1.92-3.017c2.196-2.145,5.309-3.068,8.32-2.469c0.573,0.1,1.128,0.285,1.646,0.549     c0.583,0.2,1.136,0.477,1.646,0.823c0.479,0.338,0.937,0.704,1.371,1.097c0.826,0.874,1.478,1.898,1.92,3.017     c0.47,1.099,0.718,2.279,0.731,3.474c-0.035,2.42-0.982,4.739-2.651,6.491l-1.371,1.097c-0.51,0.346-1.063,0.623-1.646,0.823     c-0.518,0.264-1.073,0.449-1.646,0.549c-0.605,0.102-1.216,0.163-1.829,0.183c-2.421-0.035-4.739-0.982-6.491-2.651     c-0.827-0.874-1.478-1.898-1.92-3.017C173.47,440.118,173.47,437.596,174.446,435.383z M173.714,402.286     c0.013-1.195,0.262-2.375,0.731-3.474c0.442-1.119,1.094-2.143,1.92-3.017l1.371-1.097c0.51-0.346,1.063-0.623,1.646-0.823     c0.518-0.264,1.073-0.449,1.646-0.549c1.212-0.182,2.445-0.182,3.657,0c0.573,0.1,1.128,0.285,1.646,0.549     c0.583,0.2,1.136,0.477,1.646,0.823l1.371,1.097c0.807,0.889,1.456,1.91,1.92,3.017c0.47,1.099,0.718,2.279,0.731,3.474     c-0.035,2.42-0.982,4.739-2.651,6.491l-1.371,1.097c-0.51,0.346-1.063,0.623-1.646,0.823c-0.518,0.264-1.073,0.449-1.646,0.549     c-1.207,0.244-2.45,0.244-3.657,0c-0.573-0.099-1.128-0.284-1.646-0.549c-0.583-0.2-1.136-0.477-1.646-0.823l-1.371-1.097     C174.696,407.024,173.749,404.706,173.714,402.286z M191.269,478.903c-0.464,1.108-1.113,2.128-1.92,3.017     c-3.593,3.539-9.368,3.518-12.934-0.049c-3.566-3.566-3.588-9.341-0.049-12.934c3.643-3.442,9.34-3.442,12.983,0     c0.807,0.889,1.456,1.91,1.92,3.017C192.244,474.168,192.244,476.689,191.269,478.903z M227.84,478.903     c-0.464,1.108-1.113,2.128-1.92,3.017l-1.371,1.097c-0.509,0.346-1.063,0.623-1.646,0.823c-0.518,0.264-1.073,0.449-1.646,0.549     c-0.605,0.102-1.216,0.163-1.829,0.183c-3.697-0.015-7.023-2.246-8.441-5.66c-1.417-3.414-0.649-7.345,1.949-9.974     c0.874-0.826,1.898-1.478,3.017-1.92c3.409-1.388,7.316-0.635,9.966,1.92c1.669,1.753,2.616,4.071,2.651,6.491     C228.558,476.623,228.31,477.804,227.84,478.903z M225.92,445.349c-1.753,1.67-4.071,2.617-6.491,2.651     c-0.613-0.02-1.224-0.081-1.829-0.183c-0.573-0.099-1.128-0.284-1.646-0.549c-0.583-0.2-1.136-0.477-1.646-0.823l-1.371-1.097     c-1.67-1.753-2.616-4.071-2.651-6.491c0.013-1.195,0.262-2.375,0.731-3.474c0.442-1.119,1.094-2.143,1.92-3.017     c0.435-0.393,0.893-0.759,1.371-1.097c0.51-0.346,1.063-0.623,1.646-0.823c0.518-0.264,1.073-0.449,1.646-0.549     c3.009-0.555,6.101,0.363,8.32,2.469c0.826,0.874,1.478,1.898,1.92,3.017c0.512,1.085,0.763,2.275,0.731,3.474     C228.536,441.278,227.59,443.596,225.92,445.349z M225.92,408.777c-2.616,2.637-6.567,3.43-9.997,2.006s-5.658-4.783-5.637-8.497     c0.013-1.195,0.262-2.375,0.731-3.474c0.464-1.108,1.113-2.128,1.92-3.017c0.874-0.826,1.898-1.478,3.017-1.92     c3.406-1.417,7.329-0.661,9.966,1.92c0.826,0.874,1.478,1.898,1.92,3.017c0.469,1.099,0.718,2.279,0.731,3.474     C228.536,404.706,227.59,407.024,225.92,408.777z M264.411,478.903c-0.464,1.108-1.113,2.128-1.92,3.017     c-3.606,3.536-9.377,3.536-12.983,0c-0.827-0.874-1.478-1.898-1.92-3.017c-0.975-2.214-0.975-4.735,0-6.949     c0.833-2.296,2.641-4.104,4.937-4.937c2.226-0.914,4.723-0.914,6.949,0c1.107,0.464,2.128,1.113,3.017,1.92     c1.669,1.753,2.616,4.071,2.651,6.491C265.174,476.628,264.924,477.818,264.411,478.903z M262.491,445.349     c-1.753,1.67-4.071,2.617-6.491,2.651c-1.195-0.013-2.375-0.262-3.474-0.731c-1.119-0.442-2.143-1.093-3.017-1.92     c-1.67-1.753-2.616-4.071-2.651-6.491c0.013-1.195,0.262-2.375,0.731-3.474c0.464-1.108,1.113-2.128,1.92-3.017     c0.874-0.826,1.898-1.478,3.017-1.92c3.409-1.388,7.316-0.635,9.966,1.92c0.807,0.889,1.456,1.91,1.92,3.017     c0.469,1.099,0.718,2.279,0.731,3.474C265.108,441.278,264.161,443.596,262.491,445.349z M262.491,408.777     c-1.753,1.67-4.071,2.617-6.491,2.651c-1.199,0.031-2.389-0.219-3.474-0.731c-1.108-0.464-2.128-1.113-3.017-1.92     c-0.827-0.874-1.478-1.898-1.92-3.017c-0.975-2.213-0.975-4.735,0-6.949c0.442-1.119,1.094-2.143,1.92-3.017     c0.889-0.807,1.91-1.456,3.017-1.92c2.226-0.914,4.723-0.914,6.949,0c1.119,0.442,2.143,1.094,3.017,1.92     c0.807,0.889,1.456,1.91,1.92,3.017c0.469,1.099,0.718,2.279,0.731,3.474C265.108,404.706,264.161,407.024,262.491,408.777z      M299.063,481.92c-1.753,1.67-4.071,2.617-6.491,2.651c-0.613-0.02-1.224-0.081-1.829-0.183     c-0.573-0.099-1.128-0.284-1.646-0.549c-0.583-0.2-1.136-0.477-1.646-0.823l-1.371-1.097c-0.807-0.889-1.456-1.909-1.92-3.017     c-0.976-2.214-0.976-4.735,0-6.949c0.464-1.108,1.113-2.128,1.92-3.017c2.649-2.555,6.557-3.308,9.966-1.92     c1.119,0.442,2.143,1.094,3.017,1.92C302.598,472.543,302.598,478.314,299.063,481.92z M299.063,445.349     c-0.874,0.827-1.898,1.478-3.017,1.92c-1.099,0.47-2.279,0.718-3.474,0.731c-2.432,0.024-4.772-0.932-6.491-2.651     c-1.72-1.72-2.675-4.059-2.651-6.491c0.013-1.195,0.262-2.375,0.731-3.474c0.464-1.108,1.113-2.128,1.92-3.017     c2.65-2.555,6.556-3.308,9.966-1.92c1.119,0.442,2.143,1.094,3.017,1.92c0.807,0.889,1.456,1.91,1.92,3.017     c0.47,1.099,0.718,2.279,0.731,3.474C301.679,441.278,300.732,443.596,299.063,445.349z M299.063,408.777     c-0.457,0.366-0.914,0.731-1.463,1.097c-0.466,0.363-0.992,0.641-1.554,0.823c-0.518,0.264-1.073,0.449-1.646,0.549     c-1.207,0.244-2.45,0.244-3.657,0c-0.573-0.099-1.128-0.284-1.646-0.549c-0.583-0.2-1.136-0.477-1.646-0.823l-1.371-1.097     c-1.67-1.753-2.616-4.071-2.651-6.491c0.013-1.195,0.262-2.375,0.731-3.474c0.464-1.108,1.113-2.128,1.92-3.017l1.371-1.097     c0.51-0.346,1.063-0.623,1.646-0.823c0.518-0.264,1.073-0.449,1.646-0.549c1.212-0.182,2.445-0.182,3.657,0     c0.573,0.1,1.128,0.285,1.646,0.549c0.562,0.182,1.088,0.46,1.554,0.823c0.549,0.366,1.006,0.731,1.463,1.097     c0.807,0.889,1.456,1.91,1.92,3.017c0.47,1.099,0.718,2.279,0.731,3.474C301.679,404.706,300.732,407.024,299.063,408.777z      M335.634,481.92c-3.606,3.536-9.377,3.536-12.983,0c-0.807-0.889-1.456-1.909-1.92-3.017c-0.469-1.099-0.718-2.279-0.731-3.474     c0.035-2.42,0.982-4.739,2.651-6.491c0.874-0.826,1.898-1.478,3.017-1.92c2.214-0.975,4.735-0.975,6.949,0     c1.13,0.42,2.158,1.074,3.017,1.92C339.169,472.543,339.169,478.314,335.634,481.92z M335.634,445.349l-1.371,1.097     c-0.509,0.346-1.063,0.623-1.646,0.823c-0.518,0.264-1.073,0.449-1.646,0.549c-0.605,0.102-1.216,0.163-1.829,0.183     c-2.42-0.035-4.739-0.982-6.491-2.651c-0.827-0.874-1.478-1.898-1.92-3.017c-0.976-2.214-0.976-4.735,0-6.949     c0.442-1.119,1.094-2.143,1.92-3.017c2.196-2.145,5.309-3.068,8.32-2.469c0.573,0.1,1.128,0.285,1.646,0.549     c0.583,0.2,1.136,0.477,1.646,0.823c0.479,0.338,0.937,0.704,1.371,1.097c0.826,0.874,1.478,1.898,1.92,3.017     c0.47,1.099,0.718,2.279,0.731,3.474C338.251,441.278,337.304,443.596,335.634,445.349z M335.634,408.777l-1.371,1.097     c-0.509,0.346-1.063,0.623-1.646,0.823c-0.518,0.264-1.073,0.449-1.646,0.549c-0.604,0.106-1.215,0.167-1.829,0.183     c-2.432,0.024-4.772-0.932-6.491-2.651c-1.72-1.72-2.675-4.059-2.652-6.491c0.013-1.195,0.262-2.375,0.731-3.474     c0.464-1.108,1.113-2.128,1.92-3.017c0.874-0.826,1.898-1.478,3.017-1.92c1.667-0.73,3.521-0.922,5.303-0.549     c0.573,0.1,1.128,0.285,1.646,0.549c0.583,0.2,1.136,0.477,1.646,0.823l1.371,1.097c0.807,0.889,1.456,1.91,1.92,3.017     c0.47,1.099,0.718,2.279,0.731,3.474C338.251,404.706,337.304,407.024,335.634,408.777z M164.571,356.571     c-10.087-0.03-18.256-8.199-18.286-18.286V173.714c0.029-10.087,8.199-18.256,18.286-18.286h182.857     c10.087,0.029,18.256,8.199,18.286,18.286v164.571c-0.03,10.087-8.199,18.256-18.286,18.286H164.571z M359.223,103.223     c3.593-3.539,9.368-3.518,12.934,0.049c3.566,3.566,3.588,9.341,0.049,12.934c-0.457,0.366-0.914,0.731-1.463,1.097     c-0.466,0.363-0.992,0.641-1.554,0.823c-0.518,0.264-1.073,0.449-1.646,0.549c-0.604,0.106-1.215,0.167-1.829,0.183     c-3.696-0.015-7.023-2.246-8.441-5.66C355.856,109.783,356.624,105.852,359.223,103.223z M359.223,66.651     c3.593-3.539,9.368-3.518,12.934,0.049c3.566,3.566,3.588,9.341,0.049,12.934c-0.457,0.366-0.914,0.731-1.463,1.097     c-0.466,0.363-0.992,0.641-1.554,0.823c-0.518,0.264-1.073,0.449-1.646,0.549c-0.604,0.106-1.215,0.167-1.829,0.183     c-3.696-0.015-7.023-2.246-8.441-5.66C355.856,73.212,356.624,69.281,359.223,66.651z M372.206,408.777     c-2.616,2.637-6.567,3.43-9.998,2.006s-5.658-4.783-5.637-8.497c0.013-1.195,0.262-2.375,0.731-3.474     c0.833-2.296,2.641-4.104,4.937-4.937c3.405-1.425,7.334-0.669,9.966,1.92C375.741,399.4,375.741,405.171,372.206,408.777z      M374.126,478.903c-0.464,1.108-1.113,2.128-1.92,3.017c-3.593,3.539-9.368,3.518-12.934-0.049s-3.588-9.341-0.049-12.934     c0.874-0.826,1.898-1.478,3.017-1.92c3.41-1.379,7.312-0.627,9.966,1.92c1.669,1.753,2.616,4.071,2.651,6.491     C374.844,476.623,374.595,477.804,374.126,478.903z M372.206,445.349c-1.753,1.67-4.071,2.617-6.491,2.651     c-0.613-0.02-1.224-0.081-1.829-0.183c-0.573-0.099-1.128-0.284-1.646-0.549c-0.583-0.2-1.136-0.477-1.646-0.823l-1.371-1.097     c-1.67-1.753-2.616-4.071-2.651-6.491c0.013-1.195,0.262-2.375,0.731-3.474c0.442-1.119,1.094-2.143,1.92-3.017     c0.435-0.393,0.893-0.759,1.371-1.097c0.51-0.346,1.063-0.623,1.646-0.823c0.518-0.264,1.073-0.449,1.646-0.549     c3.008-0.555,6.101,0.363,8.32,2.469c0.826,0.874,1.478,1.898,1.92,3.017c0.512,1.085,0.763,2.275,0.731,3.474     C374.822,441.278,373.875,443.596,372.206,445.349z M372.206,43.063c-1.753,1.67-4.071,2.617-6.491,2.651     c-1.195-0.013-2.375-0.262-3.474-0.731c-1.13-0.42-2.158-1.074-3.017-1.92c-3.535-3.606-3.535-9.377,0-12.983     c0.859-0.846,1.887-1.5,3.017-1.92c1.105-0.44,2.285-0.658,3.474-0.64c2.418-0.041,4.753,0.88,6.491,2.56     c1.669,1.753,2.616,4.071,2.651,6.491C374.839,38.995,373.89,41.32,372.206,43.063z M395.794,66.651     c3.593-3.539,9.368-3.518,12.934,0.049c3.566,3.566,3.588,9.341,0.049,12.934c-3.593,3.539-9.368,3.518-12.934-0.049     C392.277,76.019,392.255,70.244,395.794,66.651z M395.794,103.223c2.654-2.547,6.556-3.299,9.966-1.92     c1.107,0.464,2.128,1.113,3.017,1.92c1.669,1.753,2.616,4.071,2.651,6.491c-0.016,0.613-0.077,1.224-0.183,1.829     c-0.099,0.573-0.284,1.128-0.549,1.646c-0.182,0.562-0.46,1.088-0.823,1.554c-0.366,0.549-0.731,1.006-1.097,1.463     c-0.889,0.807-1.91,1.456-3.017,1.92c-1.085,0.512-2.275,0.763-3.474,0.731c-3.696-0.015-7.023-2.246-8.441-5.66     C392.427,109.783,393.196,105.852,395.794,103.223z M408.777,445.349c-1.753,1.67-4.071,2.617-6.491,2.651     c-1.195-0.013-2.375-0.262-3.474-0.731c-1.119-0.442-2.143-1.093-3.017-1.92c-1.67-1.753-2.616-4.071-2.651-6.491     c0.013-1.195,0.262-2.375,0.731-3.474c0.464-1.108,1.113-2.128,1.92-3.017c0.874-0.826,1.898-1.478,3.017-1.92     c3.41-1.379,7.312-0.627,9.966,1.92c0.807,0.889,1.456,1.91,1.92,3.017c0.47,1.099,0.718,2.279,0.731,3.474     C411.394,441.278,410.447,443.596,408.777,445.349z M408.777,408.777c-1.753,1.67-4.071,2.617-6.491,2.651     c-0.613-0.016-1.224-0.077-1.829-0.183c-0.573-0.099-1.128-0.284-1.646-0.549c-0.583-0.2-1.136-0.477-1.646-0.823l-1.371-1.097     c-1.67-1.753-2.616-4.071-2.651-6.491c0.013-1.195,0.262-2.375,0.731-3.474c0.464-1.108,1.113-2.128,1.92-3.017l1.371-1.097     c0.51-0.346,1.063-0.623,1.646-0.823c0.518-0.264,1.073-0.449,1.646-0.549c1.782-0.374,3.635-0.182,5.303,0.549     c1.119,0.442,2.143,1.094,3.017,1.92c0.807,0.889,1.456,1.91,1.92,3.017c0.47,1.099,0.718,2.279,0.731,3.474     C411.394,404.706,410.447,407.024,408.777,408.777z M411.246,367.543c-0.099,0.573-0.284,1.128-0.549,1.646     c-0.182,0.562-0.46,1.088-0.823,1.554c-0.314,0.525-0.681,1.015-1.097,1.463c-0.874,0.826-1.898,1.478-3.017,1.92     c-1.099,0.469-2.279,0.718-3.474,0.731c-0.613-0.016-1.224-0.077-1.829-0.183c-0.573-0.099-1.128-0.284-1.646-0.549     c-0.583-0.2-1.136-0.477-1.646-0.823l-1.371-1.097c-3.535-3.606-3.535-9.377,0-12.983c0.435-0.393,0.893-0.759,1.371-1.097     c0.51-0.346,1.063-0.623,1.646-0.823c0.518-0.264,1.073-0.449,1.646-0.549c1.782-0.374,3.635-0.182,5.303,0.549     c1.119,0.442,2.143,1.094,3.017,1.92c0.393,0.435,0.76,0.893,1.097,1.371c0.346,0.509,0.623,1.063,0.823,1.646     c0.264,0.518,0.449,1.073,0.549,1.646c0.102,0.605,0.163,1.216,0.183,1.829C411.409,366.327,411.347,366.938,411.246,367.543z      M411.246,330.971c-0.099,0.573-0.284,1.128-0.549,1.646c-0.182,0.562-0.46,1.088-0.823,1.554     c-0.366,0.549-0.731,1.006-1.097,1.463c-0.889,0.807-1.91,1.456-3.017,1.92c-2.213,0.976-4.735,0.976-6.949,0     c-1.108-0.464-2.128-1.113-3.017-1.92c-0.366-0.457-0.731-0.914-1.097-1.463c-0.363-0.466-0.641-0.992-0.823-1.554     c-0.264-0.518-0.449-1.073-0.549-1.646c-0.106-0.604-0.167-1.215-0.183-1.829c0.013-1.195,0.262-2.375,0.731-3.474     c0.442-1.119,1.094-2.143,1.92-3.017c0.889-0.807,1.91-1.456,3.017-1.92c2.214-0.975,4.735-0.975,6.949,0     c1.107,0.464,2.128,1.113,3.017,1.92c0.826,0.874,1.478,1.898,1.92,3.017c0.47,1.099,0.718,2.279,0.731,3.474     C411.413,329.756,411.352,330.367,411.246,330.971z M411.246,294.4c-0.099,0.573-0.284,1.128-0.549,1.646     c-0.2,0.583-0.476,1.136-0.823,1.646l-1.097,1.371l-1.371,1.097c-0.51,0.346-1.063,0.623-1.646,0.823     c-0.518,0.264-1.073,0.449-1.646,0.549c-0.604,0.106-1.215,0.167-1.829,0.183c-2.42-0.035-4.739-0.982-6.491-2.651l-1.097-1.371     c-0.346-0.51-0.623-1.063-0.823-1.646c-0.264-0.518-0.449-1.073-0.549-1.646c-0.106-0.604-0.167-1.215-0.183-1.829     c0.035-2.42,0.982-4.739,2.651-6.491c2.212-2.118,5.311-3.037,8.32-2.469c0.573,0.1,1.128,0.285,1.646,0.549     c0.583,0.2,1.136,0.477,1.646,0.823l1.371,1.097c1.669,1.753,2.616,4.071,2.651,6.491     C411.413,293.185,411.352,293.796,411.246,294.4z M410.697,259.474c-0.464,1.108-1.113,2.128-1.92,3.017     c-1.743,1.684-4.067,2.634-6.491,2.651c-2.42-0.035-4.739-0.982-6.491-2.651c-0.807-0.889-1.456-1.91-1.92-3.017     c-0.47-1.099-0.718-2.279-0.731-3.474c0.016-0.613,0.077-1.224,0.183-1.829c0.099-0.573,0.284-1.128,0.549-1.646     c0.2-0.583,0.476-1.136,0.823-1.646l1.097-1.371c2.616-2.637,6.567-3.43,9.997-2.006c3.431,1.424,5.658,4.783,5.637,8.497     C411.415,257.195,411.167,258.375,410.697,259.474z M411.246,221.257c-0.099,0.573-0.284,1.128-0.549,1.646     c-0.2,0.583-0.476,1.136-0.823,1.646c-0.63,0.995-1.473,1.839-2.469,2.469c-0.51,0.346-1.063,0.623-1.646,0.823     c-0.518,0.264-1.073,0.449-1.646,0.549c-0.604,0.106-1.215,0.167-1.829,0.183c-3.696-0.015-7.023-2.246-8.441-5.66     c-1.418-3.414-0.649-7.345,1.949-9.974c2.616-2.637,6.567-3.43,9.997-2.006c3.431,1.424,5.658,4.783,5.637,8.497     C411.413,220.042,411.352,220.653,411.246,221.257z M408.777,189.349c-0.889,0.807-1.91,1.456-3.017,1.92     c-1.085,0.512-2.275,0.763-3.474,0.731c-0.613-0.016-1.224-0.077-1.829-0.183c-0.573-0.099-1.128-0.284-1.646-0.549     c-0.583-0.2-1.136-0.477-1.646-0.823l-1.371-1.097l-1.097-1.371c-0.346-0.509-0.623-1.063-0.823-1.646     c-0.264-0.518-0.449-1.073-0.549-1.646c-0.106-0.604-0.167-1.215-0.183-1.829c0.013-1.195,0.262-2.375,0.731-3.474     c0.464-1.108,1.113-2.128,1.92-3.017c2.617-2.617,6.564-3.378,9.966-1.92c2.296,0.833,4.104,2.641,4.937,4.937     c0.47,1.099,0.718,2.279,0.731,3.474C411.411,185.281,410.461,187.605,408.777,189.349z M410.783,149.792     c-1.424,3.43-4.783,5.658-8.497,5.637c-1.195-0.013-2.375-0.262-3.474-0.731c-1.108-0.464-2.128-1.113-3.017-1.92     c-3.535-3.606-3.535-9.377,0-12.983c0.889-0.807,1.91-1.456,3.017-1.92c3.404-1.434,7.338-0.677,9.966,1.92     C411.414,142.41,412.207,146.361,410.783,149.792z M472.094,101.421c3.991-1.63,8.578-0.22,10.964,3.37     c2.386,3.591,1.91,8.366-1.139,11.414c-0.457,0.366-0.914,0.731-1.463,1.097c-0.466,0.363-0.992,0.641-1.554,0.823     c-0.518,0.264-1.073,0.449-1.646,0.549c-0.604,0.106-1.215,0.167-1.829,0.183c-4.311-0.042-7.994-3.119-8.804-7.353     S468.103,103.051,472.094,101.421z M468.937,66.651c3.593-3.539,9.368-3.518,12.934,0.049c3.566,3.566,3.588,9.341,0.049,12.934     c-3.593,3.539-9.368,3.518-12.934-0.049C465.42,76.019,465.398,70.244,468.937,66.651z M473.084,27.787     c3.989-1.058,8.192,0.687,10.258,4.259c2.066,3.572,1.483,8.086-1.423,11.016c-2.616,2.637-6.567,3.43-9.997,2.006     s-5.658-4.783-5.637-8.497C466.31,32.445,469.095,28.846,473.084,27.787z M436.513,27.787c3.989-1.058,8.192,0.687,10.258,4.259     s1.483,8.086-1.423,11.016c-2.616,2.637-6.567,3.43-9.997,2.006c-3.431-1.424-5.658-4.783-5.637-8.497     C429.738,32.445,432.524,28.846,436.513,27.787z M445.349,79.634c-3.593,3.539-9.368,3.518-12.934-0.049     c-3.566-3.566-3.588-9.341-0.049-12.934c3.593-3.539,9.368-3.518,12.934,0.049C448.866,70.266,448.888,76.041,445.349,79.634z      M445.349,481.92c-3.606,3.536-9.377,3.536-12.983,0c-0.807-0.889-1.456-1.909-1.92-3.017c-0.976-2.214-0.976-4.735,0-6.949     c0.833-2.296,2.641-4.104,4.937-4.937c2.226-0.914,4.723-0.914,6.949,0c1.107,0.464,2.128,1.113,3.017,1.92     C448.884,472.543,448.884,478.314,445.349,481.92z M445.349,445.349c-1.753,1.67-4.071,2.617-6.491,2.651     c-1.195-0.013-2.375-0.262-3.474-0.731c-1.108-0.464-2.128-1.113-3.017-1.92c-1.67-1.753-2.616-4.071-2.651-6.491     c0.013-1.195,0.262-2.375,0.731-3.474c0.442-1.119,1.094-2.143,1.92-3.017c0.889-0.807,1.91-1.456,3.017-1.92     c2.223-0.993,4.758-1.027,7.007-0.093c2.249,0.934,4.014,2.753,4.879,5.03c0.47,1.099,0.718,2.279,0.731,3.474     C447.965,441.278,447.018,443.596,445.349,445.349z M445.349,408.777l-1.371,1.097c-0.509,0.346-1.063,0.623-1.646,0.823     c-0.518,0.264-1.073,0.449-1.646,0.549c-1.207,0.244-2.45,0.244-3.657,0c-0.573-0.099-1.128-0.284-1.646-0.549     c-0.562-0.182-1.088-0.46-1.554-0.823c-0.549-0.366-1.006-0.731-1.463-1.097c-1.67-1.753-2.616-4.071-2.651-6.491     c0.013-1.195,0.262-2.375,0.731-3.474c0.464-1.108,1.113-2.128,1.92-3.017c0.457-0.366,0.914-0.731,1.463-1.097     c0.466-0.362,0.992-0.641,1.554-0.823c0.518-0.264,1.073-0.449,1.646-0.549c1.207-0.243,2.45-0.243,3.657,0     c0.573,0.1,1.128,0.285,1.646,0.549c0.583,0.2,1.136,0.477,1.646,0.823l1.371,1.097c0.807,0.889,1.456,1.91,1.92,3.017     c0.47,1.099,0.718,2.279,0.731,3.474C447.965,404.706,447.018,407.024,445.349,408.777z M447.817,367.543     c-0.099,0.573-0.284,1.128-0.549,1.646c-0.182,0.562-0.46,1.088-0.823,1.554c-0.366,0.549-0.731,1.006-1.097,1.463l-1.371,1.097     c-0.509,0.346-1.063,0.623-1.646,0.823c-0.518,0.264-1.073,0.449-1.646,0.549c-0.605,0.102-1.216,0.163-1.829,0.183     c-2.42-0.035-4.739-0.982-6.491-2.651c-0.366-0.457-0.731-0.914-1.097-1.463c-0.363-0.466-0.641-0.992-0.823-1.554     c-0.264-0.518-0.449-1.073-0.549-1.646c-0.102-0.605-0.163-1.216-0.183-1.829c0.035-2.42,0.982-4.739,2.651-6.491     c0.435-0.393,0.893-0.759,1.371-1.097c0.51-0.346,1.063-0.623,1.646-0.823c0.545-0.278,1.132-0.463,1.737-0.549     c0.566-0.151,1.152-0.213,1.737-0.183c0.615-0.034,1.232,0.027,1.829,0.183c0.573,0.1,1.128,0.284,1.646,0.549     c0.583,0.2,1.136,0.477,1.646,0.823c0.479,0.338,0.937,0.704,1.371,1.097c1.669,1.753,2.616,4.071,2.651,6.491     C447.98,366.327,447.919,366.938,447.817,367.543z M447.817,330.971c-0.099,0.573-0.284,1.128-0.549,1.646     c-0.182,0.562-0.46,1.088-0.823,1.554c-0.366,0.549-0.731,1.006-1.097,1.463c-0.874,0.827-1.898,1.478-3.017,1.92     c-1.099,0.47-2.279,0.718-3.474,0.731c-2.42-0.035-4.739-0.982-6.491-2.651c-0.366-0.457-0.731-0.914-1.097-1.463     c-0.363-0.466-0.641-0.992-0.823-1.554c-0.264-0.518-0.449-1.073-0.549-1.646c-0.106-0.604-0.167-1.215-0.183-1.829     c0.013-1.195,0.262-2.375,0.731-3.474c0.464-1.108,1.113-2.128,1.92-3.017c3.643-3.442,9.34-3.442,12.983,0     c1.669,1.753,2.616,4.071,2.651,6.491C447.984,329.756,447.923,330.367,447.817,330.971z M447.817,294.4     c-0.099,0.573-0.284,1.128-0.549,1.646c-0.2,0.583-0.476,1.136-0.823,1.646c-0.338,0.479-0.704,0.937-1.097,1.371     c-0.874,0.827-1.898,1.478-3.017,1.92c-2.214,0.976-4.735,0.976-6.949,0c-1.119-0.442-2.143-1.093-3.017-1.92     c-0.393-0.435-0.76-0.893-1.097-1.371c-0.346-0.51-0.623-1.063-0.823-1.646c-0.264-0.518-0.449-1.073-0.549-1.646     c-0.106-0.604-0.167-1.215-0.183-1.829c0.035-2.42,0.982-4.739,2.651-6.491c0.874-0.826,1.898-1.478,3.017-1.92     c2.226-0.914,4.723-0.914,6.949,0c1.119,0.442,2.143,1.094,3.017,1.92c1.669,1.753,2.616,4.071,2.651,6.491     C447.984,293.185,447.923,293.796,447.817,294.4z M447.269,259.474c-0.464,1.108-1.113,2.128-1.92,3.017     c-1.753,1.67-4.071,2.617-6.491,2.651c-1.195-0.013-2.375-0.262-3.474-0.731c-2.296-0.833-4.104-2.641-4.937-4.937     c-0.469-1.099-0.718-2.279-0.731-3.474c0.035-2.42,0.982-4.739,2.651-6.491c0.889-0.807,1.91-1.456,3.017-1.92     c3.41-1.379,7.312-0.627,9.966,1.92c1.669,1.753,2.616,4.071,2.651,6.491C447.987,257.195,447.738,258.375,447.269,259.474z      M432.366,212.937c0.889-0.807,1.91-1.456,3.017-1.92c2.214-0.975,4.735-0.975,6.949,0c1.119,0.442,2.143,1.094,3.017,1.92     c3.535,3.606,3.535,9.377,0,12.983c-0.889,0.807-1.91,1.456-3.017,1.92c-1.085,0.512-2.275,0.763-3.474,0.731     c-3.697-0.015-7.023-2.246-8.441-5.66C428.999,219.497,429.767,215.566,432.366,212.937z M447.817,184.686     c-0.099,0.573-0.284,1.128-0.549,1.646c-0.2,0.583-0.476,1.136-0.823,1.646c-0.338,0.479-0.704,0.937-1.097,1.371     c-1.753,1.67-4.071,2.617-6.491,2.651c-0.613-0.016-1.224-0.077-1.829-0.183c-0.573-0.099-1.128-0.284-1.646-0.549     c-0.562-0.182-1.088-0.46-1.554-0.823c-0.549-0.366-1.006-0.731-1.463-1.097c-1.684-1.743-2.634-4.068-2.651-6.491     c0.013-1.195,0.262-2.375,0.731-3.474c0.464-1.108,1.113-2.128,1.92-3.017c3.667-3.383,9.316-3.383,12.983,0     c0.807,0.889,1.456,1.91,1.92,3.017c0.47,1.099,0.718,2.279,0.731,3.474C447.984,183.47,447.923,184.082,447.817,184.686z      M445.349,152.777c-3.103,3.165-8.012,3.691-11.715,1.256c-3.703-2.435-5.166-7.151-3.49-11.254     c1.676-4.103,6.021-6.446,10.37-5.592c4.349,0.854,7.486,4.666,7.486,9.099C447.965,148.706,447.018,151.024,445.349,152.777z      M445.349,116.206c-3.103,3.165-8.012,3.691-11.715,1.256c-3.703-2.435-5.166-7.151-3.49-11.254     c1.676-4.103,6.021-6.446,10.37-5.592c4.349,0.854,7.486,4.666,7.486,9.099C447.965,112.135,447.018,114.453,445.349,116.206z      M481.92,481.92c-1.753,1.67-4.071,2.617-6.491,2.651c-0.613-0.02-1.224-0.081-1.829-0.183c-0.573-0.099-1.128-0.284-1.646-0.549     c-0.583-0.2-1.136-0.477-1.646-0.823l-1.371-1.097c-0.807-0.889-1.456-1.909-1.92-3.017c-0.469-1.099-0.718-2.279-0.731-3.474     c0.035-2.42,0.982-4.739,2.651-6.491c2.649-2.555,6.556-3.308,9.966-1.92c1.119,0.442,2.143,1.094,3.017,1.92     C485.455,472.543,485.455,478.314,481.92,481.92z M481.92,445.349l-1.371,1.097c-0.509,0.346-1.063,0.623-1.646,0.823     c-0.518,0.264-1.073,0.449-1.646,0.549c-1.207,0.244-2.45,0.244-3.657,0c-0.573-0.099-1.128-0.284-1.646-0.549     c-0.583-0.2-1.136-0.477-1.646-0.823l-1.371-1.097c-1.67-1.753-2.616-4.071-2.651-6.491c-0.031-1.199,0.219-2.389,0.731-3.474     c0.442-1.119,1.094-2.143,1.92-3.017c0.435-0.393,0.893-0.759,1.371-1.097c0.51-0.346,1.063-0.623,1.646-0.823     c0.518-0.264,1.073-0.449,1.646-0.549c1.207-0.243,2.45-0.243,3.657,0c0.573,0.1,1.128,0.285,1.646,0.549     c0.583,0.2,1.136,0.477,1.646,0.823c0.479,0.338,0.937,0.704,1.371,1.097c0.826,0.874,1.478,1.898,1.92,3.017     c0.469,1.099,0.718,2.279,0.731,3.474C484.536,441.278,483.59,443.596,481.92,445.349z M481.92,408.777     c-1.753,1.67-4.071,2.617-6.491,2.651c-1.199,0.031-2.389-0.219-3.474-0.731c-1.108-0.464-2.128-1.113-3.017-1.92     c-1.67-1.753-2.616-4.071-2.651-6.491c0.013-1.195,0.262-2.375,0.731-3.474c0.833-2.296,2.641-4.104,4.937-4.937     c3.411-1.37,7.308-0.619,9.966,1.92c0.807,0.889,1.456,1.91,1.92,3.017c0.512,1.085,0.763,2.275,0.731,3.474     C484.536,404.706,483.59,407.024,481.92,408.777z M466.286,365.714c0.035-2.42,0.982-4.739,2.651-6.491     c0.889-0.807,1.91-1.456,3.017-1.92c3.409-1.388,7.316-0.635,9.966,1.92c3.535,3.606,3.535,9.377,0,12.983     c-0.889,0.807-1.909,1.456-3.017,1.92c-2.214,0.976-4.735,0.976-6.949,0c-1.108-0.464-2.128-1.113-3.017-1.92     c-0.416-0.448-0.784-0.938-1.097-1.463c-0.363-0.466-0.641-0.992-0.823-1.554c-0.264-0.518-0.449-1.073-0.549-1.646     C466.367,366.938,466.306,366.327,466.286,365.714z M484.389,330.971c-0.099,0.573-0.284,1.128-0.549,1.646     c-0.182,0.562-0.46,1.088-0.823,1.554c-0.366,0.549-0.731,1.006-1.097,1.463l-1.371,1.097c-0.509,0.346-1.063,0.623-1.646,0.823     c-0.518,0.264-1.073,0.449-1.646,0.549c-0.604,0.106-1.215,0.167-1.829,0.183c-1.195-0.013-2.375-0.262-3.474-0.731     c-1.108-0.464-2.128-1.113-3.017-1.92c-0.416-0.448-0.784-0.938-1.097-1.463c-0.363-0.466-0.641-0.992-0.823-1.554     c-0.264-0.518-0.449-1.073-0.549-1.646c-0.106-0.604-0.167-1.215-0.183-1.829c0.013-1.195,0.262-2.375,0.731-3.474     c0.442-1.119,1.094-2.143,1.92-3.017c0.889-0.807,1.91-1.456,3.017-1.92c3.41-1.379,7.312-0.627,9.966,1.92     c0.826,0.874,1.478,1.898,1.92,3.017c0.469,1.099,0.718,2.279,0.731,3.474C484.556,329.756,484.495,330.367,484.389,330.971z      M484.389,294.4c-0.099,0.573-0.284,1.128-0.549,1.646c-0.2,0.583-0.477,1.136-0.823,1.646l-1.097,1.371l-1.371,1.097     c-0.509,0.346-1.063,0.623-1.646,0.823c-0.518,0.264-1.073,0.449-1.646,0.549c-0.604,0.106-1.215,0.167-1.829,0.183     c-2.42-0.035-4.739-0.982-6.491-2.651l-1.097-1.371c-0.346-0.51-0.623-1.063-0.823-1.646c-0.264-0.518-0.449-1.073-0.549-1.646     c-0.106-0.604-0.167-1.215-0.183-1.829c0.035-2.42,0.982-4.739,2.651-6.491c1.733-1.699,4.064-2.651,6.491-2.651     c0.613,0.016,1.224,0.077,1.829,0.183c0.573,0.1,1.128,0.285,1.646,0.549c0.583,0.2,1.136,0.477,1.646,0.823l1.371,1.097     c1.67,1.753,2.616,4.071,2.651,6.491C484.556,293.185,484.495,293.796,484.389,294.4z M483.84,259.474     c-0.464,1.108-1.113,2.128-1.92,3.017c-3.606,3.535-9.377,3.535-12.983,0c-0.807-0.889-1.456-1.91-1.92-3.017     c-0.469-1.099-0.718-2.279-0.731-3.474c0.035-2.42,0.982-4.739,2.651-6.491c3.655-3.413,9.328-3.413,12.983,0     c1.67,1.753,2.616,4.071,2.651,6.491C484.558,257.195,484.31,258.375,483.84,259.474z M484.389,221.257     c-0.099,0.573-0.284,1.128-0.549,1.646c-0.2,0.583-0.477,1.136-0.823,1.646l-1.097,1.371c-0.434,0.393-0.892,0.76-1.371,1.097     c-0.509,0.346-1.063,0.623-1.646,0.823c-0.518,0.264-1.073,0.449-1.646,0.549c-0.605,0.102-1.216,0.163-1.829,0.183     c-0.613-0.016-1.224-0.077-1.829-0.183c-0.573-0.099-1.128-0.284-1.646-0.549c-0.583-0.2-1.136-0.477-1.646-0.823     c-0.479-0.337-0.937-0.704-1.371-1.097c-2.963-2.929-3.582-7.486-1.508-11.1c2.074-3.613,6.322-5.377,10.345-4.295     c4.024,1.082,6.814,4.737,6.797,8.904C484.556,220.042,484.495,220.653,484.389,221.257z M484.389,184.686     c-0.099,0.573-0.284,1.128-0.549,1.646c-0.2,0.583-0.477,1.136-0.823,1.646l-1.097,1.371c-0.457,0.366-0.914,0.731-1.463,1.097     c-0.466,0.363-0.992,0.641-1.554,0.823c-0.518,0.264-1.073,0.449-1.646,0.549c-0.604,0.106-1.215,0.167-1.829,0.183     c-2.42-0.035-4.739-0.982-6.491-2.651l-1.097-1.371c-0.346-0.509-0.623-1.063-0.823-1.646c-0.264-0.518-0.449-1.073-0.549-1.646     c-0.106-0.604-0.167-1.215-0.183-1.829c0.013-1.195,0.262-2.375,0.731-3.474c0.464-1.108,1.113-2.128,1.92-3.017     c3.667-3.383,9.316-3.383,12.983,0c0.807,0.889,1.456,1.91,1.92,3.017c0.469,1.099,0.718,2.279,0.731,3.474     C484.556,183.47,484.495,184.082,484.389,184.686z M484.389,148.114c-0.099,0.573-0.284,1.128-0.549,1.646     c-0.182,0.562-0.46,1.088-0.823,1.554c-0.366,0.549-0.731,1.006-1.097,1.463c-0.889,0.807-1.909,1.456-3.017,1.92     c-1.099,0.469-2.279,0.718-3.474,0.731c-3.696-0.015-7.023-2.246-8.441-5.66s-0.649-7.345,1.949-9.974     c1.729-1.706,4.063-2.659,6.491-2.651c1.195,0.013,2.375,0.262,3.474,0.731c1.107,0.464,2.128,1.113,3.017,1.92     c1.67,1.753,2.616,4.071,2.651,6.491C484.556,146.899,484.495,147.51,484.389,148.114z" fill="#FFFFFF"/>
		</g>
	</g>
</g>
<g>
</g>
<g>
</g>
<g>
</g>
<g>
</g>
<g>
</g>
<g>
</g>
<g>
</g>
<g>
</g>
<g>
</g>
<g>
</g>
<g>
</g>
<g>
</g>
<g>
</g>
<g>
</g>
<g>
</g>
</svg>
