<svg enable-background="new 0 0 512 512" height="512" viewBox="0 0 512 512" width="512" xmlns="http://www.w3.org/2000/svg"><g fill="#fff"><path d="m164.571 338.286h182.857v-164.572h-182.857zm137.143-146.286h18.286c5.049 0 9.143 4.093 9.143 9.143 0 5.049-4.093 9.143-9.143 9.143h-18.286c-5.049 0-9.143-4.093-9.143-9.143s4.094-9.143 9.143-9.143zm0 36.571h18.286c5.049 0 9.143 4.093 9.143 9.143s-4.093 9.143-9.143 9.143h-18.286c-5.049 0-9.143-4.093-9.143-9.143s4.094-9.143 9.143-9.143zm0 36.572h18.286c5.049 0 9.143 4.093 9.143 9.143 0 5.049-4.093 9.143-9.143 9.143h-18.286c-5.049 0-9.143-4.093-9.143-9.143s4.094-9.143 9.143-9.143zm0 36.571h18.286c5.049 0 9.143 4.093 9.143 9.143 0 5.049-4.093 9.143-9.143 9.143h-18.286c-5.049 0-9.143-4.093-9.143-9.143 0-5.049 4.094-9.143 9.143-9.143zm-54.857-109.714h18.286c5.049 0 9.143 4.093 9.143 9.143 0 5.049-4.093 9.143-9.143 9.143h-18.286c-5.049 0-9.143-4.093-9.143-9.143s4.094-9.143 9.143-9.143zm0 36.571h18.286c5.049 0 9.143 4.093 9.143 9.143s-4.093 9.143-9.143 9.143h-18.286c-5.049 0-9.143-4.093-9.143-9.143s4.094-9.143 9.143-9.143zm0 36.572h18.286c5.049 0 9.143 4.093 9.143 9.143 0 5.049-4.093 9.143-9.143 9.143h-18.286c-5.049 0-9.143-4.093-9.143-9.143s4.094-9.143 9.143-9.143zm0 36.571h18.286c5.049 0 9.143 4.093 9.143 9.143 0 5.049-4.093 9.143-9.143 9.143h-18.286c-5.049 0-9.143-4.093-9.143-9.143 0-5.049 4.094-9.143 9.143-9.143zm-54.857-109.714h18.286c5.049 0 9.143 4.093 9.143 9.143 0 5.049-4.093 9.143-9.143 9.143h-18.286c-5.049 0-9.143-4.093-9.143-9.143s4.094-9.143 9.143-9.143zm0 36.571h18.286c5.049 0 9.143 4.093 9.143 9.143s-4.093 9.143-9.143 9.143h-18.286c-5.049 0-9.143-4.093-9.143-9.143s4.094-9.143 9.143-9.143zm0 36.572h18.286c5.049 0 9.143 4.093 9.143 9.143 0 5.049-4.093 9.143-9.143 9.143h-18.286c-5.049 0-9.143-4.093-9.143-9.143s4.094-9.143 9.143-9.143zm0 36.571h18.286c5.049 0 9.143 4.093 9.143 9.143 0 5.049-4.093 9.143-9.143 9.143h-18.286c-5.049 0-9.143-4.093-9.143-9.143 0-5.049 4.094-9.143 9.143-9.143z"/><path d="m502.857 0h-74.697c-3.907 10.94-14.257 18.255-25.874 18.286-7.178-.029-14.063-2.849-19.2-7.863-2.996-2.916-5.279-6.482-6.675-10.423h-367.268c-5.043.015-9.128 4.1-9.143 9.143v493.714c.015 5.043 4.1 9.128 9.143 9.143h367.269c1.395-3.941 3.679-7.507 6.674-10.423 6.686-6.57 16.265-9.27 25.397-7.158 9.133 2.112 16.554 8.742 19.677 17.581h74.697c5.043-.015 9.128-4.1 9.143-9.143v-493.714c-.015-5.043-4.1-9.128-9.143-9.143zm-180.206 30.08c2.616-2.637 6.567-3.43 9.998-2.006s5.658 4.783 5.637 8.497c-.024 4.127-2.81 7.726-6.798 8.784-3.989 1.058-8.192-.687-10.258-4.259-2.068-3.572-1.485-8.086 1.421-11.016zm12.983 49.554c-3.593 3.539-9.368 3.518-12.934-.049-3.566-3.566-3.588-9.341-.049-12.934 3.593-3.539 9.368-3.518 12.934.049 3.567 3.566 3.589 9.341.049 12.934zm-12.983 23.589c3.103-3.165 8.012-3.691 11.715-1.256s5.166 7.151 3.49 11.254-6.021 6.446-10.37 5.592-7.486-4.666-7.486-9.099c.031-2.421.979-4.74 2.651-6.491zm-36.571-73.143c2.616-2.637 6.567-3.43 9.998-2.006s5.658 4.783 5.637 8.497c-.024 4.127-2.81 7.726-6.798 8.784-3.989 1.058-8.192-.687-10.258-4.259-2.068-3.572-1.485-8.086 1.421-11.016zm0 73.143c2.654-2.547 6.556-3.299 9.966-1.92 1.107.464 2.128 1.113 3.017 1.92 1.669 1.753 2.616 4.071 2.651 6.491-.016.613-.077 1.224-.183 1.829-.099.573-.284 1.128-.549 1.646-.182.562-.46 1.088-.823 1.554-.366.549-.731 1.006-1.097 1.463-.889.807-1.91 1.456-3.017 1.92-1.085.512-2.275.763-3.474.731-3.697-.015-7.023-2.246-8.441-5.66-1.417-3.414-.648-7.345 1.95-9.974zm0-36.572c3.593-3.539 9.368-3.518 12.934.049 3.566 3.566 3.588 9.341.049 12.934-3.593 3.539-9.368 3.518-12.934-.049-3.567-3.566-3.588-9.341-.049-12.934zm-36.571-36.571c2.616-2.637 6.567-3.43 9.997-2.006s5.658 4.783 5.637 8.497c-.024 4.127-2.81 7.726-6.798 8.784-3.989 1.058-8.192-.687-10.258-4.259-2.067-3.572-1.484-8.086 1.422-11.016zm12.982 49.554c-.889.807-1.91 1.456-3.017 1.92-1.085.512-2.275.763-3.474.731-3.696-.015-7.023-2.246-8.441-5.66-1.417-3.414-.649-7.345 1.949-9.974 2.617-2.617 6.564-3.378 9.966-1.92 1.107.464 2.128 1.113 3.017 1.92 3.536 3.606 3.536 9.378 0 12.983zm-12.982 23.589c3.103-3.165 8.012-3.691 11.715-1.256s5.166 7.151 3.49 11.254-6.021 6.446-10.37 5.592-7.486-4.666-7.486-9.099c.03-2.421.978-4.74 2.651-6.491zm-36.572-73.143c2.616-2.637 6.567-3.43 9.998-2.006s5.658 4.783 5.637 8.497c-.024 4.127-2.81 7.726-6.798 8.784-3.989 1.058-8.192-.687-10.258-4.259-2.068-3.572-1.485-8.086 1.421-11.016zm0 36.571c.889-.807 1.91-1.456 3.017-1.92 3.405-1.434 7.338-.677 9.966 1.92 2.637 2.616 3.43 6.567 2.006 9.998s-4.783 5.658-8.497 5.637c-1.199.031-2.389-.219-3.474-.731-1.108-.464-2.128-1.113-3.017-1.92-3.536-3.606-3.536-9.378-.001-12.984zm0 36.572c3.103-3.165 8.012-3.691 11.715-1.256s5.166 7.151 3.49 11.254-6.021 6.446-10.37 5.592-7.486-4.666-7.486-9.099c.031-2.421.978-4.74 2.651-6.491zm-36.571-73.143c2.616-2.637 6.567-3.43 9.998-2.006s5.658 4.783 5.637 8.497c-.024 4.127-2.81 7.726-6.798 8.784-3.989 1.058-8.192-.687-10.258-4.259-2.068-3.572-1.485-8.086 1.421-11.016zm0 73.143c2.654-2.547 6.556-3.299 9.966-1.92 1.107.464 2.128 1.113 3.017 1.92 1.669 1.753 2.616 4.071 2.651 6.491-.016.613-.077 1.224-.183 1.829-.099.573-.284 1.128-.549 1.646-.182.562-.46 1.088-.823 1.554-.366.549-.731 1.006-1.097 1.463-.889.807-1.909 1.456-3.017 1.92-1.085.512-2.275.763-3.474.731-3.697-.015-7.023-2.246-8.441-5.66-1.417-3.414-.649-7.345 1.95-9.974zm0-36.572c3.593-3.539 9.368-3.518 12.934.049 3.566 3.566 3.588 9.341.049 12.934-3.593 3.539-9.368 3.518-12.934-.049-3.567-3.566-3.589-9.341-.049-12.934zm-36.572-36.571c2.616-2.637 6.567-3.43 9.998-2.006 3.43 1.424 5.658 4.783 5.637 8.497-.024 4.127-2.81 7.726-6.798 8.784-3.989 1.058-8.192-.687-10.258-4.259-2.068-3.572-1.485-8.086 1.421-11.016zm12.983 49.554c-3.593 3.539-9.368 3.518-12.934-.049-3.566-3.566-3.588-9.341-.049-12.934 3.593-3.539 9.368-3.518 12.934.049 3.567 3.566 3.588 9.341.049 12.934zm-12.983 23.589c2.929-2.963 7.486-3.582 11.1-1.508 3.613 2.074 5.377 6.322 4.295 10.345-1.082 4.024-4.737 6.814-8.904 6.797-.613-.016-1.224-.077-1.829-.183-.573-.099-1.128-.284-1.646-.549-.562-.182-1.088-.46-1.554-.823-.549-.366-1.006-.731-1.463-1.097-3.534-3.605-3.534-9.376.001-12.982zm-36.571-73.143c2.628-2.597 6.561-3.354 9.966-1.92 1.107.464 2.128 1.113 3.017 1.92 3.535 3.606 3.535 9.377 0 12.983-.889.807-1.91 1.456-3.017 1.92-1.099.469-2.279.718-3.474.731-2.42-.035-4.739-.982-6.491-2.651-1.684-1.743-2.634-4.068-2.651-6.491.034-2.421.98-4.739 2.65-6.492zm12.983 49.554c-3.593 3.539-9.368 3.518-12.934-.049-3.566-3.566-3.588-9.341-.049-12.934 3.593-3.539 9.368-3.518 12.934.049 3.566 3.566 3.588 9.341.049 12.934zm-46.569-51.56c3.431-1.424 7.382-.632 9.998 2.006 3.535 3.606 3.535 9.377 0 12.983-2.616 2.637-6.567 3.43-9.998 2.006-3.43-1.424-5.658-4.783-5.637-8.497-.022-3.715 2.206-7.073 5.637-8.498zm9.997 51.56c-3.593 3.539-9.368 3.518-12.934-.049-3.566-3.566-3.588-9.341-.049-12.934 3.593-3.539 9.368-3.518 12.934.049 3.567 3.566 3.589 9.341.049 12.934zm-49.554-49.554c2.616-2.637 6.567-3.43 9.998-2.006 3.43 1.424 5.658 4.783 5.637 8.497-.035 2.42-.982 4.739-2.651 6.491-3.606 3.535-9.377 3.535-12.983 0-3.536-3.605-3.536-9.376-.001-12.982zm-1.92 368.731c.442-1.119 1.094-2.143 1.92-3.017 2.628-2.597 6.561-3.354 9.966-1.92 1.119.442 2.143 1.094 3.017 1.92.807.889 1.456 1.91 1.92 3.017.469 1.099.718 2.279.731 3.474-.035 2.42-.982 4.739-2.651 6.491-3.606 3.535-9.377 3.535-12.983 0-1.67-1.753-2.616-4.071-2.651-6.491.013-1.194.261-2.375.731-3.474zm-.731-33.097c.035-2.42.982-4.739 2.651-6.491.874-.826 1.898-1.478 3.017-1.92 1.667-.73 3.521-.922 5.303-.549.573.1 1.128.284 1.646.549.583.2 1.136.477 1.646.823.479.338.937.704 1.371 1.097 3.535 3.606 3.535 9.377 0 12.983l-1.371 1.097c-.509.346-1.063.623-1.646.823-.518.264-1.073.449-1.646.549-.604.106-1.215.167-1.829.183-1.195-.013-2.375-.262-3.474-.731-1.119-.442-2.143-1.094-3.017-1.92-.366-.457-.731-.914-1.097-1.463-.363-.466-.641-.992-.823-1.554-.264-.518-.449-1.073-.549-1.646-.101-.606-.162-1.217-.182-1.83zm18.102-34.743c-.099.573-.284 1.128-.549 1.646-.182.562-.46 1.088-.823 1.554-.366.549-.731 1.006-1.097 1.463-.889.807-1.91 1.456-3.017 1.92-2.214.976-4.735.976-6.949 0-1.108-.464-2.128-1.113-3.017-1.92-.366-.457-.731-.914-1.097-1.463-.363-.466-.641-.992-.823-1.554-.264-.518-.449-1.073-.549-1.646-.106-.604-.167-1.215-.183-1.829.013-1.195.262-2.375.731-3.474.442-1.119 1.094-2.143 1.92-3.017.889-.807 1.91-1.456 3.017-1.92 2.214-.975 4.735-.975 6.949 0 1.107.464 2.128 1.113 3.017 1.92.826.874 1.478 1.898 1.92 3.017.469 1.099.718 2.279.731 3.474-.013.614-.074 1.225-.181 1.829zm0-36.571c-.099.573-.284 1.128-.549 1.646-.2.583-.476 1.136-.823 1.646l-1.097 1.371c-1.753 1.67-4.071 2.617-6.491 2.651-1.195-.013-2.375-.262-3.474-.731-1.119-.442-2.143-1.093-3.017-1.92-.393-.435-.76-.893-1.097-1.371-.346-.51-.623-1.063-.823-1.646-.264-.518-.449-1.073-.549-1.646-.106-.604-.167-1.215-.183-1.829.035-2.42.982-4.739 2.651-6.491.874-.826 1.898-1.478 3.017-1.92 3.404-1.434 7.338-.677 9.966 1.92l1.097 1.371c.346.509.623 1.063.823 1.646.264.518.449 1.073.549 1.646.102.605.163 1.216.183 1.829-.015.613-.076 1.224-.183 1.828zm-.548-34.926c-.464 1.108-1.113 2.128-1.92 3.017-.889.807-1.91 1.456-3.017 1.92-1.099.469-2.279.718-3.474.731-2.42-.035-4.739-.982-6.491-2.651-.807-.889-1.456-1.91-1.92-3.017-.469-1.099-.718-2.279-.731-3.474.035-2.42.982-4.739 2.651-6.491 2.632-2.589 6.56-3.345 9.966-1.92 1.107.464 2.128 1.113 3.017 1.92 1.669 1.753 2.616 4.071 2.651 6.491-.014 1.195-.263 2.375-.732 3.474zm-17.554-40.045c-.022-3.714 2.206-7.073 5.637-8.497s7.382-.632 9.998 2.006c3.535 3.606 3.535 9.377 0 12.983-.434.393-.892.76-1.371 1.097-.509.346-1.063.623-1.646.823-.518.264-1.073.449-1.646.549-.604.106-1.215.167-1.829.183-.613-.02-1.224-.081-1.829-.183-.573-.099-1.128-.284-1.646-.549-.583-.2-1.136-.477-1.646-.823-.479-.337-.937-.704-1.371-1.097l-1.097-1.371c-.346-.509-.623-1.063-.823-1.646-.264-.518-.449-1.073-.549-1.646-.106-.605-.167-1.216-.182-1.829zm18.102-34.743c-.099.573-.284 1.128-.549 1.646-.2.583-.476 1.136-.823 1.646-.338.479-.704.937-1.097 1.371-3.606 3.535-9.377 3.535-12.983 0-.393-.435-.76-.893-1.097-1.371-.346-.509-.623-1.063-.823-1.646-.264-.518-.449-1.073-.549-1.646-.106-.604-.167-1.215-.183-1.829.013-1.195.262-2.375.731-3.474.464-1.108 1.113-2.128 1.92-3.017 3.667-3.383 9.316-3.383 12.983 0 .807.889 1.456 1.91 1.92 3.017.469 1.099.718 2.279.731 3.474-.013.613-.074 1.225-.181 1.829zm-15.451-44.892c.889-.807 1.91-1.456 3.017-1.92 3.402-1.458 7.349-.697 9.966 1.92 3.535 3.606 3.535 9.377 0 12.983-1.753 1.67-4.071 2.617-6.491 2.651-1.195-.013-2.375-.262-3.474-.731-1.108-.464-2.128-1.113-3.017-1.92-3.536-3.606-3.536-9.377-.001-12.983zm0-36.571c.889-.807 1.91-1.456 3.017-1.92 3.409-1.388 7.316-.635 9.966 1.92 3.535 3.606 3.535 9.377 0 12.983-1.753 1.67-4.071 2.617-6.491 2.651-1.199.031-2.389-.219-3.474-.731-1.108-.464-2.128-1.113-3.017-1.92-3.536-3.606-3.536-9.377-.001-12.983zm.026-36.545c3.575-3.575 9.367-3.587 12.956-.026 3.535 3.606 3.535 9.377 0 12.983-3.606 3.535-9.377 3.535-12.983 0-3.559-3.59-3.547-9.382.027-12.957zm14.877 412.225c-.464 1.108-1.113 2.128-1.92 3.017-3.606 3.536-9.377 3.536-12.983 0-3.535-3.606-3.535-9.377 0-12.983.874-.826 1.898-1.478 3.017-1.92 2.226-.914 4.723-.914 6.949 0 1.119.442 2.143 1.094 3.017 1.92 1.669 1.753 2.616 4.071 2.651 6.491-.013 1.195-.262 2.376-.731 3.475zm0-36.572c-.442 1.119-1.093 2.143-1.92 3.017-.457.366-.914.731-1.463 1.097-.466.363-.992.641-1.554.823-.545.278-1.132.463-1.737.549-.573.106-1.154.167-1.737.183-2.42-.035-4.739-.982-6.491-2.651-.827-.874-1.478-1.898-1.92-3.017-.975-2.214-.975-4.735 0-6.949.442-1.119 1.094-2.143 1.92-3.017 3.667-3.383 9.316-3.383 12.983 0 .826.874 1.478 1.898 1.92 3.017.974 2.213.974 4.735-.001 6.948zm36.571 36.572c-.464 1.108-1.113 2.128-1.92 3.017l-1.371 1.097c-.51.346-1.063.623-1.646.823-.518.264-1.073.449-1.646.549-.605.102-1.216.163-1.829.183-3.697-.015-7.023-2.246-8.441-5.66-1.417-3.414-.649-7.345 1.949-9.974.889-.807 1.91-1.456 3.017-1.92 3.409-1.388 7.316-.635 9.966 1.92 1.669 1.753 2.616 4.071 2.651 6.491.033 1.199-.217 2.389-.73 3.474zm-1.92-33.554-1.371 1.097c-.51.346-1.063.623-1.646.823-.518.264-1.073.449-1.646.549-1.207.244-2.45.244-3.657 0-.573-.099-1.128-.284-1.646-.549-.583-.2-1.136-.477-1.646-.823l-1.371-1.097c-1.67-1.753-2.616-4.071-2.651-6.491.013-1.195.262-2.375.731-3.474.442-1.119 1.094-2.143 1.92-3.017.435-.393.893-.759 1.371-1.097.51-.346 1.063-.623 1.646-.823.518-.264 1.073-.449 1.646-.549 1.204-.274 2.453-.274 3.657 0 .573.1 1.128.285 1.646.549.583.2 1.136.477 1.646.823.479.338.937.704 1.371 1.097.826.874 1.478 1.898 1.92 3.017.512 1.085.763 2.275.731 3.474-.034 2.42-.981 4.738-2.651 6.491zm0-36.572-1.371 1.097c-.51.346-1.063.623-1.646.823-.518.264-1.073.449-1.646.549-1.207.244-2.45.244-3.657 0-.573-.099-1.128-.284-1.646-.549-.583-.2-1.136-.477-1.646-.823l-1.371-1.097c-1.67-1.753-2.616-4.071-2.651-6.491.013-1.195.262-2.375.731-3.474.442-1.119 1.094-2.143 1.92-3.017l1.371-1.097c.51-.346 1.063-.623 1.646-.823.518-.264 1.073-.449 1.646-.549 1.212-.182 2.445-.182 3.657 0 .573.1 1.128.285 1.646.549.583.2 1.136.477 1.646.823l1.371 1.097c.826.874 1.478 1.898 1.92 3.017.47 1.099.718 2.279.731 3.474-.034 2.42-.981 4.738-2.651 6.491zm2.469-41.234c-.099.573-.284 1.128-.549 1.646-.182.562-.46 1.088-.823 1.554-.314.525-.681 1.015-1.097 1.463-.889.807-1.909 1.456-3.017 1.92-2.213.976-4.735.976-6.949 0-1.108-.464-2.128-1.113-3.017-1.92-3.535-3.606-3.535-9.377 0-12.983.889-.807 1.91-1.456 3.017-1.92 3.41-1.379 7.312-.627 9.966 1.92 1.669 1.753 2.616 4.071 2.651 6.491-.019.613-.08 1.224-.182 1.829zm0-36.572c-.099.573-.284 1.128-.549 1.646-.182.562-.46 1.088-.823 1.554-.366.549-.731 1.006-1.097 1.463-.874.827-1.898 1.478-3.017 1.92-1.099.47-2.279.718-3.474.731-2.42-.035-4.739-.982-6.491-2.651-.366-.457-.731-.914-1.097-1.463-.363-.466-.641-.992-.823-1.554-.264-.518-.449-1.073-.549-1.646-.106-.604-.167-1.215-.183-1.829.013-1.195.262-2.375.731-3.474.464-1.108 1.113-2.128 1.92-3.017 3.643-3.442 9.34-3.442 12.983 0 1.669 1.753 2.616 4.071 2.651 6.491-.015.614-.076 1.225-.182 1.829zm0-36.571c-.099.573-.284 1.128-.549 1.646-.2.583-.476 1.136-.823 1.646l-1.097 1.371-1.371 1.097c-.51.346-1.063.623-1.646.823-.518.264-1.073.449-1.646.549-.604.106-1.215.167-1.829.183-2.42-.035-4.739-.982-6.491-2.651l-1.097-1.371c-.346-.51-.623-1.063-.823-1.646-.264-.518-.449-1.073-.549-1.646-.106-.604-.167-1.215-.183-1.829.035-2.42.982-4.739 2.651-6.491 2.212-2.118 5.311-3.037 8.32-2.469.573.1 1.128.285 1.646.549.583.2 1.136.477 1.646.823l1.371 1.097c1.669 1.753 2.616 4.071 2.651 6.491-.014.613-.075 1.224-.181 1.828zm-.549-34.926c-.464 1.108-1.113 2.128-1.92 3.017-1.753 1.67-4.071 2.617-6.491 2.651-1.195-.013-2.375-.262-3.474-.731-2.296-.833-4.104-2.641-4.937-4.937-.469-1.099-.718-2.279-.731-3.474.035-2.42.982-4.739 2.651-6.491.889-.807 1.91-1.456 3.017-1.92 3.405-1.425 7.334-.669 9.966 1.92 1.669 1.753 2.616 4.071 2.651 6.491.031 1.199-.219 2.389-.732 3.474zm-14.903-46.537c2.617-2.617 6.564-3.378 9.966-1.92 1.107.464 2.128 1.113 3.017 1.92 3.535 3.606 3.535 9.377 0 12.983-.889.807-1.909 1.456-3.017 1.92-1.085.512-2.275.763-3.474.731-.613-.016-1.224-.077-1.829-.183-.573-.099-1.128-.284-1.646-.549-.562-.182-1.088-.46-1.554-.823-.525-.313-1.015-.681-1.463-1.097-3.535-3.605-3.535-9.376 0-12.982zm15.452-28.251c-.099.573-.284 1.128-.549 1.646-.2.583-.476 1.136-.823 1.646l-1.097 1.371-1.371 1.097c-.51.346-1.063.623-1.646.823-.518.264-1.073.449-1.646.549-.604.106-1.215.167-1.829.183-1.199.031-2.389-.219-3.474-.731-1.108-.464-2.128-1.113-3.017-1.92-1.684-1.743-2.634-4.068-2.651-6.491.013-1.195.262-2.375.731-3.474.833-2.296 2.641-4.104 4.937-4.937 1.099-.47 2.279-.718 3.474-.731 2.42.035 4.739.982 6.491 2.651.807.889 1.456 1.91 1.92 3.017.512 1.085.763 2.275.731 3.474-.014.611-.075 1.223-.181 1.827zm-2.469-31.909c-3.103 3.165-8.012 3.691-11.715 1.256s-5.166-7.151-3.49-11.254 6.021-6.446 10.37-5.592 7.486 4.666 7.486 9.099c-.034 2.42-.981 4.738-2.651 6.491zm2.469-41.234c-.099.573-.284 1.128-.549 1.646-.182.562-.46 1.088-.823 1.554-.366.549-.731 1.006-1.097 1.463-.889.807-1.909 1.456-3.017 1.92-1.085.512-2.275.763-3.474.731-5.049 0-9.143-4.093-9.143-9.143s4.093-9.143 9.143-9.143c1.195.013 2.375.262 3.474.731 1.107.464 2.128 1.113 3.017 1.92 1.669 1.753 2.616 4.071 2.651 6.491-.015.615-.076 1.226-.182 1.83zm34.103 370.377c-1.753 1.67-4.071 2.617-6.491 2.651-.613-.02-1.224-.081-1.829-.183-.573-.099-1.128-.284-1.646-.549-.583-.2-1.136-.477-1.646-.823l-1.371-1.097c-.807-.889-1.456-1.909-1.92-3.017-.975-2.214-.975-4.735 0-6.949.464-1.108 1.113-2.128 1.92-3.017 2.649-2.555 6.557-3.308 9.966-1.92 1.119.442 2.143 1.094 3.017 1.92 3.535 3.607 3.535 9.378 0 12.984zm0-36.571c-.889.807-1.91 1.456-3.017 1.92-1.099.47-2.279.718-3.474.731-2.432.024-4.771-.932-6.491-2.651-1.72-1.72-2.675-4.059-2.652-6.491.013-1.195.262-2.375.731-3.474.865-2.276 2.63-4.096 4.879-5.03s4.783-.901 7.007.093c1.107.464 2.128 1.113 3.017 1.92.826.874 1.478 1.898 1.92 3.017.469 1.099.718 2.279.731 3.474-.035 2.42-.982 4.738-2.651 6.491zm0-36.572c-1.753 1.67-4.071 2.617-6.491 2.651-1.199.031-2.389-.219-3.474-.731-1.108-.464-2.128-1.113-3.017-1.92-1.67-1.753-2.616-4.071-2.651-6.491.013-1.195.262-2.375.731-3.474.833-2.296 2.641-4.104 4.937-4.937 2.214-.975 4.735-.975 6.949 0 2.296.833 4.104 2.641 4.937 4.937.512 1.085.763 2.275.731 3.474-.036 2.42-.983 4.738-2.652 6.491zm2.468-41.234c-.099.573-.284 1.128-.549 1.646-.182.562-.46 1.088-.823 1.554-.366.549-.731 1.006-1.097 1.463-1.753 1.67-4.071 2.617-6.491 2.651-.613-.02-1.224-.081-1.829-.183-.573-.099-1.128-.284-1.646-.549-.583-.2-1.136-.477-1.646-.823l-1.371-1.097c-.366-.457-.731-.914-1.097-1.463-.363-.466-.641-.992-.823-1.554-.264-.518-.449-1.073-.549-1.646-.102-.605-.163-1.216-.183-1.829.035-2.42.982-4.739 2.651-6.491.435-.393.893-.759 1.371-1.097.51-.346 1.063-.623 1.646-.823.518-.264 1.073-.449 1.646-.549.596-.156 1.213-.217 1.829-.183.585-.03 1.171.032 1.737.183.605.085 1.192.271 1.737.549.583.2 1.136.477 1.646.823.479.338.937.704 1.371 1.097 1.669 1.753 2.616 4.071 2.651 6.491-.018.614-.079 1.225-.181 1.83zm0-36.572c-.099.573-.284 1.128-.549 1.646-.182.562-.46 1.088-.823 1.554-.366.549-.731 1.006-1.097 1.463l-1.371 1.097c-.509.346-1.063.623-1.646.823-.518.264-1.073.449-1.646.549-.604.106-1.215.167-1.829.183-1.195-.013-2.375-.262-3.474-.731-1.108-.464-2.128-1.113-3.017-1.92-.416-.448-.784-.938-1.097-1.463-.363-.466-.641-.992-.823-1.554-.264-.518-.449-1.073-.549-1.646-.106-.604-.167-1.215-.183-1.829.013-1.195.262-2.375.731-3.474.442-1.119 1.094-2.143 1.92-3.017.889-.807 1.91-1.456 3.017-1.92 3.41-1.379 7.312-.627 9.966 1.92.826.874 1.478 1.898 1.92 3.017.469 1.099.718 2.279.731 3.474-.013.613-.075 1.224-.181 1.828zm0-36.571c-.099.573-.284 1.128-.549 1.646-.2.583-.477 1.136-.823 1.646-.338.479-.704.937-1.097 1.371-.874.827-1.898 1.478-3.017 1.92-2.214.976-4.735.976-6.949 0-1.119-.442-2.143-1.093-3.017-1.92-.393-.435-.76-.893-1.097-1.371-.346-.51-.623-1.063-.823-1.646-.264-.518-.449-1.073-.549-1.646-.106-.604-.167-1.215-.183-1.829.035-2.42.982-4.739 2.651-6.491.874-.826 1.898-1.478 3.017-1.92 2.214-.975 4.735-.975 6.949 0 1.119.442 2.143 1.094 3.017 1.92 1.669 1.753 2.616 4.071 2.651 6.491-.013.614-.075 1.225-.181 1.829zm-.548-34.926c-.833 2.296-2.641 4.104-4.937 4.937-1.099.469-2.279.718-3.474.731-2.42-.035-4.739-.982-6.491-2.651-.807-.889-1.456-1.91-1.92-3.017-.469-1.099-.718-2.279-.731-3.474.035-2.42.982-4.739 2.651-6.491 1.729-1.706 4.063-2.659 6.491-2.651 1.195.013 2.375.262 3.474.731 1.107.464 2.128 1.113 3.017 1.92 1.669 1.753 2.616 4.071 2.651 6.491-.013 1.195-.262 2.375-.731 3.474zm-17.555-40.045c.035-2.42.982-4.739 2.651-6.491 3.593-3.539 9.368-3.518 12.934.049s3.588 9.341.049 12.934c-.434.393-.892.76-1.371 1.097-.509.346-1.063.623-1.646.823-.518.264-1.073.449-1.646.549-.604.106-1.215.167-1.829.183-2.42-.035-4.739-.982-6.491-2.651l-1.097-1.371c-.346-.509-.623-1.063-.823-1.646-.264-.518-.449-1.073-.549-1.646-.105-.606-.166-1.217-.182-1.83zm15.635-30.08-1.371 1.097c-.509.346-1.063.623-1.646.823-.518.264-1.073.449-1.646.549-.604.106-1.215.167-1.829.183-2.42-.035-4.739-.982-6.491-2.651-1.684-1.743-2.634-4.068-2.651-6.491.013-1.195.262-2.375.731-3.474.464-1.108 1.113-2.128 1.92-3.017 3.667-3.383 9.316-3.383 12.983 0 .807.889 1.456 1.91 1.92 3.017.469 1.099.718 2.279.731 3.474-.018 2.422-.967 4.746-2.651 6.49zm2.468-41.235c-.099.573-.284 1.128-.549 1.646-.182.562-.46 1.088-.823 1.554-.366.549-.731 1.006-1.097 1.463-1.753 1.67-4.071 2.617-6.491 2.651-2.424-.018-4.748-.967-6.491-2.651-3.535-3.606-3.535-9.377 0-12.983 2.616-2.637 6.567-3.43 9.998-2.006s5.658 4.783 5.637 8.497c-.016.614-.078 1.225-.184 1.829zm-.246-34.894c-1.676 4.103-6.021 6.446-10.37 5.592s-7.486-4.666-7.486-9.099c.031-2.421.979-4.741 2.651-6.491 3.103-3.165 8.012-3.691 11.715-1.256 3.703 2.436 5.166 7.151 3.49 11.254zm34.349 368.7c-3.606 3.536-9.377 3.536-12.983 0-.807-.889-1.456-1.909-1.92-3.017-.469-1.099-.718-2.279-.731-3.474.035-2.42.982-4.739 2.651-6.491.874-.826 1.898-1.478 3.017-1.92 2.226-.914 4.723-.914 6.949 0 1.119.442 2.143 1.094 3.017 1.92 3.535 3.605 3.535 9.376 0 12.982zm0-36.571c-1.753 1.67-4.071 2.617-6.491 2.651-1.195-.013-2.375-.262-3.474-.731-1.108-.464-2.128-1.113-3.017-1.92-1.67-1.753-2.616-4.071-2.651-6.491.013-1.195.262-2.375.731-3.474.464-1.108 1.113-2.128 1.92-3.017.874-.826 1.898-1.478 3.017-1.92 3.409-1.388 7.316-.635 9.966 1.92.807.889 1.456 1.91 1.92 3.017.469 1.099.718 2.279.731 3.474-.035 2.42-.982 4.738-2.652 6.491zm0-36.572c-.889.807-1.91 1.456-3.017 1.92-1.085.512-2.275.763-3.474.731-2.42-.035-4.739-.982-6.491-2.651-.827-.874-1.478-1.898-1.92-3.017-.975-2.213-.975-4.735 0-6.949.442-1.119 1.094-2.143 1.92-3.017.889-.807 1.91-1.456 3.017-1.92 2.226-.914 4.723-.914 6.949 0 2.296.833 4.104 2.641 4.937 4.937.469 1.099.718 2.279.731 3.474-.035 2.421-.982 4.739-2.652 6.492zm21.669 26.606c.442-1.119 1.094-2.143 1.92-3.017 2.196-2.145 5.309-3.068 8.32-2.469.573.1 1.128.285 1.646.549.583.2 1.136.477 1.646.823.479.338.937.704 1.371 1.097.826.874 1.478 1.898 1.92 3.017.47 1.099.718 2.279.731 3.474-.035 2.42-.982 4.739-2.651 6.491l-1.371 1.097c-.51.346-1.063.623-1.646.823-.518.264-1.073.449-1.646.549-.605.102-1.216.163-1.829.183-2.421-.035-4.739-.982-6.491-2.651-.827-.874-1.478-1.898-1.92-3.017-.976-2.214-.976-4.736 0-6.949zm-.732-33.097c.013-1.195.262-2.375.731-3.474.442-1.119 1.094-2.143 1.92-3.017l1.371-1.097c.51-.346 1.063-.623 1.646-.823.518-.264 1.073-.449 1.646-.549 1.212-.182 2.445-.182 3.657 0 .573.1 1.128.285 1.646.549.583.2 1.136.477 1.646.823l1.371 1.097c.807.889 1.456 1.91 1.92 3.017.47 1.099.718 2.279.731 3.474-.035 2.42-.982 4.739-2.651 6.491l-1.371 1.097c-.51.346-1.063.623-1.646.823-.518.264-1.073.449-1.646.549-1.207.244-2.45.244-3.657 0-.573-.099-1.128-.284-1.646-.549-.583-.2-1.136-.477-1.646-.823l-1.371-1.097c-1.669-1.753-2.616-4.071-2.651-6.491zm17.555 76.617c-.464 1.108-1.113 2.128-1.92 3.017-3.593 3.539-9.368 3.518-12.934-.049-3.566-3.566-3.588-9.341-.049-12.934 3.643-3.442 9.34-3.442 12.983 0 .807.889 1.456 1.91 1.92 3.017.975 2.214.975 4.735 0 6.949zm36.571 0c-.464 1.108-1.113 2.128-1.92 3.017l-1.371 1.097c-.509.346-1.063.623-1.646.823-.518.264-1.073.449-1.646.549-.605.102-1.216.163-1.829.183-3.697-.015-7.023-2.246-8.441-5.66-1.417-3.414-.649-7.345 1.949-9.974.874-.826 1.898-1.478 3.017-1.92 3.409-1.388 7.316-.635 9.966 1.92 1.669 1.753 2.616 4.071 2.651 6.491-.012 1.194-.26 2.375-.73 3.474zm-1.92-33.554c-1.753 1.67-4.071 2.617-6.491 2.651-.613-.02-1.224-.081-1.829-.183-.573-.099-1.128-.284-1.646-.549-.583-.2-1.136-.477-1.646-.823l-1.371-1.097c-1.67-1.753-2.616-4.071-2.651-6.491.013-1.195.262-2.375.731-3.474.442-1.119 1.094-2.143 1.92-3.017.435-.393.893-.759 1.371-1.097.51-.346 1.063-.623 1.646-.823.518-.264 1.073-.449 1.646-.549 3.009-.555 6.101.363 8.32 2.469.826.874 1.478 1.898 1.92 3.017.512 1.085.763 2.275.731 3.474-.035 2.421-.981 4.739-2.651 6.492zm0-36.572c-2.616 2.637-6.567 3.43-9.997 2.006s-5.658-4.783-5.637-8.497c.013-1.195.262-2.375.731-3.474.464-1.108 1.113-2.128 1.92-3.017.874-.826 1.898-1.478 3.017-1.92 3.406-1.417 7.329-.661 9.966 1.92.826.874 1.478 1.898 1.92 3.017.469 1.099.718 2.279.731 3.474-.035 2.42-.981 4.738-2.651 6.491zm38.491 70.126c-.464 1.108-1.113 2.128-1.92 3.017-3.606 3.536-9.377 3.536-12.983 0-.827-.874-1.478-1.898-1.92-3.017-.975-2.214-.975-4.735 0-6.949.833-2.296 2.641-4.104 4.937-4.937 2.226-.914 4.723-.914 6.949 0 1.107.464 2.128 1.113 3.017 1.92 1.669 1.753 2.616 4.071 2.651 6.491.032 1.2-.218 2.39-.731 3.475zm-1.92-33.554c-1.753 1.67-4.071 2.617-6.491 2.651-1.195-.013-2.375-.262-3.474-.731-1.119-.442-2.143-1.093-3.017-1.92-1.67-1.753-2.616-4.071-2.651-6.491.013-1.195.262-2.375.731-3.474.464-1.108 1.113-2.128 1.92-3.017.874-.826 1.898-1.478 3.017-1.92 3.409-1.388 7.316-.635 9.966 1.92.807.889 1.456 1.91 1.92 3.017.469 1.099.718 2.279.731 3.474-.035 2.42-.982 4.738-2.652 6.491zm0-36.572c-1.753 1.67-4.071 2.617-6.491 2.651-1.199.031-2.389-.219-3.474-.731-1.108-.464-2.128-1.113-3.017-1.92-.827-.874-1.478-1.898-1.92-3.017-.975-2.213-.975-4.735 0-6.949.442-1.119 1.094-2.143 1.92-3.017.889-.807 1.91-1.456 3.017-1.92 2.226-.914 4.723-.914 6.949 0 1.119.442 2.143 1.094 3.017 1.92.807.889 1.456 1.91 1.92 3.017.469 1.099.718 2.279.731 3.474-.035 2.421-.982 4.739-2.652 6.492zm36.572 73.143c-1.753 1.67-4.071 2.617-6.491 2.651-.613-.02-1.224-.081-1.829-.183-.573-.099-1.128-.284-1.646-.549-.583-.2-1.136-.477-1.646-.823l-1.371-1.097c-.807-.889-1.456-1.909-1.92-3.017-.976-2.214-.976-4.735 0-6.949.464-1.108 1.113-2.128 1.92-3.017 2.649-2.555 6.557-3.308 9.966-1.92 1.119.442 2.143 1.094 3.017 1.92 3.535 3.607 3.535 9.378 0 12.984zm0-36.571c-.874.827-1.898 1.478-3.017 1.92-1.099.47-2.279.718-3.474.731-2.432.024-4.772-.932-6.491-2.651-1.72-1.72-2.675-4.059-2.651-6.491.013-1.195.262-2.375.731-3.474.464-1.108 1.113-2.128 1.92-3.017 2.65-2.555 6.556-3.308 9.966-1.92 1.119.442 2.143 1.094 3.017 1.92.807.889 1.456 1.91 1.92 3.017.47 1.099.718 2.279.731 3.474-.036 2.42-.983 4.738-2.652 6.491zm0-36.572c-.457.366-.914.731-1.463 1.097-.466.363-.992.641-1.554.823-.518.264-1.073.449-1.646.549-1.207.244-2.45.244-3.657 0-.573-.099-1.128-.284-1.646-.549-.583-.2-1.136-.477-1.646-.823l-1.371-1.097c-1.67-1.753-2.616-4.071-2.651-6.491.013-1.195.262-2.375.731-3.474.464-1.108 1.113-2.128 1.92-3.017l1.371-1.097c.51-.346 1.063-.623 1.646-.823.518-.264 1.073-.449 1.646-.549 1.212-.182 2.445-.182 3.657 0 .573.1 1.128.285 1.646.549.562.182 1.088.46 1.554.823.549.366 1.006.731 1.463 1.097.807.889 1.456 1.91 1.92 3.017.47 1.099.718 2.279.731 3.474-.035 2.42-.982 4.738-2.651 6.491zm36.571 73.143c-3.606 3.536-9.377 3.536-12.983 0-.807-.889-1.456-1.909-1.92-3.017-.469-1.099-.718-2.279-.731-3.474.035-2.42.982-4.739 2.651-6.491.874-.826 1.898-1.478 3.017-1.92 2.214-.975 4.735-.975 6.949 0 1.13.42 2.158 1.074 3.017 1.92 3.535 3.605 3.535 9.376 0 12.982zm0-36.571-1.371 1.097c-.509.346-1.063.623-1.646.823-.518.264-1.073.449-1.646.549-.605.102-1.216.163-1.829.183-2.42-.035-4.739-.982-6.491-2.651-.827-.874-1.478-1.898-1.92-3.017-.976-2.214-.976-4.735 0-6.949.442-1.119 1.094-2.143 1.92-3.017 2.196-2.145 5.309-3.068 8.32-2.469.573.1 1.128.285 1.646.549.583.2 1.136.477 1.646.823.479.338.937.704 1.371 1.097.826.874 1.478 1.898 1.92 3.017.47 1.099.718 2.279.731 3.474-.034 2.42-.981 4.738-2.651 6.491zm0-36.572-1.371 1.097c-.509.346-1.063.623-1.646.823-.518.264-1.073.449-1.646.549-.604.106-1.215.167-1.829.183-2.432.024-4.772-.932-6.491-2.651-1.72-1.72-2.675-4.059-2.652-6.491.013-1.195.262-2.375.731-3.474.464-1.108 1.113-2.128 1.92-3.017.874-.826 1.898-1.478 3.017-1.92 1.667-.73 3.521-.922 5.303-.549.573.1 1.128.285 1.646.549.583.2 1.136.477 1.646.823l1.371 1.097c.807.889 1.456 1.91 1.92 3.017.47 1.099.718 2.279.731 3.474-.033 2.419-.98 4.737-2.65 6.49zm-171.063-52.206c-10.087-.03-18.256-8.199-18.286-18.286v-164.571c.029-10.087 8.199-18.256 18.286-18.286h182.857c10.087.029 18.256 8.199 18.286 18.286v164.571c-.03 10.087-8.199 18.256-18.286 18.286zm194.652-253.348c3.593-3.539 9.368-3.518 12.934.049 3.566 3.566 3.588 9.341.049 12.934-.457.366-.914.731-1.463 1.097-.466.363-.992.641-1.554.823-.518.264-1.073.449-1.646.549-.604.106-1.215.167-1.829.183-3.696-.015-7.023-2.246-8.441-5.66-1.417-3.415-.649-7.346 1.95-9.975zm0-36.572c3.593-3.539 9.368-3.518 12.934.049 3.566 3.566 3.588 9.341.049 12.934-.457.366-.914.731-1.463 1.097-.466.363-.992.641-1.554.823-.518.264-1.073.449-1.646.549-.604.106-1.215.167-1.829.183-3.696-.015-7.023-2.246-8.441-5.66-1.417-3.414-.649-7.345 1.95-9.975zm12.983 342.126c-2.616 2.637-6.567 3.43-9.998 2.006s-5.658-4.783-5.637-8.497c.013-1.195.262-2.375.731-3.474.833-2.296 2.641-4.104 4.937-4.937 3.405-1.425 7.334-.669 9.966 1.92 3.536 3.605 3.536 9.376.001 12.982zm1.92 70.126c-.464 1.108-1.113 2.128-1.92 3.017-3.593 3.539-9.368 3.518-12.934-.049s-3.588-9.341-.049-12.934c.874-.826 1.898-1.478 3.017-1.92 3.41-1.379 7.312-.627 9.966 1.92 1.669 1.753 2.616 4.071 2.651 6.491-.013 1.195-.262 2.376-.731 3.475zm-1.92-33.554c-1.753 1.67-4.071 2.617-6.491 2.651-.613-.02-1.224-.081-1.829-.183-.573-.099-1.128-.284-1.646-.549-.583-.2-1.136-.477-1.646-.823l-1.371-1.097c-1.67-1.753-2.616-4.071-2.651-6.491.013-1.195.262-2.375.731-3.474.442-1.119 1.094-2.143 1.92-3.017.435-.393.893-.759 1.371-1.097.51-.346 1.063-.623 1.646-.823.518-.264 1.073-.449 1.646-.549 3.008-.555 6.101.363 8.32 2.469.826.874 1.478 1.898 1.92 3.017.512 1.085.763 2.275.731 3.474-.035 2.421-.982 4.739-2.651 6.492zm0-402.286c-1.753 1.67-4.071 2.617-6.491 2.651-1.195-.013-2.375-.262-3.474-.731-1.13-.42-2.158-1.074-3.017-1.92-3.535-3.606-3.535-9.377 0-12.983.859-.846 1.887-1.5 3.017-1.92 1.105-.44 2.285-.658 3.474-.64 2.418-.041 4.753.88 6.491 2.56 1.669 1.753 2.616 4.071 2.651 6.491-.018 2.424-.967 4.749-2.651 6.492zm23.588 23.588c3.593-3.539 9.368-3.518 12.934.049 3.566 3.566 3.588 9.341.049 12.934-3.593 3.539-9.368 3.518-12.934-.049-3.566-3.566-3.588-9.341-.049-12.934zm0 36.572c2.654-2.547 6.556-3.299 9.966-1.92 1.107.464 2.128 1.113 3.017 1.92 1.669 1.753 2.616 4.071 2.651 6.491-.016.613-.077 1.224-.183 1.829-.099.573-.284 1.128-.549 1.646-.182.562-.46 1.088-.823 1.554-.366.549-.731 1.006-1.097 1.463-.889.807-1.91 1.456-3.017 1.92-1.085.512-2.275.763-3.474.731-3.696-.015-7.023-2.246-8.441-5.66-1.417-3.414-.648-7.345 1.95-9.974zm12.983 342.126c-1.753 1.67-4.071 2.617-6.491 2.651-1.195-.013-2.375-.262-3.474-.731-1.119-.442-2.143-1.093-3.017-1.92-1.67-1.753-2.616-4.071-2.651-6.491.013-1.195.262-2.375.731-3.474.464-1.108 1.113-2.128 1.92-3.017.874-.826 1.898-1.478 3.017-1.92 3.41-1.379 7.312-.627 9.966 1.92.807.889 1.456 1.91 1.92 3.017.47 1.099.718 2.279.731 3.474-.035 2.42-.982 4.738-2.652 6.491zm0-36.572c-1.753 1.67-4.071 2.617-6.491 2.651-.613-.016-1.224-.077-1.829-.183-.573-.099-1.128-.284-1.646-.549-.583-.2-1.136-.477-1.646-.823l-1.371-1.097c-1.67-1.753-2.616-4.071-2.651-6.491.013-1.195.262-2.375.731-3.474.464-1.108 1.113-2.128 1.92-3.017l1.371-1.097c.51-.346 1.063-.623 1.646-.823.518-.264 1.073-.449 1.646-.549 1.782-.374 3.635-.182 5.303.549 1.119.442 2.143 1.094 3.017 1.92.807.889 1.456 1.91 1.92 3.017.47 1.099.718 2.279.731 3.474-.034 2.421-.981 4.739-2.651 6.492zm2.469-41.234c-.099.573-.284 1.128-.549 1.646-.182.562-.46 1.088-.823 1.554-.314.525-.681 1.015-1.097 1.463-.874.826-1.898 1.478-3.017 1.92-1.099.469-2.279.718-3.474.731-.613-.016-1.224-.077-1.829-.183-.573-.099-1.128-.284-1.646-.549-.583-.2-1.136-.477-1.646-.823l-1.371-1.097c-3.535-3.606-3.535-9.377 0-12.983.435-.393.893-.759 1.371-1.097.51-.346 1.063-.623 1.646-.823.518-.264 1.073-.449 1.646-.549 1.782-.374 3.635-.182 5.303.549 1.119.442 2.143 1.094 3.017 1.92.393.435.76.893 1.097 1.371.346.509.623 1.063.823 1.646.264.518.449 1.073.549 1.646.102.605.163 1.216.183 1.829-.02.613-.082 1.224-.183 1.829zm0-36.572c-.099.573-.284 1.128-.549 1.646-.182.562-.46 1.088-.823 1.554-.366.549-.731 1.006-1.097 1.463-.889.807-1.91 1.456-3.017 1.92-2.213.976-4.735.976-6.949 0-1.108-.464-2.128-1.113-3.017-1.92-.366-.457-.731-.914-1.097-1.463-.363-.466-.641-.992-.823-1.554-.264-.518-.449-1.073-.549-1.646-.106-.604-.167-1.215-.183-1.829.013-1.195.262-2.375.731-3.474.442-1.119 1.094-2.143 1.92-3.017.889-.807 1.91-1.456 3.017-1.92 2.214-.975 4.735-.975 6.949 0 1.107.464 2.128 1.113 3.017 1.92.826.874 1.478 1.898 1.92 3.017.47 1.099.718 2.279.731 3.474-.014.614-.075 1.225-.181 1.829zm0-36.571c-.099.573-.284 1.128-.549 1.646-.2.583-.476 1.136-.823 1.646l-1.097 1.371-1.371 1.097c-.51.346-1.063.623-1.646.823-.518.264-1.073.449-1.646.549-.604.106-1.215.167-1.829.183-2.42-.035-4.739-.982-6.491-2.651l-1.097-1.371c-.346-.51-.623-1.063-.823-1.646-.264-.518-.449-1.073-.549-1.646-.106-.604-.167-1.215-.183-1.829.035-2.42.982-4.739 2.651-6.491 2.212-2.118 5.311-3.037 8.32-2.469.573.1 1.128.285 1.646.549.583.2 1.136.477 1.646.823l1.371 1.097c1.669 1.753 2.616 4.071 2.651 6.491-.014.613-.075 1.224-.181 1.828zm-.549-34.926c-.464 1.108-1.113 2.128-1.92 3.017-1.743 1.684-4.067 2.634-6.491 2.651-2.42-.035-4.739-.982-6.491-2.651-.807-.889-1.456-1.91-1.92-3.017-.47-1.099-.718-2.279-.731-3.474.016-.613.077-1.224.183-1.829.099-.573.284-1.128.549-1.646.2-.583.476-1.136.823-1.646l1.097-1.371c2.616-2.637 6.567-3.43 9.997-2.006 3.431 1.424 5.658 4.783 5.637 8.497-.015 1.196-.263 2.376-.733 3.475zm.549-38.217c-.099.573-.284 1.128-.549 1.646-.2.583-.476 1.136-.823 1.646-.63.995-1.473 1.839-2.469 2.469-.51.346-1.063.623-1.646.823-.518.264-1.073.449-1.646.549-.604.106-1.215.167-1.829.183-3.696-.015-7.023-2.246-8.441-5.66s-.649-7.345 1.949-9.974c2.616-2.637 6.567-3.43 9.997-2.006 3.431 1.424 5.658 4.783 5.637 8.497-.013.612-.074 1.223-.18 1.827zm-2.469-31.908c-.889.807-1.91 1.456-3.017 1.92-1.085.512-2.275.763-3.474.731-.613-.016-1.224-.077-1.829-.183-.573-.099-1.128-.284-1.646-.549-.583-.2-1.136-.477-1.646-.823l-1.371-1.097-1.097-1.371c-.346-.509-.623-1.063-.823-1.646-.264-.518-.449-1.073-.549-1.646-.106-.604-.167-1.215-.183-1.829.013-1.195.262-2.375.731-3.474.464-1.108 1.113-2.128 1.92-3.017 2.617-2.617 6.564-3.378 9.966-1.92 2.296.833 4.104 2.641 4.937 4.937.47 1.099.718 2.279.731 3.474-.016 2.425-.966 4.749-2.65 6.493zm2.006-39.557c-1.424 3.43-4.783 5.658-8.497 5.637-1.195-.013-2.375-.262-3.474-.731-1.108-.464-2.128-1.113-3.017-1.92-3.535-3.606-3.535-9.377 0-12.983.889-.807 1.91-1.456 3.017-1.92 3.404-1.434 7.338-.677 9.966 1.92 2.636 2.615 3.429 6.566 2.005 9.997zm61.311-48.371c3.991-1.63 8.578-.22 10.964 3.37 2.386 3.591 1.91 8.366-1.139 11.414-.457.366-.914.731-1.463 1.097-.466.363-.992.641-1.554.823-.518.264-1.073.449-1.646.549-.604.106-1.215.167-1.829.183-4.311-.042-7.994-3.119-8.804-7.353s1.48-8.453 5.471-10.083zm-3.157-34.77c3.593-3.539 9.368-3.518 12.934.049 3.566 3.566 3.588 9.341.049 12.934-3.593 3.539-9.368 3.518-12.934-.049-3.566-3.566-3.588-9.341-.049-12.934zm4.147-38.864c3.989-1.058 8.192.687 10.258 4.259s1.483 8.086-1.423 11.016c-2.616 2.637-6.567 3.43-9.997 2.006s-5.658-4.783-5.637-8.497c.025-4.126 2.81-7.725 6.799-8.784zm-36.571 0c3.989-1.058 8.192.687 10.258 4.259s1.483 8.086-1.423 11.016c-2.616 2.637-6.567 3.43-9.997 2.006-3.431-1.424-5.658-4.783-5.637-8.497.024-4.126 2.81-7.725 6.799-8.784zm8.836 51.847c-3.593 3.539-9.368 3.518-12.934-.049-3.566-3.566-3.588-9.341-.049-12.934 3.593-3.539 9.368-3.518 12.934.049 3.566 3.566 3.588 9.341.049 12.934zm0 402.286c-3.606 3.536-9.377 3.536-12.983 0-.807-.889-1.456-1.909-1.92-3.017-.976-2.214-.976-4.735 0-6.949.833-2.296 2.641-4.104 4.937-4.937 2.226-.914 4.723-.914 6.949 0 1.107.464 2.128 1.113 3.017 1.92 3.535 3.606 3.535 9.377 0 12.983zm0-36.571c-1.753 1.67-4.071 2.617-6.491 2.651-1.195-.013-2.375-.262-3.474-.731-1.108-.464-2.128-1.113-3.017-1.92-1.67-1.753-2.616-4.071-2.651-6.491.013-1.195.262-2.375.731-3.474.442-1.119 1.094-2.143 1.92-3.017.889-.807 1.91-1.456 3.017-1.92 2.223-.993 4.758-1.027 7.007-.093s4.014 2.753 4.879 5.03c.47 1.099.718 2.279.731 3.474-.036 2.42-.983 4.738-2.652 6.491zm0-36.572-1.371 1.097c-.509.346-1.063.623-1.646.823-.518.264-1.073.449-1.646.549-1.207.244-2.45.244-3.657 0-.573-.099-1.128-.284-1.646-.549-.562-.182-1.088-.46-1.554-.823-.549-.366-1.006-.731-1.463-1.097-1.67-1.753-2.616-4.071-2.651-6.491.013-1.195.262-2.375.731-3.474.464-1.108 1.113-2.128 1.92-3.017.457-.366.914-.731 1.463-1.097.466-.362.992-.641 1.554-.823.518-.264 1.073-.449 1.646-.549 1.207-.243 2.45-.243 3.657 0 .573.1 1.128.285 1.646.549.583.2 1.136.477 1.646.823l1.371 1.097c.807.889 1.456 1.91 1.92 3.017.47 1.099.718 2.279.731 3.474-.035 2.42-.982 4.738-2.651 6.491zm2.468-41.234c-.099.573-.284 1.128-.549 1.646-.182.562-.46 1.088-.823 1.554-.366.549-.731 1.006-1.097 1.463l-1.371 1.097c-.509.346-1.063.623-1.646.823-.518.264-1.073.449-1.646.549-.605.102-1.216.163-1.829.183-2.42-.035-4.739-.982-6.491-2.651-.366-.457-.731-.914-1.097-1.463-.363-.466-.641-.992-.823-1.554-.264-.518-.449-1.073-.549-1.646-.102-.605-.163-1.216-.183-1.829.035-2.42.982-4.739 2.651-6.491.435-.393.893-.759 1.371-1.097.51-.346 1.063-.623 1.646-.823.545-.278 1.132-.463 1.737-.549.566-.151 1.152-.213 1.737-.183.615-.034 1.232.027 1.829.183.573.1 1.128.284 1.646.549.583.2 1.136.477 1.646.823.479.338.937.704 1.371 1.097 1.669 1.753 2.616 4.071 2.651 6.491-.018.612-.079 1.223-.181 1.828zm0-36.572c-.099.573-.284 1.128-.549 1.646-.182.562-.46 1.088-.823 1.554-.366.549-.731 1.006-1.097 1.463-.874.827-1.898 1.478-3.017 1.92-1.099.47-2.279.718-3.474.731-2.42-.035-4.739-.982-6.491-2.651-.366-.457-.731-.914-1.097-1.463-.363-.466-.641-.992-.823-1.554-.264-.518-.449-1.073-.549-1.646-.106-.604-.167-1.215-.183-1.829.013-1.195.262-2.375.731-3.474.464-1.108 1.113-2.128 1.92-3.017 3.643-3.442 9.34-3.442 12.983 0 1.669 1.753 2.616 4.071 2.651 6.491-.015.614-.076 1.225-.182 1.829zm0-36.571c-.099.573-.284 1.128-.549 1.646-.2.583-.476 1.136-.823 1.646-.338.479-.704.937-1.097 1.371-.874.827-1.898 1.478-3.017 1.92-2.214.976-4.735.976-6.949 0-1.119-.442-2.143-1.093-3.017-1.92-.393-.435-.76-.893-1.097-1.371-.346-.51-.623-1.063-.823-1.646-.264-.518-.449-1.073-.549-1.646-.106-.604-.167-1.215-.183-1.829.035-2.42.982-4.739 2.651-6.491.874-.826 1.898-1.478 3.017-1.92 2.226-.914 4.723-.914 6.949 0 1.119.442 2.143 1.094 3.017 1.92 1.669 1.753 2.616 4.071 2.651 6.491-.014.614-.075 1.225-.181 1.829zm-.548-34.926c-.464 1.108-1.113 2.128-1.92 3.017-1.753 1.67-4.071 2.617-6.491 2.651-1.195-.013-2.375-.262-3.474-.731-2.296-.833-4.104-2.641-4.937-4.937-.469-1.099-.718-2.279-.731-3.474.035-2.42.982-4.739 2.651-6.491.889-.807 1.91-1.456 3.017-1.92 3.41-1.379 7.312-.627 9.966 1.92 1.669 1.753 2.616 4.071 2.651 6.491-.014 1.195-.263 2.375-.732 3.474zm-14.903-46.537c.889-.807 1.91-1.456 3.017-1.92 2.214-.975 4.735-.975 6.949 0 1.119.442 2.143 1.094 3.017 1.92 3.535 3.606 3.535 9.377 0 12.983-.889.807-1.91 1.456-3.017 1.92-1.085.512-2.275.763-3.474.731-3.697-.015-7.023-2.246-8.441-5.66s-.65-7.345 1.949-9.974zm15.451-28.251c-.099.573-.284 1.128-.549 1.646-.2.583-.476 1.136-.823 1.646-.338.479-.704.937-1.097 1.371-1.753 1.67-4.071 2.617-6.491 2.651-.613-.016-1.224-.077-1.829-.183-.573-.099-1.128-.284-1.646-.549-.562-.182-1.088-.46-1.554-.823-.549-.366-1.006-.731-1.463-1.097-1.684-1.743-2.634-4.068-2.651-6.491.013-1.195.262-2.375.731-3.474.464-1.108 1.113-2.128 1.92-3.017 3.667-3.383 9.316-3.383 12.983 0 .807.889 1.456 1.91 1.92 3.017.47 1.099.718 2.279.731 3.474-.015.613-.076 1.225-.182 1.829zm-2.468-31.909c-3.103 3.165-8.012 3.691-11.715 1.256s-5.166-7.151-3.49-11.254 6.021-6.446 10.37-5.592 7.486 4.666 7.486 9.099c-.035 2.42-.982 4.738-2.651 6.491zm0-36.571c-3.103 3.165-8.012 3.691-11.715 1.256s-5.166-7.151-3.49-11.254 6.021-6.446 10.37-5.592 7.486 4.666 7.486 9.099c-.035 2.42-.982 4.738-2.651 6.491zm36.571 365.714c-1.753 1.67-4.071 2.617-6.491 2.651-.613-.02-1.224-.081-1.829-.183-.573-.099-1.128-.284-1.646-.549-.583-.2-1.136-.477-1.646-.823l-1.371-1.097c-.807-.889-1.456-1.909-1.92-3.017-.469-1.099-.718-2.279-.731-3.474.035-2.42.982-4.739 2.651-6.491 2.649-2.555 6.556-3.308 9.966-1.92 1.119.442 2.143 1.094 3.017 1.92 3.535 3.606 3.535 9.377 0 12.983zm0-36.571-1.371 1.097c-.509.346-1.063.623-1.646.823-.518.264-1.073.449-1.646.549-1.207.244-2.45.244-3.657 0-.573-.099-1.128-.284-1.646-.549-.583-.2-1.136-.477-1.646-.823l-1.371-1.097c-1.67-1.753-2.616-4.071-2.651-6.491-.031-1.199.219-2.389.731-3.474.442-1.119 1.094-2.143 1.92-3.017.435-.393.893-.759 1.371-1.097.51-.346 1.063-.623 1.646-.823.518-.264 1.073-.449 1.646-.549 1.207-.243 2.45-.243 3.657 0 .573.1 1.128.285 1.646.549.583.2 1.136.477 1.646.823.479.338.937.704 1.371 1.097.826.874 1.478 1.898 1.92 3.017.469 1.099.718 2.279.731 3.474-.035 2.42-.981 4.738-2.651 6.491zm0-36.572c-1.753 1.67-4.071 2.617-6.491 2.651-1.199.031-2.389-.219-3.474-.731-1.108-.464-2.128-1.113-3.017-1.92-1.67-1.753-2.616-4.071-2.651-6.491.013-1.195.262-2.375.731-3.474.833-2.296 2.641-4.104 4.937-4.937 3.411-1.37 7.308-.619 9.966 1.92.807.889 1.456 1.91 1.92 3.017.512 1.085.763 2.275.731 3.474-.036 2.42-.982 4.738-2.652 6.491zm-15.634-43.063c.035-2.42.982-4.739 2.651-6.491.889-.807 1.91-1.456 3.017-1.92 3.409-1.388 7.316-.635 9.966 1.92 3.535 3.606 3.535 9.377 0 12.983-.889.807-1.909 1.456-3.017 1.92-2.214.976-4.735.976-6.949 0-1.108-.464-2.128-1.113-3.017-1.92-.416-.448-.784-.938-1.097-1.463-.363-.466-.641-.992-.823-1.554-.264-.518-.449-1.073-.549-1.646-.101-.605-.162-1.216-.182-1.829zm18.103-34.743c-.099.573-.284 1.128-.549 1.646-.182.562-.46 1.088-.823 1.554-.366.549-.731 1.006-1.097 1.463l-1.371 1.097c-.509.346-1.063.623-1.646.823-.518.264-1.073.449-1.646.549-.604.106-1.215.167-1.829.183-1.195-.013-2.375-.262-3.474-.731-1.108-.464-2.128-1.113-3.017-1.92-.416-.448-.784-.938-1.097-1.463-.363-.466-.641-.992-.823-1.554-.264-.518-.449-1.073-.549-1.646-.106-.604-.167-1.215-.183-1.829.013-1.195.262-2.375.731-3.474.442-1.119 1.094-2.143 1.92-3.017.889-.807 1.91-1.456 3.017-1.92 3.41-1.379 7.312-.627 9.966 1.92.826.874 1.478 1.898 1.92 3.017.469 1.099.718 2.279.731 3.474-.014.613-.075 1.224-.181 1.828zm0-36.571c-.099.573-.284 1.128-.549 1.646-.2.583-.477 1.136-.823 1.646l-1.097 1.371-1.371 1.097c-.509.346-1.063.623-1.646.823-.518.264-1.073.449-1.646.549-.604.106-1.215.167-1.829.183-2.42-.035-4.739-.982-6.491-2.651l-1.097-1.371c-.346-.51-.623-1.063-.823-1.646-.264-.518-.449-1.073-.549-1.646-.106-.604-.167-1.215-.183-1.829.035-2.42.982-4.739 2.651-6.491 1.733-1.699 4.064-2.651 6.491-2.651.613.016 1.224.077 1.829.183.573.1 1.128.285 1.646.549.583.2 1.136.477 1.646.823l1.371 1.097c1.67 1.753 2.616 4.071 2.651 6.491-.014.612-.075 1.223-.181 1.827zm-.549-34.926c-.464 1.108-1.113 2.128-1.92 3.017-3.606 3.535-9.377 3.535-12.983 0-.807-.889-1.456-1.91-1.92-3.017-.469-1.099-.718-2.279-.731-3.474.035-2.42.982-4.739 2.651-6.491 3.655-3.413 9.328-3.413 12.983 0 1.67 1.753 2.616 4.071 2.651 6.491-.013 1.195-.261 2.375-.731 3.474zm.549-38.217c-.099.573-.284 1.128-.549 1.646-.2.583-.477 1.136-.823 1.646l-1.097 1.371c-.434.393-.892.76-1.371 1.097-.509.346-1.063.623-1.646.823-.518.264-1.073.449-1.646.549-.605.102-1.216.163-1.829.183-.613-.016-1.224-.077-1.829-.183-.573-.099-1.128-.284-1.646-.549-.583-.2-1.136-.477-1.646-.823-.479-.337-.937-.704-1.371-1.097-2.963-2.929-3.582-7.486-1.508-11.1 2.074-3.613 6.322-5.377 10.345-4.295 4.024 1.082 6.814 4.737 6.797 8.904-.014.613-.075 1.224-.181 1.828zm0-36.571c-.099.573-.284 1.128-.549 1.646-.2.583-.477 1.136-.823 1.646l-1.097 1.371c-.457.366-.914.731-1.463 1.097-.466.363-.992.641-1.554.823-.518.264-1.073.449-1.646.549-.604.106-1.215.167-1.829.183-2.42-.035-4.739-.982-6.491-2.651l-1.097-1.371c-.346-.509-.623-1.063-.823-1.646-.264-.518-.449-1.073-.549-1.646-.106-.604-.167-1.215-.183-1.829.013-1.195.262-2.375.731-3.474.464-1.108 1.113-2.128 1.92-3.017 3.667-3.383 9.316-3.383 12.983 0 .807.889 1.456 1.91 1.92 3.017.469 1.099.718 2.279.731 3.474-.014.612-.075 1.224-.181 1.828zm0-36.572c-.099.573-.284 1.128-.549 1.646-.182.562-.46 1.088-.823 1.554-.366.549-.731 1.006-1.097 1.463-.889.807-1.909 1.456-3.017 1.92-1.099.469-2.279.718-3.474.731-3.696-.015-7.023-2.246-8.441-5.66s-.649-7.345 1.949-9.974c1.729-1.706 4.063-2.659 6.491-2.651 1.195.013 2.375.262 3.474.731 1.107.464 2.128 1.113 3.017 1.92 1.67 1.753 2.616 4.071 2.651 6.491-.014.614-.075 1.225-.181 1.829z"/></g></svg>