<svg enable-background="new 0 0 17.898 17.898" height="512" viewBox="0 0 17.898 17.898" width="512" xmlns="http://www.w3.org/2000/svg"><g fill="#fff"><path d="m16.233 4.616v-.46h-2.22v1.842h2.22v-.462h1.665v-.92z"/><path d="m16.233 8.029h-2.22v1.841h2.22v-.46h1.665v-.92h-1.665z"/><path d="m16.233 11.964h-2.22v1.84h2.22v-.459h1.665v-.92h-1.665z"/><path d="m1.659 4.773h-1.659v.92h1.659v.46h2.212v-1.841h-2.212z"/><path d="m1.659 8.644h-1.659v.92h1.659v.46h2.212v-1.842h-2.212z"/><path d="m1.659 12.579h-1.659v.92h1.659v.461h2.212v-1.841h-2.212z"/><path d="m13.243 3.458h-8.505c-.211 0-.381.17-.381.381v10.218c0 .211.17.382.381.382h8.505c.21 0 .381-.171.381-.382v-10.218c0-.211-.171-.381-.381-.381zm-7.182 2.631c-.439 0-.794-.355-.794-.793s.355-.794.794-.794c.438 0 .793.355.793.794 0 .437-.354.793-.793.793z"/></g></svg>