<?xml version="1.0" encoding="iso-8859-1"?>
<!-- Generator: Adobe Illustrator 18.1.1, SVG Export Plug-In . SVG Version: 6.00 Build 0)  -->
<svg xmlns="http://www.w3.org/2000/svg" xmlns:xlink="http://www.w3.org/1999/xlink" version="1.1" id="Capa_1" x="0px" y="0px" viewBox="0 0 17.898 17.898" style="enable-background:new 0 0 17.898 17.898;" xml:space="preserve" width="512px" height="512px">
<g>
	<g>
		<polygon points="16.233,4.616 16.233,4.156 14.013,4.156 14.013,5.998 16.233,5.998 16.233,5.536     17.898,5.536 17.898,4.616   " fill="#FFFFFF"/>
		<polygon points="16.233,8.029 14.013,8.029 14.013,9.87 16.233,9.87 16.233,9.41 17.898,9.41 17.898,8.49     16.233,8.49   " fill="#FFFFFF"/>
		<polygon points="16.233,11.964 14.013,11.964 14.013,13.804 16.233,13.804 16.233,13.345 17.898,13.345     17.898,12.425 16.233,12.425   " fill="#FFFFFF"/>
		<polygon points="1.659,4.773 0,4.773 0,5.693 1.659,5.693 1.659,6.153 3.871,6.153 3.871,4.312     1.659,4.312   " fill="#FFFFFF"/>
		<polygon points="1.659,8.644 0,8.644 0,9.564 1.659,9.564 1.659,10.024 3.871,10.024 3.871,8.182     1.659,8.182   " fill="#FFFFFF"/>
		<polygon points="1.659,12.579 0,12.579 0,13.499 1.659,13.499 1.659,13.96 3.871,13.96 3.871,12.119     1.659,12.119   " fill="#FFFFFF"/>
		<path d="M13.243,3.458H4.738c-0.211,0-0.381,0.17-0.381,0.381v10.218c0,0.211,0.17,0.382,0.381,0.382h8.505    c0.21,0,0.381-0.171,0.381-0.382V3.839C13.624,3.628,13.453,3.458,13.243,3.458z M6.061,6.089c-0.439,0-0.794-0.355-0.794-0.793    c0-0.438,0.355-0.794,0.794-0.794c0.438,0,0.793,0.355,0.793,0.794C6.854,5.733,6.5,6.089,6.061,6.089z" fill="#FFFFFF"/>
	</g>
</g>
<g>
</g>
<g>
</g>
<g>
</g>
<g>
</g>
<g>
</g>
<g>
</g>
<g>
</g>
<g>
</g>
<g>
</g>
<g>
</g>
<g>
</g>
<g>
</g>
<g>
</g>
<g>
</g>
<g>
</g>
</svg>
