<svg height="120" viewBox="0 0 120 120" width="120" xmlns="http://www.w3.org/2000/svg"><g fill="none" fill-rule="evenodd"><path d="m465.7 26.2c0-9.2-4.9-17.1-11.6-22-1.2-.6-1.8-1.2-3.1-1.8-3.7-1.8-8-2.4-11.6-2.4h-326.3c-14.7 0-26.9 11.6-26.9 26.9v67.9h136.5l-14.1-14.1c-3.7-3.7-3.1-9.2 0-12.9l9.2-9.2c1.8-1.8 3.7-2.4 6.1-2.4s4.9.6 6.7 2.4l45.3 46c1.8 1.8 2.399 3.7 2.399 6.1s-1.199 4.9-2.399 6.7l-45.3 45.9c-3.7 3.7-9.2 3.7-12.9 0l-9.2-9.2c-3.7-3.7-3.7-9.2 0-12.9l14.7-14.1h-136.4v398.4c0 14.7 11.6 26.9 26.3 26.9h326.2c14.7 0 26.9-11.601 26.9-26.9zm-113.3 144.5c18.399 0 33.7 15.3 33.7 33.7s-15.301 33-33.7 33c-18.4 0-33-14.7-33-33s14-33.7 33-33.7zm-117.4 233.1c-7.3 8.601-12.2 11.601-22 11l-74.1-1.199c-9.2-.601-16.5-9.801-15.9-17.7.6-11 8-17.101 18.4-17.101l67.9-.6 15.9-21.5 28.8 23.3zm177.4-55.699-60.6-13.401c-4.3-1.2-7.3-4.3-9.199-8l-14.101-31.2c-1.2 1.2-32.399 52.601-32.399 52.601l35.5 26.899c11 9.2 12.199 17.7 8 29.4l-36.7 84.5c-3.101 8-12.2 13.5-21.4 10.399-9.2-3.1-15.3-13.5-11-22.6l31.8-76.5-47.7-36.1c-12.9-8-17.7-23.301-8.6-38.601l42.8-69.8-31.2-11-56.3 28.2c-7.3 4.3-16.5.6-20.2-6.1-3.1-6.1-.6-14.7 5.5-18.4l58.8-30.6c3.1-1.8 6.1-3.1 9.2-3.1s6.1.6 8.6 1.2l49.6 15.9c1.801.6 3.101 1.2 4.301 2.4l26.898 20.202c3.7 2.4 4.9 6.7 6.101 9.8l13.5 42.2 54.5 14.1c7.3 1.8 11 8.601 11 15.3-.801 6.2-9.301 14.2-16.701 12.301z" transform="translate(-237.07193 -217.432)"/><path d="m-50.806919-129.95325c0-9.2-4.9-17.1-11.6-22-1.2-.6-1.8-1.2-3.1-1.8-3.7-1.8-8-2.4-11.6-2.4h-326.300001c-14.7 0-26.9 11.6-26.9 26.9v67.899995h136.5l-14.1-14.1c-3.7-3.7-3.1-9.2 0-12.9l9.2-9.2c1.8-1.8 3.7-2.4 6.1-2.4s4.9.6 6.7 2.4l45.3 46c1.8 1.8 2.399 3.7 2.399 6.1s-1.199 4.9-2.399 6.7l-45.3 45.9000003c-3.7 3.6999997-9.2 3.6999997-12.9 0l-9.2-9.2c-3.7-3.7-3.7-9.2000003 0-12.9000003l14.7-14.1h-136.4v398.400005c0 14.7 11.6 26.9 26.3 26.9h326.200001c14.7 0 26.9-11.601 26.9-26.9zm-113.300001 144.499995c18.399 0 33.7 15.3 33.7 33.7s-15.301 33-33.7 33c-18.4 0-33-14.7-33-33s14-33.7 33-33.7zm-117.4 233.100005c-7.3 8.601-12.2 11.601-22 11l-74.1-1.199c-9.2-.601-16.5-9.801-15.9-17.7.6-11 8-17.101 18.4-17.101l67.9-.6 15.9-21.5 28.8 23.3zm177.4-55.699-60.6-13.401c-4.3-1.2-7.3-4.3-9.199-8l-14.101-31.2c-1.2 1.2-32.399 52.601-32.399 52.601l35.5 26.899c11 9.2 12.199 17.7 8 29.4l-36.7 84.5c-3.101 8-12.2 13.5-21.4 10.399-9.2-3.1-15.3-13.5-11-22.6l31.8-76.5-47.7-36.1c-12.9-8-17.7-23.301-8.6-38.601l42.8-69.800005-31.2-11-56.3 28.200005c-7.3 4.3-16.5.6-20.2-6.1-3.1-6.1-.6-14.700005 5.5-18.400005l58.8-30.6c3.1-1.8 6.1-3.1 9.2-3.1s6.1.6 8.6 1.2l49.6 15.9c1.801.6 3.101 1.2 4.301 2.4l26.898 20.202c3.7 2.400005 4.9 6.700005 6.101 9.800005l13.5 42.2 54.500001 14.1c7.3 1.8 11 8.601 11 15.3-.801 6.2-9.301 14.2-16.701001 12.301z" fill="#fff" transform="matrix(.21723389 0 0 .21723389 113.47725 33.921777)"/></g></svg>