<?xml version="1.0" encoding="iso-8859-1"?>
<!-- Generator: Adobe Illustrator 19.0.0, SVG Export Plug-In . SVG Version: 6.00 Build 0)  -->
<svg version="1.1" id="Capa_1" xmlns="http://www.w3.org/2000/svg" xmlns:xlink="http://www.w3.org/1999/xlink" x="0px" y="0px"
	 viewBox="0 0 512 512" style="enable-background:new 0 0 512 512;" xml:space="preserve">
<g>
	<g>
		<path d="M501.333,213.333h-29.376c-0.587-1.483-1.195-2.955-1.856-4.437l20.789-20.779c4.164-4.165,4.164-10.917,0-15.083
			l-45.259-45.259c-4.165-4.164-10.917-4.164-15.083,0l-20.779,20.789c-1.483-0.651-2.955-1.269-4.437-1.867v-29.365
			c0-5.891-4.776-10.667-10.667-10.667h-64c-5.891,0-10.667,4.776-10.667,10.667v29.365c-1.483,0.597-2.955,1.216-4.437,1.867
			l-20.779-20.789c-4.165-4.164-10.917-4.164-15.083,0l-45.259,45.259c-4.164,4.165-4.164,10.917,0,15.083l20.789,20.779
			c-0.661,1.483-1.269,2.955-1.856,4.437H224c-5.891,0-10.667,4.776-10.667,10.667v64c0,5.891,4.776,10.667,10.667,10.667h29.376
			c0.587,1.483,1.195,2.955,1.856,4.437l-20.789,20.779c-4.164,4.165-4.164,10.917,0,15.083l45.259,45.259
			c4.165,4.164,10.917,4.164,15.083,0l20.779-20.789c1.483,0.651,2.955,1.269,4.437,1.867v29.365
			c0,5.891,4.776,10.667,10.667,10.667h64c5.891,0,10.667-4.776,10.667-10.667v-29.365c1.483-0.597,2.955-1.216,4.437-1.867
			l20.779,20.789c4.165,4.164,10.917,4.164,15.083,0l45.259-45.259c4.164-4.165,4.164-10.917,0-15.083l-20.789-20.779
			c0.661-1.483,1.269-2.955,1.856-4.437h29.376c5.891,0,10.667-4.776,10.667-10.667v-64
			C512,218.109,507.224,213.333,501.333,213.333z M490.667,277.333h-26.219c-4.659,0-8.778,3.023-10.176,7.467
			c-1.713,5.363-3.89,10.567-6.507,15.552c-2.158,4.13-1.385,9.184,1.909,12.48l18.592,18.592L438.091,361.6l-18.581-18.603
			c-3.296-3.294-8.35-4.068-12.48-1.909c-4.985,2.624-10.193,4.801-15.563,6.507c-4.444,1.398-7.467,5.517-7.467,10.176V384h-42.667
			l0.011-26.219c0-4.659-3.023-8.778-7.467-10.176c-5.369-1.706-10.577-3.883-15.563-6.507c-4.13-2.158-9.184-1.385-12.48,1.909
			L287.243,361.6l-30.176-30.176l18.603-18.592c3.294-3.296,4.068-8.35,1.909-12.48c-2.617-4.985-4.794-10.189-6.507-15.552
			c-1.398-4.444-5.517-7.467-10.176-7.467h-26.229v-42.667h26.219c4.659,0,8.778-3.023,10.176-7.467
			c1.713-5.363,3.89-10.567,6.507-15.552c2.158-4.13,1.385-9.184-1.909-12.48l-18.592-18.592l30.176-30.176l18.581,18.603
			c3.296,3.294,8.35,4.067,12.48,1.909c4.985-2.624,10.193-4.801,15.563-6.507c4.444-1.398,7.467-5.517,7.467-10.176V128h42.656
			v26.219c0,4.659,3.023,8.778,7.467,10.176c5.369,1.706,10.577,3.883,15.563,6.507c4.13,2.158,9.184,1.385,12.48-1.909
			l18.592-18.592l30.176,30.176l-18.603,18.592c-3.294,3.296-4.068,8.35-1.909,12.48c2.617,4.985,4.794,10.189,6.507,15.552
			c1.398,4.444,5.517,7.467,10.176,7.467h26.229V277.333z"/>
	</g>
</g>
<g>
	<g>
		<path d="M362.667,202.667c-29.455,0-53.333,23.878-53.333,53.333s23.878,53.333,53.333,53.333
			C392.107,309.298,415.965,285.441,416,256C416,226.545,392.122,202.667,362.667,202.667z M362.667,288c-17.673,0-32-14.327-32-32
			s14.327-32,32-32s32,14.327,32,32S380.34,288,362.667,288z"/>
	</g>
</g>
<g>
	<g>
		<path d="M384,85.333v-32C383.965,23.893,360.107,0.035,330.667,0H96c-2.829,0.001-5.541,1.125-7.541,3.125L3.125,88.459
			c-2,2-3.125,4.713-3.125,7.541v362.667C0.035,488.107,23.893,511.965,53.333,512h277.333
			c29.441-0.035,53.298-23.893,53.333-53.333v-32h-21.333v32c0,17.673-14.327,32-32,32H53.333c-17.673,0-32-14.327-32-32V100.416
			l79.083-79.083h230.251c17.673,0,32,14.327,32,32v32H384z"/>
	</g>
</g>
<g>
	<g>
		<path d="M85.333,10.667v64c0,5.891-4.776,10.667-10.667,10.667H53.333v21.333h21.333c17.673,0,32-14.327,32-32v-64H85.333z"/>
	</g>
</g>
<g>
	<g>
		<rect x="96" y="245.333" width="96" height="21.333"/>
	</g>
</g>
<g>
	<g>
		<rect x="53.333" y="245.333" width="21.333" height="21.333"/>
	</g>
</g>
<g>
	<g>
		<rect x="117.333" y="320" width="85.333" height="21.333"/>
	</g>
</g>
<g>
	<g>
		<rect x="74.667" y="320" width="21.333" height="21.333"/>
	</g>
</g>
<g>
	<g>
		<rect x="117.333" y="170.667" width="85.333" height="21.333"/>
	</g>
</g>
<g>
	<g>
		<rect x="74.667" y="170.667" width="21.333" height="21.333"/>
	</g>
</g>
<g>
	<g>
		<path d="M74.667,448C68.776,448,64,443.224,64,437.333V416H42.667v21.333c0,17.673,14.327,32,32,32H96V448H74.667z"/>
	</g>
</g>
<g>
	<g>
		<rect x="117.333" y="448" width="21.333" height="21.333"/>
	</g>
</g>
<g>
</g>
<g>
</g>
<g>
</g>
<g>
</g>
<g>
</g>
<g>
</g>
<g>
</g>
<g>
</g>
<g>
</g>
<g>
</g>
<g>
</g>
<g>
</g>
<g>
</g>
<g>
</g>
<g>
</g>
</svg>
