<?xml version="1.0" encoding="UTF-8" standalone="no"?>
<svg
   xmlns:dc="http://purl.org/dc/elements/1.1/"
   xmlns:cc="http://creativecommons.org/ns#"
   xmlns:rdf="http://www.w3.org/1999/02/22-rdf-syntax-ns#"
   xmlns:svg="http://www.w3.org/2000/svg"
   xmlns="http://www.w3.org/2000/svg"
   xmlns:sodipodi="http://sodipodi.sourceforge.net/DTD/sodipodi-0.dtd"
   xmlns:inkscape="http://www.inkscape.org/namespaces/inkscape"
   width="120px"
   height="120px"
   viewBox="0 0 120 120"
   version="1.1"
   id="svg3478"
   sodipodi:docname="cli-exit.svg"
   inkscape:version="0.92.3 (2405546, 2018-03-11)">
  <metadata
     id="metadata3482">
    <rdf:RDF>
      <cc:Work
         rdf:about="">
        <dc:format>image/svg+xml</dc:format>
        <dc:type
           rdf:resource="http://purl.org/dc/dcmitype/StillImage" />
      </cc:Work>
    </rdf:RDF>
  </metadata>
  <sodipodi:namedview
     pagecolor="#ffffff"
     bordercolor="#666666"
     borderopacity="1"
     objecttolerance="10"
     gridtolerance="10"
     guidetolerance="10"
     inkscape:pageopacity="0"
     inkscape:pageshadow="2"
     inkscape:window-width="1920"
     inkscape:window-height="1004"
     id="namedview3480"
     showgrid="false"
     inkscape:zoom="5.1504051"
     inkscape:cx="39.830197"
     inkscape:cy="62.742328"
     inkscape:window-x="0"
     inkscape:window-y="0"
     inkscape:window-maximized="1"
     inkscape:current-layer="cli-exit" />
  <!-- Generator: Sketch 50.2 (55047) - http://www.bohemiancoding.com/sketch -->
  <title
     id="title3470">cli-exit</title>
  <desc
     id="desc3472">Created with Sketch.</desc>
  <defs
     id="defs3474" />
  <g
     id="cli-exit"
     style="fill:none;fill-rule:evenodd;stroke:none;stroke-width:1">
    <g
       id="g4166"
       transform="translate(-237.07193,-217.432)">
      <g
         id="g4110">
	<path
   id="path4108"
   d="M 465.7,26.2 C 465.7,17 460.8,9.1 454.1,4.2 452.9,3.6 452.3,3 451,2.4 447.3,0.6 443,0 439.4,0 H 113.1 V 0 C 98.4,0 86.2,11.6 86.2,26.9 V 94.8 H 222.7 L 208.6,80.7 c -3.7,-3.7 -3.1,-9.2 0,-12.9 l 9.2,-9.2 c 1.8,-1.8 3.7,-2.4 6.1,-2.4 2.4,0 4.9,0.6 6.7,2.4 l 45.3,46 c 1.8,1.8 2.399,3.7 2.399,6.1 0,2.4 -1.199,4.9 -2.399,6.7 l -45.3,45.9 c -3.7,3.7 -9.2,3.7 -12.9,0 l -9.2,-9.2 c -3.7,-3.7 -3.7,-9.2 0,-12.9 l 14.7,-14.1 H 86.8 v 398.4 c 0,14.7 11.6,26.9 26.3,26.9 h 326.2 c 14.7,0 26.9,-11.601 26.9,-26.9 z M 352.4,170.7 c 18.399,0 33.7,15.3 33.7,33.7 0,18.4 -15.301,33 -33.7,33 -18.4,0 -33,-14.7 -33,-33 0,-18.3 14,-33.7 33,-33.7 z M 235,403.8 c -7.3,8.601 -12.2,11.601 -22,11 l -74.1,-1.199 C 129.7,413 122.4,403.8 123,395.901 c 0.6,-11 8,-17.101 18.4,-17.101 l 67.9,-0.6 15.9,-21.5 v 0 L 254,380 Z M 412.4,348.101 351.8,334.7 c -4.3,-1.2 -7.3,-4.3 -9.199,-8 L 328.5,295.5 c -1.2,1.2 -32.399,52.601 -32.399,52.601 l 35.5,26.899 c 11,9.2 12.199,17.7 8,29.4 l -36.7,84.5 c -3.101,8 -12.2,13.5 -21.4,10.399 -9.2,-3.1 -15.3,-13.5 -11,-22.6 l 31.8,-76.5 -47.7,-36.1 c -12.9,-8 -17.7,-23.301 -8.6,-38.601 l 42.8,-69.8 -31.2,-11 -56.3,28.2 c -7.3,4.3 -16.5,0.6 -20.2,-6.1 -3.1,-6.1 -0.6,-14.7 5.5,-18.4 l 58.8,-30.6 c 3.1,-1.8 6.1,-3.1 9.2,-3.1 3.1,0 6.1,0.6 8.6,1.2 l 49.6,15.9 c 1.801,0.6 3.101,1.2 4.301,2.4 L 344,254.4 c 3.7,2.4 4.9,6.7 6.101,9.8 l 13.5,42.2 54.5,14.1 c 7.3,1.8 11,8.601 11,15.3 C 428.3,342 419.8,350 412.4,348.101 Z"
   inkscape:connector-curvature="0" />

</g>
      <g
         id="g4112">
</g>
      <g
         id="g4114">
</g>
      <g
         id="g4116">
</g>
      <g
         id="g4118">
</g>
      <g
         id="g4120">
</g>
      <g
         id="g4122">
</g>
      <g
         id="g4124">
</g>
      <g
         id="g4126">
</g>
      <g
         id="g4128">
</g>
      <g
         id="g4130">
</g>
      <g
         id="g4132">
</g>
      <g
         id="g4134">
</g>
      <g
         id="g4136">
</g>
      <g
         id="g4138">
</g>
      <g
         id="g4140">
</g>
    </g>
    <g
       id="g4305"
       transform="matrix(0.21723389,0,0,0.21723389,113.47725,33.921777)"
       style="fill:#ffffff">
      <g
         id="g4249"
         style="fill:#ffffff">
	
<path
   style="fill:#ffffff"
   inkscape:connector-curvature="0"
   d="m -50.806919,-129.95325 c 0,-9.2 -4.9,-17.1 -11.6,-22 -1.2,-0.6 -1.8,-1.2 -3.1,-1.8 -3.7,-1.8 -8,-2.4 -11.6,-2.4 H -403.40692 v 0 c -14.7,0 -26.9,11.6 -26.9,26.9 v 67.899995 h 136.5 l -14.1,-14.1 c -3.7,-3.7 -3.1,-9.2 0,-12.9 l 9.2,-9.2 c 1.8,-1.8 3.7,-2.4 6.1,-2.4 2.4,0 4.9,0.6 6.7,2.4 l 45.3,46 c 1.8,1.8 2.399,3.7 2.399,6.1 0,2.4 -1.199,4.9 -2.399,6.7 l -45.3,45.9000003 c -3.7,3.6999997 -9.2,3.6999997 -12.9,0 l -9.2,-9.2 c -3.7,-3.7 -3.7,-9.2000003 0,-12.9000003 l 14.7,-14.1 h -136.4 V 369.34675 c 0,14.7 11.6,26.9 26.3,26.9 h 326.200001 c 14.7,0 26.9,-11.601 26.9,-26.9 z M -164.10692,14.546745 c 18.399,0 33.7,15.3 33.7,33.7 0,18.4 -15.301,33 -33.7,33 -18.4,0 -33,-14.7 -33,-33 0,-18.3 14,-33.7 33,-33.7 z m -117.4,233.100005 c -7.3,8.601 -12.2,11.601 -22,11 l -74.1,-1.199 c -9.2,-0.601 -16.5,-9.801 -15.9,-17.7 0.6,-11 8,-17.101 18.4,-17.101 l 67.9,-0.6 15.9,-21.5 v 0 l 28.8,23.3 z m 177.4,-55.699 -60.6,-13.401 c -4.3,-1.2 -7.3,-4.3 -9.199,-8 l -14.101,-31.2 c -1.2,1.2 -32.399,52.601 -32.399,52.601 l 35.5,26.899 c 11,9.2 12.199,17.7 8,29.4 l -36.7,84.5 c -3.101,8 -12.2,13.5 -21.4,10.399 -9.2,-3.1 -15.3,-13.5 -11,-22.6 l 31.8,-76.5 -47.7,-36.1 c -12.9,-8 -17.7,-23.301 -8.6,-38.601 l 42.8,-69.800005 -31.2,-11 -56.3,28.200005 c -7.3,4.3 -16.5,0.6 -20.2,-6.1 -3.1,-6.1 -0.6,-14.700005 5.5,-18.400005 l 58.8,-30.6 c 3.1,-1.8 6.1,-3.1 9.2,-3.1 3.1,0 6.1,0.6 8.6,1.2 l 49.6,15.9 c 1.801,0.6 3.101,1.2 4.301,2.4 l 26.898,20.202 c 3.7,2.400005 4.9,6.700005 6.101,9.800005 l 13.5,42.2 54.500001,14.1 c 7.3,1.8 11,8.601 11,15.3 -0.801,6.2 -9.301,14.2 -16.701001,12.301 z"
   id="path4316" />
</g>
      <g
         id="g4251"
         style="fill:#ffffff">
</g>
      <g
         id="g4253"
         style="fill:#ffffff">
</g>
      <g
         id="g4255"
         style="fill:#ffffff">
</g>
      <g
         id="g4257"
         style="fill:#ffffff">
</g>
      <g
         id="g4259"
         style="fill:#ffffff">
</g>
      <g
         id="g4261"
         style="fill:#ffffff">
</g>
      <g
         id="g4263"
         style="fill:#ffffff">
</g>
      <g
         id="g4265"
         style="fill:#ffffff">
</g>
      <g
         id="g4267"
         style="fill:#ffffff">
</g>
      <g
         id="g4269"
         style="fill:#ffffff">
</g>
      <g
         id="g4271"
         style="fill:#ffffff">
</g>
      <g
         id="g4273"
         style="fill:#ffffff">
</g>
      <g
         id="g4275"
         style="fill:#ffffff">
</g>
      <g
         id="g4277"
         style="fill:#ffffff">
</g>
      <g
         id="g4279"
         style="fill:#ffffff">
</g>
    </g>
  </g>
</svg>
