<svg height="120" width="120" enable-background="new 0 0 512 512" viewBox="0 0 512 512" xmlns="http://www.w3.org/2000/svg"><g fill="#fff"><path d="m492.522 118.3-226.089-114.557-.093-.047c-10.068-5.012-22.029-4.9-32.002.3-.785.332-214.721 113.878-215.442 114.342-11.656 6.102-18.896 18.06-18.896 31.221v212.881c0 13.161 7.24 25.118 18.896 31.221l215.345 114.292.097.051c5.086 2.652 10.691 3.981 16.297 3.981 5.385 0 10.772-1.226 15.705-3.682l226.182-114.604c12.017-6.009 19.478-18.081 19.478-31.519v-212.36c0-13.439-7.462-25.511-19.478-31.52zm-244.285-87.73c1.469-.754 3.224-.769 4.705-.042l211.629 107.229-82.365 41.006-206.898-109.487zm-12.813 444.061-202.514-107.483-.097-.051c-1.741-.909-2.824-2.692-2.824-4.656v-199.349l205.435 107.124zm15.153-230.336-204.305-106.535 97.024-51.493 205.875 108.945zm231.433 117.886c0 2.004-1.116 3.806-2.912 4.7l-213.684 108.271v-204.743l98.386-48.981v51.355c0 8.281 6.714 14.995 14.995 14.995s14.995-6.714 14.995-14.995v-66.285l88.22-43.92z"/><path d="m181.277 294.419c-4.19-7.144-13.378-9.536-20.521-5.346l-46.437 27.244-9.751-17.666c-4.002-7.25-13.125-9.884-20.374-5.882-7.25 4.002-9.884 13.124-5.882 20.374l17.189 31.143c.04.073.086.14.127.212.024.043.043.087.068.13.057.098.121.189.18.285.089.145.179.29.273.431.095.143.193.282.292.42.1.14.2.28.304.416.103.134.21.264.316.394.108.131.215.262.326.388.112.127.227.249.343.371.113.12.226.241.343.357.122.121.248.237.373.353.117.108.233.217.352.321.133.116.271.226.408.337.118.095.235.192.356.284.144.109.291.212.438.315.121.085.24.171.363.252.152.1.308.194.464.289.123.075.245.152.37.223.16.091.324.175.487.26.125.065.249.133.376.195.166.081.336.154.505.229.129.057.256.117.386.17.168.069.34.129.51.192.135.049.268.102.404.148.169.057.341.105.511.155.14.042.279.087.421.124.168.044.338.08.507.118.147.034.294.072.442.101.161.032.324.054.486.081.159.026.316.056.476.077.153.02.306.03.46.046.17.017.34.038.51.049.135.009.27.008.405.013.188.007.375.019.563.019.317 0 .634-.011.951-.031.081-.005.162-.016.243-.023.233-.019.466-.038.699-.068.12-.015.239-.038.358-.056.194-.03.387-.058.58-.095.138-.027.276-.061.414-.092.173-.039.346-.076.518-.121.149-.039.296-.084.444-.128.161-.047.321-.093.481-.146.152-.05.302-.107.453-.162.155-.057.31-.113.464-.176.151-.061.3-.128.45-.194.152-.068.305-.136.456-.209.146-.071.29-.146.434-.222.096-.05.194-.095.289-.148.04-.022.076-.05.117-.072.075-.042.151-.078.225-.122l59.715-35.033c7.137-4.193 9.531-13.381 5.34-20.524z"/></g></svg>
