<?xml version="1.0" encoding="UTF-8"?>
<svg width="120px" height="120px" viewBox="0 0 120 120" version="1.1" xmlns="http://www.w3.org/2000/svg" xmlns:xlink="http://www.w3.org/1999/xlink">
    <!-- Generator: Sketch 50.2 (55047) - http://www.bohemiancoding.com/sketch -->
    <title>cli-man</title>
    <desc>Created with Sketch.</desc>
    <defs></defs>
    <g id="cli-man" stroke="none" stroke-width="1" fill="none" fill-rule="evenodd">
        <path d="M118.139999,29.0642945 C117.132959,27.7273248 115.714523,26.7016457 113.886203,25.9852507 C113.983878,27.65709 113.864497,29.0178894 113.527808,30.0691539 L91.9105272,100.752712 C91.5253787,101.993861 90.6841598,102.984423 89.3886373,103.724648 C88.0910957,104.465374 86.746357,104.835361 85.3531592,104.835361 L18.8436139,104.835361 C13.0790057,104.835361 9.62074563,103.166783 8.46731921,99.8223515 C7.98701933,98.5330411 8.01124885,97.5073621 8.54000779,96.7433077 C9.06800955,96.0266619 9.98065505,95.6677118 11.2784491,95.6677118 L73.8971362,95.6677118 C78.36496,95.6677118 81.4511959,94.843707 83.1568536,93.1964499 C84.8637732,91.5491929 86.5805361,87.8844409 88.308909,82.2036992 L108.052944,17.3195296 C109.109453,13.7867188 108.677359,10.6830928 106.755403,8.01015668 C104.833446,5.33722057 102.095762,4 98.5405837,4 L43.7048748,4 C43.0804597,4 41.8551019,4.21421616 40.0295585,4.64415352 L40.1012375,4.42868317 C38.755994,4.14272716 37.6149347,4.01178941 36.6783121,4.03461573 C35.7419419,4.05944875 34.8769982,4.33361534 34.0844908,4.85962388 C33.2919834,5.38487991 32.6549488,5.94525334 32.1749013,6.54174752 C31.6946014,7.13874339 31.2256591,7.90279776 30.7695887,8.83340896 C30.3140232,9.76527436 29.929127,10.6248982 29.6169195,11.4125314 C29.3047119,12.2001646 28.9440454,13.0362097 28.536434,13.9204158 C28.1275608,14.8036185 27.7323166,15.5315521 27.3476729,16.1042166 C27.0591901,16.4862438 26.6515788,16.9874193 26.1225675,17.6082448 C25.5948181,18.2288195 25.1622201,18.7781561 24.8260354,19.2555019 C24.4901031,19.7328478 24.2732993,20.1625343 24.1778956,20.5448123 C24.0824918,20.9739972 24.1299413,21.6066121 24.3220108,22.4426572 C24.5138279,23.277448 24.5862641,23.8857316 24.5375526,24.2680096 C24.3457355,26.0820744 23.6849762,28.3852744 22.5565364,31.1791147 C21.4280967,33.9724534 20.406166,35.9901991 19.4937729,37.2308468 C19.3017034,37.4691434 18.7737016,38.0064397 17.908758,38.8422339 C17.0438144,39.6775265 16.5155602,40.4049584 16.3239956,41.0255331 C16.1316737,41.2640806 16.1195589,41.9328163 16.2876513,43.0307368 C16.4557436,44.1294099 16.5165698,44.8927118 16.4681108,45.3223983 C16.2750317,46.9460765 15.6756033,49.0942583 14.6662921,51.7681978 C13.6569809,54.4413847 12.6486793,56.6379783 11.639368,58.3564736 C11.4957576,58.6426804 11.0878939,59.1912644 10.414515,60.0037307 C9.74265043,60.8156952 9.33352478,61.4841801 9.18966197,62.0079311 C9.09375343,62.3899582 9.10637297,63.0584431 9.22600626,64.0131348 C9.34538715,64.9678265 9.33352478,65.6837199 9.18966197,66.1608149 C8.80577541,67.9738763 8.084947,70.1591822 7.02793391,72.7139733 C5.97117321,75.2670086 4.89018298,77.4538195 3.78445845,79.2661284 C3.4972376,79.7442267 3.09997432,80.3058543 2.59620209,80.9495062 C2.09167268,81.593158 1.69567135,82.1547857 1.40718856,82.6318807 C1.11921054,83.1092265 0.926888672,83.610402 0.830727739,84.1359089 C0.782773467,84.4226174 0.855462047,84.887923 1.04753152,85.5333307 C1.23934861,86.1769826 1.31178479,86.6901984 1.26307335,87.0734797 C1.2146143,87.7412121 1.11921054,88.6254182 0.975095334,89.7240912 C0.830727739,90.8210084 0.75829155,91.4646603 0.75829155,91.6552976 C-0.29846915,94.5208778 -0.251019661,97.5527639 0.902659145,100.752963 C2.24790264,104.474906 4.6372873,107.615907 8.07207506,110.169695 C11.5071152,112.724486 15.0733986,114 18.7729445,114 L85.2832469,114 C88.4045652,114 91.3471907,112.961277 94.1096091,110.885588 C96.8717751,108.808394 98.709938,106.243318 99.6210692,103.185846 L119.436531,38.3034326 C120.494554,34.8649371 120.062713,31.7856425 118.139999,29.0642945 Z" id="Shape" fill="#000000" fill-rule="nonzero"></path>
        <path d="M36.2918852,29.6565066 L36.785543,27.7912042 L43.8667833,27.7912042 L43.3731255,29.6565066 L36.2918852,29.6565066 Z M44.9275441,29.6565066 L45.4212019,27.7912042 L52.5024422,27.7912042 L52.0087844,29.6565066 L44.9275441,29.6565066 Z M52.1416513,35.0278864 L55.501267,22.3334678 L57.5738252,22.3334678 L56.3351097,27.0139949 C56.7126875,26.587967 57.1204049,26.2655723 57.5582742,26.0468011 C57.9585534,25.8395443 58.394729,25.7359174 58.8668141,25.7359174 C59.3388991,25.7359174 59.7259814,25.8395443 60.0280727,26.0468011 C60.3586121,26.2770865 60.5968703,26.6167524 60.7428543,27.0658089 C60.9545496,27.7451508 60.9202227,28.6144651 60.6398724,29.6737779 L59.2228916,35.0278864 L57.1503335,35.0278864 L58.5673142,29.6737779 C58.7166312,29.1095787 58.734894,28.6490148 58.622103,28.2920725 C58.5448775,28.0617871 58.4193982,27.8833186 58.2456615,27.7566616 C58.0888588,27.6530332 57.8895606,27.6012197 57.6477609,27.6012197 C57.4059613,27.6012197 57.1792379,27.6530332 56.967584,27.7566616 C56.726807,27.8833186 56.5068633,28.0617871 56.3077464,28.2920725 C56.0060237,28.6490148 55.7805072,29.1095787 55.6311902,29.6737779 L54.2142094,35.0278864 L52.1416513,35.0278864 Z M64.4022623,35.1660569 C63.6077777,35.1660569 62.972631,34.9991025 62.4968031,34.6651887 C62.0578904,34.3658177 61.757317,33.9570673 61.5950738,33.4389252 C61.3996376,32.8286689 61.4161925,32.0917667 61.6447389,31.2281965 L62.0561204,29.6737779 C62.2907614,28.7871791 62.6688242,28.0330058 63.1903199,27.4112352 C63.6268188,26.8930931 64.1364656,26.4900997 64.7192756,26.202243 C65.342723,25.8913577 66.0286501,25.7359174 66.7770776,25.7359174 C67.5255051,25.7359174 68.1291568,25.8913577 68.5880508,26.202243 C69.0184965,26.4900997 69.3148365,26.8930931 69.4770796,27.4112352 C69.6694685,28.0330058 69.6483428,28.7871791 69.4137018,29.6737779 L68.9611821,31.3836383 L63.6761589,31.3836383 C63.5833906,31.8211806 63.5837487,32.1896317 63.6772333,32.4890027 C63.7568313,32.7538309 63.8992442,32.9553276 64.1044764,33.0934988 C64.3097087,33.23167 64.5735206,33.3007546 64.8959201,33.3007546 C65.2413482,33.3007546 65.5605218,33.225913 65.8534504,33.0762275 C66.1318175,32.9380562 66.3793602,32.7423166 66.596086,32.4890027 C66.7017391,32.3508314 66.7958764,32.2126623 66.878501,32.074491 L68.6082101,32.7826151 C68.4666645,33.0129005 68.3108971,33.2316683 68.1409033,33.4389252 C67.7044044,33.9570673 67.187477,34.3658177 66.5901054,34.6651887 C65.9260206,34.9991025 65.1967469,35.1660569 64.4022623,35.1660569 Z M64.1698167,29.518336 L67.3822818,29.518336 C67.4811447,29.0577652 67.4853574,28.672043 67.3949201,28.3611577 C67.3007606,28.1078438 67.1610575,27.9178612 66.9758065,27.7912042 C66.8020698,27.6645473 66.5712765,27.6012197 66.2834198,27.6012197 C65.9955631,27.6012197 65.7312502,27.6645473 65.4904732,27.7912042 C65.2381819,27.9178612 64.9979199,28.1078438 64.7696798,28.3611577 C64.514689,28.672043 64.3147367,29.0577652 64.1698167,29.518336 Z M69.9311086,35.0278864 L70.4247664,33.1625841 L72.5318672,33.1625841 L74.9041673,24.1987701 L73.038865,24.1987701 L73.5325228,22.3334678 L77.4703832,22.3334678 L74.6044253,33.1625841 L76.4697277,33.1625841 L75.9760698,35.0278864 L69.9311086,35.0278864 Z M77.1115923,38.5685065 L80.471208,25.874088 L82.5437662,25.874088 L82.2420864,27.0139949 C82.6196641,26.587967 83.0273816,26.2655723 83.4652509,26.0468011 C83.8655301,25.8395443 84.3074628,25.7359174 84.7910621,25.7359174 C85.2861757,25.7359174 85.7005196,25.8453013 86.0341063,26.0640725 C86.384627,26.3058721 86.6298284,26.6628091 86.7697179,27.1348942 C86.9844605,27.8027218 86.956228,28.6490079 86.6850196,29.6737779 L86.2736381,31.2281965 C86.0024296,32.2529665 85.5827179,33.0992526 85.0144901,33.7670802 C84.6247232,34.2391652 84.1905929,34.5961022 83.7120862,34.8379019 C83.2627026,35.056673 82.7904611,35.1660569 82.2953475,35.1660569 C81.8117482,35.1660569 81.4246659,35.0624301 81.134089,34.8551732 C80.8120165,34.6364021 80.5749445,34.3140074 80.4228659,33.8879794 L79.1841504,38.5685065 L77.1115923,38.5685065 Z M82.06361,33.3007546 C82.3399525,33.3007546 82.5985083,33.2374271 82.8392853,33.1107701 C83.0915766,32.9841131 83.3318386,32.7941306 83.5600787,32.5408166 C83.8502871,32.1838743 84.0639521,31.7463386 84.2010799,31.2281965 L84.6124615,29.6737779 C84.7495893,29.1556357 84.7675146,28.7181001 84.6662379,28.3611577 C84.5720784,28.1078438 84.4323753,27.9178612 84.2471243,27.7912042 C84.0733876,27.6645473 83.8483514,27.6012197 83.5720089,27.6012197 C83.318695,27.6012197 83.0862146,27.6530332 82.8745607,27.7566616 C82.6337837,27.8833186 82.41384,28.0617871 82.2147231,28.2920725 C81.9130004,28.6490148 81.6874839,29.1095787 81.5381669,29.6737779 L81.1267854,31.2281965 C80.9774684,31.7923957 80.9592056,32.2529595 81.0719966,32.6099019 C81.1492222,32.8401873 81.2747014,33.0186558 81.4484381,33.1453127 C81.6052408,33.2489412 81.8102961,33.3007546 82.06361,33.3007546 Z" id="--help-copy" fill="#FFFFFF"></path>
    </g>
</svg>