<svg enable-background="new 0 0 512 512" height="120" viewBox="0 0 512 512" width="120" xmlns="http://www.w3.org/2000/svg"><path d="m426.667 247.467h-25.822c29.498-21.943 41.599-60.329 30.018-95.222s-44.232-58.426-80.996-58.378h-187.734c-36.764-.048-69.416 23.485-80.996 58.378-11.581 34.893.52 73.279 30.018 95.222h-25.822c-47.128 0-85.333 38.205-85.333 85.333s38.205 85.333 85.333 85.333h341.333c47.128 0 85.333-38.205 85.333-85.333s-38.204-85.333-85.332-85.333zm-76.8-136.534c16.582.003 32.59 6.073 45.005 17.067h-45.005c-4.713 0-8.533 3.82-8.533 8.533s3.82 8.533 8.533 8.533h59.025c4.575 7.865 7.518 16.572 8.653 25.6h-50.611c-4.713 0-8.533 3.82-8.533 8.533s3.82 8.533 8.533 8.533h50.611c-1.135 9.028-4.078 17.735-8.653 25.6h-59.025c-4.713 0-8.533 3.82-8.533 8.533s3.82 8.533 8.533 8.533h45.005c-12.414 10.994-28.422 17.064-45.005 17.067h-136.755c6.483-4.855 12.249-10.6 17.126-17.067h85.495c4.713 0 8.533-3.82 8.533-8.533s-3.82-8.533-8.533-8.533h-75.443c3.579-8.126 5.854-16.765 6.741-25.6h85.769c4.713 0 8.533-3.82 8.533-8.533s-3.821-8.533-8.533-8.533h-85.768c-.887-8.835-3.162-17.474-6.741-25.6h75.443c4.713 0 8.533-3.82 8.533-8.533s-3.82-8.533-8.533-8.533h-85.495c-4.878-6.466-10.643-12.212-17.126-17.067zm-256 68.267c-.048-29.98 19.47-56.482 48.113-65.333s59.709 2.022 76.582 26.803 15.603 57.67-3.129 81.077c-23.131 15.862-54.216 13.326-74.47-6.076-8.296-7.959-12.986-18.959-12.986-30.455 0-11.497 4.69-22.496 12.986-30.456 13.458-12.887 34.679-12.887 48.137 0 4.689 4.538 7.336 10.784 7.336 17.31 0 6.525-2.647 12.772-7.336 17.31-7.45 7.113-19.174 7.113-26.624 0-3.388-3.278-8.793-3.188-12.07.201-3.278 3.388-3.188 8.793.201 12.07 14.108 13.457 36.299 13.457 50.406 0 7.982-7.753 12.485-18.407 12.485-29.534s-4.504-21.781-12.485-29.534c-20.117-19.287-51.862-19.287-71.979 0-11.58 11.174-18.122 26.575-18.122 42.667s6.541 31.493 18.122 42.667c10.09 9.749 22.715 16.47 36.437 19.396-1.118.06-2.219.171-3.345.171-37.69-.047-68.226-30.596-68.259-68.284zm94.088 85.333c-10.989 8.223-19.844 18.963-25.822 31.317-5.978-12.354-14.833-23.094-25.822-31.317h25.822zm-114.15 90.718c14.108 13.457 36.299 13.457 50.406 0 7.982-7.753 12.485-18.407 12.485-29.534s-4.504-21.781-12.485-29.534c-20.117-19.287-51.862-19.287-71.979 0-11.58 11.174-18.122 26.575-18.122 42.667s6.541 31.493 18.122 42.667c10.09 9.749 22.715 16.47 36.437 19.396-1.118.06-2.219.171-3.345.171-37.703 0-68.267-30.564-68.267-68.267s30.564-68.267 68.267-68.267l.008-.017c26.232-.028 50.154 14.994 61.524 38.633s8.172 51.705-8.225 72.181c-23.131 15.862-54.217 13.326-74.47-6.076-8.296-7.959-12.986-18.959-12.986-30.455 0-11.497 4.69-22.496 12.986-30.455 13.458-12.887 34.679-12.887 48.137 0 4.689 4.538 7.336 10.784 7.336 17.31 0 6.525-2.647 12.772-7.336 17.31-7.448 7.117-19.176 7.117-26.624 0-3.389-3.278-8.793-3.188-12.07.201-3.278 3.387-3.188 8.792.201 12.069zm62.506 45.816c10.989-8.223 19.844-18.963 25.822-31.317 5.978 12.354 14.833 23.094 25.822 31.317zm91.094-45.816c14.108 13.457 36.299 13.457 50.406 0 7.982-7.753 12.485-18.407 12.485-29.534s-4.504-21.781-12.485-29.534c-20.117-19.287-51.862-19.287-71.979 0-11.58 11.174-18.121 26.575-18.121 42.667s6.541 31.493 18.121 42.667c10.09 9.749 22.715 16.47 36.437 19.396-1.118.06-2.219.171-3.345.171-37.703 0-68.267-30.564-68.267-68.267s30.564-68.267 68.267-68.267l.009-.017c26.232-.028 50.154 14.994 61.524 38.633s8.172 51.705-8.225 72.181c-23.131 15.862-54.216 13.326-74.47-6.076-8.296-7.959-12.986-18.959-12.986-30.455 0-11.497 4.69-22.496 12.986-30.455 13.458-12.887 34.679-12.887 48.137 0 4.689 4.538 7.336 10.784 7.336 17.31 0 6.525-2.647 12.772-7.336 17.31-7.448 7.117-19.176 7.117-26.624 0-3.388-3.278-8.793-3.188-12.07.201-3.278 3.387-3.189 8.792.2 12.069zm258.287 11.682h-59.025c-4.713 0-8.533 3.82-8.533 8.533s3.82 8.533 8.533 8.533h45.005c-12.414 10.994-28.422 17.064-45.005 17.067h-136.756c6.483-4.855 12.249-10.6 17.126-17.067h85.495c4.713 0 8.533-3.82 8.533-8.533s-3.821-8.533-8.533-8.533h-75.442c3.579-8.126 5.854-16.765 6.741-25.6h85.769c4.713 0 8.533-3.82 8.533-8.533s-3.82-8.533-8.533-8.533h-85.769c-.887-8.835-3.162-17.474-6.741-25.6h75.443c4.713 0 8.533-3.821 8.533-8.533 0-4.713-3.821-8.533-8.533-8.533h-85.495c-4.878-6.466-10.643-12.212-17.126-17.067h136.755c16.582.003 32.59 6.073 45.005 17.067h-45.005c-4.713 0-8.533 3.821-8.533 8.533 0 4.713 3.82 8.533 8.533 8.533h59.025c4.575 7.865 7.518 16.572 8.653 25.6h-50.611c-4.713 0-8.533 3.82-8.533 8.533s3.82 8.533 8.533 8.533h50.611c-1.135 9.028-4.078 17.735-8.653 25.6z" fill="#fff"/></svg>