<?xml version="1.0" encoding="iso-8859-1"?>
<!-- Generator: Adobe Illustrator 19.0.0, SVG Export Plug-In . SVG Version: 6.00 Build 0)  -->
<svg version="1.1" id="Capa_1" xmlns="http://www.w3.org/2000/svg" xmlns:xlink="http://www.w3.org/1999/xlink" x="0px" y="0px"
	 viewBox="0 0 496 496" style="enable-background:new 0 0 496 496;" xml:space="preserve">
<g>
	<g>
		<path fill="#ffffff" d="M424,96H272V80h24c4.418,0,8-3.582,8-8V40c0-4.418-3.582-8-8-8h-24V8c0-4.418-3.582-8-8-8h-32c-4.418,0-8,3.582-8,8v24
			h-24c-4.418,0-8,3.582-8,8v32c0,4.418,3.582,8,8,8h24v16H72c-39.746,0.044-71.956,32.254-72,72v320c0,4.418,3.582,8,8,8h64
			c4.418,0,8-3.582,8-8V184c0-4.418,3.582-8,8-8h320c4.418,0,8,3.582,8,8v96c0,4.418-3.582,8-8,8h-28.176
			c-22.047-33.04-66.704-41.951-99.744-19.904c-7.881,5.259-14.645,12.023-19.904,19.904H184c-39.746,0.044-71.956,32.254-72,72v128
			c0,4.418,3.582,8,8,8h64c4.418,0,8-3.582,8-8V376c0-4.418,3.582-8,8-8h60.176c22.047,33.04,66.704,41.951,99.744,19.904
			c7.881-5.259,14.645-12.023,19.904-19.904H424c39.746-0.044,71.956-32.254,72-72V168C495.956,128.254,463.746,96.044,424,96z
			 M240,16h16v16h-16V16z M208,64V48h80v16H208z M256,80v16h-16V80H256z M64,480H16v-16h48V480z M176,128h-64v16h64v16H88
			c-13.255,0-24,10.745-24,24v264H16V168c0.035-30.913,25.087-55.965,56-56h104V128z M208,160h-16v-48h16V160z M272,160h-48v-48h48
			V160z M176,480h-48v-16h48V480z M216,352h-16c-13.255,0-24,10.745-24,24v72h-48v-88c0.04-30.911,25.089-55.96,56-56h32V352z
			 M252.2,352H232v-48h20.2C246.6,319.51,246.6,336.49,252.2,352z M312,272.64v16.16c-15.698,3.236-27.964,15.502-31.2,31.2h-16.16
			C268.206,295.472,287.472,276.206,312,272.64z M312,383.36c-24.528-3.566-43.794-22.832-47.36-47.36h16.16
			c3.236,15.698,15.502,27.964,31.2,31.2V383.36z M296,328c0-13.255,10.745-24,24-24s24,10.745,24,24s-10.745,24-24,24
			S296,341.255,296,328z M328,383.36V367.2c15.698-3.236,27.964-15.502,31.2-31.2h16.16C371.794,360.528,352.528,379.794,328,383.36
			z M359.2,320c-3.236-15.698-15.502-27.964-31.2-31.2v-16.16c24.528,3.566,43.794,22.832,47.36,47.36H359.2z M408,352h-20.2
			c5.6-15.51,5.6-32.49,0-48H408V352z M304,160h-16v-48h16V160z M480,296c-0.04,30.911-25.089,55.96-56,56v-54.24
			c5.07-4.514,7.979-10.972,8-17.76v-96c0-13.255-10.745-24-24-24h-88v-16h64v-16h-64v-16h104c30.913,0.035,55.965,25.087,56,56V296
			z"/>
	</g>
</g>
</svg>
