<?xml version="1.0" encoding="UTF-8" standalone="no"?>
<!-- Generator: Adobe Illustrator 16.0.0, SVG Export Plug-In . SVG Version: 6.00 Build 0)  -->

<svg
   xmlns:dc="http://purl.org/dc/elements/1.1/"
   xmlns:cc="http://creativecommons.org/ns#"
   xmlns:rdf="http://www.w3.org/1999/02/22-rdf-syntax-ns#"
   xmlns:svg="http://www.w3.org/2000/svg"
   xmlns="http://www.w3.org/2000/svg"
   xmlns:sodipodi="http://sodipodi.sourceforge.net/DTD/sodipodi-0.dtd"
   xmlns:inkscape="http://www.inkscape.org/namespaces/inkscape"
   version="1.1"
   id="Capa_1"
   x="0px"
   y="0px"
   width="552.4px"
   height="552.4px"
   viewBox="0 0 552.4 552.4"
   style="enable-background:new 0 0 552.4 552.4;"
   xml:space="preserve"
   sodipodi:docname="emergency-exit.svg"
   inkscape:version="0.92.3 (2405546, 2018-03-11)"><metadata
   id="metadata41"><rdf:RDF><cc:Work
       rdf:about=""><dc:format>image/svg+xml</dc:format><dc:type
         rdf:resource="http://purl.org/dc/dcmitype/StillImage" /></cc:Work></rdf:RDF></metadata><defs
   id="defs39" /><sodipodi:namedview
   pagecolor="#ffffff"
   bordercolor="#666666"
   borderopacity="1"
   objecttolerance="10"
   gridtolerance="10"
   guidetolerance="10"
   inkscape:pageopacity="0"
   inkscape:pageshadow="2"
   inkscape:window-width="1920"
   inkscape:window-height="1004"
   id="namedview37"
   showgrid="false"
   inkscape:zoom="1.1188425"
   inkscape:cx="111.53268"
   inkscape:cy="318.8193"
   inkscape:window-x="0"
   inkscape:window-y="0"
   inkscape:window-maximized="1"
   inkscape:current-layer="g4" />
<g
   id="g4">
	<path
   d="M 465.7,26.2 C 465.7,17 460.8,9.1 454.1,4.2 452.9,3.6 452.3,3 451,2.4 447.3,0.6 443,0 439.4,0 H 113.1 V 0 C 98.4,0 86.2,11.6 86.2,26.9 l 0.6,498.6 c 0,14.7 11.6,26.9 26.3,26.9 h 326.2 c 14.7,0 26.9,-11.601 26.9,-26.9 z M 352.4,170.7 c 18.399,0 33.7,15.3 33.7,33.7 0,18.4 -15.301,33 -33.7,33 -18.4,0 -33,-14.7 -33,-33 0,-18.3 14,-33.7 33,-33.7 z M 235,403.8 c -7.3,8.601 -12.2,11.601 -22,11 l -74.1,-1.199 C 129.7,413 122.4,403.8 123,395.901 c 0.6,-11 8,-17.101 18.4,-17.101 l 67.9,-0.6 15.9,-21.5 v 0 L 254,380 Z M 412.4,348.101 351.8,334.7 c -4.3,-1.2 -7.3,-4.3 -9.199,-8 L 328.5,295.5 c -1.2,1.2 -32.399,52.601 -32.399,52.601 l 35.5,26.899 c 11,9.2 12.199,17.7 8,29.4 l -36.7,84.5 c -3.101,8 -12.2,13.5 -21.4,10.399 -9.2,-3.1 -15.3,-13.5 -11,-22.6 l 31.8,-76.5 -47.7,-36.1 c -12.9,-8 -17.7,-23.301 -8.6,-38.601 l 42.8,-69.8 -31.2,-11 -56.3,28.2 c -7.3,4.3 -16.5,0.6 -20.2,-6.1 -3.1,-6.1 -0.6,-14.7 5.5,-18.4 l 58.8,-30.6 c 3.1,-1.8 6.1,-3.1 9.2,-3.1 3.1,0 6.1,0.6 8.6,1.2 l 49.6,15.9 c 1.801,0.6 3.101,1.2 4.301,2.4 L 344,254.4 c 3.7,2.4 4.9,6.7 6.101,9.8 l 13.5,42.2 54.5,14.1 c 7.3,1.8 11,8.601 11,15.3 C 428.3,342 419.8,350 412.4,348.101 Z"
   id="path2"
   inkscape:connector-curvature="0"
   sodipodi:nodetypes="cccsccccssccssssscccccccccccccccccccccccccccccsccccccccc" />
<text
   xml:space="preserve"
   style="font-style:normal;font-variant:normal;font-weight:normal;font-stretch:normal;font-size:19.86301422px;line-height:1.25;font-family:Iosevka;-inkscape-font-specification:Iosevka;letter-spacing:0px;word-spacing:0px;fill:#000000;fill-opacity:1;stroke:none;stroke-width:1.48972607"
   x="113.04367"
   y="143.07857"
   id="text850"><tspan
     sodipodi:role="line"
     id="tspan848"
     x="113.04367"
     y="143.07857"
     style="font-style:normal;font-variant:normal;font-weight:500;font-stretch:normal;font-size:143.01370239px;font-family:Inconsolata;-inkscape-font-specification:'Inconsolata Medium';fill:#ffffff;fill-opacity:1;stroke-width:1.48972607">$?</tspan></text>
</g>
<g
   id="g6">
</g>
<g
   id="g8">
</g>
<g
   id="g10">
</g>
<g
   id="g12">
</g>
<g
   id="g14">
</g>
<g
   id="g16">
</g>
<g
   id="g18">
</g>
<g
   id="g20">
</g>
<g
   id="g22">
</g>
<g
   id="g24">
</g>
<g
   id="g26">
</g>
<g
   id="g28">
</g>
<g
   id="g30">
</g>
<g
   id="g32">
</g>
<g
   id="g34">
</g>
</svg>