<?xml version="1.0" encoding="iso-8859-1"?>
<!-- Generator: Adobe Illustrator 19.0.0, SVG Export Plug-In . SVG Version: 6.00 Build 0)  -->
<svg version="1.1" id="Capa_1" xmlns="http://www.w3.org/2000/svg" xmlns:xlink="http://www.w3.org/1999/xlink" x="0px" y="0px"
	 viewBox="0 0 512 512" style="enable-background:new 0 0 512 512;" xml:space="preserve">
<g>
	<g>
		<path d="M492.522,118.3L266.433,3.743l-0.093-0.047c-10.068-5.012-22.029-4.9-32.002,0.3
			C233.553,4.328,19.617,117.874,18.896,118.338C7.24,124.44,0,136.398,0,149.559V362.44c0,13.161,7.24,25.118,18.896,31.221
			l215.345,114.292l0.097,0.051c5.086,2.652,10.691,3.981,16.297,3.981c5.385,0,10.772-1.226,15.705-3.682l226.182-114.604
			C504.539,387.69,512,375.618,512,362.18V149.82C512,136.381,504.538,124.309,492.522,118.3z M248.237,30.57
			c1.469-0.754,3.224-0.769,4.705-0.042l211.629,107.229l-82.365,41.006L175.308,69.276L248.237,30.57z M235.424,474.631
			L32.91,367.148l-0.097-0.051c-1.741-0.909-2.824-2.692-2.824-4.656V163.092l205.435,107.124V474.631z M250.577,244.295
			L46.272,137.76l97.024-51.493l205.875,108.945L250.577,244.295z M482.01,362.181c0,2.004-1.116,3.806-2.912,4.7L265.414,475.152
			V270.409l98.386-48.981v51.355c0,8.281,6.714,14.995,14.995,14.995s14.995-6.714,14.995-14.995v-66.285l88.22-43.92V362.181z"/>
	</g>
</g>
<g>
	<g>
		<path d="M181.277,294.419c-4.19-7.144-13.378-9.536-20.521-5.346l-46.437,27.244l-9.751-17.666
			c-4.002-7.25-13.125-9.884-20.374-5.882c-7.25,4.002-9.884,13.124-5.882,20.374l17.189,31.143c0.04,0.073,0.086,0.14,0.127,0.212
			c0.024,0.043,0.043,0.087,0.068,0.13c0.057,0.098,0.121,0.189,0.18,0.285c0.089,0.145,0.179,0.29,0.273,0.431
			c0.095,0.143,0.193,0.282,0.292,0.42c0.1,0.14,0.2,0.28,0.304,0.416c0.103,0.134,0.21,0.264,0.316,0.394
			c0.108,0.131,0.215,0.262,0.326,0.388c0.112,0.127,0.227,0.249,0.343,0.371c0.113,0.12,0.226,0.241,0.343,0.357
			c0.122,0.121,0.248,0.237,0.373,0.353c0.117,0.108,0.233,0.217,0.352,0.321c0.133,0.116,0.271,0.226,0.408,0.337
			c0.118,0.095,0.235,0.192,0.356,0.284c0.144,0.109,0.291,0.212,0.438,0.315c0.121,0.085,0.24,0.171,0.363,0.252
			c0.152,0.1,0.308,0.194,0.464,0.289c0.123,0.075,0.245,0.152,0.37,0.223c0.16,0.091,0.324,0.175,0.487,0.26
			c0.125,0.065,0.249,0.133,0.376,0.195c0.166,0.081,0.336,0.154,0.505,0.229c0.129,0.057,0.256,0.117,0.386,0.17
			c0.168,0.069,0.34,0.129,0.51,0.192c0.135,0.049,0.268,0.102,0.404,0.148c0.169,0.057,0.341,0.105,0.511,0.155
			c0.14,0.042,0.279,0.087,0.421,0.124c0.168,0.044,0.338,0.08,0.507,0.118c0.147,0.034,0.294,0.072,0.442,0.101
			c0.161,0.032,0.324,0.054,0.486,0.081c0.159,0.026,0.316,0.056,0.476,0.077c0.153,0.02,0.306,0.03,0.46,0.046
			c0.17,0.017,0.34,0.038,0.51,0.049c0.135,0.009,0.27,0.008,0.405,0.013c0.188,0.007,0.375,0.019,0.563,0.019
			c0.317,0,0.634-0.011,0.951-0.031c0.081-0.005,0.162-0.016,0.243-0.023c0.233-0.019,0.466-0.038,0.699-0.068
			c0.12-0.015,0.239-0.038,0.358-0.056c0.194-0.03,0.387-0.058,0.58-0.095c0.138-0.027,0.276-0.061,0.414-0.092
			c0.173-0.039,0.346-0.076,0.518-0.121c0.149-0.039,0.296-0.084,0.444-0.128c0.161-0.047,0.321-0.093,0.481-0.146
			c0.152-0.05,0.302-0.107,0.453-0.162c0.155-0.057,0.31-0.113,0.464-0.176c0.151-0.061,0.3-0.128,0.45-0.194
			c0.152-0.068,0.305-0.136,0.456-0.209c0.146-0.071,0.29-0.146,0.434-0.222c0.096-0.05,0.194-0.095,0.289-0.148
			c0.04-0.022,0.076-0.05,0.117-0.072c0.075-0.042,0.151-0.078,0.225-0.122l59.715-35.033
			C183.074,310.75,185.468,301.562,181.277,294.419z"/>
	</g>
</g>
<g>
</g>
<g>
</g>
<g>
</g>
<g>
</g>
<g>
</g>
<g>
</g>
<g>
</g>
<g>
</g>
<g>
</g>
<g>
</g>
<g>
</g>
<g>
</g>
<g>
</g>
<g>
</g>
<g>
</g>
</svg>
