<?xml version="1.0" encoding="iso-8859-1"?>
<!-- Generator: Adobe Illustrator 19.0.0, SVG Export Plug-In . SVG Version: 6.00 Build 0)  -->
<svg version="1.1" id="Capa_1" xmlns="http://www.w3.org/2000/svg" xmlns:xlink="http://www.w3.org/1999/xlink" x="0px" y="0px"
	 viewBox="0 0 512 512" style="enable-background:new 0 0 512 512;" xml:space="preserve">
<g>
	<g>
		<path d="M256,40.01c-5.538,0-9.99,4.46-9.99,9.99c0,5.147,3.872,9.43,8.99,9.938c5.925,0.588,10.99-4.027,10.99-9.938
			C265.99,44.462,261.53,40.01,256,40.01z"/>
	</g>
</g>
<g>
	<g>
		<path d="M456,60c-27.57,0-50-22.43-50-50c0-5.522-4.478-10-10-10H116c-5.522,0-10,4.478-10,10c0,27.57-22.43,50-50,50
			c-5.522,0-10,4.478-10,10v163.19c0,127.177,82.895,241.135,207.128,278.389c0.937,0.28,1.904,0.421,2.872,0.421
			c0.968,0,1.937-0.141,2.873-0.422C380.415,475.119,466,363.149,466,233.19V70C466,64.478,461.522,60,456,60z M446,233.19
			c0,119.448-76.221,222.892-190,258.353C143.128,456.365,66,351.984,66,233.19V79.288C96.611,74.89,120.89,50.611,125.288,20
			h261.424C391.11,50.611,415.389,74.89,446,79.288V233.19z"/>
	</g>
</g>
<g>
	<g>
		<path d="M420.012,92.49c-20.854-9.133-37.369-25.648-46.502-46.502C371.916,42.35,368.322,40,364.35,40h-68.37
			c-5.522,0-10,4.478-10,10s4.478,10,10,10h62.047c10.565,20.681,27.292,37.407,47.973,47.973V233.19
			c0,97.863-58.749,182.303-150,216.104c-91.251-33.802-150-118.241-150-216.104V107.973C126.681,97.407,143.407,80.681,153.973,60
			h62.047c5.522,0,10-4.478,10-10s-4.478-10-10-10h-68.37c-3.972,0-7.566,2.351-9.16,5.988
			c-9.133,20.854-25.648,37.369-46.502,46.502C88.351,94.084,86,97.679,86,101.65v131.54c0,107.213,66.311,200.653,166.664,236.166
			c1.079,0.382,2.207,0.573,3.336,0.573c1.129,0,2.257-0.191,3.336-0.573C359.605,433.873,426,340.49,426,233.19V101.65
			C426,97.678,423.649,94.084,420.012,92.49z"/>
	</g>
</g>
<g>
	<g>
		<path d="M256,146c-49.626,0-90,40.374-90,90c0,49.626,40.374,90,90,90c49.626,0,90-40.374,90-90C346,186.374,305.626,146,256,146z
			 M256,306c-38.598,0-70-31.402-70-70c0-38.598,31.402-70,70-70c38.598,0,70,31.402,70,70C326,274.598,294.598,306,256,306z"/>
	</g>
</g>
<g>
	<g>
		<path d="M303.071,208.928c-3.906-3.904-10.236-3.904-14.143,0L246,251.857l-12.929-12.928c-3.906-3.904-10.236-3.904-14.143,0
			c-3.905,3.905-3.905,10.237,0,14.143l20,20C240.882,275.023,243.44,276,246,276s5.118-0.977,7.071-2.929l50-50
			C306.976,219.166,306.976,212.834,303.071,208.928z"/>
	</g>
</g>
<g>
</g>
<g>
</g>
<g>
</g>
<g>
</g>
<g>
</g>
<g>
</g>
<g>
</g>
<g>
</g>
<g>
</g>
<g>
</g>
<g>
</g>
<g>
</g>
<g>
</g>
<g>
</g>
<g>
</g>
</svg>
