<svg enable-background="new 0 0 512.001 512.001" viewBox="0 0 512.001 512.001" xmlns="http://www.w3.org/2000/svg"><g fill="#fff"><path d="m291.691 382.825h-184.518v-35.183c0-4.142-3.358-7.5-7.5-7.5s-7.5 3.358-7.5 7.5v36.979c0 7.281 5.923 13.204 13.205 13.204h44.787v47.127c0 .694-.565 1.259-1.259 1.259h-37.385v-7.425c0-9.121-7.42-16.542-16.541-16.542h-29.85c-9.121 0-16.542 7.42-16.542 16.542v29.85c0 9.121 7.42 16.542 16.542 16.542h29.85c9.121 0 16.541-7.42 16.541-16.542v-7.425h37.385c8.965 0 16.259-7.294 16.259-16.259v-47.127h83.335v51.242h-7.425c-9.121 0-16.542 7.42-16.542 16.542v29.85c0 9.121 7.42 16.542 16.542 16.542h29.85c9.121 0 16.542-7.42 16.542-16.542v-29.85c0-9.121-7.42-16.542-16.542-16.542h-7.425v-51.242h28.191c4.142 0 7.5-3.358 7.5-7.5s-3.358-7.5-7.5-7.5zm-195.17 85.811c0 .85-.691 1.542-1.541 1.542h-29.85c-.85 0-1.542-.691-1.542-1.542v-29.85c0-.85.691-1.542 1.542-1.542h29.85c.85 0 1.541.691 1.541 1.542zm174.403-4.569c.851 0 1.542.692 1.542 1.542v29.85c0 .85-.691 1.542-1.542 1.542h-29.85c-.85 0-1.542-.691-1.542-1.542v-29.85c0-.85.691-1.542 1.542-1.542z"/><path d="m177.88547 138.4029h-64.29267c-4.142 0-7.5 3.358-7.5 7.5s3.358 7.5 7.5 7.5h64.29267c4.142 0 7.5-3.358 7.5-7.5s-3.358-7.5-7.5-7.5z" transform="translate(104.38034 164.85466)"/><path d="m324.352 137.329c-4.142 0-7.5 3.358-7.5 7.5v.819c0 4.143 3.358 7.5 7.5 7.5s7.5-3.358 7.5-7.5v-.819c0-4.142-3.358-7.5-7.5-7.5z"/><path d="m347.37 137.329c-4.142 0-7.5 3.358-7.5 7.5v.819c0 4.143 3.358 7.5 7.5 7.5s7.5-3.358 7.5-7.5v-.819c0-4.142-3.358-7.5-7.5-7.5z"/><path d="m370.388 137.329c-4.142 0-7.5 3.358-7.5 7.5v.819c0 4.143 3.358 7.5 7.5 7.5s7.5-3.358 7.5-7.5v-.819c0-4.142-3.358-7.5-7.5-7.5z"/><path d="m446.871 26.822h-29.85c-9.121 0-16.541 7.42-16.541 16.542v7.425h-37.385c-8.965 0-16.259 7.294-16.259 16.259v47.129h-83.336v-51.244h7.425c9.121 0 16.542-7.42 16.542-16.542v-29.85c-.001-9.121-7.421-16.541-16.542-16.541h-29.85c-9.121 0-16.542 7.42-16.542 16.542v29.85c0 9.121 7.42 16.542 16.542 16.542h7.425v51.244h-83.335v-47.13c0-8.965-7.294-16.259-16.259-16.259h-37.385v-7.425c0-9.121-7.42-16.542-16.541-16.542h-29.85c-9.121 0-16.542 7.42-16.542 16.542v29.85c0 9.121 7.42 16.542 16.542 16.542h29.85c9.121 0 16.541-7.42 16.541-16.542v-7.425h37.385c.694 0 1.259.565 1.259 1.259v47.129h-38.012c-11.017 0-19.98 8.963-19.98 19.979v182.868c0 4.142 3.358 7.5 7.5 7.5s7.5-3.358 7.5-7.5v-140.723h297.649v30.057c0 4.142 3.358 7.5 7.5 7.5s7.5-3.358 7.5-7.5v-72.202c0-11.017-8.963-19.979-19.98-19.979h-38.007v-47.129c0-.694.565-1.259 1.259-1.259h37.385v7.425c0 9.121 7.42 16.542 16.541 16.542h29.85c9.121 0 16.542-7.42 16.542-16.542v-29.85c0-9.121-7.42-16.542-16.541-16.542zm-350.35 46.391c0 .85-.691 1.542-1.541 1.542h-29.85c-.85 0-1.542-.691-1.542-1.542v-29.85c0-.85.691-1.542 1.542-1.542h29.85c.85 0 1.541.691 1.541 1.542zm144.555-25.28c-.851 0-1.542-.692-1.542-1.542v-29.85c0-.85.691-1.542 1.542-1.542h29.85c.85 0 1.542.691 1.542 1.542v29.85c0 .85-.691 1.542-1.542 1.542zm158.766 81.244c2.746 0 4.98 2.234 4.98 4.979v27.145h-297.649v-27.145c0-2.746 2.234-4.979 4.98-4.979zm48.57-55.964c0 .85-.691 1.542-1.542 1.542h-29.85c-.85 0-1.541-.691-1.541-1.542v-29.85c0-.85.691-1.542 1.541-1.542h29.85c.85 0 1.542.691 1.542 1.542z"/><path d="m446.871 422.245h-29.85c-9.121 0-16.541 7.42-16.541 16.542v7.425h-37.385c-.694 0-1.259-.565-1.259-1.259v-47.127h44.783c7.281 0 13.205-5.923 13.205-13.204v-147.646c0-4.142-3.358-7.5-7.5-7.5s-7.5 3.358-7.5 7.5v145.85h-82.514c-4.142 0-7.5 3.358-7.5 7.5s3.358 7.5 7.5 7.5h24.526v47.127c0 8.965 7.294 16.259 16.259 16.259h37.385v7.425c0 9.121 7.42 16.542 16.541 16.542h29.85c9.121 0 16.542-7.42 16.542-16.542v-29.85c-.001-9.121-7.421-16.542-16.542-16.542zm1.541 46.391c0 .85-.691 1.542-1.542 1.542h-29.85c-.85 0-1.541-.691-1.541-1.542v-29.85c0-.85.691-1.542 1.541-1.542h29.85c.85 0 1.542.691 1.542 1.542z"/><path d="m366.72 271.712-33.349-33.349c-2.929-2.929-7.678-2.929-10.606 0-2.929 2.929-2.929 7.678 0 10.606l28.045 28.045-28.045 28.045c-2.929 2.93-2.929 7.679 0 10.608 1.464 1.464 3.384 2.197 5.303 2.197s3.839-.732 5.303-2.197l33.349-33.349c2.929-2.929 2.929-7.678 0-10.606z" transform="translate(-152.42842 -10.7694)"/><path d="m366.72 271.712-33.349-33.349c-2.929-2.929-7.678-2.929-10.606 0-2.929 2.929-2.929 7.678 0 10.606l28.045 28.045-28.045 28.045c-2.929 2.93-2.929 7.679 0 10.608 1.464 1.464 3.384 2.197 5.303 2.197s3.839-.732 5.303-2.197l33.349-33.349c2.929-2.929 2.929-7.678 0-10.606z" transform="translate(-23.195625 -10.7694)"/></g></svg>