<?xml version="1.0" encoding="iso-8859-1"?>
<!-- Generator: Adobe Illustrator 19.0.0, SVG Export Plug-In . SVG Version: 6.00 Build 0)  -->
<svg version="1.1" id="Capa_1" xmlns="http://www.w3.org/2000/svg" xmlns:xlink="http://www.w3.org/1999/xlink" x="0px" y="0px"
	 viewBox="0 0 512 512" style="enable-background:new 0 0 512 512;" xml:space="preserve">
<g>
	<g>
		<path fill="#ffffff" d="M426.667,247.467h-25.822c29.498-21.943,41.599-60.329,30.018-95.222c-11.581-34.893-44.232-58.426-80.996-58.378H162.133
			c-36.764-0.048-69.416,23.485-80.996,58.378c-11.581,34.893,0.52,73.279,30.018,95.222H85.333C38.205,247.467,0,285.672,0,332.8
			s38.205,85.333,85.333,85.333h341.333c47.128,0,85.333-38.205,85.333-85.333S473.795,247.467,426.667,247.467z M349.867,110.933
			c16.582,0.003,32.59,6.073,45.005,17.067h-45.005c-4.713,0-8.533,3.82-8.533,8.533s3.82,8.533,8.533,8.533h59.025
			c4.575,7.865,7.518,16.572,8.653,25.6h-50.611c-4.713,0-8.533,3.82-8.533,8.533s3.82,8.533,8.533,8.533h50.611
			c-1.135,9.028-4.078,17.735-8.653,25.6h-59.025c-4.713,0-8.533,3.82-8.533,8.533s3.82,8.533,8.533,8.533h45.005
			c-12.414,10.994-28.422,17.064-45.005,17.067H213.112c6.483-4.855,12.249-10.6,17.126-17.067h85.495
			c4.713,0,8.533-3.82,8.533-8.533s-3.82-8.533-8.533-8.533H240.29c3.579-8.126,5.854-16.765,6.741-25.6H332.8
			c4.713,0,8.533-3.82,8.533-8.533s-3.821-8.533-8.533-8.533h-85.768c-0.887-8.835-3.162-17.474-6.741-25.6h75.443
			c4.713,0,8.533-3.82,8.533-8.533s-3.82-8.533-8.533-8.533h-85.495c-4.878-6.466-10.643-12.212-17.126-17.067H349.867z
			 M93.867,179.2c-0.048-29.98,19.47-56.482,48.113-65.333c28.643-8.851,59.709,2.022,76.582,26.803
			c16.873,24.781,15.603,57.67-3.129,81.077c-23.131,15.862-54.216,13.326-74.47-6.076c-8.296-7.959-12.986-18.959-12.986-30.455
			c0-11.497,4.69-22.496,12.986-30.456c13.458-12.887,34.679-12.887,48.137,0c4.689,4.538,7.336,10.784,7.336,17.31
			c0,6.525-2.647,12.772-7.336,17.31c-7.45,7.113-19.174,7.113-26.624,0c-3.388-3.278-8.793-3.188-12.07,0.201
			c-3.278,3.388-3.188,8.793,0.201,12.07c14.108,13.457,36.299,13.457,50.406,0c7.982-7.753,12.485-18.407,12.485-29.534
			c0-11.127-4.504-21.781-12.485-29.534c-20.117-19.287-51.862-19.287-71.979,0c-11.58,11.174-18.122,26.575-18.122,42.667
			s6.541,31.493,18.122,42.667c10.09,9.749,22.715,16.47,36.437,19.396c-1.118,0.06-2.219,0.171-3.345,0.171
			C124.436,247.437,93.9,216.888,93.867,179.2z M187.955,264.533c-10.989,8.223-19.844,18.963-25.822,31.317
			c-5.978-12.354-14.833-23.094-25.822-31.317h25.822H187.955z M73.805,355.251c14.108,13.457,36.299,13.457,50.406,0
			c7.982-7.753,12.485-18.407,12.485-29.534c0-11.127-4.504-21.781-12.485-29.534c-20.117-19.287-51.862-19.287-71.979,0
			c-11.58,11.174-18.122,26.575-18.122,42.667c0,16.092,6.541,31.493,18.122,42.667c10.09,9.749,22.715,16.47,36.437,19.396
			c-1.118,0.06-2.219,0.171-3.345,0.171c-37.703,0-68.267-30.564-68.267-68.267s30.564-68.267,68.267-68.267l0.008-0.017
			c26.232-0.028,50.154,14.994,61.524,38.633c11.37,23.639,8.172,51.705-8.225,72.181c-23.131,15.862-54.217,13.326-74.47-6.076
			c-8.296-7.959-12.986-18.959-12.986-30.455c0-11.497,4.69-22.496,12.986-30.455c13.458-12.887,34.679-12.887,48.137,0
			c4.689,4.538,7.336,10.784,7.336,17.31c0,6.525-2.647,12.772-7.336,17.31c-7.448,7.117-19.176,7.117-26.624,0
			c-3.389-3.278-8.793-3.188-12.07,0.201C70.326,346.569,70.416,351.974,73.805,355.251z M136.311,401.067
			c10.989-8.223,19.844-18.963,25.822-31.317c5.978,12.354,14.833,23.094,25.822,31.317H136.311z M227.405,355.251
			c14.108,13.457,36.299,13.457,50.406,0c7.982-7.753,12.485-18.407,12.485-29.534c0-11.127-4.504-21.781-12.485-29.534
			c-20.117-19.287-51.862-19.287-71.979,0c-11.58,11.174-18.121,26.575-18.121,42.667c0,16.092,6.541,31.493,18.121,42.667
			c10.09,9.749,22.715,16.47,36.437,19.396c-1.118,0.06-2.219,0.171-3.345,0.171c-37.703,0-68.267-30.564-68.267-68.267
			s30.564-68.267,68.267-68.267l0.009-0.017c26.232-0.028,50.154,14.994,61.524,38.633s8.172,51.705-8.225,72.181
			c-23.131,15.862-54.216,13.326-74.47-6.076c-8.296-7.959-12.986-18.959-12.986-30.455c0-11.497,4.69-22.496,12.986-30.455
			c13.458-12.887,34.679-12.887,48.137,0c4.689,4.538,7.336,10.784,7.336,17.31c0,6.525-2.647,12.772-7.336,17.31
			c-7.448,7.117-19.176,7.117-26.624,0c-3.388-3.278-8.793-3.188-12.07,0.201C223.927,346.569,224.016,351.974,227.405,355.251z
			 M485.692,366.933h-59.025c-4.713,0-8.533,3.82-8.533,8.533s3.82,8.533,8.533,8.533h45.005
			c-12.414,10.994-28.422,17.064-45.005,17.067H289.911c6.483-4.855,12.249-10.6,17.126-17.067h85.495
			c4.713,0,8.533-3.82,8.533-8.533s-3.821-8.533-8.533-8.533H317.09c3.579-8.126,5.854-16.765,6.741-25.6H409.6
			c4.713,0,8.533-3.82,8.533-8.533s-3.82-8.533-8.533-8.533h-85.769c-0.887-8.835-3.162-17.474-6.741-25.6h75.443
			c4.713,0,8.533-3.821,8.533-8.533c0-4.713-3.821-8.533-8.533-8.533h-85.495c-4.878-6.466-10.643-12.212-17.126-17.067h136.755
			c16.582,0.003,32.59,6.073,45.005,17.067h-45.005c-4.713,0-8.533,3.821-8.533,8.533c0,4.713,3.82,8.533,8.533,8.533h59.025
			c4.575,7.865,7.518,16.572,8.653,25.6h-50.611c-4.713,0-8.533,3.82-8.533,8.533s3.82,8.533,8.533,8.533h50.611
			C493.21,350.361,490.267,359.068,485.692,366.933z"/>
	</g>
</g>
<g>
</g>
<g>
</g>
<g>
</g>
<g>
</g>
<g>
</g>
<g>
</g>
<g>
</g>
<g>
</g>
<g>
</g>
<g>
</g>
<g>
</g>
<g>
</g>
<g>
</g>
<g>
</g>
<g>
</g>
</svg>
