<?xml version="1.0" encoding="UTF-8" standalone="no"?>
<!-- Generator: Adobe Illustrator 19.0.0, SVG Export Plug-In . SVG Version: 6.00 Build 0)  -->

<svg
   xmlns:dc="http://purl.org/dc/elements/1.1/"
   xmlns:cc="http://creativecommons.org/ns#"
   xmlns:rdf="http://www.w3.org/1999/02/22-rdf-syntax-ns#"
   xmlns:svg="http://www.w3.org/2000/svg"
   xmlns="http://www.w3.org/2000/svg"
   xmlns:sodipodi="http://sodipodi.sourceforge.net/DTD/sodipodi-0.dtd"
   xmlns:inkscape="http://www.inkscape.org/namespaces/inkscape"
   version="1.1"
   id="Capa_1"
   x="0px"
   y="0px"
   viewBox="0 0 512.001 512.001"
   style="enable-background:new 0 0 512.001 512.001;"
   xml:space="preserve"
   sodipodi:docname="coding_2.svg"
   inkscape:version="0.92.3 (2405546, 2018-03-11)"><metadata
   id="metadata2674"><rdf:RDF><cc:Work
       rdf:about=""><dc:format>image/svg+xml</dc:format><dc:type
         rdf:resource="http://purl.org/dc/dcmitype/StillImage" /><dc:title></dc:title></cc:Work></rdf:RDF></metadata><defs
   id="defs2672" /><sodipodi:namedview
   pagecolor="#ffffff"
   bordercolor="#666666"
   borderopacity="1"
   objecttolerance="10"
   gridtolerance="10"
   guidetolerance="10"
   inkscape:pageopacity="0"
   inkscape:pageshadow="2"
   inkscape:window-width="1920"
   inkscape:window-height="1004"
   id="namedview2670"
   showgrid="false"
   inkscape:zoom="1.2071239"
   inkscape:cx="320.35474"
   inkscape:cy="240.70584"
   inkscape:window-x="0"
   inkscape:window-y="0"
   inkscape:window-maximized="1"
   inkscape:current-layer="Capa_1" />
<g
   id="g2565">
	<g
   id="g2563">
		<path
    fill="#ffffff"
   d="M291.691,382.825H107.173v-35.183c0-4.142-3.358-7.5-7.5-7.5c-4.142,0-7.5,3.358-7.5,7.5v36.979    c0,7.281,5.923,13.204,13.205,13.204h44.787v47.127c0,0.694-0.565,1.259-1.259,1.259h-37.385v-7.425    c0-9.121-7.42-16.542-16.541-16.542H65.13c-9.121,0-16.542,7.42-16.542,16.542v29.85c0,9.121,7.42,16.542,16.542,16.542h29.85    c9.121,0,16.541-7.42,16.541-16.542v-7.425h37.385c8.965,0,16.259-7.294,16.259-16.259v-47.127H248.5v51.242h-7.425    c-9.121,0-16.542,7.42-16.542,16.542v29.85c0,9.121,7.42,16.542,16.542,16.542h29.85c9.121,0,16.542-7.42,16.542-16.542v-29.85    c0-9.121-7.42-16.542-16.542-16.542H263.5v-51.242h28.191c4.142,0,7.5-3.358,7.5-7.5    C299.191,386.183,295.833,382.825,291.691,382.825z M96.521,468.636c0,0.85-0.691,1.542-1.541,1.542H65.13    c-0.85,0-1.542-0.691-1.542-1.542v-29.85c0-0.85,0.691-1.542,1.542-1.542h29.85c0.85,0,1.541,0.691,1.541,1.542V468.636z     M270.924,464.067c0.851,0,1.542,0.692,1.542,1.542v29.85c0,0.85-0.691,1.542-1.542,1.542h-29.85c-0.85,0-1.542-0.691-1.542-1.542    v-29.85c0-0.85,0.691-1.542,1.542-1.542H270.924z"
   id="path2561" />
	</g>
</g>
<g
   id="g2571"
   transform="translate(104.38034,164.85466)">
	<g
   id="g2569">
		<path
    fill="#ffffff"
   d="M 177.88547,138.4029 H 113.5928 c -4.142,0 -7.5,3.358 -7.5,7.5 0,4.142 3.358,7.5 7.5,7.5 h 64.29267 c 4.142,0 7.5,-3.358 7.5,-7.5 0,-4.142 -3.358,-7.5 -7.5,-7.5 z"
   id="path2567"
   inkscape:connector-curvature="0"
   sodipodi:nodetypes="sssssss" />
	</g>
</g>
<g
   id="g2577">
	<g
   id="g2575">
		<path
    fill="#ffffff"
   d="M324.352,137.329c-4.142,0-7.5,3.358-7.5,7.5v0.819c0,4.143,3.358,7.5,7.5,7.5c4.142,0,7.5-3.358,7.5-7.5v-0.819    C331.852,140.687,328.494,137.329,324.352,137.329z"
   id="path2573" />
	</g>
</g>
<g
   id="g2583">
	<g
   id="g2581">
		<path
    fill="#ffffff"
   d="M347.37,137.329c-4.142,0-7.5,3.358-7.5,7.5v0.819c0,4.143,3.358,7.5,7.5,7.5c4.142,0,7.5-3.358,7.5-7.5v-0.819    C354.87,140.687,351.512,137.329,347.37,137.329z"
   id="path2579" />
	</g>
</g>
<g
   id="g2589">
	<g
   id="g2587">
		<path
    fill="#ffffff"
   d="M370.388,137.329c-4.142,0-7.5,3.358-7.5,7.5v0.819c0,4.143,3.358,7.5,7.5,7.5c4.142,0,7.5-3.358,7.5-7.5v-0.819    C377.888,140.687,374.53,137.329,370.388,137.329z"
   id="path2585" />
	</g>
</g>
<g
   id="g2595">
	<g
   id="g2593">
		<path
    fill="#ffffff"
   d="M446.871,26.822h-29.85c-9.121,0-16.541,7.42-16.541,16.542v7.425h-37.385c-8.965,0-16.259,7.294-16.259,16.259v47.129    H263.5V62.933h7.425c9.121,0,16.542-7.42,16.542-16.542v-29.85C287.466,7.42,280.046,0,270.925,0h-29.85    c-9.121,0-16.542,7.42-16.542,16.542v29.85c0,9.121,7.42,16.542,16.542,16.542h7.425v51.244h-83.335v-47.13    c0-8.965-7.294-16.259-16.259-16.259h-37.385v-7.425c0-9.121-7.42-16.542-16.541-16.542H65.13c-9.121,0-16.542,7.42-16.542,16.542    v29.85c0,9.121,7.42,16.542,16.542,16.542h29.85c9.121,0,16.541-7.42,16.541-16.542v-7.425h37.385    c0.694,0,1.259,0.565,1.259,1.259v47.129h-38.012c-11.017,0-19.98,8.963-19.98,19.979v182.868c0,4.142,3.358,7.5,7.5,7.5    c4.142,0,7.5-3.358,7.5-7.5V176.301h297.649v30.057c0,4.142,3.358,7.5,7.5,7.5c4.142,0,7.5-3.358,7.5-7.5v-72.202    c0-11.017-8.963-19.979-19.98-19.979h-38.007V67.048c0-0.694,0.565-1.259,1.259-1.259h37.385v7.425    c0,9.121,7.42,16.542,16.541,16.542h29.85c9.121,0,16.542-7.42,16.542-16.542v-29.85    C463.412,34.243,455.992,26.822,446.871,26.822z M96.521,73.213c0,0.85-0.691,1.542-1.541,1.542H65.13    c-0.85,0-1.542-0.691-1.542-1.542v-29.85c0-0.85,0.691-1.542,1.542-1.542h29.85c0.85,0,1.541,0.691,1.541,1.542V73.213z     M241.076,47.933c-0.851,0-1.542-0.692-1.542-1.542v-29.85c0-0.85,0.691-1.542,1.542-1.542h29.85c0.85,0,1.542,0.691,1.542,1.542    v29.85c0,0.85-0.691,1.542-1.542,1.542H241.076z M399.842,129.177c2.746,0,4.98,2.234,4.98,4.979v27.145H107.173v-27.145    c0-2.746,2.234-4.979,4.98-4.979H399.842z M448.412,73.213c0,0.85-0.691,1.542-1.542,1.542h-29.85    c-0.85,0-1.541-0.691-1.541-1.542v-29.85c0-0.85,0.691-1.542,1.541-1.542h29.85c0.85,0,1.542,0.691,1.542,1.542V73.213z"
   id="path2591" />
	</g>
</g>
<g
   id="g2601">
	<g
   id="g2599">
		<path
    fill="#ffffff"
   d="M446.871,422.245h-29.85c-9.121,0-16.541,7.42-16.541,16.542v7.425h-37.385c-0.694,0-1.259-0.565-1.259-1.259v-47.127    h44.783c7.281,0,13.205-5.923,13.205-13.204V236.976c0-4.142-3.358-7.5-7.5-7.5c-4.142,0-7.5,3.358-7.5,7.5v145.85H322.31    c-4.142,0-7.5,3.358-7.5,7.5c0,4.142,3.358,7.5,7.5,7.5h24.526v47.127c0,8.965,7.294,16.259,16.259,16.259h37.385v7.425    c0,9.121,7.42,16.542,16.541,16.542h29.85c9.121,0,16.542-7.42,16.542-16.542v-29.85    C463.412,429.666,455.992,422.245,446.871,422.245z M448.412,468.636c0,0.85-0.691,1.542-1.542,1.542h-29.85    c-0.85,0-1.541-0.691-1.541-1.542v-29.85c0-0.85,0.691-1.542,1.541-1.542h29.85c0.85,0,1.542,0.691,1.542,1.542V468.636z"
   id="path2597" />
	</g>
</g>

<g
   id="g2613"
   transform="translate(-152.42842,-10.7694)">
	<g
   id="g2611">
		<path
    fill="#ffffff"
   d="m 366.72,271.712 -33.349,-33.349 c -2.929,-2.929 -7.678,-2.929 -10.606,0 -2.929,2.929 -2.929,7.678 0,10.606 l 28.045,28.045 -28.045,28.045 c -2.929,2.93 -2.929,7.679 0,10.608 1.464,1.464 3.384,2.197 5.303,2.197 1.919,0 3.839,-0.732 5.303,-2.197 l 33.349,-33.349 c 2.929,-2.929 2.929,-7.678 0,-10.606 z"
   id="path2609"
   inkscape:connector-curvature="0" />
	</g>
</g>




<g
   id="g2639">
</g>
<g
   id="g2641">
</g>
<g
   id="g2643">
</g>
<g
   id="g2645">
</g>
<g
   id="g2647">
</g>
<g
   id="g2649">
</g>
<g
   id="g2651">
</g>
<g
   id="g2653">
</g>
<g
   id="g2655">
</g>
<g
   id="g2657">
</g>
<g
   id="g2659">
</g>
<g
   id="g2661">
</g>
<g
   id="g2663">
</g>
<g
   id="g2665">
</g>
<g
   id="g2667">
</g>
<g
   transform="translate(-23.195625,-10.7694)"
   id="g3223">
	<g
   id="g3221">
		<path
    fill="#ffffff"
   inkscape:connector-curvature="0"
   id="path3219"
   d="m 366.72,271.712 -33.349,-33.349 c -2.929,-2.929 -7.678,-2.929 -10.606,0 -2.929,2.929 -2.929,7.678 0,10.606 l 28.045,28.045 -28.045,28.045 c -2.929,2.93 -2.929,7.679 0,10.608 1.464,1.464 3.384,2.197 5.303,2.197 1.919,0 3.839,-0.732 5.303,-2.197 l 33.349,-33.349 c 2.929,-2.929 2.929,-7.678 0,-10.606 z" />
	</g>
</g></svg>