<?xml version="1.0" encoding="UTF-8"?>
<svg width="120px" height="120px" viewBox="0 0 120 120" version="1.1" xmlns="http://www.w3.org/2000/svg" xmlns:xlink="http://www.w3.org/1999/xlink">
    <!-- Generator: Sketch 50.2 (55047) - http://www.bohemiancoding.com/sketch -->
    <title>cli-exit</title>
    <desc>Created with Sketch.</desc>
    <defs></defs>
    <g id="cli-exit" stroke="none" stroke-width="1" fill="none" fill-rule="evenodd">
        <path d="M101.394213,5.68535262 L101.502712,114.03255 C101.502712,117.352405 98.8553345,119.869801 95.6654611,119.869801 L24.880651,119.869801 C21.6907776,119.869801 19.1735986,117.222423 19.1735986,114.03255 L19.0433996,5.83725136 C19.0433996,2.51717902 21.6907776,0 24.880651,0 L95.6871609,0 C96.4683544,0 97.4014467,0.130198915 98.20434,0.52079566 C98.4864376,0.650994575 98.6166365,0.78119349 98.8770344,0.911392405 C100.330922,1.97468354 101.394213,3.68896926 101.394213,5.68535262 Z M76.8083183,37.0415913 C72.6853526,37.0415913 69.6473779,40.3833635 69.6473779,44.3544304 C69.6473779,48.3254973 72.8155515,51.5153707 76.8083183,51.5153707 C80.800868,51.5153707 84.1211573,48.3471971 84.1211573,44.3544304 C84.1211573,40.3616637 80.800868,37.0415913 76.8083183,37.0415913 Z M51.3327306,87.6238698 L55.4556962,82.4593128 L49.2061483,77.403255 L45.755877,82.0687161 L31.0216998,82.198915 C28.7649186,82.198915 27.159132,83.522821 27.0289331,85.9098011 C26.8987342,87.6238698 28.482821,89.6202532 30.4792043,89.7506691 L46.5587703,90.0108499 C48.6853526,90.1412658 49.7486438,89.4902712 51.3327306,87.6238698 Z M89.8282098,75.5372875 C91.4339964,75.9493671 93.278481,74.2133816 93.4522966,72.8679928 C93.4522966,71.4143219 92.6494033,69.9385172 91.0653165,69.5479204 L79.238915,66.4882459 L76.3094394,57.3309222 C76.0488246,56.6582278 75.7884268,55.7251356 74.9855335,55.20434 L69.1487161,50.8205425 C68.8883183,50.5601447 68.6062206,50.4299458 68.2154069,50.2997468 L57.4522966,46.8494756 C56.9098011,46.7192767 56.2588065,46.5890778 55.5861121,46.5890778 C54.9134177,46.5890778 54.2624231,46.8711754 53.5897288,47.2617722 L40.8302351,53.9019168 C39.5065461,54.7048101 38.9640506,56.5709946 39.636745,57.8946835 C40.4396383,59.3485714 42.4360217,60.1514647 44.0201085,59.2183725 L56.2371067,53.0990235 L63.0074503,55.4860036 L53.7199277,70.6324774 C51.7452441,73.9525497 52.7868354,77.2728391 55.5861121,79.0088246 L65.9369259,86.8424593 L59.0363834,103.442821 C58.1032911,105.417505 59.4269801,107.674286 61.4233635,108.34698 C63.4197468,109.019892 65.3942134,107.826401 66.0671248,106.090416 L74.0309584,87.7540687 C74.9421338,85.2151899 74.681953,83.3707052 72.2949729,81.3743219 L64.5915371,75.5372875 C64.5915371,75.5372875 71.3616637,64.3833635 71.6220615,64.1229656 L74.681953,70.8933092 C75.0940325,71.6962025 75.7450271,72.3688969 76.6781193,72.6292948 L89.8282098,75.5372875 Z M32.1531677,11.0313013 L32.1531677,12.8903541 C29.2930048,13.2591219 27.3280312,15.1541788 27.3280312,17.3882122 C27.3280312,18.5182759 27.8414513,20.2662256 30.4504048,21.4994521 C31.0090117,21.7634811 31.5866509,21.9792624 32.1531677,22.1688893 L32.1531677,28.9902453 C30.5216247,28.808983 29.1588992,28.0183203 28.2876216,27.091188 C28.1686085,26.9645681 28.1848224,26.8808922 28.1920656,26.7452106 C28.1941567,26.7063579 28.2090069,26.5277928 28.0555051,26.4577851 L26.7163882,28.3057458 C28.097631,29.8038196 30.0140841,30.6454879 32.1531677,30.779048 L32.1531677,32.6712257 L33.9743377,32.6712257 L33.9743377,30.721769 C37.48833,30.2636277 39.1376326,27.8182983 39.1376326,25.5925687 C39.1376326,22.7588027 36.6819384,21.7064445 36.0283514,21.4252621 C35.3853413,21.1486863 34.6762633,20.9082053 33.9743377,20.6726642 L33.9743377,14.6959163 C35.3187279,14.8984537 36.2744996,15.4767294 36.9194493,16.2590578 C37.0160054,16.3761616 37.0373108,16.4096804 37.050888,16.4377441 C37.0967415,16.5326333 37.0739512,16.6184609 37.0810125,16.7082587 C37.0919228,16.8467891 37.1755987,16.906038 37.2417575,16.9233733 L38.5808744,15.2360968 C37.441234,13.8756139 35.8080544,13.0498565 33.9743377,12.8650786 L33.9743377,11.6740689 C33.9743377,11.3760361 34.1839062,11.3670957 34.1839062,11.1371917 C34.1839062,11.100521 34.1763902,11.0644564 34.1618128,11.0313013 L32.1531677,11.0313013 Z M33.9743377,22.7391338 C34.5934966,22.9342765 35.1443451,23.1271765 35.5705131,23.3589596 C36.8733836,24.0675829 37.1112583,25.1000601 37.1112583,25.7372513 C37.1112583,27.1391024 35.964708,28.5408626 33.9743377,28.9259655 L33.9743377,22.7391338 Z M32.1531677,20.0275327 C31.7557301,19.8687577 31.3872957,19.7008301 31.0663513,19.5159613 C29.6985343,18.7282383 29.3787415,17.7981664 29.3787415,17.1211526 C29.3787415,16.0481861 30.2015289,14.8851492 32.1531677,14.6571241 L32.1531677,20.0275327 Z M50.3214985,29.8459151 C50.3214985,28.869232 49.5060755,28.0646587 48.4858421,28.0646587 C47.4660027,28.0646587 46.651004,28.8691714 46.651004,29.8454909 C46.651004,30.8238105 47.4668816,31.6279595 48.4852966,31.6279595 C49.5059846,31.6279595 50.3214985,30.8230529 50.3214985,29.8459151 Z M42.3671694,13.8166378 L43.9473129,15.2896482 C44.9259659,13.6529531 46.5731773,12.6073533 48.1422892,12.6073533 C49.9986751,12.6073533 51.4081634,14.0528152 51.4081634,15.8866532 C51.4081634,17.9197858 49.7984107,19.1873191 48.8604591,20.2172202 C47.4894902,21.7225675 47.4022078,22.8150513 47.4022078,24.2080832 L47.4022078,25.4936488 L49.4376437,25.4936488 L49.4376437,24.2080832 C49.4376437,23.1144478 49.5097426,22.1922555 50.78758,21.0564943 C51.8117835,20.1461518 53.8630999,18.9653553 53.8630999,16.0492469 C53.8630999,13.1569289 51.8667593,10.5744025 48.3503424,10.5744025 C46.0265717,10.5744025 43.7176512,11.7358939 42.3671694,13.8166378 Z" id="path2" fill="#000000" fill-rule="nonzero"></path>
    </g>
</svg>