<?xml version="1.0" encoding="iso-8859-1"?>
<!-- Generator: Adobe Illustrator 19.0.0, SVG Export Plug-In . SVG Version: 6.00 Build 0)  -->
<svg xmlns="http://www.w3.org/2000/svg" xmlns:xlink="http://www.w3.org/1999/xlink" version="1.1" id="Capa_1" x="0px" y="0px" viewBox="0 0 512 512" style="enable-background:new 0 0 512 512;" xml:space="preserve" width="512px" height="512px">
<g>
	<g>
		<path d="M458.667,0H53.333C23.893,0.035,0.035,23.893,0,53.333v405.333C0.035,488.107,23.893,511.965,53.333,512h405.333    c29.441-0.035,53.298-23.893,53.333-53.333V53.333C511.965,23.893,488.107,0.035,458.667,0z M490.667,458.667    c0,17.673-14.327,32-32,32H53.333c-17.673,0-32-14.327-32-32V53.333c0-17.673,14.327-32,32-32h405.333c17.673,0,32,14.327,32,32    V458.667z"/>
	</g>
</g>
<g>
	<g>
		<rect x="42.667" y="85.333" width="426.667" height="21.333" fill="#FFFFFF"/>
	</g>
</g>
<g>
	<g>
		<rect x="53.333" y="42.667" width="21.333" height="21.333" fill="#FFFFFF"/>
	</g>
</g>
<g>
	<g>
		<rect x="96" y="42.667" width="21.333" height="21.333" fill="#FFFFFF"/>
	</g>
</g>
<g>
	<g>
		<rect x="437.333" y="42.667" width="21.333" height="21.333" fill="#FFFFFF"/>
	</g>
</g>
<g>
	<g>
		<path d="M448,128H138.667v21.333H448V448H64V256H42.667v192c0,11.782,9.551,21.333,21.333,21.333h384    c11.782,0,21.333-9.551,21.333-21.333V149.333C469.333,137.551,459.782,128,448,128z" fill="#FFFFFF"/>
	</g>
</g>
<g>
	<g>
		<path d="M114.208,173.792l-42.667-42.667l-15.083,15.083l35.125,35.125l-35.125,35.125l15.083,15.083l42.667-42.667    C118.372,184.709,118.372,177.957,114.208,173.792z" fill="#FFFFFF"/>
	</g>
</g>
<g>
	<g>
		<rect x="128" y="202.667" width="64" height="21.333" fill="#FFFFFF"/>
	</g>
</g>
<g>
</g>
<g>
</g>
<g>
</g>
<g>
</g>
<g>
</g>
<g>
</g>
<g>
</g>
<g>
</g>
<g>
</g>
<g>
</g>
<g>
</g>
<g>
</g>
<g>
</g>
<g>
</g>
<g>
</g>
</svg>
