<?xml version="1.0" encoding="iso-8859-1"?>
<!-- Generator: Adobe Illustrator 19.0.0, SVG Export Plug-In . SVG Version: 6.00 Build 0)  -->
<svg xmlns="http://www.w3.org/2000/svg" xmlns:xlink="http://www.w3.org/1999/xlink" version="1.1" id="Layer_1" x="0px" y="0px" viewBox="0 0 512 512" style="enable-background:new 0 0 512 512;" xml:space="preserve" width="512px" height="512px">
<g>
	<g>
		<path d="M437.019,74.982C388.667,26.628,324.379,0,256,0S123.333,26.628,74.981,74.982C26.628,123.333,0,187.621,0,256    s26.628,132.667,74.981,181.019C123.333,485.372,187.621,512,256,512s132.667-26.628,181.019-74.982    C485.372,388.667,512,324.379,512,256S485.372,123.333,437.019,74.982z M256,495.832C123.756,495.832,16.168,388.244,16.168,256    S123.756,16.168,256,16.168S495.832,123.756,495.832,256S388.244,495.832,256,495.832z" fill="#FFFFFF"/>
	</g>
</g>
<g>
	<g>
		<path d="M448.621,291.123c-0.078-4.435-3.704-7.994-8.14-7.994c-4.554,0.001-8.215,3.745-8.128,8.3    c0.482,25.568-0.469,49.778-2.77,70.251c-36.435,28.254-87.47,44.992-122.901,49.448l-17.987-48.164    c24.924-3.903,62.879-14.828,93.67-45.155c2.644-2.605,3.175-6.674,1.288-9.87c-1.886-3.196-5.707-4.693-9.265-3.639    c-3.636,1.081-8.478,2.973-13.605,4.976c-5.788,2.261-12.349,4.824-16.042,5.701c-29.431,6.999-59.262,10.546-88.676,10.546    c-0.019,0-0.067,0-0.067,0h-0.064c-29.412,0-59.246-3.548-88.677-10.546c-3.692-0.877-10.253-3.44-16.041-5.701    c-4.932-1.927-9.601-3.751-13.186-4.849c-3.335-1.022-7.068-0.044-9.167,2.741c-2.477,3.287-2.09,7.822,0.772,10.642    c30.9,30.434,68.793,41.387,93.665,45.294l-17.975,48.023c-35.429-4.456-86.47-21.195-122.905-49.448    c-7.617-67.754-0.462-176.432,24.57-239.864c22.942-10.42,56.646-13.383,88.3-14.644l-50.48,23.408    c-3.833,1.776-5.651,6.206-4.173,10.165c1.48,3.958,5.757,6.109,9.816,4.936c35.034-10.12,70.545-15.253,105.547-15.253    s70.514,5.133,105.547,15.253c4.055,1.168,8.336-0.979,9.816-4.936c1.48-3.958-0.338-8.387-4.173-10.164l-50.48-23.408    c31.655,1.261,65.358,4.224,88.3,14.644c13.691,34.694,22.033,82.921,25.536,130.586c0.312,4.243,3.855,7.518,8.109,7.518h0.03    c4.734,0,8.467-4.024,8.121-8.745c-3.7-50.491-12.816-101.545-28.002-138.382c-0.744-1.803-2.114-3.278-3.86-4.15    c-32.14-16.067-82.437-17.359-122.854-18.399c-4.946-0.127-9.726-0.249-14.276-0.396c-3.836-0.112-7.237,2.474-8.125,6.213    c-0.888,3.738,0.979,7.585,4.465,9.201l24.607,11.411c-14.289-1.607-28.564-2.416-42.763-2.416    c-14.199,0-28.475,0.808-42.764,2.416l24.607-11.411c3.486-1.616,5.353-5.463,4.465-9.201c-0.887-3.739-4.279-6.321-8.125-6.213    c-4.55,0.147-9.329,0.268-14.276,0.396c-40.416,1.039-90.715,2.331-122.854,18.399c-1.745,0.872-3.116,2.347-3.86,4.15    C65.45,180.095,57.964,294.856,66.754,366.924c0.254,2.089,1.313,3.995,2.951,5.315c41.525,33.475,100.37,52.072,140.266,55.653    c0.244,0.023,0.486,0.032,0.727,0.032c3.344,0,6.378-2.072,7.567-5.25l23.747-63.444c1.165-3.11,0.329-6.702-2.326-8.994    c-1.3-1.122-2.961-1.732-4.669-1.907c-12.462-1.273-31.326-4.622-51.2-13.33c24.025,4.446,48.197,6.694,72.118,6.694h0.064    c0.001,0,0.002,0,0.002,0h0.065c23.812,0,47.877-2.227,71.793-6.634c-19.722,8.547-38.452,11.858-50.864,13.127    c-1.708,0.175-3.37,0.783-4.672,1.901c-2.661,2.287-3.501,5.882-2.338,8.995l23.747,63.587c1.188,3.182,4.223,5.256,7.569,5.256    c0.241,0,0.484-0.011,0.727-0.032c39.897-3.581,98.742-22.178,140.266-55.653c1.638-1.32,2.696-3.226,2.951-5.315    C447.942,344.81,449.105,318.673,448.621,291.123z" fill="#FFFFFF"/>
	</g>
</g>
<g>
	<g>
		<path d="M180.547,183.242c-28.231,0-51.2,22.969-51.2,51.2c0,28.231,22.969,51.2,51.2,51.2s51.2-22.969,51.2-51.2    C231.747,206.211,208.778,183.242,180.547,183.242z M180.547,269.474c-19.316,0-35.032-15.715-35.032-35.032    s15.716-35.032,35.032-35.032s35.032,15.715,35.032,35.032S199.863,269.474,180.547,269.474z" fill="#FFFFFF"/>
	</g>
</g>
<g>
	<g>
		<path d="M331.453,183.242c-28.231,0-51.2,22.969-51.2,51.2c0,28.231,22.969,51.2,51.2,51.2s51.2-22.969,51.2-51.2    C382.653,206.211,359.684,183.242,331.453,183.242z M331.453,269.474c-19.316,0-35.032-15.715-35.032-35.032    s15.716-35.032,35.032-35.032c19.316,0,35.032,15.715,35.032,35.032S350.768,269.474,331.453,269.474z" fill="#FFFFFF"/>
	</g>
</g>
<g>
</g>
<g>
</g>
<g>
</g>
<g>
</g>
<g>
</g>
<g>
</g>
<g>
</g>
<g>
</g>
<g>
</g>
<g>
</g>
<g>
</g>
<g>
</g>
<g>
</g>
<g>
</g>
<g>
</g>
</svg>
