<svg enable-background="new 0 0 512 512" height="512" viewBox="0 0 512 512" width="512" xmlns="http://www.w3.org/2000/svg"><g fill="#fff"><path d="m437.019 74.982c-48.352-48.354-112.64-74.982-181.019-74.982s-132.667 26.628-181.019 74.982c-48.353 48.351-74.981 112.639-74.981 181.018s26.628 132.667 74.981 181.019c48.352 48.353 112.64 74.981 181.019 74.981s132.667-26.628 181.019-74.982c48.353-48.351 74.981-112.639 74.981-181.018s-26.628-132.667-74.981-181.018zm-181.019 420.85c-132.244 0-239.832-107.588-239.832-239.832s107.588-239.832 239.832-239.832 239.832 107.588 239.832 239.832-107.588 239.832-239.832 239.832z"/><path d="m448.621 291.123c-.078-4.435-3.704-7.994-8.14-7.994-4.554.001-8.215 3.745-8.128 8.3.482 25.568-.469 49.778-2.77 70.251-36.435 28.254-87.47 44.992-122.901 49.448l-17.987-48.164c24.924-3.903 62.879-14.828 93.67-45.155 2.644-2.605 3.175-6.674 1.288-9.87-1.886-3.196-5.707-4.693-9.265-3.639-3.636 1.081-8.478 2.973-13.605 4.976-5.788 2.261-12.349 4.824-16.042 5.701-29.431 6.999-59.262 10.546-88.676 10.546-.019 0-.067 0-.067 0h-.064c-29.412 0-59.246-3.548-88.677-10.546-3.692-.877-10.253-3.44-16.041-5.701-4.932-1.927-9.601-3.751-13.186-4.849-3.335-1.022-7.068-.044-9.167 2.741-2.477 3.287-2.09 7.822.772 10.642 30.9 30.434 68.793 41.387 93.665 45.294l-17.975 48.023c-35.429-4.456-86.47-21.195-122.905-49.448-7.617-67.754-.462-176.432 24.57-239.864 22.942-10.42 56.646-13.383 88.3-14.644l-50.48 23.408c-3.833 1.776-5.651 6.206-4.173 10.165 1.48 3.958 5.757 6.109 9.816 4.936 35.034-10.12 70.545-15.253 105.547-15.253s70.514 5.133 105.547 15.253c4.055 1.168 8.336-.979 9.816-4.936 1.48-3.958-.338-8.387-4.173-10.164l-50.48-23.408c31.655 1.261 65.358 4.224 88.3 14.644 13.691 34.694 22.033 82.921 25.536 130.586.312 4.243 3.855 7.518 8.109 7.518h.03c4.734 0 8.467-4.024 8.121-8.745-3.7-50.491-12.816-101.545-28.002-138.382-.744-1.803-2.114-3.278-3.86-4.15-32.14-16.067-82.437-17.359-122.854-18.399-4.946-.127-9.726-.249-14.276-.396-3.836-.112-7.237 2.474-8.125 6.213-.888 3.738.979 7.585 4.465 9.201l24.607 11.411c-14.289-1.607-28.564-2.416-42.763-2.416s-28.475.808-42.764 2.416l24.607-11.411c3.486-1.616 5.353-5.463 4.465-9.201-.887-3.739-4.279-6.321-8.125-6.213-4.55.147-9.329.268-14.276.396-40.416 1.039-90.715 2.331-122.854 18.399-1.745.872-3.116 2.347-3.86 4.15-27.741 67.302-35.227 182.063-26.437 254.131.254 2.089 1.313 3.995 2.951 5.315 41.525 33.475 100.37 52.072 140.266 55.653.244.023.486.032.727.032 3.344 0 6.378-2.072 7.567-5.25l23.747-63.444c1.165-3.11.329-6.702-2.326-8.994-1.3-1.122-2.961-1.732-4.669-1.907-12.462-1.273-31.326-4.622-51.2-13.33 24.025 4.446 48.197 6.694 72.118 6.694h.064.002.065c23.812 0 47.877-2.227 71.793-6.634-19.722 8.547-38.452 11.858-50.864 13.127-1.708.175-3.37.783-4.672 1.901-2.661 2.287-3.501 5.882-2.338 8.995l23.747 63.587c1.188 3.182 4.223 5.256 7.569 5.256.241 0 .484-.011.727-.032 39.897-3.581 98.742-22.178 140.266-55.653 1.638-1.32 2.696-3.226 2.951-5.315 2.697-22.115 3.86-48.252 3.376-75.802z"/><path d="m180.547 183.242c-28.231 0-51.2 22.969-51.2 51.2s22.969 51.2 51.2 51.2 51.2-22.969 51.2-51.2-22.969-51.2-51.2-51.2zm0 86.232c-19.316 0-35.032-15.715-35.032-35.032s15.716-35.032 35.032-35.032 35.032 15.715 35.032 35.032-15.716 35.032-35.032 35.032z"/><path d="m331.453 183.242c-28.231 0-51.2 22.969-51.2 51.2s22.969 51.2 51.2 51.2 51.2-22.969 51.2-51.2-22.969-51.2-51.2-51.2zm0 86.232c-19.316 0-35.032-15.715-35.032-35.032s15.716-35.032 35.032-35.032 35.032 15.715 35.032 35.032-15.717 35.032-35.032 35.032z"/></g></svg>