<svg enable-background="new 0 0 324 63.8" height="63.8" viewBox="0 0 324 63.8" width="324" xmlns="http://www.w3.org/2000/svg"><path d="m37.6 12-18.8 12 18.8 12-18.8 12-18.8-12.1 18.8-12-18.8-11.9 18.8-12zm-18.9 39.8 18.8-12 18.8 12-18.8 12zm18.9-15.9 18.8-12-18.8-11.9 18.7-12 18.8 12-18.8 12 18.8 12-18.8 12z" fill="#0061ff"/><path d="m89.8 12h15.2c9.7 0 17.7 5.6 17.7 18.4v2.7c0 12.9-7.5 18.7-17.4 18.7h-15.5zm8.5 7.2v25.3h6.5c5.5 0 9.2-3.6 9.2-11.6v-2.1c0-8-3.9-11.6-9.5-11.6zm28.9.4h6.8l1.1 7.5c1.3-5.1 4.6-7.8 10.6-7.8h2.1v8.6h-3.5c-6.9 0-8.6 2.4-8.6 9.2v14.8h-8.4v-32.3zm22.3 16.8v-.9c0-10.8 6.9-16.7 16.3-16.7 9.6 0 16.3 5.9 16.3 16.7v.9c0 10.6-6.5 16.3-16.3 16.3-10.4-.1-16.3-5.7-16.3-16.3zm24-.1v-.8c0-6-3-9.6-7.8-9.6-4.7 0-7.8 3.3-7.8 9.6v.8c0 5.8 3 9.1 7.8 9.1 4.8-.1 7.8-3.3 7.8-9.1zm13-16.7h7l.8 6.1c1.7-4.1 5.3-6.9 10.6-6.9 8.2 0 13.6 5.9 13.6 16.8v.9c0 10.6-6 16.2-13.6 16.2-5.1 0-8.6-2.3-10.3-6v16.3h-8.2zm23.5 16.7v-.7c0-6.4-3.3-9.6-7.7-9.6-4.7 0-7.8 3.6-7.8 9.6v.6c0 5.7 3 9.3 7.7 9.3 4.8-.1 7.8-3.2 7.8-9.2zm20.9 9.6-.7 5.9h-7.2v-43h8.2v16.5c1.8-4.2 5.4-6.5 10.5-6.5 7.7.1 13.4 5.4 13.4 16.1v1c0 10.7-5.4 16.8-13.6 16.8-5.4-.1-8.9-2.6-10.6-6.8zm15.6-10v-.8c0-5.9-3.2-9.2-7.7-9.2-4.6 0-7.8 3.7-7.8 9.3v.7c0 6 3.1 9.5 7.7 9.5 4.9 0 7.8-3.1 7.8-9.5zm12.2.5v-.9c0-10.8 6.9-16.7 16.3-16.7 9.6 0 16.3 5.9 16.3 16.7v.9c0 10.6-6.6 16.3-16.3 16.3-10.4-.1-16.3-5.7-16.3-16.3zm24.1-.1v-.8c0-6-3-9.6-7.8-9.6-4.7 0-7.8 3.3-7.8 9.6v.8c0 5.8 3 9.1 7.8 9.1 4.8-.1 7.8-3.3 7.8-9.1zm19.5-1.2-11.3-15.5h9.7l6.5 9.7 6.6-9.7h9.6l-11.5 15.4 12.1 16.8h-9.5l-7.4-10.7-7.2 10.7h-9.9z"/></svg>