<?xml version="1.0" encoding="iso-8859-1"?>
<!-- Generator: Adobe Illustrator 19.0.0, SVG Export Plug-In . SVG Version: 6.00 Build 0)  -->
<svg xmlns="http://www.w3.org/2000/svg" xmlns:xlink="http://www.w3.org/1999/xlink" version="1.1" id="Capa_1" x="0px" y="0px" viewBox="0 0 512 512" style="enable-background:new 0 0 512 512;" xml:space="preserve" width="512px" height="512px">
<g>
	<g>
		<g>
			<path d="M494.933,17.067h-17.067V8.533c0-4.713-3.82-8.533-8.533-8.533H435.2c-4.713,0-8.533,3.82-8.533,8.533v8.533H409.6V8.533     C409.6,3.82,405.78,0,401.067,0H264.533C259.82,0,256,3.82,256,8.533v8.533h-17.067V8.533c0-4.713-3.82-8.533-8.533-8.533     h-34.133c-4.713,0-8.533,3.82-8.533,8.533v8.533h-17.067V8.533c0-4.713-3.82-8.533-8.533-8.533H128     c-4.713,0-8.533,3.82-8.533,8.533v8.533h-102.4C7.645,17.076,0.009,24.712,0,34.133v460.8     c0.009,9.422,7.645,17.057,17.067,17.067h477.867c9.422-0.009,17.057-7.645,17.067-17.067v-460.8     C511.991,24.712,504.355,17.076,494.933,17.067z M443.733,17.067h17.071l0.003,8.499L460.8,25.6l0.007,0.034l0.006,17.033     h-17.079V17.067z M273.067,17.067h119.467l0.003,8.521l-0.003,0.012l0.003,0.013l0.01,34.121H273.067V17.067z M204.8,17.067     h17.071l0.003,8.499l-0.007,0.034l0.007,0.034l0.006,17.033H204.8V17.067z M136.533,17.067H153.6l0.003,8.521L153.6,25.6     l0.003,0.013l0.01,34.121h-17.079V17.067z M494.933,315.733h-25.6c-4.713,0-8.533,3.82-8.533,8.533v42.667H307.2V247.467h153.6     v42.667c0,4.713,3.82,8.533,8.533,8.533h25.6V315.733z M494.933,281.6h-17.067v-34.133c-0.009-9.422-7.645-17.057-17.067-17.067     H307.2c-9.422,0.009-17.057,7.645-17.067,17.067v119.467c0.009,9.422,7.645,17.057,17.067,17.067h153.6     c9.422-0.009,17.057-7.645,17.067-17.067V332.8h17.067v162.133H17.067v-460.8h102.4v25.6c0.009,9.422,7.645,17.057,17.067,17.067     v17.067c0,4.713,3.82,8.533,8.533,8.533s8.533-3.821,8.533-8.533V76.8c9.422-0.009,17.057-7.645,17.067-17.067v-25.6h17.067     v8.533c0.009,9.422,7.645,17.057,17.067,17.067h17.067c9.422-0.009,17.057-7.645,17.067-17.067v-8.533H256v25.6     c0.009,9.422,7.645,17.057,17.067,17.067h119.467c9.422-0.009,17.057-7.645,17.067-17.067v-25.6h17.067v8.533     c0.009,9.422,7.645,17.057,17.067,17.067H460.8c9.422-0.009,17.057-7.645,17.067-17.067v-8.533h17.067V281.6z" fill="#FFFFFF"/>
			<path d="M93.867,68.267c3.45-0.014,6.556-2.096,7.879-5.282c1.323-3.187,0.606-6.856-1.82-9.31     c-2.441-2.462-6.129-3.201-9.331-1.872c-3.202,1.329-5.281,4.464-5.261,7.931c-0.022,2.27,0.87,4.453,2.475,6.058     C89.413,67.397,91.597,68.289,93.867,68.267z" fill="#FFFFFF"/>
			<path d="M42.667,68.267c3.45-0.014,6.556-2.096,7.879-5.282c1.323-3.187,0.606-6.856-1.82-9.31     c-2.441-2.462-6.129-3.201-9.331-1.872c-3.202,1.329-5.281,4.464-5.261,7.931c-0.022,2.27,0.87,4.453,2.475,6.058     C38.213,67.397,40.397,68.289,42.667,68.267z" fill="#FFFFFF"/>
			<path d="M51.2,307.2h17.067c9.422-0.009,17.057-7.645,17.067-17.067v-153.6c-0.009-9.422-7.645-17.057-17.067-17.067H51.2     c-9.422,0.009-17.057,7.645-17.067,17.067v153.6C34.143,299.555,41.778,307.191,51.2,307.2z M51.2,136.533h17.067l0.012,153.6     H51.2V136.533z" fill="#FFFFFF"/>
			<path d="M119.467,307.2h17.067c9.422-0.009,17.057-7.645,17.067-17.067v-153.6c-0.009-9.422-7.645-17.057-17.067-17.067h-17.067     c-9.422,0.009-17.057,7.645-17.067,17.067v153.6C102.409,299.555,110.045,307.191,119.467,307.2z M119.467,136.533h17.067     l0.012,153.6h-17.079V136.533z" fill="#FFFFFF"/>
			<path d="M85.333,349.867c0-14.138-11.461-25.6-25.6-25.6s-25.6,11.462-25.6,25.6s11.461,25.6,25.6,25.6     C73.865,375.451,85.318,363.999,85.333,349.867z M59.733,358.4c-4.713,0-8.533-3.82-8.533-8.533s3.82-8.533,8.533-8.533     s8.533,3.82,8.533,8.533C68.261,354.577,64.444,358.394,59.733,358.4z" fill="#FFFFFF"/>
			<path d="M119.467,401.067H85.333c-9.422,0.009-17.057,7.645-17.067,17.067v34.133c0.009,9.422,7.645,17.057,17.067,17.067h34.133     c9.422-0.009,17.057-7.645,17.067-17.067v-34.133C136.524,408.712,128.888,401.076,119.467,401.067z M85.333,452.267v-34.133     h34.133l0.012,34.133H85.333z" fill="#FFFFFF"/>
			<path d="M153.6,341.333c-0.009-9.422-7.645-17.057-17.067-17.067h-17.067c-9.422,0.009-17.057,7.645-17.067,17.067V358.4     c0.009,9.422,7.645,17.057,17.067,17.067h17.067c9.422-0.009,17.057-7.645,17.067-17.067V341.333z M119.467,358.4v-17.067h17.067     l0.012,17.067H119.467z" fill="#FFFFFF"/>
			<path d="M309.727,96.327c-9.359-4.437-20.471-2.778-28.127,4.198c-9.646-8.878-24.487-8.878-34.133,0     c-9.646-8.878-24.487-8.878-34.133,0c-7.657-6.951-18.753-8.593-28.095-4.158c-9.342,4.436-15.083,14.072-14.536,24.399     c0.547,10.327,7.273,19.303,17.031,22.728v52.773c0.009,9.422,7.645,17.057,17.067,17.067h85.333     c9.422-0.009,17.057-7.645,17.067-17.067v-52.772c9.78-3.411,16.528-12.394,17.082-22.736S319.086,100.763,309.727,96.327z      M196.267,128c-4.713,0-8.533-3.82-8.533-8.533c0.006-4.71,3.823-8.527,8.533-8.533c4.713,0,8.533,3.82,8.533,8.533     S200.979,128,196.267,128z M221.867,196.267H204.8v-52.772c3.151-1.119,6.05-2.847,8.533-5.086     c2.483,2.239,5.383,3.966,8.533,5.085V196.267z M230.4,128c-4.713,0-8.533-3.82-8.533-8.533c0.006-4.71,3.823-8.527,8.533-8.533     c4.713,0,8.533,3.82,8.533,8.533S235.113,128,230.4,128z M256,196.267h-17.067v-52.772c3.151-1.119,6.05-2.847,8.533-5.086     c2.483,2.239,5.383,3.966,8.533,5.085V196.267z M264.533,128c-4.713,0-8.533-3.82-8.533-8.533     c0.006-4.71,3.823-8.527,8.533-8.533c4.713,0,8.533,3.82,8.533,8.533S269.246,128,264.533,128z M290.133,196.267h-17.067v-52.772     c3.151-1.119,6.05-2.847,8.533-5.086c2.483,2.239,5.383,3.966,8.533,5.085V196.267z M298.667,128     c-4.713,0-8.533-3.82-8.533-8.533c0.006-4.71,3.823-8.527,8.533-8.533c4.713,0,8.533,3.82,8.533,8.533S303.38,128,298.667,128z" fill="#FFFFFF"/>
			<path d="M460.8,163.706v-27.172c0-4.713-3.821-8.533-8.533-8.533h-102.4c-4.713,0-8.533,3.82-8.533,8.533v27.172     c-10.199,3.592-17.033,13.214-17.067,24.028c-0.044,10.117,5.899,19.303,15.146,23.408c9.247,4.105,20.046,2.353,27.521-4.466     c9.646,8.878,24.487,8.878,34.133,0c9.646,8.878,24.487,8.878,34.133,0c7.657,6.951,18.753,8.593,28.095,4.157     c9.342-4.436,15.083-14.072,14.536-24.399S470.558,167.13,460.8,163.706z M349.867,196.267c-4.713,0-8.533-3.82-8.533-8.533     c0.006-4.71,3.823-8.527,8.533-8.533c4.713,0,8.533,3.82,8.533,8.533S354.58,196.267,349.867,196.267z M384,196.267     c-4.713,0-8.533-3.82-8.533-8.533s3.82-8.533,8.533-8.533s8.533,3.82,8.533,8.533C392.527,192.444,388.71,196.261,384,196.267z      M418.133,196.267c-4.713,0-8.533-3.82-8.533-8.533s3.82-8.533,8.533-8.533s8.533,3.82,8.533,8.533     C426.661,192.444,422.844,196.261,418.133,196.267z M401.067,168.792c-9.646-8.878-24.487-8.878-34.133,0     c-2.483-2.239-5.383-3.967-8.533-5.086v-18.639h85.333v18.639c-3.151,1.119-6.05,2.847-8.533,5.086     C425.554,159.914,410.713,159.914,401.067,168.792z M452.267,196.267c-4.713,0-8.533-3.82-8.533-8.533s3.821-8.533,8.533-8.533     c4.713,0,8.533,3.82,8.533,8.533C460.794,192.444,456.977,196.261,452.267,196.267z" fill="#FFFFFF"/>
			<path d="M324.946,276.308c0.187,0.545,0.447,1.062,0.771,1.538c0.341,0.425,0.683,0.85,1.025,1.279c3.365,3.3,8.752,3.3,12.117,0     c0.366-0.405,0.707-0.833,1.021-1.279c0.324-0.476,0.583-0.993,0.771-1.538c0.245-0.485,0.418-1.003,0.513-1.537     c0.098-0.563,0.155-1.133,0.171-1.704c0-4.713-3.821-8.533-8.533-8.533c-4.713,0-8.533,3.821-8.533,8.533     c0.014,0.572,0.071,1.141,0.171,1.704C324.529,275.306,324.7,275.824,324.946,276.308z" fill="#FFFFFF"/>
			<path d="M337.579,334.25c-0.476-0.324-0.993-0.583-1.538-0.771c-0.484-0.246-1.002-0.417-1.537-0.508     c-1.663-0.348-3.393-0.171-4.95,0.508c-1.033,0.434-1.984,1.041-2.813,1.796c-3.3,3.365-3.3,8.752,0,12.117     c0.83,0.752,1.781,1.358,2.813,1.792c1.027,0.438,2.13,0.67,3.246,0.683c0.571-0.016,1.141-0.073,1.704-0.171     c0.535-0.095,1.053-0.267,1.537-0.512c0.544-0.188,1.062-0.447,1.538-0.771c0.425-0.337,0.85-0.679,1.279-1.021     c3.3-3.365,3.3-8.752,0-12.117C338.429,334.933,338.004,334.592,337.579,334.25z" fill="#FFFFFF"/>
			<path d="M431.954,265.213c-1.033,0.434-1.984,1.041-2.813,1.795c-1.559,1.635-2.443,3.799-2.475,6.059     c0.013,0.572,0.071,1.141,0.171,1.704c0.091,0.535,0.263,1.053,0.508,1.537c0.187,0.545,0.447,1.062,0.771,1.538     c0.341,0.425,0.683,0.85,1.025,1.279c0.83,0.752,1.781,1.358,2.813,1.792c1.027,0.438,2.13,0.67,3.246,0.683     c2.259-0.034,4.422-0.918,6.059-2.475c0.366-0.406,0.707-0.833,1.021-1.279c0.324-0.476,0.583-0.993,0.771-1.538     c0.245-0.485,0.418-1.003,0.513-1.537c0.098-0.563,0.155-1.133,0.17-1.705c-0.033-2.259-0.917-4.422-2.475-6.059     C438.786,264.621,435.138,263.917,431.954,265.213z" fill="#FFFFFF"/>
			<path d="M439.979,334.25c-0.476-0.324-0.993-0.583-1.538-0.771c-0.508-0.258-1.056-0.43-1.621-0.508     c-2.781-0.506-5.636,0.35-7.679,2.304c-2.461,2.441-3.201,6.129-1.872,9.331c1.329,3.202,4.464,5.281,7.93,5.261     c0.544-0.016,1.086-0.073,1.621-0.171c0.564-0.082,1.112-0.255,1.621-0.512c0.544-0.188,1.062-0.447,1.538-0.771     c0.425-0.337,0.85-0.679,1.279-1.021c3.3-3.365,3.3-8.752,0-12.117C440.829,334.933,440.404,334.592,439.979,334.25z" fill="#FFFFFF"/>
			<path d="M384,281.6c-4.713,0-8.533,3.82-8.533,8.533v34.133c0,4.713,3.82,8.533,8.533,8.533s8.533-3.82,8.533-8.533v-34.133     C392.533,285.421,388.713,281.6,384,281.6z" fill="#FFFFFF"/>
			<path d="M349.867,298.667H332.8c-4.713,0-8.533,3.82-8.533,8.533s3.821,8.533,8.533,8.533h17.067c4.713,0,8.533-3.82,8.533-8.533     S354.58,298.667,349.867,298.667z" fill="#FFFFFF"/>
			<path d="M435.2,298.667h-17.067c-4.713,0-8.533,3.82-8.533,8.533s3.82,8.533,8.533,8.533H435.2c4.713,0,8.533-3.82,8.533-8.533     S439.913,298.667,435.2,298.667z" fill="#FFFFFF"/>
			<path d="M187.733,384H256c9.422-0.009,17.057-7.645,17.067-17.067V247.467c-0.009-9.422-7.645-17.057-17.067-17.067h-68.267     c-9.422,0.009-17.057,7.645-17.067,17.067v119.467C170.676,376.355,178.312,383.991,187.733,384z M187.733,247.467H256     l0.012,119.467h-68.279V247.467z" fill="#FFFFFF"/>
			<path d="M226.646,265.983c-0.476-0.324-0.993-0.583-1.538-0.771c-0.484-0.246-1.002-0.417-1.537-0.508     c-2.81-0.574-5.721,0.29-7.763,2.304c-1.559,1.635-2.443,3.799-2.475,6.058c0.013,0.572,0.071,1.141,0.171,1.704     c0.091,0.535,0.263,1.053,0.508,1.537c0.188,0.545,0.447,1.062,0.771,1.538c0.341,0.425,0.683,0.85,1.025,1.279     c1.636,1.558,3.8,2.441,6.059,2.475c0.571-0.016,1.141-0.073,1.704-0.171c0.535-0.095,1.053-0.268,1.537-0.512     c0.544-0.188,1.062-0.447,1.538-0.771c0.425-0.337,0.85-0.679,1.279-1.021c0.341-0.429,0.683-0.854,1.021-1.279     c0.324-0.476,0.583-0.993,0.771-1.538c0.245-0.485,0.418-1.003,0.513-1.537c0.098-0.563,0.155-1.133,0.171-1.704     c-0.033-2.259-0.917-4.422-2.475-6.059C227.52,266.641,227.092,266.299,226.646,265.983z" fill="#FFFFFF"/>
			<path d="M227.925,301.141c-0.429-0.341-0.854-0.683-1.279-1.025c-0.476-0.324-0.993-0.583-1.538-0.771     c-0.484-0.246-1.002-0.417-1.537-0.508c-1.663-0.348-3.393-0.171-4.95,0.508c-2.139,0.784-3.824,2.469-4.608,4.608     c-0.437,1.027-0.668,2.13-0.68,3.247c0.013,0.572,0.071,1.141,0.171,1.704c0.091,0.535,0.263,1.053,0.508,1.537     c0.188,0.544,0.447,1.062,0.771,1.538c0.341,0.425,0.683,0.85,1.025,1.279c0.83,0.752,1.781,1.358,2.813,1.792     c1.027,0.438,2.13,0.67,3.246,0.683c0.571-0.016,1.141-0.073,1.704-0.171c0.535-0.095,1.053-0.268,1.537-0.513     c0.544-0.187,1.062-0.447,1.538-0.771c0.425-0.338,0.85-0.679,1.279-1.021c0.341-0.429,0.683-0.854,1.021-1.279     c0.324-0.476,0.583-0.993,0.771-1.538c0.245-0.485,0.418-1.003,0.513-1.537c0.098-0.563,0.155-1.133,0.171-1.704     c-0.013-1.116-0.245-2.219-0.683-3.246C229.283,302.922,228.677,301.971,227.925,301.141z" fill="#FFFFFF"/>
			<path d="M226.646,334.25c-0.476-0.324-0.993-0.583-1.538-0.771c-0.484-0.246-1.002-0.417-1.537-0.508     c-1.663-0.348-3.393-0.171-4.95,0.508c-1.033,0.434-1.984,1.041-2.813,1.796c-3.3,3.365-3.3,8.752,0,12.117     c0.83,0.752,1.781,1.358,2.813,1.792c1.027,0.438,2.13,0.67,3.246,0.683c0.571-0.016,1.141-0.073,1.704-0.171     c0.535-0.095,1.053-0.267,1.537-0.512c0.544-0.188,1.062-0.447,1.538-0.771c0.425-0.337,0.85-0.679,1.279-1.021     c3.3-3.365,3.3-8.752,0-12.117C227.496,334.933,227.071,334.592,226.646,334.25z" fill="#FFFFFF"/>
			<path d="M153.6,418.133v34.133c0.009,9.422,7.645,17.057,17.067,17.067H460.8c9.422-0.009,17.057-7.645,17.067-17.067v-34.133     c-0.009-9.422-7.645-17.057-17.067-17.067H170.667C161.245,401.076,153.609,408.712,153.6,418.133z M460.813,452.267h-17.079     v-8.533c0-4.713-3.82-8.533-8.533-8.533s-8.533,3.82-8.533,8.533v8.533H409.6v-8.533c0-4.713-3.82-8.533-8.533-8.533     s-8.533,3.82-8.533,8.533v8.533h-17.067v-8.533c0-4.713-3.82-8.533-8.533-8.533s-8.533,3.82-8.533,8.533v8.533h-17.067v-8.533     c0-4.713-3.821-8.533-8.533-8.533c-4.713,0-8.533,3.82-8.533,8.533v8.533H307.2v-8.533c0-4.713-3.82-8.533-8.533-8.533     s-8.533,3.82-8.533,8.533v8.533h-17.067v-8.533c0-4.713-3.821-8.533-8.533-8.533s-8.533,3.82-8.533,8.533v8.533h-17.067v-8.533     c0-4.713-3.82-8.533-8.533-8.533s-8.533,3.82-8.533,8.533v8.533H204.8v-8.533c0-4.713-3.82-8.533-8.533-8.533     s-8.533,3.82-8.533,8.533v8.533h-17.067v-34.133H460.8L460.813,452.267z" fill="#FFFFFF"/>
			<path d="M45.908,461.479c-2.079-0.85-4.409-0.85-6.487,0c-1.054,0.393-2.013,1.005-2.813,1.796     c-2.461,2.441-3.201,6.129-1.872,9.331s4.464,5.281,7.931,5.261c2.259-0.034,4.422-0.918,6.059-2.475     c0.752-0.831,1.358-1.783,1.792-2.817c0.437-1.026,0.669-2.127,0.683-3.242c-0.033-2.259-0.917-4.422-2.475-6.059     C47.909,462.503,46.953,461.893,45.908,461.479z" fill="#FFFFFF"/>
		</g>
	</g>
</g>
<g>
</g>
<g>
</g>
<g>
</g>
<g>
</g>
<g>
</g>
<g>
</g>
<g>
</g>
<g>
</g>
<g>
</g>
<g>
</g>
<g>
</g>
<g>
</g>
<g>
</g>
<g>
</g>
<g>
</g>
</svg>
