<?xml version="1.0" encoding="iso-8859-1"?>
<!-- Generator: Adobe Illustrator 18.0.0, SVG Export Plug-In . SVG Version: 6.00 Build 0)  -->
<!DOCTYPE svg PUBLIC "-//W3C//DTD SVG 1.1//EN" "http://www.w3.org/Graphics/SVG/1.1/DTD/svg11.dtd">
<svg xmlns="http://www.w3.org/2000/svg" xmlns:xlink="http://www.w3.org/1999/xlink" version="1.1" id="Capa_1" x="0px" y="0px" viewBox="0 0 481.312 481.312" style="enable-background:new 0 0 481.312 481.312;" xml:space="preserve" width="512px" height="512px">
<path d="M407.01,302.241c0,0,27.682-1.201,47.718,22.117c-9.036-18.994-26.246-44.85-58.531-67.179c0,0,34.147-1.421,54.046,30.933  c-0.102-0.558-0.203-1.118-0.305-1.676c-8.511-46.398-41.558-84.724-86.23-99.879c-0.052-0.007-0.085-0.024-0.135-0.042  c0,0,31.981-10.644,59.851,14.264c0-0.007-0.017-0.016-0.017-0.024c-10.001-22.134-26.754-40.29-47.973-52.085  c-9.119-5.068-19.459-9.764-31.118-13.706c0,0,20.103-6.633,42.288,2.961c0-0.017-0.017-0.042-0.035-0.059  c-15.279-20.323-36.888-34.69-61.492-40.967c-22.962-5.855-49.106-8.697-74.674-3.232c0,0,18.393-32.049,53.168-31.82  c-36.398-20.779-84.776-32.548-118.061-7.387C135.946,20.485,85.689,1.135,26.584,0c37.159,19.748,151.666,58.524,293.299,238.49  c-47.786-48.86-105.183-99.642-165.559-139.516c-5.094,14.704-7.496,31.862-5.517,50.974c7.496-15.347,18.935-23.13,18.935-23.13  c-0.068,0.203-0.135,0.405-0.203,0.608c-12.048,35.975-6.312,75.529,15.415,106.632c0.373,0.523,0.745,1.057,1.118,1.589  c6.43-21.836,22.657-32.971,22.657-32.971c-2.724,8.062-4.789,15.822-6.278,23.25c-3.316,16.397,1.608,33.378,13.198,45.434l0,0  c0.322,0.338,0.678,0.626,0.998,0.963c2.183-34.13,26.989-65.434,26.989-65.434c-4.112,27.092-3.536,50.738-0.963,70.232  c1.826,13.917,9.424,26.449,20.932,34.494c0.1,0.068,0.203,0.144,0.305,0.211c0.811-24.468,15.737-39.891,15.737-39.891  c-0.695,5.576-1.118,10.965-1.303,16.168c-0.78,20.415,9.475,39.697,26.837,50.468c2.048-22.37,15.449-36.339,15.449-36.339  c-3.096,25.231,7.834,50.139,28.479,64.961c15.702,11.27,30.238,23.531,42.759,38.124c-2.487-39.427-17.733-62.939-17.733-62.939  c32.454,34.13,36.551,62.169,32.201,82.103c10.119,15.898,18.055,34.444,23.047,56.831c11.54-18.674,20.102-43.826,24.806-72.838  C458.875,367.355,441.275,325.94,407.01,302.241z" fill="#FFFFFF"/>
<g>
</g>
<g>
</g>
<g>
</g>
<g>
</g>
<g>
</g>
<g>
</g>
<g>
</g>
<g>
</g>
<g>
</g>
<g>
</g>
<g>
</g>
<g>
</g>
<g>
</g>
<g>
</g>
<g>
</g>
</svg>
