<?xml version="1.0" encoding="iso-8859-1"?>
<!-- Generator: Adobe Illustrator 19.0.0, SVG Export Plug-In . SVG Version: 6.00 Build 0)  -->
<svg xmlns="http://www.w3.org/2000/svg" xmlns:xlink="http://www.w3.org/1999/xlink" version="1.1" id="Layer_1" x="0px" y="0px" viewBox="0 0 512 512" style="enable-background:new 0 0 512 512;" xml:space="preserve" width="512px" height="512px">
<g>
	<g>
		<g>
			<path d="M162.137,286.219c1.274,0.737,2.667,1.088,4.04,1.088c2.792,0,5.507-1.448,7.005-4.038l25.59-44.24     c2.237-3.864,0.915-8.81-2.95-11.045c-3.864-2.236-8.81-0.915-11.045,2.95l-25.59,44.24     C156.95,279.038,158.272,283.983,162.137,286.219z" fill="#FFFFFF"/>
			<path d="M315.686,227.993c-3.86,2.244-5.169,7.193-2.924,11.053l25.728,44.24c1.5,2.581,4.21,4.021,6.996,4.021     c1.38,0,2.778-0.354,4.057-1.096c3.86-2.244,5.169-7.193,2.924-11.053l-25.728-44.24     C324.494,227.057,319.545,225.749,315.686,227.993z" fill="#FFFFFF"/>
			<path d="M280.141,379.255h-51.384c-4.466,0-8.084,3.618-8.084,8.084c0,4.466,3.618,8.084,8.084,8.084h51.384     c4.465,0,8.084-3.62,8.084-8.084C288.225,382.874,284.606,379.255,280.141,379.255z" fill="#FFFFFF"/>
			<path d="M316.582,210.246l24.594-24.594c3.157-3.157,3.157-8.275,0-11.433l-9.377-9.377c2.489-4.709,4.527-9.626,6.097-14.705     h13.255c4.466,0,8.084-3.618,8.084-8.084v-34.782c0-4.466-3.618-8.084-8.084-8.084h-13.255     c-1.569-5.078-3.607-9.993-6.098-14.704l9.377-9.375c3.158-3.157,3.158-8.276,0.001-11.433l-24.594-24.596     c-1.517-1.517-3.573-2.368-5.717-2.368s-4.201,0.852-5.717,2.367l-9.377,9.378c-4.71-2.489-9.626-4.527-14.704-6.097V29.103     c0-4.466-3.618-8.084-8.084-8.084H238.2c-4.466,0-8.084,3.618-8.084,8.084v13.256c-5.078,1.569-9.994,3.608-14.704,6.097     l-9.377-9.378c-1.518-1.516-3.572-2.367-5.717-2.367s-4.202,0.852-5.717,2.368l-24.593,24.595c-3.157,3.156-3.157,8.274,0,11.431     l9.377,9.377c-2.489,4.709-4.528,9.626-6.098,14.705h-13.255c-4.466,0-8.084,3.618-8.084,8.084v34.783     c0,4.466,3.619,8.084,8.084,8.084h13.255c1.569,5.081,3.608,9.997,6.097,14.705l-9.375,9.378c-3.157,3.156-3.157,8.274,0,11.431     l24.593,24.594c3.156,3.157,8.275,3.158,11.432,0.001l9.378-9.377c4.709,2.488,9.625,4.526,14.704,6.097v13.254     c0,4.466,3.618,8.084,8.084,8.084h34.784c4.465,0,8.084-3.62,8.086-8.085v-13.254c5.079-1.57,9.995-3.608,14.704-6.097     l9.378,9.377C308.305,213.402,313.424,213.402,316.582,210.246z M292.796,183.925c-6.675,4.202-13.947,7.215-21.609,8.961     c-3.679,0.838-6.29,4.109-6.29,7.883v11.367h-18.615v-11.365c0-3.774-2.611-7.046-6.289-7.883     c-7.662-1.746-14.933-4.76-21.609-8.961c-3.195-2.01-7.353-1.542-10.021,1.125l-8.047,8.045l-13.161-13.162l8.044-8.047     c2.669-2.669,3.135-6.828,1.125-10.022c-4.201-6.673-7.215-13.944-8.961-21.609c-0.838-3.679-4.109-6.29-7.883-6.29h-11.369     v-18.614h11.369c3.774,0,7.046-2.611,7.883-6.29c1.745-7.662,4.759-14.933,8.961-21.61c2.009-3.194,1.544-7.352-1.125-10.021     l-8.044-8.045l13.161-13.163l8.045,8.046c2.67,2.668,6.827,3.136,10.022,1.125c6.679-4.203,13.948-7.218,21.606-8.958     c3.68-0.836,6.292-4.109,6.292-7.883v-11.37h18.615v11.367c0,3.773,2.612,7.046,6.292,7.883     c7.658,1.742,14.928,4.756,21.606,8.958c3.195,2.01,7.353,1.542,10.022-1.125l8.045-8.046l13.162,13.164l-8.044,8.043     c-2.669,2.669-3.137,6.827-1.128,10.022c4.205,6.682,7.219,13.951,8.959,21.607c0.836,3.68,4.108,6.292,7.883,6.292h11.37v18.614     h-11.37c-3.775,0-7.046,2.612-7.883,6.292c-1.742,7.658-4.756,14.929-8.958,21.609c-2.009,3.194-1.544,7.353,1.125,10.022     l8.045,8.044l-13.162,13.162l-8.046-8.045C300.15,182.383,295.991,181.915,292.796,183.925z" fill="#FFFFFF"/>
			<path d="M255.594,74.027c-20.395,0-38.707,12.138-46.652,30.924c-2.643,6.249-3.983,12.88-3.983,19.713     c0,3.839,0.446,7.705,1.324,11.484c0.296,1.276,0.649,2.561,1.047,3.819c1.345,4.258,5.888,6.62,10.145,5.27     c4.258-1.346,6.617-5.889,5.27-10.145c-0.271-0.857-0.51-1.729-0.71-2.598c-0.602-2.586-0.905-5.22-0.905-7.83     c0-4.656,0.911-9.169,2.706-13.413c5.411-12.79,17.878-21.055,31.764-21.055c13.884,0,26.351,8.264,31.762,21.055     c1.795,4.244,2.706,8.757,2.706,13.413c0,2.967-0.38,5.92-1.13,8.774c-2.122,8.091-7.132,15.137-14.106,19.834     c-0.402,0.269-0.809,0.528-1.209,0.775l-0.399,0.239c-0.306,0.182-0.618,0.361-0.957,0.549l-0.402,0.223     c-0.399,0.213-0.801,0.421-1.284,0.659c-0.021,0.01-0.052,0.024-0.084,0.04c-0.438,0.21-0.884,0.409-1.284,0.581l-0.462,0.192     c-0.341,0.14-0.68,0.276-1.001,0.396l-0.465,0.174c-0.462,0.167-0.927,0.327-1.347,0.458c-0.052,0.014-0.058,0.016-0.109,0.033     c-0.475,0.148-0.958,0.282-1.397,0.398l-0.501,0.124c-0.356,0.088-0.714,0.171-1.103,0.253l-0.455,0.097     c-0.492,0.098-0.985,0.19-1.482,0.266c-0.023,0.003-0.046,0.008-0.068,0.011c-0.5,0.077-1.005,0.137-1.518,0.192l-0.475,0.044     c-0.383,0.036-0.769,0.066-1.156,0.088l-0.471,0.027c-1.048,0.047-2.163,0.049-3.187,0.001l-0.496-0.028     c-0.387-0.024-0.773-0.053-1.172-0.089l-0.465-0.044c-0.504-0.054-1.007-0.114-1.504-0.19c-0.028-0.004-0.057-0.009-0.077-0.012     c-0.496-0.077-0.99-0.167-1.508-0.272l-0.318-0.068c-0.013-0.002-0.129-0.027-0.142-0.03c-0.359-0.075-0.716-0.157-1.099-0.253     l-0.429-0.107c-0.464-0.122-0.925-0.25-1.411-0.4c-0.031-0.009-0.067-0.021-0.088-0.027c-0.472-0.147-0.937-0.307-1.398-0.473     l-0.441-0.165c-0.345-0.129-0.686-0.265-1.068-0.423l-0.37-0.153c-0.453-0.195-0.901-0.396-1.342-0.607     c-0.029-0.013-0.054-0.026-0.066-0.031c-0.439-0.211-0.868-0.433-1.276-0.653l-0.446-0.247c-0.314-0.174-0.624-0.352-0.983-0.566     l-0.334-0.201c-0.413-0.254-0.82-0.513-1.222-0.783c-3.701-2.495-8.727-1.511-11.22,2.192c-2.494,3.703-1.511,8.727,2.192,11.22     c0.583,0.393,1.176,0.77,1.788,1.147l0.591,0.355c0.456,0.271,0.916,0.536,1.355,0.778l0.61,0.337     c0.624,0.334,1.256,0.66,1.898,0.97c0.04,0.021,0.08,0.04,0.12,0.059c0.639,0.306,1.288,0.597,1.99,0.899l0.604,0.25     c0.494,0.204,0.992,0.4,1.517,0.598l0.622,0.231c0.651,0.235,1.307,0.46,2.016,0.682c0.041,0.014,0.107,0.034,0.141,0.045     c0.694,0.215,1.398,0.412,2.15,0.61l0.628,0.157c0.536,0.133,1.077,0.259,1.691,0.389c0.206,0.044,0.411,0.088,0.591,0.123     c0.68,0.137,1.367,0.263,2.122,0.382c0.045,0.006,0.101,0.015,0.156,0.024c0.739,0.113,1.489,0.206,2.234,0.286l0.7,0.068     c0.564,0.053,1.131,0.095,1.699,0.128l0.7,0.04c0.773,0.036,1.549,0.058,2.344,0.058c0.782,0,1.556-0.024,2.361-0.058     l0.675-0.039c0.568-0.033,1.134-0.075,1.683-0.127l0.71-0.068c0.751-0.082,1.5-0.175,2.24-0.287     c0.025-0.003,0.049-0.008,0.073-0.012c0.738-0.112,1.472-0.246,2.185-0.389c0.203-0.04,0.404-0.083,0.678-0.142     c0.545-0.115,1.084-0.24,1.657-0.383l0.64-0.159c0.707-0.186,1.411-0.384,2.07-0.589c0.017-0.005,0.107-0.033,0.124-0.039     c0.697-0.217,1.385-0.452,2.07-0.698l0.646-0.239c0.501-0.19,0.999-0.387,1.537-0.608l0.608-0.253     c0.653-0.281,1.301-0.572,1.94-0.878c0.017-0.008,0.033-0.015,0.051-0.024c0.025-0.013,0.058-0.028,0.071-0.034     c0.639-0.31,1.271-0.636,1.913-0.98l0.566-0.314c0.466-0.257,0.926-0.522,1.441-0.828l0.543-0.327     c0.599-0.37,1.192-0.747,1.779-1.143c10.238-6.896,17.594-17.246,20.715-29.141c1.101-4.192,1.659-8.525,1.659-12.878     c0-6.833-1.34-13.464-3.983-19.713C294.303,86.166,275.99,74.027,255.594,74.027z" fill="#FFFFFF"/>
			<path d="M503.916,361.863H490.66c-1.568-5.078-3.606-9.993-6.097-14.704l9.377-9.376c3.158-3.156,3.158-8.275,0.001-11.432     l-24.594-24.596c-1.517-1.517-3.573-2.368-5.717-2.368c-2.145,0-4.201,0.852-5.717,2.367l-9.377,9.378     c-4.71-2.489-9.626-4.527-14.704-6.097v-13.255c0-4.466-3.618-8.084-8.084-8.084h-34.784c-4.466,0-8.084,3.618-8.084,8.084     v13.255c-5.078,1.569-9.994,3.607-14.704,6.097l-9.377-9.378c-1.518-1.516-3.573-2.367-5.717-2.367     c-2.144,0-4.202,0.852-5.717,2.368l-24.593,24.595c-3.157,3.156-3.157,8.274,0,11.431l9.377,9.377     c-2.489,4.709-4.528,9.626-6.098,14.705h-13.255c-4.466,0-8.084,3.618-8.084,8.084v34.783c0,4.466,3.618,8.084,8.084,8.084     h13.255c1.569,5.081,3.608,9.997,6.097,14.705l-9.376,9.378c-3.157,3.156-3.157,8.274,0,11.431l24.593,24.594     c3.157,3.158,8.276,3.157,11.433,0.001l9.378-9.377c4.708,2.488,9.625,4.526,14.704,6.097v13.254     c0,4.466,3.618,8.084,8.084,8.084h34.784c4.466,0,8.084-3.618,8.085-8.084v-13.253c5.079-1.57,9.995-3.608,14.704-6.097     l9.378,9.377c3.155,3.156,8.274,3.156,11.432,0l24.594-24.594c1.516-1.518,2.367-3.573,2.367-5.717     c0-2.145-0.852-4.201-2.367-5.717l-9.378-9.377c2.49-4.71,4.528-9.626,6.097-14.705h13.256c4.466,0,8.084-3.619,8.084-8.084     v-34.783C512,365.482,508.382,361.863,503.916,361.863z M495.832,396.644h-11.369c-3.776,0-7.047,2.612-7.884,6.293     c-1.741,7.657-4.755,14.927-8.957,21.607c-2.009,3.194-1.544,7.353,1.125,10.022l8.045,8.044l-13.162,13.162l-8.046-8.045     c-2.668-2.668-6.826-3.136-10.021-1.125c-6.677,4.202-13.947,7.215-21.609,8.961c-3.679,0.838-6.289,4.109-6.289,7.883v11.367     H399.05h-0.002v-11.368c0-3.775-2.611-7.046-6.289-7.883c-7.663-1.746-14.933-4.76-21.609-8.961     c-3.195-2.01-7.353-1.542-10.021,1.125l-8.046,8.045l-13.161-13.162l8.044-8.047c2.669-2.669,3.135-6.828,1.125-10.022     c-4.201-6.672-7.215-13.944-8.961-21.609c-0.838-3.679-4.109-6.289-7.883-6.289h-11.369v-18.614h11.369     c3.775,0,7.046-2.611,7.883-6.289c1.745-7.663,4.76-14.933,8.961-21.61c2.009-3.194,1.544-7.352-1.125-10.021l-8.044-8.045     l13.161-13.163l8.045,8.046c2.67,2.668,6.827,3.136,10.022,1.125c6.679-4.204,13.949-7.218,21.606-8.958     c3.68-0.838,6.292-4.11,6.292-7.884v-11.37h18.615v11.37c0,3.774,2.612,7.047,6.292,7.884c7.657,1.742,14.928,4.756,21.606,8.958     c3.195,2.01,7.353,1.542,10.022-1.125l8.045-8.046l13.162,13.164l-8.044,8.043c-2.669,2.669-3.137,6.827-1.127,10.022     c4.205,6.682,7.219,13.951,8.958,21.606c0.838,3.681,4.109,6.293,7.884,6.293h11.371V396.644z" fill="#FFFFFF"/>
			<path d="M408.355,336.704c-20.395,0-38.707,12.139-46.652,30.925c-2.643,6.249-3.983,12.88-3.983,19.713     c0,3.839,0.445,7.705,1.324,11.484c0.296,1.276,0.649,2.561,1.047,3.819c1.346,4.258,5.89,6.62,10.145,5.27     c4.258-1.346,6.617-5.888,5.27-10.145c-0.271-0.857-0.51-1.729-0.71-2.598c-0.601-2.586-0.905-5.22-0.905-7.83     c0-4.656,0.911-9.169,2.706-13.413c5.411-12.79,17.878-21.055,31.764-21.055c13.884,0,26.351,8.264,31.762,21.055     c1.795,4.244,2.706,8.757,2.706,13.413c0,2.967-0.38,5.92-1.13,8.774c-2.122,8.091-7.132,15.137-14.106,19.834     c-0.402,0.269-0.809,0.528-1.23,0.787l-0.379,0.226c-0.307,0.182-0.618,0.361-0.957,0.549l-0.402,0.223     c-0.398,0.213-0.8,0.421-1.283,0.659c-0.021,0.01-0.052,0.024-0.084,0.04c-0.438,0.21-0.884,0.409-1.284,0.581l-0.462,0.192     c-0.341,0.14-0.68,0.276-1.001,0.396l-0.465,0.174c-0.462,0.166-0.927,0.327-1.347,0.458c-0.012,0.003-0.097,0.03-0.109,0.033     c-0.475,0.147-0.958,0.281-1.397,0.398l-0.501,0.124c-0.355,0.088-0.712,0.171-1.073,0.247c-0.014,0.002-0.098,0.021-0.112,0.024     l-0.373,0.079c-0.492,0.098-0.985,0.19-1.482,0.266c-0.024,0.003-0.046,0.008-0.069,0.011c-0.5,0.075-1.005,0.137-1.518,0.192     l-0.474,0.044c-0.383,0.036-0.768,0.066-1.155,0.088l-0.47,0.027c-1.047,0.049-2.163,0.047-3.187,0.001l-0.496-0.028     c-0.388-0.024-0.773-0.053-1.172-0.089l-0.465-0.044c-0.504-0.054-1.007-0.114-1.504-0.19c-0.028-0.004-0.056-0.009-0.077-0.012     c-0.495-0.077-0.99-0.167-1.507-0.272l-0.318-0.068c-0.013-0.002-0.129-0.027-0.142-0.03c-0.36-0.075-0.716-0.157-1.099-0.253     l-0.429-0.107c-0.463-0.122-0.925-0.25-1.411-0.4c-0.031-0.009-0.067-0.02-0.088-0.027c-0.472-0.147-0.937-0.307-1.398-0.473     l-0.441-0.165c-0.345-0.129-0.686-0.265-1.068-0.422l-0.37-0.153c-0.453-0.195-0.901-0.396-1.342-0.607     c-0.029-0.013-0.054-0.026-0.066-0.031c-0.435-0.21-0.863-0.431-1.292-0.663l-0.429-0.237c-0.314-0.174-0.624-0.352-0.983-0.566     l-0.334-0.201c-0.413-0.254-0.82-0.513-1.222-0.783c-3.701-2.495-8.726-1.512-11.22,2.192c-2.494,3.703-1.511,8.727,2.192,11.22     c0.583,0.395,1.176,0.771,1.788,1.148l0.591,0.355c0.456,0.271,0.916,0.537,1.447,0.829l0.515,0.284     c0.625,0.335,1.258,0.662,1.902,0.973c0.04,0.02,0.08,0.04,0.12,0.059c0.639,0.306,1.288,0.597,1.99,0.899l0.604,0.25     c0.494,0.204,0.992,0.4,1.517,0.598l0.622,0.231c0.651,0.235,1.307,0.46,2.016,0.682c0.041,0.014,0.107,0.034,0.141,0.045     c0.694,0.214,1.398,0.412,2.15,0.61l0.628,0.157c0.536,0.133,1.077,0.259,1.691,0.389c0.206,0.044,0.411,0.088,0.591,0.123     c0.68,0.136,1.367,0.262,2.122,0.38c0.045,0.006,0.101,0.015,0.156,0.024c0.739,0.113,1.489,0.206,2.234,0.286l0.7,0.068     c0.564,0.053,1.131,0.095,1.699,0.128l0.7,0.04c0.773,0.036,1.549,0.058,2.344,0.058c0.781,0,1.558-0.023,2.355-0.059     l0.675-0.039c0.568-0.033,1.134-0.075,1.683-0.127l0.71-0.068c0.751-0.082,1.5-0.174,2.24-0.287     c0.025-0.003,0.05-0.008,0.073-0.012c0.738-0.112,1.472-0.246,2.185-0.389c0.217-0.043,0.433-0.089,0.678-0.142     c0.545-0.115,1.084-0.24,1.657-0.383l0.64-0.16c0.707-0.187,1.41-0.384,2.194-0.627c0.697-0.217,1.385-0.453,2.07-0.698     l0.646-0.239c0.501-0.19,0.999-0.387,1.537-0.608l0.609-0.253c0.653-0.28,1.301-0.571,1.94-0.877     c0.017-0.008,0.033-0.015,0.051-0.024c0.025-0.012,0.058-0.028,0.071-0.034c0.639-0.31,1.271-0.636,1.913-0.98l0.566-0.314     c0.465-0.255,0.925-0.521,1.472-0.846l0.512-0.307c0.599-0.369,1.192-0.746,1.779-1.141     c10.238-6.896,17.594-17.246,20.715-29.141c1.101-4.192,1.659-8.525,1.659-12.878c0-6.833-1.34-13.464-3.983-19.713     C447.064,348.843,428.751,336.704,408.355,336.704z" fill="#FFFFFF"/>
			<path d="M199.204,361.864h-13.255c-1.569-5.078-3.607-9.994-6.097-14.704l9.377-9.376c1.517-1.517,2.368-3.573,2.368-5.717     c0-2.145-0.852-4.201-2.367-5.716l-24.595-24.596c-1.518-1.517-3.573-2.368-5.717-2.368c-2.145,0-4.201,0.852-5.717,2.367     l-9.377,9.378c-4.71-2.489-9.626-4.527-14.704-6.097v-13.255c0-4.466-3.618-8.084-8.084-8.084H86.252     c-4.466,0-8.084,3.618-8.084,8.084v13.255c-5.078,1.569-9.994,3.607-14.704,6.097l-9.377-9.378     c-1.518-1.516-3.572-2.367-5.717-2.367s-4.202,0.852-5.717,2.368L18.06,326.351c-3.157,3.156-3.157,8.274,0,11.431l9.377,9.377     c-2.489,4.709-4.528,9.626-6.098,14.705H8.084c-4.466,0-8.084,3.618-8.084,8.084v34.783c0,4.466,3.619,8.084,8.084,8.084h13.255     c1.569,5.081,3.608,9.997,6.097,14.705l-9.376,9.378c-3.157,3.156-3.157,8.274,0,11.431l24.593,24.594     c3.156,3.158,8.275,3.157,11.432,0.001l9.378-9.377c4.709,2.488,9.625,4.526,14.704,6.097v13.254     c0,4.466,3.618,8.084,8.084,8.084h34.784c4.466,0,8.084-3.618,8.085-8.084v-13.252c5.079-1.57,9.995-3.608,14.704-6.097     l9.378,9.377c3.155,3.156,8.275,3.156,11.431,0l24.595-24.594c1.517-1.518,2.368-3.573,2.368-5.717     c0-2.145-0.852-4.202-2.368-5.717l-9.377-9.377c2.489-4.709,4.527-9.625,6.097-14.705h13.256c4.466,0,8.084-3.618,8.084-8.084     v-34.783C207.288,365.483,203.669,361.864,199.204,361.864z M191.12,396.644h-11.37c-3.775,0-7.047,2.612-7.884,6.292     c-1.743,7.662-4.757,14.931-8.958,21.607c-2.01,3.195-1.544,7.354,1.126,10.023l8.044,8.044l-13.162,13.162l-8.046-8.045     c-2.668-2.668-6.826-3.136-10.021-1.125c-6.675,4.202-13.947,7.215-21.609,8.961c-3.679,0.838-6.289,4.109-6.289,7.883v11.367     H94.337v-11.368c0-3.775-2.611-7.046-6.289-7.883c-7.662-1.746-14.933-4.76-21.609-8.961c-3.195-2.01-7.353-1.542-10.021,1.125     l-8.046,8.045L35.21,442.61l8.044-8.046c2.669-2.669,3.134-6.828,1.125-10.022c-4.201-6.672-7.215-13.944-8.961-21.609     c-0.838-3.679-4.109-6.289-7.883-6.289H16.168v-18.614h11.367c3.774,0,7.046-2.611,7.883-6.289     c1.745-7.663,4.759-14.933,8.961-21.61c2.009-3.194,1.544-7.352-1.125-10.021l-8.044-8.045l13.161-13.163l8.045,8.047     c2.669,2.668,6.827,3.136,10.022,1.125c6.679-4.204,13.949-7.218,21.606-8.958c3.68-0.838,6.292-4.11,6.292-7.884v-11.37h18.615     v11.37c0,3.774,2.612,7.047,6.292,7.884c7.658,1.742,14.928,4.756,21.606,8.958c3.195,2.01,7.352,1.542,10.022-1.125l8.045-8.047     l13.163,13.163l-8.045,8.044c-2.67,2.669-3.137,6.828-1.126,10.022c4.204,6.68,7.218,13.95,8.958,21.607     c0.837,3.68,4.109,6.292,7.884,6.292h11.37V396.644z" fill="#FFFFFF"/>
			<path d="M103.64,336.703c-20.395,0-38.707,12.139-46.652,30.925c-2.643,6.249-3.983,12.88-3.983,19.713     c0,3.839,0.446,7.705,1.324,11.484c0.296,1.276,0.649,2.561,1.047,3.819c1.346,4.258,5.892,6.62,10.145,5.27     c4.258-1.346,6.617-5.888,5.27-10.145c-0.271-0.857-0.509-1.729-0.71-2.598c-0.601-2.586-0.905-5.22-0.905-7.83     c0-4.656,0.911-9.169,2.706-13.413c5.411-12.79,17.878-21.055,31.764-21.055c13.884,0,26.351,8.264,31.762,21.055     c1.795,4.244,2.706,8.757,2.706,13.413c0,2.967-0.38,5.92-1.13,8.774c-2.122,8.091-7.132,15.137-14.106,19.834     c-0.402,0.269-0.81,0.529-1.209,0.775l-0.399,0.239c-0.306,0.182-0.618,0.361-0.957,0.549l-0.395,0.22     c-0.401,0.215-0.805,0.424-1.29,0.662c-0.021,0.01-0.052,0.024-0.084,0.04c-0.438,0.21-0.884,0.409-1.284,0.581l-0.462,0.192     c-0.341,0.14-0.68,0.276-1.001,0.396l-0.465,0.174c-0.462,0.166-0.927,0.327-1.347,0.458c-0.052,0.015-0.058,0.016-0.109,0.033     c-0.476,0.147-0.958,0.281-1.397,0.398l-0.501,0.124c-0.355,0.088-0.712,0.171-1.102,0.253l-0.455,0.097     c-0.492,0.098-0.985,0.19-1.482,0.266c-0.023,0.003-0.045,0.008-0.068,0.011c-0.5,0.075-1.005,0.137-1.518,0.192l-0.474,0.044     c-0.383,0.036-0.768,0.066-1.155,0.088l-0.471,0.027c-1.047,0.049-2.163,0.047-3.187,0.001l-0.496-0.028     c-0.387-0.024-0.773-0.053-1.172-0.089l-0.465-0.044c-0.504-0.054-1.007-0.114-1.504-0.19c-0.028-0.004-0.056-0.009-0.077-0.012     c-0.496-0.077-0.99-0.167-1.507-0.272l-0.46-0.098c-0.359-0.075-0.716-0.157-1.099-0.253l-0.429-0.107     c-0.464-0.122-0.925-0.25-1.411-0.4c-0.031-0.009-0.067-0.021-0.088-0.027c-0.472-0.147-0.937-0.307-1.398-0.473l-0.441-0.165     c-0.345-0.129-0.685-0.265-1.068-0.423l-0.37-0.153c-0.453-0.195-0.901-0.396-1.342-0.607c-0.029-0.013-0.054-0.026-0.066-0.031     c-0.439-0.211-0.868-0.433-1.276-0.653l-0.446-0.247c-0.314-0.174-0.624-0.352-0.925-0.531l-0.391-0.235     c-0.413-0.254-0.82-0.513-1.222-0.783c-3.702-2.495-8.727-1.512-11.22,2.192c-2.494,3.703-1.512,8.727,2.192,11.22     c0.583,0.393,1.176,0.771,1.808,1.159l0.571,0.343c0.456,0.271,0.916,0.536,1.355,0.778l0.61,0.337     c0.624,0.334,1.256,0.66,1.898,0.97c0.04,0.02,0.08,0.04,0.12,0.059c0.639,0.306,1.288,0.597,1.99,0.899l0.604,0.25     c0.494,0.204,0.992,0.4,1.517,0.598l0.622,0.231c0.651,0.235,1.307,0.46,2.016,0.682c0.041,0.014,0.107,0.034,0.141,0.045     c0.694,0.214,1.398,0.412,2.15,0.61l0.628,0.157c0.536,0.133,1.077,0.259,1.603,0.371l0.121,0.025     c0.195,0.042,0.39,0.084,0.558,0.116c0.68,0.136,1.367,0.262,2.122,0.38c0.045,0.006,0.101,0.015,0.156,0.024     c0.739,0.113,1.489,0.206,2.234,0.286l0.701,0.068c0.564,0.053,1.131,0.095,1.699,0.128l0.7,0.04     c0.773,0.036,1.549,0.058,2.344,0.058c0.781,0,1.556-0.023,2.352-0.059l0.675-0.039c0.569-0.033,1.135-0.075,1.684-0.127     l0.71-0.068c0.751-0.082,1.499-0.174,2.24-0.287c0.025-0.003,0.05-0.008,0.073-0.012c0.738-0.112,1.472-0.246,2.185-0.389     c0.203-0.04,0.404-0.083,0.678-0.142c0.545-0.115,1.084-0.24,1.657-0.383l0.64-0.16c0.707-0.186,1.411-0.385,2.07-0.589     c0.017-0.005,0.107-0.033,0.124-0.039c0.697-0.217,1.385-0.453,2.07-0.698l0.646-0.239c0.501-0.19,0.999-0.387,1.537-0.608     l0.608-0.253c0.653-0.28,1.301-0.571,1.94-0.877c0.017-0.008,0.033-0.015,0.051-0.024c0.025-0.012,0.058-0.028,0.071-0.034     c0.639-0.309,1.268-0.634,1.934-0.991l0.547-0.303c0.466-0.257,0.925-0.522,1.441-0.828l0.543-0.327     c0.599-0.369,1.192-0.746,1.779-1.141c10.238-6.896,17.594-17.246,20.715-29.141c1.101-4.192,1.659-8.525,1.659-12.878     c0-6.833-1.34-13.464-3.983-19.713C142.349,348.842,124.035,336.703,103.64,336.703z" fill="#FFFFFF"/>
		</g>
	</g>
</g>
<g>
</g>
<g>
</g>
<g>
</g>
<g>
</g>
<g>
</g>
<g>
</g>
<g>
</g>
<g>
</g>
<g>
</g>
<g>
</g>
<g>
</g>
<g>
</g>
<g>
</g>
<g>
</g>
<g>
</g>
</svg>
