<svg enable-background="new 0 0 512 512" height="512" viewBox="0 0 512 512" width="512" xmlns="http://www.w3.org/2000/svg"><g fill="#fff"><path d="m162.137 286.219c1.274.737 2.667 1.088 4.04 1.088 2.792 0 5.507-1.448 7.005-4.038l25.59-44.24c2.237-3.864.915-8.81-2.95-11.045-3.864-2.236-8.81-.915-11.045 2.95l-25.59 44.24c-2.237 3.864-.915 8.809 2.95 11.045z"/><path d="m315.686 227.993c-3.86 2.244-5.169 7.193-2.924 11.053l25.728 44.24c1.5 2.581 4.21 4.021 6.996 4.021 1.38 0 2.778-.354 4.057-1.096 3.86-2.244 5.169-7.193 2.924-11.053l-25.728-44.24c-2.245-3.861-7.194-5.169-11.053-2.925z"/><path d="m280.141 379.255h-51.384c-4.466 0-8.084 3.618-8.084 8.084s3.618 8.084 8.084 8.084h51.384c4.465 0 8.084-3.62 8.084-8.084 0-4.465-3.619-8.084-8.084-8.084z"/><path d="m316.582 210.246 24.594-24.594c3.157-3.157 3.157-8.275 0-11.433l-9.377-9.377c2.489-4.709 4.527-9.626 6.097-14.705h13.255c4.466 0 8.084-3.618 8.084-8.084v-34.782c0-4.466-3.618-8.084-8.084-8.084h-13.255c-1.569-5.078-3.607-9.993-6.098-14.704l9.377-9.375c3.158-3.157 3.158-8.276.001-11.433l-24.594-24.596c-1.517-1.517-3.573-2.368-5.717-2.368s-4.201.852-5.717 2.367l-9.377 9.378c-4.71-2.489-9.626-4.527-14.704-6.097v-13.256c0-4.466-3.618-8.084-8.084-8.084h-34.783c-4.466 0-8.084 3.618-8.084 8.084v13.256c-5.078 1.569-9.994 3.608-14.704 6.097l-9.377-9.378c-1.518-1.516-3.572-2.367-5.717-2.367s-4.202.852-5.717 2.368l-24.593 24.595c-3.157 3.156-3.157 8.274 0 11.431l9.377 9.377c-2.489 4.709-4.528 9.626-6.098 14.705h-13.255c-4.466 0-8.084 3.618-8.084 8.084v34.783c0 4.466 3.619 8.084 8.084 8.084h13.255c1.569 5.081 3.608 9.997 6.097 14.705l-9.375 9.378c-3.157 3.156-3.157 8.274 0 11.431l24.593 24.594c3.156 3.157 8.275 3.158 11.432.001l9.378-9.377c4.709 2.488 9.625 4.526 14.704 6.097v13.254c0 4.466 3.618 8.084 8.084 8.084h34.784c4.465 0 8.084-3.62 8.086-8.085v-13.254c5.079-1.57 9.995-3.608 14.704-6.097l9.378 9.377c3.153 3.156 8.272 3.156 11.43 0zm-23.786-26.321c-6.675 4.202-13.947 7.215-21.609 8.961-3.679.838-6.29 4.109-6.29 7.883v11.367h-18.615v-11.365c0-3.774-2.611-7.046-6.289-7.883-7.662-1.746-14.933-4.76-21.609-8.961-3.195-2.01-7.353-1.542-10.021 1.125l-8.047 8.045-13.161-13.162 8.044-8.047c2.669-2.669 3.135-6.828 1.125-10.022-4.201-6.673-7.215-13.944-8.961-21.609-.838-3.679-4.109-6.29-7.883-6.29h-11.369v-18.614h11.369c3.774 0 7.046-2.611 7.883-6.29 1.745-7.662 4.759-14.933 8.961-21.61 2.009-3.194 1.544-7.352-1.125-10.021l-8.044-8.045 13.161-13.163 8.045 8.046c2.67 2.668 6.827 3.136 10.022 1.125 6.679-4.203 13.948-7.218 21.606-8.958 3.68-.836 6.292-4.109 6.292-7.883v-11.37h18.615v11.367c0 3.773 2.612 7.046 6.292 7.883 7.658 1.742 14.928 4.756 21.606 8.958 3.195 2.01 7.353 1.542 10.022-1.125l8.045-8.046 13.162 13.164-8.044 8.043c-2.669 2.669-3.137 6.827-1.128 10.022 4.205 6.682 7.219 13.951 8.959 21.607.836 3.68 4.108 6.292 7.883 6.292h11.37v18.614h-11.37c-3.775 0-7.046 2.612-7.883 6.292-1.742 7.658-4.756 14.929-8.958 21.609-2.009 3.194-1.544 7.353 1.125 10.022l8.045 8.044-13.162 13.162-8.046-8.045c-2.664-2.664-6.823-3.132-10.018-1.122z"/><path d="m255.594 74.027c-20.395 0-38.707 12.138-46.652 30.924-2.643 6.249-3.983 12.88-3.983 19.713 0 3.839.446 7.705 1.324 11.484.296 1.276.649 2.561 1.047 3.819 1.345 4.258 5.888 6.62 10.145 5.27 4.258-1.346 6.617-5.889 5.27-10.145-.271-.857-.51-1.729-.71-2.598-.602-2.586-.905-5.22-.905-7.83 0-4.656.911-9.169 2.706-13.413 5.411-12.79 17.878-21.055 31.764-21.055 13.884 0 26.351 8.264 31.762 21.055 1.795 4.244 2.706 8.757 2.706 13.413 0 2.967-.38 5.92-1.13 8.774-2.122 8.091-7.132 15.137-14.106 19.834-.402.269-.809.528-1.209.775l-.399.239c-.306.182-.618.361-.957.549l-.402.223c-.399.213-.801.421-1.284.659-.021.01-.052.024-.084.04-.438.21-.884.409-1.284.581l-.462.192c-.341.14-.68.276-1.001.396l-.465.174c-.462.167-.927.327-1.347.458-.052.014-.058.016-.109.033-.475.148-.958.282-1.397.398l-.501.124c-.356.088-.714.171-1.103.253l-.455.097c-.492.098-.985.19-1.482.266-.023.003-.046.008-.068.011-.5.077-1.005.137-1.518.192l-.475.044c-.383.036-.769.066-1.156.088l-.471.027c-1.048.047-2.163.049-3.187.001l-.496-.028c-.387-.024-.773-.053-1.172-.089l-.465-.044c-.504-.054-1.007-.114-1.504-.19-.028-.004-.057-.009-.077-.012-.496-.077-.99-.167-1.508-.272l-.318-.068c-.013-.002-.129-.027-.142-.03-.359-.075-.716-.157-1.099-.253l-.429-.107c-.464-.122-.925-.25-1.411-.4-.031-.009-.067-.021-.088-.027-.472-.147-.937-.307-1.398-.473l-.441-.165c-.345-.129-.686-.265-1.068-.423l-.37-.153c-.453-.195-.901-.396-1.342-.607-.029-.013-.054-.026-.066-.031-.439-.211-.868-.433-1.276-.653l-.446-.247c-.314-.174-.624-.352-.983-.566l-.334-.201c-.413-.254-.82-.513-1.222-.783-3.701-2.495-8.727-1.511-11.22 2.192-2.494 3.703-1.511 8.727 2.192 11.22.583.393 1.176.77 1.788 1.147l.591.355c.456.271.916.536 1.355.778l.61.337c.624.334 1.256.66 1.898.97.04.021.08.04.12.059.639.306 1.288.597 1.99.899l.604.25c.494.204.992.4 1.517.598l.622.231c.651.235 1.307.46 2.016.682.041.014.107.034.141.045.694.215 1.398.412 2.15.61l.628.157c.536.133 1.077.259 1.691.389.206.044.411.088.591.123.68.137 1.367.263 2.122.382.045.006.101.015.156.024.739.113 1.489.206 2.234.286l.7.068c.564.053 1.131.095 1.699.128l.7.04c.773.036 1.549.058 2.344.058.782 0 1.556-.024 2.361-.058l.675-.039c.568-.033 1.134-.075 1.683-.127l.71-.068c.751-.082 1.5-.175 2.24-.287.025-.003.049-.008.073-.012.738-.112 1.472-.246 2.185-.389.203-.04.404-.083.678-.142.545-.115 1.084-.24 1.657-.383l.64-.159c.707-.186 1.411-.384 2.07-.589.017-.005.107-.033.124-.039.697-.217 1.385-.452 2.07-.698l.646-.239c.501-.19.999-.387 1.537-.608l.608-.253c.653-.281 1.301-.572 1.94-.878.017-.008.033-.015.051-.024.025-.013.058-.028.071-.034.639-.31 1.271-.636 1.913-.98l.566-.314c.466-.257.926-.522 1.441-.828l.543-.327c.599-.37 1.192-.747 1.779-1.143 10.238-6.896 17.594-17.246 20.715-29.141 1.101-4.192 1.659-8.525 1.659-12.878 0-6.833-1.34-13.464-3.983-19.713-7.949-18.782-26.262-30.921-46.658-30.921z"/><path d="m503.916 361.863h-13.256c-1.568-5.078-3.606-9.993-6.097-14.704l9.377-9.376c3.158-3.156 3.158-8.275.001-11.432l-24.594-24.596c-1.517-1.517-3.573-2.368-5.717-2.368-2.145 0-4.201.852-5.717 2.367l-9.377 9.378c-4.71-2.489-9.626-4.527-14.704-6.097v-13.255c0-4.466-3.618-8.084-8.084-8.084h-34.784c-4.466 0-8.084 3.618-8.084 8.084v13.255c-5.078 1.569-9.994 3.607-14.704 6.097l-9.377-9.378c-1.518-1.516-3.573-2.367-5.717-2.367s-4.202.852-5.717 2.368l-24.593 24.595c-3.157 3.156-3.157 8.274 0 11.431l9.377 9.377c-2.489 4.709-4.528 9.626-6.098 14.705h-13.255c-4.466 0-8.084 3.618-8.084 8.084v34.783c0 4.466 3.618 8.084 8.084 8.084h13.255c1.569 5.081 3.608 9.997 6.097 14.705l-9.376 9.378c-3.157 3.156-3.157 8.274 0 11.431l24.593 24.594c3.157 3.158 8.276 3.157 11.433.001l9.378-9.377c4.708 2.488 9.625 4.526 14.704 6.097v13.254c0 4.466 3.618 8.084 8.084 8.084h34.784c4.466 0 8.084-3.618 8.085-8.084v-13.253c5.079-1.57 9.995-3.608 14.704-6.097l9.378 9.377c3.155 3.156 8.274 3.156 11.432 0l24.594-24.594c1.516-1.518 2.367-3.573 2.367-5.717 0-2.145-.852-4.201-2.367-5.717l-9.378-9.377c2.49-4.71 4.528-9.626 6.097-14.705h13.256c4.466 0 8.084-3.619 8.084-8.084v-34.783c0-4.465-3.618-8.084-8.084-8.084zm-8.084 34.781h-11.369c-3.776 0-7.047 2.612-7.884 6.293-1.741 7.657-4.755 14.927-8.957 21.607-2.009 3.194-1.544 7.353 1.125 10.022l8.045 8.044-13.162 13.162-8.046-8.045c-2.668-2.668-6.826-3.136-10.021-1.125-6.677 4.202-13.947 7.215-21.609 8.961-3.679.838-6.289 4.109-6.289 7.883v11.367h-18.615-.002v-11.368c0-3.775-2.611-7.046-6.289-7.883-7.663-1.746-14.933-4.76-21.609-8.961-3.195-2.01-7.353-1.542-10.021 1.125l-8.046 8.045-13.161-13.162 8.044-8.047c2.669-2.669 3.135-6.828 1.125-10.022-4.201-6.672-7.215-13.944-8.961-21.609-.838-3.679-4.109-6.289-7.883-6.289h-11.369v-18.614h11.369c3.775 0 7.046-2.611 7.883-6.289 1.745-7.663 4.76-14.933 8.961-21.61 2.009-3.194 1.544-7.352-1.125-10.021l-8.044-8.045 13.161-13.163 8.045 8.046c2.67 2.668 6.827 3.136 10.022 1.125 6.679-4.204 13.949-7.218 21.606-8.958 3.68-.838 6.292-4.11 6.292-7.884v-11.37h18.615v11.37c0 3.774 2.612 7.047 6.292 7.884 7.657 1.742 14.928 4.756 21.606 8.958 3.195 2.01 7.353 1.542 10.022-1.125l8.045-8.046 13.162 13.164-8.044 8.043c-2.669 2.669-3.137 6.827-1.127 10.022 4.205 6.682 7.219 13.951 8.958 21.606.838 3.681 4.109 6.293 7.884 6.293h11.371z"/><path d="m408.355 336.704c-20.395 0-38.707 12.139-46.652 30.925-2.643 6.249-3.983 12.88-3.983 19.713 0 3.839.445 7.705 1.324 11.484.296 1.276.649 2.561 1.047 3.819 1.346 4.258 5.89 6.62 10.145 5.27 4.258-1.346 6.617-5.888 5.27-10.145-.271-.857-.51-1.729-.71-2.598-.601-2.586-.905-5.22-.905-7.83 0-4.656.911-9.169 2.706-13.413 5.411-12.79 17.878-21.055 31.764-21.055 13.884 0 26.351 8.264 31.762 21.055 1.795 4.244 2.706 8.757 2.706 13.413 0 2.967-.38 5.92-1.13 8.774-2.122 8.091-7.132 15.137-14.106 19.834-.402.269-.809.528-1.23.787l-.379.226c-.307.182-.618.361-.957.549l-.402.223c-.398.213-.8.421-1.283.659-.021.01-.052.024-.084.04-.438.21-.884.409-1.284.581l-.462.192c-.341.14-.68.276-1.001.396l-.465.174c-.462.166-.927.327-1.347.458-.012.003-.097.03-.109.033-.475.147-.958.281-1.397.398l-.501.124c-.355.088-.712.171-1.073.247-.014.002-.098.021-.112.024l-.373.079c-.492.098-.985.19-1.482.266-.024.003-.046.008-.069.011-.5.075-1.005.137-1.518.192l-.474.044c-.383.036-.768.066-1.155.088l-.47.027c-1.047.049-2.163.047-3.187.001l-.496-.028c-.388-.024-.773-.053-1.172-.089l-.465-.044c-.504-.054-1.007-.114-1.504-.19-.028-.004-.056-.009-.077-.012-.495-.077-.99-.167-1.507-.272l-.318-.068c-.013-.002-.129-.027-.142-.03-.36-.075-.716-.157-1.099-.253l-.429-.107c-.463-.122-.925-.25-1.411-.4-.031-.009-.067-.02-.088-.027-.472-.147-.937-.307-1.398-.473l-.441-.165c-.345-.129-.686-.265-1.068-.422l-.37-.153c-.453-.195-.901-.396-1.342-.607-.029-.013-.054-.026-.066-.031-.435-.21-.863-.431-1.292-.663l-.429-.237c-.314-.174-.624-.352-.983-.566l-.334-.201c-.413-.254-.82-.513-1.222-.783-3.701-2.495-8.726-1.512-11.22 2.192-2.494 3.703-1.511 8.727 2.192 11.22.583.395 1.176.771 1.788 1.148l.591.355c.456.271.916.537 1.447.829l.515.284c.625.335 1.258.662 1.902.973.04.02.08.04.12.059.639.306 1.288.597 1.99.899l.604.25c.494.204.992.4 1.517.598l.622.231c.651.235 1.307.46 2.016.682.041.014.107.034.141.045.694.214 1.398.412 2.15.61l.628.157c.536.133 1.077.259 1.691.389.206.044.411.088.591.123.68.136 1.367.262 2.122.38.045.006.101.015.156.024.739.113 1.489.206 2.234.286l.7.068c.564.053 1.131.095 1.699.128l.7.04c.773.036 1.549.058 2.344.058.781 0 1.558-.023 2.355-.059l.675-.039c.568-.033 1.134-.075 1.683-.127l.71-.068c.751-.082 1.5-.174 2.24-.287.025-.003.05-.008.073-.012.738-.112 1.472-.246 2.185-.389.217-.043.433-.089.678-.142.545-.115 1.084-.24 1.657-.383l.64-.16c.707-.187 1.41-.384 2.194-.627.697-.217 1.385-.453 2.07-.698l.646-.239c.501-.19.999-.387 1.537-.608l.609-.253c.653-.28 1.301-.571 1.94-.877.017-.008.033-.015.051-.024.025-.012.058-.028.071-.034.639-.31 1.271-.636 1.913-.98l.566-.314c.465-.255.925-.521 1.472-.846l.512-.307c.599-.369 1.192-.746 1.779-1.141 10.238-6.896 17.594-17.246 20.715-29.141 1.101-4.192 1.659-8.525 1.659-12.878 0-6.833-1.34-13.464-3.983-19.713-7.949-18.787-26.262-30.926-46.658-30.926z"/><path d="m199.204 361.864h-13.255c-1.569-5.078-3.607-9.994-6.097-14.704l9.377-9.376c1.517-1.517 2.368-3.573 2.368-5.717 0-2.145-.852-4.201-2.367-5.716l-24.595-24.596c-1.518-1.517-3.573-2.368-5.717-2.368-2.145 0-4.201.852-5.717 2.367l-9.377 9.378c-4.71-2.489-9.626-4.527-14.704-6.097v-13.255c0-4.466-3.618-8.084-8.084-8.084h-34.784c-4.466 0-8.084 3.618-8.084 8.084v13.255c-5.078 1.569-9.994 3.607-14.704 6.097l-9.377-9.378c-1.518-1.516-3.572-2.367-5.717-2.367s-4.202.852-5.717 2.368l-24.593 24.596c-3.157 3.156-3.157 8.274 0 11.431l9.377 9.377c-2.489 4.709-4.528 9.626-6.098 14.705h-13.255c-4.466 0-8.084 3.618-8.084 8.084v34.783c0 4.466 3.619 8.084 8.084 8.084h13.255c1.569 5.081 3.608 9.997 6.097 14.705l-9.376 9.378c-3.157 3.156-3.157 8.274 0 11.431l24.593 24.594c3.156 3.158 8.275 3.157 11.432.001l9.378-9.377c4.709 2.488 9.625 4.526 14.704 6.097v13.254c0 4.466 3.618 8.084 8.084 8.084h34.784c4.466 0 8.084-3.618 8.085-8.084v-13.252c5.079-1.57 9.995-3.608 14.704-6.097l9.378 9.377c3.155 3.156 8.275 3.156 11.431 0l24.595-24.594c1.517-1.518 2.368-3.573 2.368-5.717 0-2.145-.852-4.202-2.368-5.717l-9.377-9.377c2.489-4.709 4.527-9.625 6.097-14.705h13.256c4.466 0 8.084-3.618 8.084-8.084v-34.783c0-4.466-3.619-8.085-8.084-8.085zm-8.084 34.78h-11.37c-3.775 0-7.047 2.612-7.884 6.292-1.743 7.662-4.757 14.931-8.958 21.607-2.01 3.195-1.544 7.354 1.126 10.023l8.044 8.044-13.162 13.162-8.046-8.045c-2.668-2.668-6.826-3.136-10.021-1.125-6.675 4.202-13.947 7.215-21.609 8.961-3.679.838-6.289 4.109-6.289 7.883v11.367h-18.614v-11.368c0-3.775-2.611-7.046-6.289-7.883-7.662-1.746-14.933-4.76-21.609-8.961-3.195-2.01-7.353-1.542-10.021 1.125l-8.046 8.045-13.162-13.161 8.044-8.046c2.669-2.669 3.134-6.828 1.125-10.022-4.201-6.672-7.215-13.944-8.961-21.609-.838-3.679-4.109-6.289-7.883-6.289h-11.367v-18.614h11.367c3.774 0 7.046-2.611 7.883-6.289 1.745-7.663 4.759-14.933 8.961-21.61 2.009-3.194 1.544-7.352-1.125-10.021l-8.044-8.045 13.161-13.163 8.045 8.047c2.669 2.668 6.827 3.136 10.022 1.125 6.679-4.204 13.949-7.218 21.606-8.958 3.68-.838 6.292-4.11 6.292-7.884v-11.37h18.615v11.37c0 3.774 2.612 7.047 6.292 7.884 7.658 1.742 14.928 4.756 21.606 8.958 3.195 2.01 7.352 1.542 10.022-1.125l8.045-8.047 13.163 13.163-8.045 8.044c-2.67 2.669-3.137 6.828-1.126 10.022 4.204 6.68 7.218 13.95 8.958 21.607.837 3.68 4.109 6.292 7.884 6.292h11.37z"/><path d="m103.64 336.703c-20.395 0-38.707 12.139-46.652 30.925-2.643 6.249-3.983 12.88-3.983 19.713 0 3.839.446 7.705 1.324 11.484.296 1.276.649 2.561 1.047 3.819 1.346 4.258 5.892 6.62 10.145 5.27 4.258-1.346 6.617-5.888 5.27-10.145-.271-.857-.509-1.729-.71-2.598-.601-2.586-.905-5.22-.905-7.83 0-4.656.911-9.169 2.706-13.413 5.411-12.79 17.878-21.055 31.764-21.055 13.884 0 26.351 8.264 31.762 21.055 1.795 4.244 2.706 8.757 2.706 13.413 0 2.967-.38 5.92-1.13 8.774-2.122 8.091-7.132 15.137-14.106 19.834-.402.269-.81.529-1.209.775l-.399.239c-.306.182-.618.361-.957.549l-.395.22c-.401.215-.805.424-1.29.662-.021.01-.052.024-.084.04-.438.21-.884.409-1.284.581l-.462.192c-.341.14-.68.276-1.001.396l-.465.174c-.462.166-.927.327-1.347.458-.052.015-.058.016-.109.033-.476.147-.958.281-1.397.398l-.501.124c-.355.088-.712.171-1.102.253l-.455.097c-.492.098-.985.19-1.482.266-.023.003-.045.008-.068.011-.5.075-1.005.137-1.518.192l-.474.044c-.383.036-.768.066-1.155.088l-.471.027c-1.047.049-2.163.047-3.187.001l-.496-.028c-.387-.024-.773-.053-1.172-.089l-.465-.044c-.504-.054-1.007-.114-1.504-.19-.028-.004-.056-.009-.077-.012-.496-.077-.99-.167-1.507-.272l-.46-.098c-.359-.075-.716-.157-1.099-.253l-.429-.107c-.464-.122-.925-.25-1.411-.4-.031-.009-.067-.021-.088-.027-.472-.147-.937-.307-1.398-.473l-.441-.165c-.345-.129-.685-.265-1.068-.423l-.37-.153c-.453-.195-.901-.396-1.342-.607-.029-.013-.054-.026-.066-.031-.439-.211-.868-.433-1.276-.653l-.446-.247c-.314-.174-.624-.352-.925-.531l-.391-.235c-.413-.254-.82-.513-1.222-.783-3.702-2.495-8.727-1.512-11.22 2.192-2.494 3.703-1.512 8.727 2.192 11.22.583.393 1.176.771 1.808 1.159l.571.343c.456.271.916.536 1.355.778l.61.337c.624.334 1.256.66 1.898.97.04.02.08.04.12.059.639.306 1.288.597 1.99.899l.604.25c.494.204.992.4 1.517.598l.622.231c.651.235 1.307.46 2.016.682.041.014.107.034.141.045.694.214 1.398.412 2.15.61l.628.157c.536.133 1.077.259 1.603.371l.121.025c.195.042.39.084.558.116.68.136 1.367.262 2.122.38.045.006.101.015.156.024.739.113 1.489.206 2.234.286l.701.068c.564.053 1.131.095 1.699.128l.7.04c.773.036 1.549.058 2.344.058.781 0 1.556-.023 2.352-.059l.675-.039c.569-.033 1.135-.075 1.684-.127l.71-.068c.751-.082 1.499-.174 2.24-.287.025-.003.05-.008.073-.012.738-.112 1.472-.246 2.185-.389.203-.04.404-.083.678-.142.545-.115 1.084-.24 1.657-.383l.64-.16c.707-.186 1.411-.385 2.07-.589.017-.005.107-.033.124-.039.697-.217 1.385-.453 2.07-.698l.646-.239c.501-.19.999-.387 1.537-.608l.608-.253c.653-.28 1.301-.571 1.94-.877.017-.008.033-.015.051-.024.025-.012.058-.028.071-.034.639-.309 1.268-.634 1.934-.991l.547-.303c.466-.257.925-.522 1.441-.828l.543-.327c.599-.369 1.192-.746 1.779-1.141 10.238-6.896 17.594-17.246 20.715-29.141 1.101-4.192 1.659-8.525 1.659-12.878 0-6.833-1.34-13.464-3.983-19.713-7.95-18.783-26.264-30.922-46.659-30.922z"/></g></svg>