<?xml version="1.0" encoding="iso-8859-1"?>
<!-- Generator: Adobe Illustrator 19.0.0, SVG Export Plug-In . SVG Version: 6.00 Build 0)  -->
<svg xmlns="http://www.w3.org/2000/svg" xmlns:xlink="http://www.w3.org/1999/xlink" version="1.1" id="Capa_1" x="0px" y="0px" viewBox="0 0 511.998 511.998" style="enable-background:new 0 0 511.998 511.998;" xml:space="preserve" width="512px" height="512px">
<g>
	<g>
		<path d="M304.097,140.284h-12.295c-3.328-14.045-8.799-27.29-16.321-39.51l8.663-8.663c2.931-2.931,4.544-6.827,4.544-10.971    c0-4.145-1.614-8.041-4.544-10.972l-22.672-22.672c-2.931-2.931-6.827-4.545-10.972-4.545c-4.145,0-8.041,1.614-10.971,4.545    l-8.663,8.663c-12.22-7.522-25.464-12.993-39.509-16.321V27.541c0-8.556-6.96-15.516-15.516-15.516h-32.064    c-8.556,0-15.516,6.96-15.516,15.516v12.295c-14.045,3.328-27.29,8.799-39.509,16.321l-8.663-8.662    c-2.931-2.931-6.827-4.545-10.972-4.545c-4.145,0-8.042,1.614-10.971,4.545L35.47,70.166c-2.931,2.931-4.544,6.827-4.544,10.972    c0,4.144,1.614,8.041,4.544,10.971l8.663,8.663c-7.522,12.22-12.993,25.465-16.32,39.509H15.516C6.96,140.281,0,147.242,0,155.797    v32.064c0,8.556,6.96,15.516,15.516,15.516h12.296c3.327,14.044,8.798,27.289,16.32,39.509l-8.663,8.663    c-6.049,6.049-6.049,15.893,0,21.943l22.673,22.673c2.93,2.931,6.827,4.545,10.972,4.545c4.145,0,8.041-1.614,10.971-4.544    l8.663-8.663c12.219,7.522,25.464,12.993,39.51,16.321v12.296c0,8.556,6.96,15.516,15.516,15.516h32.064    c8.556,0,15.516-6.96,15.516-15.516v-12.296c14.045-3.328,27.29-8.799,39.509-16.321l8.663,8.663    c2.931,2.931,6.827,4.544,10.971,4.544c4.145,0,8.041-1.614,10.972-4.544l22.675-22.673c6.049-6.05,6.049-15.893,0-21.942    l-8.663-8.663c7.522-12.219,12.993-25.464,16.321-39.509h12.295c8.556,0,15.516-6.96,15.516-15.516v-32.064    C319.613,147.243,312.653,140.284,304.097,140.284z M304.612,187.862c0,0.285-0.231,0.516-0.516,0.516h-18.363    c-3.603,0-6.696,2.562-7.368,6.101c-3.105,16.352-9.389,31.56-18.676,45.203c-2.027,2.978-1.651,6.977,0.896,9.524l12.951,12.951    c0.201,0.201,0.201,0.529,0,0.73l-22.673,22.673c-0.2,0.202-0.528,0.203-0.729,0.001l-12.951-12.951    c-2.547-2.547-6.545-2.924-9.524-0.896c-13.643,9.288-28.852,15.571-45.204,18.676c-3.539,0.672-6.101,3.766-6.101,7.368v18.363    c0,0.285-0.231,0.516-0.516,0.516h-32.064c-0.285,0-0.516-0.231-0.516-0.516v-18.363c0-3.603-2.562-6.696-6.101-7.368    c-16.352-3.105-31.561-9.389-45.204-18.676c-1.283-0.873-2.754-1.3-4.218-1.3c-1.935,0-3.855,0.747-5.306,2.197l-12.951,12.951    c-0.038,0.037-0.151,0.151-0.365,0.151c-0.214,0-0.327-0.113-0.365-0.151l-22.673-22.673c-0.201-0.202-0.202-0.529,0-0.73    l12.951-12.951c2.547-2.547,2.924-6.546,0.896-9.523c-9.288-13.645-15.571-28.853-18.676-45.203    c-0.672-3.54-3.766-6.101-7.368-6.101H15.516c-0.285,0-0.516-0.231-0.516-0.516V155.8c0-0.285,0.231-0.516,0.516-0.516h18.363    c3.603,0,6.696-2.562,7.368-6.101c3.104-16.35,9.388-31.559,18.676-45.204c2.027-2.978,1.65-6.976-0.897-9.523l-12.95-12.954    c-0.201-0.201-0.201-0.529,0-0.73L68.75,58.099c0.037-0.037,0.15-0.15,0.364-0.15s0.327,0.114,0.365,0.152l12.952,12.951    c2.547,2.547,6.545,2.923,9.524,0.896c13.643-9.288,28.852-15.571,45.203-18.676c3.539-0.672,6.101-3.766,6.101-7.368V27.541    c0-0.285,0.231-0.516,0.516-0.516h32.064c0.285,0,0.516,0.231,0.516,0.516v18.363c0,3.603,2.562,6.696,6.101,7.368    c16.351,3.105,31.56,9.389,45.204,18.676c2.977,2.027,6.976,1.651,9.523-0.896l12.951-12.952c0.038-0.037,0.151-0.151,0.364-0.151    c0.214,0,0.327,0.114,0.365,0.151l22.673,22.673c0.201,0.201,0.201,0.529,0,0.73l-12.951,12.951    c-2.547,2.547-2.924,6.546-0.896,9.523c9.288,13.644,15.571,28.853,18.676,45.204c0.672,3.539,3.766,6.101,7.368,6.101h18.363    c0.285,0,0.516,0.231,0.516,0.516V187.862z" fill="#FFFFFF"/>
	</g>
</g>
<g>
	<g>
		<path d="M219.819,87.385c-19.741-14.058-43.972-20.762-68.224-18.877c-24.551,1.908-47.675,12.563-65.112,30    c-17.437,17.437-28.091,40.561-29.999,65.111c-1.885,24.253,4.818,48.482,18.876,68.224c1.463,2.055,3.771,3.15,6.116,3.15    c1.505,0,3.025-0.452,4.344-1.391c3.374-2.403,4.162-7.086,1.759-10.46c-25.188-35.373-21.188-83.329,9.511-114.028    c30.7-30.7,78.655-34.7,114.028-9.51c3.374,2.402,8.056,1.615,10.46-1.759C223.981,94.471,223.193,89.789,219.819,87.385z" fill="#FFFFFF"/>
	</g>
</g>
<g>
	<g>
		<path d="M244.251,111.817c-2.403-3.375-7.087-4.161-10.46-1.759c-3.374,2.403-4.162,7.086-1.759,10.46    c25.189,35.372,21.19,83.328-9.51,114.028c-30.7,30.7-78.656,34.699-114.028,9.511c-3.375-2.402-8.058-1.616-10.46,1.759    c-2.403,3.374-1.615,8.057,1.759,10.46c17.559,12.503,38.664,19.188,60.182,19.188c2.676,0,5.36-0.104,8.043-0.312    c24.551-1.909,47.675-12.563,65.111-30c17.437-17.437,28.091-40.561,30-65.112C265.014,155.787,258.31,131.559,244.251,111.817z" fill="#FFFFFF"/>
	</g>
</g>
<g>
	<g>
		<path d="M159.807,100.2c-39.497,0-71.629,32.133-71.629,71.629c0,39.496,32.132,71.629,71.629,71.629    c39.496,0,71.629-32.133,71.629-71.629C231.436,132.333,199.303,100.2,159.807,100.2z M159.807,228.46    c-31.226,0-56.629-25.404-56.629-56.629s25.403-56.629,56.629-56.629c31.225,0,56.629,25.404,56.629,56.629    C216.436,203.056,191.032,228.46,159.807,228.46z" fill="#FFFFFF"/>
	</g>
</g>
<g>
	<g>
		<path d="M496.484,168.339h-3.603c-2.753-8.556-7.292-16.391-13.377-23.094l1.823-3.157c2.072-3.589,2.623-7.771,1.55-11.774    c-1.073-4.003-3.64-7.35-7.229-9.421l-6.942-4.008c-3.59-2.073-7.771-2.623-11.774-1.55s-7.349,3.64-9.421,7.229l-1.793,3.106    c-8.774-1.887-17.952-1.887-26.727,0l-1.793-3.106c-2.072-3.589-5.418-6.157-9.421-7.229c-4.003-1.072-8.185-0.522-11.774,1.55    l-6.941,4.007c-3.59,2.072-6.157,5.418-7.23,9.422c-1.073,4.004-0.522,8.185,1.55,11.774l1.823,3.158    c-6.086,6.704-10.624,14.537-13.377,23.093h-3.603c-8.556,0-15.516,6.96-15.516,15.516v8.016c0,8.556,6.96,15.516,15.516,15.516    h3.603c2.754,8.556,7.291,16.389,13.377,23.093l-1.823,3.157c-2.072,3.589-2.623,7.771-1.55,11.774    c1.073,4.004,3.64,7.35,7.229,9.421l6.942,4.008c2.391,1.38,5.044,2.086,7.733,2.086c1.348,0,2.704-0.177,4.041-0.536    c4.004-1.073,7.35-3.64,9.421-7.229l1.793-3.106c8.774,1.887,17.952,1.886,26.727,0l1.792,3.105    c2.072,3.59,5.418,6.157,9.422,7.23c4.002,1.074,8.185,0.522,11.774-1.55l6.941-4.008c3.589-2.072,6.157-5.418,7.229-9.421    c1.073-4.003,0.522-8.185-1.55-11.774l-1.823-3.157c6.084-6.704,10.623-14.538,13.376-23.093h3.603    c8.556,0,15.516-6.96,15.516-15.516v-8.016C512,175.299,505.04,168.339,496.484,168.339z M496.484,192.387h-9.34    c-3.525,0-6.575,2.455-7.327,5.899c-2.14,9.792-7.235,18.587-14.734,25.437c-2.6,2.375-3.198,6.239-1.438,9.288l4.692,8.127    c0.026,0.046,0.107,0.186,0.052,0.392c-0.055,0.207-0.195,0.287-0.241,0.313l-6.941,4.008c-0.046,0.026-0.184,0.109-0.392,0.052    c-0.206-0.055-0.286-0.194-0.313-0.241l-4.66-8.071c-1.761-3.05-5.406-4.464-8.765-3.398c-9.542,3.029-19.902,3.029-29.444,0    c-3.357-1.066-7.003,0.348-8.765,3.398l-4.661,8.072c-0.026,0.046-0.106,0.185-0.313,0.24c-0.208,0.057-0.346-0.025-0.392-0.052    l-6.942-4.009c-0.046-0.026-0.185-0.106-0.24-0.313c-0.055-0.207,0.025-0.346,0.052-0.392l4.692-8.127    c1.761-3.049,1.163-6.913-1.438-9.288c-7.5-6.849-12.595-15.645-14.734-25.437c-0.752-3.444-3.802-5.899-7.327-5.899h-9.34    c-0.285,0-0.516-0.231-0.516-0.516v-8.016c0-0.285,0.231-0.516,0.516-0.516h9.34c3.525,0,6.575-2.455,7.327-5.899    c2.14-9.792,7.235-18.587,14.734-25.437c2.6-2.375,3.198-6.238,1.438-9.288l-4.692-8.128c-0.026-0.046-0.107-0.185-0.052-0.391    c0.055-0.207,0.194-0.287,0.241-0.313l6.941-4.008c0.046-0.027,0.186-0.108,0.392-0.052c0.207,0.056,0.287,0.195,0.313,0.241    l4.66,8.071c1.761,3.05,5.406,4.464,8.765,3.398c9.542-3.029,19.902-3.029,29.444,0c3.357,1.067,7.004-0.348,8.765-3.398    l4.66-8.071c0.027-0.046,0.107-0.185,0.313-0.241c0.206-0.055,0.346,0.025,0.392,0.052l6.942,4.008    c0.046,0.027,0.185,0.107,0.241,0.313c0.055,0.207-0.025,0.346-0.052,0.391l-4.693,8.127c-1.761,3.05-1.163,6.914,1.438,9.289    c7.5,6.849,12.595,15.645,14.734,25.437c0.752,3.444,3.802,5.899,7.327,5.899h9.34c0.285,0,0.516,0.231,0.516,0.516v8.017H497    C497,192.156,496.769,192.387,496.484,192.387z" fill="#FFFFFF"/>
	</g>
</g>
<g>
	<g>
		<path d="M456.403,180.362c-4.142,0-7.5,3.358-7.5,7.5c0,9.125-7.423,16.548-16.548,16.548s-16.548-7.423-16.548-16.548    s7.423-16.548,16.548-16.548c4.142,0,7.5-3.358,7.5-7.5c0-4.142-3.358-7.5-7.5-7.5c-17.396,0-31.548,14.152-31.548,31.548    s14.152,31.548,31.548,31.548s31.548-14.152,31.548-31.548C463.903,183.721,460.545,180.362,456.403,180.362z" fill="#FFFFFF"/>
	</g>
</g>
<g>
	<g>
		<path d="M464.419,364.734h-3.502c-2.258-8.976-5.771-17.477-10.491-25.39l2.457-2.457c2.932-2.931,4.546-6.827,4.546-10.972    s-1.614-8.041-4.544-10.971l-11.336-11.337c-6.05-6.05-15.894-6.05-21.943,0l-2.458,2.458c-7.913-4.72-16.413-8.232-25.389-10.49    v-3.502c0-8.556-6.961-15.516-15.517-15.516H360.21c-8.556,0-15.516,6.96-15.516,15.516v3.502    c-8.976,2.258-17.476,5.77-25.389,10.49l-2.458-2.458c-6.05-6.049-15.894-6.049-21.943,0l-11.336,11.337    c-2.931,2.931-4.544,6.827-4.544,10.971c0,4.145,1.614,8.042,4.544,10.971l2.458,2.458c-4.72,7.913-8.232,16.413-10.491,25.389    h-3.502c-8.556,0-15.516,6.96-15.516,15.516v16.032c0,8.556,6.96,15.516,15.516,15.516h3.502    c2.258,8.976,5.771,17.476,10.491,25.389l-2.458,2.458c-6.049,6.049-6.049,15.893,0,21.943l11.336,11.336    c6.049,6.049,15.893,6.049,21.943,0l2.458-2.458c7.913,4.721,16.413,8.233,25.389,10.491v3.502c0,8.556,6.96,15.516,15.516,15.516    h16.032c8.556,0,15.517-6.96,15.517-15.516v-3.502c8.976-2.258,17.476-5.77,25.389-10.491l2.458,2.458    c6.05,6.049,15.895,6.049,21.943,0l11.336-11.336c2.931-2.931,4.545-6.827,4.545-10.972s-1.614-8.041-4.544-10.971l-2.458-2.458    c4.721-7.913,8.233-16.414,10.491-25.389h3.502c8.556,0,15.516-6.96,15.516-15.516V380.25    C479.936,371.693,472.975,364.734,464.419,364.734z M464.936,396.281c0,0.285-0.231,0.516-0.516,0.516h-9.542    c-3.619,0-6.721,2.583-7.376,6.143c-2.069,11.244-6.383,21.682-12.822,31.025c-2.054,2.979-1.687,7,0.872,9.559l6.728,6.728    c0.037,0.038,0.151,0.151,0.151,0.364c0,0.214-0.114,0.328-0.151,0.365l-11.336,11.336c-0.201,0.201-0.529,0.201-0.73,0    l-6.727-6.727c-2.559-2.559-6.579-2.925-9.56-0.872c-9.342,6.439-19.78,10.753-31.023,12.822    c-3.559,0.655-6.143,3.757-6.143,7.376v9.542c0,0.285-0.232,0.516-0.517,0.516h-16.032c-0.285,0-0.516-0.231-0.516-0.516v-9.542    c0-3.619-2.584-6.721-6.143-7.376c-11.243-2.069-21.681-6.383-31.023-12.822c-1.291-0.89-2.776-1.325-4.254-1.325    c-1.934,0-3.855,0.746-5.306,2.197l-6.727,6.727c-0.202,0.202-0.53,0.202-0.731,0l-11.336-11.336c-0.202-0.202-0.202-0.529,0-0.73    l6.727-6.727c2.559-2.559,2.926-6.58,0.872-9.559c-6.438-9.343-10.752-19.781-12.822-31.025c-0.655-3.559-3.757-6.143-7.376-6.143    h-9.542c-0.285,0-0.516-0.231-0.516-0.516V380.25c0-0.285,0.231-0.516,0.516-0.516h9.542c3.619,0,6.721-2.583,7.376-6.143    c2.069-11.244,6.383-21.683,12.822-31.025c2.054-2.979,1.687-7-0.872-9.559l-6.728-6.728c-0.037-0.037-0.15-0.151-0.15-0.364    s0.114-0.327,0.151-0.365l11.336-11.337c0.201-0.201,0.529-0.201,0.73,0l6.727,6.727c2.559,2.559,6.58,2.925,9.56,0.872    c9.342-6.438,19.78-10.752,31.023-12.821c3.559-0.655,6.143-3.757,6.143-7.376v-9.542c0-0.285,0.231-0.516,0.516-0.516h16.032    c0.285,0,0.517,0.231,0.517,0.516v9.542c0,3.619,2.584,6.721,6.143,7.376c11.244,2.069,21.682,6.383,31.023,12.821    c2.98,2.054,7.001,1.687,9.56-0.872l6.727-6.727c0.202-0.201,0.53-0.202,0.73,0l11.337,11.337    c0.037,0.037,0.151,0.151,0.151,0.364s-0.113,0.327-0.152,0.365l-6.727,6.727c-2.559,2.559-2.925,6.58-0.872,9.559    c6.438,9.343,10.752,19.781,12.822,31.025c0.655,3.559,3.757,6.143,7.376,6.143h9.542c0.285,0,0.516,0.231,0.516,0.516V396.281z" fill="#FFFFFF"/>
	</g>
</g>
<g>
	<g>
		<path d="M418.365,364.343c-1.783-3.74-6.261-5.326-9.999-3.542c-3.739,1.783-5.324,6.26-3.54,9.998    c7.395,15.501,4.222,34.057-7.894,46.174c-12.117,12.116-30.672,15.288-46.173,7.894c-3.738-1.786-8.215-0.198-9.998,3.54    c-1.784,3.739-0.199,8.215,3.54,9.999c7.634,3.642,15.81,5.411,23.923,5.411c14.443,0,28.686-5.607,39.315-16.236    C424.139,410.981,428.49,385.567,418.365,364.343z" fill="#FFFFFF"/>
	</g>
</g>
<g>
	<g>
		<path d="M392.151,338.126c-21.226-10.126-46.638-5.775-63.238,10.825c-16.601,16.601-20.951,42.014-10.826,63.239    c1.286,2.696,3.974,4.272,6.774,4.272c1.083,0,2.182-0.236,3.224-0.733c3.738-1.783,5.323-6.26,3.54-9.998    c-7.395-15.501-4.223-34.057,7.894-46.174c12.117-12.114,30.673-15.287,46.173-7.892c3.739,1.785,8.215,0.198,9.999-3.54    C397.475,344.386,395.89,339.91,392.151,338.126z" fill="#FFFFFF"/>
	</g>
</g>
<g>
</g>
<g>
</g>
<g>
</g>
<g>
</g>
<g>
</g>
<g>
</g>
<g>
</g>
<g>
</g>
<g>
</g>
<g>
</g>
<g>
</g>
<g>
</g>
<g>
</g>
<g>
</g>
<g>
</g>
</svg>
