<svg enable-background="new 0 0 511.998 511.998" height="512" viewBox="0 0 511.998 511.998" width="512" xmlns="http://www.w3.org/2000/svg"><g fill="#fff"><path d="m304.097 140.284h-12.295c-3.328-14.045-8.799-27.29-16.321-39.51l8.663-8.663c2.931-2.931 4.544-6.827 4.544-10.971 0-4.145-1.614-8.041-4.544-10.972l-22.672-22.672c-2.931-2.931-6.827-4.545-10.972-4.545s-8.041 1.614-10.971 4.545l-8.663 8.663c-12.22-7.522-25.464-12.993-39.509-16.321v-12.297c0-8.556-6.96-15.516-15.516-15.516h-32.064c-8.556 0-15.516 6.96-15.516 15.516v12.295c-14.045 3.328-27.29 8.799-39.509 16.321l-8.663-8.662c-2.931-2.931-6.827-4.545-10.972-4.545s-8.042 1.614-10.971 4.545l-22.676 22.671c-2.931 2.931-4.544 6.827-4.544 10.972 0 4.144 1.614 8.041 4.544 10.971l8.663 8.663c-7.522 12.22-12.993 25.465-16.32 39.509h-12.297c-8.556 0-15.516 6.961-15.516 15.516v32.064c0 8.556 6.96 15.516 15.516 15.516h12.296c3.327 14.044 8.798 27.289 16.32 39.509l-8.663 8.663c-6.049 6.049-6.049 15.893 0 21.943l22.673 22.673c2.93 2.931 6.827 4.545 10.972 4.545s8.041-1.614 10.971-4.544l8.663-8.663c12.219 7.522 25.464 12.993 39.51 16.321v12.296c0 8.556 6.96 15.516 15.516 15.516h32.064c8.556 0 15.516-6.96 15.516-15.516v-12.296c14.045-3.328 27.29-8.799 39.509-16.321l8.663 8.663c2.931 2.931 6.827 4.544 10.971 4.544 4.145 0 8.041-1.614 10.972-4.544l22.675-22.673c6.049-6.05 6.049-15.893 0-21.942l-8.663-8.663c7.522-12.219 12.993-25.464 16.321-39.509h12.295c8.556 0 15.516-6.96 15.516-15.516v-32.064c0-8.556-6.96-15.515-15.516-15.515zm.515 47.578c0 .285-.231.516-.516.516h-18.363c-3.603 0-6.696 2.562-7.368 6.101-3.105 16.352-9.389 31.56-18.676 45.203-2.027 2.978-1.651 6.977.896 9.524l12.951 12.951c.201.201.201.529 0 .73l-22.673 22.673c-.2.202-.528.203-.729.001l-12.951-12.951c-2.547-2.547-6.545-2.924-9.524-.896-13.643 9.288-28.852 15.571-45.204 18.676-3.539.672-6.101 3.766-6.101 7.368v18.363c0 .285-.231.516-.516.516h-32.064c-.285 0-.516-.231-.516-.516v-18.363c0-3.603-2.562-6.696-6.101-7.368-16.352-3.105-31.561-9.389-45.204-18.676-1.283-.873-2.754-1.3-4.218-1.3-1.935 0-3.855.747-5.306 2.197l-12.951 12.951c-.038.037-.151.151-.365.151s-.327-.113-.365-.151l-22.673-22.673c-.201-.202-.202-.529 0-.73l12.951-12.951c2.547-2.547 2.924-6.546.896-9.523-9.288-13.645-15.571-28.853-18.676-45.203-.672-3.54-3.766-6.101-7.368-6.101h-18.362c-.285 0-.516-.231-.516-.516v-32.065c0-.285.231-.516.516-.516h18.363c3.603 0 6.696-2.562 7.368-6.101 3.104-16.35 9.388-31.559 18.676-45.204 2.027-2.978 1.65-6.976-.897-9.523l-12.95-12.954c-.201-.201-.201-.529 0-.73l22.674-22.673c.037-.037.15-.15.364-.15s.327.114.365.152l12.952 12.951c2.547 2.547 6.545 2.923 9.524.896 13.643-9.288 28.852-15.571 45.203-18.676 3.539-.672 6.101-3.766 6.101-7.368v-18.363c0-.285.231-.516.516-.516h32.064c.285 0 .516.231.516.516v18.363c0 3.603 2.562 6.696 6.101 7.368 16.351 3.105 31.56 9.389 45.204 18.676 2.977 2.027 6.976 1.651 9.523-.896l12.951-12.952c.038-.037.151-.151.364-.151.214 0 .327.114.365.151l22.673 22.673c.201.201.201.529 0 .73l-12.951 12.951c-2.547 2.547-2.924 6.546-.896 9.523 9.288 13.644 15.571 28.853 18.676 45.204.672 3.539 3.766 6.101 7.368 6.101h18.363c.285 0 .516.231.516.516z"/><path d="m219.819 87.385c-19.741-14.058-43.972-20.762-68.224-18.877-24.551 1.908-47.675 12.563-65.112 30s-28.091 40.561-29.999 65.111c-1.885 24.253 4.818 48.482 18.876 68.224 1.463 2.055 3.771 3.15 6.116 3.15 1.505 0 3.025-.452 4.344-1.391 3.374-2.403 4.162-7.086 1.759-10.46-25.188-35.373-21.188-83.329 9.511-114.028 30.7-30.7 78.655-34.7 114.028-9.51 3.374 2.402 8.056 1.615 10.46-1.759 2.403-3.374 1.615-8.056-1.759-10.46z"/><path d="m244.251 111.817c-2.403-3.375-7.087-4.161-10.46-1.759-3.374 2.403-4.162 7.086-1.759 10.46 25.189 35.372 21.19 83.328-9.51 114.028s-78.656 34.699-114.028 9.511c-3.375-2.402-8.058-1.616-10.46 1.759-2.403 3.374-1.615 8.057 1.759 10.46 17.559 12.503 38.664 19.188 60.182 19.188 2.676 0 5.36-.104 8.043-.312 24.551-1.909 47.675-12.563 65.111-30 17.437-17.437 28.091-40.561 30-65.112 1.885-24.253-4.819-48.481-18.878-68.223z"/><path d="m159.807 100.2c-39.497 0-71.629 32.133-71.629 71.629s32.132 71.629 71.629 71.629c39.496 0 71.629-32.133 71.629-71.629s-32.133-71.629-71.629-71.629zm0 128.26c-31.226 0-56.629-25.404-56.629-56.629s25.403-56.629 56.629-56.629c31.225 0 56.629 25.404 56.629 56.629s-25.404 56.629-56.629 56.629z"/><path d="m496.484 168.339h-3.603c-2.753-8.556-7.292-16.391-13.377-23.094l1.823-3.157c2.072-3.589 2.623-7.771 1.55-11.774s-3.64-7.35-7.229-9.421l-6.942-4.008c-3.59-2.073-7.771-2.623-11.774-1.55s-7.349 3.64-9.421 7.229l-1.793 3.106c-8.774-1.887-17.952-1.887-26.727 0l-1.793-3.106c-2.072-3.589-5.418-6.157-9.421-7.229s-8.185-.522-11.774 1.55l-6.941 4.007c-3.59 2.072-6.157 5.418-7.23 9.422s-.522 8.185 1.55 11.774l1.823 3.158c-6.086 6.704-10.624 14.537-13.377 23.093h-3.603c-8.556 0-15.516 6.96-15.516 15.516v8.016c0 8.556 6.96 15.516 15.516 15.516h3.603c2.754 8.556 7.291 16.389 13.377 23.093l-1.823 3.157c-2.072 3.589-2.623 7.771-1.55 11.774 1.073 4.004 3.64 7.35 7.229 9.421l6.942 4.008c2.391 1.38 5.044 2.086 7.733 2.086 1.348 0 2.704-.177 4.041-.536 4.004-1.073 7.35-3.64 9.421-7.229l1.793-3.106c8.774 1.887 17.952 1.886 26.727 0l1.792 3.105c2.072 3.59 5.418 6.157 9.422 7.23 4.002 1.074 8.185.522 11.774-1.55l6.941-4.008c3.589-2.072 6.157-5.418 7.229-9.421 1.073-4.003.522-8.185-1.55-11.774l-1.823-3.157c6.084-6.704 10.623-14.538 13.376-23.093h3.603c8.556 0 15.516-6.96 15.516-15.516v-8.016c.002-8.556-6.958-15.516-15.514-15.516zm0 24.048h-9.34c-3.525 0-6.575 2.455-7.327 5.899-2.14 9.792-7.235 18.587-14.734 25.437-2.6 2.375-3.198 6.239-1.438 9.288l4.692 8.127c.026.046.107.186.052.392-.055.207-.195.287-.241.313l-6.941 4.008c-.046.026-.184.109-.392.052-.206-.055-.286-.194-.313-.241l-4.66-8.071c-1.761-3.05-5.406-4.464-8.765-3.398-9.542 3.029-19.902 3.029-29.444 0-3.357-1.066-7.003.348-8.765 3.398l-4.661 8.072c-.026.046-.106.185-.313.24-.208.057-.346-.025-.392-.052l-6.942-4.009c-.046-.026-.185-.106-.24-.313s.025-.346.052-.392l4.692-8.127c1.761-3.049 1.163-6.913-1.438-9.288-7.5-6.849-12.595-15.645-14.734-25.437-.752-3.444-3.802-5.899-7.327-5.899h-9.34c-.285 0-.516-.231-.516-.516v-8.016c0-.285.231-.516.516-.516h9.34c3.525 0 6.575-2.455 7.327-5.899 2.14-9.792 7.235-18.587 14.734-25.437 2.6-2.375 3.198-6.238 1.438-9.288l-4.692-8.128c-.026-.046-.107-.185-.052-.391.055-.207.194-.287.241-.313l6.941-4.008c.046-.027.186-.108.392-.052.207.056.287.195.313.241l4.66 8.071c1.761 3.05 5.406 4.464 8.765 3.398 9.542-3.029 19.902-3.029 29.444 0 3.357 1.067 7.004-.348 8.765-3.398l4.66-8.071c.027-.046.107-.185.313-.241.206-.055.346.025.392.052l6.942 4.008c.046.027.185.107.241.313.055.207-.025.346-.052.391l-4.693 8.127c-1.761 3.05-1.163 6.914 1.438 9.289 7.5 6.849 12.595 15.645 14.734 25.437.752 3.444 3.802 5.899 7.327 5.899h9.34c.285 0 .516.231.516.516v8.017h.001c0 .285-.231.516-.516.516z"/><path d="m456.403 180.362c-4.142 0-7.5 3.358-7.5 7.5 0 9.125-7.423 16.548-16.548 16.548s-16.548-7.423-16.548-16.548 7.423-16.548 16.548-16.548c4.142 0 7.5-3.358 7.5-7.5s-3.358-7.5-7.5-7.5c-17.396 0-31.548 14.152-31.548 31.548s14.152 31.548 31.548 31.548 31.548-14.152 31.548-31.548c0-4.141-3.358-7.5-7.5-7.5z"/><path d="m464.419 364.734h-3.502c-2.258-8.976-5.771-17.477-10.491-25.39l2.457-2.457c2.932-2.931 4.546-6.827 4.546-10.972s-1.614-8.041-4.544-10.971l-11.336-11.337c-6.05-6.05-15.894-6.05-21.943 0l-2.458 2.458c-7.913-4.72-16.413-8.232-25.389-10.49v-3.502c0-8.556-6.961-15.516-15.517-15.516h-16.032c-8.556 0-15.516 6.96-15.516 15.516v3.502c-8.976 2.258-17.476 5.77-25.389 10.49l-2.458-2.458c-6.05-6.049-15.894-6.049-21.943 0l-11.336 11.337c-2.931 2.931-4.544 6.827-4.544 10.971 0 4.145 1.614 8.042 4.544 10.971l2.458 2.458c-4.72 7.913-8.232 16.413-10.491 25.389h-3.502c-8.556 0-15.516 6.96-15.516 15.516v16.032c0 8.556 6.96 15.516 15.516 15.516h3.502c2.258 8.976 5.771 17.476 10.491 25.389l-2.458 2.458c-6.049 6.049-6.049 15.893 0 21.943l11.336 11.336c6.049 6.049 15.893 6.049 21.943 0l2.458-2.458c7.913 4.721 16.413 8.233 25.389 10.491v3.502c0 8.556 6.96 15.516 15.516 15.516h16.032c8.556 0 15.517-6.96 15.517-15.516v-3.502c8.976-2.258 17.476-5.77 25.389-10.491l2.458 2.458c6.05 6.049 15.895 6.049 21.943 0l11.336-11.336c2.931-2.931 4.545-6.827 4.545-10.972s-1.614-8.041-4.544-10.971l-2.458-2.458c4.721-7.913 8.233-16.414 10.491-25.389h3.502c8.556 0 15.516-6.96 15.516-15.516v-16.031c-.001-8.557-6.962-15.516-15.518-15.516zm.517 31.547c0 .285-.231.516-.516.516h-9.542c-3.619 0-6.721 2.583-7.376 6.143-2.069 11.244-6.383 21.682-12.822 31.025-2.054 2.979-1.687 7 .872 9.559l6.728 6.728c.037.038.151.151.151.364 0 .214-.114.328-.151.365l-11.336 11.336c-.201.201-.529.201-.73 0l-6.727-6.727c-2.559-2.559-6.579-2.925-9.56-.872-9.342 6.439-19.78 10.753-31.023 12.822-3.559.655-6.143 3.757-6.143 7.376v9.542c0 .285-.232.516-.517.516h-16.032c-.285 0-.516-.231-.516-.516v-9.542c0-3.619-2.584-6.721-6.143-7.376-11.243-2.069-21.681-6.383-31.023-12.822-1.291-.89-2.776-1.325-4.254-1.325-1.934 0-3.855.746-5.306 2.197l-6.727 6.727c-.202.202-.53.202-.731 0l-11.336-11.336c-.202-.202-.202-.529 0-.73l6.727-6.727c2.559-2.559 2.926-6.58.872-9.559-6.438-9.343-10.752-19.781-12.822-31.025-.655-3.559-3.757-6.143-7.376-6.143h-9.542c-.285 0-.516-.231-.516-.516v-16.031c0-.285.231-.516.516-.516h9.542c3.619 0 6.721-2.583 7.376-6.143 2.069-11.244 6.383-21.683 12.822-31.025 2.054-2.979 1.687-7-.872-9.559l-6.728-6.728c-.037-.037-.15-.151-.15-.364s.114-.327.151-.365l11.336-11.337c.201-.201.529-.201.73 0l6.727 6.727c2.559 2.559 6.58 2.925 9.56.872 9.342-6.438 19.78-10.752 31.023-12.821 3.559-.655 6.143-3.757 6.143-7.376v-9.542c0-.285.231-.516.516-.516h16.032c.285 0 .517.231.517.516v9.542c0 3.619 2.584 6.721 6.143 7.376 11.244 2.069 21.682 6.383 31.023 12.821 2.98 2.054 7.001 1.687 9.56-.872l6.727-6.727c.202-.201.53-.202.73 0l11.337 11.337c.037.037.151.151.151.364s-.113.327-.152.365l-6.727 6.727c-2.559 2.559-2.925 6.58-.872 9.559 6.438 9.343 10.752 19.781 12.822 31.025.655 3.559 3.757 6.143 7.376 6.143h9.542c.285 0 .516.231.516.516z"/><path d="m418.365 364.343c-1.783-3.74-6.261-5.326-9.999-3.542-3.739 1.783-5.324 6.26-3.54 9.998 7.395 15.501 4.222 34.057-7.894 46.174-12.117 12.116-30.672 15.288-46.173 7.894-3.738-1.786-8.215-.198-9.998 3.54-1.784 3.739-.199 8.215 3.54 9.999 7.634 3.642 15.81 5.411 23.923 5.411 14.443 0 28.686-5.607 39.315-16.236 16.6-16.6 20.951-42.014 10.826-63.238z"/><path d="m392.151 338.126c-21.226-10.126-46.638-5.775-63.238 10.825-16.601 16.601-20.951 42.014-10.826 63.239 1.286 2.696 3.974 4.272 6.774 4.272 1.083 0 2.182-.236 3.224-.733 3.738-1.783 5.323-6.26 3.54-9.998-7.395-15.501-4.223-34.057 7.894-46.174 12.117-12.114 30.673-15.287 46.173-7.892 3.739 1.785 8.215.198 9.999-3.54 1.784-3.739.199-8.215-3.54-9.999z"/></g></svg>