<svg enable-background="new 0 0 55.11 55.11" height="512" viewBox="0 0 55.11 55.11" width="512" xmlns="http://www.w3.org/2000/svg"><g fill="#fff"><path d="m18.549 29.909c-2.757 0-5 2.691-5 6s2.243 6 5 6 5-2.691 5-6-2.243-6-5-6zm0 10c-1.654 0-3-1.794-3-4s1.346-4 3-4 3 1.794 3 4-1.345 4-3 4z"/><path d="m37.549 29.909c-2.757 0-5 2.691-5 6s2.243 6 5 6 5-2.691 5-6-2.243-6-5-6zm0 10c-1.654 0-3-1.794-3-4s1.346-4 3-4 3 1.794 3 4-1.345 4-3 4z"/><path d="m39.075 24.909c-.049 0-.1 0-.149.001-.926.016-1.853.054-2.78.091-.844.034-1.688.068-2.531.085l-1.465.031c-2.543.053-5.178.107-7.751.097-1.174-.005-2.349-.049-3.522-.093-1.598-.06-3.248-.124-4.886-.083-2.273.055-4.185.781-5.685 2.159-2.491 2.289-3.521 5.325-3.148 9.282.542 5.743 2.86 8.68 8.002 10.135 4.323 1.223 8.665 1.333 12.322 1.281l1.218.006c.411.003.822.007 1.233.007.507 0 1.014-.005 1.521-.021 3.595-.115 6.746-.652 9.632-1.644 3.169-1.088 5.279-3.166 6.269-6.175.756-2.3.978-4.479.679-6.662-.487-3.55-3.584-8.497-8.959-8.497zm6.381 14.535c-.795 2.417-2.437 4.022-5.019 4.908-2.695.925-5.654 1.428-9.046 1.536-.891.028-1.782.02-2.673.014l-1.249-.007c-3.525.05-7.688-.052-11.763-1.206-4.317-1.221-6.094-3.498-6.556-8.397-.31-3.292.511-5.785 2.509-7.622 1.133-1.04 2.606-1.589 4.38-1.633 1.576-.036 3.196.023 4.762.082 1.196.045 2.393.09 3.589.095 2.608.012 5.247-.044 7.802-.098l1.463-.03c.857-.018 1.714-.053 2.571-.087.911-.037 1.822-.074 2.733-.089.036-.001.072-.001.108-.001 4.13 0 6.607 4.022 6.984 6.771.259 1.874.063 3.76-.595 5.764z"/><path d="m51.866 18.56c-.595-.819-.867-1.301-.782-2.176.177-1.843-.075-3.698-.319-5.491l-.016-.118c-.326-2.404-.954-4.698-1.867-6.819l-.325-.754-1.477.314c-2.051.431-4.173.877-6.107 1.994-1.284.742-2.562 1.533-3.797 2.297-.827.512-1.654 1.024-2.486 1.523-.045.027-.135.049-.16.049-4.473-.781-9.118-.789-13.81-.023-.058.01-.247-.022-.397-.111-.516-.309-1.019-.641-1.521-.972-.583-.385-1.167-.769-1.767-1.12-2.862-1.68-6.024-3.301-9.753-3.777l-.73-.094-.389.843c-.073.154-.135.287-.186.425-1.07 2.884-1.715 5.908-1.924 9.085-.073 1.101-.148 2.24.014 3.377.054.377.009.453-.138.637-1.347 1.679-2.31 3.435-2.945 5.368-1.067 3.246-1.26 6.845-.609 11.324.54 3.747 1.459 6.481 2.977 8.863 3.193 5.008 8.122 7.829 14.651 8.385 3.263.278 6.574.32 9.82.32.698 0 1.393-.002 2.084-.004.911-.003 1.823-.005 2.732-.003 4.18.002 7.514-.542 10.545-1.729 5.396-2.111 8.984-6.043 10.663-11.688.936-3.145 1.355-6.489 1.245-9.941-.122-3.846-1.208-7.205-3.226-9.984zm.065 19.355c-1.516 5.093-4.615 8.494-9.475 10.396-2.79 1.093-5.87 1.61-9.812 1.591-.913-.002-1.827 0-2.741.003-3.861.011-7.853.022-11.729-.309-5.958-.507-10.255-2.95-13.135-7.467-1.359-2.131-2.187-4.621-2.685-8.075-.614-4.22-.45-7.431.53-10.413.559-1.701 1.411-3.252 2.605-4.742.523-.652.684-1.281.557-2.17-.133-.931-.064-1.964.008-3.061.184-2.807.761-5.565 1.714-8.197 3.065.542 5.773 1.949 8.253 3.405.57.334 1.124.7 1.677 1.064.527.348 1.055.695 1.597 1.019.54.322 1.192.46 1.747.368 4.468-.729 8.89-.723 13.146.021.49.083 1.075-.033 1.528-.304.841-.505 1.675-1.021 2.51-1.538 1.242-.769 2.483-1.537 3.746-2.266 1.619-.935 3.446-1.332 5.381-1.74.675 1.74 1.149 3.601 1.413 5.541l.016.118c.228 1.681.464 3.419.309 5.03-.154 1.594.459 2.586 1.155 3.544 1.803 2.483 2.734 5.386 2.846 8.872.105 3.24-.286 6.372-1.161 9.31z"/></g></svg>