<?xml version="1.0" encoding="iso-8859-1"?>
<!-- Generator: Adobe Illustrator 19.0.0, SVG Export Plug-In . SVG Version: 6.00 Build 0)  -->
<svg xmlns="http://www.w3.org/2000/svg" xmlns:xlink="http://www.w3.org/1999/xlink" version="1.1" id="Capa_1" x="0px" y="0px" viewBox="0 0 55.11 55.11" style="enable-background:new 0 0 55.11 55.11;" xml:space="preserve" width="512px" height="512px">
<g>
	<g>
		<path d="M18.549,29.909c-2.757,0-5,2.691-5,6s2.243,6,5,6s5-2.691,5-6S21.306,29.909,18.549,29.909z M18.549,39.909    c-1.654,0-3-1.794-3-4s1.346-4,3-4s3,1.794,3,4S20.204,39.909,18.549,39.909z" fill="#FFFFFF"/>
		<path d="M37.549,29.909c-2.757,0-5,2.691-5,6s2.243,6,5,6s5-2.691,5-6S40.306,29.909,37.549,29.909z M37.549,39.909    c-1.654,0-3-1.794-3-4s1.346-4,3-4s3,1.794,3,4S39.204,39.909,37.549,39.909z" fill="#FFFFFF"/>
		<path d="M39.075,24.909c-0.049,0-0.1,0-0.149,0.001c-0.926,0.016-1.853,0.054-2.78,0.091c-0.844,0.034-1.688,0.068-2.531,0.085    l-1.465,0.031c-2.543,0.053-5.178,0.107-7.751,0.097c-1.174-0.005-2.349-0.049-3.522-0.093c-1.598-0.06-3.248-0.124-4.886-0.083    c-2.273,0.055-4.185,0.781-5.685,2.159h0c-2.491,2.289-3.521,5.325-3.148,9.282c0.542,5.743,2.86,8.68,8.002,10.135    c4.323,1.223,8.665,1.333,12.322,1.281l1.218,0.006c0.411,0.003,0.822,0.007,1.233,0.007c0.507,0,1.014-0.005,1.521-0.021    c3.595-0.115,6.746-0.652,9.632-1.644c3.169-1.088,5.279-3.166,6.269-6.175c0.756-2.3,0.978-4.479,0.679-6.662    C47.547,29.856,44.45,24.909,39.075,24.909z M45.456,39.444c-0.795,2.417-2.437,4.022-5.019,4.908    c-2.695,0.925-5.654,1.428-9.046,1.536c-0.891,0.028-1.782,0.02-2.673,0.014l-1.249-0.007c-3.525,0.05-7.688-0.052-11.763-1.206    c-4.317-1.221-6.094-3.498-6.556-8.397C8.84,33,9.661,30.507,11.659,28.67c1.133-1.04,2.606-1.589,4.38-1.633    c1.576-0.036,3.196,0.023,4.762,0.082c1.196,0.045,2.393,0.09,3.589,0.095c2.608,0.012,5.247-0.044,7.802-0.098l1.463-0.03    c0.857-0.018,1.714-0.053,2.571-0.087c0.911-0.037,1.822-0.074,2.733-0.089c0.036-0.001,0.072-0.001,0.108-0.001    c4.13,0,6.607,4.022,6.984,6.771C46.31,35.554,46.114,37.44,45.456,39.444z" fill="#FFFFFF"/>
		<path d="M51.866,18.56c-0.595-0.819-0.867-1.301-0.782-2.176c0.177-1.843-0.075-3.698-0.319-5.491l-0.016-0.118    c-0.326-2.404-0.954-4.698-1.867-6.819l-0.325-0.754L47.08,3.516c-2.051,0.431-4.173,0.877-6.107,1.994    c-1.284,0.742-2.562,1.533-3.797,2.297c-0.827,0.512-1.654,1.024-2.486,1.523c-0.045,0.027-0.135,0.049-0.16,0.049c0,0,0,0,0,0    C30.057,8.598,25.412,8.59,20.72,9.356c-0.058,0.01-0.247-0.022-0.397-0.111c-0.516-0.309-1.019-0.641-1.521-0.972    c-0.583-0.385-1.167-0.769-1.767-1.12c-2.862-1.68-6.024-3.301-9.753-3.777L6.552,3.282L6.163,4.125    C6.09,4.279,6.028,4.412,5.977,4.55c-1.07,2.884-1.715,5.908-1.924,9.085c-0.073,1.101-0.148,2.24,0.014,3.377    c0.054,0.377,0.009,0.453-0.138,0.637c-1.347,1.679-2.31,3.435-2.945,5.368c-1.067,3.246-1.26,6.845-0.609,11.324    c0.54,3.747,1.459,6.481,2.977,8.863c3.193,5.008,8.122,7.829,14.651,8.385c3.263,0.278,6.574,0.32,9.82,0.32    c0.698,0,1.393-0.002,2.084-0.004c0.911-0.003,1.823-0.005,2.732-0.003c4.18,0.002,7.514-0.542,10.545-1.729    c5.396-2.111,8.984-6.043,10.663-11.688c0.936-3.145,1.355-6.489,1.245-9.941C54.97,24.698,53.884,21.339,51.866,18.56z     M51.931,37.915c-1.516,5.093-4.615,8.494-9.475,10.396c-2.79,1.093-5.87,1.61-9.812,1.591c-0.913-0.002-1.827,0-2.741,0.003    c-3.861,0.011-7.853,0.022-11.729-0.309c-5.958-0.507-10.255-2.95-13.135-7.467c-1.359-2.131-2.187-4.621-2.685-8.075    c-0.614-4.22-0.45-7.431,0.53-10.413c0.559-1.701,1.411-3.252,2.605-4.742c0.523-0.652,0.684-1.281,0.557-2.17    c-0.133-0.931-0.064-1.964,0.008-3.061c0.184-2.807,0.761-5.565,1.714-8.197c3.065,0.542,5.773,1.949,8.253,3.405    c0.57,0.334,1.124,0.7,1.677,1.064c0.527,0.348,1.055,0.695,1.597,1.019c0.54,0.322,1.192,0.46,1.747,0.368    c4.468-0.729,8.89-0.723,13.146,0.021c0.49,0.083,1.075-0.033,1.528-0.304c0.841-0.505,1.675-1.021,2.51-1.538    c1.242-0.769,2.483-1.537,3.746-2.266c1.619-0.935,3.446-1.332,5.381-1.74c0.675,1.74,1.149,3.601,1.413,5.541l0.016,0.118    c0.228,1.681,0.464,3.419,0.309,5.03c-0.154,1.594,0.459,2.586,1.155,3.544c1.803,2.483,2.734,5.386,2.846,8.872    C53.197,31.845,52.806,34.977,51.931,37.915z" fill="#FFFFFF"/>
	</g>
</g>
<g>
</g>
<g>
</g>
<g>
</g>
<g>
</g>
<g>
</g>
<g>
</g>
<g>
</g>
<g>
</g>
<g>
</g>
<g>
</g>
<g>
</g>
<g>
</g>
<g>
</g>
<g>
</g>
<g>
</g>
</svg>
