<svg viewBox="0 0 432.87 135.02" xmlns="http://www.w3.org/2000/svg" xmlns:xlink="http://www.w3.org/1999/xlink"><clipPath id="a"><path d="m0 0h432.87v135.02h-432.87z"/></clipPath><g clip-path="url(#a)"><g clip-path="url(#a)" fill="#5d6670"><path d="m309.79 134.64v-4.91l4.34-6.58h-2.6l-2.92 4.61-2.84-4.61h-2.66l4.41 6.58v4.87zm-10.79-9.42c1.05 0 1.38.56 1.38 1.28a1.23 1.23 0 0 1 -1.14 1.3h-3.21v-2.57zm.39 4.58a1.35 1.35 0 0 1 1.45 1.24v.14a1.29 1.29 0 0 1 -1.16 1.39 1.13 1.13 0 0 1 -.32 0h-3.26v-2.77zm.36 4.84a3 3 0 0 0 3.29-2.76c0-.12 0-.25 0-.37a2.84 2.84 0 0 0 -2-2.84 2.67 2.67 0 0 0 1.48-2.53 2.94 2.94 0 0 0 -2.84-3 3.4 3.4 0 0 0 -.45 0h-5.44v11.52z"/><path d="m323.53 124.16v-.06a10.74 10.74 0 0 1 11-10.92 10.91 10.91 0 0 1 8.33 3.26l-3 3.41a7.79 7.79 0 0 0 -5.4-2.38c-3.56 0-6.12 3-6.12 6.57v.06c0 3.62 2.5 6.64 6.12 6.64 2.42 0 3.89-1 5.55-2.48l3 3a10.81 10.81 0 0 1 -8.66 3.77 10.66 10.66 0 0 1 -10.83-10.86"/><path d="m361.61 113.55v8.35h-8.57v-8.35h-4.64v21.11h4.64v-8.48h8.57v8.48h4.64v-21.11z"/><path d="m371.93 113.55v21.11h16.07v-4.13h-11.46v-4.44h9.96v-4.13h-9.96v-4.28h11.31v-4.13z"/><path d="m394.07 113.55v21.11h4.65v-8.18h10.07v-4.22h-10.07v-4.49h11.43v-4.22z"/><path d="m413.38 116.41v-2h.87a1.79 1.79 0 0 1 .48 0 .52.52 0 0 1 .24.2.57.57 0 0 1 .09.32.56.56 0 0 1 -.08.3.16.16 0 0 1 -.06.08.62.62 0 0 1 -.34.19l.16.17a2.23 2.23 0 0 1 .24.34c0 .08.13.22.25.4h-.5l-.3-.45a1.9 1.9 0 0 0 -.22-.3.23.23 0 0 0 -.12-.08.51.51 0 0 0 -.21 0h-.08v.86zm.42-1.19h.3a1.59 1.59 0 0 0 .38 0 .24.24 0 0 0 .11-.09.24.24 0 0 0 0-.15.29.29 0 0 0 -.05-.17.27.27 0 0 0 -.16-.08h-.62z"/><path d="m414.15 117.22a1.78 1.78 0 0 1 -.71-.15 1.34 1.34 0 0 1 -.31-.17 1.44 1.44 0 0 1 -.27-.22 1.94 1.94 0 0 1 -.23-.27l-.17-.31a2 2 0 0 1 -.14-.72 1.87 1.87 0 0 1 .14-.71 3.07 3.07 0 0 1 .17-.31 2.22 2.22 0 0 1 .5-.5 3.07 3.07 0 0 1 .31-.17 1.9 1.9 0 0 1 1.43 0l.31.17a1.94 1.94 0 0 1 .27.23 1.44 1.44 0 0 1 .22.27 1.34 1.34 0 0 1 .17.31 1.71 1.71 0 0 1 .15.71 1.79 1.79 0 0 1 -.15.72 1.59 1.59 0 0 1 -.17.31 1.72 1.72 0 0 1 -.49.49 1.59 1.59 0 0 1 -.31.17 1.79 1.79 0 0 1 -.72.15m0-3.52a1.68 1.68 0 1 0 1.68 1.68 1.69 1.69 0 0 0 -1.68-1.68"/><path d="m175.62 78.44a20.9 20.9 0 0 1 -21.91-19.84c0-.58 0-1.17 0-1.75a20.9 20.9 0 0 1 20-21.79h1.81a20.59 20.59 0 0 1 21.76 19.38v1.32a22.86 22.86 0 0 1 -6 16.73 21.27 21.27 0 0 1 -15.5 6zm22.22-47a31.87 31.87 0 0 0 -23.94-7.31 31 31 0 0 0 -17.44 7.21 1.78 1.78 0 0 1 -3-1.28v-28.25a1.78 1.78 0 0 0 -1.74-1.81h-7.41a1.78 1.78 0 0 0 -1.74 1.61v.9a13.67 13.67 0 0 0 0 1.81v51.21a39.27 39.27 0 0 0 .69 8.17c3.49 16.23 15.47 25.47 32.92 25.47h.89a31.47 31.47 0 0 0 30-20.34 33.77 33.77 0 0 0 -9.21-37.36"/><path d="m122.65 56.45a21 21 0 0 1 -19.91 22 17.6 17.6 0 0 1 -1.78 0 20.68 20.68 0 0 1 -21.96-19.34c0-.65 0-1.31 0-2a20.78 20.78 0 0 1 19.39-22.04 21.35 21.35 0 0 1 2.4 0 21 21 0 0 1 21.76 20.22v1.24m4.45-20.53a35.21 35.21 0 0 0 -42.56-8.1 32.48 32.48 0 0 0 -16.2 37.31 29.62 29.62 0 0 0 22.45 23.05 39.49 39.49 0 0 0 9.61 1.28 28 28 0 0 0 21-9.12 25.61 25.61 0 0 0 1.94-2.34v7.92a1.78 1.78 0 0 0 1.76 1.73h6.92a1.78 1.78 0 0 0 1.79-1.73v-10.19c0-8 0-16.23-.16-24.32a26.34 26.34 0 0 0 -6.55-15.61"/><path d="m349.72 56.45a21 21 0 0 1 -19.91 22 17.61 17.61 0 0 1 -1.78 0 20.67 20.67 0 0 1 -21.87-19.45c0-.63 0-1.26 0-1.9a20.77 20.77 0 0 1 19.38-22.06 19.78 19.78 0 0 1 2.31 0 21 21 0 0 1 21.75 20.22v1.24m4.4-20.5a35.21 35.21 0 0 0 -42.56-8.1 32.5 32.5 0 0 0 -16.17 37.36 29.65 29.65 0 0 0 22.45 23.05 39.51 39.51 0 0 0 9.62 1.28 28 28 0 0 0 21-9.12 25.61 25.61 0 0 0 1.94-2.34v7.87a1.77 1.77 0 0 0 1.8 1.76h7a1.78 1.78 0 0 0 1.77-1.76v-10.19c0-8 0-16.23-.17-24.32a26.32 26.32 0 0 0 -6.58-15.61"/><path d="m37.49 24.52a27.29 27.29 0 0 0 -23.37 5.48 1.78 1.78 0 0 1 -2.93-1.31v-26.91a1.78 1.78 0 0 0 -1.78-1.78h-7.63a1.78 1.78 0 0 0 -1.78 1.78v84.22a1.78 1.78 0 0 0 1.78 1.75h7.77a1.74 1.74 0 0 0 1.77-1.75v-31a20.41 20.41 0 0 1 5.68-15.24 20.52 20.52 0 0 1 15.9-4.7 16.46 16.46 0 0 1 16.48 16.23c.39 7.07.39 14.35.43 21.36v13.27a1.77 1.77 0 0 0 1.77 1.77h7.74a1.78 1.78 0 0 0 1.78-1.77v-33.38c-.23-15.18-9.1-25.68-23.77-28.08"/><path d="m287.34 61.39h-8.62a1.79 1.79 0 0 0 -1.72 1.61v1.25a11.27 11.27 0 0 1 -.2 2.6 11.34 11.34 0 0 1 -11.34 11.36h-.46c-4.94.3-13.17-.59-14-9.58-.59-7.6-.62-15.43-.62-23v-7.63a1.75 1.75 0 0 1 1.62-1.76h22.25a1.77 1.77 0 0 0 1.15-3.09l-8.4-7.41a1.78 1.78 0 0 0 -1.15-.43h-14.16a1.78 1.78 0 0 1 -1.78-1.77v-11.54a1.78 1.78 0 0 0 -1.77-1.78h-7.31a1.78 1.78 0 0 0 -1.78 1.78v3.29c0 .33-.16 33.64 0 54.21a19 19 0 0 0 6.95 13.78 24.87 24.87 0 0 0 17.38 6.09 29.12 29.12 0 0 0 4.22-.2 22.52 22.52 0 0 0 16.22-9.17 21.13 21.13 0 0 0 3.85-17.08z"/><path d="m416.41 63.07-.19-1.51h-9a1.77 1.77 0 0 0 -1.74 1.64v3.59a11.36 11.36 0 0 1 -11.19 11.52h-.43c-5 .3-13.53-.53-14.22-9.71-.6-7.77-.56-15.77-.56-23.5v-7.05a1.73 1.73 0 0 1 1.7-1.77h21.8a1.78 1.78 0 0 0 1.09-3.3l-9.25-7.27a1.8 1.8 0 0 0 -1.09-.4h-12.67a1.77 1.77 0 0 1 -1.77-1.77v-11.13a1.78 1.78 0 0 0 -1.78-1.78h-7.67a1.78 1.78 0 0 0 -1.78 1.78v3.59c0 .33 0 33.15.33 53.52a20.31 20.31 0 0 0 16.46 18.86 39.91 39.91 0 0 0 8.72.83h1.52a22.51 22.51 0 0 0 16.79-7.8 23.05 23.05 0 0 0 5.06-18.34"/><path d="m219 87.73h7.43a1.78 1.78 0 0 0 1.82-1.73v-58.55a1.78 1.78 0 0 0 -1.74-1.78h-7.44a1.79 1.79 0 0 0 -1.81 1.75v58.43a1.78 1.78 0 0 0 1.74 1.78"/><path d="m219 18.1h7.43a1.77 1.77 0 0 0 1.78-1.77v-7.44a1.78 1.78 0 0 0 -1.78-1.78h-7.43a1.78 1.78 0 0 0 -1.78 1.78v7.44a1.78 1.78 0 0 0 1.78 1.77"/><path d="m421.48 22.87v-9h3.81a6.55 6.55 0 0 1 2.09.24 2.05 2.05 0 0 1 1.05.86 2.63 2.63 0 0 1 .39 1.42 2.52 2.52 0 0 1 -.33 1.31 4.33 4.33 0 0 1 -.26.36 2.72 2.72 0 0 1 -1.52.79c.18.18.43.45.71.79a11.35 11.35 0 0 1 1 1.46l1.1 1.75h-2.17l-1.31-1.95a11.55 11.55 0 0 0 -1-1.32 1.34 1.34 0 0 0 -.54-.38 2.91 2.91 0 0 0 -.91-.1h-.37v3.75zm1.81-5.18h1.34a7.17 7.17 0 0 0 1.63-.11 1 1 0 0 0 .51-.38 1.21 1.21 0 0 0 .18-.68 1.09 1.09 0 0 0 -.24-.73 1.14 1.14 0 0 0 -.68-.35c-.15 0-.59 0-1.33 0h-1.41z"/><path d="m424.85 26.4a8 8 0 0 1 -3.13-.63 8.16 8.16 0 0 1 -1.36-.74 8.16 8.16 0 0 1 -2.17-2.16 9.48 9.48 0 0 1 -.74-1.37 8 8 0 0 1 0-6.24 9.48 9.48 0 0 1 .74-1.37 8.52 8.52 0 0 1 1-1.18 7.84 7.84 0 0 1 1.19-1 8.16 8.16 0 0 1 1.36-.74 8.07 8.07 0 0 1 6.26.03 7.78 7.78 0 0 1 1.36.74 7 7 0 0 1 1.19 1 8.52 8.52 0 0 1 1 1.18 8 8 0 0 1 0 9 8.52 8.52 0 0 1 -1 1.18 7.48 7.48 0 0 1 -1.19 1 7.78 7.78 0 0 1 -1.36.74 7.94 7.94 0 0 1 -3.12.63m0-15.37a7.35 7.35 0 1 0 7.34 7.35 7.36 7.36 0 0 0 -7.37-7.45"/></g></g></svg>