<?xml version="1.0" encoding="iso-8859-1"?>
<!-- Generator: Adobe Illustrator 19.0.0, SVG Export Plug-In . SVG Version: 6.00 Build 0)  -->
<svg xmlns="http://www.w3.org/2000/svg" xmlns:xlink="http://www.w3.org/1999/xlink" version="1.1" id="Capa_1" x="0px" y="0px" viewBox="0 0 512 512" style="enable-background:new 0 0 512 512;" xml:space="preserve" width="512px" height="512px">
<g>
	<g>
		<path d="M509.803,317.786l-38.706-38.706c-5.119-5.118-11.924-7.938-19.163-7.938c-5.313,0-10.389,1.524-14.739,4.355    l-33.042-33.04l11.455-11.454c12.214-12.228,12.214-32.123-0.008-44.358c-5.271-5.261-12.083-8.42-19.414-9.054    c3.16-10.673,0.537-22.715-7.87-31.13c-4.908-4.908-11.162-7.987-17.935-8.896c1.406-3.595,2.141-7.459,2.141-11.436    c0-8.378-3.264-16.253-9.187-22.17c-5.46-5.46-12.449-8.481-19.602-9.064c3.039-10.607,0.39-22.518-7.948-30.864    c-5.924-5.924-13.802-9.187-22.183-9.187c-6.173,0-12.072,1.778-17.121,5.083l-2.061-3.916    c-4.797-9.113-14.871-14.288-25.075-12.861l-47.282,6.59c-5.551-4.941-12.627-7.646-20.122-7.646    c-8.103,0-15.722,3.156-21.455,8.89c-5.457,5.463-8.387,12.51-8.802,19.677c-2.097-0.452-4.255-0.691-6.451-0.691    c-8.103,0-15.72,3.155-21.449,8.884v0.001c-8.296,8.296-10.764,20.239-7.421,30.713c-6.511,0.782-12.815,3.657-17.801,8.643    c0,0,0,0,0,0.001c-7.8,7.8-10.453,18.827-7.963,28.825c-6.942,0.551-13.729,3.468-19.027,8.765v0.001    c-11.826,11.826-11.826,31.068,0,42.895l11.816,11.816c1.303,1.303,2.7,2.453,4.163,3.469c1.312,8.692,4.761,16.911,10.011,23.914    l-42.754,42.761c-10.497-6.808-24.708-5.618-33.902,3.577L2.205,322.94c-4.738,4.739-1.319,12.804,5.303,12.804    c1.919,0,3.839-0.732,5.303-2.196l38.706-38.706c4.718-4.718,12.394-4.72,17.112,0l24.081,24.081    c2.929,2.928,7.678,2.928,10.606,0c2.929-2.93,2.929-7.678,0-10.607l-17.474-17.474l47.257-47.265    c2.929-2.929,2.928-7.677,0-10.605c-3.88-3.88-6.836-8.53-8.729-13.599c0.157,0.002,0.314,0.011,0.471,0.011    c7.768,0,15.535-2.957,21.449-8.87c5.091-5.091,8.144-11.674,8.762-18.763c2.488,0.649,5.073,0.99,7.712,0.99    c8.102,0,15.719-3.155,21.448-8.885c4.846-4.846,7.703-10.938,8.577-17.254c3.216,1.139,6.637,1.734,10.149,1.734    c8.102,0,15.719-3.155,21.448-8.885c10.468-10.468,11.663-26.743,3.6-38.545c5.401-1.284,10.358-4.032,14.383-8.057    c0.093-0.093,0.177-0.195,0.269-0.289c1.382-0.102,2.767-0.264,4.152-0.506l17.378-3.034c2.143,0.104,4.258-0.699,5.776-2.278    l0.136-0.136c0.001-0.001,0.002-0.002,0.003-0.003l7.293-7.293l22.192-22.191c0.076-0.075,0.15-0.152,0.222-0.231l2.249-2.248    c3.091-3.092,7.199-4.794,11.567-4.794c4.374,0,8.485,1.702,11.574,4.791c6.376,6.383,6.377,16.762,0.003,23.136l-6.19,6.189    c-2.929,2.929-2.929,7.678,0,10.606c2.93,2.93,7.678,2.929,10.607,0.001l0.025-0.025c6.381-6.352,16.74-6.343,23.111,0.027    c3.089,3.087,4.791,7.192,4.791,11.561c0,4.37-1.702,8.479-4.793,11.57l-8.716,8.717c-0.017,0.017-0.033,0.033-0.049,0.049    c-2.925,2.932-2.921,7.678,0.009,10.604c2.929,2.925,7.675,2.924,10.604-0.003l0.029-0.029c3.071-3.065,7.167-4.754,11.538-4.754    c4.375,0,8.482,1.698,11.563,4.78c6.376,6.383,6.377,16.762,0.002,23.137l-6.45,6.45c-2.928,2.928-2.929,7.674-0.002,10.604    c2.926,2.928,7.673,2.932,10.604,0.008c3.095-3.088,7.205-4.789,11.572-4.789s8.477,1.701,11.563,4.781    c6.375,6.382,6.375,16.767,0.003,23.146l-16.673,16.672c-0.028,0.027-0.059,0.05-0.086,0.078    c-0.028,0.028-0.051,0.058-0.078,0.086l-96.26,96.251c-6.535,6.535-15.222,10.134-24.461,10.134    c-9.238,0-17.921-3.598-24.453-10.134l-1.36-1.36c-2.929-2.928-7.678-2.928-10.606,0l-51.946,51.946l-54.437-54.437    c-2.929-2.928-7.678-2.928-10.606,0c-2.929,2.93-2.929,7.678,0,10.607l61.042,61.042c4.718,4.718,4.718,12.394,0,17.111    l-38.708,38.705c-2.929,2.93-2.929,7.678,0,10.607c1.464,1.464,3.384,2.196,5.303,2.196c1.919,0,3.839-0.732,5.303-2.196    l38.706-38.706c9.194-9.194,10.384-23.404,3.578-33.9l47.283-47.283c8.748,7,19.531,10.801,30.898,10.801    c13.246,0,25.7-5.159,35.066-14.526l91.039-91.031l32.622,32.622l-93.231,93.231l-19.45-19.45c-2.929-2.928-7.678-2.928-10.606,0    c-2.929,2.93-2.929,7.678,0,10.607l19.87,19.87c-2.834,4.352-4.359,9.429-4.359,14.745c0,7.238,2.819,14.043,7.938,19.162    l38.706,38.707c2.93,2.929,7.678,2.928,10.606,0c2.929-2.93,2.929-7.678,0-10.606l-38.706-38.708    c-2.285-2.285-3.544-5.323-3.544-8.555s1.259-6.271,3.544-8.556l106.444-106.444c2.286-2.286,5.324-3.545,8.556-3.545    s6.271,1.259,8.556,3.545l38.706,38.706c2.929,2.928,7.678,2.928,10.606,0C512.732,325.464,512.732,320.716,509.803,317.786z     M191.099,61.589c2.684-2.684,6.191-4.234,9.949-4.45c-0.124,0.155-0.258,0.299-0.376,0.459    c-2.597,3.506-3.652,7.811-2.969,12.119L199,77.905c1.741,10.994,7.688,20.612,16.744,27.083c0.718,0.513,1.451,0.994,2.193,1.458    c-2.958-0.581-5.678-2.022-7.858-4.206l-10.437-10.431l-8.58-8.58C185.131,77.246,185.143,67.551,191.099,61.589z     M135.684,199.906c-5.978,5.978-15.705,5.979-21.684,0l-11.816-11.815c-5.978-5.979-5.978-15.706,0-21.685v0.001    c5.974-5.975,15.693-5.977,21.671-0.013l7.426,7.426l4.403,4.403c2.896,2.896,4.491,6.745,4.491,10.841    C140.175,193.161,138.58,197.01,135.684,199.906z M173.605,173.249c-2.896,2.896-6.746,4.49-10.842,4.49    c-4.095,0-7.946-1.595-10.842-4.491l-10.034-10.034l-7.413-7.414c-0.008-0.008-0.017-0.016-0.025-0.024l-5.276-5.276    c-5.978-5.979-5.978-15.706,0-21.685v0.001c5.976-5.976,15.698-5.978,21.677-0.007l22.759,22.758    C179.582,157.547,179.582,167.272,173.605,173.249z M213.779,148.844c-2.896,2.896-6.747,4.49-10.842,4.49    c-4.095,0-7.946-1.595-10.842-4.491l-7.879-7.878c-0.002-0.002-0.004-0.004-0.006-0.006l-22.749-22.749    c-0.011-0.011-0.023-0.021-0.034-0.032l-7.034-7.034c-5.978-5.979-5.978-15.706,0-21.685v0.001c5.978-5.979,15.705-5.979,21.684,0    l4.339,4.339c0.026,0.026,0.05,0.054,0.076,0.08l8.227,8.222l25.06,25.059C219.756,133.139,219.756,142.866,213.779,148.844z     M279.773,75.698l-18.63,18.622l-16.936,2.958c-6.97,1.218-13.985-0.378-19.745-4.493c-5.76-4.116-9.542-10.233-10.649-17.225    l-1.297-8.189c-0.061-0.384,0.079-0.671,0.207-0.843c0.128-0.173,0.361-0.39,0.747-0.444l57.947-8.075    c0.437-0.062,0.872-0.091,1.305-0.091c3.492,0,6.771,1.936,8.427,5.082l3.904,7.417L279.773,75.698z" fill="#FFFFFF"/>
	</g>
</g>
<g>
</g>
<g>
</g>
<g>
</g>
<g>
</g>
<g>
</g>
<g>
</g>
<g>
</g>
<g>
</g>
<g>
</g>
<g>
</g>
<g>
</g>
<g>
</g>
<g>
</g>
<g>
</g>
<g>
</g>
</svg>
