<?xml version="1.0" encoding="iso-8859-1"?>
<!-- Generator: Adobe Illustrator 19.0.0, SVG Export Plug-In . SVG Version: 6.00 Build 0)  -->
<svg xmlns="http://www.w3.org/2000/svg" xmlns:xlink="http://www.w3.org/1999/xlink" version="1.1" id="Capa_1" x="0px" y="0px" viewBox="0 0 512 512" style="enable-background:new 0 0 512 512;" xml:space="preserve" width="512px" height="512px">
<g>
	<g>
		<path d="M433.572,95.296h-53.77V77.719c0-14.1-11.471-25.572-25.572-25.572h-73.785c-14.1,0-25.572,11.471-25.572,25.572v17.577    h-53.769c-19.635,0-35.61,15.974-35.61,35.61v154.8c0,19.634,15.974,35.609,35.61,35.609h232.467    c19.634,0,35.609-15.974,35.609-35.61V130.906C469.181,111.27,453.206,95.296,433.572,95.296z M270.083,77.719L270.083,77.719    c0-5.714,4.649-10.364,10.364-10.364h73.785c5.715,0,10.364,4.649,10.364,10.364v17.577h-94.512V77.719z M205.983,306.107h-4.879    c-11.25,0-20.402-9.152-20.402-20.402V130.906c0-11.25,9.152-20.402,20.402-20.402h4.879V306.107z M377.734,306.107H256.943    V173.81c0-4.199-3.404-7.604-7.604-7.604s-7.604,3.405-7.604,7.604v132.297h-20.544V110.504h20.544v37.958    c0,4.199,3.404,7.604,7.604,7.604s7.604-3.405,7.604-7.604v-37.958h5.536h109.72h5.536V306.107z M413.485,306.107h-20.544V110.504    h20.544V306.107z M453.974,285.706c0,11.25-9.151,20.402-20.401,20.402h-4.88V110.504h4.88c11.249,0,20.401,9.152,20.401,20.402    V285.706z" fill="#FFFFFF"/>
	</g>
</g>
<g>
	<g>
		<path d="M168.455,398.328c-26.007,0-47.165,21.157-47.165,47.164c0,26.006,21.157,47.164,47.165,47.164    c26.006,0,47.164-21.157,47.164-47.164C215.619,419.485,194.462,398.328,168.455,398.328z M168.455,477.448    c-17.621,0-31.957-14.335-31.957-31.956s14.336-31.956,31.957-31.956c17.62,0,31.956,14.335,31.956,31.956    S186.075,477.448,168.455,477.448z" fill="#FFFFFF"/>
	</g>
</g>
<g>
	<g>
		<path d="M425.665,398.328c-26.006,0-47.164,21.157-47.164,47.164c0,26.006,21.157,47.164,47.164,47.164    c26.007,0,47.164-21.157,47.164-47.164C472.827,419.485,451.67,398.328,425.665,398.328z M425.665,477.448    c-17.62,0-31.956-14.335-31.956-31.956s14.336-31.956,31.956-31.956c17.62,0,31.956,14.335,31.956,31.956    C457.62,463.113,443.285,477.448,425.665,477.448z" fill="#FFFFFF"/>
	</g>
</g>
<g>
	<g>
		<path d="M504.396,336.525h-363.93V45.957c0-14.675-11.938-26.613-26.613-26.613H26.613C11.938,19.344,0,31.283,0,45.957    S11.938,72.57,26.613,72.57h60.628v290.567c0,14.675,11.938,26.613,26.613,26.613h279.051c4.2,0,7.604-3.405,7.604-7.604    s-3.404-7.604-7.604-7.604H113.854c-6.289,0-11.405-5.116-11.405-11.405V64.966c0-4.199-3.404-7.604-7.604-7.604H50.653    c1.648-3.459,2.573-7.325,2.573-11.405s-0.926-7.946-2.573-11.405h63.2c6.289,0,11.405,5.116,11.405,11.405v298.171    c0,4.199,3.404,7.604,7.604,7.604h363.931v22.81h-78.539c-4.2,0-7.604,3.405-7.604,7.604s3.404,7.604,7.604,7.604h86.143    c4.2,0,7.604-3.405,7.604-7.604v-38.018C512,339.929,508.596,336.525,504.396,336.525z M26.613,57.362    c-6.289,0-11.405-5.116-11.405-11.405s5.116-11.405,11.405-11.405s11.405,5.116,11.405,11.405    C38.018,52.246,32.902,57.362,26.613,57.362z" fill="#FFFFFF"/>
	</g>
</g>
<g>
</g>
<g>
</g>
<g>
</g>
<g>
</g>
<g>
</g>
<g>
</g>
<g>
</g>
<g>
</g>
<g>
</g>
<g>
</g>
<g>
</g>
<g>
</g>
<g>
</g>
<g>
</g>
<g>
</g>
</svg>
