<?xml version="1.0" encoding="iso-8859-1"?>
<!-- Generator: Adobe Illustrator 19.0.0, SVG Export Plug-In . SVG Version: 6.00 Build 0)  -->
<svg xmlns="http://www.w3.org/2000/svg" xmlns:xlink="http://www.w3.org/1999/xlink" version="1.1" id="Layer_1" x="0px" y="0px" viewBox="0 0 511.998 511.998" style="enable-background:new 0 0 511.998 511.998;" xml:space="preserve" width="512px" height="512px">
<g>
	<g>
		<path d="M423.21,432.435l-8.742-25.945c-0.93-2.757-1.988-5.442-3.144-8.068c31.446-26.169,49.361-64.157,49.361-105.218    c0-32.414-11.573-63.883-32.587-88.612c-18.266-21.495-42.68-36.82-69.642-43.92l33.702-53.283    c1.107-1.75,1.474-3.868,1.019-5.888c-0.455-2.02-1.693-3.777-3.443-4.884l-12.767-8.075l7.945-12.561l12.767,8.076    c1.295,0.818,2.739,1.21,4.165,1.21c2.588,0,5.12-1.285,6.606-3.635l16.48-26.056c1.107-1.75,1.474-3.868,1.019-5.888    c-0.455-2.02-1.693-3.777-3.443-4.884L353.58,1.208c-3.644-2.301-8.466-1.219-10.771,2.425l-16.48,26.056    c-1.107,1.75-1.473,3.868-1.019,5.888c0.455,2.02,1.693,3.777,3.443,4.884l12.767,8.075l-7.945,12.561l-12.767-8.076    c-3.643-2.302-8.467-1.219-10.771,2.425L197.591,233.226l-9.485-5.999c-1.75-1.106-3.868-1.474-5.889-1.018    c-2.02,0.455-3.777,1.692-4.884,3.443l-16.48,26.057c-2.305,3.644-1.22,8.466,2.424,10.771l101.092,63.941    c1.295,0.818,2.739,1.21,4.166,1.21c2.588,0,5.119-1.286,6.606-3.635l16.48-26.056c2.305-3.644,1.22-8.466-2.424-10.771    l-9.485-5.999l27.734-43.846c5.23-1.64,10.673-2.473,16.219-2.473c29.971,0,54.355,24.383,54.355,54.355    c0,22.037-13.484,41.975-33.78,50.305c-6.662-1.461-13.548-2.243-20.576-2.243H163.835c-29.328,0-53.19,23.861-53.19,53.191    c0,4.312,3.495,7.807,7.807,7.807h115.955c-0.543,1.393-1.064,2.798-1.546,4.226l-8.606,25.541H93.254    c-23.126,0-41.942,18.815-41.942,41.941v30.218c0,4.312,3.495,7.807,7.807,7.807H451.6c4.312,0,7.807-3.495,7.807-7.807v-30.219    C459.408,452.795,443.628,435.245,423.21,432.435z M351.832,18.578l55.73,35.249l-8.133,12.86l-12.763-8.073    c-0.001-0.001-0.003-0.002-0.004-0.003l-30.195-19.099c-0.002-0.001-0.005-0.003-0.007-0.004l-12.76-8.071L351.832,18.578z     M371.716,67.634l-7.944,12.561l-16.999-10.752l7.944-12.561L371.716,67.634z M266.119,313.051l-87.896-55.594l8.133-12.861    l9.474,5.993c0.003,0.002,0.006,0.005,0.011,0.007l68.926,43.596l0.001,0.001l9.482,5.998L266.119,313.051z M266.516,276.822    l-1.859-1.176l-53.87-34.074L319.059,70.392l12.762,8.072c0.002,0.001,0.003,0.002,0.005,0.003l30.195,19.099    c0.002,0.001,0.004,0.002,0.006,0.003l12.761,8.071l-35.479,56.094c0,0-0.001,0.002-0.002,0.002l-24.48,38.704L266.516,276.822z     M393.634,293.204c0-38.581-31.388-69.97-69.97-69.97c-1.635,0-3.264,0.056-4.884,0.169l30.617-48.407l0.25-0.395    c25.796,5.657,49.272,19.766,66.554,40.102c18.618,21.908,28.87,49.787,28.87,78.501c0,35.327-14.967,68.101-41.359,91.207    c-0.094-0.142-0.193-0.279-0.288-0.422c-0.462-0.695-0.931-1.383-1.41-2.063c-0.156-0.222-0.315-0.442-0.473-0.662    c-0.529-0.738-1.065-1.47-1.613-2.192c-0.083-0.108-0.168-0.216-0.251-0.324c-9.401-12.255-21.605-22.029-35.522-28.516    C382.295,337.3,393.634,316.135,393.634,293.204z M310.385,357.991c18.805-3.142,38.629,0.649,54.928,10.551    c15.998,9.719,28.382,25.195,34.359,42.933l6.927,20.557H240.732l6.927-20.557c1.557-4.621,3.518-9.018,5.813-13.178    c0.012-0.021,0.027-0.038,0.038-0.06c11.804-21.331,32.536-35.897,56.057-40.099C309.84,358.089,310.111,358.037,310.385,357.991z     M127.074,386.649c3.602-16.986,18.716-29.768,36.759-29.768h107.389c-11.635,7.608-21.586,17.73-29.03,29.768H127.074z     M443.794,496.384h-0.001H66.928v-22.411c0-14.517,11.81-26.326,26.327-26.326h136.608h187.605    c14.516,0,26.326,11.809,26.326,26.326V496.384z" fill="#FFFFFF"/>
	</g>
</g>
<g>
	<g>
		<path d="M323.664,369.369c-13.833,0-25.086,11.253-25.086,25.086c0,13.833,11.253,25.087,25.086,25.087    s25.086-11.255,25.086-25.087C348.751,380.623,337.497,369.369,323.664,369.369z M323.664,403.929    c-5.223,0-9.472-4.249-9.472-9.473c0-5.223,4.25-9.472,9.472-9.472c5.223,0,9.472,4.249,9.472,9.472    C333.136,399.68,328.887,403.929,323.664,403.929z" fill="#FFFFFF"/>
	</g>
</g>
<g>
</g>
<g>
</g>
<g>
</g>
<g>
</g>
<g>
</g>
<g>
</g>
<g>
</g>
<g>
</g>
<g>
</g>
<g>
</g>
<g>
</g>
<g>
</g>
<g>
</g>
<g>
</g>
<g>
</g>
</svg>
