<svg enable-background="new 0 0 511.998 511.998" height="512" viewBox="0 0 511.998 511.998" width="512" xmlns="http://www.w3.org/2000/svg"><g fill="#fff"><path d="m423.21 432.435-8.742-25.945c-.93-2.757-1.988-5.442-3.144-8.068 31.446-26.169 49.361-64.157 49.361-105.218 0-32.414-11.573-63.883-32.587-88.612-18.266-21.495-42.68-36.82-69.642-43.92l33.702-53.283c1.107-1.75 1.474-3.868 1.019-5.888s-1.693-3.777-3.443-4.884l-12.767-8.075 7.945-12.561 12.767 8.076c1.295.818 2.739 1.21 4.165 1.21 2.588 0 5.12-1.285 6.606-3.635l16.48-26.056c1.107-1.75 1.474-3.868 1.019-5.888s-1.693-3.777-3.443-4.884l-68.926-43.596c-3.644-2.301-8.466-1.219-10.771 2.425l-16.48 26.056c-1.107 1.75-1.473 3.868-1.019 5.888.455 2.02 1.693 3.777 3.443 4.884l12.767 8.075-7.945 12.561-12.767-8.076c-3.643-2.302-8.467-1.219-10.771 2.425l-112.446 177.78-9.485-5.999c-1.75-1.106-3.868-1.474-5.889-1.018-2.02.455-3.777 1.692-4.884 3.443l-16.48 26.057c-2.305 3.644-1.22 8.466 2.424 10.771l101.092 63.941c1.295.818 2.739 1.21 4.166 1.21 2.588 0 5.119-1.286 6.606-3.635l16.48-26.056c2.305-3.644 1.22-8.466-2.424-10.771l-9.485-5.999 27.734-43.846c5.23-1.64 10.673-2.473 16.219-2.473 29.971 0 54.355 24.383 54.355 54.355 0 22.037-13.484 41.975-33.78 50.305-6.662-1.461-13.548-2.243-20.576-2.243h-159.829c-29.328 0-53.19 23.861-53.19 53.191 0 4.312 3.495 7.807 7.807 7.807h115.955c-.543 1.393-1.064 2.798-1.546 4.226l-8.606 25.541h-131.001c-23.126 0-41.942 18.815-41.942 41.941v30.218c0 4.312 3.495 7.807 7.807 7.807h392.481c4.312 0 7.807-3.495 7.807-7.807v-30.219c.001-21.178-15.779-38.728-36.197-41.538zm-71.378-413.857 55.73 35.249-8.133 12.86-12.763-8.073c-.001-.001-.003-.002-.004-.003l-30.195-19.099c-.002-.001-.005-.003-.007-.004l-12.76-8.071zm19.884 49.056-7.944 12.561-16.999-10.752 7.944-12.561zm-105.597 245.417-87.896-55.594 8.133-12.861 9.474 5.993c.003.002.006.005.011.007l68.926 43.596.001.001 9.482 5.998zm.397-36.229-1.859-1.176-53.87-34.074 108.272-171.18 12.762 8.072c.002.001.003.002.005.003l30.195 19.099c.002.001.004.002.006.003l12.761 8.071-35.479 56.094s-.001.002-.002.002l-24.48 38.704zm127.118 16.382c0-38.581-31.388-69.97-69.97-69.97-1.635 0-3.264.056-4.884.169l30.617-48.407.25-.395c25.796 5.657 49.272 19.766 66.554 40.102 18.618 21.908 28.87 49.787 28.87 78.501 0 35.327-14.967 68.101-41.359 91.207-.094-.142-.193-.279-.288-.422-.462-.695-.931-1.383-1.41-2.063-.156-.222-.315-.442-.473-.662-.529-.738-1.065-1.47-1.613-2.192-.083-.108-.168-.216-.251-.324-9.401-12.255-21.605-22.029-35.522-28.516 18.14-12.932 29.479-34.097 29.479-57.028zm-83.249 64.787c18.805-3.142 38.629.649 54.928 10.551 15.998 9.719 28.382 25.195 34.359 42.933l6.927 20.557h-165.867l6.927-20.557c1.557-4.621 3.518-9.018 5.813-13.178.012-.021.027-.038.038-.06 11.804-21.331 32.536-35.897 56.057-40.099.273-.049.544-.101.818-.147zm-183.311 28.658c3.602-16.986 18.716-29.768 36.759-29.768h107.389c-11.635 7.608-21.586 17.73-29.03 29.768zm316.72 109.735h-.001-376.865v-22.411c0-14.517 11.81-26.326 26.327-26.326h136.608 187.605c14.516 0 26.326 11.809 26.326 26.326z"/><path d="m323.664 369.369c-13.833 0-25.086 11.253-25.086 25.086s11.253 25.087 25.086 25.087 25.086-11.255 25.086-25.087c.001-13.832-11.253-25.086-25.086-25.086zm0 34.56c-5.223 0-9.472-4.249-9.472-9.473 0-5.223 4.25-9.472 9.472-9.472 5.223 0 9.472 4.249 9.472 9.472 0 5.224-4.249 9.473-9.472 9.473z"/></g></svg>