<svg enable-background="new 0 0 512 512" height="512" viewBox="0 0 512 512" width="512" xmlns="http://www.w3.org/2000/svg"><g fill="#fff"><path d="m411.272 52.471c-44.929-34.326-98.621-52.47-155.273-52.47-68.38 0-132.667 26.629-181.019 74.98-48.351 48.353-74.98 112.64-74.98 181.02 0 68.463 26.686 132.807 75.143 181.178 1.626 1.622 3.755 2.434 5.885 2.434 2.133 0 4.268-.815 5.895-2.444 3.249-3.256 3.245-8.53-.01-11.779-45.305-45.224-70.254-105.38-70.254-169.388 0-63.931 24.896-124.035 70.102-169.241 45.206-45.205 105.31-70.101 169.24-70.101 52.964 0 103.16 16.961 145.158 49.049 3.657 2.793 8.883 2.093 11.676-1.561 2.791-3.658 2.092-8.884-1.563-11.677z"/><path d="m437.234 75.199c-3.248-3.254-8.522-3.263-11.779-.012-3.257 3.248-3.263 8.522-.014 11.778 45.076 45.185 69.901 105.216 69.901 169.035 0 63.931-24.896 124.035-70.102 169.24-45.206 45.206-105.31 70.102-169.24 70.102-52.784 0-102.841-16.856-144.76-48.744-3.66-2.785-8.886-2.074-11.672 1.586-2.785 3.661-2.074 8.886 1.586 11.672 44.842 34.113 98.387 52.144 154.846 52.144 68.38 0 132.667-26.629 181.019-74.98 48.352-48.354 74.981-112.641 74.981-181.021 0-68.261-26.553-132.471-74.766-180.8z"/><path d="m262.474 352.114c-16.457 0-30.361 13.904-30.361 30.361v8.094c0 16.741 13.62 30.361 30.361 30.361 17.309 0 30.361-13.052 30.361-30.361v-8.094c-.002-17.024-13.337-30.361-30.361-30.361zm13.701 38.454c0 7.939-5.763 13.703-13.703 13.703-7.556 0-13.703-6.147-13.703-13.703v-8.094c0-7.299 6.403-13.703 13.703-13.703 7.811 0 13.703 5.891 13.703 13.703z"/><path d="m365.673 192.283c0-56.657-46.296-102.75-103.2-102.75-36.409 0-70.353 19.506-88.577 50.893-8.459 14.501-3.842 32.702 10.508 41.437.044.027.089.053.134.08 4.746 2.768 10.114 4.232 15.521 4.232 10.962-.001 20.848-5.729 26.468-15.364 7.301-12.679 21.074-20.556 35.947-20.556 24.073 0 42.928 18.461 42.928 42.029 0 23.176-19.258 42.029-42.928 42.029-16.174 0-30.361 14.187-30.361 30.361 0 .328.014.642.04.944-.028.302-.04.589-.04.855v46.761c0 16.741 13.619 30.361 30.361 30.361 17.309 0 30.361-13.052 30.361-30.361v-22.852h-.001c43.209-13.137 72.839-52.576 72.839-98.099zm-83.085 83.618c-3.758.888-6.411 4.243-6.411 8.105v29.226c0 7.939-5.763 13.703-13.703 13.703-7.556 0-13.703-6.147-13.703-13.703v-44.853c.345-1.038.45-2.011.45-2.807 0-.817-.12-1.622-.351-2.392.85-6.463 7.061-12.21 13.604-12.21 32.856 0 59.586-26.327 59.586-58.687 0-15.908-6.222-30.739-17.519-41.762-11.184-10.914-26.124-16.924-42.068-16.924-20.812 0-40.118 11.075-50.359 28.861-2.578 4.419-7.085 7.057-12.057 7.058-2.435 0-4.874-.665-7.059-1.923-6.577-4.048-8.604-12.105-4.705-18.788 15.262-26.285 43.686-42.614 74.18-42.614 47.719 0 86.542 38.621 86.542 86.092 0 39.981-27.316 74.366-66.427 83.618z"/></g></svg>