<?xml version="1.0" encoding="iso-8859-1"?>
<!-- Generator: Adobe Illustrator 19.0.0, SVG Export Plug-In . SVG Version: 6.00 Build 0)  -->
<svg xmlns="http://www.w3.org/2000/svg" xmlns:xlink="http://www.w3.org/1999/xlink" version="1.1" id="Capa_1" x="0px" y="0px" viewBox="0 0 512.001 512.001" style="enable-background:new 0 0 512.001 512.001;" xml:space="preserve" width="512px" height="512px">
<g>
	<g>
		<path d="M242.424,369.901l-4.707-4.707l2.853-2.853c2.981-2.981,2.981-7.814,0-10.794c-2.981-2.981-7.814-2.981-10.794,0    l-2.853,2.853l-12.844-12.844l2.853-2.853c2.981-2.981,2.981-7.814,0-10.794c-2.981-2.981-7.814-2.981-10.794,0l-2.853,2.853    l-12.844-12.844l2.853-2.853c2.981-2.981,2.981-7.814,0-10.794c-2.981-2.982-7.814-2.981-10.794,0l-2.853,2.853L166.8,294.278    l2.853-2.853c2.981-2.981,2.981-7.814,0-10.794c-2.981-2.982-7.814-2.981-10.794,0l-2.853,2.853l-1.12-1.12    c-5.523-5.522-14.51-5.522-20.033,0l-39.009,39.009c-2.676,2.676-4.149,6.233-4.149,10.016c0,3.784,1.473,7.341,4.149,10.016    l1.12,1.12l-3.996,3.996c-2.981,2.981-2.981,7.813,0,10.794c1.49,1.491,3.444,2.236,5.397,2.236s3.907-0.745,5.397-2.236    l3.996-3.996l12.844,12.844l-3.996,3.996c-2.981,2.981-2.981,7.814,0,10.794c1.49,1.49,3.444,2.236,5.397,2.236    s3.907-0.745,5.397-2.236l3.996-3.996L144.24,389.8l-3.996,3.996c-2.981,2.981-2.981,7.814,0,10.794    c1.49,1.49,3.444,2.236,5.397,2.236s3.907-0.745,5.397-2.236l3.996-3.996l12.844,12.844l-3.996,3.996    c-2.979,2.983-2.979,7.816,0.002,10.797c1.49,1.49,3.444,2.236,5.397,2.236s3.907-0.745,5.397-2.236l3.996-3.996l4.708,4.708    c2.761,2.761,6.389,4.141,10.016,4.141c3.628,0,7.255-1.381,10.017-4.142l39.008-39.009c2.676-2.676,4.149-6.233,4.149-10.017    S245.099,372.576,242.424,369.901z M193.403,417.372l-32.968-32.965l-0.001-0.001l-0.001-0.001l-23.635-23.635    c-0.001-0.001-0.002-0.002-0.002-0.003c-0.001-0.001-0.002-0.002-0.003-0.002l-29.375-29.375l37.453-37.453l5.739,5.739    c0,0,0,0,0.001,0.001c0,0,0,0,0.001,0l23.638,23.638c0,0,0,0,0.001,0.001c0,0,0,0,0.001,0l56.603,56.603L193.403,417.372z" fill="#FFFFFF"/>
	</g>
</g>
<g>
	<g>
		<path d="M336.253,276.07l-4.707-4.707l2.853-2.853c2.981-2.981,2.981-7.814,0-10.794c-2.981-2.981-7.814-2.981-10.794,0    l-2.853,2.853l-12.844-12.844l2.853-2.853c2.981-2.981,2.981-7.814,0-10.794c-2.981-2.982-7.814-2.981-10.794,0l-2.853,2.853    l-12.844-12.844l2.853-2.853c2.981-2.981,2.981-7.814,0-10.794c-2.981-2.982-7.814-2.981-10.794,0l-2.853,2.853l-12.844-12.844    l2.852-2.852c2.981-2.981,2.981-7.814,0-10.794c-2.981-2.981-7.814-2.981-10.794,0l-2.852,2.852l-1.12-1.12    c-5.523-5.522-14.51-5.522-20.033,0l-39.009,39.009c-2.676,2.676-4.149,6.233-4.149,10.016c0,3.784,1.473,7.341,4.149,10.016    l1.12,1.12l-3.996,3.996c-2.981,2.981-2.981,7.813,0,10.794c1.49,1.491,3.444,2.236,5.397,2.236s3.907-0.745,5.397-2.236    l3.996-3.996l12.844,12.844l-3.996,3.996c-2.981,2.981-2.981,7.814,0,10.794c1.49,1.49,3.444,2.236,5.397,2.236    s3.907-0.745,5.397-2.236l3.996-3.996l12.844,12.844l-3.996,3.996c-2.981,2.981-2.981,7.814,0,10.794    c1.49,1.49,3.444,2.236,5.397,2.236s3.907-0.745,5.397-2.236l3.996-3.996l12.844,12.844l-3.996,3.996    c-2.98,2.981-2.98,7.815,0.001,10.795c1.49,1.49,3.444,2.236,5.397,2.236s3.907-0.745,5.397-2.236l3.996-3.996l4.707,4.707    c2.676,2.676,6.233,4.149,10.016,4.149c3.784,0,7.341-1.473,10.016-4.149l39.009-39.009c2.676-2.676,4.149-6.233,4.149-10.017    S338.93,278.745,336.253,276.07z M287.233,323.544l-9.322-9.322c-0.001-0.001-0.003-0.003-0.004-0.004    c-0.001-0.001-0.003-0.003-0.005-0.004l-23.633-23.635c-0.001-0.001-0.003-0.003-0.004-0.004    c-0.001-0.001-0.003-0.003-0.005-0.004l-23.63-23.63c-0.001-0.001-0.003-0.003-0.004-0.004c-0.001-0.001-0.003-0.003-0.005-0.004    l-29.373-29.373l37.453-37.453l5.739,5.738c0,0,0,0,0.001,0.001c0,0,0,0,0.001,0.001l23.638,23.638c0,0,0,0,0.001,0.001    c0.001,0.001,0,0,0.001,0.001l23.638,23.638c0,0,0,0,0.001,0.001c0,0,0,0,0.001,0.001l32.964,32.964L287.233,323.544z" fill="#FFFFFF"/>
	</g>
</g>
<g>
	<g>
		<path d="M430.083,182.24l-4.707-4.707l2.853-2.853c2.981-2.981,2.981-7.813,0-10.794c-2.98-2.981-7.813-2.981-10.794,0    l-2.853,2.853l-12.844-12.844l2.853-2.853c2.981-2.981,2.981-7.814,0-10.794c-2.981-2.982-7.814-2.981-10.794,0l-2.853,2.853    l-12.844-12.845l2.853-2.853c2.981-2.981,2.981-7.814,0-10.794c-2.981-2.982-7.814-2.981-10.794,0l-2.853,2.853l-12.844-12.844    l2.852-2.852c2.981-2.981,2.981-7.814,0-10.794c-2.981-2.981-7.814-2.981-10.794,0l-2.852,2.852l-1.12-1.12    c-5.523-5.522-14.51-5.522-20.033,0l-39.01,39.01c-5.522,5.523-5.522,14.51,0.001,20.032l1.12,1.12l-3.996,3.996    c-2.981,2.981-2.981,7.813,0,10.794c1.49,1.491,3.444,2.236,5.397,2.236s3.907-0.745,5.397-2.236l3.996-3.996l12.844,12.844    l-3.996,3.996c-2.981,2.981-2.981,7.813,0,10.794c1.49,1.491,3.444,2.236,5.397,2.236s3.907-0.745,5.397-2.236l3.996-3.996    l12.844,12.844l-3.996,3.996c-2.981,2.981-2.981,7.814,0,10.794c1.49,1.49,3.444,2.236,5.397,2.236s3.907-0.745,5.397-2.236    l3.996-3.996l12.844,12.844l-3.996,3.996c-2.98,2.981-2.98,7.814,0.001,10.795c1.49,1.49,3.444,2.236,5.397,2.236    s3.907-0.745,5.397-2.236l3.996-3.996l4.707,4.707c2.676,2.676,6.233,4.149,10.016,4.149c3.784,0,7.341-1.473,10.016-4.149    l39.009-39.009c2.676-2.676,4.149-6.233,4.149-10.017S432.76,184.915,430.083,182.24z M381.064,229.713l-9.322-9.322    c-0.001-0.001-0.003-0.003-0.004-0.004c-0.001-0.001-0.003-0.003-0.005-0.004l-23.634-23.634    c-0.001-0.001-0.003-0.003-0.004-0.004c-0.001-0.001-0.003-0.003-0.005-0.004l-53.012-53.012l37.453-37.453l5.739,5.739    c0,0,0,0,0.001,0.001c0,0,0,0,0.001,0l23.638,23.638c0,0,0,0,0.001,0.001c0.001,0.001,0,0,0.001,0.001l23.638,23.638    c0,0,0,0,0.001,0.001c0.001,0.001,0,0,0.001,0.001l23.637,23.637c0,0,0,0,0.001,0.001c0,0,0,0,0.001,0l9.326,9.326    L381.064,229.713z" fill="#FFFFFF"/>
	</g>
</g>
<g>
	<g>
		<path d="M507.698,167.063l-65.206-65.206c-2.981-2.981-7.814-2.981-10.794,0l-6.208,6.208c-2.417,2.417-6.35,2.417-8.767,0    s-2.417-6.349,0-8.766l6.208-6.208c1.432-1.431,2.236-3.373,2.236-5.397c0-2.024-0.804-3.966-2.236-5.397l-65.206-65.205    c-5.728-5.729-15.049-5.728-20.776,0l-6.346,6.346L311.63,4.464c-5.949-5.949-15.63-5.951-21.58,0L4.462,290.051    c-5.95,5.95-5.95,15.631,0,21.581l18.972,18.972l-6.347,6.346c-2.775,2.775-4.303,6.464-4.303,10.388s1.528,7.614,4.303,10.388    l65.206,65.206c1.432,1.432,3.373,2.236,5.397,2.236s3.966-0.804,5.398-2.236l6.207-6.208c1.171-1.171,2.728-1.816,4.383-1.816    c1.655,0,3.213,0.645,4.383,1.816c1.171,1.171,1.815,2.728,1.815,4.383c0,1.655-0.645,3.213-1.816,4.383l-6.208,6.208    c-2.981,2.981-2.98,7.814,0,10.794l65.205,65.205c2.775,2.775,6.464,4.303,10.388,4.303s7.614-1.528,10.388-4.303l228.608-228.608    c2.981-2.981,2.981-7.814,0-10.794c-2.981-2.981-7.814-2.981-10.794,0L177.448,496.497l-59.401-59.401l0.811-0.811    c8.369-8.369,8.369-21.987,0-30.356c-4.054-4.054-9.444-6.287-15.178-6.287s-11.124,2.233-15.178,6.287l-0.811,0.811    L28.29,347.339l11.334-11.334c0.001-0.001,0.002-0.002,0.004-0.003c0.001-0.001,0.002-0.002,0.003-0.004l26.148-26.148    c2.981-2.981,2.981-7.814,0-10.794c-2.98-2.981-7.813-2.981-10.794,0L34.23,319.81l-18.972-18.965l9.59-9.59l8.475,8.475    c1.49,1.49,3.444,2.236,5.397,2.236c1.953,0,3.907-0.745,5.397-2.236c2.981-2.981,2.981-7.814,0-10.794l-8.475-8.475    l14.766-14.767l8.475,8.475c1.49,1.49,3.444,2.236,5.397,2.236s3.907-0.745,5.397-2.236c2.981-2.981,2.981-7.814,0-10.794    l-8.475-8.475l14.767-14.767l8.476,8.476c1.49,1.49,3.444,2.236,5.397,2.236s3.907-0.745,5.397-2.236    c2.981-2.981,2.981-7.814,0-10.794l-8.476-8.476l14.766-14.767l8.476,8.476c1.49,1.49,3.444,2.236,5.397,2.236    s3.907-0.745,5.397-2.236c2.981-2.981,2.981-7.814,0-10.794l-8.476-8.476l14.767-14.767l8.476,8.476    c1.49,1.491,3.444,2.236,5.397,2.236s3.907-0.745,5.397-2.236c2.981-2.981,2.981-7.814,0-10.794l-8.476-8.476l14.767-14.767    l8.477,8.477c1.49,1.49,3.444,2.236,5.397,2.236s3.907-0.745,5.397-2.236c2.981-2.981,2.981-7.814,0-10.794l-8.477-8.477    l14.766-14.767l8.477,8.477c1.49,1.49,3.444,2.236,5.397,2.236s3.907-0.745,5.397-2.236c2.981-2.981,2.981-7.814,0-10.794    l-8.477-8.477l14.767-14.767l8.477,8.478c1.49,1.49,3.444,2.236,5.397,2.236s3.907-0.745,5.397-2.236    c2.981-2.981,2.981-7.814,0-10.794l-8.478-8.478l14.767-14.767l8.477,8.478c1.49,1.491,3.444,2.236,5.397,2.236    s3.907-0.745,5.397-2.236c2.981-2.981,2.981-7.813,0-10.794l-8.478-8.478l14.767-14.767l8.478,8.478    c1.49,1.49,3.444,2.236,5.397,2.236s3.907-0.745,5.397-2.236c2.981-2.981,2.981-7.814,0-10.794l-8.478-8.478l14.767-14.767    l8.479,8.479c1.49,1.49,3.444,2.236,5.397,2.236s3.907-0.745,5.397-2.236c2.981-2.981,2.981-7.814,0-10.794l-8.479-8.479    l9.586-9.586l18.973,18.973L83.769,270.27c-2.981,2.981-2.981,7.814,0,10.794c1.49,1.49,3.444,2.236,5.397,2.236    s3.907-0.745,5.397-2.236L347.338,28.292l59.402,59.401l-0.811,0.811c-8.369,8.369-8.369,21.986,0,30.355    c4.054,4.055,9.444,6.287,15.178,6.287s11.124-2.232,15.178-6.287l0.811-0.811l59.402,59.402l-62.06,62.06    c-2.981,2.981-2.981,7.814,0,10.794c2.981,2.981,7.814,2.981,10.794,0l62.466-62.466c2.775-2.774,4.303-6.464,4.303-10.388    C512,173.526,510.472,169.837,507.698,167.063z" fill="#FFFFFF"/>
	</g>
</g>
<g>
</g>
<g>
</g>
<g>
</g>
<g>
</g>
<g>
</g>
<g>
</g>
<g>
</g>
<g>
</g>
<g>
</g>
<g>
</g>
<g>
</g>
<g>
</g>
<g>
</g>
<g>
</g>
<g>
</g>
</svg>
