<?xml version="1.0" encoding="iso-8859-1"?>
<!-- Generator: Adobe Illustrator 19.0.0, SVG Export Plug-In . SVG Version: 6.00 Build 0)  -->
<svg xmlns="http://www.w3.org/2000/svg" xmlns:xlink="http://www.w3.org/1999/xlink" version="1.1" id="Capa_1" x="0px" y="0px" viewBox="0 0 512 512" style="enable-background:new 0 0 512 512;" xml:space="preserve" width="512px" height="512px">
<g>
	<g>
		<path d="M100.285,45.113c-4.143,0-7.5,3.358-7.5,7.5v11.089c0,4.142,3.357,7.5,7.5,7.5s7.5-3.358,7.5-7.5V52.613    C107.786,48.471,104.428,45.113,100.285,45.113z" fill="#FFFFFF"/>
	</g>
</g>
<g>
	<g>
		<path d="M100.285,318.793c-4.143,0-7.5,3.358-7.5,7.5v11.089c0,4.142,3.358,7.5,7.5,7.5c4.143,0,7.5-3.358,7.5-7.5v-11.089    C107.786,322.152,104.428,318.793,100.285,318.793z" fill="#FFFFFF"/>
	</g>
</g>
<g>
	<g>
		<path d="M201.554,45.113c-4.143,0-7.5,3.358-7.5,7.5v11.089c0,4.142,3.357,7.5,7.5,7.5s7.5-3.358,7.5-7.5V52.613    C209.055,48.471,205.697,45.113,201.554,45.113z" fill="#FFFFFF"/>
	</g>
</g>
<g>
	<g>
		<path d="M201.554,318.793c-4.143,0-7.5,3.358-7.5,7.5v11.089c0,4.142,3.357,7.5,7.5,7.5s7.5-3.358,7.5-7.5v-11.089    C209.055,322.152,205.697,318.793,201.554,318.793z" fill="#FFFFFF"/>
	</g>
</g>
<g>
	<g>
		<path d="M495.199,364.437H425.84l33.451-12.175c4.882-1.777,8.786-5.36,10.991-10.09c2.205-4.729,2.441-10.023,0.664-14.905    c-3.389-9.313-110.109-302.524-112.44-308.928C354.828,8.236,343.609,3.008,333.51,6.685l-70.011,25.482v-0.983    c0-10.753-8.749-19.501-19.501-19.501H166.73c-4.526,0-8.688,1.564-12.001,4.162c-3.313-2.598-7.474-4.162-12.001-4.162H65.462    c-10.753,0-19.501,8.749-19.501,19.501v328.752c0,1.551,0.201,3.053,0.545,4.5H16.802C7.537,364.436,0,371.974,0,381.237v24.504    c0,9.265,7.537,16.801,16.802,16.801h7.605v67.148c0,9.265,7.537,16.801,16.802,16.801h24.503c9.265,0,16.802-7.537,16.802-16.801    v-33.729h155.984c4.143,0,7.5-3.358,7.5-7.5s-3.357-7.5-7.5-7.5H82.515v-18.418h346.971v18.418H273.501    c-4.143,0-7.5,3.358-7.5,7.5s3.357,7.5,7.5,7.5h155.985v33.729c0,9.265,7.536,16.801,16.801,16.801h24.505    c9.265,0,16.802-7.537,16.802-16.801V474.52c0-4.142-3.357-7.5-7.5-7.5s-7.5,3.358-7.5,7.5v15.173c0,0.993-0.808,1.8-1.801,1.8    h-24.504c-0.992,0-1.8-0.808-1.8-1.8c0-6.883,0-59.492,0-67.148h28.106v16.973c0,4.142,3.357,7.5,7.5,7.5s7.5-3.358,7.5-7.5    v-16.973h7.605c9.265,0,16.801-7.537,16.801-16.801v-24.505C512,371.975,504.464,364.437,495.199,364.437z M456.849,332.398    c0.407,1.117,0.349,2.336-0.163,3.434c-0.512,1.098-1.409,1.927-2.526,2.333l-72.181,26.272h-3.839    c-0.007-0.003-0.015-0.004-0.022-0.008c-1.098-0.512-1.926-1.409-2.332-2.526l-19.572-53.773l81.065-29.505L456.849,332.398z     M432.146,264.529l-81.063,29.504l-4.25-11.678l81.063-29.505L432.146,264.529z M422.766,238.753l-81.065,29.506L298.22,148.797    l81.066-29.506L422.766,238.753z M374.155,105.195L293.091,134.7l-4.25-11.679l81.064-29.505L374.155,105.195z M263.499,49.594    c0.486-1.072,1.371-1.962,2.534-2.385l72.608-26.427c0.487-0.178,0.991-0.262,1.49-0.262c1.845,0,3.621,1.147,4.277,2.951    l20.363,55.949l-81.066,29.506l-20.207-55.522V49.594z M263.499,359.937c0-7.535,0.002-254.756,0.002-261.712    c0-0.013-0.002-0.026-0.002-0.039v-0.922l97.244,267.173h-97.789C263.298,362.99,263.499,361.488,263.499,359.937z     M162.231,31.185c0-2.439,2.061-4.5,4.5-4.5h77.268c2.439,0,4.5,2.061,4.5,4.5c0,0,0,59.524,0,59.541h-86.268V31.185z     M248.498,105.725v12.428h-86.266v-12.428H248.498z M162.231,133.154h86.268v127.13h-86.268V133.154z M248.498,275.285v12.428    h-86.266v-12.428H248.498z M162.231,302.712h86.268v57.224c0,2.439-2.061,4.5-4.5,4.5h-77.268c-2.439,0-4.5-2.061-4.5-4.5V302.712    z M60.962,31.185c0-2.439,2.061-4.5,4.5-4.5h77.268c2.439,0,4.5,2.061,4.5,4.5v59.541H60.962V31.185z M147.23,105.725v12.428    H60.964v-12.428H147.23z M60.962,133.154h86.268v127.13H60.962V133.154z M147.23,275.285v12.428H60.964v-12.428H147.23z     M60.962,302.712h86.268v57.224c0,2.439-2.061,4.5-4.5,4.5H65.462c-2.439,0-4.5-2.061-4.5-4.5V302.712z M67.514,489.693    c0,0.993-0.808,1.8-1.801,1.8H41.209c-0.993,0-1.801-0.808-1.801-1.8v-67.148h28.106    C67.514,430.201,67.514,482.808,67.514,489.693z M496.999,405.743c0,0.993-0.808,1.8-1.8,1.8c-24.239,0-454.62,0-478.397,0    c-0.993,0-1.801-0.808-1.801-1.8v-24.504c0-0.993,0.808-1.8,1.801-1.8c4.435,0,473.982,0,478.397,0c0.992,0,1.8,0.808,1.8,1.8    V405.743z" fill="#FFFFFF"/>
	</g>
</g>
<g>
	<g>
		<path d="M318.465,67.519l-3.792-10.42c-1.416-3.892-5.723-5.902-9.613-4.483c-3.893,1.417-5.9,5.72-4.483,9.614l3.792,10.42    c1.108,3.046,3.984,4.937,7.049,4.937c0.851,0,1.718-0.146,2.563-0.454C317.875,75.716,319.881,71.412,318.465,67.519z" fill="#FFFFFF"/>
	</g>
</g>
<g>
	<g>
		<path d="M412.069,324.694l-3.792-10.42c-1.416-3.891-5.72-5.903-9.614-4.483c-3.892,1.417-5.899,5.721-4.482,9.614l3.792,10.42    c1.108,3.046,3.984,4.937,7.049,4.937c0.851,0,1.718-0.146,2.564-0.454C411.479,332.89,413.486,328.586,412.069,324.694z" fill="#FFFFFF"/>
	</g>
</g>
<g>
</g>
<g>
</g>
<g>
</g>
<g>
</g>
<g>
</g>
<g>
</g>
<g>
</g>
<g>
</g>
<g>
</g>
<g>
</g>
<g>
</g>
<g>
</g>
<g>
</g>
<g>
</g>
<g>
</g>
</svg>
