<svg enable-background="new 0 0 512 512" height="512" viewBox="0 0 512 512" width="512" xmlns="http://www.w3.org/2000/svg"><g fill="#fff"><path d="m100.285 45.113c-4.143 0-7.5 3.358-7.5 7.5v11.089c0 4.142 3.357 7.5 7.5 7.5s7.5-3.358 7.5-7.5v-11.089c.001-4.142-3.357-7.5-7.5-7.5z"/><path d="m100.285 318.793c-4.143 0-7.5 3.358-7.5 7.5v11.089c0 4.142 3.358 7.5 7.5 7.5 4.143 0 7.5-3.358 7.5-7.5v-11.089c.001-4.141-3.357-7.5-7.5-7.5z"/><path d="m201.554 45.113c-4.143 0-7.5 3.358-7.5 7.5v11.089c0 4.142 3.357 7.5 7.5 7.5s7.5-3.358 7.5-7.5v-11.089c.001-4.142-3.357-7.5-7.5-7.5z"/><path d="m201.554 318.793c-4.143 0-7.5 3.358-7.5 7.5v11.089c0 4.142 3.357 7.5 7.5 7.5s7.5-3.358 7.5-7.5v-11.089c.001-4.141-3.357-7.5-7.5-7.5z"/><path d="m495.199 364.437h-69.359l33.451-12.175c4.882-1.777 8.786-5.36 10.991-10.09 2.205-4.729 2.441-10.023.664-14.905-3.389-9.313-110.109-302.524-112.44-308.928-3.678-10.103-14.897-15.331-24.996-11.654l-70.011 25.482v-.983c0-10.753-8.749-19.501-19.501-19.501h-77.268c-4.526 0-8.688 1.564-12.001 4.162-3.313-2.598-7.474-4.162-12.001-4.162h-77.266c-10.753 0-19.501 8.749-19.501 19.501v328.752c0 1.551.201 3.053.545 4.5h-29.704c-9.265 0-16.802 7.538-16.802 16.801v24.504c0 9.265 7.537 16.801 16.802 16.801h7.605v67.148c0 9.265 7.537 16.801 16.802 16.801h24.503c9.265 0 16.802-7.537 16.802-16.801v-33.729h155.984c4.143 0 7.5-3.358 7.5-7.5s-3.357-7.5-7.5-7.5h-155.983v-18.418h346.971v18.418h-155.985c-4.143 0-7.5 3.358-7.5 7.5s3.357 7.5 7.5 7.5h155.985v33.729c0 9.265 7.536 16.801 16.801 16.801h24.505c9.265 0 16.802-7.537 16.802-16.801v-15.17c0-4.142-3.357-7.5-7.5-7.5s-7.5 3.358-7.5 7.5v15.173c0 .993-.808 1.8-1.801 1.8h-24.504c-.992 0-1.8-.808-1.8-1.8 0-6.883 0-59.492 0-67.148h28.106v16.973c0 4.142 3.357 7.5 7.5 7.5s7.5-3.358 7.5-7.5v-16.973h7.605c9.265 0 16.801-7.537 16.801-16.801v-24.505c-.001-9.264-7.537-16.802-16.802-16.802zm-38.35-32.039c.407 1.117.349 2.336-.163 3.434s-1.409 1.927-2.526 2.333l-72.181 26.272h-3.839c-.007-.003-.015-.004-.022-.008-1.098-.512-1.926-1.409-2.332-2.526l-19.572-53.773 81.065-29.505zm-24.703-67.869-81.063 29.504-4.25-11.678 81.063-29.505zm-9.38-25.776-81.065 29.506-43.481-119.462 81.066-29.506zm-48.611-133.558-81.064 29.505-4.25-11.679 81.064-29.505zm-110.656-55.601c.486-1.072 1.371-1.962 2.534-2.385l72.608-26.427c.487-.178.991-.262 1.49-.262 1.845 0 3.621 1.147 4.277 2.951l20.363 55.949-81.066 29.506-20.207-55.522v-3.81zm0 310.343c0-7.535.002-254.756.002-261.712 0-.013-.002-.026-.002-.039v-.922l97.244 267.173h-97.789c.344-1.447.545-2.949.545-4.5zm-101.268-328.752c0-2.439 2.061-4.5 4.5-4.5h77.268c2.439 0 4.5 2.061 4.5 4.5v59.541h-86.268zm86.267 74.54v12.428h-86.266v-12.428zm-86.267 27.429h86.268v127.13h-86.268zm86.267 142.131v12.428h-86.266v-12.428zm-86.267 27.427h86.268v57.224c0 2.439-2.061 4.5-4.5 4.5h-77.268c-2.439 0-4.5-2.061-4.5-4.5zm-101.269-271.527c0-2.439 2.061-4.5 4.5-4.5h77.268c2.439 0 4.5 2.061 4.5 4.5v59.541h-86.268zm86.268 74.54v12.428h-86.266v-12.428zm-86.268 27.429h86.268v127.13h-86.268zm86.268 142.131v12.428h-86.266v-12.428zm-86.268 27.427h86.268v57.224c0 2.439-2.061 4.5-4.5 4.5h-77.268c-2.439 0-4.5-2.061-4.5-4.5zm6.552 186.981c0 .993-.808 1.8-1.801 1.8h-24.504c-.993 0-1.801-.808-1.801-1.8v-67.148h28.106zm429.485-83.95c0 .993-.808 1.8-1.8 1.8-24.239 0-454.62 0-478.397 0-.993 0-1.801-.808-1.801-1.8v-24.504c0-.993.808-1.8 1.801-1.8h478.397c.992 0 1.8.808 1.8 1.8z"/><path d="m318.465 67.519-3.792-10.42c-1.416-3.892-5.723-5.902-9.613-4.483-3.893 1.417-5.9 5.72-4.483 9.614l3.792 10.42c1.108 3.046 3.984 4.937 7.049 4.937.851 0 1.718-.146 2.563-.454 3.894-1.417 5.9-5.721 4.484-9.614z"/><path d="m412.069 324.694-3.792-10.42c-1.416-3.891-5.72-5.903-9.614-4.483-3.892 1.417-5.899 5.721-4.482 9.614l3.792 10.42c1.108 3.046 3.984 4.937 7.049 4.937.851 0 1.718-.146 2.564-.454 3.893-1.418 5.9-5.722 4.483-9.614z"/></g></svg>