<svg width="241" height="120" version="1.1" viewBox="0 0 63.765 31.75" xmlns="http://www.w3.org/2000/svg"><g transform="matrix(.26458 0 0 .26458 -2.8537 -2.8798)"><path d="m71.05 23.68c-26.06 0-47.27 21.22-47.27 47.27s21.22 47.27 47.27 47.27 47.27-21.22 47.27-47.27-21.22-47.27-47.27-47.27zm-0.07 4.2a3.1 3.11 0 0 1 3.02 3.11 3.11 3.11 0 0 1-6.22 0 3.11 3.11 0 0 1 3.2-3.11zm7.12 5.12a38.27 38.27 0 0 1 26.2 18.66l-3.67 8.28c-0.63 1.43 0.02 3.11 1.44 3.75l7.06 3.13a38.27 38.27 0 0 1 0.08 6.64h-3.93c-0.39 0-0.55 0.26-0.55 0.64v1.8c0 4.24-2.39 5.17-4.49 5.4-2 0.23-4.21-0.84-4.49-2.06-1.18-6.63-3.14-8.04-6.24-10.49 3.85-2.44 7.85-6.05 7.85-10.87 0-5.21-3.57-8.49-6-10.1-3.42-2.25-7.2-2.7-8.22-2.7h-40.6a38.27 38.27 0 0 1 21.41-12.08l4.79 5.02c1.08 1.13 2.87 1.18 4 0.09zm-44.2 23.02a3.11 3.11 0 0 1 3.02 3.11 3.11 3.11 0 0 1-6.22 0 3.11 3.11 0 0 1 3.2-3.11zm74.15 0.14a3.11 3.11 0 0 1 3.02 3.11 3.11 3.11 0 0 1-6.22 0 3.11 3.11 0 0 1 3.2-3.11zm-68.29 0.5h5.42v24.44h-10.94a38.27 38.27 0 0 1-1.24-14.61l6.7-2.98c1.43-0.64 2.08-2.31 1.44-3.74zm22.62 0.26h12.91c0.67 0 4.71 0.77 4.71 3.8 0 2.51-3.1 3.41-5.65 3.41h-11.98zm0 17.56h9.89c0.9 0 4.83 0.26 6.08 5.28 0.39 1.54 1.26 6.56 1.85 8.17 0.59 1.8 2.98 5.4 5.53 5.4h16.14a38.27 38.27 0 0 1-3.54 4.1l-6.57-1.41c-1.53-0.33-3.04 0.65-3.37 2.18l-1.56 7.28a38.27 38.27 0 0 1-31.91-0.15l-1.56-7.28c-0.33-1.53-1.83-2.51-3.36-2.18l-6.43 1.38a38.27 38.27 0 0 1-3.32-3.92h31.27c0.35 0 0.59-0.06 0.59-0.39v-11.06c0-0.32-0.24-0.39-0.59-0.39h-9.15zm-14.43 25.33a3.11 3.11 0 0 1 3.02 3.11 3.11 3.11 0 0 1-6.22 0 3.11 3.11 0 0 1 3.2-3.11zm46.05 0.14a3.11 3.11 0 0 1 3.02 3.11 3.11 3.11 0 0 1-6.22 0 3.11 3.11 0 0 1 3.2-3.11z"/><path d="m115.68 70.95a44.63 44.63 0 0 1-44.63 44.63 44.63 44.63 0 0 1-44.63-44.63 44.63 44.63 0 0 1 44.63-44.63 44.63 44.63 0 0 1 44.63 44.63zm-0.84-4.31 6.96 4.31-6.96 4.31 5.98 5.59-7.66 2.87 4.78 6.65-8.09 1.32 3.4 7.46-8.19-0.29 1.88 7.98-7.98-1.88 0.29 8.19-7.46-3.4-1.32 8.09-6.65-4.78-2.87 7.66-5.59-5.98-4.31 6.96-4.31-6.96-5.59 5.98-2.87-7.66-6.65 4.78-1.32-8.09-7.46 3.4 0.29-8.19-7.98 1.88 1.88-7.98-8.19 0.29 3.4-7.46-8.09-1.32 4.78-6.65-7.66-2.87 5.98-5.59-6.96-4.31 6.96-4.31-5.98-5.59 7.66-2.87-4.78-6.65 8.09-1.32-3.4-7.46 8.19 0.29-1.88-7.98 7.98 1.88-0.29-8.19 7.46 3.4 1.32-8.09 6.65 4.78 2.87-7.66 5.59 5.98 4.31-6.96 4.31 6.96 5.59-5.98 2.87 7.66 6.65-4.78 1.32 8.09 7.46-3.4-0.29 8.19 7.98-1.88-1.88 7.98 8.19-0.29-3.4 7.46 8.09 1.32-4.78 6.65 7.66 2.87z" fill-rule="evenodd" stroke="#000" stroke-linecap="round" stroke-linejoin="round" stroke-width="3"/></g><text x="31.801769" y="13.084278" fill="#000000" font-family="'Fira Sans'" font-size="4.9389px" font-weight="800" letter-spacing="-.092604px" stroke-linecap="round" stroke-width=".26458" style="line-height:0.93" xml:space="preserve"><tspan x="31.801769" y="13.084278" dy="0">The Rust</tspan><tspan x="31.801769" y="17.788126">Programming</tspan><tspan x="31.801769" y="22.491974">Language</tspan></text></svg>
