<?xml version="1.0" standalone="no"?>
<!DOCTYPE svg PUBLIC "-//W3C//DTD SVG 20010904//EN"
 "http://www.w3.org/TR/2001/REC-SVG-20010904/DTD/svg10.dtd">
<svg version="1.0" xmlns="http://www.w3.org/2000/svg"
 width="700.000000pt" height="700.000000pt" viewBox="0 0 700.000000 700.000000"
 preserveAspectRatio="xMidYMid meet">
<metadata>
Created by potrace 1.11, written by Peter Selinger 2001-2013
</metadata>
<g transform="translate(0.000000,700.000000) scale(0.100000,-0.100000)"
fill="#000000" stroke="none">
<path d="M3407 6068 c-13 -13 -52 -69 -86 -124 -86 -142 -87 -142 -216 -8 -85
88 -105 104 -131 104 -45 0 -63 -26 -115 -163 -62 -163 -62 -163 -211 -56
-120 85 -152 95 -187 58 -11 -12 -22 -33 -25 -48 -10 -49 -32 -189 -35 -221 0
-9 -13 -23 -29 -32 -30 -18 -18 -22 -196 64 -58 27 -110 35 -132 20 -30 -20
-36 -55 -30 -179 9 -180 3 -186 -150 -148 -145 35 -169 37 -199 13 -32 -25
-32 -51 4 -199 26 -111 27 -118 11 -139 -16 -21 -24 -22 -121 -20 -177 4 -190
3 -208 -22 -26 -38 -23 -56 34 -183 49 -110 54 -126 43 -149 -12 -27 -21 -31
-93 -41 -22 -3 -53 -8 -70 -10 -16 -3 -43 -7 -60 -10 -49 -8 -82 -25 -93 -50
-18 -40 -12 -53 101 -209 40 -56 47 -71 42 -96 -7 -31 1 -27 -187 -97 -78 -29
-101 -51 -101 -95 0 -28 14 -45 102 -128 133 -125 133 -130 0 -212 -129 -79
-146 -93 -151 -122 -8 -41 21 -72 137 -144 149 -93 149 -91 11 -225 -97 -94
-105 -104 -100 -132 3 -16 12 -37 20 -45 8 -8 69 -36 137 -61 110 -43 123 -50
131 -77 7 -26 1 -39 -67 -133 -89 -123 -98 -150 -59 -189 21 -21 41 -29 92
-35 36 -5 67 -9 70 -10 3 -1 25 -5 50 -9 71 -12 81 -16 91 -42 7 -21 -1 -47
-46 -146 -30 -66 -55 -129 -55 -138 0 -10 10 -29 21 -44 l22 -28 144 4 c139 3
146 2 163 -19 17 -21 16 -26 -7 -120 -36 -145 -39 -184 -17 -210 24 -28 66
-33 124 -16 24 7 55 15 69 18 13 2 47 9 76 16 46 10 54 9 73 -7 20 -17 21 -24
16 -154 -5 -128 -4 -137 16 -163 31 -39 61 -35 196 27 112 52 119 54 146 40
15 -8 28 -22 29 -32 0 -9 2 -26 4 -37 9 -52 18 -103 21 -130 13 -92 37 -125
91 -125 9 0 67 36 130 81 151 107 150 107 215 -62 76 -199 100 -204 249 -47
72 75 101 99 114 95 9 -4 20 -7 25 -7 5 0 40 -51 79 -114 80 -128 104 -148
155 -124 19 8 135 179 152 222 3 8 20 16 37 19 30 5 39 -2 132 -99 143 -149
167 -145 236 43 49 135 51 139 85 147 20 5 44 -7 128 -69 117 -85 149 -96 187
-67 21 17 27 35 38 104 27 165 32 186 46 198 20 17 48 16 86 -2 205 -97 226
-102 263 -65 23 23 23 27 19 163 -4 131 -3 141 16 158 20 18 24 18 98 2 43
-10 88 -20 100 -22 12 -2 33 -8 45 -13 48 -18 103 5 112 46 6 29 6 33 -14 118
-6 28 -14 61 -16 75 -3 14 -9 41 -14 60 -8 29 -7 38 10 55 19 18 31 20 158 17
124 -3 141 -1 162 16 35 28 30 64 -29 192 -53 118 -58 150 -23 168 16 9 108
27 195 38 67 9 97 25 106 59 10 37 6 45 -81 168 -62 86 -69 101 -64 130 6 30
11 34 104 66 53 19 113 42 133 52 40 20 61 61 49 94 -4 11 -51 61 -104 110
-129 120 -129 126 9 212 123 77 145 98 145 132 0 41 -15 55 -135 129 -98 60
-110 71 -113 98 -3 28 7 41 92 120 96 88 112 111 107 149 -5 36 -30 52 -153
96 -127 46 -147 63 -135 111 4 13 14 32 24 43 49 53 126 175 126 201 0 40 -41
70 -105 80 -29 4 -55 8 -58 9 -3 1 -33 5 -68 9 -63 8 -102 32 -102 63 0 7 16
48 36 90 79 170 83 189 45 227 -20 20 -23 20 -190 16 -109 -2 -116 -1 -133 20
-11 14 -16 30 -12 43 3 11 7 25 8 31 3 12 29 128 31 136 23 81 13 124 -32 141
-21 8 -54 3 -159 -22 l-132 -32 -21 20 c-21 19 -22 28 -19 161 3 126 1 142
-16 161 -30 33 -70 26 -197 -33 -106 -49 -118 -52 -141 -40 -26 14 -28 20 -54
177 -2 15 -6 42 -9 60 -8 48 -37 81 -73 85 -26 3 -51 -11 -142 -77 -149 -107
-149 -107 -212 60 -28 73 -57 132 -70 142 -38 32 -77 17 -144 -54 -130 -138
-129 -137 -157 -132 -23 5 -67 48 -67 67 0 3 -25 44 -55 90 -67 101 -101 118
-148 74z m132 -459 c58 -54 71 -116 38 -180 -61 -120 -218 -109 -273 21 -19
45 1 114 44 153 53 48 143 50 191 6z m-152 -488 c33 -16 84 -13 118 7 26 16
151 131 256 235 35 34 51 34 181 -3 436 -122 815 -396 1061 -767 l68 -101 -93
-209 c-146 -329 -148 -324 192 -472 126 -55 134 -60 136 -87 4 -56 6 -140 5
-216 l-1 -77 -107 -3 -107 -3 -2 -30 c-2 -16 -5 -65 -8 -108 -8 -139 -63 -208
-185 -232 -66 -14 -137 -1 -193 33 -42 26 -50 43 -78 162 -38 163 -94 255
-221 360 l-58 48 42 28 c101 66 198 160 260 253 159 237 67 556 -213 736 -111
72 -201 105 -355 130 -5 1 -462 3 -1015 4 l-1005 1 87 83 c47 46 99 93 115
105 15 12 46 36 68 53 94 74 288 185 405 232 25 10 54 23 65 27 26 12 174 55
245 73 l55 13 130 -132 c72 -73 140 -137 152 -143z m-1664 -873 c119 -77 75
-249 -69 -271 -77 -12 -172 84 -160 161 8 50 42 98 87 120 48 24 95 21 142
-10z m3581 8 c40 -17 86 -74 92 -116 12 -75 -52 -159 -129 -167 -159 -18 -230
190 -93 272 47 28 82 31 130 11z m-3108 -603 l0 -593 -35 -1 c-47 -1 -427 -1
-467 0 -31 1 -31 1 -53 99 -12 53 -24 117 -27 142 -3 25 -8 74 -12 110 -7 62
-8 158 -2 297 3 61 3 62 39 76 53 22 144 63 247 112 75 36 94 50 108 79 27 58
21 93 -41 223 -8 18 -12 36 -10 41 3 4 61 8 129 8 l123 -1 1 -592z m1541 563
c141 -47 193 -175 107 -262 -62 -61 -98 -66 -476 -69 l-338 -3 2 174 1 173 26
3 c14 2 161 2 327 2 252 -1 309 -4 351 -18z m-107 -862 c65 -30 124 -94 154
-167 14 -34 37 -120 51 -192 54 -266 89 -357 176 -445 87 -89 60 -85 519 -87
223 -1 409 -2 414 -2 10 -1 -70 -99 -130 -158 -41 -40 -44 -42 -79 -32 -21 6
-45 12 -55 14 -10 2 -62 13 -116 26 -55 12 -116 21 -136 21 -45 -1 -90 -25
-111 -61 -13 -22 -54 -187 -71 -284 -3 -15 -7 -35 -9 -45 -3 -9 -8 -29 -11
-44 -5 -21 -19 -31 -78 -56 -296 -121 -667 -160 -1003 -107 -128 20 -317 76
-427 124 -52 24 -43 0 -95 241 -32 150 -43 178 -79 209 -38 34 -82 39 -159 21
-22 -6 -53 -12 -70 -15 -16 -3 -67 -14 -112 -24 l-82 -18 -44 46 c-24 25 -61
67 -82 94 -32 40 -35 47 -19 48 11 0 358 1 772 1 683 1 752 2 753 17 1 9 2
136 3 284 1 304 10 280 -92 277 -31 -1 -130 -1 -219 -1 l-162 1 0 171 1 170
276 -3 c255 -3 281 -5 322 -24z m-1240 -1226 c97 -50 114 -167 35 -241 -39
-36 -93 -48 -140 -31 -135 46 -142 223 -11 280 44 19 65 17 116 -8z m2234 -2
c106 -44 119 -190 24 -258 -44 -31 -124 -32 -165 -2 -59 44 -81 113 -56 174
35 86 115 121 197 86z"/>
</g>
</svg>
