<svg id="a940c1ad-f0ef-4a7e-8ab0-56bfd833645d" xmlns="http://www.w3.org/2000/svg" viewBox="0 0 492.3 177.9"><defs><style>.cls-1{fill:#6eeb8f;}.cls-2{fill:#282d38;}.cls-3{isolation:isolate;}</style></defs><path class="cls-1" d="M100.6,24.8A64.2,64.2,0,1,0,164.8,89,64.21,64.21,0,0,0,100.6,24.8Zm-32,94.3H59.9c5.4-4.4,13.2-13.9,16.5-31.2C80.2,67.9,95,57.1,108.6,59h.1C97.1,62.3,88.3,73.2,85.6,87.8c-3.4,18-11.6,27-16.3,30.8Zm2.3,0C75.8,114.9,83.6,105.6,87,88c2.7-14.4,11.6-25.1,23-27.9a22.88,22.88,0,0,1,23.7,8.7,19.89,19.89,0,0,1,4.4,16.9,19.43,19.43,0,0,1-7.4,11.2,8.42,8.42,0,0,0,.4-2.7,8.1,8.1,0,1,0-16.2,0c0,.2-1.1,18,26.3,25.2ZM118.5,89h0a6.58,6.58,0,0,1,9.2.4h-.2a19,19,0,0,1-8.7,9.4A7.7,7.7,0,0,0,118.5,89Z"/><path class="cls-1" d="M201.3,86l-1.5.5a7.19,7.19,0,0,1-2.9.3,6.36,6.36,0,0,1-5.3-2.4,8.9,8.9,0,0,1-1.9-6.1V63.7h-3V57h3V51.6l6.7-2.9V57h5v6.7h-5V77.4a2.32,2.32,0,0,0,2.6,2.7,11.27,11.27,0,0,0,1.8-.3,8.64,8.64,0,0,0,1.6-1Z"/><path class="cls-1" d="M211.5,86.2,203.8,57H211l4.1,18,4.2-18h6.9l4.2,18,4.2-18h7.2l-7.9,29.2h-7.1l-4-15.4-4.2,15.4Z"/><path class="cls-1" d="M250.6,75.4a4.79,4.79,0,0,0,.7,2,8.31,8.31,0,0,0,1.3,1.4,3.15,3.15,0,0,0,1.7.9,6.28,6.28,0,0,0,1.9.3,9.26,9.26,0,0,0,2.3-.4,4.47,4.47,0,0,0,2-1.6l4.5,4.3a11.46,11.46,0,0,1-4.1,3.5,10.75,10.75,0,0,1-5,1.1c-3.9,0-6.8-1.3-8.9-3.8s-3.2-6.2-3.2-11a25,25,0,0,1,.9-6.6,15.16,15.16,0,0,1,2.5-4.9,9.65,9.65,0,0,1,3.8-3.1,12.08,12.08,0,0,1,5-1,12.29,12.29,0,0,1,4.7.9,9.12,9.12,0,0,1,3.7,2.7,15.53,15.53,0,0,1,2.4,4.6,29.07,29.07,0,0,1,.8,6.6V74a7.84,7.84,0,0,1-.2,1.4ZM256,63a4.8,4.8,0,0,0-3.7,1.7,7.4,7.4,0,0,0-1.7,4.2h10.3a9,9,0,0,0-1.6-4.2A4.32,4.32,0,0,0,256,63Z"/><path class="cls-1" d="M279.1,75.4a4.59,4.59,0,0,0,2,3.3,4,4,0,0,0,1.7.9,5.66,5.66,0,0,0,1.8.3,9.27,9.27,0,0,0,2.4-.4,3.75,3.75,0,0,0,1.9-1.6l4.6,4.3a11.46,11.46,0,0,1-4.1,3.5,10.75,10.75,0,0,1-5,1.1c-3.9,0-6.9-1.3-9-3.8s-3.1-6.2-3.1-11a21.45,21.45,0,0,1,.9-6.6,16.24,16.24,0,0,1,2.5-4.9,10,10,0,0,1,3.9-3.1,12.08,12.08,0,0,1,5-1,12.29,12.29,0,0,1,4.7.9A9.12,9.12,0,0,1,293,60a11.74,11.74,0,0,1,2.3,4.6,24.44,24.44,0,0,1,.9,6.6v2.7c-.1.7-.2,1.1-.2,1.4C295.9,75.4,279.1,75.4,279.1,75.4ZM284.5,63a4.65,4.65,0,0,0-3.7,1.7,7.4,7.4,0,0,0-1.7,4.2h10.2a7.92,7.92,0,0,0-1.5-4.2A4.32,4.32,0,0,0,284.5,63Z"/><path class="cls-1" d="M317.5,84.3a20.71,20.71,0,0,1-2.4,1.7,7.79,7.79,0,0,1-3.7.9,8.71,8.71,0,0,1-4.4-1.1,8,8,0,0,1-3.3-3,14.15,14.15,0,0,1-2.1-4.7,24.1,24.1,0,0,1-.8-6,24.89,24.89,0,0,1,.8-6.1,13.7,13.7,0,0,1,2.1-5,10,10,0,0,1,3.5-3.3,9.29,9.29,0,0,1,4.6-1.2,18.59,18.59,0,0,1,3.3.4,8.17,8.17,0,0,1,2.3,1.1V50.3l6.7-2.9V86.2h-6.7Zm0-16.7a5.14,5.14,0,0,0-1.8-2.6,4.19,4.19,0,0,0-2.8-1,4.44,4.44,0,0,0-4.2,2.1,12.43,12.43,0,0,0-1.2,6,9.21,9.21,0,0,0,1.4,5.6,4.47,4.47,0,0,0,3.9,2.1,3.77,3.77,0,0,0,3-1.1,5.93,5.93,0,0,0,1.7-2.7Z"/><path class="cls-1" d="M336.7,75.4a4.79,4.79,0,0,0,.7,2,18.48,18.48,0,0,0,1.4,1.4,3.19,3.19,0,0,0,1.6.9,6.28,6.28,0,0,0,1.9.3,9.26,9.26,0,0,0,2.3-.4,4.47,4.47,0,0,0,2-1.6l4.5,4.3a11.46,11.46,0,0,1-4.1,3.5,10.75,10.75,0,0,1-5,1.1c-3.9,0-6.8-1.3-8.9-3.8s-3.2-6.2-3.2-11a25,25,0,0,1,.9-6.6,15.16,15.16,0,0,1,2.5-4.9,9.15,9.15,0,0,1,3.9-3.1,12.08,12.08,0,0,1,5-1,12.29,12.29,0,0,1,4.7.9,8.8,8.8,0,0,1,3.6,2.7,15.53,15.53,0,0,1,2.4,4.6,24.44,24.44,0,0,1,.9,6.6c0,1.2-.1,2.1-.1,2.7a3.64,3.64,0,0,1-.2,1.4ZM342.1,63a4.8,4.8,0,0,0-3.7,1.7,7.4,7.4,0,0,0-1.7,4.2H347a9,9,0,0,0-1.6-4.2A4.32,4.32,0,0,0,342.1,63Z"/><path class="cls-1" d="M383.8,91.4a7.84,7.84,0,0,0,4.2-2,6.1,6.1,0,0,0,2.1-4.2,5.15,5.15,0,0,1-2,.9,16.28,16.28,0,0,1-3.1.3,9,9,0,0,1-5-1.2,8.32,8.32,0,0,1-3.4-3.3,15.15,15.15,0,0,1-2.1-4.9,29.53,29.53,0,0,1-.6-5.9,17.91,17.91,0,0,1,.9-5.7,15.27,15.27,0,0,1,2.3-4.6,11.09,11.09,0,0,1,3.6-3.2,8.71,8.71,0,0,1,4.4-1.1,6.13,6.13,0,0,1,2.7.4,6.54,6.54,0,0,1,2.3,1.3V56.9h6.7V83.4a16.87,16.87,0,0,1-.8,5,14.74,14.74,0,0,1-2.3,4.5,13.18,13.18,0,0,1-8.8,5.3Zm6.4-25.1a3.41,3.41,0,0,0-1.5-2.2,4.76,4.76,0,0,0-2.3-.7,4.59,4.59,0,0,0-4.3,2.1,10.71,10.71,0,0,0-1.4,5.9,13.23,13.23,0,0,0,1.2,6.2,3.9,3.9,0,0,0,3.9,2.2,4.67,4.67,0,0,0,4.4-2.4Z"/><path class="cls-1" d="M414.6,86.8a10.05,10.05,0,0,1-4.8-1.2,11,11,0,0,1-3.8-3.3,18,18,0,0,1-2.4-4.8,20.29,20.29,0,0,1-.9-6,19.64,19.64,0,0,1,.9-5.9,18,18,0,0,1,2.4-4.8,9.89,9.89,0,0,1,3.8-3.2,10.4,10.4,0,0,1,9.7,0,13,13,0,0,1,3.8,3.2,18,18,0,0,1,2.4,4.8,19.64,19.64,0,0,1,.9,5.9,20.29,20.29,0,0,1-.9,6,18,18,0,0,1-2.4,4.8,11,11,0,0,1-3.8,3.3A9.61,9.61,0,0,1,414.6,86.8Zm0-7a4.54,4.54,0,0,0,3.9-2.2,12.51,12.51,0,0,0,1.3-6,10.9,10.9,0,0,0-1.3-5.9,4.54,4.54,0,0,0-6.2-1.5,3.12,3.12,0,0,0-1.5,1.5,12.22,12.22,0,0,0-1.4,5.9,11.54,11.54,0,0,0,1.4,6A4.07,4.07,0,0,0,414.6,79.8Z"/><path class="cls-1" d="M432.2,50.4l6.7-2.9V86.3h-6.7Z"/><path class="cls-1" d="M452.1,63.7V86.2h-6.7V63.7h-2.8V57h2.8v-.9c0-3.1.7-5.3,2.1-6.8a7.83,7.83,0,0,1,6.1-2.3h1.9l1.4.3v6.2l-1.1-.3h-1.5a2.54,2.54,0,0,0-2.1.7,4.56,4.56,0,0,0-.6,2.2V57h5.3v6.7Z"/><path class="cls-2" d="M191.47,131.7l-3.7-13.9h3.39l2,8.62,2-8.62h3.29l2,8.62,2-8.62h3.39l-3.67,13.9h-3.39l-2-7.37-1.93,7.37Z"/><path class="cls-2" d="M209.29,126.51a2.11,2.11,0,0,0,.93,1.55,2.91,2.91,0,0,0,2.8.35,2.55,2.55,0,0,0,.93-.78l2.15,2a5.61,5.61,0,0,1-1.95,1.69,5.11,5.11,0,0,1-2.35.52,5.27,5.27,0,0,1-4.33-1.82,8.15,8.15,0,0,1-1.42-5.18,8.67,8.67,0,0,1,1.54-5.46,5.14,5.14,0,0,1,4.28-2,5,5,0,0,1,4,1.77,8.19,8.19,0,0,1,1.49,5.35v.84c0,.12,0,.31,0,.54s0,.43,0,.58Zm2.55-5.91a2.16,2.16,0,0,0-1.71.78,3.61,3.61,0,0,0-.84,2h4.85a4.14,4.14,0,0,0-.76-2A1.88,1.88,0,0,0,211.84,120.6Z"/><path class="cls-2" d="M218.86,114.72l3.18-1.4v5.16a4.48,4.48,0,0,1,1.22-.6,4.54,4.54,0,0,1,1.48-.23,4.28,4.28,0,0,1,3.76,1.94,9.3,9.3,0,0,1,1.34,5.33,9.65,9.65,0,0,1-.37,2.74,7,7,0,0,1-1.06,2.21,5.17,5.17,0,0,1-1.66,1.47,4.41,4.41,0,0,1-2.2.55,4,4,0,0,1-1.36-.22,2.81,2.81,0,0,1-1.15-.77v.8h-3.18Zm5.26,6.1a1.64,1.64,0,0,0-1.32.62A4.11,4.11,0,0,0,222,123v3.73a2.5,2.5,0,0,0,.24.63,3,3,0,0,0,.49.64,2.62,2.62,0,0,0,.65.5,1.53,1.53,0,0,0,.79.21,2.07,2.07,0,0,0,1.11-.3,2.42,2.42,0,0,0,.8-.82,3.84,3.84,0,0,0,.5-1.2,5.83,5.83,0,0,0,.17-1.48,6.31,6.31,0,0,0-.59-3A2.17,2.17,0,0,0,224.12,120.82Z"/><g class="cls-3"><path class="cls-1" d="M236.52,133l6.72-20.84h2.64L239.14,133Z"/></g><path class="cls-2" d="M251.66,127.57a4.37,4.37,0,0,0,1.74.89,7.44,7.44,0,0,0,1.74.23,3.12,3.12,0,0,0,1.37-.28,1,1,0,0,0,.56-.94,1.14,1.14,0,0,0-.39-.84,2.51,2.51,0,0,0-1.35-.53,16.15,16.15,0,0,1-1.79-.41A4.71,4.71,0,0,1,252,125a3.56,3.56,0,0,1-1-1.23,4.21,4.21,0,0,1-.39-1.94,4.16,4.16,0,0,1,.39-1.87,3.63,3.63,0,0,1,1.07-1.29,4.58,4.58,0,0,1,1.64-.75,8.39,8.39,0,0,1,2.06-.23,6.32,6.32,0,0,1,3.86,1.21l-1,3.36a4.53,4.53,0,0,0-1.54-1.08,5,5,0,0,0-2.69-.14.7.7,0,0,0-.56.66v.09c0,.35.24.63.73.83a12.39,12.39,0,0,0,1.94.54,5.72,5.72,0,0,1,2.72,1.3,3.72,3.72,0,0,1,1,2.87,4.81,4.81,0,0,1-.42,2.11,3.85,3.85,0,0,1-1.16,1.42,5.13,5.13,0,0,1-1.74.79,9.19,9.19,0,0,1-2.15.25,7.74,7.74,0,0,1-2.05-.31,10.2,10.2,0,0,1-2.24-1Z"/><path class="cls-2" d="M265.25,126.51a2.11,2.11,0,0,0,.93,1.55,2.87,2.87,0,0,0,1.68.56,2.83,2.83,0,0,0,1.12-.21,2.55,2.55,0,0,0,.93-.78l2.15,2a5.59,5.59,0,0,1-1.94,1.69,5.17,5.17,0,0,1-2.35.52,5.27,5.27,0,0,1-4.34-1.82,8.22,8.22,0,0,1-1.42-5.18,8.73,8.73,0,0,1,1.54-5.46,5.15,5.15,0,0,1,4.28-2,5,5,0,0,1,4,1.77,8.13,8.13,0,0,1,1.49,5.35v.84c0,.12,0,.31,0,.54s0,.43,0,.58Zm2.55-5.91a2.18,2.18,0,0,0-1.71.78,3.61,3.61,0,0,0-.84,2h4.85a4,4,0,0,0-.76-2A1.88,1.88,0,0,0,267.8,120.6Z"/><path class="cls-2" d="M280.89,132a5.64,5.64,0,0,1-2.44-.51,5.11,5.11,0,0,1-1.82-1.48,6.61,6.61,0,0,1-1.13-2.32,10.79,10.79,0,0,1-.39-3,9.22,9.22,0,0,1,.42-2.83,6.85,6.85,0,0,1,1.19-2.24,5.64,5.64,0,0,1,1.84-1.46,5.15,5.15,0,0,1,2.33-.53,4.77,4.77,0,0,1,2.32.56,6,6,0,0,1,1.75,1.47l-2.42,2.08a2.75,2.75,0,0,0-.69-.65,1.73,1.73,0,0,0-1-.22,2.14,2.14,0,0,0-1.87,1,5.1,5.1,0,0,0-.68,2.81,5.9,5.9,0,0,0,.62,3,2.12,2.12,0,0,0,1.93,1,2.54,2.54,0,0,0,1.87-.91l2.58,1.84A5.69,5.69,0,0,1,280.89,132Z"/><path class="cls-2" d="M294.76,130.74a3.48,3.48,0,0,1-1.38.85,5.17,5.17,0,0,1-1.67.27,3.86,3.86,0,0,1-3.09-1.32,5.44,5.44,0,0,1-1.14-3.66V117.8h3.17V126a3.29,3.29,0,0,0,.49,1.9,1.6,1.6,0,0,0,1.41.71,2.07,2.07,0,0,0,1.56-.71,2.74,2.74,0,0,0,.65-1.9V117.8h3.17v13.9h-3.17Z"/><path class="cls-2" d="M306.7,121.35a3.3,3.3,0,0,0-1.09-.47,1.25,1.25,0,0,0-1.2.67,3.49,3.49,0,0,0-.35,1.66v8.49h-3.18V117.8h3.18v.72a2.68,2.68,0,0,1,2.08-.81,2.89,2.89,0,0,1,1.62.53Z"/><path class="cls-2" d="M310.8,117.06a1.55,1.55,0,0,1-1.27-.58,2.5,2.5,0,0,1,0-2.92,1.53,1.53,0,0,1,1.27-.58,1.57,1.57,0,0,1,1.23.58,2.12,2.12,0,0,1,.51,1.47,2.06,2.06,0,0,1-.52,1.45A1.65,1.65,0,0,1,310.8,117.06Zm-1.58.74h3.17v13.9h-3.17Z"/><path class="cls-2" d="M321.66,131.64c-.46.1-.83.17-1.11.2a8.8,8.8,0,0,1-.95,0,3,3,0,0,1-2.56-1.18,5.64,5.64,0,0,1-.89-3.42V121h-1.4V117.8h1.4v-2.27l3.17-1.77v4h2.4V121h-2.4v5.38a4.22,4.22,0,0,0,.27,1.9,1,1,0,0,0,1,.44,1.55,1.55,0,0,0,.4-.08l.56-.17,0,0a1.18,1.18,0,0,1,.36-.17l.35-.14Z"/><path class="cls-2" d="M326.26,137.3l1.68-5.85-4.05-13.65h3.39l2.3,9,2.24-9h3.39l-5.59,19.5Z"/><g class="cls-3"><path class="cls-1" d="M344.16,133l6.72-20.84h2.64L346.77,133Z"/></g><path class="cls-2" d="M362.23,126.51a2.15,2.15,0,0,0,.94,1.55,2.89,2.89,0,0,0,2.79.35,2.58,2.58,0,0,0,.94-.78l2.14,2a5.59,5.59,0,0,1-1.94,1.69,5.17,5.17,0,0,1-2.35.52,5.29,5.29,0,0,1-4.34-1.82,8.22,8.22,0,0,1-1.41-5.18,8.67,8.67,0,0,1,1.54-5.46,5.12,5.12,0,0,1,4.27-2,5,5,0,0,1,4,1.77,8.19,8.19,0,0,1,1.49,5.35v.84c0,.12,0,.31,0,.54s0,.43,0,.58Zm2.55-5.91a2.19,2.19,0,0,0-1.71.78,3.76,3.76,0,0,0-.84,2h4.85a4,4,0,0,0-.76-2A1.87,1.87,0,0,0,364.78,120.6Z"/><path class="cls-2" d="M387.26,123.12c0-1.53-.65-2.3-1.95-2.3s-2.15.78-2.15,2.33v8.55H380v-8.52a2.35,2.35,0,0,0-.56-1.8,2,2,0,0,0-1.37-.5,2,2,0,0,0-2.11,2.24v8.58h-3.18V117.86H376v.87a4.16,4.16,0,0,1,3.07-1.08,4,4,0,0,1,2.86,1.21,3.72,3.72,0,0,1,1.44-.89,6.53,6.53,0,0,1,2.23-.32,4.77,4.77,0,0,1,3.58,1.33,5.05,5.05,0,0,1,1.31,3.67v9h-3.18Z"/><path class="cls-2" d="M393.33,114.72l3.17-1.4v5.16a4.4,4.4,0,0,1,1.23-.6,4.5,4.5,0,0,1,1.48-.23,4.3,4.3,0,0,1,3.76,1.94,9.3,9.3,0,0,1,1.33,5.33,9.65,9.65,0,0,1-.37,2.74,7,7,0,0,1-1.06,2.21,5.07,5.07,0,0,1-1.66,1.47,4.34,4.34,0,0,1-2.19.55,4,4,0,0,1-1.37-.22,2.88,2.88,0,0,1-1.15-.77v.8h-3.17Zm5.25,6.1a1.64,1.64,0,0,0-1.32.62,4.26,4.26,0,0,0-.76,1.57v3.73a2.22,2.22,0,0,0,.25.63,2.62,2.62,0,0,0,.48.64,2.82,2.82,0,0,0,.65.5,1.57,1.57,0,0,0,.8.21,2,2,0,0,0,1.1-.3,2.54,2.54,0,0,0,.81-.82,4.09,4.09,0,0,0,.5-1.2,6.33,6.33,0,0,0,.17-1.48,6.43,6.43,0,0,0-.59-3A2.19,2.19,0,0,0,398.58,120.82Z"/><path class="cls-2" d="M409.12,126.51a2.15,2.15,0,0,0,.94,1.55,2.87,2.87,0,0,0,1.68.56,2.9,2.9,0,0,0,1.12-.21,2.55,2.55,0,0,0,.93-.78l2.15,2a5.61,5.61,0,0,1-1.95,1.69,5.14,5.14,0,0,1-2.35.52,5.27,5.27,0,0,1-4.33-1.82,8.15,8.15,0,0,1-1.42-5.18,8.67,8.67,0,0,1,1.54-5.46,5.14,5.14,0,0,1,4.28-2,5,5,0,0,1,4,1.77,8.19,8.19,0,0,1,1.49,5.35v.84c0,.12,0,.31,0,.54s0,.43,0,.58Zm2.55-5.91a2.19,2.19,0,0,0-1.71.78,3.76,3.76,0,0,0-.84,2H414a4.05,4.05,0,0,0-.77-2A1.86,1.86,0,0,0,411.67,120.6Z"/><path class="cls-2" d="M426.88,130.77a5.65,5.65,0,0,1-1.12.76,3,3,0,0,1-1.43.33,4.62,4.62,0,0,1-2.18-.53,5.45,5.45,0,0,1-1.71-1.43,7,7,0,0,1-1.12-2.15,8.68,8.68,0,0,1-.4-2.7,10,10,0,0,1,.4-2.88,7.75,7.75,0,0,1,1.11-2.33,5.59,5.59,0,0,1,1.66-1.56,4.08,4.08,0,0,1,2.12-.57,6.65,6.65,0,0,1,1.47.15,2.84,2.84,0,0,1,1.2.6v-3.74l3.17-1.4v18.35h-3.17Zm0-7.65a2.77,2.77,0,0,0-.75-1.28,1.91,1.91,0,0,0-1.43-.62,2.18,2.18,0,0,0-2,1,5.72,5.72,0,0,0-.59,2.92,4.33,4.33,0,0,0,.66,2.53,2.12,2.12,0,0,0,1.89,1,2.51,2.51,0,0,0,1.42-.45,2,2,0,0,0,.82-1.38Z"/><path class="cls-2" d="M439.5,130.77a5.88,5.88,0,0,1-1.11.76,3,3,0,0,1-1.43.33,4.59,4.59,0,0,1-2.18-.53,5.23,5.23,0,0,1-1.71-1.43,6.74,6.74,0,0,1-1.12-2.15,8.68,8.68,0,0,1-.41-2.7,10,10,0,0,1,.41-2.88,8,8,0,0,1,1.1-2.33,5.62,5.62,0,0,1,1.67-1.56,4,4,0,0,1,2.11-.57,6.8,6.8,0,0,1,1.48.15,2.86,2.86,0,0,1,1.19.6v-3.74l3.18-1.4v18.35H439.5Zm0-7.65a2.83,2.83,0,0,0-.74-1.28,1.92,1.92,0,0,0-1.43-.62,2.16,2.16,0,0,0-2,1,5.62,5.62,0,0,0-.59,2.92,4.33,4.33,0,0,0,.65,2.53,2.14,2.14,0,0,0,1.9,1,2.5,2.5,0,0,0,1.41-.45,1.93,1.93,0,0,0,.82-1.38Z"/><path class="cls-2" d="M448.3,126.51a2.15,2.15,0,0,0,.94,1.55,2.87,2.87,0,0,0,1.68.56,2.9,2.9,0,0,0,1.12-.21,2.55,2.55,0,0,0,.93-.78l2.15,2a5.61,5.61,0,0,1-1.95,1.69,5.14,5.14,0,0,1-2.35.52,5.27,5.27,0,0,1-4.33-1.82,8.15,8.15,0,0,1-1.42-5.18,8.67,8.67,0,0,1,1.54-5.46,5.14,5.14,0,0,1,4.28-2,5,5,0,0,1,4,1.77,8.19,8.19,0,0,1,1.49,5.35v.84c0,.12,0,.31,0,.54s0,.43,0,.58Zm2.55-5.91a2.19,2.19,0,0,0-1.71.78,3.76,3.76,0,0,0-.84,2h4.86a4.05,4.05,0,0,0-.77-2A1.86,1.86,0,0,0,450.85,120.6Z"/><path class="cls-2" d="M466.06,130.77a5.65,5.65,0,0,1-1.12.76,3,3,0,0,1-1.43.33,4.62,4.62,0,0,1-2.18-.53,5.45,5.45,0,0,1-1.71-1.43,7,7,0,0,1-1.12-2.15,8.68,8.68,0,0,1-.4-2.7,10,10,0,0,1,.4-2.88,7.75,7.75,0,0,1,1.11-2.33,5.59,5.59,0,0,1,1.66-1.56,4.08,4.08,0,0,1,2.12-.57,6.71,6.71,0,0,1,1.47.15,2.84,2.84,0,0,1,1.2.6v-3.74l3.17-1.4v18.35h-3.17Zm0-7.65a2.77,2.77,0,0,0-.75-1.28,1.91,1.91,0,0,0-1.43-.62,2.18,2.18,0,0,0-2,1,5.72,5.72,0,0,0-.59,2.92,4.41,4.41,0,0,0,.65,2.53,2.15,2.15,0,0,0,1.9,1,2.51,2.51,0,0,0,1.42-.45,2,2,0,0,0,.82-1.38Z"/></svg>