<?xml version="1.0" encoding="iso-8859-1"?>
<!-- Generator: Adobe Illustrator 19.0.0, SVG Export Plug-In . SVG Version: 6.00 Build 0)  -->
<svg xmlns="http://www.w3.org/2000/svg" xmlns:xlink="http://www.w3.org/1999/xlink" version="1.1" id="Capa_1" x="0px" y="0px" viewBox="0 0 511.999 511.999" style="enable-background:new 0 0 511.999 511.999;" xml:space="preserve" width="512px" height="512px">
<g>
	<g>
		<path d="M151.337,119.814c-4.202,0-7.608,3.406-7.608,7.608v19.78c0,4.202,3.406,7.608,7.608,7.608s7.608-3.406,7.608-7.608    v-19.78C158.945,123.22,155.539,119.814,151.337,119.814z" fill="#FFFFFF"/>
	</g>
</g>
<g>
	<g>
		<path d="M151.337,173.067c-4.202,0-7.608,3.406-7.608,7.608v19.78c0,4.202,3.406,7.608,7.608,7.608s7.608-3.406,7.608-7.608    v-19.78C158.945,176.473,155.539,173.067,151.337,173.067z" fill="#FFFFFF"/>
	</g>
</g>
<g>
	<g>
		<path d="M187.853,156.33h-19.78c-4.202,0-7.608,3.406-7.608,7.608s3.406,7.608,7.608,7.608h19.78c4.202,0,7.608-3.406,7.608-7.608    S192.055,156.33,187.853,156.33z" fill="#FFFFFF"/>
	</g>
</g>
<g>
	<g>
		<path d="M134.601,156.33h-19.78c-4.202,0-7.608,3.406-7.608,7.608s3.406,7.608,7.608,7.608h19.78c4.202,0,7.608-3.406,7.608-7.608    S138.802,156.33,134.601,156.33z" fill="#FFFFFF"/>
	</g>
</g>
<g>
	<g>
		<path d="M48.528,405.107c-4.202,0-7.608,3.406-7.608,7.608v19.78c0,4.202,3.406,7.608,7.608,7.608    c4.202,0,7.608-3.406,7.608-7.608v-19.78C56.135,408.513,52.729,405.107,48.528,405.107z" fill="#FFFFFF"/>
	</g>
</g>
<g>
	<g>
		<path d="M48.528,458.36c-4.202,0-7.608,3.406-7.608,7.608v19.78c0,4.202,3.406,7.608,7.608,7.608c4.202,0,7.608-3.406,7.608-7.608    v-19.78C56.135,461.766,52.729,458.36,48.528,458.36z" fill="#FFFFFF"/>
	</g>
</g>
<g>
	<g>
		<path d="M85.044,441.624h-19.78c-4.202,0-7.608,3.406-7.608,7.608s3.406,7.608,7.608,7.608h19.78c4.202,0,7.608-3.406,7.608-7.608    S89.245,441.624,85.044,441.624z" fill="#FFFFFF"/>
	</g>
</g>
<g>
	<g>
		<path d="M31.791,441.624h-19.78c-4.202,0-7.608,3.406-7.608,7.608s3.406,7.608,7.608,7.608h19.78c4.202,0,7.608-3.406,7.608-7.608    S35.993,441.624,31.791,441.624z" fill="#FFFFFF"/>
	</g>
</g>
<g>
	<g>
		<path d="M263.026,386.511l-16.02-3.248c-12.82-2.599-22.782-12.561-25.381-25.381l-3.248-16.019    c-1.405-6.929-7.324-11.769-14.394-11.769s-12.989,4.84-14.394,11.769l-3.248,16.019c-2.599,12.82-12.561,22.782-25.381,25.381    l-16.019,3.248c-6.929,1.405-11.769,7.323-11.769,14.393s4.84,12.989,11.769,14.394l16.019,3.248    c12.82,2.599,22.782,12.561,25.381,25.381l3.248,16.019c1.405,6.929,7.324,11.769,14.394,11.769s12.989-4.84,14.394-11.769    l3.248-16.019c2.599-12.82,12.561-22.782,25.381-25.381l16.02-3.248c6.929-1.405,11.769-7.325,11.769-14.394    C274.795,393.834,269.955,387.916,263.026,386.511z M243.982,403.635c-18.824,3.817-33.454,18.447-37.271,37.271l-2.73,13.459    l-2.729-13.459c-3.817-18.824-18.447-33.454-37.271-37.271l-13.459-2.73l13.459-2.729c18.824-3.817,33.454-18.447,37.271-37.271    l2.731-13.459l2.728,13.459c3.817,18.824,18.447,33.454,37.271,37.271l13.459,2.731L243.982,403.635z" fill="#FFFFFF"/>
	</g>
</g>
<g>
	<g>
		<path d="M155.324,284.218l-19.399-3.933c-16.157-3.275-28.713-15.832-31.989-31.99l-3.933-19.399    c-1.548-7.633-8.068-12.965-15.857-12.965c-7.789,0-14.31,5.331-15.858,12.965l-3.933,19.399    c-3.275,16.157-15.832,28.714-31.989,31.99l-19.4,3.933C5.331,285.766,0,292.287,0,300.077c0,7.789,5.331,14.31,12.965,15.858    l19.4,3.933c16.157,3.275,28.713,15.832,31.989,31.989l3.933,19.399c1.548,7.633,8.068,12.965,15.858,12.965    c7.789,0,14.309-5.332,15.857-12.965l3.933-19.399c3.276-16.157,15.832-28.713,31.989-31.989l19.4-3.934    c7.633-1.548,12.965-8.068,12.965-15.858S162.957,285.765,155.324,284.218z M152.3,301.022l-19.399,3.933    c-22.162,4.493-39.385,21.716-43.879,43.879l-3.933,19.399c-0.073,0.362-0.156,0.773-0.944,0.773    c-0.788,0-0.871-0.411-0.945-0.773l-3.933-19.399c-4.494-22.162-21.716-39.385-43.879-43.879l-19.4-3.933    c-0.362-0.074-0.772-0.157-0.772-0.945c0-0.788,0.41-0.871,0.772-0.945l19.4-3.933c22.162-4.494,39.385-21.717,43.879-43.879    l3.933-19.399c0.073-0.362,0.156-0.772,0.945-0.772c0.788,0,0.871,0.41,0.944,0.772l3.933,19.399    c4.494,22.162,21.716,39.386,43.878,43.879l19.399,3.933c0.362,0.073,0.773,0.156,0.773,0.945    C153.073,300.866,152.662,300.948,152.3,301.022z" fill="#FFFFFF"/>
	</g>
</g>
<g>
	<g>
		<path d="M505.182,94.827c-4.173-0.438-7.92,2.597-8.358,6.776c-2.814,26.932-14.909,52.308-34.055,71.455l-97.16,97.16    c-4.898,4.897-12.868,4.897-17.766,0c-4.897-4.898-4.897-12.868,0-17.765l62.424-62.424c1.485-1.485,2.229-3.433,2.229-5.379    s-0.742-3.894-2.229-5.379c-2.971-2.971-7.789-2.971-10.759,0l-91.306,91.306c-2.373,2.373-5.527,3.679-8.883,3.679    s-6.51-1.307-8.883-3.679c-2.373-2.373-3.679-5.527-3.679-8.883s1.307-6.509,3.679-8.882l85.336-85.336    c2.971-2.971,2.971-7.789,0-10.759c-2.971-2.971-7.789-2.971-10.759,0L257.436,264.294c-2.373,2.373-5.527,3.679-8.883,3.679    c-3.356,0-6.509-1.307-8.882-3.679c-4.898-4.898-4.898-12.868,0-17.766L257.6,228.6c0.01-0.011,0.021-0.021,0.032-0.032    l94.258-94.258c1.485-1.485,2.229-3.433,2.229-5.379c0-1.947-0.743-3.894-2.229-5.379c-2.971-2.971-7.789-2.971-10.759,0    l-94.258,94.258c-4.898,4.898-12.868,4.898-17.766,0c-4.898-4.898-4.898-12.868,0-17.766L346.774,82.375    c14.206,27.472,42.582,44.023,72.462,44.023c9.74,0,19.645-1.76,29.262-5.473c3.92-1.513,5.87-5.917,4.357-9.838    c-1.513-3.921-5.919-5.87-9.838-4.357c-34.1,13.166-72.553-3.868-85.719-37.97c-0.553-1.431-1.493-2.596-2.652-3.429    c-1.411-1.907-3.647-3.091-6.089-3.095l-55.91-0.089c-7.799-0.012-14.135-6.367-14.121-14.166    c0.012-7.79,6.357-14.122,14.145-14.122c0.004,0,0.009,0,0.013,0l133.475,0.126c0.003,0,0.005,0,0.007,0    c4.199,0,7.604-3.402,7.608-7.601c0.004-4.202-3.399-7.611-7.601-7.615l-133.476-0.126c-0.01,0-0.017,0-0.027,0    c-16.165,0-29.334,13.144-29.361,29.314c-0.025,16.19,13.124,29.381,29.313,29.406l37.584,0.06L218.348,189.283    c-10.831,10.831-10.831,28.454,0,39.284c3.194,3.194,6.98,5.447,11.008,6.757l-0.444,0.444    c-5.246,5.246-8.136,12.222-8.136,19.642c0,7.419,2.889,14.395,8.136,19.642c5.246,5.246,12.222,8.136,19.642,8.136    s14.395-2.889,19.642-8.136l4.711-4.711c1.337,4.1,3.633,7.856,6.77,10.995c5.415,5.415,12.529,8.123,19.642,8.123    s14.227-2.707,19.642-8.123l11.353-11.353c1.337,4.1,3.633,7.856,6.77,10.994c10.831,10.831,28.454,10.831,39.284,0l97.16-97.16    c21.607-21.606,35.254-50.242,38.43-80.633C512.395,99.005,509.361,95.264,505.182,94.827z" fill="#FFFFFF"/>
	</g>
</g>
<g>
	<g>
		<path d="M251.733,333.781c-3.02,2.442-3.647,6.903-1.523,10.125c3.759,5.711,12.82,3.59,13.852-3.105    C265.105,334.037,256.971,329.546,251.733,333.781z" fill="#FFFFFF"/>
	</g>
</g>
<g>
	<g>
		<path d="M138.8,461.737c-1.16-2.811-3.984-4.699-7.029-4.699c-3.188,0-6.077,2.058-7.158,5.045    c-1.055,2.918-0.16,6.296,2.189,8.318c2.613,2.247,6.482,2.443,9.312,0.482C139.035,468.859,140.109,465.018,138.8,461.737z" fill="#FFFFFF"/>
	</g>
</g>
<g>
	<g>
		<path d="M193.475,252.904c-5.665-3.73-13.291,1.531-11.602,8.174c0.797,3.138,3.58,5.512,6.821,5.733    c3.252,0.222,6.325-1.665,7.582-4.676C197.648,258.844,196.462,254.87,193.475,252.904z" fill="#FFFFFF"/>
	</g>
</g>
<g>
	<g>
		<path d="M142.665,338.499c-1.767-2.587-4.978-3.893-8.044-3.178c-3.147,0.733-5.527,3.437-5.855,6.659    c-0.687,6.742,7.552,10.911,12.609,6.449C144.196,345.939,144.73,341.633,142.665,338.499z" fill="#FFFFFF"/>
	</g>
</g>
<g>
</g>
<g>
</g>
<g>
</g>
<g>
</g>
<g>
</g>
<g>
</g>
<g>
</g>
<g>
</g>
<g>
</g>
<g>
</g>
<g>
</g>
<g>
</g>
<g>
</g>
<g>
</g>
<g>
</g>
</svg>
