<svg enable-background="new 0 0 496 496" height="512" viewBox="0 0 496 496" width="512" xmlns="http://www.w3.org/2000/svg"><path d="m445.904 184c-3.416-10.6-7.672-20.88-12.696-30.704l35.408-35.408-90.504-90.504-35.408 35.408c-9.824-5.024-20.104-9.28-30.704-12.696v-50.096h-128v50.096c-10.6 3.416-20.88 7.672-30.704 12.696l-35.408-35.408-90.504 90.504 35.408 35.408c-5.024 9.824-9.28 20.104-12.696 30.704h-50.096v128h50.096c3.416 10.6 7.672 20.88 12.696 30.704l-35.408 35.408 90.504 90.504 35.408-35.408c9.824 5.024 20.104 9.28 30.704 12.696v50.096h128v-50.096c10.6-3.416 20.88-7.672 30.704-12.696l35.408 35.408 90.504-90.504-35.408-35.408c5.024-9.824 9.28-20.104 12.696-30.704h50.096v-128zm-429.904 16h46.008l1.672-5.76c3.92-13.464 9.288-26.44 15.952-38.568l2.888-5.264-32.52-32.52 67.88-67.88 32.52 32.52 5.264-2.888c12.128-6.664 25.104-12.032 38.568-15.952l5.768-1.68v-46.008h40l-.016 103.56 11.216-4.896c4.04-1.768 8.344-2.664 12.8-2.664 17.648 0 32 14.352 32 32s-14.352 32-32 32c-4.456 0-8.768-.896-12.808-2.664l-11.264-4.928.04 71.568-48.632.024c.44-2.624.664-5.296.664-8 0-26.472-21.528-48-48-48s-48 21.528-48 48c0 2.704.224 5.376.664 8h-80.664zm224 280h-40v-46.008l-5.76-1.672c-13.464-3.92-26.44-9.288-38.568-15.952l-5.264-2.888-32.52 32.52-67.88-67.88 32.52-32.52-2.888-5.264c-6.664-12.128-12.032-25.104-15.952-38.568l-1.68-5.768h-46.008v-40l103.56.016-4.896-11.216c-1.768-4.04-2.664-8.344-2.664-12.8 0-17.648 14.352-32 32-32s32 14.352 32 32c0 4.456-.896 8.768-2.664 12.808l-4.928 11.264 71.568-.04.024 48.632c-2.624-.44-5.296-.664-8-.664-26.472 0-48 21.528-48 48s21.528 48 48 48c2.704 0 5.376-.224 8-.664zm240-184h-46.008l-1.672 5.76c-3.92 13.464-9.288 26.44-15.952 38.568l-2.888 5.264 32.52 32.52-67.88 67.88-32.52-32.52-5.264 2.888c-12.128 6.664-25.104 12.032-38.568 15.952l-5.768 1.68v46.008h-40l.016-103.56-11.216 4.896c-4.04 1.768-8.344 2.664-12.8 2.664-17.648 0-32-14.352-32-32s14.352-32 32-32c4.456 0 8.768.896 12.808 2.664l11.264 4.928-.04-71.568 48.632-.024c-.44 2.624-.664 5.296-.664 8 0 26.472 21.528 48 48 48s48-21.528 48-48c0-2.704-.224-5.376-.664-8h80.664zm0-56-103.56-.016 4.896 11.216c1.768 4.04 2.664 8.344 2.664 12.8 0 17.648-14.352 32-32 32s-32-14.352-32-32c0-4.456.896-8.768 2.664-12.808l4.928-11.264-71.568.04-.024-48.632c2.624.44 5.296.664 8 .664 26.472 0 48-21.528 48-48s-21.528-48-48-48c-2.704 0-5.376.224-8 .664v-80.664h40v46.008l5.76 1.672c13.464 3.92 26.44 9.288 38.568 15.952l5.264 2.888 32.52-32.52 67.88 67.88-32.52 32.52 2.888 5.264c6.664 12.128 12.032 25.104 15.952 38.568l1.68 5.768h46.008z" fill="#fff"/></svg>