<?xml version="1.0" encoding="iso-8859-1"?>
<!-- Generator: Adobe Illustrator 16.0.0, SVG Export Plug-In . SVG Version: 6.00 Build 0)  -->
<!DOCTYPE svg PUBLIC "-//W3C//DTD SVG 1.1//EN" "http://www.w3.org/Graphics/SVG/1.1/DTD/svg11.dtd">
<svg xmlns="http://www.w3.org/2000/svg" xmlns:xlink="http://www.w3.org/1999/xlink" version="1.1" id="Capa_1" x="0px" y="0px" width="512px" height="512px" viewBox="0 0 511.627 511.627" style="enable-background:new 0 0 511.627 511.627;" xml:space="preserve">
<g>
	<g>
		<path d="M459.954,264.376c-2.471-11.233-7.949-20.653-16.416-28.264c-8.474-7.611-18.227-12.085-29.27-13.418    c-35.02-3.806-87.837-5.708-158.457-5.708c-70.618,0-123.341,1.903-158.174,5.708c-11.227,1.333-21.029,5.807-29.407,13.418    c-8.376,7.614-13.896,17.035-16.562,28.264c-4.948,22.083-7.423,55.391-7.423,99.931c0,45.299,2.475,78.61,7.423,99.93    c2.478,11.225,7.951,20.653,16.421,28.261c8.47,7.614,18.225,11.991,29.263,13.134c35.026,3.997,87.847,5.996,158.461,5.996    c70.609,0,123.44-1.999,158.453-5.996c11.043-1.143,20.748-5.52,29.126-13.134c8.377-7.607,13.897-17.036,16.56-28.261    c4.948-22.083,7.426-55.391,7.426-99.93C467.377,319.007,464.899,285.695,459.954,264.376z M165.025,293.218h-30.549v162.45    h-28.549v-162.45h-29.98v-26.837h89.079V293.218z M242.11,455.668H216.7v-15.421c-10.278,11.615-19.989,17.419-29.125,17.419    c-8.754,0-14.275-3.524-16.556-10.564c-1.521-4.568-2.286-11.519-2.286-20.844V314.627h25.41v103.924    c0,6.088,0.096,9.421,0.288,9.993c0.571,3.997,2.568,5.995,5.996,5.995c5.138,0,10.566-3.997,16.274-11.991V314.627h25.41V455.668    z M339.183,413.411c0,13.894-0.855,23.417-2.56,28.558c-3.244,10.462-9.996,15.697-20.273,15.697    c-9.137,0-17.986-5.235-26.556-15.697v13.702h-25.406v-189.29h25.406v61.955c8.189-10.273,17.036-15.413,26.556-15.413    c10.277,0,17.029,5.331,20.273,15.988c1.704,4.948,2.56,14.369,2.56,28.264V413.411z M435.685,390.003h-51.104v24.839    c0,13.134,4.374,19.697,13.131,19.697c6.279,0,10.089-3.422,11.42-10.28c0.376-1.902,0.571-7.706,0.571-17.412h25.981v3.71    c0,9.329-0.195,14.846-0.572,16.563c-0.567,5.133-2.56,10.273-5.995,15.413c-6.852,10.089-17.139,15.133-30.841,15.133    c-13.127,0-23.407-4.855-30.833-14.558c-5.517-7.043-8.275-18.083-8.275-33.12v-49.396c0-15.036,2.662-26.076,7.987-33.119    c7.427-9.705,17.61-14.558,30.557-14.558c12.755,0,22.85,4.853,30.263,14.558c5.146,7.043,7.71,18.083,7.71,33.119V390.003    L435.685,390.003z" fill="#FFFFFF"/>
		<path d="M302.634,336.043c-4.38,0-8.658,2.101-12.847,6.283v85.934c4.188,4.186,8.467,6.279,12.847,6.279    c7.419,0,11.14-6.372,11.14-19.13v-60.236C313.773,342.418,310.061,336.043,302.634,336.043z" fill="#FFFFFF"/>
		<path d="M397.428,336.043c-8.565,0-12.847,6.475-12.847,19.41v13.134h25.693v-13.134    C410.274,342.511,405.99,336.043,397.428,336.043z" fill="#FFFFFF"/>
		<path d="M148.473,113.917v77.375h28.549v-77.375L211.563,0h-29.121l-19.41,75.089L142.759,0h-30.262    c5.33,15.99,11.516,33.785,18.559,53.391C140.003,79.656,145.805,99.835,148.473,113.917z" fill="#FFFFFF"/>
		<path d="M249.82,193.291c13.134,0,23.219-4.854,30.262-14.561c5.332-7.043,7.994-18.274,7.994-33.689V95.075    c0-15.225-2.669-26.363-7.994-33.406c-7.043-9.707-17.128-14.561-30.262-14.561c-12.756,0-22.75,4.854-29.98,14.561    c-5.327,7.043-7.992,18.181-7.992,33.406v49.965c0,15.225,2.662,26.457,7.992,33.689    C227.073,188.437,237.063,193.291,249.82,193.291z M237.541,89.935c0-13.134,4.093-19.701,12.279-19.701    s12.275,6.567,12.275,19.701v59.955c0,13.328-4.089,19.985-12.275,19.985s-12.279-6.661-12.279-19.985V89.935z" fill="#FFFFFF"/>
		<path d="M328.328,193.291c9.523,0,19.328-5.901,29.413-17.705v15.703h25.981V48.822h-25.981v108.777    c-5.712,8.186-11.133,12.275-16.279,12.275c-3.429,0-5.428-2.093-5.996-6.28c-0.191-0.381-0.287-3.715-0.287-9.994V48.822h-25.981    v112.492c0,9.705,0.767,16.84,2.286,21.411C313.961,189.768,319.574,193.291,328.328,193.291z" fill="#FFFFFF"/>
	</g>
</g>
<g>
</g>
<g>
</g>
<g>
</g>
<g>
</g>
<g>
</g>
<g>
</g>
<g>
</g>
<g>
</g>
<g>
</g>
<g>
</g>
<g>
</g>
<g>
</g>
<g>
</g>
<g>
</g>
<g>
</g>
</svg>
