<?xml version="1.0" encoding="UTF-8" standalone="no"?>
<svg
   width="600"
   height="600"
   version="1.1"
   id="svg1"
   xmlns="http://www.w3.org/2000/svg"
   xmlns:svg="http://www.w3.org/2000/svg">
  <defs
     id="defs1" />
  <path
     d="m 135.7217,79.034771 c 66.496,49.920999 138.02,151.139999 164.28,205.459999 26.262,-54.316 97.782,-155.54 164.28,-205.459999 47.98,-36.021 125.72,-63.892 125.72,24.794999 0,17.712 -10.155,148.79 -16.111,170.07 -20.703,73.984 -96.144,92.854 -163.25,81.433 117.3,19.964 147.14,86.092 82.697,152.22 -122.39,125.59 -175.91,-31.511 -189.63,-71.766 -2.514,-7.3797 -3.6904,-10.832 -3.7077,-7.8964 -0.0174,-2.9357 -1.1937,0.51669 -3.7077,7.8964 -13.714,40.255 -67.233,197.36 -189.63,71.766 -64.444,-66.128 -34.605,-132.26 82.697,-152.22 -67.108,11.421 -142.55,-7.4491 -163.25,-81.433 -5.9562,-21.282 -16.111,-152.36 -16.111,-170.07 0,-88.686999 77.742,-60.815999 125.72,-24.794999 z"
     fill="#1185fe"
     id="path1"
     style="fill:#ffffff" />
</svg>
