<svg enable-background="new 0 0 240 48.8" viewBox="0 0 240 48.8" xmlns="http://www.w3.org/2000/svg" xmlns:xlink="http://www.w3.org/1999/xlink"><mask id="a" height="24.4" maskUnits="userSpaceOnUse" width="19.1" x="62.4" y="3.8"><path d="m81.5 3.8v24.4h-19.1v-24.4z" fill="#fff"/></mask><mask id="b" height="15.5" maskUnits="userSpaceOnUse" width="9.3" x="0" y="8"><path d="m0 23.5v-15.5h9.3v15.5z" fill="#fff"/></mask><g transform="translate(0 .734694)"><path d="m65.5 32.8c2.5 0 4.1-1.5 4.1-3.8 0-2-1.4-3.7-4.1-3.7h-7.2v7.6h7.2zm-.2-10.7c2.4 0 3.8-1.5 3.8-3.5s-1.4-3.6-3.8-3.6h-7.1v7.1zm-10.7 12v-20.4c0-1.2.7-1.9 2-1.9h9.4c4.3 0 6.8 2.7 6.8 6.2 0 3.1-2 5.1-4.2 5.6 2.6.4 4.7 3 4.7 6 0 3.8-2.5 6.5-7 6.5h-9.7c-1.3-.1-2-.8-2-2z"/><path d="m81.4 13.4c0-1 .8-1.8 1.9-1.8 1 0 1.8.8 1.8 1.8v13c0 4.1 2.3 6.8 6.6 6.8s6.5-2.7 6.5-6.8v-13c0-1 .8-1.8 1.9-1.8 1 0 1.8.8 1.8 1.8v13.1c0 6-3.4 10-10.2 10s-10.2-4-10.2-9.9v-13.2z"/><path d="m122.1 14.6c-5.2 0-8.5 4-8.5 9.3s3.3 9.3 8.5 9.3c5.1 0 8.5-4 8.5-9.3s-3.3-9.3-8.5-9.3m0-3.2c7.2 0 12.2 5.3 12.2 12.5s-5 12.5-12.2 12.5-12.2-5.3-12.2-12.5 5-12.5 12.2-12.5"/><path d="m159.4 14.3-7.8 11.6v8.5c0 1-.8 1.8-1.8 1.8s-1.8-.8-1.8-1.8v-8.5l-7.8-11.6c-.2-.3-.3-.6-.3-1 0-1 .8-1.7 1.7-1.7.6 0 1.2.3 1.5.8l6.7 10.3 6.7-10.3c.3-.5.9-.8 1.5-.8.9 0 1.7.8 1.7 1.7-.1.4-.2.7-.3 1"/><path d="m179.4 27.8-4.8-12.8-4.8 12.8zm6.3 6.5c0 1-.8 1.9-1.9 1.9-.8 0-1.5-.5-1.7-1.2l-1.5-4h-12l-1.5 4c-.3.7-.9 1.2-1.7 1.2-1 0-1.9-.8-1.9-1.9 0-.2.1-.5.1-.7l8-20c.4-1.2 1.6-2 2.9-2 1.4 0 2.5.9 3 2l8 20c.2.2.2.5.2.7z"/><path d="m209.6 35.3-12.9-17.8v17c0 1-.8 1.8-1.8 1.8s-1.9-.8-1.9-1.8v-20.5c0-1.3 1.1-2.4 2.4-2.4.8 0 1.5.4 1.9 1l12.7 17.3v-16.5c0-1 .8-1.8 1.8-1.8s1.9.8 1.9 1.8v20.5c0 1.2-1 2.3-2.3 2.3-.7 0-1.4-.3-1.8-.9"/><path d="m70.2 26.4v-19.4h-6.1c-.9 0-1.6-.7-1.6-1.6s.7-1.6 1.6-1.6h15.8c.9 0 1.6.7 1.6 1.6s-.8 1.6-1.6 1.6h-6.1v19.4c0 1-.8 1.8-1.8 1.8s-1.8-.8-1.8-1.8" mask="url(#a)" transform="translate(158.481116 8.011964)"/><path d="m25.9 34v11.5c0 .5-.2.8-.6 1.1-.8.4-1.5.9-2.3 1.3-.7.4-.8.3-.8-.5 0-7.3 0-14.5 0-21.8 0-.4 0-.8-.1-1.2-.2-.6-.6-1-1.1-1.3-4.6-2.7-9.2-5.3-13.8-8-1.8-1-3.6-2.1-5.4-3.1-.5-.3-.5-.5 0-.8.9-.5 1.7-1 2.6-1.5.3-.2.5-.2.7 0 6.7 3.9 13.5 7.8 20.2 11.7.5.3.6.6.6 1.1z" fill="#018afd"/><path d="m31.4 30.7v11.5c0 .6-.2.9-.7 1.2-.8.4-1.6.9-2.4 1.4-.4.2-.6.1-.6-.3 0-.1 0-.3 0-.5 0-7.2 0-14.5 0-21.7 0-1.2-.4-1.9-1.4-2.5-6.3-3.6-12.6-7.3-18.9-10.9-.2-.1-.6-.1-.6-.5 0-.3.4-.4.6-.5.8-.5 1.6-.9 2.4-1.4.2-.1.4-.1.7 0 6.6 3.8 13.3 7.7 19.9 11.5.7.4 1 .9.9 1.7.1 3.6.1 7.3.1 11z" fill="#00a2fd"/><path d="m42.5 24.4v11.6c0 .5-.1.8-.6 1-.8.4-1.6.9-2.3 1.3-.2.1-.4.3-.6.2-.3-.1-.2-.4-.2-.7 0-7.3 0-14.6 0-22 0-1.1-.5-1.9-1.4-2.4-6-3.4-11.9-6.8-17.8-10.3-.5-.3-.9-.5-1.4-.8-.4-.2-.4-.4 0-.6.9-.5 1.8-1.1 2.8-1.6.2-.1.4-.1.7 0 6.7 3.9 13.5 7.9 20.3 11.8.3.2.5.4.5.8z" fill="#06c0fd"/><path d="m36.9 27.6v11.6c0 .5-.2.8-.6 1-.8.4-1.6.9-2.5 1.4-.5.3-.6.2-.6-.4 0-7.3 0-14.6 0-21.9 0-1.3-.5-2.1-1.6-2.8-6.3-3.6-12.6-7.3-18.9-10.9-.5-.3-.5-.5 0-.8.9-.5 1.8-1 2.7-1.5.2-.1.4-.1.7 0 6.3 3.6 12.6 7.3 18.8 10.9.5.3 1 .6 1.5.9.4.2.5.5.5.9z" fill="#03b5fd"/><path d="m20.3 36.4v10.8.4c0 .6-.2.6-.7.4-.9-.5-1.7-1-2.6-1.5-.3-.2-.4-.4-.4-.7 0-5.6 0-11.3 0-16.9 0-1.2-.4-2-1.5-2.6-5-2.8-9.9-5.7-14.9-8.6-.1-.2-.2-.3-.2-.5 0-1.1 0-2.2 0-3.2 0-.5.2-.6.7-.4 3.7 2.1 7.3 4.2 11 6.3 2.7 1.6 5.5 3.2 8.2 4.7.3.2.4.4.4.8z" fill="#0074fd"/><path d="m14.8 36.5v7.8c0 .7-.1.8-.7.4-.8-.5-1.7-1-2.5-1.5-.3-.2-.5-.4-.5-.8 0-3.5 0-7 0-10.5 0-1.2-.4-2-1.5-2.6-3.1-1.7-6.1-3.5-9.2-5.3-.3-.1-.4-.3-.4-.6 0-1 0-2 0-2.9 0-.2 0-.5.2-.6s.4 0 .6.1c4.5 2.6 9 5.2 13.5 7.7.4.3.6.6.6 1.1-.1 2.6-.1 5.2-.1 7.7z" fill="#005cfd"/><path d="m9.2 18.3v4.7c0 .6-.2.7-.7.4-.9-.5-1.8-1-2.7-1.5-.3-.2-.4-.3-.4-.7 0-1.5 0-2.9 0-4.4 0-1.1-.4-1.9-1.4-2.4-1.2-.7-2.4-1.4-3.6-2-.4-.2-.6-.5-.6-1 .1-.9 0-1.8 0-2.7.2-.3.2-.5.4-.6s.4 0 .6.1c2.7 1.6 5.4 3.1 8.1 4.7.3.2.4.4.4.7-.1 1.5-.1 3.1-.1 4.7" fill="#003cfd" mask="url(#b)" transform="translate(0 18.199719)"/><path d="m0 34.7c0-.5 0-1.1 0-1.6 0-.4.2-.5.5-.4 1 .5 1.9 1.1 2.9 1.7.2.1.2.3.2.5v3.2c0 .5-.2.6-.6.4-.9-.5-1.8-1.1-2.7-1.6-.2-.2-.3-.4-.3-.7 0-.5 0-1 0-1.5" fill="#0e13fd"/></g></svg>