<svg height="120" viewBox="0 0 496 496" width="120" xmlns="http://www.w3.org/2000/svg"><path d="m424 96h-152v-16h24c4.418 0 8-3.582 8-8v-32c0-4.418-3.582-8-8-8h-24v-24c0-4.418-3.582-8-8-8h-32c-4.418 0-8 3.582-8 8v24h-24c-4.418 0-8 3.582-8 8v32c0 4.418 3.582 8 8 8h24v16h-152c-39.746.044-71.956 32.254-72 72v320c0 4.418 3.582 8 8 8h64c4.418 0 8-3.582 8-8v-304c0-4.418 3.582-8 8-8h320c4.418 0 8 3.582 8 8v96c0 4.418-3.582 8-8 8h-28.176c-22.047-33.04-66.704-41.951-99.744-19.904-7.881 5.259-14.645 12.023-19.904 19.904h-76.176c-39.746.044-71.956 32.254-72 72v128c0 4.418 3.582 8 8 8h64c4.418 0 8-3.582 8-8v-112c0-4.418 3.582-8 8-8h60.176c22.047 33.04 66.704 41.951 99.744 19.904 7.881-5.259 14.645-12.023 19.904-19.904h44.176c39.746-.044 71.956-32.254 72-72v-128c-.044-39.746-32.254-71.956-72-72zm-184-80h16v16h-16zm-32 48v-16h80v16zm48 16v16h-16v-16zm-192 400h-48v-16h48zm112-352h-64v16h64v16h-88c-13.255 0-24 10.745-24 24v264h-48v-280c.035-30.913 25.087-55.965 56-56h104zm32 32h-16v-48h16zm64 0h-48v-48h48zm-96 320h-48v-16h48zm40-128h-16c-13.255 0-24 10.745-24 24v72h-48v-88c.04-30.911 25.089-55.96 56-56h32zm36.2 0h-20.2v-48h20.2c-5.6 15.51-5.6 32.49 0 48zm59.8-79.36v16.16c-15.698 3.236-27.964 15.502-31.2 31.2h-16.16c3.566-24.528 22.832-43.794 47.36-47.36zm0 110.72c-24.528-3.566-43.794-22.832-47.36-47.36h16.16c3.236 15.698 15.502 27.964 31.2 31.2zm-16-55.36c0-13.255 10.745-24 24-24s24 10.745 24 24-10.745 24-24 24-24-10.745-24-24zm32 55.36v-16.16c15.698-3.236 27.964-15.502 31.2-31.2h16.16c-3.566 24.528-22.832 43.794-47.36 47.36zm31.2-63.36c-3.236-15.698-15.502-27.964-31.2-31.2v-16.16c24.528 3.566 43.794 22.832 47.36 47.36zm48.8 32h-20.2c5.6-15.51 5.6-32.49 0-48h20.2zm-104-192h-16v-48h16zm176 136c-.04 30.911-25.089 55.96-56 56v-54.24c5.07-4.514 7.979-10.972 8-17.76v-96c0-13.255-10.745-24-24-24h-88v-16h64v-16h-64v-16h104c30.913.035 55.965 25.087 56 56z" fill="#fff"/></svg>