<svg height="120" viewBox="0 0 120 120" width="120" xmlns="http://www.w3.org/2000/svg"><path d="m118.139999 29.0642945c1.922714 2.721348 2.354555 5.8006426 1.296532 9.2391381l-19.8154618 64.8824134c-.9111312 3.057472-2.7492941 5.622548-5.5114601 7.699742-2.7624184 2.075689-5.7050439 3.114412-8.8263622 3.114412h-66.5103024c-3.6995459 0-7.2658293-1.275514-10.70086944-3.830305-3.43478776-2.553788-5.82417242-5.694789-7.16941591-9.416732-1.15367881-3.2001991-1.2011283-6.2320852-.1443676-9.0976654 0-.1906373.07243619-.8342892.21680378-1.9312064.14411521-1.098673.23951897-1.9828791.28797802-2.6506115.04871144-.3832813-.02372474-.8964971-.21554183-1.540149-.19206947-.6454077-.26475805-1.1107133-.21680378-1.3974218.09616093-.5255069.2884828-1.0266824.57646082-1.5040282.28848279-.477095.68448412-1.0387227 1.18901353-1.6823745.50377223-.6436519.90103551-1.2052795 1.18825636-1.6833778 1.10572453-1.8123089 2.18671476-3.9991198 3.24347546-6.5521551 1.05701309-2.5547911 1.7778415-4.740097 2.16172806-6.5531584.14386281-.477095.15572518-1.1929884.03634429-2.1476801-.11963329-.9546917-.13225283-1.6231766-.03634429-2.0052037.14386281-.523751.55298846-1.1922359 1.22485303-2.0042004.6733789-.8124663 1.0812426-1.3610503 1.224853-1.6472571 1.0093113-1.7184953 2.0176129-3.9150889 3.0269241-6.5882758 1.0093112-2.6739395 1.6087396-4.8221213 1.8018187-6.4457995.048459-.4296865-.0123672-1.1929884-.1804595-2.2916615-.1680924-1.0979205-.1559776-1.7666562.0363443-2.0052037.1915646-.6205747.7198188-1.3480066 1.5847624-2.1832992.8649436-.8357942 1.3929454-1.3730905 1.5850149-1.6113871.9123931-1.2406477 1.9343238-3.2583934 3.0627635-6.0517321 1.1284398-2.7938403 1.7891991-5.0970403 1.9810162-6.9111051.0487115-.382278-.0237247-.9905616-.2155418-1.8253524-.1920695-.8360451-.239519-1.46866-.1441152-1.8978449.0954037-.382278.3122075-.8119645.6481398-1.2893104.3361847-.4773458.7687827-1.0266824 1.2965321-1.6472571.5290113-.6208255.9366226-1.122001 1.2251054-1.5040282.3846437-.5726645.7798879-1.3005981 1.1887611-2.1838008.4076114-.8842061.7682779-1.7202512 1.0804855-2.5078844.3122075-.7876332.6971037-1.64725704 1.1526692-2.57912244.4560704-.9306112.9250127-1.69466557 1.4053126-2.29166144.4800475-.59649418 1.1170821-1.15686761 1.9095895-1.68212364.7925074-.52600854 1.6574511-.80017513 2.5938213-.82500815.9366226-.02282632 2.0776819.10811143 3.4229254.39406744l-.071679.21547035c1.8255434-.42993736 3.0509012-.64415352 3.6753163-.64415352h54.8357089c3.5551783 0 6.2928623 1.33722057 8.2148193 4.01015668 1.921956 2.67293612 2.35405 5.77656212 1.297541 9.30937292l-19.744035 64.8841696c-1.7283729 5.6807417-3.4451358 9.3454937-5.1520554 10.9927507-1.7056577 1.6472571-4.7918936 2.4712619-9.2597174 2.4712619h-62.6186871c-1.29779405 0-2.21043955.3589501-2.73844131 1.0755959-.52875894.7640544-.55298846 1.7897334-.07268858 3.0790438 1.15342642 3.3444315 4.61168649 5.0130095 10.37629469 5.0130095h66.5095453c1.3931978 0 2.7379365-.369987 4.0354781-1.110713 1.2955225-.740225 2.1367414-1.730787 2.5218899-2.971936l21.6172808-70.6835581c.336689-1.0512645.45607-2.4120639.358395-4.0839032 1.82832.716395 3.246756 1.7420741 4.253796 3.0790438zm-81.8481138.5922121h7.0812403l.4936578-1.8653024h-7.0812403zm8.6356589 0h7.0812403l.4936578-1.8653024h-7.0812403zm7.2141072 5.3713798h2.0725581l1.4169808-5.3541085c.149317-.5641992.3748335-1.0247631.6765562-1.3817054.1991169-.2302854.4190606-.4087539.6598376-.5354109.2116539-.1036284.4383773-.1554419.6801769-.1554419.2417997 0 .4410979.0518135.5979006.1554419.1737367.126657.299216.3051255.3764415.5354109.112791.3569423.0945282.8175062-.0547888 1.3817054l-1.4169807 5.3541085h2.0725581l1.4169808-5.3541085c.2803503-1.0593128.3146772-1.9286271.1029819-2.607969-.145984-.4490565-.3842422-.7887224-.7147816-1.0190078-.3020913-.2072568-.6891736-.3108837-1.1612586-.3108837-.4720851 0-.9082607.1036269-1.3085399.3108837-.4378693.2187712-.8455867.5411659-1.2231645.9671938l1.2387155-4.6805271h-2.0725582zm12.260611.1381705c.7944846 0 1.5237583-.1669544 2.1878431-.5008682.5973716-.299371 1.114299-.7081214 1.5507979-1.2262635.1699938-.2072569.3257612-.4260247.4673068-.6563101l-1.7297091-.7081241c-.0826246.1381713-.1767619.2763404-.282415.4145117-.2167258.2533139-.4642685.4490535-.7426356.5872248-.2929286.1496855-.6121022.2245271-.9575303.2245271-.3223995 0-.5862114-.0690846-.7914437-.2072558-.2052322-.1381712-.3476451-.3396679-.4272431-.6044961-.0934846-.299371-.0938427-.6678221-.0010744-1.1053644h5.2850232l.4525197-1.7098604c.234641-.8865988.2557667-1.6407721.0633778-2.2625427-.1622431-.5181421-.4585831-.9211355-.8890288-1.2089922-.458894-.3108853-1.0625457-.4663256-1.8109732-.4663256s-1.4343546.1554403-2.057802.4663256c-.58281.2878567-1.0924568.6908501-1.5289557 1.2089922-.5214957.6217706-.8995585 1.3759439-1.1341995 2.2625427l-.4113815 1.5544186c-.2285464.8635702-.2451013 1.6004724-.0496651 2.2107287.1622432.5181421.4628166.9268925.9017293 1.2262635.4758279.3339138 1.1109746.5008682 1.9054592.5008682zm-.2324456-5.6477209c.14492-.4605708.3448723-.846293.5998631-1.1571783.2282401-.2533139.4685021-.4432965.7207934-.5699535.240777-.1266569.5050899-.1899845.7929466-.1899845s.51865.0633276.6923867.1899845c.185251.126657.3249541.3166396.4191136.5699535.0904373.3108853.0862246.6966075-.0126383 1.1571783zm5.7612919 5.5095504h6.0449612l.4936579-1.8653023h-1.8653024l2.8659579-10.8291163h-3.9378604l-.4936578 1.8653023h1.8653023l-2.3723001 8.963814h-2.1071008zm7.1804837 3.5406201h2.0725581l1.2387155-4.6805271c.1520786.426028.3891506.7484227.7112231.9671938.2905769.2072569.6776592.3108837 1.1612585.3108837.4951136 0 .9673551-.1093839 1.4167387-.328155.4785067-.2417997.912637-.5987367 1.3024039-1.0708217.5682278-.6678276.9879395-1.5141137 1.259148-2.5388837l.4113815-1.5544186c.2712084-1.02477.2994409-1.8710561.0846983-2.5388837-.1398895-.4720851-.3850909-.8290221-.7356116-1.0708217-.3335867-.2187712-.7479306-.3281551-1.2430442-.3281551-.4835993 0-.925532.1036269-1.3258112.3108837-.4378693.2187712-.8455868.5411659-1.2231645.9671938l.3016798-1.1399069h-2.0725582zm4.9520177-5.2677519c-.2533139 0-.4583692-.0518134-.6151719-.1554419-.1737367-.1266569-.2992159-.3051254-.3764415-.5354108-.112791-.3569424-.0945282-.8175062.0547888-1.3817054l.4113815-1.5544186c.149317-.5641992.3748335-1.0247631.6765562-1.3817054.1991169-.2302854.4190606-.4087539.6598376-.5354109.2116539-.1036284.4441343-.1554419.6974482-.1554419.2763425 0 .5013787.0633276.6751154.1899845.185251.126657.3249541.3166396.4191136.5699535.1012767.3569424.0833514.794478-.0537764 1.3126202l-.4113816 1.5544186c-.1371278.5181421-.3507928.9556778-.6410012 1.3126201-.2282401.253314-.4685021.4432965-.7207934.5699535-.240777.126657-.4993328.1899845-.7756753.1899845z" fill="#fff"/></svg>