<svg enable-background="new 0 0 512 512" height="120" viewBox="0 0 512 512" width="120" xmlns="http://www.w3.org/2000/svg"><g fill="#fff"><path d="m501.333 213.333h-29.376c-.587-1.483-1.195-2.955-1.856-4.437l20.789-20.779c4.164-4.165 4.164-10.917 0-15.083l-45.259-45.259c-4.165-4.164-10.917-4.164-15.083 0l-20.779 20.789c-1.483-.651-2.955-1.269-4.437-1.867v-29.365c0-5.891-4.776-10.667-10.667-10.667h-64c-5.891 0-10.667 4.776-10.667 10.667v29.365c-1.483.597-2.955 1.216-4.437 1.867l-20.779-20.789c-4.165-4.164-10.917-4.164-15.083 0l-45.259 45.259c-4.164 4.165-4.164 10.917 0 15.083l20.789 20.779c-.661 1.483-1.269 2.955-1.856 4.437h-29.373c-5.891 0-10.667 4.776-10.667 10.667v64c0 5.891 4.776 10.667 10.667 10.667h29.376c.587 1.483 1.195 2.955 1.856 4.437l-20.789 20.779c-4.164 4.165-4.164 10.917 0 15.083l45.259 45.259c4.165 4.164 10.917 4.164 15.083 0l20.779-20.789c1.483.651 2.955 1.269 4.437 1.867v29.365c0 5.891 4.776 10.667 10.667 10.667h64c5.891 0 10.667-4.776 10.667-10.667v-29.365c1.483-.597 2.955-1.216 4.437-1.867l20.779 20.789c4.165 4.164 10.917 4.164 15.083 0l45.259-45.259c4.164-4.165 4.164-10.917 0-15.083l-20.789-20.779c.661-1.483 1.269-2.955 1.856-4.437h29.376c5.891 0 10.667-4.776 10.667-10.667v-64c-.003-5.891-4.779-10.667-10.67-10.667zm-10.666 64h-26.219c-4.659 0-8.778 3.023-10.176 7.467-1.713 5.363-3.89 10.567-6.507 15.552-2.158 4.13-1.385 9.184 1.909 12.48l18.592 18.592-30.175 30.176-18.581-18.603c-3.296-3.294-8.35-4.068-12.48-1.909-4.985 2.624-10.193 4.801-15.563 6.507-4.444 1.398-7.467 5.517-7.467 10.176v26.229h-42.667l.011-26.219c0-4.659-3.023-8.778-7.467-10.176-5.369-1.706-10.577-3.883-15.563-6.507-4.13-2.158-9.184-1.385-12.48 1.909l-18.591 18.593-30.176-30.176 18.603-18.592c3.294-3.296 4.068-8.35 1.909-12.48-2.617-4.985-4.794-10.189-6.507-15.552-1.398-4.444-5.517-7.467-10.176-7.467h-26.229v-42.667h26.219c4.659 0 8.778-3.023 10.176-7.467 1.713-5.363 3.89-10.567 6.507-15.552 2.158-4.13 1.385-9.184-1.909-12.48l-18.592-18.592 30.176-30.176 18.581 18.603c3.296 3.294 8.35 4.067 12.48 1.909 4.985-2.624 10.193-4.801 15.563-6.507 4.444-1.398 7.467-5.517 7.467-10.176v-26.228h42.656v26.219c0 4.659 3.023 8.778 7.467 10.176 5.369 1.706 10.577 3.883 15.563 6.507 4.13 2.158 9.184 1.385 12.48-1.909l18.592-18.592 30.176 30.176-18.603 18.592c-3.294 3.296-4.068 8.35-1.909 12.48 2.617 4.985 4.794 10.189 6.507 15.552 1.398 4.444 5.517 7.467 10.176 7.467h26.229v42.665z"/><path d="m362.667 202.667c-29.455 0-53.333 23.878-53.333 53.333s23.878 53.333 53.333 53.333c29.44-.035 53.298-23.892 53.333-53.333 0-29.455-23.878-53.333-53.333-53.333zm0 85.333c-17.673 0-32-14.327-32-32s14.327-32 32-32 32 14.327 32 32-14.327 32-32 32z"/><path d="m384 85.333v-32c-.035-29.44-23.893-53.298-53.333-53.333h-234.667c-2.829.001-5.541 1.125-7.541 3.125l-85.334 85.334c-2 2-3.125 4.713-3.125 7.541v362.667c.035 29.44 23.893 53.298 53.333 53.333h277.333c29.441-.035 53.298-23.893 53.333-53.333v-32h-21.333v32c0 17.673-14.327 32-32 32h-277.333c-17.673 0-32-14.327-32-32v-358.251l79.083-79.083h230.251c17.673 0 32 14.327 32 32v32z"/><path d="m85.333 10.667v64c0 5.891-4.776 10.667-10.667 10.667h-21.333v21.333h21.333c17.673 0 32-14.327 32-32v-64z"/><path d="m96 245.333h96v21.333h-96z"/><path d="m53.333 245.333h21.333v21.333h-21.333z"/><path d="m117.333 320h85.333v21.333h-85.333z"/><path d="m74.667 320h21.333v21.333h-21.333z"/><path d="m117.333 170.667h85.333v21.333h-85.333z"/><path d="m74.667 170.667h21.333v21.333h-21.333z"/><path d="m74.667 448c-5.891 0-10.667-4.776-10.667-10.667v-21.333h-21.333v21.333c0 17.673 14.327 32 32 32h21.333v-21.333z"/><path d="m117.333 448h21.333v21.333h-21.333z"/></g></svg>