<svg enable-background="new 0 0 512 512" height="512" viewBox="0 0 512 512" width="512" xmlns="http://www.w3.org/2000/svg"><g fill="#fff"><path d="m458.667 0h-405.334c-29.44.035-53.298 23.893-53.333 53.333v405.333c.035 29.441 23.893 53.299 53.333 53.334h405.333c29.441-.035 53.298-23.893 53.333-53.333v-405.334c-.034-29.44-23.892-53.298-53.332-53.333zm32 458.667c0 17.673-14.327 32-32 32h-405.334c-17.673 0-32-14.327-32-32v-405.334c0-17.673 14.327-32 32-32h405.333c17.673 0 32 14.327 32 32v405.334z"/><path d="m42.667 85.333h426.667v21.333h-426.667z"/><path d="m53.333 42.667h21.333v21.333h-21.333z"/><path d="m96 42.667h21.333v21.333h-21.333z"/><path d="m437.333 42.667h21.333v21.333h-21.333z"/><path d="m448 128h-309.333v21.333h309.333v298.667h-384v-192h-21.333v192c0 11.782 9.551 21.333 21.333 21.333h384c11.782 0 21.333-9.551 21.333-21.333v-298.667c0-11.782-9.551-21.333-21.333-21.333z"/><path d="m114.208 173.792-42.667-42.667-15.083 15.083 35.125 35.125-35.125 35.125 15.083 15.083 42.667-42.667c4.164-4.165 4.164-10.917 0-15.082z"/><path d="m128 202.667h64v21.333h-64z"/></g></svg>