<svg enable-background="new 0 0 512 512" height="512" viewBox="0 0 512 512" width="512" xmlns="http://www.w3.org/2000/svg"><g fill="#fff"><path d="m494.933 17.067h-17.067v-8.534c0-4.713-3.82-8.533-8.533-8.533h-34.133c-4.713 0-8.533 3.82-8.533 8.533v8.533h-17.067v-8.533c0-4.713-3.82-8.533-8.533-8.533h-136.534c-4.713 0-8.533 3.82-8.533 8.533v8.533h-17.067v-8.533c0-4.713-3.82-8.533-8.533-8.533h-34.133c-4.713 0-8.533 3.82-8.533 8.533v8.533h-17.067v-8.533c0-4.713-3.82-8.533-8.533-8.533h-34.134c-4.713 0-8.533 3.82-8.533 8.533v8.533h-102.4c-9.422.01-17.058 7.646-17.067 17.067v460.8c.009 9.422 7.645 17.057 17.067 17.067h477.867c9.422-.009 17.057-7.645 17.067-17.067v-460.8c-.01-9.421-7.646-17.057-17.068-17.066zm-51.2 0h17.071l.003 8.499-.007.034.007.034.006 17.033h-17.079v-25.6zm-170.666 0h119.467l.003 8.521-.003.012.003.013.01 34.121h-119.48zm-68.267 0h17.071l.003 8.499-.007.034.007.034.006 17.033h-17.08zm-68.267 0h17.067l.003 8.521-.003.012.003.013.01 34.121h-17.079v-42.667zm358.4 298.666h-25.6c-4.713 0-8.533 3.82-8.533 8.533v42.667h-153.6v-119.466h153.6v42.667c0 4.713 3.82 8.533 8.533 8.533h25.6zm0-34.133h-17.067v-34.133c-.009-9.422-7.645-17.057-17.067-17.067h-153.599c-9.422.009-17.057 7.645-17.067 17.067v119.467c.009 9.422 7.645 17.057 17.067 17.067h153.6c9.422-.009 17.057-7.645 17.067-17.067v-34.134h17.067v162.133h-477.867v-460.8h102.4v25.6c.009 9.422 7.645 17.057 17.067 17.067v17.067c0 4.713 3.82 8.533 8.533 8.533s8.533-3.821 8.533-8.533v-17.067c9.422-.009 17.057-7.645 17.067-17.067v-25.6h17.067v8.533c.009 9.422 7.645 17.057 17.067 17.067h17.067c9.422-.009 17.057-7.645 17.067-17.067v-8.533h17.065v25.6c.009 9.422 7.645 17.057 17.067 17.067h119.467c9.422-.009 17.057-7.645 17.067-17.067v-25.6h17.067v8.533c.009 9.422 7.645 17.057 17.067 17.067h17.065c9.422-.009 17.057-7.645 17.067-17.067v-8.533h17.067v247.467z"/><path d="m93.867 68.267c3.45-.014 6.556-2.096 7.879-5.282 1.323-3.187.606-6.856-1.82-9.31-2.441-2.462-6.129-3.201-9.331-1.872s-5.281 4.464-5.261 7.931c-.022 2.27.87 4.453 2.475 6.058 1.604 1.605 3.788 2.497 6.058 2.475z"/><path d="m42.667 68.267c3.45-.014 6.556-2.096 7.879-5.282 1.323-3.187.606-6.856-1.82-9.31-2.441-2.462-6.129-3.201-9.331-1.872s-5.281 4.464-5.261 7.931c-.022 2.27.87 4.453 2.475 6.058 1.604 1.605 3.788 2.497 6.058 2.475z"/><path d="m51.2 307.2h17.067c9.422-.009 17.057-7.645 17.067-17.067v-153.6c-.009-9.422-7.645-17.057-17.067-17.067h-17.067c-9.422.009-17.057 7.645-17.067 17.067v153.6c.01 9.422 7.645 17.058 17.067 17.067zm0-170.667h17.067l.012 153.6h-17.079z"/><path d="m119.467 307.2h17.067c9.422-.009 17.057-7.645 17.067-17.067v-153.6c-.009-9.422-7.645-17.057-17.067-17.067h-17.067c-9.422.009-17.057 7.645-17.067 17.067v153.6c.009 9.422 7.645 17.058 17.067 17.067zm0-170.667h17.067l.012 153.6h-17.079z"/><path d="m85.333 349.867c0-14.138-11.461-25.6-25.6-25.6s-25.6 11.462-25.6 25.6 11.461 25.6 25.6 25.6c14.132-.016 25.585-11.468 25.6-25.6zm-25.6 8.533c-4.713 0-8.533-3.82-8.533-8.533s3.82-8.533 8.533-8.533 8.533 3.82 8.533 8.533c-.005 4.71-3.822 8.527-8.533 8.533z"/><path d="m119.467 401.067h-34.134c-9.422.009-17.057 7.645-17.067 17.067v34.133c.009 9.422 7.645 17.057 17.067 17.067h34.133c9.422-.009 17.057-7.645 17.067-17.067v-34.133c-.009-9.422-7.645-17.058-17.066-17.067zm-34.134 51.2v-34.133h34.133l.012 34.133z"/><path d="m153.6 341.333c-.009-9.422-7.645-17.057-17.067-17.067h-17.067c-9.422.009-17.057 7.645-17.067 17.067v17.067c.009 9.422 7.645 17.057 17.067 17.067h17.067c9.422-.009 17.057-7.645 17.067-17.067zm-34.133 17.067v-17.067h17.067l.012 17.067z"/><path d="m309.727 96.327c-9.359-4.437-20.471-2.778-28.127 4.198-9.646-8.878-24.487-8.878-34.133 0-9.646-8.878-24.487-8.878-34.133 0-7.657-6.951-18.753-8.593-28.095-4.158-9.342 4.436-15.083 14.072-14.536 24.399s7.273 19.303 17.031 22.728v52.773c.009 9.422 7.645 17.057 17.067 17.067h85.333c9.422-.009 17.057-7.645 17.067-17.067v-52.772c9.78-3.411 16.528-12.394 17.082-22.736s-5.197-19.996-14.556-24.432zm-113.46 31.673c-4.713 0-8.533-3.82-8.533-8.533.006-4.71 3.823-8.527 8.533-8.533 4.713 0 8.533 3.82 8.533 8.533s-3.821 8.533-8.533 8.533zm25.6 68.267h-17.067v-52.772c3.151-1.119 6.05-2.847 8.533-5.086 2.483 2.239 5.383 3.966 8.533 5.085v52.773zm8.533-68.267c-4.713 0-8.533-3.82-8.533-8.533.006-4.71 3.823-8.527 8.533-8.533 4.713 0 8.533 3.82 8.533 8.533s-3.82 8.533-8.533 8.533zm25.6 68.267h-17.067v-52.772c3.151-1.119 6.05-2.847 8.533-5.086 2.483 2.239 5.383 3.966 8.533 5.085v52.773zm8.533-68.267c-4.713 0-8.533-3.82-8.533-8.533.006-4.71 3.823-8.527 8.533-8.533 4.713 0 8.533 3.82 8.533 8.533s-3.82 8.533-8.533 8.533zm25.6 68.267h-17.067v-52.772c3.151-1.119 6.05-2.847 8.533-5.086 2.483 2.239 5.383 3.966 8.533 5.085v52.773zm8.534-68.267c-4.713 0-8.533-3.82-8.533-8.533.006-4.71 3.823-8.527 8.533-8.533 4.713 0 8.533 3.82 8.533 8.533s-3.82 8.533-8.533 8.533z"/><path d="m460.8 163.706v-27.172c0-4.713-3.821-8.533-8.533-8.533h-102.4c-4.713 0-8.533 3.82-8.533 8.533v27.172c-10.199 3.592-17.033 13.214-17.067 24.028-.044 10.117 5.899 19.303 15.146 23.408s20.046 2.353 27.521-4.466c9.646 8.878 24.487 8.878 34.133 0 9.646 8.878 24.487 8.878 34.133 0 7.657 6.951 18.753 8.593 28.095 4.157s15.083-14.072 14.536-24.399-7.273-19.304-17.031-22.728zm-110.933 32.561c-4.713 0-8.533-3.82-8.533-8.533.006-4.71 3.823-8.527 8.533-8.533 4.713 0 8.533 3.82 8.533 8.533s-3.82 8.533-8.533 8.533zm34.133 0c-4.713 0-8.533-3.82-8.533-8.533s3.82-8.533 8.533-8.533 8.533 3.82 8.533 8.533c-.006 4.71-3.823 8.527-8.533 8.533zm34.133 0c-4.713 0-8.533-3.82-8.533-8.533s3.82-8.533 8.533-8.533 8.533 3.82 8.533 8.533c-.005 4.71-3.822 8.527-8.533 8.533zm-17.066-27.475c-9.646-8.878-24.487-8.878-34.133 0-2.483-2.239-5.383-3.967-8.533-5.086v-18.639h85.333v18.639c-3.151 1.119-6.05 2.847-8.533 5.086-9.647-8.878-24.488-8.878-34.134 0zm51.2 27.475c-4.713 0-8.533-3.82-8.533-8.533s3.821-8.533 8.533-8.533c4.713 0 8.533 3.82 8.533 8.533-.006 4.71-3.823 8.527-8.533 8.533z"/><path d="m324.946 276.308c.187.545.447 1.062.771 1.538.341.425.683.85 1.025 1.279 3.365 3.3 8.752 3.3 12.117 0 .366-.405.707-.833 1.021-1.279.324-.476.583-.993.771-1.538.245-.485.418-1.003.513-1.537.098-.563.155-1.133.171-1.704 0-4.713-3.821-8.533-8.533-8.533-4.713 0-8.533 3.821-8.533 8.533.014.572.071 1.141.171 1.704.089.535.26 1.053.506 1.537z"/><path d="m337.579 334.25c-.476-.324-.993-.583-1.538-.771-.484-.246-1.002-.417-1.537-.508-1.663-.348-3.393-.171-4.95.508-1.033.434-1.984 1.041-2.813 1.796-3.3 3.365-3.3 8.752 0 12.117.83.752 1.781 1.358 2.813 1.792 1.027.438 2.13.67 3.246.683.571-.016 1.141-.073 1.704-.171.535-.095 1.053-.267 1.537-.512.544-.188 1.062-.447 1.538-.771.425-.337.85-.679 1.279-1.021 3.3-3.365 3.3-8.752 0-12.117-.429-.342-.854-.683-1.279-1.025z"/><path d="m431.954 265.213c-1.033.434-1.984 1.041-2.813 1.795-1.559 1.635-2.443 3.799-2.475 6.059.013.572.071 1.141.171 1.704.091.535.263 1.053.508 1.537.187.545.447 1.062.771 1.538.341.425.683.85 1.025 1.279.83.752 1.781 1.358 2.813 1.792 1.027.438 2.13.67 3.246.683 2.259-.034 4.422-.918 6.059-2.475.366-.406.707-.833 1.021-1.279.324-.476.583-.993.771-1.538.245-.485.418-1.003.513-1.537.098-.563.155-1.133.17-1.705-.033-2.259-.917-4.422-2.475-6.059-2.473-2.386-6.121-3.09-9.305-1.794z"/><path d="m439.979 334.25c-.476-.324-.993-.583-1.538-.771-.508-.258-1.056-.43-1.621-.508-2.781-.506-5.636.35-7.679 2.304-2.461 2.441-3.201 6.129-1.872 9.331s4.464 5.281 7.93 5.261c.544-.016 1.086-.073 1.621-.171.564-.082 1.112-.255 1.621-.512.544-.188 1.062-.447 1.538-.771.425-.337.85-.679 1.279-1.021 3.3-3.365 3.3-8.752 0-12.117-.429-.342-.854-.683-1.279-1.025z"/><path d="m384 281.6c-4.713 0-8.533 3.82-8.533 8.533v34.133c0 4.713 3.82 8.533 8.533 8.533s8.533-3.82 8.533-8.533v-34.133c0-4.712-3.82-8.533-8.533-8.533z"/><path d="m349.867 298.667h-17.067c-4.713 0-8.533 3.82-8.533 8.533s3.821 8.533 8.533 8.533h17.067c4.713 0 8.533-3.82 8.533-8.533s-3.82-8.533-8.533-8.533z"/><path d="m435.2 298.667h-17.067c-4.713 0-8.533 3.82-8.533 8.533s3.82 8.533 8.533 8.533h17.067c4.713 0 8.533-3.82 8.533-8.533s-3.82-8.533-8.533-8.533z"/><path d="m187.733 384h68.267c9.422-.009 17.057-7.645 17.067-17.067v-119.466c-.009-9.422-7.645-17.057-17.067-17.067h-68.267c-9.422.009-17.057 7.645-17.067 17.067v119.467c.01 9.421 7.646 17.057 17.067 17.066zm0-136.533h68.267l.012 119.467h-68.279z"/><path d="m226.646 265.983c-.476-.324-.993-.583-1.538-.771-.484-.246-1.002-.417-1.537-.508-2.81-.574-5.721.29-7.763 2.304-1.559 1.635-2.443 3.799-2.475 6.058.013.572.071 1.141.171 1.704.091.535.263 1.053.508 1.537.188.545.447 1.062.771 1.538.341.425.683.85 1.025 1.279 1.636 1.558 3.8 2.441 6.059 2.475.571-.016 1.141-.073 1.704-.171.535-.095 1.053-.268 1.537-.512.544-.188 1.062-.447 1.538-.771.425-.337.85-.679 1.279-1.021.341-.429.683-.854 1.021-1.279.324-.476.583-.993.771-1.538.245-.485.418-1.003.513-1.537.098-.563.155-1.133.171-1.704-.033-2.259-.917-4.422-2.475-6.059-.406-.366-.834-.708-1.28-1.024z"/><path d="m227.925 301.141c-.429-.341-.854-.683-1.279-1.025-.476-.324-.993-.583-1.538-.771-.484-.246-1.002-.417-1.537-.508-1.663-.348-3.393-.171-4.95.508-2.139.784-3.824 2.469-4.608 4.608-.437 1.027-.668 2.13-.68 3.247.013.572.071 1.141.171 1.704.091.535.263 1.053.508 1.537.188.544.447 1.062.771 1.538.341.425.683.85 1.025 1.279.83.752 1.781 1.358 2.813 1.792 1.027.438 2.13.67 3.246.683.571-.016 1.141-.073 1.704-.171.535-.095 1.053-.268 1.537-.513.544-.187 1.062-.447 1.538-.771.425-.338.85-.679 1.279-1.021.341-.429.683-.854 1.021-1.279.324-.476.583-.993.771-1.538.245-.485.418-1.003.513-1.537.098-.563.155-1.133.171-1.704-.013-1.116-.245-2.219-.683-3.246-.435-1.031-1.041-1.982-1.793-2.812z"/><path d="m226.646 334.25c-.476-.324-.993-.583-1.538-.771-.484-.246-1.002-.417-1.537-.508-1.663-.348-3.393-.171-4.95.508-1.033.434-1.984 1.041-2.813 1.796-3.3 3.365-3.3 8.752 0 12.117.83.752 1.781 1.358 2.813 1.792 1.027.438 2.13.67 3.246.683.571-.016 1.141-.073 1.704-.171.535-.095 1.053-.267 1.537-.512.544-.188 1.062-.447 1.538-.771.425-.337.85-.679 1.279-1.021 3.3-3.365 3.3-8.752 0-12.117-.429-.342-.854-.683-1.279-1.025z"/><path d="m153.6 418.133v34.133c.009 9.422 7.645 17.057 17.067 17.067h290.133c9.422-.009 17.057-7.645 17.067-17.067v-34.133c-.009-9.422-7.645-17.057-17.067-17.067h-290.133c-9.422.01-17.058 7.646-17.067 17.067zm307.213 34.134h-17.079v-8.533c0-4.713-3.82-8.533-8.533-8.533s-8.533 3.82-8.533 8.533v8.533h-17.068v-8.533c0-4.713-3.82-8.533-8.533-8.533s-8.533 3.82-8.533 8.533v8.533h-17.067v-8.533c0-4.713-3.82-8.533-8.533-8.533s-8.533 3.82-8.533 8.533v8.533h-17.067v-8.533c0-4.713-3.821-8.533-8.533-8.533-4.713 0-8.533 3.82-8.533 8.533v8.533h-17.068v-8.533c0-4.713-3.82-8.533-8.533-8.533s-8.533 3.82-8.533 8.533v8.533h-17.067v-8.533c0-4.713-3.821-8.533-8.533-8.533s-8.533 3.82-8.533 8.533v8.533h-17.067v-8.533c0-4.713-3.82-8.533-8.533-8.533s-8.533 3.82-8.533 8.533v8.533h-17.068v-8.533c0-4.713-3.82-8.533-8.533-8.533s-8.533 3.82-8.533 8.533v8.533h-17.067v-34.133h290.133z"/><path d="m45.908 461.479c-2.079-.85-4.409-.85-6.487 0-1.054.393-2.013 1.005-2.813 1.796-2.461 2.441-3.201 6.129-1.872 9.331s4.464 5.281 7.931 5.261c2.259-.034 4.422-.918 6.059-2.475.752-.831 1.358-1.783 1.792-2.817.437-1.026.669-2.127.683-3.242-.033-2.259-.917-4.422-2.475-6.059-.817-.771-1.773-1.381-2.818-1.795z"/></g></svg>