<svg enable-background="new 0 0 481.312 481.312" height="512" viewBox="0 0 481.312 481.312" width="512" xmlns="http://www.w3.org/2000/svg"><path d="m407.01 302.241s27.682-1.201 47.718 22.117c-9.036-18.994-26.246-44.85-58.531-67.179 0 0 34.147-1.421 54.046 30.933-.102-.558-.203-1.118-.305-1.676-8.511-46.398-41.558-84.724-86.23-99.879-.052-.007-.085-.024-.135-.042 0 0 31.981-10.644 59.851 14.264 0-.007-.017-.016-.017-.024-10.001-22.134-26.754-40.29-47.973-52.085-9.119-5.068-19.459-9.764-31.118-13.706 0 0 20.103-6.633 42.288 2.961 0-.017-.017-.042-.035-.059-15.279-20.323-36.888-34.69-61.492-40.967-22.962-5.855-49.106-8.697-74.674-3.232 0 0 18.393-32.049 53.168-31.82-36.398-20.779-84.776-32.548-118.061-7.387-49.564-33.975-99.821-53.325-158.926-54.46 37.159 19.748 151.666 58.524 293.299 238.49-47.786-48.86-105.183-99.642-165.559-139.516-5.094 14.704-7.496 31.862-5.517 50.974 7.496-15.347 18.935-23.13 18.935-23.13-.068.203-.135.405-.203.608-12.048 35.975-6.312 75.529 15.415 106.632.373.523.745 1.057 1.118 1.589 6.43-21.836 22.657-32.971 22.657-32.971-2.724 8.062-4.789 15.822-6.278 23.25-3.316 16.397 1.608 33.378 13.198 45.434.322.338.678.626.998.963 2.183-34.13 26.989-65.434 26.989-65.434-4.112 27.092-3.536 50.738-.963 70.232 1.826 13.917 9.424 26.449 20.932 34.494.1.068.203.144.305.211.811-24.468 15.737-39.891 15.737-39.891-.695 5.576-1.118 10.965-1.303 16.168-.78 20.415 9.475 39.697 26.837 50.468 2.048-22.37 15.449-36.339 15.449-36.339-3.096 25.231 7.834 50.139 28.479 64.961 15.702 11.27 30.238 23.531 42.759 38.124-2.487-39.427-17.733-62.939-17.733-62.939 32.454 34.13 36.551 62.169 32.201 82.103 10.119 15.898 18.055 34.444 23.047 56.831 11.54-18.674 20.102-43.826 24.806-72.838 6.686-41.119-10.914-82.534-45.179-106.233z" fill="#fff"/></svg>