<svg enable-background="new 0 0 512 512" height="512" viewBox="0 0 512 512" width="512" xmlns="http://www.w3.org/2000/svg"><path d="m509.803 317.786-38.706-38.706c-5.119-5.118-11.924-7.938-19.163-7.938-5.313 0-10.389 1.524-14.739 4.355l-33.042-33.04 11.455-11.454c12.214-12.228 12.214-32.123-.008-44.358-5.271-5.261-12.083-8.42-19.414-9.054 3.16-10.673.537-22.715-7.87-31.13-4.908-4.908-11.162-7.987-17.935-8.896 1.406-3.595 2.141-7.459 2.141-11.436 0-8.378-3.264-16.253-9.187-22.17-5.46-5.46-12.449-8.481-19.602-9.064 3.039-10.607.39-22.518-7.948-30.864-5.924-5.924-13.802-9.187-22.183-9.187-6.173 0-12.072 1.778-17.121 5.083l-2.061-3.916c-4.797-9.113-14.871-14.288-25.075-12.861l-47.282 6.59c-5.551-4.941-12.627-7.646-20.122-7.646-8.103 0-15.722 3.156-21.455 8.89-5.457 5.463-8.387 12.51-8.802 19.677-2.097-.452-4.255-.691-6.451-.691-8.103 0-15.72 3.155-21.449 8.884v.001c-8.296 8.296-10.764 20.239-7.421 30.713-6.511.782-12.815 3.657-17.801 8.643v.001c-7.8 7.8-10.453 18.827-7.963 28.825-6.942.551-13.729 3.468-19.027 8.765v.001c-11.826 11.826-11.826 31.068 0 42.895l11.816 11.816c1.303 1.303 2.7 2.453 4.163 3.469 1.312 8.692 4.761 16.911 10.011 23.914l-42.754 42.761c-10.497-6.808-24.708-5.618-33.902 3.577l-38.701 38.705c-4.738 4.739-1.319 12.804 5.303 12.804 1.919 0 3.839-.732 5.303-2.196l38.706-38.706c4.718-4.718 12.394-4.72 17.112 0l24.081 24.081c2.929 2.928 7.678 2.928 10.606 0 2.929-2.93 2.929-7.678 0-10.607l-17.474-17.474 47.257-47.265c2.929-2.929 2.928-7.677 0-10.605-3.88-3.88-6.836-8.53-8.729-13.599.157.002.314.011.471.011 7.768 0 15.535-2.957 21.449-8.87 5.091-5.091 8.144-11.674 8.762-18.763 2.488.649 5.073.99 7.712.99 8.102 0 15.719-3.155 21.448-8.885 4.846-4.846 7.703-10.938 8.577-17.254 3.216 1.139 6.637 1.734 10.149 1.734 8.102 0 15.719-3.155 21.448-8.885 10.468-10.468 11.663-26.743 3.6-38.545 5.401-1.284 10.358-4.032 14.383-8.057.093-.093.177-.195.269-.289 1.382-.102 2.767-.264 4.152-.506l17.378-3.034c2.143.104 4.258-.699 5.776-2.278l.136-.136c.001-.001.002-.002.003-.003l7.293-7.293 22.192-22.191c.076-.075.15-.152.222-.231l2.249-2.248c3.091-3.092 7.199-4.794 11.567-4.794 4.374 0 8.485 1.702 11.574 4.791 6.376 6.383 6.377 16.762.003 23.136l-6.19 6.189c-2.929 2.929-2.929 7.678 0 10.606 2.93 2.93 7.678 2.929 10.607.001l.025-.025c6.381-6.352 16.74-6.343 23.111.027 3.089 3.087 4.791 7.192 4.791 11.561 0 4.37-1.702 8.479-4.793 11.57l-8.716 8.717c-.017.017-.033.033-.049.049-2.925 2.932-2.921 7.678.009 10.604 2.929 2.925 7.675 2.924 10.604-.003l.029-.029c3.071-3.065 7.167-4.754 11.538-4.754 4.375 0 8.482 1.698 11.563 4.78 6.376 6.383 6.377 16.762.002 23.137l-6.45 6.45c-2.928 2.928-2.929 7.674-.002 10.604 2.926 2.928 7.673 2.932 10.604.008 3.095-3.088 7.205-4.789 11.572-4.789s8.477 1.701 11.563 4.781c6.375 6.382 6.375 16.767.003 23.146l-16.673 16.672c-.028.027-.059.05-.086.078-.028.028-.051.058-.078.086l-96.26 96.251c-6.535 6.535-15.222 10.134-24.461 10.134-9.238 0-17.921-3.598-24.453-10.134l-1.36-1.36c-2.929-2.928-7.678-2.928-10.606 0l-51.946 51.946-54.437-54.437c-2.929-2.928-7.678-2.928-10.606 0-2.929 2.93-2.929 7.678 0 10.607l61.042 61.042c4.718 4.718 4.718 12.394 0 17.111l-38.708 38.705c-2.929 2.93-2.929 7.678 0 10.607 1.464 1.464 3.384 2.196 5.303 2.196s3.839-.732 5.303-2.196l38.706-38.706c9.194-9.194 10.384-23.404 3.578-33.9l47.283-47.283c8.748 7 19.531 10.801 30.898 10.801 13.246 0 25.7-5.159 35.066-14.526l91.039-91.031 32.622 32.622-93.231 93.231-19.45-19.45c-2.929-2.928-7.678-2.928-10.606 0-2.929 2.93-2.929 7.678 0 10.607l19.87 19.87c-2.834 4.352-4.359 9.429-4.359 14.745 0 7.238 2.819 14.043 7.938 19.162l38.706 38.707c2.93 2.929 7.678 2.928 10.606 0 2.929-2.93 2.929-7.678 0-10.606l-38.706-38.708c-2.285-2.285-3.544-5.323-3.544-8.555s1.259-6.271 3.544-8.556l106.444-106.444c2.286-2.286 5.324-3.545 8.556-3.545s6.271 1.259 8.556 3.545l38.706 38.706c2.929 2.928 7.678 2.928 10.606 0 2.926-2.933 2.926-7.681-.003-10.611zm-318.704-256.197c2.684-2.684 6.191-4.234 9.949-4.45-.124.155-.258.299-.376.459-2.597 3.506-3.652 7.811-2.969 12.119l1.297 8.188c1.741 10.994 7.688 20.612 16.744 27.083.718.513 1.451.994 2.193 1.458-2.958-.581-5.678-2.022-7.858-4.206l-10.437-10.431-8.58-8.58c-5.931-5.983-5.919-15.678.037-21.64zm-55.415 138.317c-5.978 5.978-15.705 5.979-21.684 0l-11.816-11.815c-5.978-5.979-5.978-15.706 0-21.685v.001c5.974-5.975 15.693-5.977 21.671-.013l7.426 7.426 4.403 4.403c2.896 2.896 4.491 6.745 4.491 10.841 0 4.097-1.595 7.946-4.491 10.842zm37.921-26.657c-2.896 2.896-6.746 4.49-10.842 4.49-4.095 0-7.946-1.595-10.842-4.491l-10.034-10.034-7.413-7.414c-.008-.008-.017-.016-.025-.024l-5.276-5.276c-5.978-5.979-5.978-15.706 0-21.685v.001c5.976-5.976 15.698-5.978 21.677-.007l22.759 22.758c5.973 5.98 5.973 15.705-.004 21.682zm40.174-24.405c-2.896 2.896-6.747 4.49-10.842 4.49s-7.946-1.595-10.842-4.491l-7.879-7.878c-.002-.002-.004-.004-.006-.006l-22.749-22.749c-.011-.011-.023-.021-.034-.032l-7.034-7.034c-5.978-5.979-5.978-15.706 0-21.685v.001c5.978-5.979 15.705-5.979 21.684 0l4.339 4.339c.026.026.05.054.076.08l8.227 8.222 25.06 25.059c5.977 5.979 5.977 15.706 0 21.684zm65.994-73.146-18.63 18.622-16.936 2.958c-6.97 1.218-13.985-.378-19.745-4.493-5.76-4.116-9.542-10.233-10.649-17.225l-1.297-8.189c-.061-.384.079-.671.207-.843.128-.173.361-.39.747-.444l57.947-8.075c.437-.062.872-.091 1.305-.091 3.492 0 6.771 1.936 8.427 5.082l3.904 7.417z" fill="#fff"/></svg>