<svg enable-background="new 0 0 512 512" height="512" viewBox="0 0 512 512" width="512" xmlns="http://www.w3.org/2000/svg"><g fill="#fff"><path d="m433.572 95.296h-53.77v-17.577c0-14.1-11.471-25.572-25.572-25.572h-73.785c-14.1 0-25.572 11.471-25.572 25.572v17.577h-53.769c-19.635 0-35.61 15.974-35.61 35.61v154.8c0 19.634 15.974 35.609 35.61 35.609h232.467c19.634 0 35.609-15.974 35.609-35.61v-154.799c.001-19.636-15.974-35.61-35.608-35.61zm-163.489-17.577c0-5.714 4.649-10.364 10.364-10.364h73.785c5.715 0 10.364 4.649 10.364 10.364v17.577h-94.512v-17.577zm-64.1 228.388h-4.879c-11.25 0-20.402-9.152-20.402-20.402v-154.799c0-11.25 9.152-20.402 20.402-20.402h4.879zm171.751 0h-120.791v-132.297c0-4.199-3.404-7.604-7.604-7.604s-7.604 3.405-7.604 7.604v132.297h-20.544v-195.603h20.544v37.958c0 4.199 3.404 7.604 7.604 7.604s7.604-3.405 7.604-7.604v-37.958h5.536 109.72 5.536v195.603zm35.751 0h-20.544v-195.603h20.544zm40.489-20.401c0 11.25-9.151 20.402-20.401 20.402h-4.88v-195.604h4.88c11.249 0 20.401 9.152 20.401 20.402z"/><path d="m168.455 398.328c-26.007 0-47.165 21.157-47.165 47.164 0 26.006 21.157 47.164 47.165 47.164 26.006 0 47.164-21.157 47.164-47.164s-21.157-47.164-47.164-47.164zm0 79.12c-17.621 0-31.957-14.335-31.957-31.956s14.336-31.956 31.957-31.956c17.62 0 31.956 14.335 31.956 31.956s-14.336 31.956-31.956 31.956z"/><path d="m425.665 398.328c-26.006 0-47.164 21.157-47.164 47.164 0 26.006 21.157 47.164 47.164 47.164s47.164-21.157 47.164-47.164c-.002-26.007-21.159-47.164-47.164-47.164zm0 79.12c-17.62 0-31.956-14.335-31.956-31.956s14.336-31.956 31.956-31.956 31.956 14.335 31.956 31.956c-.001 17.621-14.336 31.956-31.956 31.956z"/><path d="m504.396 336.525h-363.93v-290.568c0-14.675-11.938-26.613-26.613-26.613h-87.24c-14.675 0-26.613 11.939-26.613 26.613s11.938 26.613 26.613 26.613h60.628v290.567c0 14.675 11.938 26.613 26.613 26.613h279.051c4.2 0 7.604-3.405 7.604-7.604s-3.404-7.604-7.604-7.604h-279.051c-6.289 0-11.405-5.116-11.405-11.405v-298.171c0-4.199-3.404-7.604-7.604-7.604h-44.192c1.648-3.459 2.573-7.325 2.573-11.405s-.926-7.946-2.573-11.405h63.2c6.289 0 11.405 5.116 11.405 11.405v298.171c0 4.199 3.404 7.604 7.604 7.604h363.931v22.81h-78.539c-4.2 0-7.604 3.405-7.604 7.604s3.404 7.604 7.604 7.604h86.143c4.2 0 7.604-3.405 7.604-7.604v-38.018c-.001-4.199-3.405-7.603-7.605-7.603zm-477.783-279.163c-6.289 0-11.405-5.116-11.405-11.405s5.116-11.405 11.405-11.405 11.405 5.116 11.405 11.405-5.116 11.405-11.405 11.405z"/></g></svg>