<?xml version="1.0" encoding="UTF-8"?>
<svg width="218.84" height="47.956" preserveAspectRatio="xMaxYMid" version="1.1" viewBox="0 0 218.84 47.956" xmlns="http://www.w3.org/2000/svg" xmlns:cc="http://creativecommons.org/ns#" xmlns:dc="http://purl.org/dc/elements/1.1/" xmlns:rdf="http://www.w3.org/1999/02/22-rdf-syntax-ns#">
 <metadata>
  <rdf:RDF>
   <cc:Work rdf:about="">
    <dc:format>image/svg+xml</dc:format>
    <dc:type rdf:resource="http://purl.org/dc/dcmitype/StillImage"/>
    <dc:title/>
   </cc:Work>
  </rdf:RDF>
 </metadata>
 <path d="m49.636 30.824h59.917v17.132h-59.919zm57.23 12.3c-0.103 0.03-0.21 0.048-0.316 0.05-0.338 0-0.514-0.15-0.514-0.582v-3.256c0-1.71-1.352-2.543-2.976-2.543-1.107-0.025-2.205 0.207-3.21 0.676l-0.29 1.724 1.71 0.182 0.245-0.842c0.358-0.168 0.753-0.242 1.147-0.216 1.214 0 1.23 0.913 1.23 1.69v0.234c-0.407-0.048-0.818-0.07-1.23-0.068-1.71 0-3.49 0.433-3.49 2.276 0 1.563 1.23 2.144 2.31 2.144 1.022-3e-3 1.954-0.58 2.41-1.494 0.018 0.88 0.77 1.563 1.648 1.494 0.472 0 0.936-0.117 1.353-0.338zm-4.604-0.05c-0.504 0.063-0.936-0.362-0.88-0.867 0-0.815 0.677-1.015 1.432-1.015 0.36 8e-3 0.722 0.04 1.078 0.098-0.05 1.235-0.852 1.783-1.63 1.783zm-4.99-10.074-3.24 11.433h2.11l3.242-11.431zm-4.353 0-3.24 11.433h2.11l3.24-11.433zm-6.89 6.645h2.243v-2.705h-2.242zm0 4.802h2.243v-2.706h-2.242zm-3.617-1.64h-2.428l4.156-4.736-0.166-1.13h-6.58l-0.268 2.63 1.546 0.164 0.338-1.163h2.343l-4.123 4.734 0.216 1.13h6.544l0.467-2.63-1.69-0.164zm-10.385-6.017c-2.706 0-4.02 1.812-4.02 4.004 0 2.394 1.595 3.804 3.905 3.804 2.394 0 4.122-1.51 4.122-3.905-3e-3 -2.093-1.32-3.906-4.01-3.906zm-0.054 6.154c-1.165 0-1.763-0.997-1.763-2.292 0-1.414 0.676-2.23 1.778-2.23 1.015 0 1.83 0.677 1.83 2.196 0 1.438-0.73 2.327-1.846 2.327zm-5.906-3.564c0-1.78-1.224-2.594-2.577-2.594-1.075-0.04-2.057 0.607-2.44 1.612-0.367-1.1-1.364-1.613-2.443-1.613-0.94-0.04-1.82 0.455-2.276 1.278v-1.13h-3.14v1.63h0.996v4.24h-0.997v1.63h4.572v-1.63h-1.432v-2.603c0-1.048 0.433-1.78 1.448-1.78 0.845 0 1.278 0.502 1.278 1.797v4.224h3.14v-1.63h-0.996v-2.612c0-1.048 0.433-1.78 1.447-1.78 0.846 0 1.278 0.502 1.278 1.797v4.214h3.142v-1.63h-0.998zm78.791-22.39h-6.29c0.23-1.935 1.16-3.558 3.274-3.558 2.245 0 3.2 1.857 3.016 3.558zm73.978-16.99v29.137h-169.2v-29.137zm-147.25 6.885h-3.85l-6.346 13.125h-0.104l-6.524-13.126h-3.84v1.65h2.19v13.446h-2.112v1.65h5.927v-1.65h-2.012v-10.74h0.1l5.75 11.553h1.015l5.62-11.474h0.105v10.66h-1.962v1.65h5.942v-1.65h-2.09v-13.443h2.19zm9.993 16.76c5.285 0 8.484-3.48 8.484-8.42 0-4.847-3.094-8.353-8.56-8.353h-7.503v1.623h2.114v13.527h-2.114v1.623zm27.05-16.76h-6.426v1.65h2.526v11.268h-0.1l-9.539-12.918h-3.61v1.65h2.22v13.445h-1.935v1.65h6.385v-1.65h-2.655v-11.536h0.1l9.724 13.202h1.21v-15.111h2.09zm26.71 5.29h-5.156v1.467h1.83l-1.857 7.247h-0.128l-3.586-8.716h-1.21l-3.423 8.718h-0.127l-2.14-7.247h1.933v-1.47h-5.41v1.467h1.522l3.25 10.003h1.352l3.432-8.766h0.13l3.496 8.765h1.393l3.122-10.003h1.573zm6.704 11.727c2.837 0 4.514-1.583 4.83-3.568l-1.523-0.338c-0.36 1.42-1.365 2.347-3.17 2.347-2.283 0-3.53-1.468-3.636-4.02h8.058c0.1-0.445 0.153-0.898 0.156-1.354-0.024-2.71-1.728-5.03-4.873-5.03-3.246 0-5.26 2.58-5.26 6.14 0 3.712 2.162 5.825 5.412 5.825zm13.408 0c3.663 0 5.134-3.25 5.134-6.294 0-3.642-2.063-5.67-4.924-5.67-2.19 0-3.402 1.186-4.1 2.603v-8.636h-3.53v1.47h1.692v12.923c-0.03 1.124-0.143 2.244-0.338 3.35h1.805c0.028-0.127 0.235-1.778 0.235-1.906 0.747 1.39 2.242 2.165 4.02 2.165zm26.198-1.728h-1.985v-16.27h-4.6v1.47h2.798v6.653c-0.748-1.342-2.15-2.09-3.842-2.09-3.74 0-5.183 3.2-5.183 6.267 0 3.584 1.958 5.698 4.924 5.698 2.087 0 3.352-1.224 4.1-2.577v2.323h3.784zm6.963 1.728c3.53 0 5.75-2.526 5.742-6.006 0-3.25-1.934-5.982-5.647-5.982s-5.67 2.735-5.67 6.087c0 3.457 2.09 5.905 5.568 5.905zm12.942 0c3.172 0 4.538-2.114 4.866-4.112l-1.548-0.34c-0.334 1.885-1.315 2.917-3.094 2.917-2.27 0-3.507-1.637-3.507-4.397 0-2.475 0.982-4.487 3.43-4.487 0.862-0.03 1.713 0.195 2.45 0.646l0.42 1.936 1.496-0.18-0.44-2.758c-1.16-0.876-2.397-1.187-3.92-1.187-3.556 0-5.362 2.966-5.362 6.14 0 3.685 2.036 5.825 5.208 5.825zm11.166 0c2.76 0 4.874-1.34 4.847-3.595 0-4.565-7.1-2.195-7.1-5.184 0-1.177 1.03-1.69 2.474-1.69 0.826-0.015 1.64 0.18 2.368 0.567l0.267 1.864 1.495-0.18-0.284-2.68c-1.22-0.692-2.596-1.057-3.997-1.06-2.088 0-4.255 0.903-4.255 3.328 0 4.46 7.193 2.063 7.193 5.208 0 1.315-1.495 1.934-3.095 1.934-0.883 7e-3 -1.756-0.187-2.553-0.568l0.078-1.522-1.444-0.156-0.362 2.604c0.977 0.643 2.736 1.133 4.36 1.133zm-54.042-6.11c0 2.373-1.058 4.564-3.584 4.564-1.94 0.044-3.534-1.516-3.534-3.456v-1.728c0.05-1.7 1.444-3.686 3.635-3.686 1.948 0 3.48 1.444 3.483 4.305zm19.18-1.06v1.833c-0.076 1.73-1.57 3.79-3.634 3.79-1.985 0-3.48-1.47-3.48-4.28 0-2.425 1.133-4.59 3.686-4.59 1.84-0.04 3.37 1.41 3.43 3.248zm14.597 1.133c0 2.58-1.34 4.488-3.79 4.488-2.453 0-3.74-1.958-3.74-4.46 0-2.55 1.34-4.434 3.74-4.434 2.397 0 3.79 1.778 3.79 4.405zm-104.39-2.593c0 4.16-2.32 6.763-6.574 6.763h-3.478v-13.527h3.466c4.254 0 6.574 2.71 6.587 6.764zm-88.069-15.272h47.956v47.956h-47.956zm41.894 22.02c-0.036-0.723-0.12-1.448-0.17-2.166-0.027-0.36-0.165-0.702-0.395-0.98-0.272-0.332-0.626-0.587-1.026-0.74-0.808-0.314-1.622-0.664-2.435-0.975-1.152-0.395-2.27-0.886-3.342-1.472-0.72-0.415-1.2-1.147-1.296-1.972-0.106-0.933-0.654-1.762-1.47-2.228-0.906-0.487-1.963-0.612-2.958-0.35-0.734 0.176-1.5 0.165-2.23-0.033l-1.112-0.34-0.302-0.09-0.873-0.26c-1.57-0.468-2.228-0.713-4.773-0.278-2.682 0.608-5.137 1.96-7.09 3.897l-6.37 6.76h5.72l-3.504 3.71h6.026l-3.503 3.71h4.844l-1.548 4.06c5.93 6.07 12.25 7.295 12.25 7.295 0-1.673 0.38-8.24 0.826-9.34 0.167-0.552 0.425-1.07 0.762-1.54 0.827-1.014 2.082-1.588 3.393-1.547 1.303 0 2.597 0.238 3.815 0.702 0.74 0.31 1.577 0.264 2.277-0.122 0.507-0.3 1.007-0.618 1.498-0.94 0.157-0.125 0.355-0.188 0.556-0.18 0.54 0.06 1.054-0.237 1.27-0.734 0.16-0.33 0.35-0.64 0.524-0.97 0.472-0.884 0.69-1.88 0.633-2.88z"/>
</svg>
