<svg enable-background="new 0 0 512.001 512.001" height="512" viewBox="0 0 512.001 512.001" width="512" xmlns="http://www.w3.org/2000/svg"><g fill="#fff"><path d="m130.816 35.801c-4.198 0-7.599 3.402-7.599 7.599v20.137c0 4.196 3.402 7.599 7.599 7.599 4.198 0 7.599-3.402 7.599-7.599v-20.137c0-4.197-3.401-7.599-7.599-7.599z"/><path d="m130.816 90.014c-4.198 0-7.599 3.402-7.599 7.599v20.137c0 4.195 3.402 7.598 7.599 7.598 4.198 0 7.599-3.402 7.599-7.599v-20.136c0-4.197-3.401-7.599-7.599-7.599z"/><path d="m167.991 72.976h-20.135c-4.198 0-7.599 3.402-7.599 7.599 0 4.196 3.401 7.599 7.599 7.599h20.135c4.198 0 7.599-3.402 7.599-7.599s-3.402-7.599-7.599-7.599z"/><path d="m113.779 72.976h-20.137c-4.198 0-7.599 3.402-7.599 7.599 0 4.196 3.401 7.599 7.599 7.599h20.137c4.198 0 7.599-3.402 7.599-7.599s-3.402-7.599-7.599-7.599z"/><path d="m404.382 75.312c-4.198 0-7.599 3.402-7.599 7.599v20.137c0 4.196 3.401 7.599 7.599 7.599s7.599-3.402 7.599-7.599v-20.137c-.001-4.197-3.402-7.599-7.599-7.599z"/><path d="m404.382 129.524c-4.198 0-7.599 3.402-7.599 7.599v20.136c0 4.196 3.401 7.599 7.599 7.599s7.599-3.402 7.599-7.599v-20.136c-.001-4.197-3.402-7.599-7.599-7.599z"/><path d="m441.555 112.487h-20.136c-4.198 0-7.599 3.402-7.599 7.599s3.402 7.599 7.599 7.599h20.136c4.198 0 7.599-3.402 7.599-7.599s-3.401-7.599-7.599-7.599z"/><path d="m387.342 112.487h-20.135c-4.198 0-7.599 3.402-7.599 7.599s3.402 7.599 7.599 7.599h20.135c4.198 0 7.599-3.402 7.599-7.599s-3.401-7.599-7.599-7.599z"/><path d="m219.272 376.816c-1.709-3.838-3.776-7.548-6.146-11.026l-56.749-83.275c-3.702-5.434-9.314-9.019-15.801-10.096s-12.955.504-18.216 4.449c-9.852 7.39-12.432 21.346-5.876 31.772l33.591 53.41c1.115 1.773 1.433 3.863.896 5.887s-1.85 3.682-3.697 4.669c-3.412 1.826-7.723.697-9.806-2.567l-38.996-61.093c-2.53-3.962-3.652-8.72-3.161-13.398l8.686-82.636c1.485-14.134-8.328-27.06-22.339-29.431-7.137-1.207-14.298.444-20.182 4.645-5.885 4.201-9.773 10.445-10.948 17.578l-18.072 109.692c-2.113 12.826.467 25.991 7.264 37.069l21.085 34.368c2.194 3.577 6.873 4.696 10.45 2.503 3.576-2.194 4.698-6.873 2.504-10.451l-21.085-34.368c-4.886-7.966-6.742-17.431-5.222-26.652l18.071-109.695c.514-3.116 2.212-5.844 4.783-7.68 2.57-1.836 5.707-2.557 8.816-2.029 6.122 1.035 10.408 6.684 9.76 12.858l-8.686 82.637c-.849 8.087 1.092 16.314 5.466 23.164l38.995 61.092c6.328 9.914 19.409 13.333 29.78 7.794 5.526-2.953 9.617-8.119 11.224-14.175s.615-12.571-2.72-17.875l-33.591-53.411c-2.378-3.781-1.442-8.844 2.132-11.525 1.908-1.432 4.253-2.003 6.607-1.614 2.353.391 4.388 1.691 5.731 3.663l56.749 83.274c1.858 2.728 3.48 5.638 4.82 8.649 5.511 12.387 4.05 27.196-3.815 38.65-11.176 16.277-18.657 35.199-21.634 54.717l-3.908 25.629c-.633 4.149 2.217 8.024 6.366 8.656.389.06.775.088 1.156.088 3.691 0 6.929-2.694 7.501-6.454l3.908-25.629c2.634-17.266 9.251-34.006 19.139-48.406 10.831-15.774 12.813-36.248 5.17-53.427z"/><path d="m111.373 440.202-23.823-38.835c-2.195-3.578-6.875-4.698-10.45-2.503-3.576 2.194-4.698 6.873-2.503 10.451l23.823 38.833c2.044 3.331 2.78 7.283 2.075 11.128l-8.026 43.754c-.757 4.128 1.975 8.087 6.102 8.845.464.085.925.127 1.38.127 3.597 0 6.793-2.565 7.465-6.229l8.026-43.753c1.383-7.538-.062-15.285-4.069-21.818z"/><path d="m398.929 345.943c-3.536-2.258-8.236-1.221-10.493 2.317l-13.901 21.777c-2.083 3.264-6.391 4.392-9.808 2.566-1.846-.987-3.159-2.644-3.696-4.668-.537-2.023-.219-4.114.897-5.887l33.59-53.41c6.558-10.425 3.977-24.381-5.876-31.773-5.259-3.945-11.724-5.526-18.216-4.449-6.486 1.077-12.097 4.663-15.799 10.096l-56.751 83.276c-2.37 3.478-4.438 7.188-6.145 11.028-7.643 17.179-5.662 37.652 5.171 53.43 9.886 14.399 16.503 31.137 19.138 48.406l3.909 25.629c.573 3.761 3.811 6.454 7.501 6.454.382 0 .768-.028 1.156-.088 4.149-.633 6.999-4.509 6.366-8.657l-3.909-25.629c-2.977-19.519-10.457-38.439-21.633-54.717-7.864-11.454-9.325-26.264-3.815-38.651 1.339-3.01 2.96-5.92 4.819-8.647l56.751-83.276c1.342-1.971 3.378-3.271 5.729-3.662 2.355-.389 4.7.182 6.607 1.614 3.573 2.681 4.51 7.743 2.132 11.525l-33.59 53.41c-3.336 5.304-4.327 11.819-2.721 17.875 1.606 6.057 5.697 11.223 11.224 14.176 10.373 5.541 23.453 2.119 29.781-7.794l13.901-21.777c2.256-3.538 1.218-8.236-2.319-10.494z"/><path d="m472.283 352.464c6.796-11.081 9.376-24.246 7.263-37.069l-18.071-109.695c-1.175-7.135-5.065-13.378-10.95-17.579-5.884-4.201-13.051-5.849-20.18-4.644-14.013 2.37-23.825 15.299-22.339 29.431l8.686 82.635c.49 4.678-.631 9.435-3.162 13.4l-10.857 17.009c-2.258 3.537-1.22 8.235 2.317 10.493 3.536 2.258 8.235 1.221 10.493-2.317l10.857-17.009c4.373-6.852 6.314-15.079 5.466-23.165l-8.686-82.636c-.649-6.174 3.637-11.823 9.76-12.858 3.113-.528 6.245.193 8.815 2.028 2.571 1.836 4.27 4.563 4.784 7.681l18.071 109.695c1.519 9.22-.335 18.685-5.222 26.652l-58.699 95.684c-4.007 6.531-5.453 14.278-4.071 21.816l8.026 43.754c.672 3.665 3.868 6.229 7.465 6.229.455 0 .916-.042 1.38-.127 4.128-.758 6.86-4.717 6.102-8.845l-8.026-43.753c-.704-3.845.032-7.796 2.076-11.128z"/><path d="m339.818 121.033c-13.647-26.131-28.71-42.319-29.344-42.995-2.133-2.273-5.436-3.013-8.337-1.866-2.899 1.147-4.802 3.948-4.802 7.066 0 19.634-9.899 38.727-19.358 52.492 1.34-26.803-4.712-55.396-17.958-84.112-13.471-29.205-29.455-48.151-30.129-48.944-2.235-2.629-5.962-3.416-9.075-1.924-3.111 1.493-4.826 4.901-4.173 8.291.142.737 13.652 74.141-31.075 118.867-8.534 8.535-15.928 18.169-21.973 28.636-4.726 8.181-8.304 16.874-10.634 25.838-1.056 4.062 1.381 8.211 5.443 9.266 4.065 1.056 8.21-1.382 9.266-5.443 1.986-7.64 5.042-15.062 9.085-22.058 5.383-9.319 11.965-17.895 19.562-25.492 31.995-31.995 37.859-75.291 37.693-103.578 4.016 6.619 8.342 14.479 12.385 23.284 11.411 24.865 22.856 62.678 12.569 101.619-.871 3.3.563 6.776 3.51 8.499 2.944 1.722 6.679 1.271 9.129-1.105 1.427-1.385 30.247-29.717 38.651-65.296 15.853 22.004 42.606 68.221 34.435 120.858-3.574 23.034-15.962 43.403-34.879 57.353-18.88 13.924-42.093 19.891-65.357 16.809l-1.277-.169c-21.862-2.897-41.798-13.614-56.136-30.177-13.868-16.02-21.726-36.328-22.125-57.185-.081-4.196-3.547-7.541-7.744-7.452-4.197.08-7.533 3.547-7.452 7.743.468 24.402 9.641 48.14 25.83 66.841 16.774 19.375 40.081 31.909 65.626 35.294l1.277.169c4.68.62 9.357.927 14.007.927 22.368 0 44.105-7.1 62.37-20.57 22.164-16.346 36.681-40.23 40.875-67.252 5.178-33.366-1.698-69.409-19.885-104.234z"/><path d="m256.075 171.754c-31.842 0-57.747 25.905-57.747 57.748 0 31.841 25.904 57.747 57.747 57.747s57.748-25.905 57.748-57.747c0-31.843-25.906-57.748-57.748-57.748zm0 100.297c-23.462 0-42.55-19.088-42.55-42.55 0-23.463 19.088-42.551 42.55-42.551 23.463 0 42.551 19.088 42.551 42.551-.001 23.462-19.088 42.55-42.551 42.55z"/></g></svg>