<svg enable-background="new 0 0 512.001 512.001" height="512" viewBox="0 0 512.001 512.001" width="512" xmlns="http://www.w3.org/2000/svg"><g fill="#fff"><path d="m242.424 369.901-4.707-4.707 2.853-2.853c2.981-2.981 2.981-7.814 0-10.794-2.981-2.981-7.814-2.981-10.794 0l-2.853 2.853-12.844-12.844 2.853-2.853c2.981-2.981 2.981-7.814 0-10.794-2.981-2.981-7.814-2.981-10.794 0l-2.853 2.853-12.844-12.844 2.853-2.853c2.981-2.981 2.981-7.814 0-10.794-2.981-2.982-7.814-2.981-10.794 0l-2.853 2.853-12.847-12.846 2.853-2.853c2.981-2.981 2.981-7.814 0-10.794-2.981-2.982-7.814-2.981-10.794 0l-2.853 2.853-1.12-1.12c-5.523-5.522-14.51-5.522-20.033 0l-39.009 39.009c-2.676 2.676-4.149 6.233-4.149 10.016 0 3.784 1.473 7.341 4.149 10.016l1.12 1.12-3.996 3.996c-2.981 2.981-2.981 7.813 0 10.794 1.49 1.491 3.444 2.236 5.397 2.236s3.907-.745 5.397-2.236l3.996-3.996 12.844 12.844-3.996 3.996c-2.981 2.981-2.981 7.814 0 10.794 1.49 1.49 3.444 2.236 5.397 2.236s3.907-.745 5.397-2.236l3.996-3.996 12.844 12.843-3.996 3.996c-2.981 2.981-2.981 7.814 0 10.794 1.49 1.49 3.444 2.236 5.397 2.236s3.907-.745 5.397-2.236l3.996-3.996 12.844 12.844-3.996 3.996c-2.979 2.983-2.979 7.816.002 10.797 1.49 1.49 3.444 2.236 5.397 2.236s3.907-.745 5.397-2.236l3.996-3.996 4.708 4.708c2.761 2.761 6.389 4.141 10.016 4.141 3.628 0 7.255-1.381 10.017-4.142l39.008-39.009c2.676-2.676 4.149-6.233 4.149-10.017s-1.473-7.34-4.148-10.015zm-49.021 47.471-32.968-32.965-.001-.001-.001-.001-23.635-23.635c-.001-.001-.002-.002-.002-.003-.001-.001-.002-.002-.003-.002l-29.375-29.375 37.453-37.453 5.739 5.739s0 0 .001.001h.001l23.638 23.638s0 0 .001.001h.001l56.603 56.603z"/><path d="m336.253 276.07-4.707-4.707 2.853-2.853c2.981-2.981 2.981-7.814 0-10.794-2.981-2.981-7.814-2.981-10.794 0l-2.853 2.853-12.844-12.844 2.853-2.853c2.981-2.981 2.981-7.814 0-10.794-2.981-2.982-7.814-2.981-10.794 0l-2.853 2.853-12.844-12.844 2.853-2.853c2.981-2.981 2.981-7.814 0-10.794-2.981-2.982-7.814-2.981-10.794 0l-2.853 2.853-12.844-12.844 2.852-2.852c2.981-2.981 2.981-7.814 0-10.794-2.981-2.981-7.814-2.981-10.794 0l-2.852 2.852-1.12-1.12c-5.523-5.522-14.51-5.522-20.033 0l-39.009 39.009c-2.676 2.676-4.149 6.233-4.149 10.016 0 3.784 1.473 7.341 4.149 10.016l1.12 1.12-3.996 3.996c-2.981 2.981-2.981 7.813 0 10.794 1.49 1.491 3.444 2.236 5.397 2.236s3.907-.745 5.397-2.236l3.996-3.996 12.844 12.844-3.996 3.996c-2.981 2.981-2.981 7.814 0 10.794 1.49 1.49 3.444 2.236 5.397 2.236s3.907-.745 5.397-2.236l3.996-3.996 12.844 12.844-3.996 3.996c-2.981 2.981-2.981 7.814 0 10.794 1.49 1.49 3.444 2.236 5.397 2.236s3.907-.745 5.397-2.236l3.996-3.996 12.844 12.844-3.996 3.996c-2.98 2.981-2.98 7.815.001 10.795 1.49 1.49 3.444 2.236 5.397 2.236s3.907-.745 5.397-2.236l3.996-3.996 4.707 4.707c2.676 2.676 6.233 4.149 10.016 4.149 3.784 0 7.341-1.473 10.016-4.149l39.009-39.009c2.676-2.676 4.149-6.233 4.149-10.017s-1.472-7.341-4.149-10.016zm-49.02 47.474-9.322-9.322c-.001-.001-.003-.003-.004-.004s-.003-.003-.005-.004l-23.633-23.635c-.001-.001-.003-.003-.004-.004s-.003-.003-.005-.004l-23.63-23.63c-.001-.001-.003-.003-.004-.004s-.003-.003-.005-.004l-29.373-29.373 37.453-37.453 5.739 5.738s0 0 .001.001c0 0 0 0 .001.001l23.638 23.638s0 0 .001.001 0 0 .001.001l23.638 23.638s0 0 .001.001c0 0 0 0 .001.001l32.964 32.964z"/><path d="m430.083 182.24-4.707-4.707 2.853-2.853c2.981-2.981 2.981-7.813 0-10.794-2.98-2.981-7.813-2.981-10.794 0l-2.853 2.853-12.844-12.844 2.853-2.853c2.981-2.981 2.981-7.814 0-10.794-2.981-2.982-7.814-2.981-10.794 0l-2.853 2.853-12.844-12.845 2.853-2.853c2.981-2.981 2.981-7.814 0-10.794-2.981-2.982-7.814-2.981-10.794 0l-2.853 2.853-12.844-12.844 2.852-2.852c2.981-2.981 2.981-7.814 0-10.794-2.981-2.981-7.814-2.981-10.794 0l-2.852 2.852-1.12-1.12c-5.523-5.522-14.51-5.522-20.033 0l-39.01 39.01c-5.522 5.523-5.522 14.51.001 20.032l1.12 1.12-3.996 3.996c-2.981 2.981-2.981 7.813 0 10.794 1.49 1.491 3.444 2.236 5.397 2.236s3.907-.745 5.397-2.236l3.996-3.996 12.844 12.844-3.996 3.996c-2.981 2.981-2.981 7.813 0 10.794 1.49 1.491 3.444 2.236 5.397 2.236s3.907-.745 5.397-2.236l3.996-3.996 12.844 12.844-3.996 3.996c-2.981 2.981-2.981 7.814 0 10.794 1.49 1.49 3.444 2.236 5.397 2.236s3.907-.745 5.397-2.236l3.996-3.996 12.844 12.844-3.996 3.996c-2.98 2.981-2.98 7.814.001 10.795 1.49 1.49 3.444 2.236 5.397 2.236s3.907-.745 5.397-2.236l3.996-3.996 4.707 4.707c2.676 2.676 6.233 4.149 10.016 4.149 3.784 0 7.341-1.473 10.016-4.149l39.009-39.009c2.676-2.676 4.149-6.233 4.149-10.017s-1.472-7.341-4.149-10.016zm-49.019 47.473-9.322-9.322c-.001-.001-.003-.003-.004-.004s-.003-.003-.005-.004l-23.634-23.634c-.001-.001-.003-.003-.004-.004s-.003-.003-.005-.004l-53.012-53.012 37.453-37.453 5.739 5.739s0 0 .001.001h.001l23.638 23.638s0 0 .001.001 0 0 .001.001l23.638 23.638s0 0 .001.001 0 0 .001.001l23.637 23.637s0 0 .001.001h.001l9.326 9.326z"/><path d="m507.698 167.063-65.206-65.206c-2.981-2.981-7.814-2.981-10.794 0l-6.208 6.208c-2.417 2.417-6.35 2.417-8.767 0s-2.417-6.349 0-8.766l6.208-6.208c1.432-1.431 2.236-3.373 2.236-5.397s-.804-3.966-2.236-5.397l-65.206-65.205c-5.728-5.729-15.049-5.728-20.776 0l-6.346 6.346-18.973-18.974c-5.949-5.949-15.63-5.951-21.58 0l-285.588 285.587c-5.95 5.95-5.95 15.631 0 21.581l18.972 18.972-6.347 6.346c-2.775 2.775-4.303 6.464-4.303 10.388s1.528 7.614 4.303 10.388l65.206 65.206c1.432 1.432 3.373 2.236 5.397 2.236s3.966-.804 5.398-2.236l6.207-6.208c1.171-1.171 2.728-1.816 4.383-1.816s3.213.645 4.383 1.816c1.171 1.171 1.815 2.728 1.815 4.383s-.645 3.213-1.816 4.383l-6.208 6.208c-2.981 2.981-2.98 7.814 0 10.794l65.205 65.205c2.775 2.775 6.464 4.303 10.388 4.303s7.614-1.528 10.388-4.303l228.608-228.608c2.981-2.981 2.981-7.814 0-10.794-2.981-2.981-7.814-2.981-10.794 0l-228.199 228.202-59.401-59.401.811-.811c8.369-8.369 8.369-21.987 0-30.356-4.054-4.054-9.444-6.287-15.178-6.287s-11.124 2.233-15.178 6.287l-.811.811-59.401-59.401 11.334-11.334c.001-.001.002-.002.004-.003.001-.001.002-.002.003-.004l26.148-26.148c2.981-2.981 2.981-7.814 0-10.794-2.98-2.981-7.813-2.981-10.794 0l-20.755 20.754-18.972-18.965 9.59-9.59 8.475 8.475c1.49 1.49 3.444 2.236 5.397 2.236s3.907-.745 5.397-2.236c2.981-2.981 2.981-7.814 0-10.794l-8.475-8.475 14.766-14.767 8.475 8.475c1.49 1.49 3.444 2.236 5.397 2.236s3.907-.745 5.397-2.236c2.981-2.981 2.981-7.814 0-10.794l-8.475-8.475 14.767-14.767 8.476 8.476c1.49 1.49 3.444 2.236 5.397 2.236s3.907-.745 5.397-2.236c2.981-2.981 2.981-7.814 0-10.794l-8.476-8.476 14.766-14.767 8.476 8.476c1.49 1.49 3.444 2.236 5.397 2.236s3.907-.745 5.397-2.236c2.981-2.981 2.981-7.814 0-10.794l-8.476-8.476 14.767-14.767 8.476 8.476c1.49 1.491 3.444 2.236 5.397 2.236s3.907-.745 5.397-2.236c2.981-2.981 2.981-7.814 0-10.794l-8.476-8.476 14.767-14.767 8.477 8.477c1.49 1.49 3.444 2.236 5.397 2.236s3.907-.745 5.397-2.236c2.981-2.981 2.981-7.814 0-10.794l-8.477-8.477 14.766-14.767 8.477 8.477c1.49 1.49 3.444 2.236 5.397 2.236s3.907-.745 5.397-2.236c2.981-2.981 2.981-7.814 0-10.794l-8.477-8.477 14.767-14.767 8.477 8.478c1.49 1.49 3.444 2.236 5.397 2.236s3.907-.745 5.397-2.236c2.981-2.981 2.981-7.814 0-10.794l-8.478-8.478 14.767-14.767 8.477 8.478c1.49 1.491 3.444 2.236 5.397 2.236s3.907-.745 5.397-2.236c2.981-2.981 2.981-7.813 0-10.794l-8.478-8.478 14.767-14.767 8.478 8.478c1.49 1.49 3.444 2.236 5.397 2.236s3.907-.745 5.397-2.236c2.981-2.981 2.981-7.814 0-10.794l-8.478-8.478 14.767-14.767 8.479 8.479c1.49 1.49 3.444 2.236 5.397 2.236s3.907-.745 5.397-2.236c2.981-2.981 2.981-7.814 0-10.794l-8.479-8.479 9.586-9.586 18.973 18.973-236.037 236.032c-2.981 2.981-2.981 7.814 0 10.794 1.49 1.49 3.444 2.236 5.397 2.236s3.907-.745 5.397-2.236l252.775-252.772 59.402 59.401-.811.811c-8.369 8.369-8.369 21.986 0 30.355 4.054 4.055 9.444 6.287 15.178 6.287s11.124-2.232 15.178-6.287l.811-.811 59.402 59.402-62.06 62.06c-2.981 2.981-2.981 7.814 0 10.794 2.981 2.981 7.814 2.981 10.794 0l62.466-62.466c2.775-2.774 4.303-6.464 4.303-10.388-.001-3.924-1.529-7.613-4.303-10.387z"/></g></svg>