<svg enable-background="new 0 0 512.001 512.001" height="512" viewBox="0 0 512.001 512.001" width="512" xmlns="http://www.w3.org/2000/svg"><g fill="#fff"><path d="m466.395 88.411c-70.445-19.302-141.304-49.357-204.917-86.915-3.379-1.995-7.572-1.995-10.95 0-65.448 38.637-132.478 67.066-204.923 86.915-4.68 1.281-7.924 5.535-7.924 10.388v110.046c0 113.323 52.279 188.335 96.137 231.306 47.216 46.265 102.216 71.85 122.185 71.85 19.967 0 74.967-25.585 122.183-71.85 43.857-42.97 96.133-117.982 96.133-231.306v-110.047c0-4.852-3.244-9.106-7.924-10.387zm-13.616 120.433c0 105.843-48.761 175.838-89.669 215.92-46.431 45.495-96.074 65.695-107.107 65.695s-60.679-20.2-107.111-65.695c-40.907-40.083-89.67-110.077-89.67-215.92v-101.87c69.278-19.67 133.796-47.121 196.783-83.724 61.414 35.632 129.151 64.448 196.774 83.72z"/><path d="m160.538 105.769c-2.18-5.535-8.433-8.254-13.969-6.073-19.24 7.581-38.988 14.559-58.695 20.741-4.491 1.41-7.547 5.57-7.547 10.276v41.591c0 5.948 4.823 10.77 10.77 10.77s10.77-4.822 10.77-10.77v-33.72c17.679-5.72 35.339-12.047 52.598-18.848 5.535-2.179 8.254-8.432 6.073-13.967z"/><path d="m180.997 107.812c1.445 0 2.912-.291 4.319-.905l.198-.086c5.449-2.388 7.903-8.731 5.515-14.178-2.39-5.449-8.769-7.914-14.212-5.528l-.174.075c-5.452 2.381-7.914 8.719-5.533 14.169 1.767 4.046 5.732 6.453 9.887 6.453z"/><path d="m384.322 347.283c-4.977-3.253-11.651-1.854-14.908 3.125-8.875 13.584-19.287 26.592-30.951 38.659-9.592 9.922-19.986 19.17-30.893 27.485-4.729 3.606-5.639 10.364-2.034 15.095 2.121 2.779 5.328 4.241 8.572 4.241 2.278 0 4.573-.719 6.523-2.207 11.765-8.971 22.975-18.944 33.317-29.642 12.611-13.044 23.881-27.124 33.499-41.849 3.255-4.98 1.854-11.654-3.125-14.907z"/><path d="m282.558 433.443-.618.364c-5.147 2.981-6.906 9.569-3.926 14.716 1.997 3.45 5.612 5.376 9.331 5.376 1.83 0 3.688-.467 5.385-1.452l.713-.419c5.133-3.006 6.857-9.603 3.851-14.736-3.008-5.131-9.606-6.852-14.736-3.849z"/><path d="m182.589 234.019c-6.613-6.614-15.408-10.254-24.762-10.254s-18.15 3.641-24.766 10.254c-13.653 13.656-13.653 35.876 0 49.531l63.596 63.594c6.614 6.612 15.409 10.253 24.764 10.253s18.15-3.641 24.765-10.255l132.761-132.762c13.652-13.659 13.652-35.876-.002-49.527-6.614-6.614-15.409-10.254-24.765-10.254-9.355 0-18.15 3.641-24.765 10.254l-107.995 107.995zm162.058-53.934c2.545-2.545 5.932-3.946 9.534-3.946 3.604 0 6.988 1.401 9.535 3.946 5.255 5.255 5.255 13.809-.002 19.066l-132.759 132.76c-2.545 2.545-5.932 3.946-9.534 3.946s-6.989-1.401-9.535-3.946l-63.594-63.592c-5.257-5.257-5.257-13.811-.002-19.066 2.546-2.545 5.933-3.948 9.536-3.948s6.988 1.401 9.533 3.946l46.445 46.446c2.021 2.019 4.759 3.154 7.616 3.154s5.595-1.134 7.614-3.154z"/></g></svg>