<svg enable-background="new 0 0 511.999 511.999" height="512" viewBox="0 0 511.999 511.999" width="512" xmlns="http://www.w3.org/2000/svg"><g fill="#fff"><path d="m151.337 119.814c-4.202 0-7.608 3.406-7.608 7.608v19.78c0 4.202 3.406 7.608 7.608 7.608s7.608-3.406 7.608-7.608v-19.78c0-4.202-3.406-7.608-7.608-7.608z"/><path d="m151.337 173.067c-4.202 0-7.608 3.406-7.608 7.608v19.78c0 4.202 3.406 7.608 7.608 7.608s7.608-3.406 7.608-7.608v-19.78c0-4.202-3.406-7.608-7.608-7.608z"/><path d="m187.853 156.33h-19.78c-4.202 0-7.608 3.406-7.608 7.608s3.406 7.608 7.608 7.608h19.78c4.202 0 7.608-3.406 7.608-7.608s-3.406-7.608-7.608-7.608z"/><path d="m134.601 156.33h-19.78c-4.202 0-7.608 3.406-7.608 7.608s3.406 7.608 7.608 7.608h19.78c4.202 0 7.608-3.406 7.608-7.608s-3.407-7.608-7.608-7.608z"/><path d="m48.528 405.107c-4.202 0-7.608 3.406-7.608 7.608v19.78c0 4.202 3.406 7.608 7.608 7.608s7.608-3.406 7.608-7.608v-19.78c-.001-4.202-3.407-7.608-7.608-7.608z"/><path d="m48.528 458.36c-4.202 0-7.608 3.406-7.608 7.608v19.78c0 4.202 3.406 7.608 7.608 7.608s7.608-3.406 7.608-7.608v-19.78c-.001-4.202-3.407-7.608-7.608-7.608z"/><path d="m85.044 441.624h-19.78c-4.202 0-7.608 3.406-7.608 7.608s3.406 7.608 7.608 7.608h19.78c4.202 0 7.608-3.406 7.608-7.608s-3.407-7.608-7.608-7.608z"/><path d="m31.791 441.624h-19.78c-4.202 0-7.608 3.406-7.608 7.608s3.406 7.608 7.608 7.608h19.78c4.202 0 7.608-3.406 7.608-7.608s-3.406-7.608-7.608-7.608z"/><path d="m263.026 386.511-16.02-3.248c-12.82-2.599-22.782-12.561-25.381-25.381l-3.248-16.019c-1.405-6.929-7.324-11.769-14.394-11.769s-12.989 4.84-14.394 11.769l-3.248 16.019c-2.599 12.82-12.561 22.782-25.381 25.381l-16.019 3.248c-6.929 1.405-11.769 7.323-11.769 14.393s4.84 12.989 11.769 14.394l16.019 3.248c12.82 2.599 22.782 12.561 25.381 25.381l3.248 16.019c1.405 6.929 7.324 11.769 14.394 11.769s12.989-4.84 14.394-11.769l3.248-16.019c2.599-12.82 12.561-22.782 25.381-25.381l16.02-3.248c6.929-1.405 11.769-7.325 11.769-14.394 0-7.07-4.84-12.988-11.769-14.393zm-19.044 17.124c-18.824 3.817-33.454 18.447-37.271 37.271l-2.73 13.459-2.729-13.459c-3.817-18.824-18.447-33.454-37.271-37.271l-13.459-2.73 13.459-2.729c18.824-3.817 33.454-18.447 37.271-37.271l2.731-13.459 2.728 13.459c3.817 18.824 18.447 33.454 37.271 37.271l13.459 2.731z"/><path d="m155.324 284.218-19.399-3.933c-16.157-3.275-28.713-15.832-31.989-31.99l-3.933-19.399c-1.548-7.633-8.068-12.965-15.857-12.965s-14.31 5.331-15.858 12.965l-3.933 19.399c-3.275 16.157-15.832 28.714-31.989 31.99l-19.4 3.933c-7.635 1.548-12.966 8.069-12.966 15.859 0 7.789 5.331 14.31 12.965 15.858l19.4 3.933c16.157 3.275 28.713 15.832 31.989 31.989l3.933 19.399c1.548 7.633 8.068 12.965 15.858 12.965 7.789 0 14.309-5.332 15.857-12.965l3.933-19.399c3.276-16.157 15.832-28.713 31.989-31.989l19.4-3.934c7.633-1.548 12.965-8.068 12.965-15.858s-5.332-14.311-12.965-15.858zm-3.024 16.804-19.399 3.933c-22.162 4.493-39.385 21.716-43.879 43.879l-3.933 19.399c-.073.362-.156.773-.944.773s-.871-.411-.945-.773l-3.933-19.399c-4.494-22.162-21.716-39.385-43.879-43.879l-19.4-3.933c-.362-.074-.772-.157-.772-.945s.41-.871.772-.945l19.4-3.933c22.162-4.494 39.385-21.717 43.879-43.879l3.933-19.399c.073-.362.156-.772.945-.772.788 0 .871.41.944.772l3.933 19.399c4.494 22.162 21.716 39.386 43.878 43.879l19.399 3.933c.362.073.773.156.773.945.001.789-.41.871-.772.945z"/><path d="m505.182 94.827c-4.173-.438-7.92 2.597-8.358 6.776-2.814 26.932-14.909 52.308-34.055 71.455l-97.16 97.16c-4.898 4.897-12.868 4.897-17.766 0-4.897-4.898-4.897-12.868 0-17.765l62.424-62.424c1.485-1.485 2.229-3.433 2.229-5.379s-.742-3.894-2.229-5.379c-2.971-2.971-7.789-2.971-10.759 0l-91.306 91.306c-2.373 2.373-5.527 3.679-8.883 3.679s-6.51-1.307-8.883-3.679c-2.373-2.373-3.679-5.527-3.679-8.883s1.307-6.509 3.679-8.882l85.336-85.336c2.971-2.971 2.971-7.789 0-10.759-2.971-2.971-7.789-2.971-10.759 0l-107.577 107.577c-2.373 2.373-5.527 3.679-8.883 3.679s-6.509-1.307-8.882-3.679c-4.898-4.898-4.898-12.868 0-17.766l17.929-17.928c.01-.011.021-.021.032-.032l94.258-94.258c1.485-1.485 2.229-3.433 2.229-5.379 0-1.947-.743-3.894-2.229-5.379-2.971-2.971-7.789-2.971-10.759 0l-94.258 94.258c-4.898 4.898-12.868 4.898-17.766 0s-4.898-12.868 0-17.766l117.667-117.669c14.206 27.472 42.582 44.023 72.462 44.023 9.74 0 19.645-1.76 29.262-5.473 3.92-1.513 5.87-5.917 4.357-9.838s-5.919-5.87-9.838-4.357c-34.1 13.166-72.553-3.868-85.719-37.97-.553-1.431-1.493-2.596-2.652-3.429-1.411-1.907-3.647-3.091-6.089-3.095l-55.91-.089c-7.799-.012-14.135-6.367-14.121-14.166.012-7.79 6.357-14.122 14.145-14.122h.013l133.475.126h.007c4.199 0 7.604-3.402 7.608-7.601.004-4.202-3.399-7.611-7.601-7.615l-133.476-.126c-.01 0-.017 0-.027 0-16.165 0-29.334 13.144-29.361 29.314-.025 16.19 13.124 29.381 29.313 29.406l37.584.06-111.858 111.86c-10.831 10.831-10.831 28.454 0 39.284 3.194 3.194 6.98 5.447 11.008 6.757l-.444.444c-5.246 5.246-8.136 12.222-8.136 19.642 0 7.419 2.889 14.395 8.136 19.642 5.246 5.246 12.222 8.136 19.642 8.136s14.395-2.889 19.642-8.136l4.711-4.711c1.337 4.1 3.633 7.856 6.77 10.995 5.415 5.415 12.529 8.123 19.642 8.123s14.227-2.707 19.642-8.123l11.353-11.353c1.337 4.1 3.633 7.856 6.77 10.994 10.831 10.831 28.454 10.831 39.284 0l97.16-97.16c21.607-21.606 35.254-50.242 38.43-80.633.437-4.179-2.597-7.92-6.776-8.357z"/><path d="m251.733 333.781c-3.02 2.442-3.647 6.903-1.523 10.125 3.759 5.711 12.82 3.59 13.852-3.105 1.043-6.764-7.091-11.255-12.329-7.02z"/><path d="m138.8 461.737c-1.16-2.811-3.984-4.699-7.029-4.699-3.188 0-6.077 2.058-7.158 5.045-1.055 2.918-.16 6.296 2.189 8.318 2.613 2.247 6.482 2.443 9.312.482 2.921-2.024 3.995-5.865 2.686-9.146z"/><path d="m193.475 252.904c-5.665-3.73-13.291 1.531-11.602 8.174.797 3.138 3.58 5.512 6.821 5.733 3.252.222 6.325-1.665 7.582-4.676 1.372-3.291.186-7.265-2.801-9.231z"/><path d="m142.665 338.499c-1.767-2.587-4.978-3.893-8.044-3.178-3.147.733-5.527 3.437-5.855 6.659-.687 6.742 7.552 10.911 12.609 6.449 2.821-2.49 3.355-6.796 1.29-9.93z"/></g></svg>