<svg width="48" height="48" viewBox="0 0 48 48" xmlns="http://www.w3.org/2000/svg"><title>Menu Icon</title><g fill="none" fill-rule="evenodd"><path d="M20.165 12.626c-3.3 0-5.211 1.199-5.211 7.326 0 6.128 1.91 7.327 5.211 7.327 3.27 0 5.163-1.199 5.163-7.327 0-6.127-1.893-7.326-5.163-7.326zm0 16.544c-4.979 0-7.103-2.756-7.103-9.218 0-6.46 2.124-9.218 7.103-9.218 6.216 0 7.054 4.66 7.054 9.218 0 3.259-.505 5.46-1.59 6.93-1.137 1.54-2.924 2.288-5.464 2.288zM9.214 11.347H7.433L3.438 14.34l1.304 1.432c.266-.187 2.528-1.912 2.528-1.912v15.026h1.944v-17.54z" fill="#143057"/><path d="M36.05 20.162c-.283.415.26 1.317.26 1.317s1.035.18 1.318-.235l3.857-5.654h-2.318l-3.117 4.572" fill="#EFBC1B"/><path d="M33.513 21.244c.283.416 1.317.235 1.317.235s.544-.902.26-1.317l-3.116-4.572h-2.318l3.857 5.654" fill="#71BE4B"/><path d="M41.849 28.886l-4.221-6.188c-.283-.415-1.318-.234-1.318-.234s-.543.901-.26 1.316l3.488 5.116h2.276l.035-.01z" fill="#00A1DF"/><path d="M35.09 23.78c.284-.415-.26-1.316-.26-1.316s-1.034-.181-1.317.234l-4.221 6.188.035.01h2.276l3.488-5.116" fill="#E84B50"/><path d="M4.063 35.45v-1.836c0-1.204.914-1.95 2.095-1.95 1.067 0 1.988.563 1.988 1.637v.23h-.708v-.146c0-.723-.587-1.059-1.288-1.059-.7 0-1.34.427-1.34 1.265v1.798c0 .769.594 1.233 1.379 1.233.693 0 1.264-.373 1.264-1.096v-.45H5.991v-.67h2.17v1.204c0 1.089-.883 1.683-1.972 1.683-1.166 0-2.126-.648-2.126-1.844" fill="#143057"/><path fill="#143057" d="M9.4327748 31.7553071L13.0129323 31.7553071 13.0129323 32.4178583 10.1792315 32.4178583 10.1792315 34.0708346 12.6015307 34.0708346 12.6015307 34.7260157 10.1792315 34.7260157 10.1792315 36.5311181 13.0357984 36.5311181 13.0357984 37.1938583 9.4327748 37.1938583z"/><path fill="#143057" d="M14.2538457 31.7553071L14.9927433 31.7553071 17.643515 35.9065512 17.658822 35.9065512 17.658822 31.7553071 18.3746646 31.7553071 18.3746646 37.1938583 17.643515 37.1938583 14.9774362 33.0044409 14.9623181 33.0044409 14.9623181 37.1938583 14.2538457 37.1938583z"/><path d="M23.097 35.358v-1.813c0-.77-.594-1.218-1.394-1.218-.7 0-1.34.434-1.34 1.287v1.775c0 .769.593 1.234 1.378 1.234.693 0 1.356-.412 1.356-1.265m-3.481.092v-1.813c0-1.25.998-1.973 2.102-1.973 1.166 0 2.118.716 2.118 1.912v1.736c0 1.25-.99 1.98-2.095 1.98-1.15 0-2.125-.647-2.125-1.842" fill="#143057"/><path fill="#143057" d="M25.0841953 31.7628661L25.998274 31.7628661 27.5979591 35.1143622 27.6132661 35.1143622 29.174589 31.7628661 30.0964157 31.7628661 30.0964157 37.1938583 29.3726362 37.1938583 29.3726362 33.0805984 29.3573291 33.0805984 27.8872819 36.1503307 27.2931402 36.1503307 25.8230929 33.0959055 25.8002268 33.0959055 25.8002268 37.1938583 25.0841953 37.1938583z"/><path fill="#143057" d="M31.3897323 37.1937638L32.143748 37.1937638 32.143748 31.7627717 31.3897323 31.7627717z"/><path d="M33.371 35.45v-1.836c0-1.204.914-1.95 2.102-1.95 1.067 0 1.98.61 1.98 1.683v.236h-.707v-.152c0-.724-.587-1.105-1.288-1.105-.7 0-1.34.427-1.34 1.265v1.798c0 .769.594 1.233 1.378 1.233.693 0 1.25-.38 1.25-1.104v-.099h.708v.19c0 1.09-.891 1.684-1.958 1.684-1.165 0-2.125-.648-2.125-1.844m4.912.519l.679-.26c.213.587.746.922 1.44.922.662 0 1.218-.305 1.218-.891 0-.518-.35-.739-.808-.876l-.99-.266c-.746-.206-1.234-.58-1.234-1.417 0-.937.785-1.516 1.79-1.516.861 0 1.607.335 1.874 1.074l-.647.259c-.229-.465-.655-.7-1.242-.7-.518 0-1.044.25-1.044.822 0 .411.297.67.869.83l.998.274c.64.168 1.165.556 1.165 1.455 0 .952-.808 1.607-1.98 1.607-.99 0-1.828-.442-2.088-1.317m5.692-3.468c.11 0 .165-.047.165-.14 0-.092-.055-.137-.165-.137h-.212c-.012 0-.019.006-.019.018v.24c0 .013.007.02.02.02h.211zm-.377.561c-.022 0-.033-.011-.033-.033v-.932c0-.022.011-.033.033-.033h.377c.11 0 .195.026.255.077.059.052.09.125.09.22a.286.286 0 0 1-.053.173.295.295 0 0 1-.146.104l.203.391c.009.022.003.033-.02.033h-.131c-.019 0-.033-.011-.043-.033l-.188-.367h-.179c-.012 0-.019.006-.019.018v.35c0 .021-.01.032-.033.032h-.113zm.316.254a.75.75 0 0 0 .294-.056.701.701 0 0 0 .233-.158.767.767 0 0 0 .212-.534.767.767 0 0 0-.056-.297.714.714 0 0 0-.683-.448.75.75 0 0 0-.528.212.714.714 0 0 0-.155.236.767.767 0 0 0-.057.297.767.767 0 0 0 .212.534c.066.068.144.12.233.158a.75.75 0 0 0 .295.056zm0 .156a.884.884 0 0 1-.9-.904.914.914 0 0 1 .26-.641.88.88 0 0 1 .64-.26c.129 0 .248.024.358.07a.851.851 0 0 1 .473.477c.046.11.068.228.068.354a.924.924 0 0 1-.256.645.855.855 0 0 1-.285.19.926.926 0 0 1-.358.069z" fill="#143057"/></g></svg>