<?xml version="1.0" encoding="UTF-8"?>
<svg width="400px" height="200px" viewBox="0 0 400 200" version="1.1" xmlns="http://www.w3.org/2000/svg" xmlns:xlink="http://www.w3.org/1999/xlink">
    <title>1Password wordmark / Black, monochrome icon / 1P-wordmark</title>
    <g id="1Password-wordmark-/-Black,-monochrome-icon-/-1P-wordmark" stroke="none" stroke-width="1" fill="none" fill-rule="evenodd">
        <g id="Group-2" transform="translate(0.000000, 63.000000)" fill="#051627">
            <g id="Group" transform="translate(-0.000000, -0.000000)">
                <g id="zzz---document-symbol-/-1Password" transform="translate(-0.000000, -0.000000)">
                    <path d="M172.337347,18.5965475 C177.496926,18.5965475 182.547735,19.5248839 185.59053,20.3642808 L185.850896,20.4370058 L186.096035,19.1964361 L207.131992,19.1964361 L207.131992,26.0975604 L202.475812,26.5964369 L209.127498,49.9604841 L209.70952,49.9604841 L217.109521,20.2773351 L229.664579,20.2773351 L236.815141,49.9604841 L237.314018,49.9604841 L243.549973,26.5964369 L238.810647,26.0975604 L239.891546,19.1964361 L257.352222,19.1964361 L257.351054,23.8503557 C256.973707,24.5963712 256.623371,25.3583719 256.301335,26.1350718 L254.358963,26.5132908 C253.239689,26.6731871 252.735401,27.0637031 252.402599,28.0544215 L252.363457,28.1762123 L242.13649,62.5155416 L228.99941,62.5155416 L222.514016,34.6616062 L222.01514,34.6616062 L215.4466,62.5155416 L200.480306,62.5155416 L190.003901,28.0930662 C189.685174,27.1368864 189.290086,26.9443224 188.379557,26.7103958 L188.257833,26.6795829 L187.524586,26.5222761 L187.571763,26.7103062 L187.571763,33.0139884 L178.712724,32.4344944 L177.884556,28.1253498 C177.802918,27.4624693 177.636274,27.1314502 177.058072,26.9655195 L176.793796,26.8892669 C175.674445,26.5854084 173.822572,26.3026389 171.759144,26.3026389 C167.619147,26.3026389 165.300446,27.8768749 165.300446,30.528397 C165.300446,33.4257929 168.613579,34.3947962 172.721545,35.3368376 L175.494978,35.9680344 L175.878689,36.059248 C182.154775,37.5695501 188.814014,40.1216719 188.814014,49.3366845 C188.814014,59.4458231 180.618183,63.5881947 170.102809,63.5881947 C162.768113,63.5881947 155.59055,61.7035298 153.840203,60.6866886 L153.709463,60.6056534 L153.709463,48.5912597 L162.568502,49.2541402 L163.397511,53.9768482 L163.423379,54.1787864 C163.515447,54.7839719 163.716731,55.069857 164.390639,55.2192227 L164.584823,55.2812329 L164.805943,55.3459972 L165.053556,55.4126312 L165.338261,55.4828592 C166.532612,55.7645764 168.38936,56.0480339 170.766016,56.0480339 C175.152612,56.0480339 177.636274,54.8056594 177.636274,51.7397317 C177.636274,48.4796635 174.432139,47.4646399 170.309686,46.7220728 L168.424203,46.3823762 L167.62108,46.2300595 C161.16389,44.9727256 154.041909,42.6966298 154.041909,33.0973749 C154.041909,22.8231479 162.816784,18.5965475 172.337347,18.5965475 Z M136.716781,18.5965475 C143.002752,18.5965475 149.13551,19.9904086 151.621972,20.9058636 L151.8681,20.9995947 L151.8681,33.0139884 L143.057383,32.4344944 L142.233733,28.1253498 C142.152539,27.4624693 141.986805,27.1314502 141.411756,26.9655195 C140.341178,26.6345003 138.364919,26.3026389 136.141732,26.3026389 C132.024316,26.3026389 129.718262,27.8768749 129.718262,30.528397 C129.718262,33.475748 133.127927,34.4270028 137.310897,35.3852978 L139.269763,35.8314412 C145.774425,37.3222907 153.103576,39.6427937 153.103576,49.3366845 C153.103576,59.4449808 144.952449,63.5881947 134.494431,63.5881947 C127.832795,63.5881947 121.316196,62.0186721 118.908267,60.9709254 L118.793174,60.9198268 L118.793174,62.5934527 L103.641855,62.5934527 L102.817367,58.1192197 L102.406379,58.0366755 C99.2783485,61.1026033 95.1609329,63.5881947 88.5734027,63.5881947 C78.1999261,63.5881947 76.5517879,56.4632819 76.5517879,51.325326 C76.5517879,43.1225964 81.5561429,39.3050626 91.6428224,38.5863399 L101.418668,37.9034693 L101.418426,33.186496 L101.414261,32.7170558 L101.407843,32.4070487 L101.391393,31.9539213 L101.375073,31.6600231 C101.185041,28.7061181 100.231088,26.800431 95.9017161,26.800431 L95.3969222,26.8040324 L95.0723639,26.8110154 C91.7148862,26.906022 89.9458655,27.714814 89.892169,32.1415416 L89.8909087,32.3519502 L78.2802822,31.356366 C78.2802822,20.2834732 88.207774,18.62901 95.7565727,18.5970281 L95.9845834,18.5965475 C108.374899,18.5965475 113.421939,21.9275462 113.521641,33.2488057 L113.52315,33.5943248 L113.523425,53.8492984 L113.526216,54.0715969 L113.533297,54.2692444 L113.546896,54.4504767 C113.610527,55.071827 113.837423,55.2311897 114.618297,55.3531285 L114.840656,55.3851534 L118.190503,55.9469594 L118.190503,48.5912597 L127.00122,49.2541402 L127.825708,53.9768482 C127.906064,54.7222729 128.072635,55.0541343 128.813419,55.2192227 L129.006543,55.2812329 L129.226457,55.3459972 L129.472719,55.4126312 L129.755872,55.4828592 C130.943708,55.7645764 132.790328,56.0480339 135.154021,56.0480339 C139.51669,56.0480339 141.986805,54.8056594 141.986805,51.7397317 C141.986805,48.5883324 139.00905,47.5348026 135.107048,46.7973107 L132.799283,46.3775547 L132.001368,46.2251407 L131.42248,46.1089533 L130.858785,45.9900045 C124.776035,44.6714613 118.521135,42.1175484 118.521135,33.0973749 C118.521135,22.8231479 127.248148,18.5965475 136.716781,18.5965475 Z M394.324654,0 L394.327462,53.6902106 L394.334574,53.8821009 C394.374306,54.6028923 394.563355,54.7764767 395.401577,54.9079682 L399.525827,55.5151172 L399.525827,62.0028306 L384.409917,62.0028306 L383.597233,57.4039451 L383.028355,57.3218222 C379.615085,60.6888633 375.632937,62.988306 369.700348,62.988306 C360.110685,62.988306 353.934291,56.8290845 353.934291,41.1436002 C353.934291,24.6368863 362.142393,18.3955418 371.163178,18.3955418 C375.764514,18.3955418 379.359071,19.9607196 382.400454,22.1743283 L382.622013,22.3374436 L382.622013,9.85475453 C382.622013,9.07674759 382.330258,8.51985842 381.677647,8.25391367 L381.565525,8.21229544 L377.095767,6.65195931 L377.989718,0 L394.324654,0 Z M347.052642,17.9966589 C348.911355,17.9966589 352.566825,18.3091382 354.167743,18.7075494 L354.325868,18.7490616 L354.325868,33.9643159 L344.293832,33.6299147 L343.457829,29.1990989 C343.290629,28.4466962 343.039828,28.2794956 342.371025,28.2794956 C340.325277,28.2794956 337.909257,29.908689 336.586627,31.0064342 L336.351804,31.205506 L336.352203,53.5037822 C336.359363,54.6764495 336.474081,54.9348746 337.575904,55.0232889 L345.965838,55.7003935 L345.965838,62.3884174 L318.628541,62.3884174 L318.628541,55.6167932 L322.390554,55.1151914 C323.523203,54.9533844 323.716328,54.7132837 323.727609,53.5614399 L323.728159,28.948298 C323.728159,28.0704948 323.49964,27.4973837 322.75176,27.2289646 L322.641355,27.1926917 L318.173002,25.6192327 L318.136975,25.5366095 L319.046542,18.8326619 L333.760195,18.8326619 L334.763398,25.5206857 L335.265,25.5206857 C338.02381,21.2570705 341.702223,17.9966589 347.052642,17.9966589 Z M58.0457888,2.39955452 C73.4119254,2.39955452 78.0614481,10.5202036 78.0614481,20.048342 C78.0614481,34.3210419 69.5159405,40.1484494 55.7247307,40.2635703 L55.305213,40.2653132 L49.2423434,40.2653132 L49.2435863,53.7577445 L49.2483688,53.9676385 L49.2587965,54.160686 C49.3116556,54.8537726 49.5257696,55.0212458 50.3518077,55.1485966 L50.5721052,55.1799831 L62.4479336,55.8428761 L62.4479336,62.3884174 L29.8919871,62.3884174 L29.8918505,62.369221 L29.8556699,62.3884174 L0.964261426,62.3884174 L0.964261426,55.8714418 L8.04192848,55.2927888 C9.11816677,55.2160823 9.33278962,54.9238671 9.35662272,53.8795389 L9.35905403,53.6440468 L9.35905389,25.1548922 C9.35905389,23.9731869 8.47067219,24.1681598 2.28315845,26.2649231 L0,19.4997138 L14.1416148,11.397884 L21.7880666,11.397884 L21.788342,53.7646059 L21.7911322,53.9875484 L21.7982138,54.1873634 C21.840462,55.0050367 22.047711,55.2086876 22.9935798,55.2845722 L23.106029,55.2927888 L29.8556699,55.8714418 L29.8918505,55.889224 L29.8919871,55.8428761 L35.1240721,55.2625289 C36.2083698,55.1084435 36.42628,54.8817178 36.4505156,53.8413723 L36.4529897,53.6057177 L36.4529897,11.2656423 C36.4529897,10.0646577 36.2967785,9.71372597 35.2369623,9.61710167 L35.1240721,9.60798879 L29.8919871,9.0284839 L29.8919871,2.39955452 L58.0457888,2.39955452 Z M101.186052,44.3465625 L95.5878499,44.7572986 C90.7327276,45.0853866 89.0038958,46.3167602 89.0038958,49.6018144 C89.0038958,52.8877035 90.9795841,54.119077 93.6958417,54.119077 C96.4101215,54.119077 99.1244013,52.6511263 101.011578,51.2901734 L101.186052,51.1629456 L101.186052,44.3465625 Z M374.757966,27.9287772 C368.795284,27.9287772 366.419569,33.5124876 366.369167,40.7573019 L366.368346,40.9941296 C366.368346,49.0152636 368.64902,53.4806372 373.780534,53.4806372 C376.470798,53.4806372 379.391656,51.9199503 381.572416,50.087258 L381.762891,49.9248768 L381.762891,30.4095403 C379.726575,29.0037746 377.120092,27.9287772 374.757966,27.9287772 Z M53.9282732,11.4978568 L49.0706405,11.4978568 L49.0706405,31.2883258 L53.3500089,31.2879496 L53.6738957,31.2848649 L54.151546,31.2741141 L54.4609982,31.2628059 L54.9160674,31.2393089 C59.8192964,30.9393556 64.6284539,29.0788806 64.6284539,20.7769871 C64.6284539,12.8928569 59.7708213,11.4978568 53.9282732,11.4978568 Z" id="1Passw---rd"></path>
                </g>
            </g>
            <g id="Group" transform="translate(252.054795, 4.383562)" fill-rule="nonzero">
                <g id="1Password-logo-/-dark-grey-/-128px">
                    <path d="M35.0684932,0 C54.4363094,0 70.1369863,15.7006769 70.1369863,35.0684932 C70.1369863,54.436914 54.4363094,70.1369863 35.0684932,70.1369863 C15.7006769,70.1369863 0,54.436914 0,35.0684932 C0,15.7006769 15.7006769,0 35.0684932,0 Z M35.0684932,3.28767123 C17.5164076,3.28767123 3.28767123,17.5164076 3.28767123,35.0684932 C3.28767123,52.6209657 17.51619,66.8493151 35.0684932,66.8493151 C52.6207963,66.8493151 66.8493151,52.6209657 66.8493151,35.0684932 C66.8493151,17.5164076 52.6205787,3.28767123 35.0684932,3.28767123 Z M35.0684932,8.76712329 C49.5942129,8.76712329 61.369863,20.5427734 61.369863,35.0684932 C61.369863,49.594583 49.5944135,61.369863 35.0684932,61.369863 C20.5425728,61.369863 8.76712329,49.594583 8.76712329,35.0684932 C8.76712329,20.5427734 20.5427734,8.76712329 35.0684932,8.76712329 Z M35.0684932,14.2465753 C23.5690106,14.2465753 14.2465753,23.5690106 14.2465753,35.0684932 C14.2465753,46.5685541 23.5690106,55.890411 35.0684932,55.890411 C46.5679757,55.890411 55.890411,46.5685541 55.890411,35.0684932 C55.890411,23.5690106 46.5679757,14.2465753 35.0684932,14.2465753 Z M38.4279067,20.2739726 C39.2961499,20.2739726 40,21.0579919 40,22.0251288 L40,36.1312217 C40,36.4408454 39.8895795,36.7377877 39.6930297,36.9567247 L38.7104714,38.0511973 C38.3011777,38.50711 38.3011777,39.2462905 38.7104714,39.7022032 L39.6930297,40.7966758 C39.8895795,41.0156128 40,41.3125551 40,41.6221787 L40,48.1118575 C40,49.0789944 39.2961499,49.8630137 38.4279067,49.8630137 L31.7090796,49.8630137 C30.8408364,49.8630137 30.1369863,49.0789944 30.1369863,48.1118575 L30.1477574,34.5209316 C30.1477574,34.2113079 30.2581779,33.9143657 30.4547277,33.6954287 L31.437286,32.6009561 C31.8465797,32.1450434 31.8465797,31.4058629 31.437286,30.9499502 L30.4547277,29.8554776 C30.2581779,29.6365406 30.1477574,29.3395983 30.1369863,29.0464469 L30.1369863,22.0251288 C30.1369863,21.0579919 30.8408364,20.2739726 31.7090796,20.2739726 L38.4279067,20.2739726 Z" id="Combined-Shape"></path>
                </g>
            </g>
        </g>
    </g>
</svg>