<svg data-name="Layer 1" xmlns="http://www.w3.org/2000/svg" viewBox="0 0 600 228"><title>3dr</title><path d="M0 0L0 55.2 55.2 0 0 0z"/><path d="M434.4 228L489.6 228 434.4 172.8 434.4 228z"/><path d="M525.6 146.4c40.8 0 74.4-32.4 74.4-73.2S566.4 0 525.6 0h-92.4v36h92.4c20.4 0 37.2 16.8 37.2 36s-16.8 36-37.2 36h-92.4L546 226.8h51.6l-82.8-81.6h10.8v1.2zM102 81.6H91.2L174 0h-52.8L38.4 81.6l-37.2 36h99.6c20.4 0 37.2 16.8 37.2 36s-16.8 36-37.2 36H0v36h102c40.8 0 74.4-32.4 74.4-73.2S141.6 81.6 102 81.6zM277.2 0H204v36h74.4a77.84 77.84 0 0 1 78 78c0 43.2-36 78-79.2 78H240v-91.2h-37.2V228h74.4c63.6 0 115.2-51.6 115.2-114S340.8 0 277.2 0z"/></svg>