<?xml version="1.0" encoding="UTF-8"?>
<svg width="833px" height="849px" viewBox="0 0 833 849" version="1.1" xmlns="http://www.w3.org/2000/svg" xmlns:xlink="http://www.w3.org/1999/xlink">
    <!-- Generator: Sketch 48.2 (47327) - http://www.bohemiancoding.com/sketch -->
    <title>logo-blue</title>
    <desc>Created with Sketch.</desc>
    <defs></defs>
    <g id="Page-1" stroke="none" stroke-width="1" fill="none" fill-rule="evenodd">
        <g id="logo-blue">
            <g id="LOGO-1" transform="translate(39.000000, 59.000000)">
                <path d="M612.369105,114.413562 L576.683204,145.434842 C522.348894,96.0789965 450.18711,66 371,66 C202.000867,66 65,203.000867 65,372 C65,540.999133 202.000867,678 371,678 C539.999133,678 677,540.999133 677,372 C677,304.875792 655.387117,242.799544 618.740718,192.350622 L654.331925,161.411658 C698.098406,220.200325 724,293.075342 724,372 C724,566.956517 565.956517,725 371,725 C176.043483,725 18,566.956517 18,372 C18,177.043483 176.043483,19 371,19 C464.353205,19 549.242663,55.2376102 612.369105,114.413562 Z" id="Combined-Shape" fill="#063045"></path>
                <polygon id="Shape-Copy-2" fill="#063045" fill-rule="nonzero" points="139 466.537314 250.584767 226 307.44965 226 217.835406 418.606175 304.864883 418.606175 304.864883 358.575301 357 358.575301 357 527 304.864883 527 304.864883 466.537314"></polygon>
                <path d="M437.79471,526 L505.814052,425.006963 C501.078529,426.733186 495.051498,427.596298 488.593966,427.596298 C464.055342,427.596298 441.669229,418.102071 420.996156,399.545174 C400.332052,380.556721 390,355.949052 390,326.180696 C390,296.825914 400.762554,271.795681 421.857161,251.072014 C442.951767,230.357338 468.781897,220 498.495516,220 C529.491672,220 555.321802,230.357338 575.994875,250.640458 C596.658979,270.932569 607,295.962803 607,325.308594 C607,341.276157 603.12548,356.821155 595.797975,371.925606 C588.479438,386.607492 576.855879,406.027501 560.496797,430.617188 L497.634511,526 L437.79471,526 Z M554.900269,325.308594 C554.900269,309.772587 549.30374,296.394359 538.110684,285.605465 C527.34813,274.816571 514.002563,269.206346 498.495516,269.206346 C483.42794,269.206346 470.082372,274.816571 458.880347,285.605465 C448.117793,296.394359 442.521265,309.772587 442.521265,325.308594 C442.521265,340.853592 448.117793,354.23182 458.880347,365.45227 C470.073404,376.241164 483.418971,381.851388 498.495516,381.851388 C532.514156,381.851388 554.900269,357.684266 554.900269,325.308594 Z" id="Shape-Copy" fill="#063045" fill-rule="nonzero"></path>
                <rect id="Rectangle" x="0" y="0" width="746" height="746"></rect>
            </g>
        </g>
    </g>
</svg>