<svg height="849" viewBox="0 0 833 849" width="833" xmlns="http://www.w3.org/2000/svg"><g fill="none" fill-rule="evenodd" transform="translate(39 59)"><g fill="#063045"><path d="m612.369105 114.413562-35.685901 31.02128c-54.33431-49.3558455-126.496094-79.434842-205.683204-79.434842-168.999133 0-306 137.000867-306 306s137.000867 306 306 306 306-137.000867 306-306c0-67.124208-21.612883-129.200456-58.259282-179.649378l35.591207-30.938964c43.766481 58.788667 69.668075 131.663684 69.668075 210.588342 0 194.956517-158.043483 353-353 353s-353-158.043483-353-353 158.043483-353 353-353c93.353205 0 178.242663 36.2376102 241.369105 95.413562z"/><path d="m139 466.537314 111.584767-240.537314h56.864883l-89.614244 192.606175h87.029477v-60.030874h52.135117v168.424699h-52.135117v-60.462686z" fill-rule="nonzero"/><path d="m437.79471 526 68.019342-100.993037c-4.735523 1.726223-10.762554 2.589335-17.220086 2.589335-24.538624 0-46.924737-9.494227-67.59781-28.051124-20.664104-18.988453-30.996156-43.596122-30.996156-73.364478 0-29.354782 10.762554-54.385015 31.857161-75.108682 21.094606-20.714676 46.924736-31.072014 76.638355-31.072014 30.996156 0 56.826286 10.357338 77.499359 30.640458 20.664104 20.292111 31.005125 45.322345 31.005125 74.668136 0 15.967563-3.87452 31.512561-11.202025 46.617012-7.318537 14.681886-18.942096 34.101895-35.301178 58.691582l-62.862286 95.382812zm117.105559-200.691406c0-15.536007-5.596529-28.914235-16.789585-39.703129-10.762554-10.788894-24.108121-16.399119-39.615168-16.399119-15.067576 0-28.413144 5.610225-39.615169 16.399119-10.762554 10.788894-16.359082 24.167122-16.359082 39.703129 0 15.544998 5.596528 28.923226 16.359082 40.143676 11.193057 10.788894 24.538624 16.399118 39.615169 16.399118 34.01864 0 56.404753-24.167122 56.404753-56.542794z" fill-rule="nonzero"/></g><path d="m0 0h746v746h-746z"/></g></svg>