<svg xmlns="http://www.w3.org/2000/svg" viewBox="127.4 141 145.2 18"><path fill="#41454A" d="M155.7 157.8c-3.2 0-5-3.5-5-8.1 0-4.2 1.4-7.6 4.7-7.6 2.4 0 3.8 1.6 4.4 4.5h1.1v-4.2c-1.4-.9-3.3-1.4-5.5-1.4-5 0-9.1 3.7-9.1 9.4 0 5.2 3.5 8.6 9 8.6 2.4 0 4.5-.6 5.9-1.6l.4-4.8h-1.1c-.9 3.7-2.6 5.2-4.8 5.2zm24.4-.9l-6.3-15.8h-4.5l.8 2-5.3 13.8c-.2.7-.8.8-1.4.9v.9h5.2v-.9c-1.4-.1-2.2-.3-1.6-1.8.1-.1.5-1.2 1-2.6h6.4l.9 2.3c.1.4.2.7.2 1 0 .8-.7 1.1-2 1.1v.9h8.2v-.9c-.9-.1-1.4-.3-1.6-.9zm-11.6-5.2c1-2.5 2.1-5.4 2.5-6.5l2.6 6.5h-5.1zm22.8-10.5h-7.9v.9c1.7.2 1.9.4 1.9 1.7V156c0 1.3-.2 1.5-1.9 1.7v.9h8.4c5.5 0 9.3-3.3 9.3-9 .1-4.6-3.1-8.4-9.8-8.4zm.4 16.5h-.3c-1.2 0-1.8-.3-1.8-1.8v-13.6h1c4.1 0 6.2 3.3 6.2 7.9-.1 4.6-2.1 7.5-5.1 7.5zm20.7 0h-1.2c-1.5 0-2.1-.4-2.1-1.7v-5.7h2.8c1.1 0 1.5.6 1.7 2.3h1v-5.8h-1c-.2 1.6-.6 2.3-1.7 2.3h-2.8v-6.8h3.1c2.1 0 2.8.8 4.1 3.6h.8l-.1-4.7h-14v.9c1.7.2 1.9.4 1.9 1.7V156c0 1.3-.2 1.5-1.9 1.7v.9h14.2l.8-5.2h-1c-1.8 3.2-2.5 4.3-4.6 4.3zm28.2-1.4l-1.5-12.3c0-1.3.5-1.7 2.1-1.8v-1h-6.1c0 .3-.1.5-.1.7l-.3.8-3.6 10.3-3.8-10.2c-.2-.5-.4-1-.4-1.5h-6.3v.9c1.6.1 2.1.5 2.1 1.8l-1.6 12.3c-.1 1.1-.6 1.4-2.1 1.5v.9h5.9v-.9c-.4 0-.7-.1-1-.1-.6-.2-1.3-.8-1.1-2.3.2-1.9.9-7.2 1.2-9.3l4.7 12.7h2l4.3-12.5 1.2 9.3v.6c0 1.2-.6 1.5-2.4 1.6v.9h8.8v-.9c-1.3-.1-1.8-.3-2-1.5zm4.1-14.1c1.7.2 1.9.4 1.9 1.7v12.2c0 1.3-.2 1.5-1.9 1.7v.9h8.1v-.9c-1.7-.2-1.9-.4-1.9-1.7v-12.2c0-1.3.2-1.5 1.9-1.7v-1h-8.1v1zm-100.5 14.7l-6.3-15.8h-4.5l.8 2-5.4 13.8c-.2.7-.8.8-1.4.9v.9h5.2v-.9c-1.4-.1-2.2-.3-1.6-1.8.1-.1.5-1.2 1-2.6h6.4l.9 2.3c.1.4.2.7.2 1 0 .8-.7 1.1-2 1.1v.9h8.2v-.9c-.7-.1-1.3-.3-1.5-.9zm-11.6-5.2c1-2.5 2.1-5.4 2.5-6.5l2.6 6.5h-5.1zm139 5.8c-.3-.1-.4-.3-.6-.6l-6.3-15.7h-4.5l.8 2-5.3 13.8c-.2.7-.8.8-1.4.9v.9h5.2v-.9c-1.4-.1-2.2-.3-1.6-1.8.1-.1.5-1.2 1-2.6h6.4l.9 2.3c.1.4.2.7.2 1 0 .8-.7 1.1-2 1.1v.9h8.2v-.9c-.5-.2-.8-.2-1-.4zm-12.1-5.8c1-2.5 2.1-5.4 2.5-6.5l2.6 6.5h-5.1z"/></svg>