<svg clip-rule="evenodd" fill-rule="evenodd" height="17.6388mm" image-rendering="optimizeQuality" shape-rendering="geometricPrecision" text-rendering="geometricPrecision" viewBox="0 0 3881 1764" width="38.8054mm" xmlns="http://www.w3.org/2000/svg"><circle cx="799" cy="912" fill="#00a2e9" r="755"/><path d="m1879 706 34-18c31 61 66 110 104 146 42-38 76-88 103-150l36 19c-32 66-68 118-107 156 53 38 118 62 195 74-10 16-18 29-24 41-83-17-151-46-203-88-51 38-117 68-197 90-7-12-14-24-23-36 73-16 136-43 189-81-39-38-75-89-107-153zm-82-108h129v-66h36v66h115v-66h36v66h128v33h-128v44h-36v-44h-115v44h-36v-44h-129zm512-11h183v-58h32v58h187v29h-169c55 40 119 64 192 74-8 10-15 21-21 32-76-19-139-50-189-93v102h-32v-100c-58 44-120 76-188 97-6-11-13-22-21-31 71-16 135-43 192-81h-166zm426 312c-9 10-16 20-22 30-39-25-71-60-97-104v150h-32v-149c-27 44-59 80-98 108-6-8-14-16-24-25 46-29 86-67 118-114h-71v-29h75v-54h32v54h97v29h-95c35 48 74 83 117 104zm-455 9c37-28 71-65 103-113h-84v-29h86v-55h32v55h76v29h-76v29l10-12c31 23 53 41 67 53l-21 23c-13-14-32-30-56-49v136h-32v-142c-23 39-50 72-82 101-8-11-16-20-23-26zm568-138h303v206h-33v-21h-236v21h-34zm175-203h173v185h-34v-27h-106v27h-33zm-242 81h100c3-13 4-29 5-48h-45c-12 17-26 33-42 47-5-8-13-17-21-27 32-27 54-58 66-94l33 7c-5 14-11 26-18 39h136v28h-75c-1 18-3 34-4 48h92v29h-98c-1 4-2 6-3 9 30 15 63 33 98 54l-21 27c-30-21-60-40-90-55-20 32-54 58-102 78-6-9-13-19-21-30 54-20 88-47 103-83h-93zm337 151h-236v50h236zm-236 127h236v-49h-236zm280-330h-106v100h106zm162 375h-35v-267h184v214c0 33-15 49-45 49-14 0-31 0-52 0-1-9-3-21-6-34 19 1 34 2 45 2 15 0 23-8 23-23v-38h-114zm193-218h35v74c43-16 88-37 135-63l20 32c-50 26-101 49-155 69v39c0 19 8 28 22 28h67c15 0 24-7 27-22 2-13 3-33 5-59 11 4 23 9 35 13-2 26-5 46-7 60-4 26-23 40-57 40h-76c-34 0-51-18-51-53zm1-221h35v78c41-17 83-37 124-60l20 31c-47 24-95 46-144 66v25c0 21 8 31 24 31h57c19 0 30-8 33-24 2-13 4-32 5-56 12 4 23 9 35 13-2 24-5 44-7 59-5 26-25 39-61 39h-67c-36 0-54-18-54-54zm-84 38c27 36 51 70 71 103-11 8-21 15-31 21-6-10-12-21-19-32-73 6-132 10-177 15l-14-38c13-8 28-21 44-41 16-22 33-46 49-73l35 13c-25 36-51 71-79 103 45-3 86-6 123-9-9-14-19-29-30-44zm-110 277h114v-44h-114zm114-114h-114v43h114z" fill="#a1a1a1"/><path d="m1810 1325 104-244h13 14l104 244h-13-13l-35-83h-114l-35 83h-13zm117-219-48 114h96zm324 219v-244h12 12v244h-12zm352-182c-1-14-6-24-14-32s-18-12-30-12c-13 0-23 4-32 12-8 8-13 17-13 29 0 11 4 20 12 27 7 6 20 12 38 17 24 7 41 16 52 28 11 11 17 27 17 46 0 20-8 37-22 50-14 14-32 21-53 21-22 0-40-7-54-20-13-14-20-31-20-52h24c2 16 7 29 16 37 8 9 20 13 34 13s26-4 36-14c10-9 15-20 15-33 0-14-4-25-13-33-8-8-23-15-43-20-22-6-38-14-48-25-9-10-14-24-14-41 0-18 6-33 19-45 14-13 30-19 49-19s35 6 48 19c13 12 20 28 20 47zm321 186c-26 0-49-9-67-27-18-19-27-41-27-67 0-27 9-49 27-68 18-18 41-27 67-27s48 9 66 28c18 18 27 40 27 67 1 3 0 6 0 8h-163c1 17 8 32 20 44 14 14 31 22 50 22 15 0 27-4 38-11s19-18 26-32h24c-7 19-18 34-34 46-16 11-34 17-54 17zm69-106c-2-16-8-30-19-41-14-14-31-21-50-21-20 0-37 7-50 21-11 11-18 25-20 41zm236 102v-181h12 11v24l4-4c13-16 30-24 52-24 25 0 45 8 59 23s21 37 21 64v98h-12-11v-99c0-20-5-36-15-48-10-11-24-17-41-17-18 0-32 6-42 17-10 12-15 29-15 51v96h-11zm360-21 98-139h-95v-10-11h124v11 10l-99 139h105v10 11h-133v-10z" fill="#a1a1a1"/><path d="m573 822v114h-37v103 83c0 38 63 138 140 138s139-62 139-139v-1-1-518-6c4-101 87-181 188-181 104 0 188 83 189 187h-129c-1-32-27-58-60-58-32 0-58 26-58 58v521c-1 148-121 267-269 267s-269-120-269-268c0-1 0-1 0-2h1v-80h-1v-275c0-53 15-94 44-124 29-29 70-44 122-44 51 0 89 14 113 40 24 27 37 68 37 124v279h-129v-271c0-16-2-28-6-34-4-7-11-10-22-10-20 0-30 15-30 44v54zm618-181v401h-128v-401z" fill="#fefefe"/></svg>