<?xml version="1.0" encoding="UTF-8"?>
<!DOCTYPE svg PUBLIC "-//W3C//DTD SVG 1.1//EN" "http://www.w3.org/Graphics/SVG/1.1/DTD/svg11.dtd">
<!-- Creator: CorelDRAW X7 -->
<svg xmlns="http://www.w3.org/2000/svg" xml:space="preserve" width="38.8054mm" height="17.6388mm" version="1.1" style="shape-rendering:geometricPrecision; text-rendering:geometricPrecision; image-rendering:optimizeQuality; fill-rule:evenodd; clip-rule:evenodd"
viewBox="0 0 3881 1764"
 xmlns:xlink="http://www.w3.org/1999/xlink">
 <defs>
  <style type="text/css">
   <![CDATA[
    .fil2 {fill:#FEFEFE}
    .fil1 {fill:#A1A1A1}
    .fil0 {fill:#00A2E9}
   ]]>
  </style>
 </defs>
 <g id="图层_x0020_1">
  <metadata id="CorelCorpID_0Corel-Layer"/>
  <circle class="fil0" cx="799" cy="912" r="755"/>
  <path class="fil1" d="M1879 706l34 -18c31,61 66,110 104,146 42,-38 76,-88 103,-150l36 19c-32,66 -68,118 -107,156 53,38 118,62 195,74 -10,16 -18,29 -24,41 -83,-17 -151,-46 -203,-88 -51,38 -117,68 -197,90 -7,-12 -14,-24 -23,-36 73,-16 136,-43 189,-81 -39,-38 -75,-89 -107,-153zm-82 -108l129 0 0 -66 36 0 0 66 115 0 0 -66 36 0 0 66 128 0 0 33 -128 0 0 44 -36 0 0 -44 -115 0 0 44 -36 0 0 -44 -129 0 0 -33zm512 -11l183 0 0 -58 32 0 0 58 187 0 0 29 -169 0c55,40 119,64 192,74 -8,10 -15,21 -21,32 -76,-19 -139,-50 -189,-93l0 102 -32 0 0 -100c-58,44 -120,76 -188,97 -6,-11 -13,-22 -21,-31 71,-16 135,-43 192,-81l-166 0 0 -29zm426 312c-9,10 -16,20 -22,30 -39,-25 -71,-60 -97,-104l0 150 -32 0 0 -149c-27,44 -59,80 -98,108 -6,-8 -14,-16 -24,-25 46,-29 86,-67 118,-114l-71 0 0 -29 75 0 0 -54 32 0 0 54 97 0 0 29 -95 0c35,48 74,83 117,104zm-455 9c37,-28 71,-65 103,-113l-84 0 0 -29 86 0 0 -55 32 0 0 55 76 0 0 29 -76 0 0 29 10 -12c31,23 53,41 67,53l-21 23c-13,-14 -32,-30 -56,-49l0 136 -32 0 0 -142c-23,39 -50,72 -82,101 -8,-11 -16,-20 -23,-26zm568 -138l303 0 0 206 -33 0 0 -21 -236 0 0 21 -34 0 0 -206zm175 -203l173 0 0 185 -34 0 0 -27 -106 0 0 27 -33 0 0 -185zm-242 81l100 0c3,-13 4,-29 5,-48l-45 0c-12,17 -26,33 -42,47 -5,-8 -13,-17 -21,-27 32,-27 54,-58 66,-94l33 7c-5,14 -11,26 -18,39l136 0 0 28 -75 0c-1,18 -3,34 -4,48l92 0 0 29 -98 0c-1,4 -2,6 -3,9 30,15 63,33 98,54l-21 27c-30,-21 -60,-40 -90,-55 -20,32 -54,58 -102,78 -6,-9 -13,-19 -21,-30 54,-20 88,-47 103,-83l-93 0 0 -29zm337 151l-236 0 0 50 236 0 0 -50zm-236 127l236 0 0 -49 -236 0 0 49zm280 -330l-106 0 0 100 106 0 0 -100zm162 375l-35 0 0 -267 184 0 0 214c0,33 -15,49 -45,49 -14,0 -31,0 -52,0 -1,-9 -3,-21 -6,-34 19,1 34,2 45,2 15,0 23,-8 23,-23l0 -38 -114 0 0 97zm193 -218l35 0 0 74c43,-16 88,-37 135,-63l20 32c-50,26 -101,49 -155,69l0 39c0,19 8,28 22,28l67 0c15,0 24,-7 27,-22 2,-13 3,-33 5,-59 11,4 23,9 35,13 -2,26 -5,46 -7,60 -4,26 -23,40 -57,40l-76 0c-34,0 -51,-18 -51,-53l0 -158zm1 -221l35 0 0 78c41,-17 83,-37 124,-60l20 31c-47,24 -95,46 -144,66l0 25c0,21 8,31 24,31l57 0c19,0 30,-8 33,-24 2,-13 4,-32 5,-56 12,4 23,9 35,13 -2,24 -5,44 -7,59 -5,26 -25,39 -61,39l-67 0c-36,0 -54,-18 -54,-54l0 -148zm-84 38c27,36 51,70 71,103 -11,8 -21,15 -31,21 -6,-10 -12,-21 -19,-32 -73,6 -132,10 -177,15l-14 -38c13,-8 28,-21 44,-41 16,-22 33,-46 49,-73l35 13c-25,36 -51,71 -79,103 45,-3 86,-6 123,-9 -9,-14 -19,-29 -30,-44l28 -18zm-110 277l114 0 0 -44 -114 0 0 44zm114 -114l-114 0 0 43 114 0 0 -43z"/>
  <path class="fil1" d="M1810 1325l104 -244 13 0 14 0 104 244 0 0 -13 0 -13 0 0 0 -35 -83 0 0 -114 0 0 0 -35 83 0 0 -13 0 -12 0zm117 -219l-48 114 0 0 96 0 0 0 -48 -114 0 0zm324 219l0 -244 0 0 12 0 12 0 0 0 0 244 0 0 -12 0 -12 0zm352 -182l0 0c-1,-14 -6,-24 -14,-32 -8,-8 -18,-12 -30,-12 -13,0 -23,4 -32,12 -8,8 -13,17 -13,29 0,11 4,20 12,27 7,6 20,12 38,17 24,7 41,16 52,28 11,11 17,27 17,46 0,20 -8,37 -22,50 -14,14 -32,21 -53,21 -22,0 -40,-7 -54,-20 -13,-14 -20,-31 -20,-52l0 0 24 0 0 0c2,16 7,29 16,37 8,9 20,13 34,13 14,0 26,-4 36,-14 10,-9 15,-20 15,-33 0,-14 -4,-25 -13,-33 -8,-8 -23,-15 -43,-20 -22,-6 -38,-14 -48,-25 -9,-10 -14,-24 -14,-41 0,-18 6,-33 19,-45 14,-13 30,-19 49,-19 19,0 35,6 48,19 13,12 20,28 20,47l0 0 -24 0zm321 186c-26,0 -49,-9 -67,-27 -18,-19 -27,-41 -27,-67 0,-27 9,-49 27,-68 18,-18 41,-27 67,-27 26,0 48,9 66,28 18,18 27,40 27,67 1,3 0,6 0,8l0 0 -163 0 0 0c1,17 8,32 20,44 14,14 31,22 50,22 15,0 27,-4 38,-11 11,-7 19,-18 26,-32l0 0 24 0 0 0c-7,19 -18,34 -34,46 -16,11 -34,17 -54,17zm69 -106l0 0c-2,-16 -8,-30 -19,-41 -14,-14 -31,-21 -50,-21 -20,0 -37,7 -50,21 -11,11 -18,25 -20,41l0 0 139 0zm236 102l0 -181 0 0 12 0 11 0 0 0 0 24 0 0 0 0 4 -4c13,-16 30,-24 52,-24 25,0 45,8 59,23 14,15 21,37 21,64l0 98 0 0 -12 0 -11 0 0 0 0 -99c0,-20 -5,-36 -15,-48 -10,-11 -24,-17 -41,-17 -18,0 -32,6 -42,17 -10,12 -15,29 -15,51l0 0 0 96 0 0 -11 0 -12 0zm360 -21l98 -139 0 0 -95 0 0 0 0 -10 0 -11 0 0 124 0 0 11 0 10 -99 139 0 0 105 0 0 0 0 10 0 11 0 0 -133 0 0 -10 0 -11z"/>
  <path class="fil2" d="M573 822l0 114 -37 0 0 103 0 0 0 83 0 0 0 0c0,38 63,138 140,138 77,0 139,-62 139,-139l0 -1 0 0 0 -1 0 0 0 -518 0 -6 0 0c4,-101 87,-181 188,-181 104,0 188,83 189,187l-129 0c-1,-32 -27,-58 -60,-58 -32,0 -58,26 -58,58l0 521 0 0c-1,148 -121,267 -269,267 -148,0 -269,-120 -269,-268 0,-1 0,-1 0,-2l1 0 0 -80 -1 0 0 -275c0,-53 15,-94 44,-124 29,-29 70,-44 122,-44 51,0 89,14 113,40 24,27 37,68 37,124l0 279 -129 0 0 -271c0,-16 -2,-28 -6,-34 -4,-7 -11,-10 -22,-10 -20,0 -30,15 -30,44l0 54 37 0zm618 -181l0 401 -128 0 0 -401 128 0z"/>
 </g>
</svg>
