<svg height="19.5mm" viewBox="0 0 49 19.5" width="49mm" xmlns="http://www.w3.org/2000/svg"><g fill="#131e29" transform="translate(-34.87539 -109.922337)"><path d="m41.785563 110.08213a6.9098961 6.9098961 0 0 0 -4.123264 1.37563l9.658326 9.65832a6.9098961 6.9098961 0 0 0 1.375111-4.12429 6.9098961 6.9098961 0 0 0 -6.910173-6.90966zm-.40101 1.96267h2.018482l4.338754 4.33875h-2.017966zm-5.134052.82321a6.9098961 6.9098961 0 0 0 -1.375111 4.12378 6.9098961 6.9098961 0 0 0 6.910173 6.91017 6.9098961 6.9098961 0 0 0 4.123262-1.37563zm-.421164 4.732h2.017964l4.338754 4.33928h-2.017964z"/><g stroke-width=".441709"><path d="m56.356232 115.87559v2.91361 2.91343h.427582.427706v-2.91343-2.0583zm6.094277 0v2.91361 2.91343h.424228.442089v-2.53768c0-.33068.356756-.72558.941628-.72558.389498 0 .802414.26411.802414.72558v2.53768h.410158.43901v-2.54817c0-.89473-.613512-1.56032-1.676308-1.56032-.372689 0-.749909.12554-.916902.25951v-1.11174zm-8.90263 1.72481c-1.014763.01-2.031725.8008-2.031725 2.16791 0 1.24718.778359 2.02096 2.031725 2.02096.278591 0 .662434-.0904.928107-.28962l-.0028-.97929c-.188529.27489-.405187.4333-.926353.4333-.622365 0-1.150805-.37009-1.150805-1.18535 0-.83824.460582-1.32268 1.150805-1.32268.804802 0 1.261209.47561 1.261209 1.12099v2.13601h.384369.410458v-2.17896c0-1.13742-.925478-1.93428-2.056036-1.92341zm14.830746 0c-1.014726.01-2.031702.8008-2.031702 2.16791 0 1.24718.778337 2.02096 2.031702 2.02096.278604 0 .662434-.0904.92813-.28962l-.0028-.97929c-.188534.27489-.405201.4333-.926381.4333-.622355 0-1.150805-.37009-1.150805-1.18535 0-.83824.460583-1.32268 1.150805-1.32268.804835 0 1.261191.47561 1.261191 1.12099v2.13601h.38441.410449v-2.17896c0-1.13742-.925456-1.93428-2.05605-1.92341zm-9.573999 6.47409v-4.55542c0-.53965.467843-1.07307 1.180319-1.07307.687916 0 1.167673.45567 1.167673 1.29519 0 .59944-.516563 1.19649-1.167673 1.19649-.296209 0-.572355-.12356-.846268-.26015v.91631c.275741.11068.482142.18134.845582.18134 1.026004 0 2.034404-.86199 2.026315-2.03399-.0057-.8096-.431616-2.12726-2.026315-2.12726h-.000106c-1.02251 0-2.048343.6239-2.048343 1.90514v3.68735z"/><path d="m57.21152 117.23883v-3.76874-2.69249l-.855288-.85526v3.54775 2.91342z"/><path d="m53.547879 112.28129c-1.014763.009-2.031725.80076-2.031725 2.1679 0 1.24723.778359 2.02097 2.031725 2.02097.278591 0 .662434-.0904.928107-.28958l-.0028-.97938c-.188529.27493-.405187.43335-.926353.43335-.622365 0-1.150805-.3701-1.150805-1.18536 0-.83823.460582-1.32268 1.150805-1.32268.804802 0 1.261209.47561 1.261209 1.12105v2.13595h.384369l.410458.00012v-2.17891c0-1.13747-.925478-1.93427-2.056036-1.92345z"/><path d="m66.965356 109.92234v3.54775 2.91342h.42426.442052v-2.53763c0-.33072.356793-.72562.941665-.72562.389461 0 .802404.26415.802404.72562v2.53763h.410177.438987v-2.54817c0-.89468-.613521-1.56032-1.67628-1.56032-.372713 0-.749946.12554-.916953.25951v-1.74588z"/><path d="m63.319519 118.7931v-4.81562c0-.53968.467792-1.07311 1.180291-1.07311.687921 0 1.167673.45567 1.167673 1.29529 0 .59944-.516577 1.19649-1.167673 1.19649-.296204 0-.572373-.12361-.846263-.2602v.91626c.275741.11073.482164.18143.845596.18143 1.025999 0 2.034362-.86198 2.026278-2.03398-.0057-.80965-.43157-2.12731-2.026278-2.12731h-.000125c-1.022482 0-2.048311.62393-2.048311 1.90513v3.94755z"/><path d="m57.941753 114.44298c0 1.21513 1.000647 2.02915 2.043008 2.02718.791622-.005 1.527472-.49955 1.840599-1.22564l-.927329.005c-.207957.24114-.517028.40273-.913381.40273-.510338 0-.977499-.32166-1.169647-.79717h1.115504 1.268893.750397c.01482-.0825.05821-.30522.02311-.6708-.0896-.93514-.976464-1.77126-1.978262-1.76766-1.160495.005-2.052906.92988-2.052906 2.02648zm2.043022-1.2086c.592334 0 .988908.36134 1.145234.809h-2.329972c.181973-.49807.660717-.809 1.184738-.809z"/></g></g></svg>