<svg height="26" viewBox="0 0 140 26" width="140" xmlns="http://www.w3.org/2000/svg"><g fill="none"><g fill="#3b2c7c" transform="translate(28.856683 3.607085)"><path d="m11.5539452 17.3703704h-1.83735905c-.19162641 0-.33816425-.1465379-.33816425-.3381643v-1.0483092c-.78904992 1.0257649-1.98389694 1.6795492-3.61835749 1.6795492-3.22383253 0-5.76006441-2.5362319-5.76006441-6.0644123 0-3.52818034 2.53623188-6.06441222 5.76006441-6.06441222 1.63446055 0 2.82930757.6763285 3.61835749 1.69082125v-1.02576489c0-.19162641.14653784-.33816425.33816425-.33816425h1.83735905c.1916265 0 .3381643.14653784.3381643.33816425v10.84380036c0 .1803542-.1465378.3268921-.3381643.3268921zm-8.97262475-5.7487923c0 2.0177134 1.30756844 3.6859903 3.47181965 3.6859903 2.08534621 0 3.47181964-1.5893719 3.47181964-3.6859903 0-2.1078905-1.39774557-3.68599034-3.47181964-3.68599034-2.15297907-.01127214-3.47181965 1.65700483-3.47181965 3.68599034z"/><path d="m26.2753623 11.6215781c0 3.5281804-2.5362319 6.0644122-5.7600644 6.0644122-1.6344605 0-2.8180354-.6650563-3.6070853-1.6682769v5.8389694c0 .1916264-.1465379.3381642-.3381643.3381642h-1.8373591c-.1916264 0-.3381642-.1465378-.3381642-.3381642v-15.65700486c0-.19162641.1465378-.33816425.3381642-.33816425h1.8373591c.1916264 0 .3381643.14653784.3381643.33816425v1.03703704c.7890499-1.01449276 1.9726248-1.66827698 3.6070853-1.66827698 3.2238325-.01127214 5.7600644 2.52495975 5.7600644 6.0531401zm-9.5362319 0c0 2.1078905 1.3977456 3.6859903 3.4718197 3.6859903 2.1642512 0 3.4718196-1.6682769 3.4718196-3.6859903 0-2.01771337-1.3075684-3.68599034-3.4718196-3.68599034-2.0740741-.01127214-3.4718197 1.57809984-3.4718197 3.68599034z"/><path d="m35.6425121 6.17713366-.4396135 1.80354267c-.0450886.20289855-.2592593.30434782-.4508857.23671497-.4847021-.18035426-1.0708535-.2705314-1.5555556-.2705314-1.6006441 0-2.7391304 1.12721417-2.7391304 3.0885668v5.9967794c0 .1916264-.1465379.3381643-.3381643.3381643h-1.8373591c-.1916264 0-.3381642-.1465379-.3381642-.3381643v-10.83252816c0-.19162641.1465378-.33816425.3381642-.33816425h1.8148149c.1916264 0 .3381642.14653784.3381642.33816425v.95813204c.7552335-1.09339774 1.9388084-1.60064412 3.3478261-1.60064412.6312399 0 1.1497584.06763285 1.6344605.21417069.15781.05636071.2592593.23671498.2254429.40579711z"/><path d="m39.8582931 1.88244767c0 1.00322061-.7777778 1.7584541-1.7809984 1.7584541s-1.7584541-.75523349-1.7584541-1.7584541c0-1.00322062.7552335-1.78099839 1.7584541-1.78099839s1.7809984.77777777 1.7809984 1.78099839zm-.8454107 15.48792273h-1.8486312c-.1916264 0-.3381642-.1465379-.3381642-.3381643v-10.83252816c0-.19162641.1465378-.33816425.3381642-.33816425h1.8486312c.1916265 0 .3381643.14653784.3381643.33816425v10.84380036c0 .1803542-.1465378.3268921-.3381643.3268921z"/><path d="m44.0402576 17.3703704h-1.8486312c-.1916264 0-.3381642-.1465379-.3381642-.3381643v-16.626409c0-.19162641.1465378-.33816425.3381642-.33816425h1.8486312c.1916265 0 .3381643.14653784.3381643.33816425v16.6376812c0 .1803542-.1465378.3268921-.3381643.3268921z"/><path d="m57.6006441 17.3703704h-1.8373591c-.1916264 0-.3381642-.1465379-.3381642-.3381643v-1.0483092c-.7890499 1.0257649-1.983897 1.6795492-3.6183575 1.6795492-3.2238325 0-5.7600644-2.5362319-5.7600644-6.0644123 0-3.52818034 2.5362319-6.06441222 5.7600644-6.06441222 1.6344605 0 2.8293076.6763285 3.6183575 1.69082125v-1.02576489c0-.19162641.1465378-.33816425.3381642-.33816425h1.8373591c.1916264 0 .3381643.14653784.3381643.33816425v10.84380036c0 .1803542-.1465379.3268921-.3381643.3268921zm-8.9613526-5.7487923c0 2.0177134 1.3075684 3.6859903 3.4718196 3.6859903 2.0853462 0 3.4718197-1.5893719 3.4718197-3.6859903 0-2.1078905-1.3977456-3.68599034-3.4718197-3.68599034-2.1642512-.01127214-3.4718196 1.65700483-3.4718196 3.68599034z"/></g><circle cx="4.993559" cy="16.389694" fill="#ff7e69" r="4.89211"/><path d="m8.36392915.86795491c-1.90499195 1.34138486-2.35587762 3.95652174-1.01449276 5.86151369l1.1610306 1.65700483 7.82286631 11.11433177c1.3413849 1.9049919 3.9565218 2.3558776 5.8615137 1.0144927 1.904992-1.3413849 2.3558776-3.9565217 1.0144928-5.8615137l-8.983897-12.77133653c-1.3413848-1.89371981-3.9677938-2.35587762-5.86151365-1.01449276z" fill="#3b2c7c"/><g fill="#ff7e69"><path d="m101.178744 15.2286634c0 3.5281804-2.5362319 6.0644123-5.7600645 6.0644123-1.6344605 0-2.8180354-.6650564-3.6070853-1.668277v1.037037c0 .1916265-.1465378.3381643-.3381642.3381643h-1.8373591c-.1916265 0-.3381643-.1465378-.3381643-.3381643v-16.64895325c0-.19162641.1465378-.33816425.3381643-.33816425h1.8373591c.1916264 0 .3381642.14653784.3381642.33816425v6.83091785c.7890499-1.01449273 1.9726248-1.66827695 3.6070853-1.66827695 3.2238326-.01127214 5.7600645 2.52495975 5.7600645 6.05314005zm-9.5362319 0c0 2.1078905 1.3977455 3.6859904 3.4718196 3.6859904 2.1642512 0 3.4718197-1.668277 3.4718197-3.6859904 0-2.0177133-1.3075685-3.6859903-3.4718197-3.6859903-2.0740741-.0112721-3.4718196 1.5780998-3.4718196 3.6859903z"/><path d="m113.837359 20.9774557h-1.837359c-.191626 0-.338164-.1465378-.338164-.3381642v-1.0483092c-.78905 1.0257649-1.983897 1.6795491-3.618358 1.6795491-3.223832 0-5.760064-2.5362319-5.760064-6.0644122 0-3.5281804 2.536232-6.06441228 5.760064-6.06441228 1.634461 0 2.829308.67632851 3.618358 1.69082128v-1.02576491c0-.19162641.146538-.33816426.338164-.33816426h1.837359c.191627 0 .338164.14653785.338164.33816426v10.84380031c0 .1803543-.146537.3268921-.338164.3268921zm-8.961353-5.7487923c0 2.0177134 1.307569 3.6859904 3.47182 3.6859904 2.085346 0 3.47182-1.589372 3.47182-3.6859904 0-2.1078905-1.397746-3.6859903-3.47182-3.6859903-2.164251-.0112721-3.47182 1.6570048-3.47182 3.6859903z"/><path d="m127.386473 13.7407407v6.8985508c0 .1916264-.146537.3381642-.338164.3381642h-1.848631c-.191626 0-.338164-.1465378-.338164-.3381642v-6.0644123c0-1.9388083-1.003221-3.020934-2.68277-3.020934-1.623188 0-2.987118 1.0708535-2.987118 3.0434783v6.041868c0 .1916264-.146537.3381642-.338164.3381642h-1.848631c-.191626 0-.338164-.1465378-.338164-.3381642v-10.83252821c0-.19162641.146538-.33816426.338164-.33816426h1.826087c.191626 0 .338164.14653785.338164.33816426v1.07085341c.924316-1.3639291 2.355878-1.70209335 3.539453-1.70209335 2.750402-.01127214 4.677938 1.87117555 4.677938 4.56521735z"/><path d="m132.075684 13.84219h1.26248l3.697263-4.26086955c.067633-.07890499.15781-.11272142.259259-.11272142h2.254428c.293076 0 .450886.3494364.247987.56360707l-4.31723 4.8582931 4.429952 5.5458937c.180354.2254428.022544.552335-.259259.552335h-2.322062c-.101449 0-.202898-.0450886-.270531-.1239936l-3.731079-4.7230274h-1.251208v4.5201288c0 .1916265-.146537.3381643-.338164.3381643h-1.848631c-.191627 0-.338164-.1465378-.338164-.3381643v-16.64895325c0-.19162641.146537-.33816425.338164-.33816425h1.848631c.191627 0 .338164.14653784.338164.33816425z"/></g></g></svg>