<svg viewBox="0 0 96.1 94.5" xmlns="http://www.w3.org/2000/svg"><g fill="#333"><path d="m39.1 66.9h-8c-.2 0-.4.2-.4.4v1.4c0 .2.2.4.4.4h2.8v7.9c0 .2.2.4.4.4h1.6c.2 0 .4-.2.4-.4v-7.9h2.8c.2 0 .4-.2.4-.4v-1.4c0-.2-.2-.4-.4-.4zm11.5 0h-1.6c-.2 0-.4.2-.4.4v3.7h-4.1v-3.7c0-.2-.2-.4-.4-.4h-1.6c-.2 0-.4.2-.4.4v9.8c0 .2.2.4.4.4h1.5c.2 0 .4-.2.4-.4v-3.8h4.1v3.8c0 .2.2.4.4.4h1.6c.2 0 .4-.2.4-.4v-9.8c.1-.2-.1-.4-.3-.4zm8.2 4.2c-.6 0-1.1.5-1.1 1.1s.5 1.1 1.1 1.1h1.7c.6 0 1.1-.5 1.1-1.1s-.5-1.1-1.1-1.1zm-32.3-3c-.4-.9-.9-1.3-1.6-1.3-.8 0-1.2.4-1.6 1.3l-3.7 8.8c-.1.1 0 .3 0 .4.1.1.2.2.3.2h1.6c.2 0 .3-.1.4-.3l.8-2.1h4.3l.9 2.1c.1.2.2.3.4.3h1.6c.1 0 .3-.1.3-.2.1-.1.1-.3 0-.4zm-.3 4.9h-2.6l1.3-3.1zm47.7 3.8-2.1-3.1.1-.1c1.4-.6 2.1-1.7 2.1-3.3 0-1-.3-1.8-.9-2.4-.7-.7-1.8-1.1-3.1-1.1h-2.9c-.6 0-1.9.3-1.9 2v8.2c0 .2.2.4.4.4h1.6c.2 0 .4-.2.4-.4v-2.9h1.7l2.1 3.2c.1.1.2.2.3.2h1.9c.2 0 .3-.1.4-.2 0-.2 0-.3-.1-.5zm-2.4-6.2c0 .9-.6 1.4-1.7 1.4h-1.8c-.4 0-.4-.3-.4-.4v-2.1c0-.1.1-.4.4-.4h1.8c1.1 0 1.7.5 1.7 1.5z"/><path d="m61.9 75.3h-4.8s-.4 0-.4-.4v-5.2c0-.2.1-.3.2-.4s.2-.1.3-.1h4.7c.2 0 .4-.2.4-.4v-1.4c0-.2-.2-.4-.4-.4h-5.7c-1.1.1-1.8.6-1.9 1.6v7.3c.1 1 .8 1.6 1.9 1.7h5.7c.2 0 .4-.2.4-.4v-1.4c0-.3-.2-.5-.4-.5z"/><path d="m26.4 39.2c0 11.2 9.1 20.3 20.3 20.3s20.3-9.1 20.3-20.3-9.1-20.3-20.3-20.3-20.3 9.1-20.3 20.3zm3.1 0c0-9.5 7.8-17.3 17.3-17.3s17.2 7.8 17.2 17.3-7.8 17.3-17.3 17.3-17.2-7.8-17.2-17.3z"/><path d="m44.7 31 .2-.1c.1-.1.2-.1.3-.2s.2-.1.3-.1h.2c.4-.1.8-.2 1.2-.2 1.4 0 2.7.8 3.4 2 .4.6.8 2.1.8 2.2.2 1 .5 2.1 1 3 .6.9 1.2 1.8 2 2.5 0 0 1.1 1.2 1.4 1.8.9 1.6.4 3.8-1.1 4.9h-.1c-.1.1-.2.1-.3.2s-.2.1-.3.1l-.2.1c-.4.1-.8.2-1.2.2-1.4 0-2.7-.8-3.4-2-.4-.6-.8-2.1-.8-2.2-.2-1-.5-2.1-1-3-.6-.9-1.2-1.8-2-2.5 0 0-1.1-1.2-1.4-1.8-.9-1.8-.4-3.9 1-4.9z"/><circle cx="41.3" cy="43.7" r="3.6"/></g></svg>