<svg height="317.23" viewBox="0 0 1540.8439 253.78388" width="1926.055" xmlns="http://www.w3.org/2000/svg" xmlns:xlink="http://www.w3.org/1999/xlink"><clipPath id="a"><path d="m6 6h221v244h-221z"/></clipPath><clipPath id="b"><path d="m249.223 128c0 66.95-54.274 121.223-121.223 121.223-66.95 0-121.223-54.274-121.223-121.223 0-66.95 54.274-121.223 121.223-121.223 66.95 0 121.223 54.274 121.223 121.223"/></clipPath><clipPath id="c"><path d="m86 29h162v183h-162z"/></clipPath><clipPath id="d"><path d="m249.223 128c0 66.95-54.274 121.223-121.223 121.223-66.95 0-121.223-54.274-121.223-121.223 0-66.95 54.274-121.223 121.223-121.223 66.95 0 121.223 54.274 121.223 121.223"/></clipPath><clipPath id="e"><path d="m72 67h117v117h-117z"/></clipPath><clipPath id="f"><path d="m249.223 128c0 66.95-54.274 121.223-121.223 121.223-66.95 0-121.223-54.274-121.223-121.223 0-66.95 54.274-121.223 121.223-121.223 66.95 0 121.223 54.274 121.223 121.223"/></clipPath><g clip-path="url(#a)" transform="translate(-1.108 -1.108)"><g clip-path="url(#b)"><path d="m226.074 199.25c-27.347 37.64-73.828 56.313-119.617 48.043s-82.805-42.016-95.258-86.848c-12.453-44.832 1.856-92.835 36.817-123.535 34.964-30.7 84.414-38.68 127.257-20.53a105.413 105.413 0 0 0 -96.68 32.664 105.414 105.414 0 0 0 -23.698 99.262c9.714 34.96 36.722 62.472 71.5 72.82a105.408 105.408 0 0 0 99.68-21.875" fill="#de0021"/></g></g><g clip-path="url(#c)" transform="translate(-1.108 -1.108)"><g clip-path="url(#d)"><path d="m86.578 61.938c22.887-27.5 59.777-39.024 94.246-29.434 34.473 9.59 60.113 38.504 65.512 73.875 5.398 35.367-10.45 70.617-40.492 90.05-30.04 19.434-68.688 19.442-98.735.02a78 78 0 0 0 76.586-12.422 78 78 0 0 0 27.985-72.36 78.015 78.015 0 0 0 -48.297-60.722 78.007 78.007 0 0 0 -76.805 10.992" fill="#51ba2b"/></g></g><g clip-path="url(#e)" transform="translate(-1.108 -1.108)"><g clip-path="url(#f)"><path d="m94.426 80.11c21.008-16.872 50.867-17.047 72.074-.426 21.203 16.625 28.16 45.664 16.793 70.09-11.371 24.43-38.066 37.804-64.441 32.285-26.372-5.52-45.465-28.48-46.082-55.414a37.948 37.948 0 0 0 33.734 26.394c15.613 1.004 30.242-7.672 36.84-21.855a37.948 37.948 0 0 0 -6.996-42.262 37.952 37.952 0 0 0 -41.922-8.813" fill="#4a4294"/></g></g><text font-family="Sans" font-size="263.2" letter-spacing="-.44" word-spacing="0" x="255.95" y="196.527"><tspan font-family="DejaVu Sans" font-size="208" font-weight="bold" letter-spacing="-2.24" x="255.95" y="196.527">Centricular</tspan></text></svg>