<svg xmlns="http://www.w3.org/2000/svg" width="1926.055" height="317.23" viewBox="0 0 1540.8439 253.78388"><defs><clipPath id="a"><path d="M6 6h221v244H6z"/></clipPath><clipPath id="b"><path d="M249.223 128c0 66.95-54.274 121.223-121.223 121.223C61.05 249.223 6.777 194.949 6.777 128 6.777 61.05 61.051 6.777 128 6.777c66.95 0 121.223 54.274 121.223 121.223"/></clipPath><clipPath id="c"><path d="M86 29h162v183H86z"/></clipPath><clipPath id="d"><path d="M249.223 128c0 66.95-54.274 121.223-121.223 121.223C61.05 249.223 6.777 194.949 6.777 128 6.777 61.05 61.051 6.777 128 6.777c66.95 0 121.223 54.274 121.223 121.223"/></clipPath><clipPath id="e"><path d="M72 67h117v117H72z"/></clipPath><clipPath id="f"><path d="M249.223 128c0 66.95-54.274 121.223-121.223 121.223C61.05 249.223 6.777 194.949 6.777 128 6.777 61.05 61.051 6.777 128 6.777c66.95 0 121.223 54.274 121.223 121.223"/></clipPath></defs><g clip-path="url(#a)" transform="translate(-1.108 -1.108)"><g clip-path="url(#b)"><path d="M226.074 199.25c-27.347 37.64-73.828 56.313-119.617 48.043-45.789-8.27-82.805-42.016-95.258-86.848C-1.254 115.613 13.055 67.61 48.016 36.91 82.98 6.21 132.43-1.77 175.273 16.38a105.413 105.413 0 0 0-96.68 32.664 105.414 105.414 0 0 0-23.698 99.262c9.714 34.96 36.722 62.472 71.5 72.82a105.408 105.408 0 0 0 99.68-21.875" fill="#de0021"/></g></g><g clip-path="url(#c)" transform="translate(-1.108 -1.108)"><g clip-path="url(#d)"><path d="M86.578 61.938c22.887-27.5 59.777-39.024 94.246-29.434 34.473 9.59 60.113 38.504 65.512 73.875 5.398 35.367-10.45 70.617-40.492 90.05-30.04 19.434-68.688 19.442-98.735.02a78 78 0 0 0 76.586-12.422 78 78 0 0 0 27.985-72.36 78.015 78.015 0 0 0-48.297-60.722 78.007 78.007 0 0 0-76.805 10.992" fill="#51ba2b"/></g></g><g clip-path="url(#e)" transform="translate(-1.108 -1.108)"><g clip-path="url(#f)"><path d="M94.426 80.11c21.008-16.872 50.867-17.047 72.074-.426 21.203 16.625 28.16 45.664 16.793 70.09-11.371 24.43-38.066 37.804-64.441 32.285-26.372-5.52-45.465-28.48-46.082-55.414a37.948 37.948 0 0 0 33.734 26.394c15.613 1.004 30.242-7.672 36.84-21.855a37.948 37.948 0 0 0-6.996-42.262 37.952 37.952 0 0 0-41.922-8.813" fill="#4a4294"/></g></g><text style="line-height:125%" x="255.95" y="196.527" font-size="263.2" letter-spacing="-.44" word-spacing="0" font-family="Sans"><tspan x="255.95" y="196.527" style="-inkscape-font-specification:DejaVu Sans Bold" font-size="208" font-weight="bold" letter-spacing="-2.24" font-family="DejaVu Sans">Centricular</tspan></text></svg>