<svg width="320" height="85" viewBox="0 0 320 85" xmlns="http://www.w3.org/2000/svg"><title>sharp-cut</title><g transform="translate(-22 -85)" fill="none" fill-rule="evenodd"><g transform="translate(32 93)"><rect fill="#CB243C" width="68" height="68" rx="4"/><g transform="translate(26.928 14.008)" fill="#FFF"><path d="M6.365 11.256H5.287s-.125.084-.083.208l.04.124.126 1.66s-.166.083-.208.373c-.041.29.29 1.079.29 1.079L5.37 27.03c-.024 3.443-4.829 5.6-4.715 9.744.083 3.041 2.776 3.322 5.211 3.322 2.008 0 5.318.3 6.036-2.124C13.382 32.975 7.388 31 7.36 27.03L7.278 14.7s.332-.789.291-1.08c-.042-.29-.208-.373-.208-.373l.125-1.659.041-.124c.042-.124-.083-.208-.083-.208H6.365zM.177 8.141c.277.646 1.252.922 1.62.922H11.99c.36 0 1.051-.256 1.422-.687a3.701 3.701 0 0 0 .68-3.551c-.737-2.21-2.211-2.763-4.516-2.118-.275-1.015-.737-3.133-3.87-2.58-2.208.389-2.304 3.316-1.935 3.684C.177 3.742-.42 6.745.177 8.141"/><path d="M5.359 8.657l.77 1.232 1.234-1.232H5.359z"/></g></g><g transform="translate(110 112)" fill="#626262"><path d="M125.087 17.219c0-1.336.231-2.599.693-3.789a9.461 9.461 0 0 1 1.949-3.115 9.106 9.106 0 0 1 3.005-2.095c1.166-.51 2.453-.765 3.862-.765 1.797 0 3.364.407 4.7 1.22a7.84 7.84 0 0 1 3.023 3.298l-2.404.765a5.772 5.772 0 0 0-2.24-2.277c-.96-.547-2.023-.82-3.188-.82-.972 0-1.877.194-2.714.583a6.922 6.922 0 0 0-2.186 1.585 7.285 7.285 0 0 0-1.458 2.386c-.352.923-.528 1.931-.528 3.024a8.35 8.35 0 0 0 .547 3.024 7.714 7.714 0 0 0 1.493 2.459 7.111 7.111 0 0 0 2.204 1.64c.838.4 1.73.6 2.678.6.607 0 1.208-.085 1.803-.255a6.966 6.966 0 0 0 1.658-.71c.51-.304.947-.65 1.312-1.038.364-.389.619-.802.765-1.239l2.44.729a6.21 6.21 0 0 1-1.165 1.876 8.043 8.043 0 0 1-1.804 1.494 8.849 8.849 0 0 1-2.295.983 9.767 9.767 0 0 1-2.605.346c-1.384 0-2.66-.26-3.825-.783a9.275 9.275 0 0 1-3.024-2.15 9.98 9.98 0 0 1-1.985-3.15 10.25 10.25 0 0 1-.71-3.826zM147.51.169h2.477v22.296c0 .704.195 1.257.583 1.658.389.4.935.6 1.64.6.267 0 .583-.036.947-.108.364-.073.704-.17 1.02-.292l.437 2.004c-.461.194-1.026.352-1.694.473a9.874 9.874 0 0 1-1.73.183c-1.142 0-2.04-.322-2.696-.966-.656-.643-.984-1.548-.984-2.714V.169zm18.888 26.96c-1.384 0-2.647-.262-3.789-.784a9.312 9.312 0 0 1-2.97-2.131 9.67 9.67 0 0 1-1.948-3.133 10.288 10.288 0 0 1-.692-3.753c0-1.336.236-2.599.71-3.789a9.928 9.928 0 0 1 1.967-3.133 9.554 9.554 0 0 1 2.97-2.15c1.141-.534 2.392-.8 3.752-.8 1.36 0 2.617.266 3.77.8a9.493 9.493 0 0 1 2.988 2.15 9.928 9.928 0 0 1 1.967 3.133c.474 1.19.71 2.453.71 3.79 0 1.31-.23 2.562-.692 3.752a9.67 9.67 0 0 1-1.949 3.133 9.255 9.255 0 0 1-2.987 2.131c-1.154.522-2.423.783-3.807.783zm-6.886-9.764c0 1.068.183 2.058.547 2.969.364.91.856 1.712 1.475 2.404a6.67 6.67 0 0 0 2.186 1.622c.838.388 1.73.582 2.678.582.947 0 1.84-.2 2.678-.6a7.111 7.111 0 0 0 2.204-1.64 7.812 7.812 0 0 0 1.493-2.423 8.063 8.063 0 0 0 .547-2.987 8.106 8.106 0 0 0-.547-2.97 7.76 7.76 0 0 0-1.493-2.44 7.111 7.111 0 0 0-2.204-1.64 6.128 6.128 0 0 0-2.678-.6c-.947 0-1.834.2-2.66.6-.825.401-1.554.954-2.185 1.658a7.99 7.99 0 0 0-1.494 2.46 8.206 8.206 0 0 0-.547 3.005zm27.413 9.763c-2.064 0-3.6-.686-4.608-2.058-1.008-1.372-1.512-3.419-1.512-6.139V7.783h2.477v10.711c0 4.299 1.47 6.448 4.408 6.448.729 0 1.445-.121 2.15-.364a6.753 6.753 0 0 0 1.949-1.056 8.557 8.557 0 0 0 1.603-1.64 8.262 8.262 0 0 0 1.147-2.15V7.784h2.478v15.775c0 .68.291 1.02.874 1.02v2.186a4.515 4.515 0 0 1-.71.073h-.383c-.583-.024-1.056-.23-1.42-.62-.365-.388-.547-.91-.547-1.566v-2.186c-.826 1.482-1.95 2.63-3.37 3.443a8.984 8.984 0 0 1-4.536 1.22zm24.499 0c-1.312 0-2.526-.273-3.644-.82a9.27 9.27 0 0 1-2.878-2.167 9.97 9.97 0 0 1-1.876-3.115 10.288 10.288 0 0 1-.674-3.698c0-1.336.219-2.605.656-3.807.437-1.202 1.038-2.253 1.803-3.151a8.497 8.497 0 0 1 2.733-2.131c1.056-.523 2.216-.784 3.479-.784 1.603 0 3.024.42 4.262 1.257 1.239.838 2.21 1.852 2.915 3.042V.17h2.477v23.389c0 .68.292 1.02.874 1.02v2.186c-.364.073-.655.11-.874.11a2.273 2.273 0 0 1-1.53-.565c-.437-.377-.656-.832-.656-1.367v-1.858a8.3 8.3 0 0 1-3.06 2.951c-1.287.729-2.623 1.093-4.007 1.093zm.546-2.186c.607 0 1.257-.121 1.95-.364a8.007 8.007 0 0 0 1.948-1.002 6.711 6.711 0 0 0 1.549-1.493 4.04 4.04 0 0 0 .783-1.84v-5.866a6.513 6.513 0 0 0-1.057-1.84 8.503 8.503 0 0 0-1.585-1.511 7.447 7.447 0 0 0-1.912-1.02 5.933 5.933 0 0 0-2.004-.365c-1.02 0-1.943.219-2.769.656a7.003 7.003 0 0 0-2.13 1.73 7.723 7.723 0 0 0-1.367 2.46 8.72 8.72 0 0 0-.474 2.841c0 1.02.182 1.992.547 2.915.364.923.862 1.73 1.493 2.422a7.225 7.225 0 0 0 2.241 1.658 6.37 6.37 0 0 0 2.787.62zM.087 17.22c0-1.336.231-2.599.693-3.789a9.461 9.461 0 0 1 1.949-3.115A9.106 9.106 0 0 1 5.734 8.22c1.166-.51 2.453-.765 3.862-.765 1.797 0 3.364.407 4.7 1.22a7.84 7.84 0 0 1 3.023 3.298l-2.404.765a5.772 5.772 0 0 0-2.24-2.277c-.96-.547-2.023-.82-3.188-.82-.972 0-1.877.194-2.714.583a6.922 6.922 0 0 0-2.186 1.585 7.285 7.285 0 0 0-1.458 2.386c-.352.923-.528 1.931-.528 3.024a8.35 8.35 0 0 0 .547 3.024 7.714 7.714 0 0 0 1.493 2.459 7.111 7.111 0 0 0 2.204 1.64c.838.4 1.73.6 2.678.6.607 0 1.208-.085 1.803-.255a6.966 6.966 0 0 0 1.658-.71c.51-.304.947-.65 1.312-1.038.364-.389.619-.802.765-1.239l2.44.729a6.21 6.21 0 0 1-1.165 1.876 8.042 8.042 0 0 1-1.804 1.494 8.849 8.849 0 0 1-2.295.983 9.767 9.767 0 0 1-2.605.346c-1.384 0-2.66-.26-3.825-.783a9.275 9.275 0 0 1-3.024-2.15 9.98 9.98 0 0 1-1.985-3.15 10.25 10.25 0 0 1-.71-3.826zM22.51.169h2.477v22.296c0 .704.195 1.257.583 1.658.389.4.935.6 1.64.6.267 0 .583-.036.947-.108.364-.073.704-.17 1.02-.292l.437 2.004c-.461.194-1.026.352-1.694.473a9.874 9.874 0 0 1-1.73.183c-1.142 0-2.04-.322-2.696-.966-.656-.643-.984-1.548-.984-2.714V.169zm18.997 26.96c-1.384 0-2.653-.262-3.807-.784a9.33 9.33 0 0 1-3.005-2.15 9.98 9.98 0 0 1-1.986-3.15 10.25 10.25 0 0 1-.71-3.826c0-1.336.236-2.593.71-3.77a9.76 9.76 0 0 1 1.967-3.097 9.337 9.337 0 0 1 3.006-2.113c1.166-.523 2.429-.784 3.789-.784 1.384 0 2.653.261 3.807.784a9.051 9.051 0 0 1 2.969 2.13 10.004 10.004 0 0 1 2.623 6.813v.583c0 .195-.012.328-.036.401H34.584a7.99 7.99 0 0 0 .71 2.824c.401.862.917 1.609 1.549 2.24a6.937 6.937 0 0 0 2.168 1.476 6.487 6.487 0 0 0 2.605.528c.607 0 1.214-.085 1.821-.255.607-.17 1.166-.4 1.676-.692.51-.292.971-.65 1.384-1.075.413-.425.729-.893.948-1.403l2.149.583a6.312 6.312 0 0 1-1.239 1.913 8.647 8.647 0 0 1-1.858 1.494 9.1 9.1 0 0 1-2.331.983c-.85.23-1.737.346-2.66.346zm6.995-10.857c-.073-1.02-.31-1.95-.71-2.787-.401-.838-.911-1.56-1.53-2.168a6.767 6.767 0 0 0-2.15-1.42 6.687 6.687 0 0 0-2.605-.51 6.821 6.821 0 0 0-4.79 1.93 6.983 6.983 0 0 0-1.494 2.186 8.275 8.275 0 0 0-.674 2.769H48.5zm12.367 10.492l-7.724-18.98h2.55l6.522 16.685 6.557-16.686h2.405l-7.724 18.981h-2.586zm22.276.364c-1.385 0-2.654-.26-3.807-.783a9.33 9.33 0 0 1-3.006-2.15 9.98 9.98 0 0 1-1.986-3.15 10.25 10.25 0 0 1-.71-3.826c0-1.336.237-2.593.71-3.77a9.76 9.76 0 0 1 1.968-3.097 9.337 9.337 0 0 1 3.005-2.113c1.166-.523 2.43-.784 3.79-.784 1.384 0 2.653.261 3.806.784a9.051 9.051 0 0 1 2.97 2.13 10.004 10.004 0 0 1 2.623 6.813v.583c0 .195-.013.328-.037.401H76.222a7.99 7.99 0 0 0 .71 2.824c.4.862.917 1.609 1.548 2.24a6.937 6.937 0 0 0 2.168 1.476 6.487 6.487 0 0 0 2.605.528c.607 0 1.214-.085 1.822-.255.607-.17 1.165-.4 1.675-.692.51-.292.972-.65 1.385-1.075.413-.425.728-.893.947-1.403l2.15.583a6.312 6.312 0 0 1-1.24 1.913 8.647 8.647 0 0 1-1.857 1.494 9.1 9.1 0 0 1-2.332.983c-.85.23-1.736.346-2.66.346zm6.995-10.856c-.073-1.02-.31-1.95-.71-2.787-.402-.838-.912-1.56-1.531-2.168a6.767 6.767 0 0 0-2.15-1.42 6.687 6.687 0 0 0-2.604-.51 6.821 6.821 0 0 0-4.791 1.93 6.983 6.983 0 0 0-1.494 2.186 8.275 8.275 0 0 0-.674 2.769H90.14zm16.665-6.303c-1.676.049-3.133.51-4.372 1.384-1.238.875-2.113 2.077-2.623 3.607v11.804h-2.477V7.784h2.332v4.553c.704-1.457 1.651-2.599 2.841-3.424 1.19-.826 2.465-1.24 3.825-1.24.195 0 .353.013.474.037v2.26z"/></g></g></svg>