<svg xmlns="http://www.w3.org/2000/svg" id="Layer_1" data-name="Layer 1" viewBox="0 0 263.81 97.8">
  <defs>
    <style>
      .cls-1{fill:#e14164}.cls-2{fill:#010101}
    </style>
  </defs>
  <path d="M225.81 35.15a33.35 33.35 0 0 0-2.75-4.91c1.85-2.25 3.55-3.58 4.58-3.58a.83.83 0 0 1 .32.06c1.11.46 1.39 3.7.7 7.91a28 28 0 0 0-2.85.52zM221.56 45.73a4.9 4.9 0 0 1-.54 0h-.13l-.29-.06-.27-.07-.21-.07a3.68 3.68 0 0 1-2.12-2.67c-.28-2 1.47-4 4.57-5.26a20.49 20.49 0 0 1 2.41-.82c1.24 3.42 1 6.34-.66 7.87a6.87 6.87 0 0 1-.82.58 3.52 3.52 0 0 1-.39.18 4 4 0 0 1-1.55.32zM218.22 38.79a13.77 13.77 0 0 1 .56-1.59 28.31 28.31 0 0 1 3.39-5.82 30.64 30.64 0 0 1 2.28 4.12 21.83 21.83 0 0 0-2.41.82 11.22 11.22 0 0 0-3.82 2.47zM227.14 40.35a13.59 13.59 0 0 0-.81-3.9c.68-.16 1.37-.29 2.06-.39a26.86 26.86 0 0 1-1.25 4.29zM216.47 42.1a15.25 15.25 0 0 1-1.07-2.1 33.64 33.64 0 0 1-2.18-9.54c-.29-3.94.43-5.69 1.19-6a1.23 1.23 0 0 1 .39-.07c1.43 0 4 2.34 6.54 5.84a31.06 31.06 0 0 0-3.84 6.49 11.88 11.88 0 0 0-1.03 5.38zM226.32 44.58a13.35 13.35 0 0 0 2-3.43 29.15 29.15 0 0 0 1.53-5.27c.63-.06 1.22-.08 1.76-.08 2.21 0 3.2.48 3.39.93.61 1.49-4.19 5.76-8.68 7.85z" class="cls-1"/>
  <path d="M32.47 54.32c0-9.11 3.91-14.53 10.36-14.53a8.28 8.28 0 0 1 8.08 5.8l-1.91.76a6.38 6.38 0 0 0-6.13-4.6c-5.48 0-8.24 4.39-8.24 12.57 0 7.92 3.09 12.53 7.86 12.53a7 7 0 0 0 6.88-5.1l2 .71a8.88 8.88 0 0 1-8.84 6.34c-6.15 0-10.06-5.26-10.06-14.48zM75.11 63.48A8.55 8.55 0 0 1 67 68.8c-5.86 0-9-3.69-9-11.44V40.44h2v17.35c0 6.73 2.8 9.21 7.08 9.21 4.56 0 8-2.71 8-10.46v-16.1h2v27.71h-2zM86.46 30l2-1v39.15h-2zM99.76 62.51V42.23H95v-1.79h4.72V30l1.95-1v11.44h7.05v1.79h-7.05v20c0 2.87.6 4.66 3.36 4.66a7.82 7.82 0 0 0 4.07-1.3l-.22 2.06a8.4 8.4 0 0 1-4.06 1.14c-3.82.01-5.06-2.7-5.06-6.28zM115.69 32.26a1.63 1.63 0 0 1 1.57-1.68 1.6 1.6 0 0 1 1.57 1.68 1.54 1.54 0 0 1-1.57 1.57 1.57 1.57 0 0 1-1.57-1.57zm.6 8.18h1.95v27.71h-1.95zM125.23 40.44h2l8 22.34c.21.6.38 1.14.59 1.79.22-.65.38-1.19.6-1.79l8-22.34h2l-9.86 27.71h-1.46zM168.94 63.81a11.12 11.12 0 0 1-8.78 5c-5.43 0-8.84-3.2-8.84-9 0-6 4.28-8.78 9.49-8.78a14.88 14.88 0 0 1 8.13 2.65v-4.13c0-6.56-3.25-8-6.78-8a17.33 17.33 0 0 0-8.35 2.66l-.59-1.68a18.49 18.49 0 0 1 9.11-2.77c3.84 0 8.56 1.63 8.56 9v19.39h-1.95zm0-2.28v-6a15 15 0 0 0-8.13-2.72c-3.8 0-7.38 2.23-7.38 7 0 4.34 2.61 7.21 6.73 7.21s6.84-2.88 8.78-5.49zM181 62.51V42.23h-4.71v-1.79H181V30l2-1v11.44h7v1.79h-7v20c0 2.87.59 4.66 3.36 4.66a7.81 7.81 0 0 0 4.06-1.3l-.21 2.06a8.44 8.44 0 0 1-4.07 1.14c-3.94.01-5.14-2.7-5.14-6.28zM194.93 54.27c0-9.22 4.66-14.48 11.12-14.48 5.9 0 10 4.39 10 14.48v.59h-19c.27 8.3 3.63 12 9.16 12a10.44 10.44 0 0 0 6.5-2.33l1.14 1.4a12.22 12.22 0 0 1-7.8 2.88c-7.05-.01-11.12-5.6-11.12-14.54zM214 53.08c0-9.33-4.66-11.5-8-11.5-4.94 0-8.57 3.47-9 11.5z" class="cls-2"/>
</svg>
