<svg xmlns="http://www.w3.org/2000/svg" width="788pt" height="157pt" viewBox="0 0 788 157"><path d="M420.117 125.809v2.64H406.98v7.492h12.247v2.637H406.98v8.152h13.235v2.641h-16.367V125.81zm6.399 6.5v2.707h.066c1.168-2.067 3.016-3.102 5.547-3.102 1.121 0 2.055.152 2.805.461.746.309 1.351.738 1.812 1.29.465.55.79 1.202.977 1.964.183.758.277 1.598.277 2.523v11.22h-2.805V137.82c0-1.054-.308-1.89-.922-2.507-.617-.614-1.464-.922-2.543-.922-.859 0-1.597.129-2.226.394a4.244 4.244 0 0 0-1.567 1.121 4.813 4.813 0 0 0-.94 1.7 6.874 6.874 0 0 0-.313 2.128v9.637h-2.805V132.31zm18.843-6.5v9.007h.067c.219-.527.527-.972.926-1.336.394-.363.84-.66 1.336-.89a7.149 7.149 0 0 1 1.55-.512 7.882 7.882 0 0 1 1.567-.164c1.12 0 2.058.152 2.804.461.75.309 1.356.738 1.817 1.29.46.55.785 1.202.972 1.964.188.758.282 1.598.282 2.523v11.22h-2.805V137.82c0-1.054-.309-1.89-.926-2.507-.613-.614-1.46-.922-2.539-.922-.86 0-1.601.129-2.226.394a4.227 4.227 0 0 0-1.57 1.121 4.805 4.805 0 0 0-.938 1.7 6.873 6.873 0 0 0-.317 2.128v9.637h-2.804V125.81zm30.989 21.32a3.5 3.5 0 0 1-.86.129c-.437 0-.699-.153-.773-.461-.078-.305-.117-.79-.117-1.45v-8.757c0-.988-.188-1.79-.563-2.403a3.901 3.901 0 0 0-1.484-1.433 5.967 5.967 0 0 0-2.063-.676 16.044 16.044 0 0 0-2.293-.164c-.968 0-1.875.098-2.722.297-.844.2-1.602.523-2.258.973a5.008 5.008 0 0 0-1.586 1.765c-.395.727-.617 1.617-.66 2.672h2.804c.067-1.254.497-2.105 1.29-2.555.789-.453 1.78-.675 2.968-.675.442 0 .887.03 1.336.097.453.067.86.2 1.223.395.363.199.66.484.89.86.23.374.344.87.344 1.484 0 .527-.152.93-.46 1.207-.31.273-.727.48-1.255.625-.527.144-1.136.254-1.832.332-.691.074-1.422.191-2.191.343-.727.133-1.438.297-2.129.496-.695.2-1.309.489-1.848.875-.539.383-.976.887-1.304 1.5-.332.618-.496 1.41-.496 2.375 0 .86.148 1.59.445 2.196.297.605.7 1.094 1.207 1.469.504.375 1.105.648 1.797.824a8.895 8.895 0 0 0 2.195.265c1.188 0 2.293-.203 3.317-.609 1.023-.406 1.918-1.074 2.687-1.996 0 .922.215 1.59.645 1.996.43.406 1.007.61 1.734.61.855 0 1.527-.145 2.012-.43zm-4.555-3.711c0 .394-.098.816-.297 1.266-.2.445-.508.863-.926 1.246-.418.382-.957.699-1.617.953-.656.25-1.45.375-2.375.375-.437 0-.855-.043-1.254-.13a3.068 3.068 0 0 1-1.039-.429 2.326 2.326 0 0 1-.726-.77c-.188-.316-.282-.706-.282-1.163 0-.703.16-1.254.48-1.66.321-.407.731-.72 1.24-.934a6.788 6.788 0 0 1 1.714-.477c.637-.101 1.27-.187 1.898-.265a20.068 20.068 0 0 0 1.797-.293c.574-.121 1.035-.313 1.387-.578zm10.133-11.11v2.708h.062c1.168-2.067 3.016-3.102 5.547-3.102 1.121 0 2.055.152 2.805.461.746.309 1.351.738 1.812 1.29.465.55.79 1.202.977 1.964.183.758.277 1.598.277 2.523v11.22h-2.804V137.82c0-1.054-.305-1.89-.922-2.507-.618-.614-1.465-.922-2.543-.922-.856 0-1.598.129-2.227.394a4.244 4.244 0 0 0-1.566 1.121 4.813 4.813 0 0 0-.942 1.7 6.874 6.874 0 0 0-.312 2.128v9.637h-2.805V132.31zm26.234 2.973c-.707-.594-1.652-.89-2.84-.89-1.011 0-1.86.183-2.539.558a4.585 4.585 0 0 0-1.636 1.485c-.407.617-.696 1.328-.872 2.129a11.627 11.627 0 0 0-.265 2.492c0 .793.094 1.562.281 2.308.188.75.477 1.414.875 2a4.4 4.4 0 0 0 1.55 1.403c.638.351 1.395.527 2.278.527 1.387 0 2.469-.363 3.25-1.09.781-.726 1.258-1.75 1.434-3.07h2.87c-.308 2.113-1.093 3.742-2.359 4.887-1.265 1.14-2.984 1.714-5.164 1.714-1.296 0-2.449-.21-3.449-.629a6.62 6.62 0 0 1-2.508-1.78c-.671-.77-1.175-1.688-1.515-2.755-.344-1.066-.512-2.238-.512-3.515 0-1.274.164-2.47.492-3.578.332-1.114.832-2.082 1.504-2.907a7.02 7.02 0 0 1 2.524-1.945c1.011-.473 2.187-.71 3.53-.71.97 0 1.876.116 2.724.347.847.23 1.593.59 2.246 1.07a5.94 5.94 0 0 1 1.597 1.832c.418.738.684 1.613.793 2.625h-2.902c-.223-1.078-.684-1.914-1.387-2.508zm8.02-6.039v-3.433h2.804v3.433zm2.804 3.067v17.062h-2.804V132.31zm7.325 0v2.707h.066c1.164-2.067 3.012-3.102 5.543-3.102 1.121 0 2.059.152 2.805.461.75.309 1.351.738 1.816 1.29.461.55.785 1.202.973 1.964.187.758.281 1.598.281 2.523v11.22h-2.805V137.82c0-1.054-.308-1.89-.926-2.507-.617-.614-1.46-.922-2.539-.922-.859 0-1.601.129-2.226.394a4.227 4.227 0 0 0-1.57 1.121 4.874 4.874 0 0 0-.942 1.7 6.992 6.992 0 0 0-.312 2.128v9.637h-2.805V132.31zm28.84 21.879c-1.274 1.386-3.278 2.082-6.004 2.082-.793 0-1.602-.09-2.426-.266a7.331 7.331 0 0 1-2.242-.86 5.152 5.152 0 0 1-1.668-1.55c-.442-.637-.684-1.418-.727-2.34h2.805c.023.504.183.934.48 1.285.297.352.66.637 1.086.86.43.218.899.378 1.402.476a7.4 7.4 0 0 0 1.454.148c.925 0 1.707-.16 2.343-.476a4.44 4.44 0 0 0 1.582-1.32c.418-.563.723-1.239.91-2.032.184-.793.282-1.66.282-2.605v-1.121h-.067c-.484 1.054-1.218 1.832-2.195 2.324a6.81 6.81 0 0 1-3.117.742c-1.277 0-2.39-.23-3.336-.691a6.947 6.947 0 0 1-2.375-1.864 7.916 7.916 0 0 1-1.434-2.742 11.235 11.235 0 0 1-.48-3.316c0-1.012.133-2.05.394-3.117a8.569 8.569 0 0 1 1.32-2.903c.618-.87 1.43-1.586 2.442-2.144 1.016-.563 2.258-.844 3.73-.844 1.079 0 2.07.238 2.97.711.902.473 1.609 1.184 2.113 2.129h.035v-2.445h2.636v15.609c0 2.797-.636 4.887-1.914 6.27zm-3.579-7.672a4.582 4.582 0 0 0 1.567-1.516c.394-.629.687-1.34.875-2.129.187-.793.281-1.586.281-2.379a9.38 9.38 0 0 0-.266-2.21 6.219 6.219 0 0 0-.84-1.962 4.388 4.388 0 0 0-1.503-1.402c-.614-.352-1.364-.527-2.243-.527-.902 0-1.671.168-2.308.511a4.47 4.47 0 0 0-1.57 1.368 5.87 5.87 0 0 0-.891 1.98 9.605 9.605 0 0 0-.281 2.344c0 .77.078 1.539.23 2.308a6.6 6.6 0 0 0 .793 2.098 4.48 4.48 0 0 0 1.484 1.516c.618.386 1.387.578 2.313.578.922 0 1.71-.192 2.36-.578zm36.282-20.707v2.64h-13.133v7.492h12.242v2.637h-12.242v8.152h13.234v2.641h-16.367V125.81zm2.41 6.5h3.597l4.09 5.972 4.258-5.972h3.367l-5.875 7.855 6.602 9.207h-3.598l-4.754-7.062-4.75 7.062h-3.398l6.402-8.976zm21.68 0v2.312h.066c.46-.945 1.187-1.633 2.18-2.062.988-.43 2.078-.645 3.265-.645 1.32 0 2.469.242 3.45.727a7.002 7.002 0 0 1 2.44 1.964c.65.825 1.137 1.778 1.47 2.852.328 1.078.496 2.223.496 3.434 0 1.21-.16 2.355-.48 3.43a8.133 8.133 0 0 1-1.45 2.824 6.88 6.88 0 0 1-2.445 1.894c-.977.465-2.118.695-3.414.695-.418 0-.887-.043-1.403-.132a7.567 7.567 0 0 1-1.535-.43 5.742 5.742 0 0 1-1.434-.809 4.458 4.458 0 0 1-1.14-1.27h-.067v8.778h-2.804V132.31zm10.081 6.058a6.285 6.285 0 0 0-.957-2.031 4.678 4.678 0 0 0-1.648-1.418c-.672-.352-1.457-.527-2.36-.527-.949 0-1.75.183-2.41.558-.66.375-1.199.863-1.617 1.469a6.08 6.08 0 0 0-.906 2.062 9.89 9.89 0 0 0-.281 2.344c0 .836.097 1.645.297 2.426.199.781.511 1.469.941 2.063.43.593.984 1.074 1.664 1.433.684.363 1.508.547 2.477.547.968 0 1.777-.188 2.425-.563a4.495 4.495 0 0 0 1.567-1.484c.394-.613.683-1.32.86-2.113.175-.79.26-1.606.26-2.442 0-.793-.1-1.566-.312-2.324zm18.317-1.043a4.873 4.873 0 0 0-1.024-1.531c-.43-.43-.937-.77-1.52-1.023a4.779 4.779 0 0 0-1.929-.38c-.726 0-1.383.126-1.965.38a4.53 4.53 0 0 0-1.5 1.039c-.418.441-.75.953-.992 1.535a5.793 5.793 0 0 0-.426 1.863h9.801a5.924 5.924 0 0 0-.445-1.883zm.676 10.957c-1.278.969-2.883 1.453-4.82 1.453-1.364 0-2.548-.218-3.548-.66-1-.441-1.843-1.054-2.523-1.847-.684-.793-1.195-1.739-1.535-2.84-.34-1.098-.531-2.297-.578-3.598 0-1.297.199-2.484.593-3.562.399-1.079.954-2.012 1.668-2.805a7.582 7.582 0 0 1 2.54-1.848c.98-.441 2.05-.66 3.218-.66 1.52 0 2.778.313 3.778.941a7.42 7.42 0 0 1 2.41 2.391 9.47 9.47 0 0 1 1.254 3.168c.23 1.145.324 2.234.28 3.27h-12.769a6.821 6.821 0 0 0 .262 2.129c.2.667.516 1.261.957 1.78.442.516 1 .93 1.684 1.235.68.313 1.484.465 2.41.465 1.187 0 2.16-.277 2.918-.824.762-.551 1.262-1.387 1.504-2.508h2.77c-.376 1.91-1.2 3.351-2.473 4.32zm8.511-15.972v3.597h.067c.683-1.386 1.52-2.41 2.508-3.066.992-.66 2.246-.969 3.761-.926v2.969c-1.12 0-2.078.156-2.87.465-.794.308-1.43.757-1.915 1.351-.484.594-.836 1.317-1.055 2.16-.218.848-.332 1.82-.332 2.922v7.59h-2.804V132.31zm8.946-3.067v-3.433h2.804v3.433zm2.804 3.067v17.062h-2.804V132.31zm16.086 5.015a4.808 4.808 0 0 0-1.023-1.531c-.43-.43-.934-.77-1.52-1.023a4.779 4.779 0 0 0-1.93-.38c-.726 0-1.378.126-1.96.38a4.506 4.506 0 0 0-1.504 1.039 5.004 5.004 0 0 0-.989 1.535 5.797 5.797 0 0 0-.43 1.863h9.802a5.721 5.721 0 0 0-.446-1.883zm.676 10.957c-1.277.969-2.883 1.453-4.816 1.453-1.368 0-2.547-.218-3.547-.66a6.997 6.997 0 0 1-2.528-1.847c-.68-.793-1.191-1.739-1.535-2.84-.34-1.098-.531-2.297-.574-3.598 0-1.297.195-2.484.594-3.562a8.497 8.497 0 0 1 1.664-2.805 7.558 7.558 0 0 1 2.543-1.848c.976-.441 2.05-.66 3.219-.66 1.515 0 2.777.313 3.777.941a7.407 7.407 0 0 1 2.406 2.391 9.47 9.47 0 0 1 1.254 3.168c.234 1.145.324 2.234.281 3.27h-12.77a6.708 6.708 0 0 0 .266 2.129c.196.667.516 1.261.957 1.78.438.516 1 .93 1.68 1.235.684.313 1.488.465 2.41.465 1.188 0 2.16-.277 2.922-.824.758-.551 1.258-1.387 1.5-2.508h2.774c-.375 1.91-1.2 3.351-2.477 4.32zm8.613-15.972v2.707h.067c1.164-2.067 3.011-3.102 5.543-3.102 1.12 0 2.058.152 2.804.461.75.309 1.356.738 1.817 1.29.46.55.785 1.202.972 1.964.188.758.282 1.598.282 2.523v11.22h-2.805V137.82c0-1.054-.309-1.89-.926-2.507-.617-.614-1.46-.922-2.539-.922-.86 0-1.601.129-2.226.394a4.227 4.227 0 0 0-1.57 1.121 4.805 4.805 0 0 0-.938 1.7 6.873 6.873 0 0 0-.317 2.128v9.637h-2.804V132.31zm26.235 2.972c-.703-.594-1.649-.89-2.836-.89-1.016 0-1.86.183-2.543.558a4.54 4.54 0 0 0-1.633 1.485 6.29 6.29 0 0 0-.875 2.129 11.627 11.627 0 0 0-.266 2.492c0 .793.094 1.562.282 2.308.187.75.48 1.414.875 2 .394.582.914 1.051 1.55 1.403.637.351 1.399.527 2.278.527 1.386 0 2.468-.363 3.25-1.09.781-.726 1.261-1.75 1.437-3.07h2.871c-.308 2.113-1.093 3.742-2.359 4.887-1.266 1.14-2.988 1.714-5.164 1.714-1.3 0-2.45-.21-3.45-.629-1.003-.414-1.84-1.007-2.507-1.78-.672-.77-1.18-1.688-1.52-2.755-.34-1.066-.511-2.238-.511-3.515 0-1.274.164-2.47.496-3.578.328-1.114.828-2.082 1.5-2.907a7.054 7.054 0 0 1 2.523-1.945c1.016-.473 2.192-.71 3.531-.71.97 0 1.875.116 2.723.347.848.23 1.598.59 2.246 1.07a5.901 5.901 0 0 1 1.602 1.832c.418.738.68 1.613.789 2.625h-2.903c-.218-1.078-.683-1.914-1.386-2.508zm19.254 2.043a4.744 4.744 0 0 0-1.024-1.531 4.779 4.779 0 0 0-3.445-1.402c-.727 0-1.383.125-1.965.379a4.49 4.49 0 0 0-1.5 1.039c-.418.441-.75.953-.992 1.535a5.901 5.901 0 0 0-.43 1.863h9.805a5.826 5.826 0 0 0-.45-1.883zm.68 10.957c-1.278.969-2.884 1.453-4.821 1.453-1.363 0-2.547-.218-3.547-.66-1-.441-1.844-1.054-2.523-1.847-.684-.793-1.196-1.739-1.535-2.84-.34-1.098-.536-2.297-.579-3.598 0-1.297.2-2.484.594-3.562.399-1.079.953-2.012 1.668-2.805a7.582 7.582 0 0 1 2.54-1.848c.98-.441 2.05-.66 3.218-.66 1.52 0 2.777.313 3.777.941a7.458 7.458 0 0 1 2.41 2.391 9.47 9.47 0 0 1 1.254 3.168c.23 1.145.325 2.234.282 3.27h-12.774c-.02.746.067 1.457.266 2.129.199.667.515 1.261.957 1.78.441.516 1 .93 1.683 1.235.68.313 1.485.465 2.41.465 1.188 0 2.16-.277 2.919-.824.757-.551 1.257-1.387 1.503-2.508h2.77c-.375 1.91-1.2 3.351-2.473 4.32zm8.116-2.722c.262.43.61.77 1.04 1.023.43.254.91.434 1.453.547.539.11 1.093.164 1.664.164.441 0 .902-.035 1.386-.102.485-.062.93-.183 1.336-.363a2.534 2.534 0 0 0 1.008-.773c.262-.34.395-.778.395-1.305 0-.727-.274-1.273-.824-1.648-.551-.375-1.239-.676-2.063-.907a34.047 34.047 0 0 0-2.691-.629 13.827 13.827 0 0 1-2.688-.793 5.595 5.595 0 0 1-2.062-1.433c-.551-.617-.825-1.473-.825-2.574 0-.86.192-1.594.579-2.211a4.655 4.655 0 0 1 1.484-1.5 6.77 6.77 0 0 1 2.047-.86 9.38 9.38 0 0 1 2.258-.28c.968 0 1.859.081 2.671.245.817.168 1.536.453 2.165.86a4.446 4.446 0 0 1 1.5 1.652c.375.691.593 1.555.66 2.59h-2.805c-.043-.551-.188-1.008-.43-1.371a2.818 2.818 0 0 0-.922-.875 4.227 4.227 0 0 0-1.238-.477 6.195 6.195 0 0 0-1.37-.148c-.419 0-.84.03-1.27.097-.43.067-.82.184-1.172.348a2.355 2.355 0 0 0-.86.66c-.218.274-.328.633-.328 1.07 0 .485.172.887.512 1.207.34.317.773.582 1.305.79.527.21 1.12.386 1.78.53.661.141 1.321.29 1.981.442.703.156 1.39.344 2.063.563a6.642 6.642 0 0 1 1.781.875c.516.363.934.82 1.254 1.37.316.548.476 1.231.476 2.044 0 1.035-.21 1.894-.64 2.574a5.044 5.044 0 0 1-1.684 1.652c-.691.418-1.472.707-2.343.875-.872.164-1.735.246-2.59.246-.946 0-1.848-.097-2.707-.297a6.687 6.687 0 0 1-2.278-.972 4.981 4.981 0 0 1-1.582-1.781c-.398-.739-.617-1.637-.66-2.692h2.805c.02.617.164 1.14.43 1.567zm18.973.148v3.664h-3.664v-3.664h3.664" fill="#FAB20B"/><path d="M200.441 41.504c-3.476-2.426-7.609-3.637-12.394-3.637-4.082 0-7.574.766-10.477 2.297-2.906 1.531-5.297 3.59-7.18 6.172-1.882 2.586-3.269 5.535-4.16 8.852-.894 3.32-1.34 6.765-1.34 10.335 0 3.891.446 7.579 1.34 11.055.891 3.477 2.278 6.508 4.16 9.09 1.883 2.586 4.294 4.64 7.227 6.172 2.934 1.531 6.442 2.297 10.528 2.297 2.996 0 5.66-.492 7.992-1.48 2.328-.993 4.336-2.36 6.027-4.118 1.691-1.754 3.016-3.844 3.973-6.27.957-2.421 1.531-5.039 1.722-7.843h9.09c-.894 8.61-3.86 15.308-8.898 20.094-5.043 4.785-11.934 7.18-20.672 7.18-5.297 0-9.922-.91-13.875-2.727-3.957-1.82-7.242-4.325-9.86-7.512-2.617-3.191-4.578-6.957-5.886-11.297-1.309-4.336-1.961-8.992-1.961-13.969 0-4.976.703-9.652 2.105-14.02 1.403-4.37 3.461-8.183 6.172-11.437 2.711-3.254 6.094-5.824 10.145-7.703 4.05-1.883 8.691-2.824 13.926-2.824 3.57 0 6.953.477 10.144 1.434 3.188.957 6.027 2.363 8.516 4.21 2.488 1.852 4.562 4.165 6.222 6.942 1.657 2.773 2.743 5.98 3.254 9.617h-9.094c-1.019-4.848-3.269-8.484-6.746-10.91zm61.676 58.664V92.32h-.191c-1.723 3.063-3.922 5.313-6.602 6.746-2.68 1.438-5.84 2.153-9.472 2.153-3.254 0-5.97-.43-8.137-1.29-2.168-.863-3.926-2.09-5.262-3.687-1.34-1.594-2.281-3.492-2.824-5.691-.543-2.203-.813-4.645-.813-7.324V50.69h8.133v33.493c0 3.062.895 5.488 2.68 7.277 1.785 1.785 4.242 2.676 7.367 2.676 2.488 0 4.645-.383 6.461-1.149 1.82-.765 3.332-1.847 4.547-3.254 1.21-1.402 2.121-3.043 2.726-4.925.606-1.883.91-3.942.91-6.172V50.69h8.133v49.477zm29.192-49.477v10.43h.187c1.98-4.02 4.406-6.984 7.277-8.898 2.872-1.914 6.504-2.809 10.907-2.68v8.613c-3.25 0-6.028.446-8.325 1.34-2.296.895-4.148 2.2-5.55 3.922-1.403 1.723-2.426 3.812-3.063 6.27-.637 2.457-.957 5.28-.957 8.468v22.012h-8.133V50.691zm33.78 0v10.43h.192c1.977-4.02 4.403-6.984 7.274-8.898 2.87-1.914 6.507-2.809 10.91-2.68v8.613c-3.254 0-6.031.446-8.328 1.34-2.297.895-4.149 2.2-5.551 3.922-1.402 1.723-2.426 3.812-3.063 6.27-.636 2.457-.957 5.28-.957 8.468v22.012h-8.132V50.691zm67.372 0h-8.613l-13.875 40.48h-.196l-14.449-40.48h-9.187l19.62 49.188-3.35 8.328c-.575 1.465-1.423 2.598-2.536 3.395-1.117.796-2.504 1.199-4.164 1.199-.637 0-1.422-.114-2.344-.336-.926-.227-1.738-.496-2.441-.813v7.465c.894.317 1.82.54 2.777.668.957.13 1.914.192 2.871.192 1.785 0 3.363-.239 4.735-.72 1.37-.476 2.617-1.241 3.734-2.292 1.113-1.055 2.137-2.41 3.062-4.07.922-1.66 1.868-3.7 2.825-6.125zm44.355-9.523c-3.03-2.2-6.906-3.3-11.625-3.3-1.914 0-3.796.19-5.648.573-1.852.383-3.492 1.02-4.93 1.914a10.066 10.066 0 0 0-3.441 3.586c-.863 1.5-1.293 3.368-1.293 5.602 0 2.105.621 3.812 1.863 5.117 1.246 1.309 2.903 2.38 4.977 3.207 2.074.832 4.418 1.516 7.035 2.059 2.617.543 5.277 1.133 7.992 1.77a95.81 95.81 0 0 1 7.988 2.25c2.618.859 4.961 2.027 7.036 3.492a16.635 16.635 0 0 1 4.976 5.55c1.246 2.235 1.867 5.04 1.867 8.422 0 3.637-.812 6.746-2.441 9.332a20.122 20.122 0 0 1-6.27 6.317c-2.55 1.625-5.406 2.804-8.562 3.539-3.16.734-6.3 1.101-9.43 1.101-3.824 0-7.445-.48-10.86-1.437-3.413-.957-6.41-2.407-8.995-4.352-2.582-1.945-4.625-4.433-6.125-7.465-1.5-3.03-2.25-6.62-2.25-10.765h8.613c0 2.87.559 5.343 1.676 7.414 1.117 2.074 2.586 3.781 4.402 5.12 1.817 1.34 3.938 2.329 6.363 2.966 2.426.64 4.914.957 7.465.957 2.043 0 4.098-.192 6.172-.575 2.074-.382 3.942-1.035 5.602-1.96a11.096 11.096 0 0 0 4.015-3.782c1.024-1.593 1.532-3.636 1.532-6.125 0-2.355-.622-4.27-1.864-5.742-1.246-1.465-2.906-2.66-4.976-3.586-2.075-.926-4.418-1.676-7.035-2.25-2.618-.574-5.282-1.164-7.993-1.77a108.377 108.377 0 0 1-7.988-2.105c-2.617-.797-4.965-1.851-7.035-3.16a15.1 15.1 0 0 1-4.977-5.07c-1.246-2.075-1.867-4.672-1.867-7.801 0-3.445.703-6.426 2.106-8.945a18.392 18.392 0 0 1 5.597-6.223c2.328-1.629 4.98-2.84 7.946-3.637a35.061 35.061 0 0 1 9.14-1.195c3.508 0 6.762.414 9.762 1.242 2.996.832 5.629 2.14 7.894 3.926 2.262 1.785 4.051 4.035 5.36 6.746 1.305 2.715 2.023 5.95 2.152 9.715h-8.613c-.512-4.914-2.281-8.473-5.313-10.672zm35.504 42.3c.797 2.329 1.899 4.274 3.301 5.837 1.406 1.562 3.047 2.761 4.93 3.59a14.7 14.7 0 0 0 5.98 1.242c2.106 0 4.102-.414 5.985-1.242a14.33 14.33 0 0 0 4.925-3.59c1.403-1.563 2.504-3.508 3.301-5.836.797-2.328 1.2-4.992 1.2-7.992 0-2.997-.403-5.66-1.2-7.993-.797-2.328-1.898-4.289-3.3-5.882-1.403-1.594-3.047-2.809-4.926-3.637a14.708 14.708 0 0 0-5.985-1.246c-2.101 0-4.097.418-5.98 1.246-1.883.828-3.524 2.043-4.93 3.637-1.402 1.593-2.504 3.554-3.3 5.882-.798 2.332-1.196 4.996-1.196 7.993 0 3 .398 5.664 1.195 7.992zm-8.277-18.183c1.02-3.16 2.55-5.902 4.594-8.23 2.043-2.328 4.562-4.164 7.558-5.504 3-1.34 6.446-2.008 10.336-2.008 3.957 0 7.418.668 10.383 2.008 2.969 1.34 5.473 3.176 7.516 5.504 2.039 2.328 3.57 5.07 4.593 8.23 1.02 3.156 1.532 6.555 1.532 10.192 0 3.636-.512 7.02-1.532 10.144-1.023 3.125-2.554 5.856-4.593 8.184-2.043 2.328-4.547 4.144-7.516 5.453-2.965 1.308-6.426 1.96-10.383 1.96-3.89 0-7.336-.652-10.336-1.96-2.996-1.309-5.515-3.125-7.558-5.453-2.043-2.328-3.575-5.059-4.594-8.184-1.02-3.125-1.531-6.508-1.531-10.144 0-3.637.511-7.036 1.531-10.192zm53.016-7.418v-7.176h8.328v-7.37c0-4.02 1.164-7.063 3.492-9.137 2.328-2.075 5.726-3.114 10.191-3.114.766 0 1.645.067 2.633.192.988.129 1.867.32 2.633.574v7.082a10.085 10.085 0 0 0-2.297-.523 19.786 19.786 0 0 0-2.297-.145c-1.98 0-3.512.383-4.594 1.148-1.086.766-1.628 2.235-1.628 4.403v6.89h9.57v7.176h-9.57v42.301h-8.133v-42.3zm56.367-7.176v7.176h-9.856V88.59c0 .957.078 1.719.239 2.293.16.578.46 1.023.91 1.34.445.32 1.066.527 1.867.625.797.093 1.832.14 3.11.14h3.73v7.18h-6.219c-2.105 0-3.91-.145-5.406-.43-1.5-.289-2.715-.816-3.64-1.582-.923-.765-1.61-1.847-2.056-3.254-.449-1.402-.671-3.254-.671-5.55V57.867h-8.422v-7.176h8.422V35.855h8.136v14.836zm51.297 49.477l-10.051-39.332h-.192l-9.953 39.332h-8.804l-15.887-49.477h8.996l11.2 40.48h.19l9.954-40.48h8.898l10.336 40.48h.192l11.101-40.48h8.422l-15.79 49.477zm77.898-6.508c-.957.254-1.789.383-2.488.383-1.278 0-2.028-.445-2.25-1.336-.223-.894-.336-2.293-.336-4.203V63.102c0-2.864-.543-5.188-1.625-6.97-1.086-1.784-2.524-3.167-4.309-4.155-1.785-.985-3.777-1.637-5.98-1.957a46.67 46.67 0 0 0-6.653-.477c-2.804 0-5.437.285-7.894.86-2.457.574-4.64 1.515-6.555 2.824-1.914 1.308-3.445 3.015-4.593 5.12-1.149 2.106-1.786 4.688-1.915 7.75h8.133c.196-3.636 1.438-6.109 3.735-7.417 2.297-1.305 5.168-1.961 8.613-1.961 1.273 0 2.566.097 3.875.289 1.308.191 2.488.574 3.543 1.148 1.05.574 1.914 1.403 2.582 2.489.672 1.085 1.004 2.52 1.004 4.304 0 1.531-.446 2.696-1.34 3.492-.895.801-2.106 1.407-3.637 1.82-1.531.415-3.3.735-5.308.958a74.726 74.726 0 0 0-6.368 1.004 65.97 65.97 0 0 0-6.171 1.433c-2.008.578-3.797 1.422-5.36 2.54-1.562 1.117-2.82 2.566-3.777 4.355-.957 1.785-1.438 4.082-1.438 6.886 0 2.489.43 4.614 1.293 6.368.86 1.754 2.024 3.172 3.493 4.257 1.468 1.086 3.207 1.883 5.214 2.391 2.012.512 4.13.766 6.364.766 3.449 0 6.652-.59 9.62-1.77 2.966-1.18 5.563-3.11 7.798-5.789 0 2.68.625 4.61 1.867 5.79 1.246 1.179 2.918 1.769 5.023 1.769 2.489 0 4.434-.414 5.84-1.242zm-13.207-10.758c0 1.141-.289 2.364-.863 3.664-.574 1.301-1.465 2.508-2.68 3.621-1.21 1.11-2.773 2.032-4.687 2.762-1.914.73-4.211 1.094-6.891 1.094-1.277 0-2.488-.125-3.637-.379-1.148-.258-2.152-.668-3.015-1.238a6.842 6.842 0 0 1-2.106-2.239c-.543-.921-.812-2.046-.812-3.382 0-2.032.46-3.633 1.386-4.809.926-1.176 2.121-2.082 3.59-2.715 1.465-.633 3.125-1.094 4.977-1.379 1.847-.285 3.683-.539 5.504-.761a61.024 61.024 0 0 0 5.215-.86c1.656-.347 2.996-.902 4.02-1.668zm30.047-32.21v10.43h.191c1.977-4.02 4.403-6.985 7.274-8.9 2.87-1.913 6.508-2.808 10.91-2.679v8.613c-3.254 0-6.027.446-8.324 1.34-2.297.895-4.149 2.2-5.551 3.922-1.406 1.723-2.426 3.812-3.063 6.27-.64 2.457-.957 5.28-.957 8.468v22.012h-8.136V50.691zm57.758 14.546c-.735-1.722-1.727-3.207-2.969-4.453-1.242-1.242-2.71-2.23-4.402-2.965-1.692-.734-3.559-1.101-5.598-1.101-2.105 0-4.004.367-5.695 1.101-1.692.735-3.145 1.739-4.356 3.016a14.473 14.473 0 0 0-2.87 4.45 17.045 17.045 0 0 0-1.243 5.405h28.422a16.744 16.744 0 0 0-1.29-5.453zm1.96 31.77c-3.702 2.808-8.359 4.21-13.972 4.21-3.957 0-7.387-.636-10.289-1.913-2.902-1.274-5.344-3.063-7.32-5.36-1.977-2.297-3.461-5.039-4.45-8.226-.992-3.192-1.546-6.668-1.675-10.434 0-3.762.574-7.21 1.722-10.336 1.149-3.125 2.758-5.836 4.832-8.133a21.956 21.956 0 0 1 7.371-5.359c2.836-1.277 5.95-1.914 9.329-1.914 4.402 0 8.054.906 10.96 2.727 2.903 1.82 5.231 4.132 6.985 6.937a27.421 27.421 0 0 1 3.637 9.188c.668 3.32.941 6.476.812 9.472h-37.035c-.063 2.172.191 4.23.766 6.176a13.976 13.976 0 0 0 2.777 5.168c1.273 1.5 2.898 2.695 4.879 3.586 1.976.894 4.304 1.34 6.984 1.34 3.446 0 6.27-.797 8.473-2.39 2.2-1.595 3.648-4.02 4.351-7.274h8.04c-1.086 5.55-3.477 9.73-7.176 12.535" fill="#4C3651"/><path d="M141.05 68.723V64.37h-1.695c-2.675 0-4.593-1.52-5.5-2.422-1.527-1.527-2.3-4.062-2.3-7.547V29.523c0-6.128-.727-8.824-2.989-11.085-2.238-2.239-5.414-3.11-11.328-3.11h-1.21v4.469h1.093c4.438 0 6.106.383 7.422 1.703 1.332 1.46 1.82 3.664 1.82 8.145v24.878c0 5.805 1.985 9.059 7.07 11.606l.844.418-.843.418c-5.086 2.547-7.07 5.797-7.07 11.601v24.88c0 4.48-.489 6.683-1.805 8.128-1.332 1.332-2.996 1.715-7.438 1.715h-1.094v4.473h1.211c5.918 0 9.094-.875 11.328-3.11 2.262-2.261 2.989-4.953 2.989-11.086V78.684c0-3.48.773-6.02 2.304-7.547.907-.903 2.825-2.414 5.496-2.414zm-27.413-12.399c0-11.996-25.274-21.722-56.45-21.722-31.175 0-56.449 9.726-56.449 21.722s25.274 21.723 56.45 21.723c31.175 0 56.449-9.727 56.449-21.723zm-6.68-.554c0 9.53-22.367 17.253-49.957 17.253-27.594 0-49.96-7.722-49.96-17.253 0-9.528 22.366-17.254 49.96-17.254 27.59 0 49.957 7.726 49.957 17.254zM70.781 17.305C74.215 13 75.13 5.512 67.805.645c0 0 1.605 4.867-2.516 13.101-4.121 8.238-2.52 11.797 2.29 16.102 0 0-.231-8.235 3.202-12.543zm-16.82-.188c3.434-4.305 4.348-11.793-2.977-16.664 0 0 1.602 4.871-2.52 13.11-4.116 8.238-2.515 11.792 2.29 16.097 0 0-.227-8.234 3.207-12.543zm4.785 62.973c-28.625.2-43.101-4.942-54.687-14.313 2.64 23.918 27.406 45.051 55.027 44.465 24.191-.508 47.531-16.523 50.598-43.953-8.118 8.168-26.746 13.629-50.938 13.8" fill="#FAB20B"/></svg>