<svg width="197pt" height="203pt" viewBox="0 0 197 203" xmlns="http://www.w3.org/2000/svg"><path fill="#1b96fe" d="M0 0h.71c1.9 1.51 4.3 2.06 6.57 2.76C70.53 23.22 133.73 43.92 197 64.32v.28c-3.29 1.66-5.72 4.53-8.48 6.91-30.01 27.02-60.02 54.05-90.04 81.06-18.33 16.68-36.98 33.02-55.15 49.88C29.7 137.61 15.77 72.84 2.09 8.02c-.58-2.16-.6-4.7-2.09-6.48V0z"/><path fill="#fff" d="M.71 0H197v64.32C133.73 43.92 70.53 23.22 7.28 2.76 5.01 2.06 2.61 1.51.71 0zM0 1.54c1.49 1.78 1.51 4.32 2.09 6.48C15.77 72.84 29.7 137.61 43.33 202.45c18.17-16.86 36.82-33.2 55.15-49.88 30.02-27.01 60.03-54.04 90.04-81.06 2.76-2.38 5.19-5.25 8.48-6.91V203H0V1.54z"/><path fill="#fff" d="M40.45 62.3c1.54-.05 3.07-.09 4.61-.12.21 14.28.02 28.58.09 42.87-1.79.34-2.88-.67-3.56-2.22-4.08 3.96-11.5 4.26-15.28-.23-3.27-3.43-1.78-8.46-2.09-12.68.36-4.29-1.22-9.33 1.91-12.92 3.4-4.26 10.26-4.45 14.43-1.24-.24-4.48-.13-8.97-.11-13.46zm37.65-.1c8 .01 16-.02 23.99.02.11 1.41.03 2.86-.73 4.09-5.91 11.46-11.71 22.98-17.68 34.4 6.14-.24 12.29-.17 18.44-.05.02 1.42.04 2.85.05 4.28-8.34.01-16.69.23-25.02-.12.24-1.31.43-2.65 1.09-3.83C84.12 89.6 89.89 78.15 95.8 66.77c-5.9.04-11.81.03-17.71.02 0-1.53 0-3.06.01-4.59zm32.07 5.05c1.42-.34 2.85-.69 4.28-1.03.26 2.66.27 5.33.18 8 2.56-.01 5.11-.02 7.67-.02.08 1.4.15 2.81.21 4.21-2.62.35-5.25.31-7.88.23.23 6.45-.33 12.94.3 19.37.98 3.16 4.78 3.08 7.45 3.08.01 1.3.01 2.59.01 3.89-2.16 0-4.33.13-6.48-.14-3.32-.94-5.96-4.32-5.71-7.83.01-6.13.01-12.25.03-18.38-1.74.03-3.48.05-5.22.1-.39-1.49-.31-3.02-.15-4.53 1.79.01 3.58.01 5.37.02-.01-2.33-.02-4.65-.06-6.97zm-52.96 7.08c3.1-1.05 6.56-1.02 9.66-.02 3.33 1.44 5.79 4.95 5.55 8.65-.02 7.4-.01 14.8-.02 22.21-1.77.2-2.8-1.03-3.72-2.31-3.7 3.74-10.19 4.07-14.22.71-4.3-3.7-4.19-11.36.42-14.77 3.6-2.99 8.61-1.35 12.87-1.81-.2-2.68.77-6.13-1.85-7.93-3.86-3.14-10.48-.1-9.73 5.13-1.5-.14-2.99-.28-4.49-.41-.41-3.94 1.85-7.94 5.53-9.45zm70.87 9.42c-.45-5.14 3.69-10.08 8.94-10.11 4.94-.89 10.93 1.87 11.72 7.2.26 8.09.05 16.19.08 24.29-1.67.23-2.73-.74-3.44-2.15-3.9 3.15-9.95 4.17-14.03.81-5.43-4.03-4.29-13.99 2.23-16.32 3.45-.88 7.1-.29 10.63-.43-.05-2.83.76-6.56-2.15-8.3-3.95-2.58-10.06.31-9.37 5.37l-4.61-.36z"/><path fill="#1b96fe" d="M32.21 78.16c2.91-.83 6.8-.17 8.09 2.92.25 5.65.18 11.34.04 16.99-1.7 4.65-9.86 4.65-11.4-.12-.24-4.98-.04-9.98-.11-14.96-.2-2.16 1.43-4.12 3.38-4.83zm24.3 20.47c-1.04-2.69-.43-6.45 2.54-7.62 2.87-.62 5.83-.22 8.74-.25-.42 3.26 1.14 7.69-2.19 9.83-2.84 1.43-7.58 1.4-9.09-1.96zm78.69-7.54c2.94-.72 6.01-.28 9.01-.38-.23 3.46 1.21 8.05-2.44 10.21-2.93.84-6.96 1-8.68-2.05-1.15-2.67-.6-6.25 2.11-7.78z"/></svg>