<svg height="110" viewBox="0 0 400 110" width="400" xmlns="http://www.w3.org/2000/svg"><path d="m146.09431 82.39878h9.119254l-1.510678-7.25953v-43.2797097h-8.723304v19.7400324c-2.624028-3.1201256-6.2331-4.9505804-10.49473-4.9505804-8.724684 0-15.479278 7.3926025-15.479278 18.2479216 0 10.8539033 6.754594 18.2479215 15.479278 18.2479215 4.329231 0 8.066608-1.8998224 10.692015-5.1572675l.917443 4.4097964zm172.440815-26.0482356c1.771425 0 3.410408.4728321 4.918327 1.5572315l4.133326-9.562817c-1.903869-1.2231345-4.133326-1.7639185-6.296562-1.7639185-3.936041 0-7.215386 1.8262078-9.3124 5.2238037l-.920203-4.4140433h-8.986811l1.443077 6.8518184v28.1504981h8.719166v-22.315127c1.18095-2.3075339 3.411787-3.7302772 6.297941-3.7302772v.0028313zm25.578059 17.3645466c-5.046631 0-8.788147-3.4584695-8.788147-8.8195928 0-5.4262439 3.741516-8.8167615 8.788147-8.8167615 5.118371 0 8.792285 3.3905176 8.792285 8.8167615 0 5.3611233-3.673914 8.8195928-8.790906 8.8195928zm-216.647812-8.8195928c0-5.4262439 3.738756-8.8167615 8.788146-8.8167615 5.118371 0 8.790906 3.3905176 8.790906 8.8167615 0 5.3611233-3.672535 8.8195928-8.788147 8.8195928-5.04939 0-8.790905-3.4584695-8.790905-8.8195928zm255.283924 8.8195928c-5.04939 0-8.788146-3.4584695-8.788146-8.8195928 0-5.4262439 3.738756-8.8167615 8.788146-8.8167615 5.115612 0 8.788147 3.3905176 8.788147 8.8167615 0 5.3611233-3.672535 8.8195928-8.788147 8.8195928zm-206.351746-18.1799696c4.525136 0 7.477512 2.1702144 8.394956 6.1722993h-16.789912c.983665-4.0020849 3.934661-6.1722993 8.393576-6.1722993zm104.354064 0c4.527896 0 7.480272 2.1702144 8.397716 6.1722993h-16.789913c.983666-4.0020849 3.934662-6.1722993 8.393577-6.1722993zm-42.565256 26.8636586h14.036201l9.119254-35.0037323h-9.511064l-6.688373 28.3557695-6.691132-28.3557695h-9.38138l9.119254 35.0023166zm-22.498758 0h8.719166v-35.0051479h-8.719166zm-37.953203.6483745c4.856244 0 9.643507-1.3590384 13.64439-4.0035005l-3.344186-7.7323621c-3.149661 1.6959666-6.624911 2.7138297-10.167761 2.7138297-4.589979 0-7.804481-1.8318705-9.182717-5.2238037h24.529552c.262127-1.2882552.395949-2.5765103.395949-4.1379888 0-10.8539033-7.280227-18.1120177-17.054798-18.1120177-9.836654 0-17.052039 7.3260663-17.052039 18.2479216 0 11.1242954 7.149164 18.2479215 18.234369 18.2479215zm222.265603-18.1516563c0-10.8539034-7.346449-18.2479216-17.250704-18.2479216-9.905634 0-17.250703 7.3940182-17.250703 18.2479216 0 10.855319 7.345069 18.2479215 17.249324 18.2479215 9.905634 0 17.250703-7.3926025 17.250703-18.2479215zm-118.064676 18.2479215c4.850725 0 9.639368-1.356207 13.64439-4.0020849l-3.348325-7.7366091c-3.148281 1.6959667-6.62491 2.7124141-10.167761 2.7124141-4.589979 0-7.804481-1.8290391-9.182716-5.2238037h24.53231c.262127-1.2882551.391811-2.5765103.391811-4.1365731 0-10.8539034-7.281607-18.1120177-17.054798-18.1120177-9.836654 0-17.05204 7.3246506-17.05204 18.2479216 0 11.1242953 7.150544 18.2479215 18.235749 18.2479215v.0028313zm62.179239 0c9.905635 0 17.249324-7.3926025 17.249324-18.2479215 0-10.8539034-7.345069-18.2479216-17.250703-18.2479216-9.905635 0-17.250704 7.3940182-17.250704 18.2479216 0 10.855319 7.346449 18.2479215 17.249324 18.2479215zm-144.956128-.7460554h8.721925v-50.5392397h-8.723305v50.5392397zm20.921859-39.8226558c3.082059 0 5.44396-2.4434377 5.44396-5.6994672 0-3.2560294-2.359142-5.6980515-5.442581-5.6980515-3.148281 0-5.510181 2.4420221-5.510181 5.6980515 0 3.2560295 2.36328 5.6980515 5.511561 5.6980515zm-149.8647982-42.57329284-4.9942056 48.50351344-8.5191214-40.89289852-26.7093428 5.79573242 8.5149826 40.8900672-38.5078086 8.3524233 6.80150102 32.663638 67.71701338 14.6861085 15.4861763-35.4935523 7.3699023-71.59017785-27.1618564-2.91626985.0027592.00283133zm-21.3978257 70.36279634c-1.3961702 1.3052431-3.2420948 1.1849116-5.2011478.519549-1.9549142-.6625312-2.8240716-3.07624-2.0832184-5.9939255.5518459-2.1659674 3.1496606-2.4915703 4.4492578-2.514221.4939021-.008494.9795265.0934339 1.4279013.300121.9188235.4246995 2.475029 1.3307251 2.7909608 2.7124141.4552729 1.9932563.0165553 3.6665723-1.3796148 4.9718154h-.0027593v.0028313zm19.6043265 2.2509073c-1.0140169 1.7978945-3.6766735 2.0357262-6.296562.7276518-1.765907-.8833749-1.7521108-3.1314509-1.5589648-4.5018146.102523-.7474402.3978295-1.4531907.8553612-2.0442203.630484-.815423 1.6831301-1.8785874 2.8999504-1.9111477 1.9783676-.0537952 3.6808123.8522303 4.6424038 2.4915704.9657304 1.6336774.4828652 3.4358189-.5339109 5.2379604z" fill="#00ccbc"/></svg>