<svg viewBox="89.9 347.3 432.2 98.4" xmlns="http://www.w3.org/2000/svg"><g fill="#007ee5"><path d="m211.2 366.9h20.9c17.9 0 29.2 11.6 29.2 29.6s-11.3 29.6-29.2 29.6h-20.9zm20.4 48.3c11.3 0 17.4-7.2 17.4-18.7 0-11.6-6.2-18.8-17.4-18.8h-8.2v37.5zm61.4-20.4c-1.6-1-3.8-1.4-6-1.4-4 0-7.3 2.1-8.2 6.1v26.7h-12v-43.2h12v4.2c1.8-3.1 5.4-5.2 9.6-5.2 2 0 3.9.4 4.5.8zm23.8 32.2c-12.5 0-21.1-9.3-21.1-22.5 0-13.3 8.6-22.6 21.1-22.6s21.1 9.3 21.1 22.6-8.5 22.5-21.1 22.5zm0-34.8c-6 0-9.3 5.2-9.3 12.4 0 7.1 3.3 12.3 9.3 12.3s9.3-5.2 9.3-12.3c0-7.2-3.3-12.4-9.3-12.4zm38.2 49.8h-12v-59h12v3.6c1.9-2.3 6.2-4.5 10.8-4.5 12.5 0 19.7 10.4 19.7 22.6 0 12.1-7.1 22.5-19.7 22.5-4.6 0-8.9-2.2-10.8-4.5zm0-30.4c1.4 3 4.6 5 8.1 5 6.5 0 10.3-5.2 10.3-12 0-6.9-3.9-12.1-10.3-12.1-3.6 0-6.7 2.1-8.1 5zm47.7 14.5h-12v-62.6h12v23.1c1.9-2.3 6.2-4.5 10.8-4.5 12.5 0 19.6 10.2 19.6 22.6s-7 22.5-19.6 22.5c-4.6 0-8.9-2.2-10.8-4.5zm0-14.5c1.3 3 4.5 5 8.1 5 6.5 0 10.3-5.2 10.3-12 0-6.9-3.9-12.1-10.3-12.1-3.5 0-6.7 2.1-8.1 5zm55.7 15.6c-12.5 0-21.1-9.3-21.1-22.5 0-13.3 8.6-22.6 21.1-22.6s21.1 9.3 21.1 22.6c0 13.2-8.6 22.5-21.1 22.5zm0-34.9c-6 0-9.3 5.2-9.3 12.4 0 7.1 3.3 12.3 9.3 12.3s9.3-5.2 9.3-12.3c0-7.2-3.3-12.4-9.3-12.4z"/><path d="m506.4 403.8 15.7 22.3h-13.2l-9.3-13.5-9.4 13.5h-12.5l15.5-22-14.6-21.1h13.2l8.3 12.2 8.5-12.2h12.5z"/><path d="m121.1 347.3-31.2 20.1 21.6 17.4 31.3-19.3z"/><path d="m89.9 401.9 31.2 20.5 21.7-18.2-31.3-19.4z"/><path d="m142.8 404.2 21.8 18.2 31.1-20.3-21.5-17.3z"/><path d="m195.7 367.6-31.1-20.3-21.8 18.2 31.4 19.3z"/><path d="m142.9 408.1-21.8 18.1-9.4-6.1v6.9l31.2 18.7 31.2-18.7v-6.9l-9.4 6.1z"/></g></svg>