<svg xmlns="http://www.w3.org/2000/svg" viewBox="89.9 347.3 432.2 98.4"><path fill="#007EE5" d="M211.2 366.9h20.9c17.9 0 29.2 11.6 29.2 29.6s-11.3 29.6-29.2 29.6h-20.9v-59.2zm20.4 48.3c11.3 0 17.4-7.2 17.4-18.7 0-11.6-6.2-18.8-17.4-18.8h-8.2v37.5h8.2zm61.4-20.4c-1.6-1-3.8-1.4-6-1.4-4 0-7.3 2.1-8.2 6.1v26.7h-12V383h12v4.2c1.8-3.1 5.4-5.2 9.6-5.2 2 0 3.9.4 4.5.8l.1 12zm23.8 32.2c-12.5 0-21.1-9.3-21.1-22.5 0-13.3 8.6-22.6 21.1-22.6 12.5 0 21.1 9.3 21.1 22.6s-8.5 22.5-21.1 22.5zm0-34.8c-6 0-9.3 5.2-9.3 12.4 0 7.1 3.3 12.3 9.3 12.3 6 0 9.3-5.2 9.3-12.3 0-7.2-3.3-12.4-9.3-12.4zM355 442h-12v-59h12v3.6c1.9-2.3 6.2-4.5 10.8-4.5 12.5 0 19.7 10.4 19.7 22.6 0 12.1-7.1 22.5-19.7 22.5-4.6 0-8.9-2.2-10.8-4.5V442zm0-30.4c1.4 3 4.6 5 8.1 5 6.5 0 10.3-5.2 10.3-12 0-6.9-3.9-12.1-10.3-12.1-3.6 0-6.7 2.1-8.1 5v14.1zm47.7 14.5h-12v-62.6h12v23.1c1.9-2.3 6.2-4.5 10.8-4.5 12.5 0 19.6 10.2 19.6 22.6s-7 22.5-19.6 22.5c-4.6 0-8.9-2.2-10.8-4.5v3.4zm0-14.5c1.3 3 4.5 5 8.1 5 6.5 0 10.3-5.2 10.3-12 0-6.9-3.9-12.1-10.3-12.1-3.5 0-6.7 2.1-8.1 5v14.1zm55.7 15.6c-12.5 0-21.1-9.3-21.1-22.5 0-13.3 8.6-22.6 21.1-22.6 12.5 0 21.1 9.3 21.1 22.6 0 13.2-8.6 22.5-21.1 22.5zm0-34.9c-6 0-9.3 5.2-9.3 12.4 0 7.1 3.3 12.3 9.3 12.3 6 0 9.3-5.2 9.3-12.3 0-7.2-3.3-12.4-9.3-12.4z"/><path fill="#007EE5" d="M506.4 403.8l15.7 22.3h-13.2l-9.3-13.5-9.4 13.5h-12.5l15.5-22-14.6-21.1h13.2l8.3 12.2 8.5-12.2h12.5l-14.7 20.8z"/><g fill="#007EE5"><path d="M121.1 347.3L89.9 367.4 111.5 384.8 142.8 365.5z"/><path d="M89.9 401.9L121.1 422.4 142.8 404.2 111.5 384.8z"/><path d="M142.8 404.2L164.6 422.4 195.7 402.1 174.2 384.8z"/><path d="M195.7 367.6L164.6 347.3 142.8 365.5 174.2 384.8z"/><path d="M142.9 408.1L121.1 426.2 111.7 420.1 111.7 427 142.9 445.7 174.1 427 174.1 420.1 164.7 426.2z"/></g></svg>