<svg id="Слой_1" xmlns="http://www.w3.org/2000/svg" viewBox="0 0 560 280"><style>.st0{fill:#04070d}</style><path class="st0" d="M531.8 34.5c-7.7 0-14 6.3-14 14s6.3 14 14 14 14-6.3 14-14-6.3-14-14-14zM336 38.2c-2.1-1.3-4.5-1.7-6.9-1.1-2.4.6-4.4 2-5.7 4.1L267.9 131l-55.4-89.8c-1.3-2.1-3.3-3.5-5.7-4.1-2.4-.6-4.8-.2-6.9 1.1-4.3 2.6-5.6 8.3-3 12.6l63.2 102.5c1.7 2.7 4.6 4.3 7.8 4.3s6.1-1.7 7.8-4.3l63.2-102.5c2.7-4.3 1.3-10-2.9-12.6zM71.1 98.7l29.8-47.1C78.3 42.3 52.2 50.4 39 71.4c-14.9 23.6-7.8 54.9 15.7 69.8 23.6 14.9 54.9 7.8 69.8-15.7 2.5-4 8.2-5.3 12.2-2.7 2 1.3 3.4 3.2 3.9 5.5s.1 4.7-1.1 6.6c-9.7 15.4-24.9 26.1-42.7 30.1-17.8 4-36.1.9-51.4-8.9C13.5 136 4 93.8 24.1 62 33.8 46.6 49 35.9 66.8 31.9c17.8-4 36.1-.9 51.4 8.9 2 1.3 3.4 3.2 3.9 5.5s.1 4.7-1.1 6.6l-35 55.2c-2.5 4-8.2 5.3-12.2 2.7-4-2.5-5.3-8-2.7-12.1zM503.2 84c-9.8-8.3-12.3-16-14.9-24-3.4-10.5-7.3-22.5-28.2-26.6-19.9-3.9-40.1 9.9-51.2 25.3-19.9 27.5-20 74.6 9.6 96.5 9.8 7.3 24.1 11.4 39.3 11.4 5.2 0 10.4-.5 15.2-1.5 16.8-3.4 29.8-12.1 37.6-25.2C523.5 118 521 99.2 503.2 84zm-74.8 57.8c-21.6-16-21-52.6-6-73.4 6.9-9.5 19-19.1 30.7-19.1 1.3 0 2.6.1 3.8.4 11.3 2.2 12.6 6.1 15.6 15.4 2.9 9 6.6 20.2 20 31.6 11.5 9.7 12.6 19.8 3.8 34.7-6.6 11.2-18.1 15.7-26.5 17.4-14.9 3-31.9.1-41.4-7z"/><g><path class="st0" d="M91.7 233.5c1.2 0 2.2-.5 3-1.4.8-.9 1.2-2.1 1.2-3.7h4.3v.1c.1 2.4-.8 4.4-2.4 6.1-1.7 1.6-3.7 2.5-6.1 2.5-3.2 0-5.6-1.1-7.3-3.2-1.7-2.1-2.5-4.9-2.5-8.2v-3.5c0-3.3.8-6.1 2.5-8.2s4.1-3.2 7.3-3.2c2.6 0 4.7.9 6.3 2.6s2.4 3.9 2.3 6.7l-.1.1H96c0-1.7-.4-3.1-1.2-4.2s-1.8-1.6-3.1-1.6c-1.8 0-3.1.7-3.9 2.2-.8 1.5-1.1 3.4-1.1 5.6v3.5c0 2.3.4 4.2 1.1 5.6.8 1.5 2.1 2.2 3.9 2.2zm46.2-11.2c0-3.4.9-6.2 2.6-8.3 1.8-2.2 4.2-3.3 7.3-3.3 3.1 0 5.5 1.1 7.2 3.3 1.8 2.2 2.7 5 2.7 8.3v3.2c0 3.4-.9 6.2-2.6 8.3-1.8 2.2-4.2 3.2-7.2 3.2-3.1 0-5.5-1.1-7.3-3.2-1.8-2.2-2.6-4.9-2.6-8.3v-3.2zm4.7 3.3c0 2.3.4 4.2 1.3 5.7.8 1.5 2.1 2.2 3.9 2.2 1.7 0 3-.7 3.8-2.2.9-1.5 1.3-3.4 1.3-5.7v-3.3c0-2.3-.4-4.2-1.3-5.7s-2.1-2.3-3.8-2.3c-1.7 0-3 .7-3.9 2.2-.8 1.5-1.3 3.4-1.3 5.7v3.4zm58.2-14.4l.3 3.5c.7-1.3 1.6-2.2 2.6-2.9 1.1-.7 2.3-1 3.7-1 1.4 0 2.6.4 3.6 1.2 1 .8 1.8 2 2.3 3.5.7-1.5 1.5-2.6 2.6-3.5 1.1-.8 2.4-1.2 3.9-1.2 2.2 0 3.9.9 5.1 2.7 1.2 1.8 1.9 4.5 1.9 8.1v15.1H222v-15.2c0-2.6-.3-4.4-1-5.5-.6-1.1-1.6-1.6-2.8-1.6-1.1 0-2 .4-2.7 1.2-.7.8-1.3 1.9-1.6 3.3v17.7h-4.8v-15.2c0-2.5-.3-4.3-1-5.4-.7-1.1-1.6-1.6-2.9-1.6-1 0-1.9.3-2.6.8-.7.6-1.3 1.3-1.6 2.3v19.1h-4.8v-25.5h4.6zm84.6 14.9c0 3.4-.7 6-2.2 8.1-1.5 2-3.5 3-6.1 3-1.2 0-2.3-.2-3.3-.7-.9-.5-1.8-1.2-2.4-2.1v12.2h-4.8v-35.3h4.3l.3 2.9c.7-1.1 1.5-1.9 2.5-2.5 1-.6 2.1-.9 3.4-.9 2.7 0 4.7 1.1 6.2 3.3 1.5 2.2 2.2 5.2 2.2 8.8v3.2zm-4.8-3.2c0-2.5-.4-4.5-1.2-6.1-.8-1.6-2.1-2.4-3.7-2.4-1 0-1.9.3-2.6.9-.7.6-1.3 1.4-1.7 2.4v12.9c.4 1 1 1.7 1.7 2.2.7.5 1.6.8 2.7.8 1.6 0 2.9-.7 3.7-2.1.8-1.4 1.2-3.2 1.2-5.4v-3.2zm56.6 13.8c-.2-.6-.3-1.1-.4-1.7-.1-.6-.2-1.1-.2-1.7-.7 1.1-1.6 2.1-2.7 2.8-1.1.7-2.3 1.1-3.6 1.1-2.2 0-3.8-.7-5-2-1.2-1.4-1.8-3.2-1.8-5.4 0-2.4.8-4.3 2.5-5.7 1.7-1.4 4-2.1 7-2.1h3.6v-2.6c0-1.5-.3-2.7-1-3.6-.7-.9-1.7-1.3-2.9-1.3-1.1 0-2.1.4-2.8 1.2-.7.8-1 1.8-1 2.9h-4.5l-.1-.1c-.1-2 .7-3.7 2.4-5.3 1.6-1.5 3.8-2.3 6.4-2.3 2.5 0 4.5.7 6.1 2.2 1.6 1.5 2.3 3.6 2.3 6.3v11.8c0 1 .1 1.9.2 2.9s.3 1.8.6 2.7h-5.1zm-5.8-3.2c1.1 0 2.1-.3 3-1 .9-.7 1.6-1.5 2-2.5v-5.2h-3.6c-1.5 0-2.6.5-3.4 1.4-.8.9-1.2 2.1-1.2 3.4 0 1.2.3 2.1.8 2.8.6.8 1.4 1.1 2.4 1.1zm53.8-22.3l.3 3.8c.7-1.3 1.6-2.4 2.7-3.1 1.1-.7 2.3-1.1 3.7-1.1 2.2 0 4 .8 5.2 2.5s1.9 4.2 1.9 7.7v15.8h-4.8v-15.7c0-2.4-.3-4-1-5s-1.7-1.5-3.1-1.5c-1 0-1.8.3-2.6.9-.8.6-1.4 1.4-1.8 2.5v18.9h-4.8v-25.5h4.3zm60.5 16.7l.4 1.7h.1l4.9-18.4h5.2l-8.9 29.4c-.6 1.8-1.4 3.3-2.4 4.5-1 1.2-2.5 1.8-4.4 1.8-.4 0-.8 0-1.3-.1-.4-.1-.9-.2-1.3-.3l.5-3.5c.2 0 .4.1.7.1h.7c.9 0 1.7-.4 2.2-1.2.5-.8 1-1.7 1.3-2.8l.8-2.6-7.9-25.3h5.2l4.2 16.7z"/></g></svg>