<svg height="1024pt" preserveAspectRatio="xMidYMid meet" viewBox="0 0 1024 1024" width="1024pt" xmlns="http://www.w3.org/2000/svg"><g fill="#8e2924" transform="matrix(.1 0 0 -.1 0 1024)"><path d="m4850 10234c-223-13-515-51-740-95-134-26-383-88-392-97-5-5 4175-1820 4262-1850 5-2-129 341-297 762l-306 765-126 57c-531 239-1041 377-1631 439-138 15-633 27-770 19z"/><path d="m3340 9922c-532-205-983-459-1400-791-169-135-239-197-414-369-341-336-619-697-859-1114-28-47-28-48-5-39 237 91 4295 1705 4301 1710 6 6-1440 638-1482 647-9 2-72-18-141-44z"/><path d="m7590 9595c0-10 1722-4310 1728-4317 8-7 642 1478 642 1503 0 9-18 63-39 121-411 1092-1173 2010-2167 2607-143 87-164 98-164 86z"/><path d="m3712 8660c-800-318-1455-580-1457-582s-283-655-625-1452l-620-1448 582-1473 582-1472 1442-617 1442-617 1469 587c807 323 1473 592 1479 598 16 16 1228 2867 1227 2886-2 23-1154 2903-1167 2916-11 12-2858 1244-2886 1249-8 2-669-257-1468-575zm3516-1417-3-928-23-50c-29-63-48-84-97-106-91-42-212-13-262 62-51 78-53 100-53 832v677h-1662c-1581 0-1660-1-1646-17 8-10 473-598 1033-1307 930-1179 1017-1291 1005-1310-11-18-2001-2535-2038-2578-14-17 65-18 1646-18h1662v798c0 860 1 872 53 951 50 75 171 104 262 62 49-22 68-43 97-106l23-50 3-1047 2-1048h-2105-2105v266 266l971 1251c535 689 976 1257 980 1262 5 6-392 526-972 1275l-979 1264v263 263h2105 2105z"/><path d="m1295 7699c-455-181-756-306-766-318-9-11-47-89-84-173-229-519-358-1005-421-1593-25-224-25-766 0-990 19-178 46-356 77-515 23-116 83-363 98-401 9-24 9-24 24 11 351 811 1833 4280 1828 4279-3-1-343-136-756-300z"/><path d="m9127 4424c-498-1171-909-2137-912-2146-5-12 224 75 749 285l756 302 55 123c240 532 376 1036 441 1637 13 119 18 245 18 495 0 408-22 640-95 1010-22 110-82 360-97 399-7 19-181-384-915-2105z"/><path d="m605 4228c-175-409-320-752-322-763-5-22 67-215 147-400 364-833 966-1575 1714-2110 166-118 496-326 496-312 0 10-1702 4313-1709 4320-4 4-151-327-326-735z"/><path d="m7436 1790c-1192-478-2170-870-2171-872-2-2 335-148 750-325l753-322 119 43c967 358 1802 996 2402 1835 105 147 335 515 319 510-2 0-979-392-2172-869z"/><path d="m2260 2026c0-15 583-1482 594-1493 6-7 67-37 135-68 526-239 1035-376 1636-441 224-25 766-25 990 0 178 19 356 46 515 77 120 24 378 87 396 97 7 4-942 415-2109 914-2348 1003-2157 922-2157 914z"/></g></svg>