<svg enable-background="new 0 0 595.3 135" height="135" viewBox="0 0 595.3 135" width="595.3" xmlns="http://www.w3.org/2000/svg"><g clip-rule="evenodd" fill-rule="evenodd"><path d="m462.2 69.9c0-5.6-3.3-10.2-9.2-10.2-6.6 0-9.4 5.5-9.9 10.2zm4.4 20.4c-2.6.9-5.5 2.4-11.6 2.4-13 0-19-7.9-19-19.9 0-10.9 6.8-18.6 17.2-18.6 12.2 0 16.2 8.9 16.2 20.8h-26.2c0 7.3 5.7 12.3 12.1 12.3 4.5 0 9.7-2.3 11.3-3.7zm54.4-3.2c-3.1 0-5.7-2.3-5.7-6.6v-20.1h9.7v-5.5h-9.7v-9.9c-3.4.2-6 2.6-6.8 5.8v4.1h-8.3v5.5h8.3v21.5c0 7.4 4.3 10.7 11.3 10.7 2.2 0 4.3-.6 5.8-1v-5.8c-1 .6-2.5 1.3-4.6 1.3zm-90.2-33c-3.9 0-7.8 2.7-9.6 6.6l-.1-5.5c-3.5.5-6.1 3.3-6.3 6.8v29.7h6.8v-16.7c0-9.2 4-15 10-15 1.1 0 2.5.1 3.7.6v-6.1c-1.5-.2-2.5-.4-4.5-.4zm119.8 23.3c0 5.5-3.5 9.7-10.2 9.7-3.1 0-6.9-2.1-6.9-6 0-6.5 9.1-7.1 12.8-7.1 1.5 0 2.9.1 4.3.1zm7 14.3c-.1-1.1-.3-3-.3-7.2v-15.2c0-10-4.3-15.2-14.8-15.2-1 0-2 .1-3 .2-3.7.5-6.5 3.5-6.5 7.3 2.7-1.1 5.4-2.1 8.4-2.1 6.8 0 9.1 3.2 9.1 9.6-2.7-.1-4.5-.1-7.2-.1-7 0-17.1 2.9-17.1 12.1 0 8 5.6 11.5 13.5 11.5 6.2 0 9.8-3.4 11.4-5.6l.1 4.8h6.4zm-155.8-29.7v29.7h6.8v-36.6c-3.7.3-6.6 3.2-6.8 6.9zm6.2-16.8c0 1.7-1.4 3.1-3.1 3.1s-3.1-1.4-3.1-3.1 1.4-3.1 3.1-3.1c1.7-.1 3.1 1.3 3.1 3.1zm-37.2 40.3h-7.4v-36.9h8.3c10.2 0 18 6.8 18 18.3 0 12.8-6.8 18.6-18.9 18.6zm.1-43.1h-7.8c-3.6.2-6.5 3.1-6.7 6.8v42.5h14.6c16.2 0 26.3-8.5 26.3-25-.1-15.2-11.8-24.3-26.4-24.3zm126.9 42.9c-2 1.1-4.5 1.7-6.5 1.7-8.7 0-12.3-7.2-12.3-13.8 0-7 4.2-13.8 11.8-13.8 2 0 4.5.5 7 1.5v-5.8c-2-.6-4.9-1.1-7.2-1.1-11.2 0-18.7 8.1-18.7 19.2 0 10.5 7.7 19.2 18.7 19.2 2.1 0 4.7-.3 7.2-1.2z" fill="#0c65af"/><path d="m198.9 77.4c0 5.5-3.5 9.7-10.2 9.7-3.1 0-6.9-2.1-6.9-6 0-6.5 9.1-7.1 12.8-7.1 1.5 0 2.9.1 4.3.1zm7 14.3c-.1-1.1-.3-3-.3-7.2v-15.2c0-10-4.3-15.2-14.8-15.2-1 0-2 .1-3 .2-3.7.5-6.5 3.5-6.5 7.3 2.7-1.1 5.4-2.1 8.4-2.1 6.8 0 9.1 3.2 9.1 9.6-2.7-.1-4.5-.1-7.2-.1-7 0-17.1 2.9-17.1 12.1 0 8 5.6 11.5 13.5 11.5 6.2 0 9.8-3.4 11.4-5.6l.1 4.8h6.4zm52.5-4.6c-3.1 0-5.7-2.3-5.7-6.6v-20.1h9.7v-5.5h-9.7v-9.9c-3.4.2-6 2.6-6.8 5.8v4.1h-8.3v5.5h8.3v21.5c0 7.4 4.3 10.7 11.3 10.7 2.2 0 4.3-.6 5.8-1v-5.8c-1 .6-2.5 1.3-4.6 1.3zm-23.1-1.8c-2 1.1-4.5 1.7-6.5 1.7-8.7 0-12.3-7.2-12.3-13.8 0-7 4.2-13.8 11.8-13.8 2 0 4.5.5 7 1.5v-5.8c-2-.6-4.9-1.1-7.2-1.1-11.2 0-18.7 8.1-18.7 19.2 0 10.5 7.7 19.2 18.7 19.2 2.1 0 4.7-.3 7.2-1.2zm83.9-31.2c-3.9 0-7.8 2.7-9.6 6.6l-.1-5.5c-3.5.5-6.1 3.3-6.3 6.8v29.7h6.8v-16.7c0-9.2 4-15 10-15 1.1 0 2.5.1 3.7.6v-6.1c-1.5-.2-2.5-.4-4.5-.4zm25.1 23.3c0 5.5-3.5 9.7-10.2 9.7-3.1 0-6.9-2.1-6.9-6 0-6.5 9.1-7.1 12.8-7.1 1.5 0 2.9.1 4.3.1zm7 14.3c-.1-1.1-.3-3-.3-7.2v-15.2c0-10-4.3-15.2-14.8-15.2-1 0-2 .1-3 .2-3.7.5-6.5 3.5-6.5 7.3 2.7-1.1 5.4-2.1 8.4-2.1 6.8 0 9.1 3.2 9.1 9.6-2.7-.1-4.5-.1-7.2-.1-7 0-17.1 2.9-17.1 12.1 0 8 5.6 11.5 13.5 11.5 6.2 0 9.8-3.4 11.4-5.6l.1 4.8h6.4zm-53.9 0h-6.9l-.2-6.2c-1.3 2.3-2.9 4.1-4.9 5.3s-4.3 1.8-7 1.8c-4.5-.1-7.7-1.4-9.6-4s-2.8-6.1-2.7-10.4v-15.7c.2-4 3.4-7.2 7.3-7.5v21.6c-.1 2.7.3 5 1.3 7 .9 2 2.9 3 6 3.1 2.3 0 4-.6 5.3-1.8 1.3-1.1 2.2-2.6 2.8-4.4.5-1.8.8-3.7.8-5.6v-20h7.3v28.3c0 1.4 0 2.8.1 4.2.1 1.5.2 2.9.4 4.3zm-119.9-43.3h-19.6v15.5h18.8v5.8h-18.8v21.9h-8v-42.5c.2-3.7 3.1-6.6 6.7-6.8h20.9z" fill="#3f5484"/><path d="m64.6 91.5v-44.8c.1-2.4 2-4.3 4.4-4.5h16.8l17.3 17.7v31.6z" fill="#3f5484"/><path d="m98.7 62.9v24.4h-29.7v-38.6c0-1.2 1-2.2 2.2-2.2h11.1v16.3h16.2z" fill="#fff"/><path d="m73.4 78.8h20.9v4.2h-20.9zm0-8.4h20.9v4.2h-20.9z" fill="#3f5484"/><path d="m41.9 67.5c0-23.2 18.8-42 42-42s42 18.8 42 42-18.8 42-42 42-42-18.8-42-42zm-4.3 0c0-25.5 20.7-46.2 46.2-46.2s46.2 20.7 46.2 46.2-20.7 46.2-46.2 46.2-46.2-20.7-46.2-46.2z" fill="#0c65af"/></g></svg>