<svg xmlns="http://www.w3.org/2000/svg" width="150" height="43.672" viewBox="0 0 150 43.672"><circle fill="#333" cx="19.312" cy="19.313" r="19.312"/><path fill="#FFF" d="M22.972 2.889L8.082 22.328 16.768 22.328z"/><path fill="#FFF" d="M15.653 35.736L30.542 16.297 21.857 16.297z"/><path fill="#333" d="M48.323 25.294H51V12.605h-2.678v-1.593h13.727v5.283h-1.158c-1.013-3.088-1.423-3.69-3.281-3.69h-4.125v5.717h1.375c1.785 0 2.123-.289 2.461-2.46H58.6v6.417h-1.278c-.29-2.268-.676-2.605-2.461-2.605h-1.375v5.621h2.943v1.592h-8.106v-1.593zm14.5-1.134c0-.772.241-1.448.82-2.027.893-.893 2.099-1.182 4.101-1.471 1.423-.218 1.688-.241 1.688-.676v-1.134c0-1.424-.675-1.954-2.195-1.954-.724 0-1.278.145-1.857.458.41.193.7.676.7 1.183 0 .724-.507 1.351-1.399 1.351-.941 0-1.472-.699-1.472-1.399 0-1.761 2.051-2.822 4.536-2.822 2.509 0 3.956 1.037 3.956 3.354v5.596c0 .555.169.796.748.796.338 0 .627-.338.869-.868l.844.507c-.579 1.351-1.399 1.905-2.485 1.905-1.013 0-1.978-.579-1.978-1.93h-.121c-.604 1.182-2.123 1.979-3.546 1.979-2.027-.001-3.209-1.184-3.209-2.848zm6.61-.917v-1.906c-.217.097-.482.145-1.085.241-2.34.362-3.064.651-3.064 2.098 0 1.062.555 1.786 1.785 1.786 1.085.001 2.364-.94 2.364-2.219zm5.018 2.051h1.761v-7.865h-1.761v-1.592h3.98v2.557c.555-1.857 2.002-2.701 3.257-2.701 1.23 0 1.93.844 1.93 1.882 0 .844-.627 1.567-1.447 1.567-.845 0-1.52-.506-1.52-1.423 0-.121.023-.266.048-.41-1.086-.049-1.833 1.182-2.22 2.63v5.355h2.099v1.592h-6.127v-1.592zm9.916-1.134c0-.772.241-1.448.82-2.027.893-.893 2.099-1.182 4.101-1.471 1.424-.218 1.688-.241 1.688-.676v-1.134c0-1.424-.675-1.954-2.195-1.954-.724 0-1.278.145-1.857.458.41.193.7.676.7 1.183 0 .724-.507 1.351-1.399 1.351-.941 0-1.472-.699-1.472-1.399 0-1.761 2.051-2.822 4.535-2.822 2.509 0 3.956 1.037 3.956 3.354v5.596c0 .555.169.796.748.796.338 0 .628-.338.869-.868l.844.507c-.579 1.351-1.399 1.905-2.484 1.905-1.014 0-1.979-.579-1.979-1.93h-.12c-.604 1.182-2.123 1.979-3.547 1.979-2.026-.001-3.208-1.184-3.208-2.848zm6.61-.917v-1.906c-.217.097-.482.145-1.085.241-2.341.362-3.064.651-3.064 2.098 0 1.062.556 1.786 1.785 1.786 1.085.001 2.364-.94 2.364-2.219zm6.731 2.678c-1.062-1.062-1.567-2.678-1.567-4.39 0-1.785.627-3.619 1.664-4.656.796-.796 1.81-1.23 3.016-1.23 1.616 0 2.678.797 3.377 1.931V12.05h-1.833v-1.737h4.102v14.981h1.616v1.592h-3.836v-2.268c-.82 1.664-2.147 2.484-3.619 2.484-1.135.001-2.196-.457-2.92-1.181zm6.538-4.584c0-2.195-.868-4.173-2.822-4.173-1.762 0-2.774 1.544-2.774 4.173 0 2.726 1.278 4.246 2.774 4.246 1.447 0 2.822-1.544 2.822-4.246zm5.26 2.823c0-.772.241-1.448.82-2.027.893-.893 2.099-1.182 4.101-1.471 1.424-.218 1.688-.241 1.688-.676v-1.134c0-1.424-.675-1.954-2.195-1.954-.724 0-1.278.145-1.857.458.41.193.7.676.7 1.183 0 .724-.507 1.351-1.399 1.351-.941 0-1.472-.699-1.472-1.399 0-1.761 2.051-2.822 4.535-2.822 2.509 0 3.956 1.037 3.956 3.354v5.596c0 .555.169.796.748.796.338 0 .628-.338.869-.868l.844.507c-.579 1.351-1.399 1.905-2.484 1.905-1.014 0-1.979-.579-1.979-1.93h-.12c-.604 1.182-2.123 1.979-3.547 1.979-2.026-.001-3.208-1.184-3.208-2.848zm6.609-.917v-1.906c-.217.097-.482.145-1.085.241-2.341.362-3.064.651-3.064 2.098 0 1.062.556 1.786 1.785 1.786 1.086.001 2.364-.94 2.364-2.219z"/><path fill="#333" d="M123.498 28.84c0 .266-.097.604-.169.748.917-.218 1.544-.7 2.316-2.75l-3.812-9.409h-1.544v-1.592h5.838v1.592h-1.882l2.581 6.948 2.727-6.948h-1.544v-1.592h4.655v1.592h-1.423l-3.836 9.191c-1.447 3.426-2.871 4.294-4.535 4.294-1.424 0-2.316-.747-2.316-1.905 0-.82.651-1.568 1.521-1.568.893-.001 1.423.7 1.423 1.399z"/></svg>