<svg xmlns="http://www.w3.org/2000/svg" viewBox="0 0 254.22 128.31"><defs><style>.cls-1{fill:#f2df00;}.cls-2{fill:#e2231a;}.cls-3{fill:#231161;}.cls-4{fill:#fff;}.cls-5,.cls-6{fill:none;}.cls-6{stroke:#231f20;stroke-miterlimit:10;}</style></defs><title>fenz-logo</title><g id="Layer_2" data-name="Layer 2"><g id="Layer_3" data-name="Layer 3"><polygon class="cls-1" points="95.25 108.99 91.86 128.31 197.28 128.31 200.67 108.99 95.25 108.99"/><path class="cls-2" d="M111.28,17.81H254.22l-16,91.18H95.25Z"/><path class="cls-3" d="M0,17.81H111.28L95.25,109H0Z"/><path class="cls-2" d="M117.7,115,116.48,122h-1.31l-1.91-4.63-.81,4.63h-1.39l1.22-6.94h1.41l1.84,4.47.78-4.47Z"/><path class="cls-2" d="M124.11,115l-.23,1.31h-3.16l-.25,1.44H123l-.23,1.29h-2.56l-.29,1.6h3.16l-.23,1.31H118.3l1.22-6.94Z"/><path class="cls-2" d="M129.31,122l-.32-4.52-1.9,4.52h-1.57L125,115h1.45l.14,5.1,2.14-5.1H130l.35,5.1,1.93-5.1h1.46L130.81,122Z"/><path class="cls-2" d="M140.08,116.31h-2.95l.22-1.27h4.74l-.19,1.07-3.93,4.6h3.11l-.23,1.27H136l.19-1.07Z"/><path class="cls-2" d="M148.19,115l-.23,1.31H144.8l-.25,1.44h2.56l-.23,1.29h-2.56l-.29,1.6h3.16L147,122h-4.59L143.6,115Z"/><path class="cls-2" d="M150.11,120.48l-.67,1.51h-1.55l3.29-6.94h2.06l.85,6.94h-1.53l-.15-1.51Zm1.9-4.23-1.31,2.92h1.6Z"/><path class="cls-2" d="M158,115l-1,5.63h2.92l-.23,1.31h-4.34l1.22-6.94Z"/><path class="cls-2" d="M162.62,120.48l-.67,1.51H160.4l3.29-6.94h2.06l.85,6.94h-1.53l-.15-1.51Zm1.9-4.23-1.31,2.92h1.6Z"/><path class="cls-2" d="M174.46,115,173.24,122h-1.31L170,117.35l-.81,4.63h-1.39L169,115h1.41l1.84,4.47.78-4.47Z"/><path class="cls-2" d="M180,115c.91,0,1.27.45,1.11,1.39l-.73,4.17a1.47,1.47,0,0,1-1.6,1.39h-3.75l1.22-6.94Zm-1.26,5.63c.15,0,.2,0,.23-.2l.69-3.93c0-.15,0-.2-.16-.2h-2.05l-.76,4.32Z"/><path class="cls-4" d="M126.38,34.64h25.1l-1.32,7.63H133.85l-1.27,7.2h13L144.28,57h-13l-2.59,14.72h-8.79Z"/><path class="cls-4" d="M157.52,34.64h8.79L159.8,71.71H151Z"/><path class="cls-4" d="M193.91,34.64c4.82,0,6.73,2.33,5.88,7.31l-1.64,9.27c-.74,4.13-2.75,6.46-6.2,7.1l3.92,13.4h-8.74l-3.87-12.76h-5.19l-2.28,12.76H167l6.51-37.07Zm-5.61,17c.69,0,1-.21,1.17-1l1.27-7.52c.16-.79,0-1-.74-1h-9l-1.75,9.53Z"/><path class="cls-4" d="M233.68,34.64l-1.32,7.63H216L214.88,49h13l-1.32,7.52h-13l-1.32,7.57h16.26l-1.32,7.63h-25.1l6.51-37.07Z"/><path class="cls-4" d="M127.26,80.54l-.47,2.72H121l-.42,2.4h4.64l-.47,2.68h-4.64l-.47,2.7h5.79l-.47,2.72H116l2.32-13.2Z"/><path class="cls-4" d="M140.21,93.75h-3l1.41-8L135,92.07h-2l-1.6-6.34-1.41,8h-3l2.32-13.2h3.49l1.83,7.36,4.17-7.36h3.73Z"/><path class="cls-4" d="M154,80.54l-.47,2.72h-5.81l-.42,2.4H152l-.47,2.68h-4.64l-.47,2.7h5.79l-.47,2.72h-8.94l2.32-13.2Z"/><path class="cls-4" d="M163.32,80.54c1.72,0,2.4.83,2.09,2.6l-.58,3.3A2.71,2.71,0,0,1,162.62,89l1.4,4.77h-3.11l-1.38-4.54h-1.85l-.81,4.54h-3.13l2.32-13.2Zm-2,6.05c.25,0,.36-.08.42-.36l.45-2.68c.06-.28,0-.36-.26-.36h-3.19l-.62,3.4Z"/><path class="cls-4" d="M174.2,83.6c0-.28,0-.36-.28-.36h-3c-.25,0-.34.08-.4.36l-1.25,7.09c-.06.26,0,.36.26.36h3c.26,0,.36-.09.4-.36l.34-1.85h-2.13l.45-2.58h5.24L176,91.14a2.76,2.76,0,0,1-3,2.6h-4.83c-1.72,0-2.4-.85-2.08-2.6l1.4-8a2.75,2.75,0,0,1,3-2.6h4.83c1.72,0,2.4.83,2.09,2.6l-.3,1.75H174Z"/><path class="cls-4" d="M189,80.54l-.47,2.72h-5.81l-.42,2.4H187l-.47,2.68h-4.64l-.47,2.7h5.79l-.47,2.72h-8.94l2.32-13.2Z"/><path class="cls-4" d="M201.8,80.54l-2.32,13.2h-2.73l-3.51-8.19-1.45,8.19h-3l2.32-13.2h3l3.3,7.75,1.36-7.75Z"/><path class="cls-4" d="M204.34,93.75c-1.72,0-2.4-.85-2.08-2.6l1.4-8a2.77,2.77,0,0,1,3-2.6h4.68c1.72,0,2.38.83,2.07,2.6l-.42,2.3h-3.13l.34-1.83c0-.28,0-.36-.3-.36h-2.81c-.25,0-.36.08-.4.36l-1.25,7.05c-.06.26,0,.36.28.36h2.79c.28,0,.38-.09.43-.36l.32-1.85h3.13L212,91.14a2.77,2.77,0,0,1-3,2.6Z"/><path class="cls-4" d="M216.56,93.75l.75-4.3-2.6-8.9H218l1.34,5.73,3.36-5.73h3.47l-5.71,8.9-.75,4.3Z"/><polygon class="cls-2" points="0 0 0 17.8 111.28 17.8 114.41 0 0 0"/><path class="cls-4" d="M16.65,93.74l-.78-3.18-.77,3.18H13.82l-1.21-5h1.21l.66,3.53.86-3.53h1.06l.86,3.53.66-3.53h1.16l-1.21,5Z"/><path class="cls-4" d="M19.88,88.74h1.19v1.92h1.61V88.74h1.19v5H22.67v-2H21.07v2H19.88Z"/><path class="cls-4" d="M26.14,92.68l-.29,1.06H24.63l1.51-5h1.64l1.52,5H28l-.29-1.06Zm.8-3-.53,2h1.05Z"/><path class="cls-4" d="M32,91.68l-.73,1v1.1H30.08v-5h1.16V91l1.61-2.31h1.34l-1.47,1.94,1.55,3.06H33Z"/><path class="cls-4" d="M36,92.68l-.29,1.06H34.44l1.51-5h1.64l1.52,5H37.83l-.29-1.06Zm.8-3-.53,2h1Z"/><path class="cls-4" d="M42.6,93.74,41.77,92h-.69v1.72H39.89v-5h2.79a.86.86,0,0,1,1,1V91c0,.56-.22.87-.69,1l.87,1.81ZM42.34,91c.1,0,.14,0,.14-.14v-1c0-.11,0-.14-.14-.14H41.07V91Z"/><path class="cls-4" d="M45.84,92.68l-.29,1.06H44.33l1.51-5h1.63l1.52,5H47.72l-.29-1.06Zm.8-3-.53,2h1Z"/><path class="cls-4" d="M51.34,89.78v4H50.16v-4H48.85v-1h3.79v1Z"/><path class="cls-4" d="M54.32,93.74a.87.87,0,0,1-1-1v-3a.86.86,0,0,1,1-1h1.92a.86.86,0,0,1,1,1v3a.86.86,0,0,1-1,1Zm.2-1.16c0,.1,0,.14.14.14H55.9c.11,0,.14,0,.14-.14V89.9c0-.11,0-.14-.14-.14H54.65c-.1,0-.14,0-.14.14Z"/><path class="cls-4" d="M62.46,88.74v5h-1.1l-1.87-3.1v3.1H58.34v-5h1.21l1.76,2.93V88.74Z"/><path class="cls-4" d="M66.22,89.9c0-.11,0-.14-.14-.14H64.9c-.1,0-.14,0-.14.14v2.68c0,.1,0,.14.14.14h1.19c.1,0,.14,0,.14-.14v-.7h-.84v-1h2v1.85a.87.87,0,0,1-1,1H64.56a.87.87,0,0,1-1-1v-3a.86.86,0,0,1,1-1h1.85a.86.86,0,0,1,1,1v.66H66.22Z"/><path class="cls-4" d="M69.5,92.68l-.29,1.06H68l1.51-5h1.64l1.52,5H71.38l-.29-1.06Zm.8-3-.53,2h1.05Z"/><path class="cls-4" d="M75.25,88.74h1.18v5H75.25Z"/><path class="cls-4" d="M81.26,93.74l-.78-3.18-.77,3.18H78.42l-1.21-5h1.21l.66,3.53L80,88.74H81l.86,3.53.66-3.53H83.7l-1.21,5Z"/><path class="cls-4" d="M84.49,88.74h1.19v5H84.49Z"/><path class="cls-1" d="M31.82,47.84,40,51.62,36.9,60.09h0L45.37,57l3.78,8.2L52.93,57l8.47,3.13-3.13-8.47,8.2-3.78h0l-8.2-3.78,3.13-8.47-8.47,3.13-3.78-8.2-3.78,8.2L36.9,35.59h0L40,44.06l-8.2,3.78ZM64,48.37H59c0-.15,0-.29,0-.44h6Zm-1.63.75H58.94q0-.22,0-.44h4.38Zm-1.63.75h-2c0-.14.06-.29.08-.44h2.85Zm-2.17.75q.06-.22.12-.44h1.37l-1,.44Zm1.43-12.93-3.56,3.56-.3-.32,4.22-4.22Zm-.62,1.68L57,41.83l-.28-.34,3.1-3.1ZM58.81,41l-1.4,1.4-.25-.37,2-2Zm-.62,1.68-.38.38-.23-.39,1-1Zm1.11,16-3.56-3.56.32-.3,4.22,4.22Zm-1.68-.62-2.46-2.46.34-.28,3.1,3.1Zm-1.68-.62-1.4-1.4.37-.25,2,2Zm-2.06-1,.39-.23,1,1-1-.36ZM51.49,36.88l.44,1v.54l-.44-.12Zm-.75-1.63.44,1v2l-.44-.08ZM50,33.63l.44,1v3.48L50,38ZM49.24,32l.44,1v5h-.44Zm-.62,25.69h.44v6l-.44-1Zm-.75-.07.44,0v4.38l-.44-1Zm-.75-.12.44.08v2.85l-.44-1Zm-.75-.19.44.12V58.8l-.44-1ZM44,39.41l-1-1,1,.36.38.38Zm-.64.42-2-2,1,.36,1.4,1.4Zm-.6.46-3.1-3.1,1,.36L43.14,40ZM38.25,58l3.56-3.56.3.32L37.89,59Zm.62-1.68,2.46-2.46.28.34-3.1,3.1Zm.62-1.68,1.4-1.4.25.37-2,2ZM40.11,53l.38-.38.23.39-1,1ZM38,36.58l1,.36,3.56,3.56-.32.3Zm1.55,8.92H38.2l1-.44h.54Q39.62,45.28,39.57,45.5Zm-.15.75H36.57l1-.44h2C39.47,46,39.44,46.1,39.42,46.25Zm-.09.75H34.94l1-.44h3.48Q39.34,46.78,39.32,47Zm-6,.75,1-.44h5c0,.15,0,.29,0,.44Z"/><path class="cls-3" d="M49.15,57.09a9.25,9.25,0,1,0-9.25-9.25A9.26,9.26,0,0,0,49.15,57.09Z"/><circle class="cls-2" cx="49.15" cy="47.84" r="8.71"/><path class="cls-1" d="M47.31,41.26a.35.35,0,0,0-.24-.06,2.44,2.44,0,0,0-1.28.58l-1.51,1-1,.66A2.67,2.67,0,0,0,44.55,45l.47-.59c.17-.19.4-.42.69-.68s.53-.47.87-.73l.2-.16-.46-.75Z"/><path class="cls-1" d="M54,42.82l-1.63-1.16h0A6,6,0,0,0,51,40.92c-.23-.08-.35-.07-.48.07s1.75.61,1.36,1.25l-.22.35-.17.28.18.14h0c.34.26.63.51.87.73s.51.49.69.68l.47.59A2.67,2.67,0,0,0,55,43.48Z"/><path class="cls-5" d="M46.2,48a12.43,12.43,0,0,0,1.67,0,12,12,0,0,1-1.41-.34,4.44,4.44,0,0,1,.27-1.76,2.68,2.68,0,0,1,1.14-1,2.8,2.8,0,0,0-.79.29,2.72,2.72,0,0,0-.47.32l-.39-.43A4.1,4.1,0,0,1,49,44a2.66,2.66,0,0,1,2.5,1.17,2,2,0,0,1,.23.59l.41,1.85-.3.09-.54.12c-.36.07-.73.13-1.1.17.37,0,.74.05,1.12.06h.57a4.39,4.39,0,0,0,.5,0L54,49.32c.45.37-.56,1-1.46,1h0a5.88,5.88,0,0,1-3.58-1.74A13.79,13.79,0,0,1,46,49c-.34,0-.59,0-.65-.18S45.85,48.31,46.2,48Z"/><path class="cls-1" d="M49,44a2.66,2.66,0,0,1,2.5,1.17,2,2,0,0,1,.23.59l.41,1.85-.3.09-.54.12c-.36.07-.73.13-1.1.17.37,0,.74.05,1.12.06h.57a4.39,4.39,0,0,0,.5,0L54,49.32c.45.37-.56,1-1.46,1h0a5.88,5.88,0,0,1-3.58-1.74A13.79,13.79,0,0,1,46,49c-.34,0-.59,0-.65-.18s.53-.56.88-.84h.55c.38,0,.75,0,1.12-.05a12,12,0,0,1-1.41-.34,4.45,4.45,0,0,1,.27-1.76,2.68,2.68,0,0,1,1.14-1,2.8,2.8,0,0,0-.79.29,2.73,2.73,0,0,0-.47.32l-.39-.43A4.1,4.1,0,0,1,49,44"/><path class="cls-1" d="M46.42,44.49a4.41,4.41,0,0,1,.8-.44l-.49-.77c-.32.25-.6.49-.83.7C46,44.13,46.17,44.24,46.42,44.49Z"/><path class="cls-1" d="M51.61,44.76h0c.42-.46.59-.59.77-.78-.23-.21-.51-.45-.83-.7L51,44.2A2.52,2.52,0,0,1,51.61,44.76Z"/><path class="cls-1" d="M52.53,50.65h-.06a4.2,4.2,0,0,1-1.06-.18h0l.49.59s1.18,1.55,1.15,2.24v.1l1,0a6.41,6.41,0,0,0-1.5-2.82Z"/><path class="cls-1" d="M48,49.13c-.38.08-.79.15-1.18.2h0l-.43.53c-1.94,2.4-2,3.59-2,3.59l1,0v-.1a5.52,5.52,0,0,1,1-2.24C46.7,50.76,47.19,50.16,48,49.13Z"/><path class="cls-4" d="M24.8,59.57c-.17-.44-.32-.88-.46-1.32-6.76-1.32-7.28-3.55-7.28-3.55s1.18.31,4.76.87a7.21,7.21,0,0,1,2,.6c-.08-.37-.14-.74-.2-1.11-6.11-2.46-6.12-4.67-6.12-4.67s1,.5,4.3,1.67a6.79,6.79,0,0,1,1.63.84c0-.39,0-.78,0-1.17,0,0,0-.09,0-.14-5.19-3.2-4.78-5.21-4.78-5.21s.85.61,3.56,2.16a5.85,5.85,0,0,1,1.4,1.09q.09-.63.22-1.25c-4.39-3.63-3.7-5.46-3.7-5.46s.69.67,2.95,2.43a5.14,5.14,0,0,1,1.19,1.28c.12-.39.24-.78.37-1.16l0-.12C21.11,41.57,22,40,22,40s.56.69,2.46,2.56a4.7,4.7,0,0,1,.91,1.23q.21-.46.44-.91c-2.79-4.26-1.64-5.69-1.64-5.69s.4.75,1.85,2.83a4.35,4.35,0,0,1,.64,1.33q.29-.48.6-.95c-2-4.3-.77-5.51-.77-5.51s.27.74,1.34,2.84a4,4,0,0,1,.41,1.3q.31-.41.64-.8c-1.15-4.4.28-5.36.28-5.36s.12.74.74,2.88A3.81,3.81,0,0,1,30,36.84l.67-.69c-.56-4.18.86-4.92.86-4.92s0,.68.34,2.68a3.42,3.42,0,0,1,0,1.12l.68-.58C32.64,30.55,34,30,34,30s-.07.63-.07,2.49a3.24,3.24,0,0,1-.13.92l.75-.53c.12-3.22,1.3-3.64,1.3-3.64s-.07.53-.08,2.12a2.76,2.76,0,0,1-.12.8l.82-.5c.34-3,1.48-3.36,1.48-3.36s-.1.5-.23,2a2.6,2.6,0,0,1-.18.77l.94-.47c.55-2.69,1.6-2.91,1.6-2.91s-.13.44-.36,1.79a2.41,2.41,0,0,1-.21.65l.66-.27C41,27.41,42,27.31,42,27.31s-.17.39-.53,1.59a2.21,2.21,0,0,1-.3.63l.75-.25C42.92,27,43.87,27,43.87,27s-.19.36-.64,1.46a2.16,2.16,0,0,1-.3.53l.57-.16c1-2,1.87-1.93,1.87-1.93s-.19.28-.65,1.17a1.78,1.78,0,0,1-.47.58c.52-.12,1-.23,1.57-.32a.71.71,0,0,1,.4,0l.17.07-1.15.25a2.57,2.57,0,0,1,.56.16c1.14.48,1.55.6,1.55.6s-.71.61-3.27-.45l-.86.26a3.12,3.12,0,0,1,.65.19c1.38.58,1.87.73,1.87.73s-.83.71-3.78-.48l-1.07.43a3.65,3.65,0,0,1,.7.14c1.65.51,2.23.63,2.23.63s-.84.89-4.33-.12l-.94.49a3.9,3.9,0,0,1,.62.1c1.75.44,2.35.53,2.35.53s-.79.94-4.32.15l-.93.6a4.21,4.21,0,0,1,.63.06c1.91.34,2.56.39,2.56.39s-.75,1-4.52.49q-.5.38-1,.77a4.35,4.35,0,0,1,.55,0c2,.15,2.66.14,2.66.14s-.63,1.13-4.48,1q-.5.47-1,1l.44,0c2.31-.09,3.08-.2,3.08-.2s-.52,1.35-4.84,1.7q-.49.59-.95,1.21c.17,0,.36-.09.55-.12,2.56-.39,3.41-.61,3.41-.61S33,40,28.25,40.91q-.46.76-.86,1.54a6.52,6.52,0,0,1,.68-.26c2.92-.91,3.87-1.32,3.87-1.32s-.11,1.94-5.58,3.88c-.21.56-.4,1.13-.57,1.7a6.9,6.9,0,0,1,1-.56c3.05-1.4,4-2,4-2S31,46.09,25.24,49a18.82,18.82,0,0,0-.2,2.1A7.16,7.16,0,0,1,26.33,50c3.11-2.08,4.06-2.88,4.06-2.88s.68,2.4-5.25,6.66a17.84,17.84,0,0,0,.37,2.08,6.85,6.85,0,0,1,1.39-1.61c2.86-2.49,3.72-3.42,3.72-3.42s1,2.36-4.38,7.4a21.21,21.21,0,0,0,.91,2.06,6.86,6.86,0,0,1,1.22-2.09c2.54-3,3.28-4.15,3.28-4.15s1.53,2.31-3.22,8.44l.35.52q.43.62.89,1.21l0,0a7.16,7.16,0,0,1,.91-2.37c2.14-3.63,2.71-4.92,2.71-4.92s2.05,2.22-1.83,9.42q.78.83,1.62,1.62a7.41,7.41,0,0,1,.56-2.78c1.64-4.13,2-5.57,2-5.57s2.56,2.07-.37,10.28q.89.71,1.82,1.38a7.55,7.55,0,0,1,.38-3.22c1.45-4.37,1.76-5.89,1.76-5.89s2.79,2,.25,10.7q1,.63,2,1.22a8.31,8.31,0,0,1,0-3.63c1-5,1.15-6.67,1.15-6.67s3.35,1.92,1.7,11.79q2.32,1.16,4.74,2.14,2.41-1,4.74-2.14c-1.65-9.88,1.7-11.79,1.7-11.79s.14,1.7,1.15,6.67a8.31,8.31,0,0,1,0,3.63q1-.59,2-1.22c-2.53-8.69.25-10.7.25-10.7s.31,1.52,1.76,5.89a7.55,7.55,0,0,1,.38,3.22q.93-.67,1.82-1.38C60,61.68,62.6,59.62,62.6,59.62s.38,1.44,2,5.57A7.41,7.41,0,0,1,65.18,68q.84-.78,1.62-1.62C62.92,59.16,65,56.94,65,56.94s.57,1.29,2.71,4.92a7.16,7.16,0,0,1,.91,2.37l0,0q.46-.6.89-1.21l.35-.52C65.11,56.36,66.64,54,66.64,54s.73,1.11,3.28,4.15a6.86,6.86,0,0,1,1.22,2.09,21.22,21.22,0,0,0,.91-2.06c-5.42-5-4.38-7.4-4.38-7.4s.86.93,3.72,3.42a6.85,6.85,0,0,1,1.39,1.61,17.84,17.84,0,0,0,.37-2.08c-5.93-4.26-5.25-6.66-5.25-6.66s1,.8,4.06,2.88a7.16,7.16,0,0,1,1.28,1.09,18.81,18.81,0,0,0-.2-2.1c-5.78-2.9-5.58-5.06-5.58-5.06s1,.57,4,2a6.9,6.9,0,0,1,1,.56c-.16-.57-.36-1.14-.57-1.7-5.47-1.94-5.58-3.88-5.58-3.88s.95.4,3.87,1.32a6.53,6.53,0,0,1,.68.26q-.4-.78-.86-1.54c-4.78-.93-5.16-2.51-5.16-2.51s.84.22,3.41.61c.2,0,.38.07.55.12q-.45-.62-.95-1.21c-4.32-.35-4.84-1.7-4.84-1.7s.77.11,3.08.2l.44,0q-.48-.49-1-1c-3.85.16-4.48-1-4.48-1s.67,0,2.66-.14a4.35,4.35,0,0,1,.55,0q-.48-.4-1-.77c-3.77.56-4.52-.49-4.52-.49s.65-.05,2.56-.39a4.21,4.21,0,0,1,.63-.06l-.93-.6c-3.53.79-4.32-.15-4.32-.15s.6-.09,2.35-.53a3.9,3.9,0,0,1,.62-.1l-.94-.49c-3.48,1-4.33.12-4.33.12s.58-.12,2.23-.63a3.65,3.65,0,0,1,.7-.14l-1.07-.43c-2.95,1.19-3.78.48-3.78.48s.49-.15,1.87-.73a3.12,3.12,0,0,1,.65-.19L54.24,29C51.68,30,51,29.42,51,29.42s.4-.12,1.55-.6a2.57,2.57,0,0,1,.56-.16l-1.15-.25.17-.07a.71.71,0,0,1,.4,0c.53.09,1.05.2,1.57.32a1.78,1.78,0,0,1-.47-.58c-.46-.89-.65-1.17-.65-1.17s.84,0,1.87,1.93l.57.16a2.16,2.16,0,0,1-.3-.53c-.44-1.1-.64-1.46-.64-1.46s.95,0,1.92,2.29l.75.25a2.21,2.21,0,0,1-.3-.63c-.36-1.2-.53-1.59-.53-1.59s1,.1,1.81,2.58l.66.27a2.41,2.41,0,0,1-.21-.65c-.23-1.35-.36-1.79-.36-1.79s1.05.22,1.6,2.91l.94.47a2.6,2.6,0,0,1-.18-.77c-.12-1.5-.23-2-.23-2s1.15.33,1.48,3.36l.82.5a2.76,2.76,0,0,1-.12-.8c0-1.59-.08-2.12-.08-2.12s1.18.42,1.3,3.64l.75.53a3.24,3.24,0,0,1-.13-.92c0-1.87-.07-2.49-.07-2.49s1.41.52,1.48,4.42l.68.58a3.42,3.42,0,0,1,0-1.12c.31-2,.34-2.68.34-2.68s1.43.75.86,4.92l.67.69a3.81,3.81,0,0,1,.16-1.15c.62-2.14.74-2.88.74-2.88s1.43,1,.28,5.36q.33.4.64.8a4,4,0,0,1,.41-1.3c1.07-2.1,1.34-2.84,1.34-2.84s1.27,1.21-.77,5.51q.31.47.6.95A4.35,4.35,0,0,1,72.32,40c1.45-2.08,1.85-2.83,1.85-2.83s1.15,1.44-1.64,5.69q.23.45.44.91a4.7,4.7,0,0,1,.91-1.23c1.9-1.87,2.46-2.56,2.46-2.56s.85,1.62-2.72,5.38l0,.12c.14.38.26.77.37,1.16a5.14,5.14,0,0,1,1.19-1.28c2.26-1.76,2.95-2.43,2.95-2.43s.69,1.83-3.7,5.46q.13.62.22,1.25a5.85,5.85,0,0,1,1.4-1.09c2.71-1.55,3.56-2.16,3.56-2.16s.41,2-4.78,5.21c0,0,0,.09,0,.14,0,.39,0,.78,0,1.17a6.79,6.79,0,0,1,1.63-.84c3.26-1.17,4.3-1.67,4.3-1.67s0,2.2-6.12,4.67c-.05.37-.12.74-.2,1.11a7.21,7.21,0,0,1,2-.6c3.58-.56,4.76-.87,4.76-.87s-.52,2.23-7.28,3.55c-.14.44-.29.88-.46,1.32a8.54,8.54,0,0,1,1.91-.25c4.1-.08,5.48-.24,5.48-.24s-1,2.34-8.46,2.84q-.33.63-.7,1.25a9.76,9.76,0,0,1,2,0c4.58.38,6.13.36,6.13.36S78.49,66,70,65.67q-.44.59-.92,1.16a10.49,10.49,0,0,1,2.25.14c4.89.82,6.57.93,6.57.93s-1.83,2.63-11.14,1.44q-.55.53-1.12,1a11.17,11.17,0,0,1,2.37.35c5.12,1.31,6.89,1.58,6.89,1.58s-2.26,2.67-12.21.49l-.78.57h0l-.58.4a11.59,11.59,0,0,1,2.37.56c5.19,1.81,7,2.24,7,2.24S68.11,79.19,57.9,76q-1.74,1-3.55,1.94h0q-1,.51-2.05,1c2.88,1.05,5.84,2,8.83,2.73A33.64,33.64,0,0,1,56.74,83h0q-3.85-1.18-7.58-2.69Q45.43,81.83,41.58,83h0a33.64,33.64,0,0,1-4.4-1.32c3-.78,6-1.68,8.83-2.73q-1-.48-2.05-1h0Q42.14,77,40.4,76c-10.2,3.16-12.85.57-12.85.57s1.82-.43,7-2.24a11.59,11.59,0,0,1,2.37-.56l-.58-.4h0l-.78-.57c-9.95,2.18-12.21-.49-12.21-.49s1.77-.27,6.89-1.58a11.17,11.17,0,0,1,2.37-.35q-.57-.51-1.12-1c-9.32,1.19-11.14-1.44-11.14-1.44S22,67.79,26.93,67a10.49,10.49,0,0,1,2.25-.14q-.47-.57-.92-1.16c-8.44.31-9.85-2.19-9.85-2.19s1.55,0,6.13-.36a9.76,9.76,0,0,1,2,0q-.37-.61-.7-1.25c-7.49-.5-8.46-2.84-8.46-2.84s1.37.16,5.48.24A8.54,8.54,0,0,1,24.8,59.57Z"/><path class="cls-6" d="M53.53,53.43"/><path class="cls-6" d="M46.29,43.64"/></g></g></svg>