<svg height="340" viewBox="0 0 340 340" width="340" xmlns="http://www.w3.org/2000/svg"><path d="m0 41c0-22.6434 18.3563-41 40.9998-41 22.6436 0 41.0002 18.3563 41.0002 41s-18.3566 41-41.0002 41c-22.6435 0-40.9998-18.3566-40.9998-41z" fill="#1abcfe" transform="translate(168 131)"/><path d="m0 41c0-22.6437 18.3563-41 41-41h41v41c0 22.6437-18.3563 41-41 41s-41-18.3563-41-41z" fill="#0acf83" transform="translate(86 213)"/><path d="m0 0v82h41c22.6437 0 41-18.3563 41-41s-18.3563-41-41-41z" fill="#ff7262" transform="translate(168 49)"/><path d="m0 41c0 22.6437 18.3563 41 41 41h41v-82h-41c-22.6437 0-41 18.3563-41 41z" fill="#f24e1e" transform="translate(86 49)"/><path d="m0 41c0 22.6437 18.3563 41 41 41h41v-82h-41c-22.6437 0-41 18.3563-41 41z" fill="#a259ff" transform="translate(86 131)"/></svg>