<svg xmlns="http://www.w3.org/2000/svg" width="140.08" height="97.749" viewBox="0 0 140.08 97.749"><path fill="#21205E" d="M5.877 76.387L16.738 76.387 16.738 72.3 16.738 71.497 16.738 71.497 0 71.497 0 97.323 5.877 97.323 5.877 86.849 13.811 86.849 13.811 82.056 5.877 82.056z"/><path fill="#21205E" d="M26.555 77.997c-6.107 0-10.127 3.904-10.127 10.012 0 6.105 4.252 9.74 9.779 9.74h.039c5.023 0 9.932-3.17 9.932-10.051 0-5.72-3.864-9.701-9.623-9.701zm-.198 15.193h-.035c-2.322 0-4.395-1.476-4.395-5.299 0-3.377 1.816-5.336 4.43-5.336 2.506 0 4.322 1.959 4.322 5.299.001 3.772-2.144 5.336-4.322 5.336zm17.932-11.251v-3.518h-5.295v18.901h5.875v-9.548c0-.502.037-.927.115-1.313.387-1.855 1.855-2.977 4.02-2.977.658 0 1.121.077 1.625.155v-5.527a5.836 5.836 0 0 0-1.238-.116c-1.856.001-4.137 1.161-5.102 3.943zm17.377-8.658h-5.758v5.141h-2.512v4.329h2.512v7.77c0 2.667.539 4.483 1.623 5.604.965.968 2.551 1.625 4.443 1.625 1.625 0 3.055-.232 3.789-.504l-.039-4.444c-.541.116-.928.155-1.74.155-1.738 0-2.318-1.044-2.318-3.324v-6.881h4.213v-4.329h-4.213v-5.142zm15.676 4.716c-3.439 0-6.031.966-7.344 1.701l1.082 3.748c1.236-.734 3.287-1.391 5.217-1.391 2.9 0 3.441 1.43 3.441 2.436v.23c-6.689 0-11.094 2.32-11.094 7.229 0 3.016 2.279 5.799 6.109 5.799 2.24 0 4.174-.812 5.41-2.32v1.895h5.76v-11.17c.001-4.446-2.282-8.157-8.581-8.157zm2.59 12.445c0 .349-.039.696-.117 1.006-.385 1.197-1.623 2.164-3.051 2.164-1.316 0-2.322-.734-2.322-2.241 0-2.242 2.396-2.978 5.49-2.978v2.049zm20.939-12.445c-3.168 0-5.062 1.816-5.834 3.054h-.117v-2.629h-5.219v18.901h5.875v-10.9c0-.541.039-1.082.193-1.469.426-1.082 1.393-2.203 3.016-2.203 2.125 0 2.977 1.662 2.977 4.098v10.475h5.875v-11.17c0-5.567-2.899-8.157-6.766-8.157zm13.553-8.31c-2.01 0-3.324 1.353-3.324 3.131 0 1.739 1.275 3.131 3.248 3.131h.037c2.051 0 3.326-1.392 3.326-3.131-.039-1.779-1.275-3.131-3.287-3.131z"/><path fill="#21205E" d="M111.447 78.422H117.322V97.323H111.447z"/><path fill="#21205E" d="M133.777 87.428l6.225-9.006h-6.379l-1.662 3.054c-.5.967-.965 1.895-1.467 2.938h-.078a223.402 223.402 0 0 0-1.547-2.822l-1.854-3.169h-6.574l6.262 9.276-6.414 9.625h6.453l1.779-3.401c.463-.928.967-1.855 1.43-2.86h.117c.426.967.928 1.933 1.469 2.86l1.893 3.401h6.65l-6.303-9.896z"/><g><linearGradient id="a" gradientUnits="userSpaceOnUse" x1="46.348" y1="32.285" x2="89.732" y2="32.285" gradientTransform="translate(2 -1)"><stop offset="0" stop-color="#21205E"/><stop offset=".537" stop-color="#6257A5"/><stop offset="1" stop-color="#3BC6F4"/></linearGradient><path fill="url(#a)" d="M85.404 15.846h6.328v-6.33h-6.328v6.33zm0-15.846v6.33h6.328V0h-6.328zm0 25.363h6.328v-6.33h-6.328v6.33zm0 18.504h6.328V28.55h-6.328v15.317zm-8.838-28.021h6.332v-6.33h-6.332v6.33zm0 38.551h6.332V19.034h-6.332v35.363zm-9.689-19.516h6.328V28.55h-6.328v6.331zm0-28.551h6.33V0h-6.33v6.33zm0 19.033h6.328V9.516h-6.328v15.847zm0 37.206h6.328V37.517h-6.328v25.052zM48.348 15.846h6.33v-6.33h-6.33v6.33zm0-9.516h6.33V0h-6.33v6.33zm0 37.537h6.33V19.034h-6.33v24.833zm8.838 10.53h6.33V9.516h-6.33v44.881z"/></g></svg>