<?xml version="1.0" encoding="utf-8"?>
<!-- Generator: Adobe Illustrator 21.0.0, SVG Export Plug-In . SVG Version: 6.00 Build 0)  -->
<svg version="1.1" id="Layer_1" xmlns="http://www.w3.org/2000/svg" xmlns:xlink="http://www.w3.org/1999/xlink" x="0px" y="0px"
	 viewBox="0 0 792 612" style="enable-background:new 0 0 792 612;" xml:space="preserve">
<style type="text/css">
	.st0{fill:#0075CF;}
	.st1{fill:#FED30E;}
</style>
<g>
	<path class="st0" d="M379.8,314.7l-0.1-74.4h-9.5c0,0,0,70.8,0,78c0,8.9,1.8,14.3,5.2,17.6c2.6,2.6,7,6,14.1,6v-9.2
		c-3.2,0-6.4-1.3-8.1-4.4C379.6,325.2,379.8,319.5,379.8,314.7z"/>
	<polygon class="st0" points="507.6,272.1 507.6,272.1 498.1,272.1 498.1,280.2 507.1,280.2 507.1,339.5 516.6,339.5 516.6,272.1 	
		"/>
	<circle class="st0" cx="511.9" cy="253.2" r="5.9"/>
	<rect x="146.5" y="240.7" class="st1" width="8.4" height="130.2"/>
	<rect x="636.2" y="240.8" class="st1" width="8.9" height="129.9"/>
	<path class="st0" d="M443.7,270.7c-18.1,0-29.7,15.7-29.7,35.1c0,19.4,11.2,35.1,29.7,35.1c18.5,0,29.7-15.7,29.7-35.1
		C473.3,286.4,462.3,270.7,443.7,270.7z M443.7,332.5c-12.4,0-19.9-11.9-19.9-26.7c0-14.7,7.8-26.7,19.9-26.7
		c12.5,0,19.9,11.9,19.9,26.7C463.6,320.5,456.1,332.5,443.7,332.5z"/>
	<path class="st0" d="M336.2,323.1c0-6.8,0-18.1,0-31.1c0-12.6-9.9-20.4-22.5-20.4c-8.3,0-18.2,3.8-22.9,5.7l3.3,7.4
		c3.7-1.4,10.5-4.8,19.5-4.8c5.8,0,12.8,2.2,12.8,13.2c0,3.1,0,6.1,0,6.1c-34.5,0-41.9,12.7-41.9,22.5c0,13.4,11.4,18.7,21.6,18.7
		c11.7,0,19.4-8.2,20.3-9.2l0.1,0c4.8,10.2,16,9.7,16,9.7v-8.4C339,332.5,336.2,330,336.2,323.1z M326.4,322.1
		c0,0-7.4,10.5-18.8,10.5c-7.8,0-13.1-3.7-13.7-9.7c-1-10.2,7.8-16.8,29.9-16.8c1.9,0,2.7-0.2,2.7-0.2V322.1z"/>
	<path class="st0" d="M243.2,329.8h-21c-3.6,0-10.3,0-10.3-4.2c0-4.2,7.2-6.2,11.2-6.1l0,0c2.3,0.7,4.8,1,7.3,1
		c14.3,0,25.9-11.3,25.9-25.3c0-5.5-1.8-10.6-4.9-14.8h9.8v-8.1h-20c-3.3-1.5-7-2.3-10.9-2.3c-14.3,0-26.1,11.3-26.1,25.3
		c0,8.3,4.2,15.7,10.6,20.3l-0.1,0c-5.7,1.5-11.1,5.5-11.1,11.8c0,9.6,11.2,10.5,11.2,10.5l0,0.2c0,0-11.9,5.2-11.9,16.4
		c0,11.7,10.6,16.5,21.5,16.5c16.2,0,38.3-11.3,38.3-25.2C262.8,329.9,247.3,329.8,243.2,329.8z M230.3,276.4
		c9.1,0,16.5,8.4,16.5,18.9c0,10.4-7.4,18.9-16.5,18.9c-9.1,0-16.5-8.4-16.5-18.9C213.8,284.8,221.2,276.4,230.3,276.4z M226,363.1
		c-11.2,0-15.1-5.7-15.1-11.1c0-8.7,11.1-12.6,12.2-12.6s13.7,0,13.7,0c9.2,0,15.7-0.4,15.7,8.1C252.4,356.3,237.8,363.1,226,363.1z
		"/>
	<path class="st0" d="M572.7,271.5c-11.8,0-25,5.3-25,17.4c0,23.6,37.1,16.6,37.1,32.3c0,7.8-8.6,10-14.7,10
		c-10.9,0-22.2-5.5-22.2-5.5l-2.4,8.9c5.8,3,15.6,5.3,23.3,5.3c13.4,0,25.5-5.9,25.5-19.8c0-22.3-37.1-16.9-37.1-31.5
		c0-5.2,6.1-9,14.8-9c8.9,0,15.4,2.8,15.4,2.8l2.5-7.9C589.9,274.6,583.3,271.5,572.7,271.5z"/>
</g>
</svg>
