<svg enable-background="new 0 0 792 612" viewBox="0 0 792 612" xmlns="http://www.w3.org/2000/svg"><g fill="#0075cf"><path d="m379.8 314.7-.1-74.4h-9.5v78c0 8.9 1.8 14.3 5.2 17.6 2.6 2.6 7 6 14.1 6v-9.2c-3.2 0-6.4-1.3-8.1-4.4-1.8-3.1-1.6-8.8-1.6-13.6z"/><path d="m507.6 272.1h-9.5v8.1h9v59.3h9.5v-67.4z"/><circle cx="511.9" cy="253.2" r="5.9"/></g><path d="m146.5 240.7h8.4v130.2h-8.4z" fill="#fed30e"/><path d="m636.2 240.8h8.9v129.9h-8.9z" fill="#fed30e"/><g fill="#0075cf"><path d="m443.7 270.7c-18.1 0-29.7 15.7-29.7 35.1s11.2 35.1 29.7 35.1 29.7-15.7 29.7-35.1c-.1-19.4-11.1-35.1-29.7-35.1zm0 61.8c-12.4 0-19.9-11.9-19.9-26.7 0-14.7 7.8-26.7 19.9-26.7 12.5 0 19.9 11.9 19.9 26.7 0 14.7-7.5 26.7-19.9 26.7z"/><path d="m336.2 323.1c0-6.8 0-18.1 0-31.1 0-12.6-9.9-20.4-22.5-20.4-8.3 0-18.2 3.8-22.9 5.7l3.3 7.4c3.7-1.4 10.5-4.8 19.5-4.8 5.8 0 12.8 2.2 12.8 13.2v6.1c-34.5 0-41.9 12.7-41.9 22.5 0 13.4 11.4 18.7 21.6 18.7 11.7 0 19.4-8.2 20.3-9.2h.1c4.8 10.2 16 9.7 16 9.7v-8.4c-3.5 0-6.3-2.5-6.3-9.4zm-9.8-1s-7.4 10.5-18.8 10.5c-7.8 0-13.1-3.7-13.7-9.7-1-10.2 7.8-16.8 29.9-16.8 1.9 0 2.7-.2 2.7-.2v16.2z"/><path d="m243.2 329.8h-21c-3.6 0-10.3 0-10.3-4.2s7.2-6.2 11.2-6.1c2.3.7 4.8 1 7.3 1 14.3 0 25.9-11.3 25.9-25.3 0-5.5-1.8-10.6-4.9-14.8h9.8v-8.1h-20c-3.3-1.5-7-2.3-10.9-2.3-14.3 0-26.1 11.3-26.1 25.3 0 8.3 4.2 15.7 10.6 20.3h-.1c-5.7 1.5-11.1 5.5-11.1 11.8 0 9.6 11.2 10.5 11.2 10.5v.2s-11.9 5.2-11.9 16.4c0 11.7 10.6 16.5 21.5 16.5 16.2 0 38.3-11.3 38.3-25.2.1-15.9-15.4-16-19.5-16zm-12.9-53.4c9.1 0 16.5 8.4 16.5 18.9 0 10.4-7.4 18.9-16.5 18.9s-16.5-8.4-16.5-18.9 7.4-18.9 16.5-18.9zm-4.3 86.7c-11.2 0-15.1-5.7-15.1-11.1 0-8.7 11.1-12.6 12.2-12.6s13.7 0 13.7 0c9.2 0 15.7-.4 15.7 8.1-.1 8.8-14.7 15.6-26.5 15.6z"/><path d="m572.7 271.5c-11.8 0-25 5.3-25 17.4 0 23.6 37.1 16.6 37.1 32.3 0 7.8-8.6 10-14.7 10-10.9 0-22.2-5.5-22.2-5.5l-2.4 8.9c5.8 3 15.6 5.3 23.3 5.3 13.4 0 25.5-5.9 25.5-19.8 0-22.3-37.1-16.9-37.1-31.5 0-5.2 6.1-9 14.8-9 8.9 0 15.4 2.8 15.4 2.8l2.5-7.9c0 .1-6.6-3-17.2-3z"/></g></svg>