<svg xmlns="http://www.w3.org/2000/svg" width="210.688" height="114.558"><defs><clipPath id="a"><path d="M1028.23 3190.84v1404.58H264.512V3190.84h763.718z"/></clipPath></defs><g transform="translate(-68.402 -37.459)"><path d="M94.68 62.214l-2.242-22.257 16.059-2.498" fill="#00a998"/><path d="M92.436 39.957l-10.11 9.879L94.68 62.214" fill="#33baa4"/><path d="M75.15 42.645l17.286-2.688-10.108 9.879" fill="#73cfb9"/><path d="M93.762 63.075l-22.79-1.542 12.503-8.764" fill="#33baa4"/><path d="M70.971 61.533l3.263-18.022 9.241 9.26" fill="#00a998"/><path d="M70.971 61.533l6.972 9.435 15.82-7.893" fill="#73cfb9"/><path d="M70.971 61.533l6.972 9.435-9.541 4.762" fill="#33baa4"/><path d="M94.337 64.196l-13.794 6.882 18.38 22.24" fill="#00a998"/><path d="M98.922 93.318L80.643 71.194l-.1-.116-.62 11.831" fill="#33baa4"/><path d="M68.918 76.88l11.626-5.802-.62 11.831" fill="#00a998"/><path d="M97.514 76.278l8.584-9.92L95.59 64.06" fill="#73cfb9"/><path d="M97.514 76.278l11.077 8.979-2.493-18.9" fill="#33baa4"/><path d="M97.514 76.278l11.077 8.979-8.412 7.95" fill="#00a998"/><path d="M106.1 66.358l18.26 3.992-15.769 14.907m-7.458-32.02l4.967 11.831-10.311-2.253" fill="#73cfb9"/><path d="M101.133 53.237l4.967 11.831 14.808-3.535" fill="#33baa4"/><path d="M106.1 65.069l18.433 4.03-3.625-7.566" fill="#00a998"/><path d="M101.133 53.237l19.775 8.296-11.274-23.527" fill="#73cfb9"/><path d="M168.237 70.313v10H146.62c-2.527.483-2.649 2.58-2.649 2.58v23.98s-.24 2.824 2.6 3.217h12.71v-9.213h-7.447v-9.782h17.237v28.568h-22.382c-8.896 0-12.44-4.31-12.44-13.415V83.171c0-8.618 4.726-12.858 13.97-12.858m83.084 0v10h-21.618c-2.526.483-2.65 2.58-2.65 2.58v23.98s-.239 2.824 2.6 3.217h12.711v-9.213h-7.449v-9.782h17.24v28.568h-22.382c-8.898 0-12.44-4.31-12.44-13.415V83.171c0-8.618 4.724-12.858 13.969-12.858m58.188 39.787V96.48l-14.097 1.904c-3.429.478-6.285 1.906-6.285 6.095 0 3.716 2.095 5.622 4.762 5.622h15.62zm-6.477-39.81c11.62 0 16.096 6.666 16.096 17.904v31.525h-25.144c-8.952 0-14.666-5.238-14.666-15.334 0-8.191 5.618-12.858 15.239-14.476l15.045-2.477c0-4.382-1.902-7.238-6.284-7.238h-17.334v-9.905" fill="#231f20"/><g clip-path="url(#a)" transform="matrix(0 .15 .15 0 -410.223 -2.218)"><path d="M483.375 3923.24h65.945v64.758h-65.945v-64.758zm93.355-.01h236.184v64.758H576.73v-64.758z" fill="#231f20"/><path d="M266.609 3489.09v-4.66l219.454 105.18 160.546-169.85h5.532l.23.01-165.363 174.94" fill="#00a998"/><path d="M984.301 3635.65c1.199 0 1.801-.6 1.801-1.8v-3.22c0-1.2-.602-1.6-1.801-1.6h-94.867c-1.207 0-1.817.4-1.817 1.6v3.22c0 1.2.61 1.8 1.817 1.8h94.867zm-117.133 0c1.199 0 1.797-.6 1.797-1.8v-3.22c0-1.2-.598-1.6-1.797-1.6h-19.453c-1.207 0-1.817.4-1.817 1.6v3.22c0 1.2.61 1.8 1.817 1.8m39.91 40.72c0 1.2.602 1.59 1.809 1.59l9.214.42c-4.808 5.8-12.632 18.05-12.632 35.5 0 18.85 9.632 27.27 23.066 27.27h75.219c1.199 0 1.801-.61 1.801-1.81v-3.21c0-1.2-.602-1.61-1.801-1.61h-74.219c-10.422 0-18.047-6.61-18.047-21.85 0-17.65 8.832-29.49 12.633-34.1h79.633c1.199 0 1.801-.61 1.801-1.8v-3.21c0-1.2-.602-1.61-1.801-1.61h-94.867c-1.207 0-1.809.41-1.809 1.61m.199 106.3h-19.449c-13.641 0-23.465 7.82-23.465 34.3v.8c0 1.2.598 1.61 1.797 1.61h2.211c1.199 0 1.797-.41 1.797-1.61v-.8c0-21.67 7.625-27.68 18.262-27.68h18.847v24.87c0 1.21.602 1.81 1.801 1.81h2.207c1.211 0 1.809-.6 1.809-1.81v-24.87h90.66c1.199 0 1.801-.4 1.801-1.8v-3.01c0-1.21-.602-1.81-1.801-1.81h-90.66v-13.65c0-1.19-.598-1.59-1.809-1.59h-1.797c-1.211 0-1.808.4-1.808 1.59l-.403 11.25m22.067 118.53c-10.434 0-18.25-6.42-18.25-28.07 0-21.46 7.816-27.88 18.25-27.88h53.961c10.414 0 18.046 6.42 18.046 27.88 0 21.65-7.632 28.07-18.046 28.07h-53.961zm-.407-62.57c-13.836 0-23.468 8.22-23.468 34.5 0 26.47 9.632 34.71 23.468 34.71h54.758c13.641 0 23.465-8.24 23.465-34.71 0-26.28-9.824-34.5-23.465-34.5m-57.765 158.65c-8.829 0-15.243-8.02-15.243-26.67 0-18.65 6.414-26.27 15.243-26.27h7.414c7.632 0 12.242 7.21 13.851 12.42l9.625 31.89c2.61 8.63 8.426 16.45 17.649 16.45h12.035c11.633 0 20.656-10.43 20.656-34.29 0-23.87-9.023-34.1-20.656-34.1h-5.817c-1 0-1.609.6-1.609 1.81v3c0 1.01.609 1.62 1.609 1.62h5.618c9.023 0 15.441 8.41 15.441 27.67 0 19.05-6.418 27.88-15.441 27.88h-10.434c-7.418 0-11.434-6.42-13.441-13.24l-9.625-31.9c-2.012-6.61-8.418-15.64-18.442-15.64h-8.433c-11.434 0-20.454 9.23-20.454 32.7 0 23.46 9.02 32.89 20.454 32.89h7.023c1 0 1.41-.4 1.41-1.81v-3c0-1.01-.41-1.41-1.41-1.41m54.551 57.57c2.406.8 8.824 2.6 8.824 2.6s-5.609 1.21-8.824 2.41l-78.625 27.08c-1.199.4-1.801 1-1.801 2v3.41c0 1.2.809 1.61 1.801 1.2l137.004-46.92c.99-.4 1.8-1.01 1.8-2.01v-2.81c0-1.2-.81-1.61-1.8-1.2l-40.52 13.43-96.484-33.09c-.992-.4-1.801 0-1.801 1.2v3.41c0 1.21.602 1.82 1.801 2.21m17.051 143.61c-8.829 0-15.243-8.02-15.243-26.67 0-18.67 6.414-26.27 15.243-26.27h7.414c7.632 0 12.242 7.21 13.851 12.42l9.625 31.9c2.61 8.62 8.426 16.45 17.649 16.45h12.035c11.633 0 20.656-10.43 20.656-34.31 0-23.87-9.023-34.09-20.656-34.09h-5.817c-1 0-1.609.6-1.609 1.8v3.01c0 1 .609 1.61 1.609 1.61h5.618c9.023 0 15.441 8.42 15.441 27.67 0 19.06-6.418 27.88-15.441 27.88h-10.434c-7.418 0-11.434-6.41-13.441-13.24l-9.625-31.89c-2.012-6.62-8.418-15.64-18.442-15.64h-8.433c-11.434 0-20.454 9.22-20.454 32.7 0 23.46 9.02 32.89 20.454 32.89h7.023c1 0 1.41-.41 1.41-1.81v-3.01c0-1-.41-1.4-1.41-1.4m-25.676 72.4c0 1.2.602 1.81 1.801 1.81h2.207c1.211 0 1.809-.61 1.809-1.81v-25.07h68.402c10.625 0 18.242 5.82 18.242 27.48v2.81c0 1.21.399 1.81 1.805 1.81h2.211c1.199 0 1.801-.6 1.801-1.81v-3.41c0-26.47-9.426-33.49-23.461-33.49h-69v-13.44c0-1.2-.598-1.8-1.809-1.8h-1.797c-1.211 0-1.808.6-1.808 1.8l-.403 11.03v2.41h-22.265c-1.2 0-1.801.4-1.801 1.6v3.21c0 1.2.601 1.8 1.801 1.8h22.265m43.117 60.18v55.35h-21.257c-10.235 0-18.051-6.01-18.051-27.67 0-21.66 7.816-27.68 18.051-27.68h21.257zm3.618 61.78c1.199 0 1.8-.6 1.8-1.61v-60.17h27.481c10.426 0 18.25 5.82 18.25 27.68s-7.824 27.67-18.25 27.67h-5.016c-1.199 0-1.801.6-1.801 1.81v2.81c0 1.21.602 1.81 1.801 1.81h5.418c13.641 0 23.465-7.83 23.465-34.3 0-26.28-9.824-34.1-23.465-34.1h-54.758c-13.836 0-23.468 7.82-23.468 34.3 0 26.27 9.632 34.1 23.468 34.1m-21.859 36.3c0 1.2.602 1.61 1.809 1.61l9.023.2c-4.617 5.61-12.441 17.04-12.441 34.49 0 14.04 5.418 22.26 13.644 25.67-4.219 4.83-13.644 16.65-13.644 35.71 0 18.85 9.632 27.27 23.066 27.27h75.219c1.199 0 1.801-.59 1.801-1.8v-3c0-1.41-.602-1.82-1.801-1.82h-74.219c-10.422 0-18.047-6.61-18.047-21.86 0-18.45 9.422-29.47 13.039-33.49 1.602.4 3.41.6 5.008.6h74.219c1.199 0 1.801-.6 1.801-1.81v-3.21c0-1.19-.602-1.59-1.801-1.59h-74.219c-10.422 0-18.047-6.63-18.047-21.87 0-17.45 8.832-28.68 12.633-32.9h79.633c1.199 0 1.801-.59 1.801-1.79v-3.22c0-1.2-.602-1.59-1.801-1.59h-94.867c-1.207 0-1.809.39-1.809 1.59m18.852 218.43c-8.829 0-15.243-8.01-15.243-26.67 0-18.65 6.414-26.28 15.243-26.28h7.414c7.632 0 12.242 7.23 13.851 12.44l9.625 31.89c2.61 8.62 8.426 16.45 17.649 16.45h12.035c11.633 0 20.656-10.43 20.656-34.3 0-23.88-9.023-34.09-20.656-34.09h-5.817c-1 0-1.609.6-1.609 1.8v3.01c0 1 .609 1.6 1.609 1.6h5.618c9.023 0 15.441 8.43 15.441 27.68 0 19.05-6.418 27.88-15.441 27.88h-10.434c-7.418 0-11.434-6.42-13.441-13.25l-9.625-31.88c-2.012-6.63-8.418-15.64-18.442-15.64h-8.433c-11.434 0-20.454 9.21-20.454 32.69 0 23.46 9.02 32.89 20.454 32.89h7.023c1 0 1.41-.4 1.41-1.81v-3c0-1.01-.41-1.41-1.41-1.41" fill="#231f20"/></g></g></svg>