<svg xmlns="http://www.w3.org/2000/svg" viewBox="0 0 766.86 420"><defs><style>.cls-1{fill:#23c386;}.cls-2{fill:#0e6655;}.cls-3{fill:#b22449;}.cls-4{fill:#e6325a;}.cls-5{fill:#fff;}.cls-6{fill:#222;}</style></defs><title>Asset 16</title><g id="Layer_2" data-name="Layer 2"><g id="Artwork"><g id="full-color_mascot" data-name="full-color mascot"><path class="cls-1" d="M466.66,376.37a39,39,0,0,0-25.58,22.35s-1.82,10.32-56.77,10.93h-1.67c-54.94-.81-56.76-10.93-56.76-10.93a39,39,0,0,0-25.58-22.35C205.12,360.7,191,329.19,188.18,306.18c-1.66-13.25,2.58-31.7,6.78-46.12,9.45-32.56,22.59-77.16,10.86-104.37-6.46-15-24.06-36.61-71.17-54l-.81-.3c-8.54-3-38.51-15-56-23.27A128.24,128.24,0,0,1,31.38,43.63a137.24,137.24,0,0,1-21-33.23c93.47,62.46,157,48.45,184,62.1a55.65,55.65,0,0,1,25.93,28.67c27.55-42.32,76.58-69.38,156-69.38h14.2c79.46,0,128.49,27.06,156,69.38A55.62,55.62,0,0,1,572.46,72.5c27-13.65,90.58.36,184-62.15A141.22,141.22,0,0,1,718,60.92c-14.31,12.19-39.43,22-66,32.42-40.95,15.87-83.46,32.82-91,61.39C553.35,184,563.81,223.15,572.2,258A213.52,213.52,0,0,1,579,302.44C577.86,325.8,567.1,359.84,466.66,376.37Z"/><path class="cls-2" d="M766.86,10.35A10.35,10.35,0,0,0,756.57,0h-.45a10.2,10.2,0,0,0-5.49,1.82C688.16,43.57,639,50.1,606.48,54.42c-16.08,2.14-28.77,3.82-38.7,8.84l-.11.06a66.05,66.05,0,0,0-22.22,18.85c-33-40.31-85-60.73-155-60.73h-14.2c-70,0-122,20.42-155,60.73a66.05,66.05,0,0,0-22.22-18.85l-.11,0c-9.92-5-22.61-6.71-38.69-8.85C127.77,50.1,78.62,43.57,16.1,1.79A10.35,10.35,0,0,0,.9,14.62C2.59,18.41,9.17,35.56,11,40.34c8,20.84,37.75,64.51,43.69,116.58.63,5,1.52,10.84,2.73,16.71l30.09,4.47-23.79,18A125.88,125.88,0,0,0,99,250.8l35-17.72-13,31.67c15.6,6.87,36.78,9.73,60.27,6.74-3.42,14.79-4.52,26.66-3.35,36,3,24.18,15.81,37,25.21,44.61,19.62,15.81,50.67,27.06,94.92,34.4a28.45,28.45,0,0,1,18.08,15.75c3.82,11.49,25,17.15,66.37,17.76h1.94c23.95-.27,41.58-2.39,52.4-6.31,9.11-3.3,12.68-7.72,14-11.35a28.42,28.42,0,0,1,18.11-15.85c46.54-7.71,78.59-19.73,98-36.74,18.89-16.57,21.85-34.66,22.43-46.82q0-.48,0-1a224.32,224.32,0,0,0-3.53-30.56,139.27,139.27,0,0,0,24,1.16l-4.15-31L626.89,269l2.24-18.09,13.44,14.47a96.93,96.93,0,0,0,43.27-36.58l-34.92-29.7,45.45,10.5a140.55,140.55,0,0,0,13.29-41.45L689.41,158.1s22.75-3.32,22.75-3.42l-29.45-14.27,31.25.3c9.47-45.23,34.34-82,41.63-100.5,1.78-4.54,8.45-21.42,10.21-25.3A10.23,10.23,0,0,0,766.86,10.35Zm-300.2,366a39,39,0,0,0-25.58,22.35s-1.82,10.32-56.77,10.93h-1.67c-54.94-.81-56.76-10.93-56.76-10.93a39,39,0,0,0-25.58-22.35C205.12,360.7,191,329.19,188.18,306.18c-1.66-13.25,2.58-31.7,6.78-46.12,9.45-32.56,22.59-77.16,10.86-104.37-6.46-15-24.06-36.61-71.17-54l-.81-.3c-8.54-3-38.51-15-56-23.27A128.24,128.24,0,0,1,31.38,43.63a137.24,137.24,0,0,1-21-33.23c93.47,62.46,157,48.45,184,62.1a55.65,55.65,0,0,1,25.93,28.67c27.55-42.32,76.58-69.38,156-69.38h14.2c79.46,0,128.49,27.06,156,69.38A55.62,55.62,0,0,1,572.46,72.5c27-13.65,90.58.36,184-62.15A141.22,141.22,0,0,1,718,60.92c-14.31,12.19-39.43,22-66,32.42-40.95,15.87-83.46,32.82-91,61.39C553.35,184,563.81,223.15,572.2,258A213.52,213.52,0,0,1,579,302.44C577.86,325.8,567.1,359.84,466.66,376.37Z"/><g id="Spots"><path class="cls-2" d="M401.84,54.6C407.42,50.77,433,54,433,54c6,.86,10.07,5.34,6.85,8.31a34.47,34.47,0,0,1-26.75,5C400.52,64.83,396.2,58.43,401.84,54.6Z"/><path class="cls-2" d="M399.87,78.74c14.4.7,6.55,15.11-2.07,16.82s-21.9-2.77-20.14-8.16S392.42,78.33,399.87,78.74Z"/><path class="cls-2" d="M355.05,52c10.43-1.21,23.37,10.08,24.22,14.82,1.11,5.89-6.24,8.41-24.22,11s-34.35-6-34.35-11S344.57,53,355.05,52Z"/></g><g id="Creases"><path class="cls-2" d="M302.7,256.5c3.66-.78,33-7.69,39.91-28.18C342.76,228.32,352.67,260.24,302.7,256.5Z"/><path class="cls-2" d="M424.6,228.32c7.55,21.86,40.28,28.26,40.28,28.26C411.51,259.15,424.6,228.32,424.6,228.32Z"/></g><g id="Brow"><path class="cls-2" d="M236.55,162.82c22.36-.7,50.36,24.49,92.92,41.26,15.51,6.1,32.28,11,34.69,11.69s-15.1,1.87-25.18,3a49.75,49.75,0,0,1-45.32,24.78c-29.76,0-44.06-18.49-47.59-37.68a54.91,54.91,0,0,1-.8-16.08s13-1.81,40.94,4.54c-17.33-8.62-31.83-15.12-44.67-15.57A65.9,65.9,0,0,0,219,182.12S223,163.12,236.55,162.82Z"/><path class="cls-2" d="M528.94,178.69v.1c-12.79.51-27.45,7-44.62,15.57,27.85-6.35,40.95-4.54,40.95-4.54a57.05,57.05,0,0,1-.86,16.08c-3.48,19.19-17.83,37.68-47.59,37.68a49.86,49.86,0,0,1-45.33-24.78c-10.07-1.16-27.64-2.32-25.18-3s19.14-5.59,34.7-11.69c42.71-16.77,70.51-42,92.92-41.26,13.49.41,17.32,19.3,17.32,19.3A65.3,65.3,0,0,0,528.94,178.69Z"/></g><g id="Eyes"><path class="cls-3" d="M484.22,194.5C512,188.15,525.06,190,525.06,190a57,57,0,0,1-.85,16.08c-3.47,19.21-17.79,37.7-47.48,37.7A49.69,49.69,0,0,1,431.52,219C449.88,212.85,468.46,203.53,484.22,194.5Z"/><path class="cls-3" d="M339.05,219a49.67,49.67,0,0,1-45.21,24.79c-29.69,0-44-18.49-47.48-37.7a57,57,0,0,1-.85-16.08s13.06-1.81,40.84,4.54C302.11,203.53,320.7,212.85,339.05,219Z"/></g><g id="Pupil_Shine" data-name="Pupil + Shine"><path id="Pupil" class="cls-4" d="M276.7,205.3s46.18,11.42,44.52,19.82S304.94,240.58,291,237.55s-22.6-18.81-25.25-23.51-3.66-14.11,11-8.74Z"/><path id="Pupil-2" data-name="Pupil" class="cls-4" d="M495.43,205.3s-46.18,11.42-44.52,19.82,16.28,15.46,30.23,12.43,22.59-18.81,25.25-23.51,3.65-14.11-11-8.74Z"/><path id="Shine" class="cls-5" d="M303.94,214.37s14.95,3.7,15.28,10.42-21.93-7.73-27.57-10.08-.34-4.71,12.29-.34Z"/><path id="Shine-2" data-name="Shine" class="cls-5" d="M467.9,214.37s-14.95,3.7-15.28,10.42,21.93-7.73,27.58-10.08.33-4.71-12.3-.34Z"/></g><path id="Grin" class="cls-6" d="M535.08,258.47c-1.46,17.79-13.65,27.86-46.79,27.86-4,0-8.21-.15-12.74-.45-35.76-2.32-51.32-7.36-90.09-7.36s-54.34,5.14-90,7.36a126.81,126.81,0,0,1-12.74.45c-33.13,0-45.32-9.92-46.83-27.86-27.1,22.22,7.75,54.16,34.49,67.56s61,20.3,109.84,21.72h10.68c48.79-1.57,83.09-8.32,109.88-21.72v-.1C527,312.84,562.27,280.79,535.08,258.47Z"/><g id="Teeth"><path class="cls-5" d="M251.19,305.78c-8.16-6.87-20.67-19.11-18.59-31.13a.8.8,0,0,1,1.47-.27c5.76,9.64,16.6,14.54,27.33,16.63a.8.8,0,0,1,.51,1.25l-9.55,13.38A.81.81,0,0,1,251.19,305.78Z"/><path class="cls-5" d="M271.2,319.29A114,114,0,0,1,257.85,311a1.19,1.19,0,0,1-.27-1.66l10.3-14.53a.8.8,0,0,1,1.44.34L272.94,318C273.15,319.34,272.36,319.9,271.2,319.29Z"/><path class="cls-5" d="M279.67,319.69l-3.83-24.26a2.39,2.39,0,0,1,2.44-2.76c1.49,0,3,.05,4.4.05,3.94,0,8.4,0,13.25-.47l1.05-.07a2.39,2.39,0,0,1,2.07,3.82L281.1,320.05A.8.8,0,0,1,279.67,319.69Z"/><path class="cls-5" d="M321,335.62a203.42,203.42,0,0,1-32-8.55,3.2,3.2,0,0,1-1.48-4.92c5.38-7.22,17.73-23.8,21.07-28.37A.8.8,0,0,1,310,294l14.62,37.35A3.19,3.19,0,0,1,321,335.62Z"/><path class="cls-5" d="M332.4,334.54,317,294.49a3.19,3.19,0,0,1,2.63-4.32c4.43-.5,8.64-1,12.79-1.53,7.53-.92,14.85-1.82,23-2.51a2.4,2.4,0,0,1,2.31,3.51l-23.84,45A.8.8,0,0,1,332.4,334.54Z"/><path class="cls-5" d="M374.62,341.16c-10.88-.42-21-1.15-30.55-2.18a3.2,3.2,0,0,1-2.49-4.66L362,295.18a.8.8,0,0,1,1.47.11l14.27,41.64A3.19,3.19,0,0,1,374.62,341.16Z"/><path class="cls-5" d="M386.21,337.47a.8.8,0,0,1-1.51,0L368.23,289.4a3.2,3.2,0,0,1,2.89-4.23c4.44-.16,9.18-.26,14.34-.26s9.9.09,14.33.26a3.2,3.2,0,0,1,2.9,4.23Z"/><path class="cls-5" d="M426.6,339c-9.51,1-19.67,1.76-30.55,2.18a3.2,3.2,0,0,1-3.15-4.23l14.27-41.64a.8.8,0,0,1,1.47-.11l20.45,39.14A3.2,3.2,0,0,1,426.6,339Z"/><path class="cls-5" d="M436.82,334.63l-23.84-45a2.4,2.4,0,0,1,2.32-3.51c8.11.69,15.44,1.59,23,2.51,4.47.55,9,1.11,13.82,1.64a2.39,2.39,0,0,1,2,3.24l-15.78,41A.8.8,0,0,1,436.82,334.63Z"/><path class="cls-5" d="M481.7,327.07a203.42,203.42,0,0,1-32.05,8.55,3.19,3.19,0,0,1-3.55-4.31L460.72,294a.8.8,0,0,1,1.39-.18c3.35,4.57,15.69,21.15,21.07,28.37A3.2,3.2,0,0,1,481.7,327.07Z"/><path class="cls-5" d="M494.83,295.43,491,319.69a.79.79,0,0,1-1.42.36l-18-24.05a2.39,2.39,0,0,1,2.07-3.82l1.05.07c4.86.47,9.32.47,13.25.47,1.44,0,2.91,0,4.41-.05A2.38,2.38,0,0,1,494.83,295.43Z"/><path class="cls-5" d="M512.82,311a114,114,0,0,1-13.35,8.32c-1.16.61-1.94,0-1.74-1.25l3.62-22.92a.8.8,0,0,1,1.44-.34l10.31,14.53A1.19,1.19,0,0,1,512.82,311Z"/><path class="cls-5" d="M524.52,301.45c-1.5,1.47-3.11,2.91-4.79,4.34a.8.8,0,0,1-1.17-.15L509,292.21a.8.8,0,0,1,.5-1.25c7.08-1.36,12.89-3.52,17.54-6.52a30.23,30.23,0,0,0,9.82-10.06.8.8,0,0,1,1.47.29,15.23,15.23,0,0,1,.08,4.11C537.63,285.54,532.83,293.38,524.52,301.45Z"/></g></g></g></g></svg>