<svg id="Layer_1" data-name="Layer 1" xmlns="http://www.w3.org/2000/svg" viewBox="0 0 256.41 178.08"><defs><style>.cls-1{fill:none;stroke:#ed1c26;stroke-miterlimit:10;stroke-width:.61px}.cls-2{fill:#9dcc50}.cls-3{fill:#486d1e}.cls-4{fill:#98090c}.cls-5{fill:#fff}.cls-6{fill:#ed1c26}.cls-7{fill:#4a484a}</style></defs><title>GremlinInc-MASTER</title><path class="cls-1" d="M0 151.21L256.41 151.21"/><path class="cls-2" d="M230.82 14.73c-23.59 16.8-39.6 13.07-46.29 16.52a13.6 13.6 0 0 0-6.28 7c-6.66-10.4-18.53-17.06-37.74-17.06H137c-19.22 0-31.09 6.66-37.74 17.06a13.6 13.6 0 0 0-6.28-7c-6.69-3.45-22.7.28-46.29-16.52a23.22 23.22 0 0 0 1.64 8.66c1.88 5.17 8.79 16 10.18 28.89a48 48 0 0 0 .93 5.52l4.67.4-3.5 3.8c1.62 4.92 4.22 9.91 8.21 13.54L77 71.16 74 79c4.71 2.2 10.74 2.77 18.39.54a20 20 0 0 0-.82 4.9C91.43 89.62 89 101 118.64 106a9.47 9.47 0 0 1 6.19 5.5s.44 2.54 13.73 2.69h.44c13.29-.15 13.73-2.69 13.73-2.69a9.47 9.47 0 0 1 6.19-5.5c29.63-5 27.21-16.33 27.08-21.5a20 20 0 0 0-.82-4.9 31.64 31.64 0 0 0 10.49 1.38l-.47-5.78 3.08 5.44h.07v-4.62l2.95 3.88a22.27 22.27 0 0 0 11.85-9.78l-5-5.49 7.22 1.22a45.6 45.6 0 0 0 3.18-10.74l-5.3-2.11 5.71-.38-3.65-2 4-.45c1.87-12 8.12-21.86 9.9-26.74a23.22 23.22 0 0 0 1.61-8.7z" transform="translate(-10.55 -14.73)"/><path class="cls-3" d="M230.8 14.75a35.35 35.35 0 0 1-10.28 14.41c-9.09 7.83-35.86 12.62-38.83 23.32 0 0-1.32 3.83.28 17.15a45 45 0 0 0 3.22 9.94 31.61 31.61 0 0 0 10.44 1.37l-.43-5.74 3.08 5.44h.07v-4.62l2.95 3.88a22.27 22.27 0 0 0 11.85-9.78l-5-5.49 7.22 1.22a45.6 45.6 0 0 0 3.18-10.74l-5.3-2.11 5.71-.38-3.65-2 4-.45c1.87-12 8.12-21.86 9.9-26.74a23.22 23.22 0 0 0 1.64-8.66zM94.49 73.83a28.27 28.27 0 0 0 1.38-7 84.78 84.78 0 0 0 .47-10.06C96.23 51.41 95 50 92 47s-11.81-6.84-14-7.67-9.69-4-13.61-5.75a30.63 30.63 0 0 1-11.68-8.81 35 35 0 0 1-5.93-10.06 23.22 23.22 0 0 0 1.64 8.66c1.88 5.17 8.79 16 10.18 28.89a48 48 0 0 0 .93 5.52l4.67.4L60.61 62c1.62 4.92 4.22 9.91 8.21 13.54L77 71.16 74 79c4.71 2.2 10.72 2.76 18.35.55 1.65-3.68 1.29-3.64 2.14-5.72z" transform="translate(-10.55 -14.73)"/><path class="cls-2" d="M111.09 75.6s-5.32.7-9.29-5.47c-3.19-5-.4-10.07-.4-10.07s-1 11.02 9.69 15.54zm67.15-37.3s.14 4.68 3.66 4.24 6.33-6.83 12.17-8.37 24.07-4.41 36.74-19.43c0 0-8 5.58-12.09 7.29s-11 5-20.66 6.5c0 0-10.4.88-13.72 2.73a12.15 12.15 0 0 0-6.1 7.04z" transform="translate(-10.55 -14.73)"/><path class="cls-3" d="M148.58 65.3c1.32 4.76 6.53 8.32 12.76 8.32a13 13 0 0 0 13.08-10.67c.5-2.39.32-4.64-1-6.3z" transform="translate(-10.55 -14.73)"/><path class="cls-3" d="M169.58 58s5.16-2.11 7.35-2a2.84 2.84 0 0 1 2.52 2.44s-2.35-2.11-7.15 1.28-2.72-1.72-2.72-1.72zm-14.95 5.19s-9.54 3.3-10.37 3.55 6.16.74 7.52 1.07 2.85-4.62 2.85-4.62z" transform="translate(-10.55 -14.73)"/><path class="cls-4" d="M174.08 60.66s-.82-1.49-3.52-.83-20.49 7.11-20.49 7.11 2.83 6.66 12.5 6c10.11-.69 12.27-11.24 11.51-12.28z" transform="translate(-10.55 -14.73)"/><path class="cls-3" d="M173.54 85.06a78.18 78.18 0 0 1-9.35-1c-6.83-.94-16.19-2.22-26.33-1.65l-.07-1.32c10.27-.58 19.7.72 26.59 1.66 5.77.79 10.32 1.42 12.05.48a4.2 4.2 0 0 0 2.21-2.17 11.15 11.15 0 0 0-.5-4.19l.36.51a5.51 5.51 0 0 1 1 4 4.49 4.49 0 0 1-2.48 3 7.54 7.54 0 0 1-3.48.68z" transform="translate(-10.55 -14.73)"/><path class="cls-3" d="M176.46 84.51s-11.13 13.11-38.23 13.11V82s10.8-1.1 19.83.77 13.33.97 18.4 1.74z" transform="translate(-10.55 -14.73)"/><path class="cls-3" d="M105.36 85.06a78.18 78.18 0 0 0 9.35-1c6.83-.94 16.19-2.22 26.33-1.65l.07-1.32c-10.27-.58-19.7.72-26.59 1.66-5.77.79-10.32 1.42-12.05.48a4.2 4.2 0 0 1-2.21-2.17 11.15 11.15 0 0 1 .5-4.19l-.36.51a5.51 5.51 0 0 0-1 4 4.49 4.49 0 0 0 2.48 3 7.54 7.54 0 0 0 3.48.68z" transform="translate(-10.55 -14.73)"/><path class="cls-3" d="M102.44 84.51s11.13 13.11 38.23 13.11V82s-10.8-1.1-19.83.77-13.34.97-18.4 1.74z" transform="translate(-10.55 -14.73)"/><path class="cls-5" d="M139.79 96.28c4.87-.25 23.67-1.84 33.14-11.38a69.63 69.63 0 0 1-8.16-.8 166.47 166.47 0 0 0-25.57-1.68 166.47 166.47 0 0 0-25.57 1.68 69.63 69.63 0 0 1-8.16.8c9.47 9.54 28.26 11.13 33.14 11.38a6.28 6.28 0 0 0 1.18 0z" transform="translate(-10.55 -14.73)"/><path class="cls-3" d="M153.6 69.15L148.11 76.17 144.38 68.44 138.39 77.6 133.09 68.68 128.66 77.78 124.22 68.68 118.92 77.6 112.93 68.44 109.21 76.17 103.71 69.15 99.97 74.85 100.8 75.39 103.78 70.85 109.41 78.03 113.06 70.45 118.97 79.47 124.14 70.77 128.1 78.92 128.66 80.05 129.21 78.92 133.18 70.77 138.35 79.47 144.25 70.45 147.91 78.03 153.53 70.85 156.51 75.39 157.34 74.85 153.6 69.15z"/><path class="cls-3" d="M164.08 85.58s2.65 3.64 1.41 4.93 2.09-.74 2.09-.74-2.76-4.2-3.5-4.19z" transform="translate(-10.55 -14.73)"/><path class="cls-3" d="M167.59 89.13s-2.34-3.8-1.87-5.12-1.51-.3-1.51-.3a3 3 0 0 0 0 1.24c.13.25 2.5 4.18 3.38 4.18z" transform="translate(-10.55 -14.73)"/><path class="cls-3" d="M171.42 84.43a8.16 8.16 0 0 1-4 4.63c-3.14 1.62.47 1.16.52 1.07s6-5.29 6-5.29zm-12.77 6.47s4.31-5.57 3.84-7.19 2.37.25 2.37.25-5.11 6.89-6.21 6.94zm-.98-1.96s-2.34-5.18-1.43-6-1.32-.25-1.32-.25-.36 1.31 2.75 6.25z" transform="translate(-10.55 -14.73)"/><path class="cls-3" d="M161.67 88.62s-2.79 3.78-1.76 4.46-2.71.48-2.71.48.78-1.22-.78-5 .25-.29.29-.12 2 3.43 2 3.43 2.74-3.21 2.96-3.25zm-11.4 1.69s4.38-6.42 2.54-7.62 2.52 0 2.52 0l-.91 2.77z" transform="translate(-10.55 -14.73)"/><path class="cls-3" d="M152.3 89s-3.22 4.92-2.35 6.11l-.25.6h-2.48a2.54 2.54 0 0 0 1-1.84 22 22 0 0 0-1.74-3.74s-.14-.6 0-.41 2.38 3.3 2.42 3.43a2.75 2.75 0 0 0 .31.45s2.51-4.49 3.09-4.6zM148 68.71s1.28 8.57 16.65 8.65c.05 0-12.76-.95-16.65-8.65zm-17.84 0s-1.28 8.57-16.65 8.65c0 0 12.81-.95 16.65-8.65zm15.89 18.8s-2.45-4.49-.5-5.29l-4.6-.44a3.64 3.64 0 0 1 1.4 1.85c.25 1.07-1 4.38-1 4.38v.52l2.18-4.1zM141.51 90s-2.78 5.62-.28 6.31-2.07.61-2.07.61v-3zm-27.18-4.42s-2.65 3.64-1.41 4.93-2.09-.74-2.09-.74 2.77-4.2 3.5-4.19z" transform="translate(-10.55 -14.73)"/><path class="cls-3" d="M110.83 89.13s2.34-3.8 1.87-5.12 1.51-.3 1.51-.3a3 3 0 0 1 0 1.24c-.13.25-2.5 4.18-3.38 4.18z" transform="translate(-10.55 -14.73)"/><path class="cls-3" d="M107 84.43a8.16 8.16 0 0 0 4 4.63c3.14 1.62-.47 1.16-.52 1.07s-6-5.29-6-5.29zm12.76 6.47s-4.31-5.57-3.84-7.19-2.37.25-2.37.25 5.12 6.89 6.21 6.94zm.98-1.96s2.34-5.18 1.43-6 1.32-.25 1.32-.25.36 1.31-2.75 6.25z" transform="translate(-10.55 -14.73)"/><path class="cls-3" d="M116.74 88.62s2.79 3.78 1.76 4.46 2.71.48 2.71.48-.78-1.22.78-5-.25-.29-.29-.12-2 3.43-2 3.43-2.7-3.21-2.96-3.25zm11.4 1.69s-4.38-6.42-2.54-7.62-2.52 0-2.52 0l.92 2.75z" transform="translate(-10.55 -14.73)"/><path class="cls-3" d="M126.12 89s3.22 4.92 2.35 6.11l.25.6h2.48a2.54 2.54 0 0 1-1-1.84 22 22 0 0 1 1.8-3.79s.14-.6 0-.41-2.38 3.3-2.42 3.43a2.75 2.75 0 0 1-.31.45s-2.57-4.44-3.15-4.55zm6.24-1.49s2.45-4.49.5-5.29l4.6-.44a3.64 3.64 0 0 0-1.4 1.85c-.25 1.07 1 4.38 1 4.38v.52l-2.18-4.1zm4.55 2.49s2.78 5.62.28 6.31 2.07.61 2.07.61v-3zm.84-60.85s-3.23-3.82-5.68-3.52-8 2.35-8 3.52 4.6 3.13 8.62 2.45 6.43-1.6 5.06-2.45zm12.75-2.85s-6.17-.91-7.48 0-.3 2.43 2.63 3a8 8 0 0 0 6.27-1.21c.81-.68 0-1.58-1.42-1.79zm-4.92 5.63s-5.4.88-5.84 2.31 2.2 1.87 4.41 1.76 5.18-4.29 1.43-4.07zm-11.13 3.29s-2-1.57-3-1.28-1.48 1.21-.86 1.81 5 1.05 3.86-.53zm26.65-5.55s-2.94-1.48-4.48-.95 2.24 1.65 3.22 1.81 2.46-.33 1.26-.86zm-42.76.09a7.14 7.14 0 0 0-3.08 1c-1 .83-1.21 1.87-.06 1.87s3.58-1.65 4.52-2.42-.66-.51-1.38-.45z" transform="translate(-10.55 -14.73)"/><path class="cls-6" d="M165.33 62.61s-11.48 2.81-11.07 4.87 4 3.8 7.52 3.06 5.62-4.63 6.28-5.78.94-3.47-2.73-2.15z" transform="translate(-10.55 -14.73)"/><path class="cls-5" d="M158.22 64.84s-3.72.91-3.8 2.56 5.45-1.9 6.86-2.48.08-1.15-3.06-.08z" transform="translate(-10.55 -14.73)"/><path class="cls-3" d="M129.63 65.3c-1.32 4.76-6.53 8.32-12.76 8.32a13 13 0 0 1-13.08-10.67c-.5-2.39-.32-4.64 1-6.3z" transform="translate(-10.55 -14.73)"/><path class="cls-3" d="M108.62 58s-5.16-2.11-7.35-2a2.84 2.84 0 0 0-2.52 2.44s2.35-2.11 7.15 1.28 2.72-1.72 2.72-1.72zm14.96 5.19s9.54 3.3 10.37 3.55-6.16.74-7.52 1.07-2.85-4.62-2.85-4.62z" transform="translate(-10.55 -14.73)"/><path class="cls-4" d="M104.13 60.66s.82-1.49 3.52-.83 20.49 7.11 20.49 7.11-2.83 6.66-12.5 6c-10.12-.69-12.27-11.24-11.51-12.28z" transform="translate(-10.55 -14.73)"/><path class="cls-6" d="M112.88 62.61s11.48 2.81 11.07 4.87-4 3.8-7.52 3.06-5.62-4.63-6.28-5.78-.91-3.47 2.73-2.15z" transform="translate(-10.55 -14.73)"/><path class="cls-5" d="M120 64.84s3.72.91 3.8 2.56-5.45-1.9-6.86-2.48-.1-1.15 3.06-.08z" transform="translate(-10.55 -14.73)"/><path class="cls-2" d="M105 68.31s9.27 3 16.41 5.23c-.04.01-8.52 3.59-16.41-5.23zm68.59 0s-9.27 3-16.41 5.23c0 .01 8.48 3.59 16.41-5.23zM38.67 152.93a10 10 0 0 1-7.36 3.31 11 11 0 0 1-5-1.17 13.31 13.31 0 0 1-4.07-3.14 14.93 14.93 0 0 1-2.73-4.54 14.68 14.68 0 0 1-1-5.34 14.43 14.43 0 0 1 1-5.36 13.74 13.74 0 0 1 2.77-4.4 13.35 13.35 0 0 1 4.17-3 12.22 12.22 0 0 1 5.2-1.11 12.2 12.2 0 0 1 6.47 1.64 10.5 10.5 0 0 1 4.05 4.4l-4 3a7.45 7.45 0 0 0-2.79-3.22 7.33 7.33 0 0 0-3.91-1.09 6.46 6.46 0 0 0-3.1.74 7.18 7.18 0 0 0-2.36 2 10 10 0 0 0-1.52 3 11.35 11.35 0 0 0-.55 3.54 11.09 11.09 0 0 0 .58 3.64 9.11 9.11 0 0 0 1.64 2.94 7.85 7.85 0 0 0 2.47 2 6.83 6.83 0 0 0 3.14.72q3.82 0 6.89-3.78v-1.95H33.1v-3.93h10V156h-4.43v-3.12zM47 156v-27.61h12.2a7.85 7.85 0 0 1 3.53.8 9.13 9.13 0 0 1 2.79 2.1 10 10 0 0 1 1.83 3 8.92 8.92 0 0 1 .66 3.33 9.19 9.19 0 0 1-1.34 4.89 7.71 7.71 0 0 1-3.67 3.13L69.52 156h-6.08l-5.8-9.27h-5.3V156H47zm5.38-14h6.74a2.84 2.84 0 0 0 1.38-.35 3.53 3.53 0 0 0 1.11-1 4.77 4.77 0 0 0 .74-1.42 5.52 5.52 0 0 0 .27-1.75 5 5 0 0 0-.31-1.79 4.69 4.69 0 0 0-.84-1.42 3.81 3.81 0 0 0-1.21-.93 3.15 3.15 0 0 0-1.38-.33h-6.54v9zm38.49 9.33V156H71.66v-27.61h18.86v4.71H77v6.66h11.68v4.36H77v7.21h13.87zM117 156v-18.26l-7.13 13.63h-2.92l-7.13-13.63V156h-5.41v-27.61h5.76l8.18 15.74 8.26-15.74h5.73V156H117zm11.1 0v-27.61h5.38v22.94h14.1V156H128.1zm22.9 0v-27.57h5.38V156H151zm16.56-17.68V156h-5.38v-27.61h4.17l14.41 18.15v-18.11h5.38V156h-4.36z" transform="translate(-10.55 -14.73)"/><path class="cls-7" d="M198.91 156v-27.57h2V156h-2zm10.52-23.87V156h-2v-27.61H209l19.4 24.34v-24.3h2V156h-1.83zm25.63 9.87a14.78 14.78 0 0 1 .88-5 13.77 13.77 0 0 1 2.55-4.42 13.16 13.16 0 0 1 4.11-3.17 12.16 12.16 0 0 1 5.55-1.23 11.34 11.34 0 0 1 6.31 1.69 10.41 10.41 0 0 1 3.86 4.34l-1.64.93a8.62 8.62 0 0 0-1.69-2.42 9.14 9.14 0 0 0-2.14-1.58 9.49 9.49 0 0 0-2.4-.88 11.5 11.5 0 0 0-2.45-.27 9.85 9.85 0 0 0-4.67 1.07 11.06 11.06 0 0 0-3.43 2.78 12.11 12.11 0 0 0-2.12 3.88 13.64 13.64 0 0 0-.72 4.34 12.86 12.86 0 0 0 .86 4.67 13 13 0 0 0 2.34 3.91 11.35 11.35 0 0 0 3.51 2.71 9.62 9.62 0 0 0 4.36 1 10.94 10.94 0 0 0 2.55-.31 10.36 10.36 0 0 0 2.53-1 10.08 10.08 0 0 0 2.28-1.69 9 9 0 0 0 1.75-2.43l1.68.82a9.45 9.45 0 0 1-1.89 2.77 11.61 11.61 0 0 1-2.67 2 12.8 12.8 0 0 1-3.14 1.23 13.54 13.54 0 0 1-3.25.41 10.94 10.94 0 0 1-5.2-1.25 13.76 13.76 0 0 1-4.07-3.25 15.07 15.07 0 0 1-2.67-4.56 14.72 14.72 0 0 1-.97-5.09zM44.61 186.28a2.71 2.71 0 0 1-.26 1.18 3 3 0 0 1-.69.93 3.12 3.12 0 0 1-1 .61 3.5 3.5 0 0 1-1.24.22H36v-11.43h5.49a2.26 2.26 0 0 1 1.08.26 2.69 2.69 0 0 1 .82.67 3.07 3.07 0 0 1 .52.93 3.16 3.16 0 0 1 .18 1.05 3 3 0 0 1-.43 1.59 2.69 2.69 0 0 1-1.21 1.07 2.86 2.86 0 0 1 1.55 1.08 3 3 0 0 1 .61 1.84zm-7.47-7.5V183h3.93a1.75 1.75 0 0 0 .78-.18 2.1 2.1 0 0 0 .63-.47 2.08 2.08 0 0 0 .41-.67 2.21 2.21 0 0 0 .14-.8 2.45 2.45 0 0 0-.14-.82 2 2 0 0 0-.39-.67 1.91 1.91 0 0 0-.6-.45 1.68 1.68 0 0 0-.75-.17h-4zm6.34 7.31a2.34 2.34 0 0 0-.14-.81 2.12 2.12 0 0 0-1-1.18 1.69 1.69 0 0 0-.78-.19h-4.42v4.33h4.27a2 2 0 0 0 .82-.18 2 2 0 0 0 .66-.47 2.29 2.29 0 0 0 .43-.69 2.13 2.13 0 0 0 .17-.82zm7.22-4.29a3.45 3.45 0 0 0-1.93.61 3.08 3.08 0 0 0-1.16 1.59v5.22h-1.1v-8.39h1v2a4.4 4.4 0 0 1 1.14-1.47 2.35 2.35 0 0 1 1.53-.59h.48v1zm5.13 7.58a4.08 4.08 0 0 1-3-1.3 4.41 4.41 0 0 1-.88-1.39 4.53 4.53 0 0 1-.31-1.69 4.44 4.44 0 0 1 .31-1.67 4.22 4.22 0 0 1 2.21-2.3 4.09 4.09 0 0 1 4.68.94A4.42 4.42 0 0 1 60 185v.26a.86.86 0 0 1 0 .18h-7.23a3.54 3.54 0 0 0 1 2.24 3 3 0 0 0 .95.65 2.87 2.87 0 0 0 1.15.23 3 3 0 0 0 .82-.11 3.23 3.23 0 0 0 .74-.31 2.58 2.58 0 0 0 .6-.47 2.11 2.11 0 0 0 .41-.62l.95.26a2.8 2.8 0 0 1-.55.85 3.82 3.82 0 0 1-.82.66 4 4 0 0 1-1 .43 4.4 4.4 0 0 1-1.19.13zm3.09-4.8a3.37 3.37 0 0 0-1-2.19 3 3 0 0 0-1-.63 3 3 0 0 0-3.28.63 3.09 3.09 0 0 0-.66 1 3.66 3.66 0 0 0-.3 1.22h6.18zm4.91 4.8a3.29 3.29 0 0 1-1.18-.2 2.71 2.71 0 0 1-.91-.56 2.52 2.52 0 0 1-.59-.82 2.38 2.38 0 0 1-.21-1 2.17 2.17 0 0 1 .26-1.05 2.43 2.43 0 0 1 .72-.81 3.55 3.55 0 0 1 1.12-.52 5.28 5.28 0 0 1 1.44-.19 7.69 7.69 0 0 1 1.29.11 5.68 5.68 0 0 1 1.18.32v-.76a2.42 2.42 0 0 0-.64-1.76 2.29 2.29 0 0 0-1.71-.65 3.71 3.71 0 0 0-1.34.26 6.44 6.44 0 0 0-1.36.74l-.39-.72a7.3 7.3 0 0 1 1.59-.82 4.78 4.78 0 0 1 1.61-.27 3.32 3.32 0 0 1 2.43.89A3.27 3.27 0 0 1 68 184v3.78a.37.37 0 0 0 .39.45v1H68a1 1 0 0 1-.59-.19.75.75 0 0 1-.3-.58v-.66a3.66 3.66 0 0 1-1.47 1.2 4.3 4.3 0 0 1-1.81.38zm.27-.84a3.57 3.57 0 0 0 1.44-.31 2.82 2.82 0 0 0 1.14-.86 1.75 1.75 0 0 0 .19-.31.74.74 0 0 0 .08-.31v-1.37a6.7 6.7 0 0 0-1.14-.32 6.22 6.22 0 0 0-1.16-.11 3.45 3.45 0 0 0-1.91.47 1.48 1.48 0 0 0-.73 1.31 1.76 1.76 0 0 0 .13.66 1.66 1.66 0 0 0 .39.58 2.06 2.06 0 0 0 .65.42 2.38 2.38 0 0 0 .93.16zm12.32.68l-3.09-4.3-1.8 1.67v2.62h-1.1v-11.74h1.09v8l4.72-4.6h1.24l-3.43 3.43 3.56 4.94h-1.19zm2.49-10.14v-1.61H80v1.61h-1.09zm0 10.14v-8.39H80v8.39h-1.09zm10.5 0h-1.09v-4.68a4.15 4.15 0 0 0-.43-2.17 1.49 1.49 0 0 0-1.35-.68 2.79 2.79 0 0 0-1 .18 3.38 3.38 0 0 0-.9.5 3.52 3.52 0 0 0-.73.76 3.39 3.39 0 0 0-.47 1v5.13h-1.08v-8.39h1v1.9a3.9 3.9 0 0 1 .64-.83 4.19 4.19 0 0 1 .85-.65 4.14 4.14 0 0 1 1-.42 4.05 4.05 0 0 1 1.09-.14 2.46 2.46 0 0 1 1.18.26 2 2 0 0 1 .76.72 3.34 3.34 0 0 1 .42 1.14 8 8 0 0 1 .13 1.5v4.91zm5.67.12a3.46 3.46 0 0 1-1.59-.36 4.09 4.09 0 0 1-1.24-1 4.39 4.39 0 0 1-.81-1.37 4.5 4.5 0 0 1-.29-1.59 5 5 0 0 1 .28-1.67 4.29 4.29 0 0 1 .8-1.39 3.88 3.88 0 0 1 1.23-.95 3.53 3.53 0 0 1 1.59-.35 3.23 3.23 0 0 1 1.87.54 5.18 5.18 0 0 1 1.35 1.36v-1.75h1v8.42a3.43 3.43 0 0 1-.33 1.54 3.31 3.31 0 0 1-.89 1.12 3.75 3.75 0 0 1-1.31.68 5.54 5.54 0 0 1-1.59.23 4.58 4.58 0 0 1-2.32-.52 4.12 4.12 0 0 1-1.43-1.38l.68-.53a3 3 0 0 0 1.32 1.18 4.14 4.14 0 0 0 1.75.38 4 4 0 0 0 1.17-.17 2.86 2.86 0 0 0 1-.5 2.36 2.36 0 0 0 .65-.84 2.72 2.72 0 0 0 .24-1.18v-1.64a3.64 3.64 0 0 1-1.33 1.27 3.51 3.51 0 0 1-1.8.47zm.31-.92a2.65 2.65 0 0 0 .95-.18 3.18 3.18 0 0 0 .85-.47 3.12 3.12 0 0 0 .64-.67 2.06 2.06 0 0 0 .34-.76v-2.59a3.15 3.15 0 0 0-.49-.84 3.53 3.53 0 0 0-.7-.66 3.49 3.49 0 0 0-.83-.43A2.69 2.69 0 0 0 94 182a3.06 3.06 0 0 0-.93.78 3.46 3.46 0 0 0-.59 1.09 3.93 3.93 0 0 0-.2 1.24 3.52 3.52 0 0 0 .9 2.36 3.08 3.08 0 0 0 1 .72 2.88 2.88 0 0 0 1.2.23zm18.29-9.63h-4.07v10.43h-1.13v-10.43h-4.07v-1h9.27v1zm8.54 10.43h-1.09v-4.68a3.78 3.78 0 0 0-.49-2.14 1.64 1.64 0 0 0-1.44-.71 2.46 2.46 0 0 0-.93.18 3.44 3.44 0 0 0-.86.51 3.5 3.5 0 0 0-.7.76 3.19 3.19 0 0 0-.44.95v5.13h-1.09v-11.75h1.09v5.26a3.92 3.92 0 0 1 1.4-1.5 3.55 3.55 0 0 1 1.9-.55 2.63 2.63 0 0 1 1.23.27 2.18 2.18 0 0 1 .82.74 3.33 3.33 0 0 1 .46 1.14 7 7 0 0 1 .14 1.47v4.91zm2.27-10.14v-1.61h1.09v1.61h-1.09zm0 10.14v-8.39h1.09v8.39h-1.09zm10.51 0h-1.09v-4.68a4.15 4.15 0 0 0-.43-2.17 1.49 1.49 0 0 0-1.35-.68 2.79 2.79 0 0 0-1 .18 3.38 3.38 0 0 0-.9.5 3.52 3.52 0 0 0-.73.76 3.39 3.39 0 0 0-.47 1v5.13h-1.09v-8.39h1v1.9a3.9 3.9 0 0 1 .64-.83 4.19 4.19 0 0 1 .85-.65 4.14 4.14 0 0 1 1-.42 4.05 4.05 0 0 1 1.09-.14 2.46 2.46 0 0 1 1.18.26 2 2 0 0 1 .76.72 3.34 3.34 0 0 1 .42 1.14 8 8 0 0 1 .13 1.5v4.91zm5.65.12a3.46 3.46 0 0 1-1.59-.36 4.09 4.09 0 0 1-1.24-1 4.39 4.39 0 0 1-.81-1.37 4.5 4.5 0 0 1-.29-1.59 5 5 0 0 1 .28-1.67 4.29 4.29 0 0 1 .8-1.39 3.88 3.88 0 0 1 1.2-.96 3.53 3.53 0 0 1 1.59-.35 3.23 3.23 0 0 1 1.87.54 5.18 5.18 0 0 1 1.35 1.36v-1.75h1v8.42a3.43 3.43 0 0 1-.33 1.54 3.31 3.31 0 0 1-.89 1.12 3.75 3.75 0 0 1-1.31.68 5.54 5.54 0 0 1-1.59.23 4.58 4.58 0 0 1-2.32-.52 4.12 4.12 0 0 1-1.43-1.38l.68-.53a3 3 0 0 0 1.32 1.18 4.14 4.14 0 0 0 1.75.38 4 4 0 0 0 1.17-.17 2.86 2.86 0 0 0 1-.5 2.36 2.36 0 0 0 .65-.84 2.72 2.72 0 0 0 .24-1.18v-1.63a3.64 3.64 0 0 1-1.33 1.27 3.51 3.51 0 0 1-1.77.47zm.31-.92a2.65 2.65 0 0 0 .95-.18 3.18 3.18 0 0 0 .85-.47 3.12 3.12 0 0 0 .64-.67 2.06 2.06 0 0 0 .34-.76v-2.59a3.15 3.15 0 0 0-.49-.84 3.53 3.53 0 0 0-.7-.66 3.49 3.49 0 0 0-.83-.43 2.69 2.69 0 0 0-2.15.14 3.06 3.06 0 0 0-.93.78 3.46 3.46 0 0 0-.59 1.09 3.93 3.93 0 0 0-.2 1.24 3.52 3.52 0 0 0 .9 2.36 3.08 3.08 0 0 0 1 .72 2.88 2.88 0 0 0 1.25.27zm9.04.96a5.84 5.84 0 0 1-1.92-.32 4.6 4.6 0 0 1-1.61-.93l.5-.74a5.44 5.44 0 0 0 1.44.87 4.23 4.23 0 0 0 1.57.29 2.84 2.84 0 0 0 1.62-.41 1.33 1.33 0 0 0 .6-1.17 1 1 0 0 0-.16-.59 1.4 1.4 0 0 0-.47-.41 3.73 3.73 0 0 0-.79-.31q-.47-.14-1.1-.28t-1.26-.35a3.85 3.85 0 0 1-.88-.4 1.45 1.45 0 0 1-.51-.56 1.81 1.81 0 0 1-.17-.83 2.38 2.38 0 0 1 .25-1.11 2.27 2.27 0 0 1 .68-.8 3.07 3.07 0 0 1 1-.47 4.46 4.46 0 0 1 1.22-.16 4.7 4.7 0 0 1 1.75.31 3.47 3.47 0 0 1 1.27.83l-.53.64a3 3 0 0 0-1.14-.72 4.06 4.06 0 0 0-1.39-.24 3.46 3.46 0 0 0-.8.09 1.93 1.93 0 0 0-.65.28 1.39 1.39 0 0 0-.44.49 1.45 1.45 0 0 0-.16.7 1.15 1.15 0 0 0 .11.55 1 1 0 0 0 .37.36 3 3 0 0 0 .65.27q.39.12 1 .25.8.19 1.42.39a4.48 4.48 0 0 1 1 .45 1.77 1.77 0 0 1 .62.63 1.8 1.8 0 0 1 .21.9 2.19 2.19 0 0 1-.89 1.83 3.83 3.83 0 0 1-2.41.67zm12.75 0a4 4 0 0 1-1.68-.35 4.09 4.09 0 0 1-1.32-.94 4.26 4.26 0 0 1-.86-1.38 4.55 4.55 0 0 1-.31-1.66 4.5 4.5 0 0 1 .31-1.67 4.39 4.39 0 0 1 .87-1.38 4.19 4.19 0 0 1 1.32-.95 4.09 4.09 0 0 1 3.33 0 4.2 4.2 0 0 1 1.32.95 4.4 4.4 0 0 1 .87 1.38 4.48 4.48 0 0 1 .31 1.67 4.44 4.44 0 0 1-.31 1.66 4.39 4.39 0 0 1-.87 1.38 4.1 4.1 0 0 1-1.32.94 4 4 0 0 1-1.66.35zm-3-4.31a3.61 3.61 0 0 0 .23 1.31 3.43 3.43 0 0 0 .64 1.06 3 3 0 0 0 1 .72 2.78 2.78 0 0 0 1.18.26 2.7 2.7 0 0 0 1.18-.27 3.15 3.15 0 0 0 1-.72 3.46 3.46 0 0 0 .66-1.07 3.71 3.71 0 0 0 0-2.63 3.45 3.45 0 0 0-.66-1.08 3.19 3.19 0 0 0-1-.72 2.66 2.66 0 0 0-1.18-.27 2.71 2.71 0 0 0-1.18.27 3 3 0 0 0-1 .73 3.64 3.64 0 0 0-.91 2.41zm16 4.15h-1.09v-4.68a4.15 4.15 0 0 0-.43-2.17 1.49 1.49 0 0 0-1.35-.68 2.79 2.79 0 0 0-1 .18 3.38 3.38 0 0 0-.9.5 3.52 3.52 0 0 0-.73.76 3.39 3.39 0 0 0-.47 1v5.13h-1.08v-8.39h1v1.9a3.9 3.9 0 0 1 .64-.83 4.19 4.19 0 0 1 .85-.65 4.14 4.14 0 0 1 1-.42 4.05 4.05 0 0 1 1.09-.14 2.46 2.46 0 0 1 1.18.26 2 2 0 0 1 .76.72 3.34 3.34 0 0 1 .42 1.14 8 8 0 0 1 .13 1.5v4.91zm6.67 0v-11.43h4.73a3 3 0 0 1 1.36.31 3.6 3.6 0 0 1 1.07.82 3.79 3.79 0 0 1 .7 1.15 3.59 3.59 0 0 1 .25 1.3 4 4 0 0 1-.23 1.36 3.56 3.56 0 0 1-.67 1.15 3.41 3.41 0 0 1-1 .8 2.93 2.93 0 0 1-1.34.31h-3.72v4.22h-1.11zm1.11-5.22h3.65a1.91 1.91 0 0 0 .91-.22 2.21 2.21 0 0 0 .7-.58 2.73 2.73 0 0 0 .45-.84 3.06 3.06 0 0 0 .16-1 2.79 2.79 0 0 0-.68-1.84 2.29 2.29 0 0 0-.72-.52 2.07 2.07 0 0 0-.89-.2h-3.56v5.2zm11.2 5.38a2.33 2.33 0 0 1-2-.91 4.52 4.52 0 0 1-.68-2.71v-4.93h1.09v4.73q0 2.85 1.95 2.85a2.89 2.89 0 0 0 .95-.16 3 3 0 0 0 .86-.47 3.79 3.79 0 0 0 .71-.72 3.64 3.64 0 0 0 .51-.95v-5.28h1.09v7a.38.38 0 0 0 .4.45v1h-.45a1 1 0 0 1-.64-.23.71.71 0 0 1-.27-.56v-1.16a4 4 0 0 1-3.52 2.05zm11.16-7.58a3.45 3.45 0 0 0-1.93.61 3.08 3.08 0 0 0-1.16 1.59v5.22h-1.1v-8.39h1v2a4.4 4.4 0 0 1 1.14-1.47 2.35 2.35 0 0 1 1.53-.59h.48v1zm5.76 7.58a3.35 3.35 0 0 1-1.88-.54 4.25 4.25 0 0 1-1.32-1.36v5.17h-1.09v-11.81h1v1.63a4.07 4.07 0 0 1 1.34-1.28 3.42 3.42 0 0 1 1.79-.49 3.56 3.56 0 0 1 1.6.36 4.06 4.06 0 0 1 1.26 1 4.49 4.49 0 0 1 .83 1.39 4.58 4.58 0 0 1 .3 1.63 5.08 5.08 0 0 1-.27 1.67 4.28 4.28 0 0 1-.78 1.38 3.76 3.76 0 0 1-1.21.94 3.42 3.42 0 0 1-1.57.31zm-.31-1a2.57 2.57 0 0 0 1.22-.29 3.1 3.1 0 0 0 .94-.76 3.42 3.42 0 0 0 .6-1.08 3.79 3.79 0 0 0 .21-1.25 3.47 3.47 0 0 0-.24-1.29 3.56 3.56 0 0 0-.66-1.08 3.14 3.14 0 0 0-1-.74 2.82 2.82 0 0 0-1.23-.27 2.48 2.48 0 0 0-.87.17 3.83 3.83 0 0 0-.85.45 3 3 0 0 0-.68.66 1.78 1.78 0 0 0-.35.8v2.58a3.81 3.81 0 0 0 .49.84 3.46 3.46 0 0 0 .68.67 3.18 3.18 0 0 0 .82.44 2.64 2.64 0 0 0 .92.19zm9.53 1a4 4 0 0 1-1.68-.35 4.09 4.09 0 0 1-1.32-.94 4.26 4.26 0 0 1-.86-1.38 4.55 4.55 0 0 1-.31-1.66 4.5 4.5 0 0 1 .31-1.67 4.39 4.39 0 0 1 .87-1.38 4.19 4.19 0 0 1 1.32-.95 4.09 4.09 0 0 1 3.33 0 4.2 4.2 0 0 1 1.32.95 4.4 4.4 0 0 1 .87 1.38 4.48 4.48 0 0 1 .31 1.67 4.44 4.44 0 0 1-.31 1.66 4.39 4.39 0 0 1-.87 1.38 4.1 4.1 0 0 1-1.32.94 4 4 0 0 1-1.66.35zm-3-4.31a3.61 3.61 0 0 0 .23 1.31 3.43 3.43 0 0 0 .64 1.06 3 3 0 0 0 1 .72 2.78 2.78 0 0 0 1.18.26 2.7 2.7 0 0 0 1.18-.27 3.15 3.15 0 0 0 1-.72 3.46 3.46 0 0 0 .66-1.07 3.71 3.71 0 0 0 0-2.63 3.45 3.45 0 0 0-.66-1.08 3.19 3.19 0 0 0-1-.72 2.66 2.66 0 0 0-1.18-.27 2.71 2.71 0 0 0-1.18.27 3 3 0 0 0-1 .73 3.64 3.64 0 0 0-.91 2.41zm11.76 4.31a5.84 5.84 0 0 1-1.92-.32 4.6 4.6 0 0 1-1.61-.93l.5-.74a5.44 5.44 0 0 0 1.44.87 4.23 4.23 0 0 0 1.57.29 2.84 2.84 0 0 0 1.62-.41 1.33 1.33 0 0 0 .6-1.17 1 1 0 0 0-.16-.59 1.4 1.4 0 0 0-.47-.41 3.73 3.73 0 0 0-.79-.31q-.47-.14-1.1-.28t-1.26-.35a3.85 3.85 0 0 1-.88-.4 1.45 1.45 0 0 1-.51-.56 1.81 1.81 0 0 1-.17-.83 2.38 2.38 0 0 1 .25-1.11 2.27 2.27 0 0 1 .68-.8 3.07 3.07 0 0 1 1-.47 4.46 4.46 0 0 1 1.22-.16 4.7 4.7 0 0 1 1.75.31 3.47 3.47 0 0 1 1.27.83l-.53.64a3 3 0 0 0-1.14-.72 4.06 4.06 0 0 0-1.39-.24 3.46 3.46 0 0 0-.8.09 1.93 1.93 0 0 0-.65.28 1.39 1.39 0 0 0-.44.49 1.45 1.45 0 0 0-.16.7 1.15 1.15 0 0 0 .11.55 1 1 0 0 0 .37.36 3 3 0 0 0 .65.27q.39.12 1 .25.8.19 1.42.39a4.48 4.48 0 0 1 1 .45 1.77 1.77 0 0 1 .62.63 1.8 1.8 0 0 1 .21.9 2.19 2.19 0 0 1-.89 1.83 3.83 3.83 0 0 1-2.41.67zm8.69 0a4.08 4.08 0 0 1-3-1.3 4.41 4.41 0 0 1-.88-1.39 4.53 4.53 0 0 1-.31-1.69 4.44 4.44 0 0 1 .31-1.67 4.22 4.22 0 0 1 2.21-2.3 4.09 4.09 0 0 1 4.68.94 4.42 4.42 0 0 1 1.16 3v.26a.86.86 0 0 1 0 .18h-7.16a3.54 3.54 0 0 0 1 2.24 3 3 0 0 0 .95.65 2.87 2.87 0 0 0 1.15.23 3 3 0 0 0 .82-.11 3.23 3.23 0 0 0 .74-.31 2.58 2.58 0 0 0 .6-.47 2.11 2.11 0 0 0 .41-.62l.95.26a2.8 2.8 0 0 1-.55.85 3.82 3.82 0 0 1-.82.66 4 4 0 0 1-1 .43 4.4 4.4 0 0 1-1.26.16zm3.09-4.8a3.37 3.37 0 0 0-1-2.19 3 3 0 0 0-1-.63 3 3 0 0 0-3.28.63 3.09 3.09 0 0 0-.66 1 3.66 3.66 0 0 0-.3 1.22h6.18z" transform="translate(-10.55 -14.73)"/></svg>