<svg id="Layer_1" xmlns="http://www.w3.org/2000/svg" viewBox="0 0 496.7 177.2"><style>.st0{fill:#5d6771}.st1{fill:#88b09a}.st2{fill:#fff}</style><path class="st0" d="M185.1 122.9c-5.9-5.1-14-7.6-22.4-6.8-6.3.6-12 3-16.3 6.8-1.1.9-2.8.2-2.8-1.2V95.2c0-.9-.7-1.7-1.7-1.7h-7c-.9 0-1.6.7-1.6 1.5 0 .3-.1.6-.1.8-.1.6-.1 1.1-.1 1.7V145.4c0 2.5.1 5.1.6 7.6 3.3 15.2 14.5 23.9 30.8 23.9h.8c13.1-.2 23.8-7.5 28.1-19.1 4.8-12.5 1.5-26.3-8.3-34.9m-20.8 44c-12 0-20.4-8.3-20.5-20.2-.1-11.9 8.3-20.3 20.4-20.4 11.7-.1 20.3 8.1 20.4 19.4.1 6.4-1.9 11.8-5.6 15.6-3.6 3.6-8.6 5.6-14.5 5.6h-.2zm-45.4-39.8c-9.1-11.2-26.2-14.4-39.8-7.6-12.5 6.3-18.7 20.7-15.1 35 2.8 11.4 10.1 18.8 21 21.6 3.1.8 6.1 1.2 9 1.2 7.6 0 14.2-2.9 19.6-8.5.7-.7 1.2-1.4 1.8-2.2v7.4c0 .9.7 1.7 1.7 1.7h6.4c.9 0 1.7-.7 1.7-1.7v-9.5c.1-7.5.1-15.2-.2-22.8-.2-5-2.2-9.9-6.1-14.6m-4.1 19.2c0 5.8-2 11-5.7 14.8-3.7 3.7-8.9 5.8-14.6 5.8h-.1c-12 0-20.3-8.2-20.4-19.9-.1-12.3 8.1-20.7 20.3-20.7h.1c11.7-.1 20.3 8.4 20.4 20m216.6-19.2c-9.1-11.2-26.2-14.4-39.8-7.6-12.5 6.3-18.7 20.7-15.1 35 2.8 11.4 10.1 18.8 21 21.6 3.1.8 6.1 1.2 9 1.2 7.6 0 14.2-2.9 19.6-8.5.7-.7 1.2-1.4 1.8-2.2v7.4c0 .9.7 1.7 1.7 1.7h6.4c.9 0 1.7-.7 1.7-1.7v-9.5c.1-7.5.1-15.2-.2-22.8-.2-5-2.2-9.9-6.1-14.6m-4.1 19.2c0 5.8-2 11-5.7 14.8-3.7 3.7-8.9 5.8-14.6 5.8h-.1c-12 0-20.3-8.2-20.4-19.9-.1-12.3 8.1-20.7 20.3-20.7h.1c11.7-.1 20.3 8.4 20.4 20M35.1 116.5c-8.9-1.5-16.2.3-21.9 5.1-1.1.9-2.7.2-2.7-1.2V95.2c0-.9-.7-1.7-1.7-1.7H1.7c-.9 0-1.7.7-1.7 1.7V174c0 .9.7 1.7 1.7 1.7H9c.9 0 1.7-.7 1.7-1.6v-11.2-17.8c0-6.1 1.9-11 5.3-14.3 3.5-3.2 8.5-4.7 14.7-4.4 9.2.6 15.2 6.4 15.7 15.2.4 6.6.4 13.4.4 20 0 2.9 0 5.8.1 8.7v3.7c0 .9.7 1.7 1.7 1.7h7.2c.9 0 1.7-.7 1.7-1.7v-9.7c0-7 .1-14.3-.1-21.5-.3-14.3-8.6-24.1-22.3-26.3M268.9 151h-8.1c-.9 0-1.6.7-1.6 1.5l-.1 1.2c-.1.8-.1 1.6-.2 2.4-.5 6.5-4.4 10.2-11 10.6-4.6.3-12.5-.5-13.1-9-.6-7.1-.6-14.5-.6-21.5v-7.1c0-.9.7-1.7 1.6-1.7h20.8c1.5 0 2.2-1.9 1.1-2.9l-7.9-6.9c-.3-.3-.7-.4-1.1-.4h-13.1c-.9 0-1.7-.7-1.7-1.7v-11c0-.9-.7-1.7-1.7-1.7h-6.9c-.9 0-1.7.7-1.7 1.6v3.3c0 .3-.2 31.5.1 50.7.1 4.6 2.4 9.2 6.5 12.9 5 4.5 10.9 5.5 16.1 5.5 1.4 0 2.7-.1 3.9-.2 6-.5 11.6-3.6 15.2-8.6 3.5-4.7 4.8-10.6 3.6-16l-.1-1zm120.8 1.5l-.2-1.4h-8.4c-.9 0-1.6.7-1.6 1.5l-.1 1.3c-.1.7-.1 1.4-.1 2.1-.4 6.5-4.3 10.4-10.9 10.8-4.7.3-12.7-.5-13.3-9.1-.6-7.3-.5-14.8-.5-22v-6.6c0-.9.7-1.7 1.6-1.7h20.4c1.6 0 2.3-2 1-3l-8.7-6.8c-.3-.2-.7-.4-1-.4H356c-.9 0-1.7-.7-1.7-1.7v-10.6c0-.9-.7-1.7-1.7-1.7h-7.2c-.9 0-1.7.7-1.7 1.6v3.4c0 .3-.1 31 .3 50.1.2 8.4 6.5 15.7 15.4 17.7 2.4.5 5 .8 8.2.8h1.4c6.3-.1 11.9-2.7 15.8-7.3 4.1-4.5 5.8-10.6 4.9-17m-184.7 23h7c.9 0 1.7-.7 1.7-1.7v-54.6c0-.9-.7-1.6-1.6-1.6l-7-.1c-.9 0-1.7.7-1.7 1.6v54.8c-.1.8.7 1.6 1.6 1.6m0-65h7c.9 0 1.7-.7 1.7-1.7v-7c0-.9-.7-1.7-1.7-1.7h-7c-.9 0-1.7.7-1.7 1.7v7c0 .9.8 1.7 1.7 1.7"/><path class="st1" d="M419.2 127.9l-50.5-50.5c-6.2-6.2-6.2-16.2 0-22.4l50.5-50.5c6.2-6.2 16.2-6.2 22.4 0L492 55.1c6.2 6.2 6.2 16.2 0 22.4L441.5 128c-6.1 6.1-16.1 6.1-22.3-.1"/><path class="st2" d="M469 65.3l-9.3-9.3c-.9-.9-2.5-.3-2.5 1v3.3c0 .8-.6 1.4-1.4 1.4h-5.1c-.8 0-1.4-.6-1.4-1.4v-6.6c0-.8.6-1.4 1.4-1.4h1.7c1.3 0 1.9-1.6 1-2.5l-9.3-9.3c-.6-.6-1.5-.6-2 0l-9.3 9.3c-.9.9-.3 2.5 1 2.5h2c.8 0 1.4.6 1.4 1.4v6.5c0 .8-.6 1.4-1.4 1.4h-11.1c-.8 0-1.4-.6-1.4-1.4v-6.5c0-.8.6-1.4 1.4-1.4h2.1c1.3 0 1.9-1.6 1-2.5l-9.3-9.3c-.6-.6-1.5-.6-2 0l-9.3 9.3c-.9.9-.3 2.5 1 2.5h1.6c.8 0 1.4.6 1.4 1.4v6.6c0 .8-.6 1.4-1.4 1.4h-5c-.8 0-1.4-.6-1.4-1.4V57c0-1.3-1.6-1.9-2.5-1l-9.3 9.3c-.6.6-.6 1.5 0 2l9.3 9.3c.9.9 2.5.3 2.5-1v-3.3c0-.8.6-1.4 1.4-1.4h5c.8 0 1.4.6 1.4 1.4v6.6c0 .8-.6 1.4-1.4 1.4h-1.6c-1.3 0-1.9 1.6-1 2.5l9.3 9.3c.6.6 1.5.6 2 0l9.3-9.3c.9-.9.3-2.5-1-2.5h-2.1c-.8 0-1.4-.6-1.4-1.4v-6.5c0-.8.6-1.4 1.4-1.4h11.1c.8 0 1.4.6 1.4 1.4v6.5c0 .8-.6 1.4-1.4 1.4h-2c-1.3 0-1.9 1.6-1 2.5l9.3 9.3c.6.6 1.5.6 2 0l9.3-9.3c.9-.9.3-2.5-1-2.5h-1.7c-.8 0-1.4-.6-1.4-1.4v-6.6c0-.8.6-1.4 1.4-1.4h5.1c.8 0 1.4.6 1.4 1.4v3.3c0 1.3 1.6 1.9 2.5 1l9.3-9.3c.6-.6.6-1.5 0-2"/></svg>