<svg viewBox="0 0 430.7 108.7" xmlns="http://www.w3.org/2000/svg"><path d="m85 61.6c-.5-6.8-2.1-13.4-4.5-19.5-.7-1.6-1.4-3.2-2.1-4.7 2.8-1.6 4.7-4.7 4.7-8.1 0-5.2-4.2-9.5-9.5-9.5h-57.9c-5.2 0-9.5 4.2-9.5 9.5 0 3.5 1.9 6.5 4.6 8.1-.8 1.5-1.5 3.1-2.1 4.7-2.5 6.1-4.1 12.6-4.6 19.5 0 .8-.1 1.6-.1 2.5 0 5.9 1 11.6 2.7 16.9.5 1.5 1.5 4.1 2.8 5.8.1.2.3.4.4.5l.1.1c.5.7 1.2 1.4 2 2.1s1.7 1.4 2.8 2c1 .6 2.3 1 3.5 1.2 1.3.2 2.6 0 3.6-.7s1.8-1.9 2.2-3.3c.9-2.8.8-6 .5-8.8-.3-2.9-.8-5.6-1.3-7.8-1.1-4.6-2.1-7.5-2.1-7.5s1.2 2.9 2.6 7.4c.7 2.3 1.4 4.9 1.9 7.8s.8 6.1.1 9.4c-.4 1.6-1.2 3.3-2.6 4.5-1.5 1.2-3.3 1.5-4.9 1.6-1.7 0-3.3-.4-4.6-.9-.2-.1-.3-.1-.5-.2 2.5 3.8 5.6 7.3 9 10.4 1.8 1 4.8 1.7 8.7-.3 6.8-3.5 13.7-3.9 13.7-3.9s6.8.4 13.7 3.9c4.6 2.4 7.9 1 9.5-.2 3.2-2.9 6-6.2 8.4-9.8-.2.1-.3.1-.4.2-1.4.5-2.9.9-4.6.9-1.6 0-3.5-.4-4.9-1.6-1.5-1.2-2.3-2.9-2.6-4.5-.7-3.3-.4-6.5.1-9.4s1.2-5.6 1.9-7.8c1.4-4.5 2.6-7.4 2.6-7.4s-1 3-2.1 7.5c-.5 2.3-1 5-1.3 7.8-.3 2.9-.4 6 .5 8.8.4 1.4 1.2 2.6 2.2 3.3s2.3.9 3.6.7c1.2-.2 2.4-.6 3.5-1.2s2-1.3 2.8-2c1.1-.9 1.9-1.9 2.5-2.7 1-1.4 1.8-3.3 2.4-4.8 2-5.6 3-11.6 3-17.9-.4-.9-.4-1.8-.4-2.6z" fill="#ffbe0f"/><circle cx="27.5" cy="36.1" fill="#fff" r="8.6"/><path d="m15.7 24.5c-2.6 0-4.7 2.1-4.7 4.7 0 1.7.9 3.2 2.2 4 1.6-2.7 3.5-5.3 5.5-7.7-.8-.5-1.8-1-3-1zm57.8 0c-1.1 0-2.2.4-3 1.1 2 2.4 3.8 5 5.5 7.7 1.3-.8 2.3-2.3 2.3-4-.1-2.6-2.2-4.8-4.8-4.8zm-46 7.7c-.3 0-.5 0-.8.1.2.3.2.6.2 1 0 1.2-.9 2.1-2.1 2.1-.4 0-.8-.1-1.1-.3-.1.3-.1.6-.1 1 0 2.1 1.7 3.8 3.8 3.8s3.8-1.7 3.8-3.8c.1-2.2-1.6-3.9-3.7-3.9z" fill="#1f2228"/><circle cx="61.7" cy="36.1" fill="#fff" r="8.6"/><path d="m61.7 32.2c-.3 0-.5 0-.8.1.2.3.2.6.2 1 0 1.2-.9 2.1-2.1 2.1-.4 0-.8-.1-1.1-.3-.1.3-.1.6-.1 1 0 2.1 1.7 3.8 3.8 3.8s3.8-1.7 3.8-3.8c.2-2.2-1.6-3.9-3.7-3.9z" fill="#1f2228"/><circle cx="44.5" cy="52.7" fill="#fff" r="11.7"/><path d="m50.6 46.3c0-.2 0-.3-.1-.5v-.1c-.1-.1-.1-.3-.2-.4 0 0-.7-1.4-5.7-1.4-2.9 0-4.4.5-5.1.9-.4.2-.8.5-.9.9v.1c0 .1-.1.3-.1.4 0 .7.2 2 1.9 3.4 1.5 1.2 2.7 1.7 3.4 1.8v12.9h1.6v-12.7c.7-.2 1.9-.6 3.4-1.8 1.5-1.4 1.8-2.7 1.8-3.5z" fill="#1f2228"/><path d="m25.6 17.3h37.9c-4.5-3.1-9.9-5.2-15.6-5.7l2.3-6.3s-1.5-1.2-5.6-1.2-5.6 1.2-5.6 1.2l2.3 6.3c-5.9.5-11.2 2.6-15.7 5.7z" fill="#ffbe0f"/><path d="m10.5 82.9s-.6-.8-1.3-2.2-1.4-3.3-1.9-5.3-.7-4-.7-5.6c0-1.5.1-2.6.1-2.6s.1.2.2.7.2 1.1.4 1.9c.3 1.5.7 3.4 1.2 5.4.4 2 .9 3.9 1.3 5.3.2.7.4 1.3.5 1.8.2.4.2.6.2.6zm58.6-12.3s0 .7-.1 1.7-.3 2.3-.6 3.6-.6 2.6-.9 3.5c-.1.5-.3.9-.4 1.2-.1.2-.1.4-.1.4s-.1-.7-.1-1.7.1-2.4.4-3.7.7-2.6 1.1-3.5c.3-.9.7-1.5.7-1.5zm-53.5-49.6s-.7.3-1.6.8c-.5.3-1 .6-1.5 1s-1 .9-1.5 1.4-.9 1.1-1.3 1.6c-.4.6-.7 1.1-.9 1.6-.3.5-.5.9-.6 1.2s-.2.5-.2.5v-.5c0-.3 0-.8.2-1.4.1-.6.4-1.2.7-1.8s.8-1.3 1.3-1.8c1.1-1.1 2.5-1.9 3.6-2.2 1-.5 1.8-.4 1.8-.4z" fill="#fff"/><path d="m174.5 45.5c-5.4 0-10 1.7-13.7 5.2s-5.6 7.9-5.6 13.3 1.9 9.8 5.6 13.3 8.3 5.2 13.7 5.2c5.5 0 10.1-1.7 13.8-5.2s5.6-7.9 5.6-13.3-1.9-9.8-5.6-13.3c-3.8-3.5-8.4-5.2-13.8-5.2zm7.5 26.4c-2 2.1-4.5 3.1-7.5 3.1-2.9 0-5.4-1-7.4-3.1-2-2-3-4.7-3-7.9s1-5.8 3-7.9 4.5-3.1 7.4-3.1 5.4 1 7.4 3.1c2.1 2.1 3.1 4.7 3.1 7.9s-1 5.8-3 7.9zm78.7-26.4c-5.3 0-9.6 1.7-12.9 5.2-3.3 3.4-5 7.9-5 13.3 0 5.2 1.7 9.5 5.2 13.1s8.1 5.4 13.7 5.4c1.7 0 3.3-.2 4.9-.6s2.9-.8 3.9-1.3 2-1 2.9-1.6 1.6-1 1.8-1.3l.6-.6-3.7-6.1-1.2 1c-.8.6-2 1.3-3.7 2s-3.3 1-5 1c-2.8 0-5.1-.8-7.1-2.5s-3.1-4-3.5-7h24.4l.2-3.3c0-4.8-1.4-8.8-4.2-12-2.6-3.1-6.4-4.7-11.3-4.7zm-8.6 13.9c.5-2.2 1.5-4 3-5.2 1.5-1.3 3.4-1.9 5.6-1.9 1.8 0 3.4.7 4.7 2s1.9 3 2 5.1zm90.3-13.9c-1.5 0-3 .2-4.3.6-1.4.4-2.4.9-3.2 1.3-.8.5-1.5 1.1-2.1 1.7s-1.1 1.1-1.2 1.3c-.2.3-.3.5-.4.6h-.1v-1.4c0-2.3-1.5-3.4-4.4-3.4h-16c-2.4 0-4 1.1-4.7 3.3l-.2.6-7 20.3-8.3-20.9c-.5-1.2-1-2.1-1.7-2.6s-1.7-.8-2.9-.8h-6.9l1 2.2 2.9 6.5 11.8 26.5-1.2 2.7c-1.2 3-3.2 4.5-5.8 4.5-1.9 0-3.6-.8-5.1-2.4l-3.4 6.2 1 .9c.6.6 1.7 1.2 3.2 1.8s3 .9 4.7.9c2.8 0 5.3-.8 7.5-2.3 2.3-1.5 4-3.8 5.2-6.9l12.7-31.7c.3-.8 1-1.2 2-1.2h6.1c1 0 1.5.5 1.5 1.5v40.1h8.7v-14.6c0-1.2 0-2.2-.1-3h.1l1 1.2c.6.7 1.8 1.5 3.5 2.3s3.6 1.2 5.6 1.2c4.7 0 8.6-1.7 11.6-5.1s4.6-7.9 4.6-13.4-1.4-9.9-4.3-13.4c-2.8-3.4-6.6-5.1-11.4-5.1zm4.3 26.6c-1.7 2-3.8 2.9-6.4 2.9-2.8 0-4.9-1.1-6.4-3.2s-2.3-4.7-2.3-7.6c0-3.7.9-6.5 2.6-8.3 1.7-1.9 3.8-2.8 6.3-2.8 2.6 0 4.7 1 6.4 3 1.6 2 2.4 4.7 2.4 8 0 3.4-.9 6-2.6 8zm35.2-26.6c-5.4 0-10 1.7-13.7 5.2s-5.6 7.9-5.6 13.3 1.9 9.8 5.6 13.3 8.3 5.2 13.7 5.2c5.5 0 10.1-1.7 13.8-5.2s5.6-7.9 5.6-13.3-1.9-9.8-5.6-13.3c-3.8-3.5-8.4-5.2-13.8-5.2zm7.5 26.4c-2 2.1-4.5 3.1-7.5 3.1-2.9 0-5.4-1-7.4-3.1-2-2-3-4.7-3-7.9s1-5.8 3-7.9 4.5-3.1 7.4-3.1 5.4 1 7.4 3.1c2.1 2.1 3.1 4.7 3.1 7.9s-1 5.8-3 7.9zm35.7 2.3c-1.8 0-3.4-.5-4.8-1.4-1.5-.9-2.2-2.7-2.2-5.2v-14.3h8v-7h-8v-9.6h-8.6v9.6h-4.8v7h4.6v15.4c0 2.3.4 4.2 1.1 5.9s1.6 3 2.6 3.9 2.3 1.6 3.7 2.2 2.7.9 3.8 1.1 2.3.2 3.5.2c1.1 0 2-.1 2.7-.2v-7.7zm-285.8-37v16.1h-21.7v-16.1c0-1.6-.4-2.8-1.1-3.6s-1.9-1.1-3.6-1.1h-4.4v49.1h9.1v-20.6h21.7v20.6h9.1v-49.1h-4.4c-3.1 0-4.7 1.5-4.7 4.7zm83.4 8.3c-3.2 0-5.8.7-7.9 2.2s-3.6 3.2-4.6 5.1h-.1l.1-1.5v-1c0-2.6-1.5-3.9-4.6-3.9h-3.8v35.2h8.7v-16.2c0-1.8.2-3.3.7-4.7.6-2.2 1.8-3.9 3.5-5.2s3.7-2 6-2c2.1 0 3.5.6 4.3 1.8s1.2 3 1.2 5.4v16.2c0 1.7.4 2.9 1.1 3.6s1.9 1.1 3.6 1.1h4.1v-22.7c.1-8.9-4.1-13.4-12.3-13.4z" fill="#1f2228"/></svg>