<?xml version="1.0" encoding="UTF-8" standalone="no"?>
<!-- Created with Inkscape (http://www.inkscape.org/) -->

<svg
   xmlns:dc="http://purl.org/dc/elements/1.1/"
   xmlns:cc="http://creativecommons.org/ns#"
   xmlns:rdf="http://www.w3.org/1999/02/22-rdf-syntax-ns#"
   xmlns:svg="http://www.w3.org/2000/svg"
   xmlns="http://www.w3.org/2000/svg"
   xmlns:sodipodi="http://sodipodi.sourceforge.net/DTD/sodipodi-0.dtd"
   xmlns:inkscape="http://www.inkscape.org/namespaces/inkscape"
   id="svg2"
   version="1.1"
   inkscape:version="0.91 r13725"
   xml:space="preserve"
   width="1193.2375"
   height="641.125"
   viewBox="0 0 1193.2375 641.125"
   sodipodi:docname="Imeka_Logo_Couleurs.svg"><metadata
     id="metadata8"><rdf:RDF><cc:Work
         rdf:about=""><dc:format>image/svg+xml</dc:format><dc:type
           rdf:resource="http://purl.org/dc/dcmitype/StillImage" /><dc:title></dc:title></cc:Work></rdf:RDF></metadata><defs
     id="defs6" /><sodipodi:namedview
     pagecolor="#ffffff"
     bordercolor="#666666"
     borderopacity="1"
     objecttolerance="10"
     gridtolerance="10"
     guidetolerance="10"
     inkscape:pageopacity="0"
     inkscape:pageshadow="2"
     inkscape:window-width="1920"
     inkscape:window-height="1016"
     id="namedview4"
     showgrid="false"
     inkscape:zoom="1.1531652"
     inkscape:cx="631.44187"
     inkscape:cy="328.60727"
     inkscape:window-x="0"
     inkscape:window-y="27"
     inkscape:window-maximized="1"
     inkscape:current-layer="g10" /><g
     id="g10"
     inkscape:groupmode="layer"
     inkscape:label="ink_ext_XXXXXX"
     transform="matrix(1.25,0,0,-1.25,0,641.125)"><g
       id="g12"
       transform="scale(0.1,0.1)"><path
         d="m 1385.66,3132.3 c -76.3,0 -118.32,-45.27 -118.32,-127.48 0,-74.59 46.44,-122.79 118.32,-122.79 71.87,0 118.32,48.2 118.32,122.79 0,82.21 -42.02,127.48 -118.32,127.48"
         style="fill:#12172c;fill-opacity:1;fill-rule:nonzero;stroke:none"
         id="path14"
         inkscape:connector-curvature="0" /><path
         d="m 1385.66,2738.21 c -62.08,0 -110.71,-46.63 -110.71,-106.15 l 0,-907.97 c 0,-59.53 48.63,-106.16 110.71,-106.16 62.07,0 110.7,46.63 110.7,106.16 l 0,907.97 c 0,59.52 -48.63,106.15 -110.7,106.15"
         style="fill:#12172c;fill-opacity:1;fill-rule:nonzero;stroke:none"
         id="path16"
         inkscape:connector-curvature="0" /><path
         d="m 2941.57,2767.11 c -145.49,0 -264.46,-40.03 -347.61,-137.61 -81.56,93.82 -219.15,137.61 -379.43,137.61 -127.36,0 -223.01,-45.51 -277.92,-98.47 -10.04,48.97 -54.13,84.81 -108.56,84.81 -62.07,0 -110.7,-46.63 -110.7,-106.16 l 0,-923.2 c 0,-59.53 48.63,-106.16 110.7,-106.16 62.08,0 110.71,46.63 110.71,106.16 l 0,561.64 c 0,182.39 98.12,272.11 256.51,282.38 74.92,4.84 154.51,-10.47 193.31,-46.84 45.68,-42.83 67.89,-114.66 67.89,-219.61 l 0,-565.39 c 0,-59.54 48.63,-106.17 110.7,-106.17 62.09,0 110.72,46.63 110.72,106.17 l 0,594.95 c 0,75.08 21.38,134.22 63.57,175.77 43.51,42.85 132.58,64.71 211.95,63.66 157.34,-2.39 251.86,-85.35 251.86,-268.99 l 0,-577.57 c 0,-59.53 48.63,-106.16 110.7,-106.16 62.08,0 110.71,46.63 110.71,106.16 l 0,607.13 c 0,277.01 -192.29,435.89 -485.11,435.89"
         style="fill:#12172c;fill-opacity:1;fill-rule:nonzero;stroke:none"
         id="path18"
         inkscape:connector-curvature="0" /><path
         d="m 4113.81,2568.43 c 181.12,0 278.26,-88.45 288.85,-262.95 l -607.79,0 c 25.37,169.69 138.21,262.95 318.94,262.95 z m 519.9,-278.14 c 0,79.63 -25.06,476.82 -519.9,476.82 -354.6,0 -557.98,-211.09 -557.98,-579.14 0,-380.36 201.73,-581.39 583.37,-581.39 254.9,0 394.6,113.61 420.02,136.39 20.24,18.14 38.96,39.98 38.96,76.63 0,54.76 -48.76,99.32 -108.7,99.32 -27.85,0 -43.89,-6.55 -65.9,-19.75 -69.06,-46.38 -147.9,-91.66 -284.38,-91.66 -204.51,0 -333.49,113.32 -347.05,303.87 l 704.96,0 c 136.6,0 136.6,116.38 136.6,178.91"
         style="fill:#12172c;fill-opacity:1;fill-rule:nonzero;stroke:none"
         id="path20"
         inkscape:connector-curvature="0" /><path
         d="m 5287.38,2284.59 368.32,276.91 c 38.91,29.29 44.72,66.32 44.72,85.79 0,59.53 -48.62,106.16 -110.7,106.16 -10.65,0 -43.04,0 -73.53,-25.12 l -516.45,-397.51 0,716.8 c 0,59.52 -48.62,106.15 -110.7,106.15 -62.08,0 -110.71,-46.63 -110.71,-106.15 l 0,-1323.53 c 0,-59.53 48.63,-106.16 110.71,-106.16 62.08,0 110.7,46.63 110.7,106.16 l 0,349.49 108.66,82.13 407.56,-491.91 c 26.24,-30.87 56.69,-45.87 93.1,-45.87 62.07,0 110.7,46.63 110.7,106.16 0,9.85 0,39.86 -24.57,66.73 l -407.81,493.77"
         style="fill:#12172c;fill-opacity:1;fill-rule:nonzero;stroke:none"
         id="path22"
         inkscape:connector-curvature="0" /><path
         d="m 6535.55,2125.01 0,-62.11 c 0,-177.04 -154.28,-257.68 -297.62,-257.68 -110.42,0 -242.05,27.75 -242.05,159.9 0,139.12 145.6,159.89 232.38,159.89 l 307.29,0 z m -251.71,642.1 c -258.7,0 -379.87,-122.09 -429.24,-195.1 -8.05,-12.64 -17.31,-30.5 -17.31,-56.59 0,-54.77 46.41,-99.34 103.45,-99.34 32.86,0 58.01,12.17 87.15,42.33 71.43,75.91 143.2,105.47 255.95,105.47 157.61,0 251.71,-81.02 251.71,-216.74 l 0,-28.01 -307.29,0 c -281.39,0 -456.21,-135.65 -456.21,-354.01 0,-224.51 168.74,-358.54 451.39,-358.54 124.71,0 237.07,37.99 312.64,104.96 5.39,-52.47 51.67,-93.61 107.76,-93.61 59.71,0 108.29,46.6 108.29,103.88 l 0,625.33 c 0,259.05 -179.44,419.97 -468.29,419.97"
         style="fill:#12172c;fill-opacity:1;fill-rule:nonzero;stroke:none"
         id="path24"
         inkscape:connector-curvature="0" /><path
         d="m 7188.35,3047.69 c 61.94,0 100.41,40.07 100.41,104.56 0,71.25 -34.71,108.91 -100.41,108.91 -65.69,0 -100.42,-37.66 -100.42,-108.91 0,-64.49 38.48,-104.56 100.42,-104.56"
         style="fill:#a8e2e8;fill-opacity:1;fill-rule:nonzero;stroke:none"
         id="path26"
         inkscape:connector-curvature="0" /><path
         d="m 7289.31,2864.59 c 0,55.53 -45.02,100.55 -100.55,100.55 -55.53,0 -100.54,-45.02 -100.54,-100.55 l 0,-495.5 c 0,-55.53 45.01,-100.55 100.54,-100.55 55.53,0 100.55,45.86 100.55,100.55 0,1.74 0,493.76 0,495.5"
         style="fill:#a8e2e8;fill-opacity:1;fill-rule:nonzero;stroke:none"
         id="path28"
         inkscape:connector-curvature="0" /><path
         d="m 8177.15,3044.94 c -59.32,5.82 -110.4,-40.84 -110.4,-98.9 0,-21.74 -21.87,-57.41 -59.41,-57.41 -37.57,0 -61.95,27.88 -61.95,60.55 0,0.18 0.17,232.49 0.17,233.41 0,55.5 -44.99,100.49 -100.5,100.49 -55.34,0 -100.22,-44.75 -100.47,-100.04 l 0,1.54 c 0,-33.36 -27.3,-60.66 -60.66,-60.66 -32.97,0 -59.91,26.68 -60.55,59.5 l 0,225.42 c 0.04,1.04 0.16,2.05 0.16,3.1 0,56.72 -46.99,102.47 -104.18,100.42 -51.8,-1.85 -92.74,-45.02 -96.54,-96.72 l -0.27,-3.62 0,-1323.94 c 0,0 0.08,-0.03 0.09,-0.04 -0.01,-0.56 -0.09,-1.12 -0.09,-1.7 0,-55.49 45,-100.48 100.5,-100.48 55.5,0 100.49,44.99 100.49,100.48 0,1.05 -0.12,2.06 -0.16,3.1 0,0 0.01,788.88 0.01,790.06 1.07,33.44 29.22,59.97 63.23,58.53 32.85,-1.38 57.97,-30.1 57.97,-62.98 l 0,-505.57 c 0,-0.15 -0.02,-0.29 -0.02,-0.45 0,-56.12 46.02,-101.5 102.38,-100.47 55.32,1.01 98.61,48.48 98.61,103.81 l 0,305.52 c 0,51.14 30.47,69.96 60.44,69.96 31.9,0 60.37,-22.08 60.37,-75.58 0.21,-1.59 0.38,-24.25 0.38,-24.25 0,-58.53 50.74,-105.78 110.4,-99.92 51.93,5.09 90.42,50.88 90.42,103.05 l 0,290.74 c 0,52.17 -38.49,97.96 -90.42,103.05"
         style="fill:#a8e2e8;fill-opacity:1;fill-rule:nonzero;stroke:none"
         id="path30"
         inkscape:connector-curvature="0" /><path
         d="m 8066.75,2648.02 c 0,-55.23 45.19,-100.42 100.41,-100.42"
         style="fill:#a8e2e8;fill-opacity:1;fill-rule:nonzero;stroke:none"
         id="path32"
         inkscape:connector-curvature="0" /></g></g></svg>