<svg height="641.125" viewBox="0 0 1193.2375 641.125" width="1193.2375" xmlns="http://www.w3.org/2000/svg"><g transform="matrix(.125 0 0 -.125 0 641.125)"><g fill="#12172c"><path d="m1385.66 3132.3c-76.3 0-118.32-45.27-118.32-127.48 0-74.59 46.44-122.79 118.32-122.79 71.87 0 118.32 48.2 118.32 122.79 0 82.21-42.02 127.48-118.32 127.48"/><path d="m1385.66 2738.21c-62.08 0-110.71-46.63-110.71-106.15v-907.97c0-59.53 48.63-106.16 110.71-106.16 62.07 0 110.7 46.63 110.7 106.16v907.97c0 59.52-48.63 106.15-110.7 106.15"/><path d="m2941.57 2767.11c-145.49 0-264.46-40.03-347.61-137.61-81.56 93.82-219.15 137.61-379.43 137.61-127.36 0-223.01-45.51-277.92-98.47-10.04 48.97-54.13 84.81-108.56 84.81-62.07 0-110.7-46.63-110.7-106.16v-923.2c0-59.53 48.63-106.16 110.7-106.16 62.08 0 110.71 46.63 110.71 106.16v561.64c0 182.39 98.12 272.11 256.51 282.38 74.92 4.84 154.51-10.47 193.31-46.84 45.68-42.83 67.89-114.66 67.89-219.61v-565.39c0-59.54 48.63-106.17 110.7-106.17 62.09 0 110.72 46.63 110.72 106.17v594.95c0 75.08 21.38 134.22 63.57 175.77 43.51 42.85 132.58 64.71 211.95 63.66 157.34-2.39 251.86-85.35 251.86-268.99v-577.57c0-59.53 48.63-106.16 110.7-106.16 62.08 0 110.71 46.63 110.71 106.16v607.13c0 277.01-192.29 435.89-485.11 435.89"/><path d="m4113.81 2568.43c181.12 0 278.26-88.45 288.85-262.95h-607.79c25.37 169.69 138.21 262.95 318.94 262.95zm519.9-278.14c0 79.63-25.06 476.82-519.9 476.82-354.6 0-557.98-211.09-557.98-579.14 0-380.36 201.73-581.39 583.37-581.39 254.9 0 394.6 113.61 420.02 136.39 20.24 18.14 38.96 39.98 38.96 76.63 0 54.76-48.76 99.32-108.7 99.32-27.85 0-43.89-6.55-65.9-19.75-69.06-46.38-147.9-91.66-284.38-91.66-204.51 0-333.49 113.32-347.05 303.87h704.96c136.6 0 136.6 116.38 136.6 178.91"/><path d="m5287.38 2284.59 368.32 276.91c38.91 29.29 44.72 66.32 44.72 85.79 0 59.53-48.62 106.16-110.7 106.16-10.65 0-43.04 0-73.53-25.12l-516.45-397.51v716.8c0 59.52-48.62 106.15-110.7 106.15s-110.71-46.63-110.71-106.15v-1323.53c0-59.53 48.63-106.16 110.71-106.16s110.7 46.63 110.7 106.16v349.49l108.66 82.13 407.56-491.91c26.24-30.87 56.69-45.87 93.1-45.87 62.07 0 110.7 46.63 110.7 106.16 0 9.85 0 39.86-24.57 66.73z"/><path d="m6535.55 2125.01v-62.11c0-177.04-154.28-257.68-297.62-257.68-110.42 0-242.05 27.75-242.05 159.9 0 139.12 145.6 159.89 232.38 159.89zm-251.71 642.1c-258.7 0-379.87-122.09-429.24-195.1-8.05-12.64-17.31-30.5-17.31-56.59 0-54.77 46.41-99.34 103.45-99.34 32.86 0 58.01 12.17 87.15 42.33 71.43 75.91 143.2 105.47 255.95 105.47 157.61 0 251.71-81.02 251.71-216.74v-28.01h-307.29c-281.39 0-456.21-135.65-456.21-354.01 0-224.51 168.74-358.54 451.39-358.54 124.71 0 237.07 37.99 312.64 104.96 5.39-52.47 51.67-93.61 107.76-93.61 59.71 0 108.29 46.6 108.29 103.88v625.33c0 259.05-179.44 419.97-468.29 419.97"/></g><g fill="#a8e2e8"><path d="m7188.35 3047.69c61.94 0 100.41 40.07 100.41 104.56 0 71.25-34.71 108.91-100.41 108.91-65.69 0-100.42-37.66-100.42-108.91 0-64.49 38.48-104.56 100.42-104.56"/><path d="m7289.31 2864.59c0 55.53-45.02 100.55-100.55 100.55s-100.54-45.02-100.54-100.55v-495.5c0-55.53 45.01-100.55 100.54-100.55s100.55 45.86 100.55 100.55z"/><path d="m8177.15 3044.94c-59.32 5.82-110.4-40.84-110.4-98.9 0-21.74-21.87-57.41-59.41-57.41-37.57 0-61.95 27.88-61.95 60.55 0 .18.17 232.49.17 233.41 0 55.5-44.99 100.49-100.5 100.49-55.34 0-100.22-44.75-100.47-100.04v1.54c0-33.36-27.3-60.66-60.66-60.66-32.97 0-59.91 26.68-60.55 59.5v225.42c.04 1.04.16 2.05.16 3.1 0 56.72-46.99 102.47-104.18 100.42-51.8-1.85-92.74-45.02-96.54-96.72l-.27-3.62v-1323.94s.08-.03.09-.04c-.01-.56-.09-1.12-.09-1.7 0-55.49 45-100.48 100.5-100.48s100.49 44.99 100.49 100.48c0 1.05-.12 2.06-.16 3.1 0 0 .01 788.88.01 790.06 1.07 33.44 29.22 59.97 63.23 58.53 32.85-1.38 57.97-30.1 57.97-62.98v-505.57c0-.15-.02-.29-.02-.45 0-56.12 46.02-101.5 102.38-100.47 55.32 1.01 98.61 48.48 98.61 103.81v305.52c0 51.14 30.47 69.96 60.44 69.96 31.9 0 60.37-22.08 60.37-75.58.21-1.59.38-24.25.38-24.25 0-58.53 50.74-105.78 110.4-99.92 51.93 5.09 90.42 50.88 90.42 103.05v290.74c0 52.17-38.49 97.96-90.42 103.05"/><path d="m8066.75 2648.02c0-55.23 45.19-100.42 100.41-100.42"/></g></g></svg>