<svg xmlns="http://www.w3.org/2000/svg" viewBox="0 0 147.02 153.94"><defs><style>.a{isolation:isolate;}.b{fill:#ffde17;}.b,.c,.d{stroke:#231f20;stroke-miterlimit:10;stroke-width:3px;mix-blend-mode:multiply;}.c{fill:#ec008c;}.d{fill:#00aeef;}.e{fill:#231f20;}</style></defs><title>iqcircles2</title><g class="a"><circle class="b" cx="92.6" cy="69.02" r="32.26"/><circle class="c" cx="53.24" cy="69.02" r="32.26"/><circle class="d" cx="72.24" cy="33.76" r="32.26"/><path class="e" d="M10.91,127.58a3,3,0,0,1,.93-2.2,3.15,3.15,0,0,1,4.47,0,3,3,0,0,1,.93,2.22,3.06,3.06,0,0,1-.93,2.25,3,3,0,0,1-2.22.93,3.18,3.18,0,0,1-3.18-3.2Zm5.6,8.75v21H11.65v-21Z" transform="translate(-10.91 -14.86)"/><path class="e" d="M38.16,168.8V155a9,9,0,0,1-6.61,3,9.09,9.09,0,0,1-7.06-3.13A11.38,11.38,0,0,1,21.67,147a11.7,11.7,0,0,1,2.82-8,9.19,9.19,0,0,1,7.15-3.2,9,9,0,0,1,6.52,2.87v-2.28H43V168.8ZM26.63,146.73a7.34,7.34,0,0,0,1.64,5,5.25,5.25,0,0,0,4.17,1.94,5.56,5.56,0,0,0,4.34-1.86,7,7,0,0,0,1.68-4.88A7.16,7.16,0,0,0,36.8,142a5.48,5.48,0,0,0-4.32-1.88,5.37,5.37,0,0,0-4.19,1.9A7,7,0,0,0,26.63,146.73Z" transform="translate(-10.91 -14.86)"/><path class="e" d="M54,120.89v36.47H49.17V120.89Z" transform="translate(-10.91 -14.86)"/><path class="e" d="M65,136.33V148.4q0,5.22,4.13,5.22t4.12-5.22V136.33h4.86V148.5a13.53,13.53,0,0,1-.63,4.37,7.27,7.27,0,0,1-2.09,2.95A9.18,9.18,0,0,1,69.17,158a9.15,9.15,0,0,1-6.24-2.14,7.4,7.4,0,0,1-2.14-2.95,12.16,12.16,0,0,1-.6-4.37V136.33Z" transform="translate(-10.91 -14.86)"/><path class="e" d="M96.5,139.91l-4,2.14c-.64-1.3-1.42-2-2.36-2a1.61,1.61,0,0,0-1.14.45,1.46,1.46,0,0,0-.48,1.13c0,.81.94,1.61,2.81,2.4a17,17,0,0,1,5.21,3.06,5.27,5.27,0,0,1,1.33,3.78,6.62,6.62,0,0,1-2.24,5.1A7.68,7.68,0,0,1,90.35,158q-5.3,0-7.49-5.16L87,150.88a9.05,9.05,0,0,0,1.32,1.92,3,3,0,0,0,2.12.82c1.64,0,2.46-.75,2.46-2.24,0-.87-.64-1.67-1.9-2.42q-.73-.37-1.47-.72c-.49-.23-1-.46-1.49-.71a9.18,9.18,0,0,1-3-2.07,5.14,5.14,0,0,1-1.1-3.39,6,6,0,0,1,1.88-4.53,6.56,6.56,0,0,1,4.66-1.8Q94.54,135.74,96.5,139.91Z" transform="translate(-10.91 -14.86)"/><path class="e" d="M101.49,127.58a3.18,3.18,0,0,1,3.15-3.13,3.06,3.06,0,0,1,2.25.93,3,3,0,0,1,.93,2.22,3.06,3.06,0,0,1-.93,2.25,3,3,0,0,1-2.22.93,3.18,3.18,0,0,1-3.18-3.2Zm5.59,8.75v21h-4.85v-21Z" transform="translate(-10.91 -14.86)"/><path class="e" d="M112.24,146.69a10.43,10.43,0,0,1,3.27-7.75,11.49,11.49,0,0,1,15.93,0,11.26,11.26,0,0,1,0,15.83,11.17,11.17,0,0,1-8.06,3.17,10.68,10.68,0,0,1-7.92-3.24A10.88,10.88,0,0,1,112.24,146.69Zm5,.09a7.08,7.08,0,0,0,1.68,5,6.56,6.56,0,0,0,9.12,0,7.93,7.93,0,0,0,0-9.81,6,6,0,0,0-4.56-1.85,5.89,5.89,0,0,0-4.51,1.85A6.78,6.78,0,0,0,117.21,146.78Z" transform="translate(-10.91 -14.86)"/><path class="e" d="M139.82,136.33h4.88v1.94a8,8,0,0,1,5.74-2.53,7.24,7.24,0,0,1,5.72,2.31q1.77,2,1.77,6.42v12.89h-4.88V145.61c0-2.07-.28-3.5-.86-4.3a3.5,3.5,0,0,0-3.07-1.21,3.76,3.76,0,0,0-3.43,1.6q-1,1.58-1,5.51v10.15h-4.88Z" transform="translate(-10.91 -14.86)"/></g></svg>