<svg viewBox="0 0 147.02 153.94" xmlns="http://www.w3.org/2000/svg"><g stroke="#231f20" stroke-miterlimit="10" stroke-width="3"><circle cx="92.6" cy="69.02" fill="#ffde17" r="32.26"/><circle cx="53.24" cy="69.02" fill="#ec008c" r="32.26"/><circle cx="72.24" cy="33.76" fill="#00aeef" r="32.26"/></g><g fill="#231f20" transform="translate(-10.91 -14.86)"><path d="m10.91 127.58a3 3 0 0 1 .93-2.2 3.15 3.15 0 0 1 4.47 0 3 3 0 0 1 .93 2.22 3.06 3.06 0 0 1 -.93 2.25 3 3 0 0 1 -2.22.93 3.18 3.18 0 0 1 -3.18-3.2zm5.6 8.75v21h-4.86v-21z"/><path d="m38.16 168.8v-13.8a9 9 0 0 1 -6.61 3 9.09 9.09 0 0 1 -7.06-3.13 11.38 11.38 0 0 1 -2.82-7.87 11.7 11.7 0 0 1 2.82-8 9.19 9.19 0 0 1 7.15-3.2 9 9 0 0 1 6.52 2.87v-2.28h4.84v32.41zm-11.53-22.07a7.34 7.34 0 0 0 1.64 5 5.25 5.25 0 0 0 4.17 1.94 5.56 5.56 0 0 0 4.34-1.86 7 7 0 0 0 1.68-4.88 7.16 7.16 0 0 0 -1.66-4.93 5.48 5.48 0 0 0 -4.32-1.88 5.37 5.37 0 0 0 -4.19 1.9 7 7 0 0 0 -1.66 4.71z"/><path d="m54 120.89v36.47h-4.83v-36.47z"/><path d="m65 136.33v12.07q0 5.22 4.13 5.22t4.12-5.22v-12.07h4.86v12.17a13.53 13.53 0 0 1 -.63 4.37 7.27 7.27 0 0 1 -2.09 2.95 9.18 9.18 0 0 1 -6.22 2.18 9.15 9.15 0 0 1 -6.24-2.14 7.4 7.4 0 0 1 -2.14-2.95 12.16 12.16 0 0 1 -.6-4.37v-12.21z"/><path d="m96.5 139.91-4 2.14c-.64-1.3-1.42-2-2.36-2a1.61 1.61 0 0 0 -1.14.45 1.46 1.46 0 0 0 -.48 1.13c0 .81.94 1.61 2.81 2.4a17 17 0 0 1 5.21 3.06 5.27 5.27 0 0 1 1.33 3.78 6.62 6.62 0 0 1 -2.24 5.1 7.68 7.68 0 0 1 -5.28 2.03q-5.3 0-7.49-5.16l4.14-1.96a9.05 9.05 0 0 0 1.32 1.92 3 3 0 0 0 2.12.82c1.64 0 2.46-.75 2.46-2.24 0-.87-.64-1.67-1.9-2.42q-.73-.37-1.47-.72c-.49-.23-1-.46-1.49-.71a9.18 9.18 0 0 1 -3-2.07 5.14 5.14 0 0 1 -1.1-3.39 6 6 0 0 1 1.88-4.53 6.56 6.56 0 0 1 4.66-1.8q4.06 0 6.02 4.17z"/><path d="m101.49 127.58a3.18 3.18 0 0 1 3.15-3.13 3.06 3.06 0 0 1 2.25.93 3 3 0 0 1 .93 2.22 3.06 3.06 0 0 1 -.93 2.25 3 3 0 0 1 -2.22.93 3.18 3.18 0 0 1 -3.18-3.2zm5.59 8.75v21h-4.85v-21z"/><path d="m112.24 146.69a10.43 10.43 0 0 1 3.27-7.75 11.49 11.49 0 0 1 15.93 0 11.26 11.26 0 0 1 0 15.83 11.17 11.17 0 0 1 -8.06 3.17 10.68 10.68 0 0 1 -7.92-3.24 10.88 10.88 0 0 1 -3.22-8.01zm5 .09a7.08 7.08 0 0 0 1.68 5 6.56 6.56 0 0 0 9.12 0 7.93 7.93 0 0 0 0-9.81 6 6 0 0 0 -4.56-1.85 5.89 5.89 0 0 0 -4.51 1.85 6.78 6.78 0 0 0 -1.76 4.81z"/><path d="m139.82 136.33h4.88v1.94a8 8 0 0 1 5.74-2.53 7.24 7.24 0 0 1 5.72 2.31q1.77 2 1.77 6.42v12.89h-4.88v-11.75c0-2.07-.28-3.5-.86-4.3a3.5 3.5 0 0 0 -3.07-1.21 3.76 3.76 0 0 0 -3.43 1.6q-1 1.58-1 5.51v10.15h-4.88z"/></g></svg>