<svg id="Layer_1" data-name="Layer 1" xmlns="http://www.w3.org/2000/svg" viewBox="0 0 227 45.86"><defs><style>.cls-1{fill:#27272f;}.cls-2{fill:#e05420;}.cls-3{fill:#231f20;}</style></defs><title>Artboard 1</title><path class="cls-1" d="M83.42,16.88A12.71,12.71,0,0,0,81,15.36a6.83,6.83,0,0,0-2.88-.59,4.89,4.89,0,0,0-2.64.68,9.85,9.85,0,0,0-2.14,1.93l-6.58,7.51A7,7,0,0,0,65.12,28V5.77a5.5,5.5,0,0,0-.49-2.51,4.24,4.24,0,0,0-1.31-1.52A4.61,4.61,0,0,0,61.52,1a10.22,10.22,0,0,0-2-.19,15.59,15.59,0,0,0-1.86.1,5.61,5.61,0,0,0-1,.15V44.8h8.44V29.85A6.25,6.25,0,0,0,66.49,33l6.88,9.24A7.39,7.39,0,0,0,80,45.42,8.58,8.58,0,0,0,82.74,45a7.69,7.69,0,0,0,2.17-1L73.31,28.54Z"/><path class="cls-1" d="M109.08,18.59a10.89,10.89,0,0,0-3.94-2.92,14.41,14.41,0,0,0-5.89-1.09,16.29,16.29,0,0,0-5.22.87,12.85,12.85,0,0,0-4.56,2.73,13.6,13.6,0,0,0-3.22,4.69A17,17,0,0,0,85,29.6a19.9,19.9,0,0,0,1.37,7.91,13.36,13.36,0,0,0,3.57,5,12.75,12.75,0,0,0,5,2.61,22.58,22.58,0,0,0,5.73.75,19.5,19.5,0,0,0,5.61-.72,11.58,11.58,0,0,0,3.69-1.7A3.13,3.13,0,0,0,111.59,41a5.28,5.28,0,0,0-.81-2.39,17.93,17.93,0,0,0-1.55-2.38L108,37.26a8.47,8.47,0,0,1-1.62,1.09,10.33,10.33,0,0,1-2.1.83,9.78,9.78,0,0,1-2.73.35c-2.69,0-4.66-.76-5.89-2.27a9.78,9.78,0,0,1-2.11-5.68h18.23a4.81,4.81,0,0,0,.1-.83l.06-1.09q0-.56,0-1.05v-.87a18,18,0,0,0-.68-5A11.57,11.57,0,0,0,109.08,18.59ZM93.47,26.93A7.44,7.44,0,0,1,95,22a5.08,5.08,0,0,1,4.1-1.77c2,0,3.36.62,4.12,1.86a9.08,9.08,0,0,1,1.15,4.84Z"/><path class="cls-1" d="M143.35,20.91a7.91,7.91,0,0,0-2.73-4.59c-1.4-1.15-3.57-1.74-6.51-1.74a12.09,12.09,0,0,0-5.89,1.22A9.84,9.84,0,0,0,125,18.43a3.37,3.37,0,0,0-1.84-2.51,7.76,7.76,0,0,0-3.44-.71q-.67,0-1.17,0t-.87.09l-.75.12V44.8h8.5V24.7a2.78,2.78,0,0,1,1.65-2.39,7.66,7.66,0,0,1,3.93-1,5.58,5.58,0,0,1,2.52.46,2.84,2.84,0,0,1,1.3,1.31,5.75,5.75,0,0,1,.5,2c.06.79.09,1.64.09,2.54V44.8h8.44V27.3c0-1.07,0-2.17-.09-3.29A20.58,20.58,0,0,0,143.35,20.91Z"/><path class="cls-1" d="M167.05,37c-.12.13-.33.31-.62.56a5.46,5.46,0,0,1-1.08.71,11.82,11.82,0,0,1-1.43.63,5,5,0,0,1-1.65.28q-3.53,0-3.53-4.34V21.59h8.68V15.27h-8.68V10.93a5.53,5.53,0,0,0-.5-2.52,4.13,4.13,0,0,0-1.3-1.52,4.61,4.61,0,0,0-1.8-.74,10.32,10.32,0,0,0-2-.19q-.5,0-1,0c-.33,0-.64.06-.93.1l-.93.12V35q0,1.36.12,2.73a10.66,10.66,0,0,0,.56,2.6,7.93,7.93,0,0,0,3,3.91,10.35,10.35,0,0,0,6,1.49,15.61,15.61,0,0,0,3.66-.4,11.1,11.1,0,0,0,2.85-1.06,6.32,6.32,0,0,0,1.83-1.42,2.44,2.44,0,0,0,.65-1.59,4.17,4.17,0,0,0-.49-1.86A21.24,21.24,0,0,0,167.05,37Z"/><path class="cls-1" d="M179.27,16.11a4.9,4.9,0,0,0-1.8-.72,11,11,0,0,0-2-.18,17.83,17.83,0,0,0-1.86.09,5.43,5.43,0,0,0-1,.15V40.27c0,2.07.51,3.44,1.52,4.12a6.89,6.89,0,0,0,3.94,1c.66,0,1.29,0,1.86-.06a3.43,3.43,0,0,0,1.12-.19V20.11a5.46,5.46,0,0,0-.5-2.51A3.81,3.81,0,0,0,179.27,16.11Z"/><path class="cls-1" d="M204.4,28.54l10.11-11.66a12.71,12.71,0,0,0-2.45-1.52,6.84,6.84,0,0,0-2.89-.59,4.88,4.88,0,0,0-2.63.68,9.63,9.63,0,0,0-2.14,1.93l-6.58,7.51a6.87,6.87,0,0,0-1.61,3.1V5.77a5.49,5.49,0,0,0-.5-2.51,4.21,4.21,0,0,0-1.3-1.52,4.61,4.61,0,0,0-1.8-.74,10.24,10.24,0,0,0-2-.19,15.59,15.59,0,0,0-1.86.1,5.41,5.41,0,0,0-1,.15V44.8h8.44V29.85a6.25,6.25,0,0,0,1.37,3.1l6.88,9.24a7.39,7.39,0,0,0,6.64,3.23,8.47,8.47,0,0,0,2.72-.44,7.76,7.76,0,0,0,2.18-1Z"/><path class="cls-1" d="M176.61,1a4.48,4.48,0,0,0-3.23,1.27,4.35,4.35,0,0,0-1.31,3.26,4.23,4.23,0,0,0,1.31,3.22,4.77,4.77,0,0,0,6.42,0,4.18,4.18,0,0,0,1.33-3.22,4.3,4.3,0,0,0-1.33-3.26A4.51,4.51,0,0,0,176.61,1Z"/><path class="cls-2" d="M41.08,19.89a4.51,4.51,0,0,0-3.19-1.27,4.45,4.45,0,0,0-3.23,1.27,4.35,4.35,0,0,0-1.31,3.26,4.23,4.23,0,0,0,1.31,3.22,4.47,4.47,0,0,0,3.23,1.24,4.52,4.52,0,0,0,3.19-1.24,4.18,4.18,0,0,0,1.33-3.22A4.3,4.3,0,0,0,41.08,19.89Z"/><path class="cls-2" d="M24.91,23.12,40.49,2.3a8.28,8.28,0,0,0-2.17-1A8.49,8.49,0,0,0,35.59.81a8.65,8.65,0,0,0-3.72.72A8.66,8.66,0,0,0,29,4L14.78,23.12,29,42.19a8.55,8.55,0,0,0,2.91,2.51,8.65,8.65,0,0,0,3.72.72A8.53,8.53,0,0,0,38.32,45a8.28,8.28,0,0,0,2.17-1Z"/><path class="cls-2" d="M25.71,2.3a8.28,8.28,0,0,0-2.17-1A8.58,8.58,0,0,0,20.81.81a8.65,8.65,0,0,0-3.72.72A8.78,8.78,0,0,0,14.17,4L0,23.12,14.17,42.19a8.57,8.57,0,0,0,2.92,2.51,8.65,8.65,0,0,0,3.72.72A8.58,8.58,0,0,0,23.54,45a8.28,8.28,0,0,0,2.17-1L10.13,23.12Z"/><path class="cls-3" d="M222.41,45.47a4.27,4.27,0,1,1,0-8.54,4.27,4.27,0,0,1,0,8.54Zm0-8a3.76,3.76,0,1,0,2.66,1.1A3.63,3.63,0,0,0,222.41,37.43Zm2.07,6.44h-.92L223,42.56c-.3-.65-.62-1-1-1h-.5v2.29h-.76V38.44h1.53a2.37,2.37,0,0,1,1.46.39,1.3,1.3,0,0,1,.52,1.09,1.37,1.37,0,0,1-.36.95,1.92,1.92,0,0,1-1,.53v0c.3.06.6.4.89,1Zm-3-4.79v1.86h.81c.75,0,1.13-.31,1.13-.93a.83.83,0,0,0-.31-.72,1.69,1.69,0,0,0-.95-.21Z"/></svg>