<svg height="24" viewBox="0 0 132 24" width="132" xmlns="http://www.w3.org/2000/svg" xmlns:xlink="http://www.w3.org/1999/xlink"><mask id="a" fill="#fff"><path d="m.499.51h2.5v2.5h-2.5z" fill="#fff" fill-rule="evenodd"/></mask><mask id="b" fill="#fff"><path d="m5.843.754v7.116h-5.288v-7.116z" fill="#fff" fill-rule="evenodd"/></mask><mask id="c" fill="#fff"><path d="m0 23.491h130.843v-22.491h-130.843z" fill="#fff" fill-rule="evenodd"/></mask><g fill="#008ae6" fill-rule="evenodd" transform="translate(.25 -.24)"><path d="m114.9989 22.2405c0 .69-.56 1.25-1.25 1.25s-1.25-.56-1.25-1.25.56-1.25 1.25-1.25 1.25.56 1.25 1.25zm0-3.9981c0-.69-.56-1.25-1.25-1.25s-1.25.56-1.25 1.25.56 1.25 1.25 1.25 1.25-.56 1.25-1.25m0-3.9976c0-.69-.56-1.25-1.25-1.25s-1.25.56-1.25 1.25.56 1.25 1.25 1.25 1.25-.56 1.25-1.25m0-3.9986c0-.69-.56-1.25-1.25-1.25s-1.25.56-1.25 1.25.56 1.25 1.25 1.25 1.25-.56 1.25-1.25m0-3.9981c0-.69-.56-1.25-1.25-1.25s-1.25.56-1.25 1.25.56 1.25 1.25 1.25 1.25-.56 1.25-1.25"/><path d="m2.9989 1.7595c0-.69-.56-1.25-1.25-1.25s-1.25.56-1.25 1.25.56 1.25 1.25 1.25 1.25-.56 1.25-1.25" mask="url(#a)" transform="translate(112 .49)"/><path d="m122.0665 7.5187c.95 0 1.474-.406 1.474-1.197 0-.801-.524-1.079-1.474-1.079h-.994v2.276zm-2.233-3.27h2.361c1.453 0 2.563.514 2.563 2.073 0 1.068-.555 1.71-1.388 1.998l1.667 2.917h-1.389l-1.506-2.735h-1.069v2.735h-1.239z"/><path d="m.5551 4.6753v-3.921h1.239v4.017c0 1.518.566 2.019 1.41 2.019.855 0 1.453-.501 1.453-2.019v-4.017h1.186v3.921c0 2.297-1.014 3.195-2.639 3.195-1.613 0-2.649-.898-2.649-3.195" mask="url(#b)" transform="translate(125 3.49)"/><path d="m9.488 20.241-4.436-7.706-2.447 2.997v4.709h-2.605v-15.992h2.605v7.278h.249l5.76-7.278h2.961l-4.893 6.209 5.762 9.783z"/><path d="m20.2868 20.4933c-1.919 0-3.379-.563-4.38-1.673-1.089-1.21-1.622-3.105-1.622-5.63v-8.941h2.605v9.163c0 3.205 1.108 4.763 3.365 4.763 2.323 0 3.463-1.558 3.463-4.763v-9.163h2.605v8.941c0 2.531-.555 4.425-1.631 5.63-.991 1.11-2.479 1.673-4.405 1.673m12.2352-8.3383h2.18c2.457 0 3.651-1.003 3.651-3.044 0-1.952-1.122-2.796-3.75-2.796h-2.081zm-2.695 8.086v-15.992h4.999c1.914 0 3.402.339 4.421 1.05 1.157.808 1.744 2.066 1.744 3.802 0 3.226-2.267 5.12-6.066 5.12h-2.403v6.02z"/><path d="m44.111 20.241h2.695v-15.991h-2.695z" mask="url(#c)"/><path d="m53.3649 10.8972h2.105c2.731 0 3.304-1.307 3.304-2.386 0-1.566-1.004-2.286-3.255-2.286h-2.154zm0 7.277h2.476c2.485 0 3.798-.956 3.798-2.761 0-1.708-1.242-2.54-3.798-2.54h-2.476zm-2.695 2.066v-15.991h5.047c3.78 0 5.696 1.287 5.696 3.869 0 1.59-.859 2.956-2.169 3.416l-.039.01v.234l.049.016c1.92.427 3.01 1.792 3.01 3.745 0 1.521-.587 2.725-1.735 3.537-1.058.747-2.58 1.164-4.392 1.164z" mask="url(#c)"/><path d="m65.314 20.241h2.695v-15.991h-2.695z" mask="url(#c)"/><path d="m72.321 20.241v-15.992h2.605v13.746h6.738v2.246z" mask="url(#c)"/><path d="m84.18 20.241v-15.992h9.613v2.157h-6.918v4.312h5.84v2.246h-5.84v5.031h7.187v2.246z" mask="url(#c)"/><path d="m101.25 20.241v-13.835h-4.672v-2.157h12.039v2.157h-4.672v13.835z" mask="url(#c)"/></g></svg>