<svg height="67" viewBox="0 0 173 67" width="173" xmlns="http://www.w3.org/2000/svg" xmlns:xlink="http://www.w3.org/1999/xlink"><linearGradient id="a" x1="50%" x2="50%" y1="0%" y2="100%"><stop offset="0" stop-color="#4ad8ac"/><stop offset="1" stop-color="#4076c4"/></linearGradient><g fill="none" fill-rule="evenodd"><text font-family="DINNextLTPro-Medium, DIN Next LT Pro" font-size="30" font-weight="400"><tspan fill="#424242" x="82.48" y="41">linker</tspan> <tspan fill="#9a9a9a" x="158.65" y="41">d</tspan></text><g transform="translate(0 12.5)"><g fill="#40a0b4"><path d="m66.9987 27.3407 5 2.8865v-27.1125l-5-2.8875z"/><path d="m0 3.11495v27.114l5-2.888v-27.113z"/><path d="m22.00275 51.61325 5 2.8865 11.905-6.8735-5-2.8865z"/></g><path d="m29.0018 47.5723 5 2.887 4.906-2.833-5-2.8865z" fill="#338090"/></g><g fill="#45c1a8" transform="translate(24.5 37.5)"><path d="m22.99865 18.2405v-5.7735l-21.5285-12.43-1.47.8485.0025.0015v4.0765z"/><path d="m.0025 17.66545 20.4975 11.8345 5.001-2.8865-25.4985-14.722z"/></g><g fill="#7ce1c0"><path d="m54.76275 19.79275 4.9995 2.8865 12.2365-7.0645-5.001-2.886z"/><path d="m38.5284 34.9394-5-2.8865-11.528 6.656 5 2.8865z"/><path d="m61.0011 9.2651-5.001-2.8865-12.235 7.0645 5 2.887z"/><path d="m27.5309 28.5898-5-2.8865-11.528 6.656 5 2.8865z"/><path d="m32.76765 7.09375 5 2.8865 12.236-7.0645-5.001-2.8865z"/><path d="m.0054 26.0095 5 2.8865 11.528-6.6555-5-2.887z"/></g><g fill="url(#a)" transform="translate(0 26)"><path d="m66.9987 2.894v25.4045l5-2.887v-25.404z"/><path d="m60.9985 31.7623v-25.404l-5 2.8865v25.4045z"/><path d="m44.9982 15.5957v25.4045l5.0005-2.887v-25.4045z"/><path d="m22.00275 38.11325 5 2.8865v-25.4035l-5-2.8875z"/><path d="m16.00275 9.2451v25.404l-5-2.8865v-25.4045z"/><path d="m.0027 25.41155 5 2.8865v-25.404l-5-2.887z"/></g><g fill="#45c1a8" transform="translate(7 19)"><path d="m21.9991 15.6678 5 2.8865 4.5295-2.615-5-2.8865z"/><path d="m.0042 2.9686 5 2.8865 4.529-2.615-4.9995-2.8865z"/><path d="m11.0017 9.3182 5 2.8865 4.529-2.615-4.9995-2.8865z"/></g><g fill="#a2eacf"><path d="m27.00045.0265-5.0005 2.8865 44.998 25.9805 5.0005-2.8865z"/><path d="m16.00015 6.37755-5 2.8865 44.9975 25.9805 5.001-2.8865z"/><path d="m0 15.61495 44.9975 25.9805 5.001-2.8865-44.9985-25.9805z"/></g></g></svg>