<svg xmlns="http://www.w3.org/2000/svg" width="146" height="42" viewBox="0 0 146 42"><path fill="#99BEE7" d="M140.2 8.9V25l-13.6-7.8c-4-2.3-3.7-3.8-3.8-7l14 8.1v-7.4l3.4-2z"/><path fill="#5592D7" d="M136.8 18.2l-14-8.1 13.6-7.8c4-2.3 5.1-1.3 8 .3l-14 8.1 6.4 3.7v3.8z"/><path fill="#29578A" d="M130.5 10.6l14-8.1v15.7c0 4.7-1.4 5.1-4.2 6.8V8.9l-6.4 3.7-3.4-2z"/><path d="M21.7 40.7c-.1-.9-1.2-14-1.2-14-.1-1.5-.1-3-.1-3h-.1s-.3 1.4-.7 3c0 0-3.7 12.8-4.1 14h-2.9c-.4-1-4.1-14-4.1-14-.5-1.6-.7-3-.7-3h-.2s.1 1.4-.1 3c0 0-1.2 13-1.2 14H1.6l2.6-24.4h5.6L13.6 30c.4 1.5.6 2.7.6 2.7h.1s.2-1.2.7-2.7l4-13.6h5.6l2.6 24.4h-5.5zm14.6.4c-5.5 0-8.4-2.1-8.4-6 0-4.9 4.9-6.4 10.7-6.9v-.9c0-2-1.3-2.5-3.4-2.5-1.8 0-3.7.6-5 1.2L29 22.8c1.3-.6 3.8-1.5 7.2-1.5 4.3 0 7.5 1.8 7.5 7v11.4c-1.5.8-4.1 1.4-7.4 1.4zm2.3-10.4c-3.3.3-5.5 1.1-5.5 4.1 0 2.2 1.3 3.2 3.5 3.2.8 0 1.5-.1 2-.4v-6.9zm9.9-11.9c-1.6 0-2.9-1.1-2.9-2.6 0-1.4 1.3-2.6 2.9-2.6 1.6 0 2.9 1.2 2.9 2.6 0 1.4-1.3 2.6-2.9 2.6zm-2.8 21.9v-19h5.5v19.1h-5.5zm16.7.4c-5.8 0-9.4-3.4-9.4-9.8 0-6.1 3.5-9.9 8.4-9.9 1.1 0 2.1.1 2.8.3V13h5.5v26.7c-1.8.9-4 1.4-7.3 1.4zm1.8-16.4c-.5-.1-1-.2-1.5-.2-3 0-4.2 2.6-4.2 6.5 0 4.1 1.2 6.5 4 6.5.7 0 1.3-.1 1.7-.3V24.7zm14.3 16.4c-3 0-5-.5-6.4-1.5l1.3-4c.8.5 2.2 1.1 3.9 1.1 2 0 3.3-1.2 3.3-2.9 0-1.6-.9-2.5-3.4-3.6-3.8-1.7-4.8-4.4-4.8-6.7 0-4.1 3-7.5 7.7-7.5 2.6 0 4.5.6 5.7 1.4L84.5 21c-.8-.5-2.2-1.1-3.6-1.1-1.9 0-2.9 1.1-2.9 2.8 0 1.8 1.2 2.7 3.3 3.6 4.7 2.1 5.4 4.7 5.4 7.2-.1 4.3-3.4 7.6-8.2 7.6zm17.5 0c-5.5 0-8.4-2.1-8.4-6 0-4.9 4.9-6.4 10.7-6.9v-.9c0-2-1.3-2.5-3.4-2.5-1.8 0-3.7.6-5 1.2l-1.2-3.2c1.3-.6 3.8-1.5 7.2-1.5 4.3 0 7.5 1.8 7.5 7v11.4c-1.6.8-4.1 1.4-7.4 1.4zm2.3-10.4c-3.3.3-5.5 1.1-5.5 4.1 0 2.2 1.3 3.2 3.5 3.2.8 0 1.5-.1 2-.4v-6.9zm13.7-5.5v15.5h-5.5V25.2h-2.1v-3.6h2.1v-1.9c0-4.8 3.3-7.3 8.5-6.7v3.5c-1.8-.1-2.9.6-2.9 2.8v2.4h2.9v3.6h-3zm8.2 7.9c.4 2.8 1.8 4.2 4.6 4.2 2.2 0 3.9-.5 5-1l1.2 3.4c-1.5.7-3.6 1.4-6.8 1.4-5.8 0-9.2-3.9-9.2-9.9s3.1-9.8 8.6-9.8 8.3 3.8 8.1 10.2l-11.5 1.5zm3.2-8.5c-2.3 0-3.7 1.9-3.5 5.9l6.7-1c-.1-3.5-1.2-4.9-3.2-4.9z" fill="#5592D7"/></svg>