<svg version="1" id="Calque_1" xmlns="http://www.w3.org/2000/svg" viewBox="0 0 400 200"><style>.st0{fill:#536271}</style><path class="st0" d="M90 101.9c-1.6 0-2.9 1.3-2.9 2.9 0 4.5-3.6 8.1-8.1 8.1s-8.1-3.6-8.1-8.1v-.3c0-2.8 1-5.1 1.9-6.6.9-1.7 3-6.2 3-10.7C75.8 77 68.1 69 58.2 69c-9.8 0-17.5 8-17.5 18.1 0 4.5 2.1 9 3 10.7.7 1.2 1.9 3.7 1.9 6.6v.4c0 4.5-3.6 8.1-8.1 8.1s-8.1-3.6-8.1-8.1c0-1.6-1.3-2.9-2.9-2.9s-2.9 1.3-2.9 2.9c0 7.6 6.2 13.8 13.8 13.8.4 0 .8 0 1.2-.1-3 2.6-4.7 6.3-4.7 10.3v8.6c0 1.6 1.3 2.9 2.9 2.9 1.6 0 2.9-1.3 2.9-2.9v-8.6c0-4.4 3.6-7.9 7.9-7.9s7.9 3.6 7.9 7.9v8.6c0 1.6 1.3 2.9 2.9 2.9 1.6 0 2.9-1.3 2.9-2.9v-8.6c0-4.4 3.5-7.9 7.9-7.9s7.9 3.6 7.9 7.9v8.6c0 1.6 1.3 2.9 2.9 2.9s2.9-1.3 2.9-2.9v-8.6c0-4-1.8-7.8-4.7-10.3h1.2c7.6 0 13.8-6.2 13.8-13.8-.3-1.5-1.6-2.8-3.2-2.8zM52.9 106c-1.8 0-3.3-1.9-3.3-4.2s1.5-4.2 3.3-4.2 3.3 1.9 3.3 4.2-1.5 4.2-3.3 4.2zm11.1 0c-1.8 0-3.3-1.9-3.3-4.2s1.5-4.2 3.3-4.2c1.8 0 3.3 1.9 3.3 4.2S65.8 106 64 106zm89-4.2c-4.9 0-9.5 1.8-13.1 5.1v-1.8c0-1.8-1.4-3.2-3.2-3.2s-3.2 1.4-3.2 3.2V137c0 1.7 1.3 3.1 3 3.2h.4c1.8 0 3.2-1.4 3.2-3.2l-.1-15.9c0-7.1 5.8-12.9 12.9-12.9 7.1 0 12.9 5.8 12.9 12.9v16c0 1.8 1.4 3.2 3.2 3.2 1.7 0 3.2-1.4 3.2-3.2v-16c0-10.6-8.6-19.3-19.2-19.3zm128.2.3c-1.8 0-3.2 1.4-3.2 3.2v31.9c0 1.8 1.4 3.2 3.2 3.2 1.8 0 3.2-1.4 3.2-3.2v-31.9c0-1.8-1.4-3.2-3.2-3.2z"/><circle class="st0" cx="281.2" cy="92.2" r="3.7"/><path class="st0" d="M333.3 102.1c-1.8 0-3.2 1.4-3.2 3.2v31.9c0 1.8 1.4 3.2 3.2 3.2s3.2-1.4 3.2-3.2v-31.9c0-1.8-1.5-3.2-3.2-3.2z"/><circle class="st0" cx="333.3" cy="92.2" r="3.7"/><path class="st0" d="M265.2 102.4c-.8-.3-1.6-.4-2.4-.1s-1.4.9-1.8 1.7l-11.5 25.4-11.5-25.5c-.3-.8-1-1.4-1.8-1.7-.8-.3-1.7-.3-2.4.1-1.6.7-2.3 2.6-1.6 4.2l14.4 31.9c.5 1.1 1.7 1.9 2.9 1.9s2.4-.7 2.9-1.9l14.4-31.8c.4-.8.4-1.6.1-2.4-.3-.8-.9-1.4-1.7-1.8zm-47-.7c-1.8 0-3.2 1.4-3.2 3.2v1.8c-3.6-3.2-8.1-5-13-5-10.6 0-19.3 8.6-19.3 19.3 0 10.6 8.6 19.3 19.3 19.3 4.8 0 9.4-1.8 13-5v1.7c0 1.8 1.4 3.2 3.2 3.2s3.2-1.4 3.2-3.2v-32.1c-.1-1.8-1.5-3.2-3.2-3.2zM202 133.9c-7.1 0-12.9-5.8-12.9-12.9s5.8-12.9 12.9-12.9c7.1 0 12.9 5.8 12.9 12.9 0 7.1-5.8 12.9-12.9 12.9zm181.2-32.2c-1.8 0-3.2 1.4-3.2 3.2v1.8c-3.6-3.2-8.1-5-13-5-10.6 0-19.3 8.6-19.3 19.3s8.6 19.3 19.3 19.3c4.8 0 9.4-1.8 13-5v1.7c0 1.8 1.4 3.2 3.2 3.2s3.2-1.4 3.2-3.2v-32.1c0-1.8-1.4-3.2-3.2-3.2zm-16.1 32.2c-7.1 0-12.9-5.8-12.9-12.9s5.8-12.9 12.9-12.9S380 113.9 380 121c0 7.1-5.8 12.9-12.9 12.9zm-51.3-25.8c1.8 0 3.2-1.4 3.2-3.2 0-1.8-1.4-3.2-3.2-3.2h-5.6V91.3c0-1.8-1.4-3.2-3.2-3.2-.9 0-1.7.3-2.3.9-.6.6-.9 1.4-.9 2.3v10.4h-5c-1.8 0-3.2 1.4-3.2 3.2 0 1.8 1.4 3.2 3.2 3.2h5v22.3c0 5.5 4.5 10 10 10 1 0 2-.2 3-.5 1.7-.5 2.6-2.4 2.1-4-.5-1.7-2.3-2.6-4-2.1-.3.1-.7.2-1.1.2-1.9 0-3.5-1.6-3.5-3.5v-22.2h5.5v-.2z"/></svg>