<svg viewBox="0 0 1024 1024" xmlns="http://www.w3.org/2000/svg" fill-rule="evenodd" clip-rule="evenodd" stroke-linejoin="round" stroke-miterlimit="1.414"><g transform="scale(2.048)"><path fill="none" d="M0 0H500V500H0z"/><g transform="translate(-19839.2 -10562.6) scale(5.12094)"><path d="M3895.867 2077.753l8.184 2.192 1.22 1.39 1.858-3.447h31.068v.001h.003l1.884 3.496 1.263-1.44 8.184-2.192 5.3 3.407-2.886 8.46-5.73 3.142 4.52 8.382-18.536 41.256h-4.851l-.829 1.39-1.547.236-2.309 1.081-2.31-1.08-1.547-.237-.827-1.39h-4.848v-.002h-.002l-18.535-41.255 4.534-8.41-5.675-3.114-2.886-8.459 5.299-3.407h.001z"/><path d="M3924.964 2077.892l-.677 1.06.243 2.386 1.91-1.912 5.465.261-4.731 1.622-2.38 2.617.218 2.151 3.73-2.34-3.515 4.107-.03.057.2 1.95 2.122 5.536-2.073 12.57 1.314 5.061-1.543 5.296-2.54 18.523-2.541-18.523-1.542-5.296 1.313-5.062-2.073-12.569 2.123-5.538.198-1.95-.028-.055-3.514-4.108 3.728 2.34.219-2.15-2.38-2.617-4.731-1.622 5.464-.26 1.91 1.91.243-2.386-.681-1.066v-1.464l18.68.008 1.3 2.412.167-.191 9.236-2.475 6.806 4.377-3.438 10.08-4.953 2.715 4.17 7.735-19.214 42.766h-4.963l-.762 1.28-1.964.273-2.791 1.31-2.903-1.364.22-1.394.376.057 2.305 1.08 2.397-1.112 1.462-.204.828-1.39 4.848-.001 18.528-41.242-4.514-8.379 5.728-3.142 2.884-8.456-5.297-3.407-8.181 2.192-1.265 1.442-1.844-3.499h-13.267zm-7.698 65.956h-2.929v-1.465h2.93v1.465zm-5.082-3.568l-1.335.6-1.2-2.672 1.335-.6 1.2 2.672zm-2.64-5.878l-1.336.6-1.2-2.671 1.336-.6 1.2 2.671zm-2.64-5.878l-1.336.6-1.2-2.67 1.335-.6 1.2 2.67zm-2.641-5.877l-1.336.6-1.2-2.671 1.336-.6 1.2 2.671zm-2.64-5.877l-1.336.6-1.2-2.671 1.335-.6 1.2 2.671zm-2.641-5.878l-1.336.6-1.2-2.67 1.336-.6 1.2 2.67zm-2.64-5.877l-1.336.6-1.2-2.67 1.335-.602 1.2 2.672zm.69-8.385l-1.39 2.578-1.288-.694 1.39-2.58 1.288.696zm2.101-3.898l-.704 1.284-1.767-.97.704-1.283 1.767.97zm-5.674-3.112l.825.454-.704 1.283-1.323-.725-.825-2.42 1.386-.473.641 1.881zm-1.776-5.207l-1.386.472-.945-2.77 1.386-.474.945 2.772zm14.638-5.016l-1.048 1.943-1.03-1.175.788-1.463 1.29.695zm-10.75-1.446l-2.464 1.584-.792-1.231 2.463-1.584.792 1.231zm6.557-.034l-.379 1.415-2.829-.758.379-1.414 2.829.757zm8.689-.025h-2.929v-1.463h2.929v1.463zm6.443 0h-2.929v-1.463h2.929v1.463z" fill="#fff"/><path d="M3939.066 2076.424l1.3 2.412.168-.19 9.239-2.476 6.808 4.378-3.439 10.083-4.954 2.717 4.17 7.736-19.22 42.78h-4.964l-.763 1.28-1.964.273-2.788 1.312-2.908-1.366.221-1.394.376.057 2.31 1.08 2.393-1.112 1.462-.204.828-1.39 4.85-.002 18.534-41.255-4.515-8.38 5.729-3.144 2.885-8.459-5.298-3.407-8.184 2.192-1.265 1.443-1.845-3.5h-17.92v-1.464h18.754zm-21.805 67.44h-2.93v-1.466h2.93v1.466zm-5.084-3.57l-1.336.6-1.2-2.672 1.336-.6 1.2 2.672zm-2.641-5.879l-1.336.6-1.2-2.672 1.335-.6 1.2 2.672zm-2.641-5.88l-1.337.601-1.2-2.672 1.336-.6 1.2 2.672zm-2.642-5.878l-1.336.6-1.2-2.673 1.336-.6 1.2 2.673zm-2.64-5.88l-1.337.601-1.2-2.673 1.335-.6 1.201 2.673zm-2.642-5.879l-1.336.6-1.2-2.671 1.335-.6 1.2 2.671zm-2.641-5.879l-1.337.6-1.2-2.671 1.336-.601 1.2 2.672zm.69-8.388l-1.39 2.579-1.29-.695 1.391-2.58 1.29.696zm2.102-3.899l-.434.805-.27.48-1.768-.97.704-1.284 1.768.97zm-5.676-3.113l.826.454-.705 1.284-1.323-.726-.826-2.42 1.387-.473.641 1.881zm-1.776-5.209l-1.386.473-.946-2.772 1.386-.474.946 2.773zm14.642-5.017l-1.048 1.944-.476-.543-.195-.222-.36-.41.79-1.465 1.289.696zm-10.754-1.446l-2.464 1.584-.792-1.232 2.464-1.584.792 1.232zm6.56-.034l-.38 1.415-2.83-.758.38-1.415 2.83.758zm8.693-.025h-2.93v-1.464h2.93v1.464zm6.445 0h-2.93v-1.464h2.93v1.464z" stroke="#000" stroke-width=".09535"/><path d="M573.801 356.785L725 449.134l-125.94-143.59-186.229-49.9-120.576 77.537 128.619-25.203 152.927 48.807z" transform="matrix(.04394 0 0 .04394 3877.65 2066.51)" fill="url(#a)" fill-rule="nonzero"/><path d="M1474.2 356.785L1323 449.134l125.94-143.59 186.23-49.9 120.58 77.537-128.62-25.203-152.93 48.807z" transform="matrix(.04394 0 0 .04394 3877.67 2066.51)" fill="url(#b)" fill-rule="nonzero"/><g transform="matrix(.04846 0 0 .04846 3873.81 2062.63)" fill-rule="nonzero"><path d="M1178.208 1210.969l52.509-83.125 154.922-133.747-189.112 99.24-18.319 117.632z" fill="#fff"/><path d="M844.624 1210.969l-52.51-83.125-154.922-133.747 189.108 99.24 18.324 117.632z" fill="#fff"/><path d="M1191.69 1315.34l4.75-27.05 22.72-129.32.88-4.99 4.24-2.02 175.99-83.52 36.76-17.44-30.38 26.73-139.03 122.3.36-.43-59.68 90.54-16.61 25.2zm32.23-51.02l40.5-66.96.13-.21.23-.22 134.19-127.59 6.38 9.28-172.63 90.27 5.13-7.01-13.93 102.44z" transform="matrix(.90688 0 0 .90688 82.42 41.007)" fill="url(#c)"/><path d="M827.713 1264.32l-13.93-102.44 5.125 7.01-172.622-90.27 6.373-9.28 134.189 127.59.234.22.125.21 40.506 66.96zm32.227 51.02l-76.284-115.74.358.43-139.029-122.3-30.382-26.73 36.756 17.44 175.988 83.52 4.249 2.02.877 4.99 27.467 156.37z" transform="matrix(.90688 0 0 .90688 79.819 41.007)" fill="url(#d)"/></g></g></g><defs><linearGradient id="a" x2="1" gradientUnits="userSpaceOnUse" gradientTransform="translate(292.255 352.389) scale(432.744)"><stop offset="0" stop-color="#484847"/><stop offset="1" stop-color="#1D1D1B"/></linearGradient><linearGradient id="b" x2="1" gradientUnits="userSpaceOnUse" gradientTransform="rotate(180 877.87 176.195) scale(432.744)"><stop offset="0" stop-color="#484847"/><stop offset="1" stop-color="#1D1D1B"/></linearGradient><linearGradient id="c" x2="1" gradientUnits="userSpaceOnUse" gradientTransform="rotate(180 737.055 591.585) scale(286.579)"><stop offset="0" stop-color="#484847"/><stop offset="1" stop-color="#1D1D1B"/></linearGradient><linearGradient id="d" x2="1" gradientUnits="userSpaceOnUse" gradientTransform="translate(577.518 1183.17) scale(286.579)"><stop offset="0" stop-color="#484847"/><stop offset="1" stop-color="#1D1D1B"/></linearGradient></defs></svg>