<svg xmlns="http://www.w3.org/2000/svg" viewBox="-345.3 184 160 34"><path fill="#E44A49" d="M-290 211.1c-1.1 0-2.1-.2-3-.7-.9-.4-1.7-1-2.3-1.8-.6-.7-1.1-1.6-1.5-2.5-.4-1-.5-1.9-.5-2.9s.2-2 .6-3 .9-1.8 1.6-2.5c.7-.7 1.4-1.3 2.3-1.7s1.9-.6 2.9-.6c1.1 0 2.1.2 3 .7s1.7 1.1 2.3 1.8c.6.7 1.1 1.6 1.5 2.5.4.9.5 1.9.5 2.9s-.2 2-.6 3-.9 1.8-1.5 2.5c-.7.7-1.4 1.3-2.3 1.7-1 .4-2 .6-3 .6zm-5.8-7.9c0 .9.1 1.7.4 2.5.3.8.7 1.5 1.2 2.1.5.6 1.1 1.1 1.8 1.5.7.4 1.5.5 2.4.5.9 0 1.7-.2 2.4-.6.7-.4 1.3-.9 1.8-1.5s.9-1.3 1.2-2.1c.3-.8.4-1.6.4-2.4s-.1-1.7-.4-2.5c-.3-.8-.7-1.5-1.2-2.1-.5-.6-1.1-1.1-1.8-1.4-.7-.4-1.5-.5-2.3-.5-.9 0-1.7.2-2.4.6-.7.4-1.3.9-1.8 1.5s-.9 1.3-1.2 2.1c-.4.7-.5 1.5-.5 2.3zm26 7.8h-1.5v-6.4c0-1.4-.2-2.4-.6-3-.4-.6-1-.9-1.8-.9-.4 0-.9.1-1.3.2-.4.2-.9.4-1.2.7-.4.3-.7.6-1 1-.3.4-.5.8-.6 1.3v7h-1.5v-11.4h1.3v2.6c.2-.4.5-.8.9-1.1.3-.3.7-.6 1.2-.9.4-.2.9-.4 1.4-.6.5-.1 1-.2 1.5-.2.6 0 1.2.1 1.6.4.4.2.8.6 1 1 .2.4.5.9.6 1.6.1.6.2 1.3.2 2v6.7h-.2zm8.8.2c-.8 0-1.6-.2-2.3-.5s-1.3-.7-1.8-1.3-.9-1.2-1.2-1.9c-.3-.7-.4-1.5-.4-2.3 0-.8.1-1.6.4-2.3.3-.7.7-1.3 1.2-1.9.5-.5 1.1-1 1.8-1.3.7-.3 1.5-.5 2.3-.5.8 0 1.6.2 2.3.5.7.3 1.3.7 1.8 1.3.5.5.9 1.2 1.2 1.9.3.7.4 1.5.4 2.2V205.7h-9.8c0 .6.2 1.2.4 1.7s.5 1 .9 1.4c.4.4.8.7 1.3.9.5.2 1 .3 1.6.3.4 0 .8-.1 1.1-.2.4-.1.7-.2 1-.4.3-.2.6-.4.8-.6.2-.3.4-.5.6-.8l1.3.4c-.2.4-.4.8-.7 1.2-.3.3-.7.6-1.1.9-.4.3-.9.5-1.4.6-.7.1-1.2.1-1.7.1zm4.2-6.5c0-.6-.2-1.2-.4-1.7s-.5-.9-.9-1.3-.8-.7-1.3-.9c-.5-.2-1-.3-1.6-.3s-1.1.1-1.6.3c-.5.2-.9.5-1.3.9s-.7.8-.9 1.3c-.2.5-.4 1.1-.4 1.7h8.4z"/><path fill="#515151" d="M-243.1 199.5c-.1-.1-.3-.2-.6-.4s-.6-.3-1-.5-.8-.3-1.3-.4-.9-.2-1.4-.2c-.8 0-1.5.2-1.9.5-.4.3-.6.7-.6 1.3 0 .3.1.6.2.8.2.2.4.4.7.6.3.2.7.3 1.1.4.4.1 1 .3 1.6.4.8.2 1.5.4 2.1.7.6.2 1.2.5 1.6.9.4.4.8.8 1 1.3s.4 1.1.4 1.8c0 .8-.2 1.6-.5 2.1-.3.6-.7 1.1-1.3 1.4-.5.4-1.1.6-1.8.8-.7.2-1.4.3-2.2.3-1.2 0-2.3-.2-3.5-.5-1.1-.4-2.2-.9-3.1-1.5l1.3-2.6c.1.1.4.3.7.5.3.2.8.4 1.2.6.5.2 1 .4 1.6.5.6.1 1.2.2 1.8.2 1.7 0 2.5-.5 2.5-1.6 0-.4-.1-.6-.3-.9-.2-.2-.5-.4-.8-.6-.4-.2-.8-.3-1.3-.5-.5-.1-1.1-.3-1.7-.5-.7-.2-1.4-.4-1.9-.7-.6-.2-1-.5-1.4-.8-.4-.3-.6-.7-.8-1.1s-.3-1-.3-1.6c0-.8.1-1.5.4-2.1s.7-1.1 1.2-1.5 1.1-.7 1.8-.9c.7-.2 1.4-.3 2.2-.3 1.1 0 2.1.2 3 .5.9.3 1.7.8 2.4 1.2l-1.1 2.4zm4.5-1.6V195h2.9v2.9h-2.9zm0 13.1v-11.5h2.9V211h-2.9zm10.6.1c-.8 0-1.5-.2-2.1-.5-.6-.3-1.2-.7-1.6-1.3-.5-.5-.8-1.2-1.1-1.9-.2-.7-.4-1.5-.4-2.2 0-.8.1-1.6.4-2.3s.6-1.3 1.1-1.9c.5-.5 1-1 1.7-1.3.7-.3 1.4-.5 2.2-.5.9 0 1.7.2 2.4.6s1.2.9 1.7 1.6v-2h2.6v11c0 .9-.2 1.6-.5 2.3-.3.7-.8 1.2-1.3 1.7s-1.2.8-2 1.1c-.8.2-1.6.4-2.6.4-1.3 0-2.3-.2-3.2-.6s-1.6-1-2.2-1.8l1.6-1.6c.4.5 1 1 1.7 1.3.7.3 1.4.5 2.1.5.5 0 .9-.1 1.3-.2s.8-.3 1.1-.6.6-.6.7-1c.2-.4.3-.9.3-1.5V209c-.4.7-.9 1.2-1.6 1.5s-1.5.6-2.3.6zm1.1-2.4c.3 0 .6-.1.9-.2.3-.1.6-.2.8-.4.2-.2.5-.4.6-.6.2-.2.3-.5.4-.7V204c-.3-.7-.7-1.2-1.2-1.6-.6-.4-1.1-.6-1.8-.6-.5 0-.9.1-1.2.3-.3.2-.7.5-1 .8s-.5.7-.6 1.1c-.1.4-.2.9-.2 1.3 0 .5.1.9.2 1.3.2.4.4.8.7 1.1.3.3.6.5 1 .7.5.2.9.3 1.4.3zm19.6 2.3h-2.9v-6.5c0-.9-.2-1.6-.5-2s-.8-.6-1.3-.6c-.3 0-.6.1-.9.2-.3.1-.6.3-.9.5-.3.2-.5.5-.7.8-.2.3-.4.6-.5 1v6.7h-3v-11.6h2.7v2.1c.4-.7 1-1.3 1.8-1.7s1.7-.6 2.7-.6c.7 0 1.3.1 1.8.4.5.3.8.6 1.1 1 .3.4.4.9.5 1.5.1.5.1 1.1.1 1.7v7.1zm6.3.2c-.6 0-1.1-.1-1.6-.3-.5-.2-.9-.4-1.3-.8-.4-.3-.6-.7-.8-1.2-.2-.4-.3-.9-.3-1.5 0-.5.1-1 .4-1.5.2-.5.6-.9 1-1.2s1-.6 1.6-.8c.6-.2 1.3-.3 2-.3.5 0 1 0 1.5.1s.9.2 1.3.4v-.7c0-.8-.2-1.3-.6-1.8s-1.1-.6-1.9-.6c-.6 0-1.2.1-1.8.3-.6.2-1.2.5-1.8 1l-.9-1.9c1.5-1 3.1-1.5 4.8-1.5s2.9.4 3.9 1.2c.9.8 1.4 2 1.4 3.5v3.6c0 .3.1.5.2.7.1.1.3.2.6.2v2.5c-.3.1-.5.1-.8.1h-.6c-.6 0-1-.1-1.3-.4-.3-.3-.5-.6-.5-1l-.1-.6c-.5.7-1.1 1.2-1.9 1.5-.9.8-1.7 1-2.5 1zm.8-2.1c.5 0 1-.1 1.4-.3.4-.2.8-.4 1-.7.3-.2.5-.5.5-.8V206c-.4-.1-.7-.2-1.1-.3-.4-.1-.8-.1-1.2-.1-.8 0-1.4.2-1.9.5s-.7.8-.7 1.3.2.9.6 1.2c.4.3.9.5 1.4.5zm9.2-14.2h2.9v12.2c0 .9.4 1.3 1.2 1.3.2 0 .3 0 .6-.1.2-.1.4-.1.6-.2l.4 2.4c-.4.2-.9.3-1.4.4s-1 .2-1.4.2c-.9 0-1.6-.2-2.1-.7s-.8-1.2-.8-2.1v-13.4z"/><path fill="#E44A49" d="M-326.8 184c-10.2 0-18.5 8.3-18.5 18.5 0 6.5 3.4 12.2 8.4 15.5l.9-.6c.2-.1.5-.3.7-.4.3-.1.6-.3.8-.4.3-.1.6-.2.9-.4.2-.1.5-.2.7-.3.3-.1.7-.2 1-.3.3-.1.5-.1.8-.2.3-.1.5-.1.8-.2s.6-.1.9-.1c.3 0 .7-.1 1-.1v-11h-1v-2h5v13.2c2.8.4 5.3 1.4 7.6 2.8 5.1-3.3 8.4-9 8.4-15.5.1-10.2-8.2-18.5-18.4-18.5zm5.5 18.5c0-3-2.5-5.5-5.5-5.5s-5.5 2.5-5.5 5.5c0 2.1 1.2 4 3 4.9v1.1c-2.3-1-4-3.3-4-6 0-3.6 2.9-6.5 6.5-6.5s6.5 2.9 6.5 6.5c0 2.3-1.2 4.3-3 5.5v-1.2c1.2-1.1 2-2.6 2-4.3zm-2 10.9v-1.1c4.1-1.4 7-5.3 7-9.9 0-5.7-4.7-10.4-10.5-10.4s-10.5 4.7-10.5 10.5c0 4.9 3.4 9.1 8 10.2v1c-5.1-1.1-9-5.7-9-11.2 0-6.4 5.1-11.5 11.5-11.5s11.5 5.1 11.5 11.5c0 5.1-3.4 9.5-8 10.9z"/></svg>