<?xml version="1.0" encoding="UTF-8" standalone="no"?>
<!DOCTYPE svg PUBLIC "-//W3C//DTD SVG 1.1//EN" "http://www.w3.org/Graphics/SVG/1.1/DTD/svg11.dtd">
<svg width="100%" height="100%" viewBox="0 0 563 264" version="1.1" xmlns="http://www.w3.org/2000/svg" xmlns:xlink="http://www.w3.org/1999/xlink" xml:space="preserve" xmlns:serif="http://www.serif.com/" style="fill-rule:evenodd;clip-rule:evenodd;stroke-linejoin:round;stroke-miterlimit:1.41421;">
    <g id="Artboard1" transform="matrix(0.910935,0,0,0.764476,0,0)">
        <rect x="0" y="0" width="618" height="345" style="fill:none;"/>
        <clipPath id="_clip1">
            <rect x="0" y="0" width="618" height="345"/>
        </clipPath>
        <g clip-path="url(#_clip1)">
            <g id="logo_pollen-robotics_rectangle_white" transform="matrix(1.09777,0,0,1.30809,-30.9186,-4146.99)">
                <rect x="0" y="3131.46" width="617.518" height="344.95" style="fill:none;"/>
                <g transform="matrix(1,0,0,1,1.32062,-1.79034)">
                    <g transform="matrix(1,0,0,1,-4043.71,3133.65)">
                        <g transform="matrix(1.1431,0,0,1.1431,-642.882,-24.9869)">
                            <g transform="matrix(1,0,0,1,4328.09,64.0117)">
                                <path d="M107.646,100.541L90.114,110.663C89.5,111.018 88.743,111.018 88.128,110.663L70.596,100.541C69.982,100.186 69.603,99.53 69.603,98.821L69.603,78.577C69.603,77.867 69.982,77.211 70.596,76.857L88.128,66.735C88.743,66.38 89.5,66.38 90.114,66.735L107.646,76.857C108.261,77.211 108.639,77.867 108.639,78.577L108.639,98.821C108.639,99.53 108.261,100.186 107.646,100.541M86.092,59.367L65.233,71.41C63.359,72.492 62.204,74.492 62.204,76.656L62.204,100.742C62.204,102.906 63.359,104.906 65.233,105.988L86.092,118.031C87.967,119.113 90.276,119.113 92.15,118.031L113.009,105.988C114.883,104.906 116.038,102.906 116.038,100.742L116.038,76.656C116.038,74.492 114.883,72.492 113.009,71.41L92.15,59.367C90.276,58.285 87.967,58.285 86.092,59.367" style="fill:rgb(119,187,185);fill-rule:nonzero;"/>
                            </g>
                            <g transform="matrix(1,0,0,1,4328.09,64.0117)">
                                <path d="M45.465,100.528L27.886,110.677C27.286,111.024 26.547,111.024 25.947,110.677L8.368,100.528C7.768,100.182 7.398,99.541 7.398,98.849L7.398,78.55C7.398,77.858 7.768,77.217 8.368,76.871L25.947,66.722C26.547,66.375 27.286,66.375 27.886,66.722L45.465,76.871C46.065,77.217 46.435,77.858 46.435,78.55L46.435,98.849C46.435,99.541 46.065,100.182 45.465,100.528M24.23,59.169L2.686,71.608C1.024,72.568 0,74.341 0,76.261L0,121.18C0,123.099 1.024,124.873 2.686,125.833L7.398,128.553L7.398,120.01L7.398,108.512L24.23,118.229C25.893,119.189 27.941,119.189 29.603,118.229L51.147,105.791C52.809,104.831 53.833,103.058 53.833,101.138L53.833,76.261C53.833,74.341 52.809,72.568 51.147,71.608L29.603,59.169C27.941,58.21 25.893,58.21 24.23,59.169" style="fill:rgb(119,187,185);fill-rule:nonzero;"/>
                            </g>
                            <g transform="matrix(1,0,0,1,4328.09,64.0117)">
                                <path d="M131.807,57.618L127.259,60.244C125.495,61.262 124.408,63.145 124.408,65.182L124.408,112.216C124.408,114.253 125.495,116.136 127.259,117.154L131.807,119.78L131.807,57.618Z" style="fill:rgb(119,187,185);fill-rule:nonzero;"/>
                            </g>
                            <g transform="matrix(1,0,0,1,4328.09,64.0117)">
                                <path d="M147.576,57.618L143.028,60.244C141.264,61.262 140.177,63.145 140.177,65.182L140.177,112.216C140.177,114.253 141.264,116.136 143.028,117.154L147.576,119.78L147.576,57.618Z" style="fill:rgb(119,187,185);fill-rule:nonzero;"/>
                            </g>
                            <g transform="matrix(1,0,0,1,4328.09,64.0117)">
                                <path d="M207.052,71.584L185.591,59.193C183.903,58.219 181.823,58.219 180.135,59.193L158.674,71.584C156.986,72.559 155.946,74.36 155.946,76.309L155.946,101.09C155.946,103.039 156.986,104.84 158.674,105.815L182.863,119.78L182.863,114.381C182.863,112.436 181.825,110.638 180.14,109.665L164.383,100.567C163.741,100.197 163.345,99.511 163.345,98.77L163.345,78.629C163.345,77.887 163.741,77.202 164.383,76.832L181.825,66.761C182.467,66.39 183.259,66.39 183.901,66.761L201.343,76.832C201.986,77.202 202.381,77.887 202.381,78.629L202.381,85L187.719,85C185.049,85 182.884,87.165 182.884,89.835L182.884,92.399L209.78,92.399L209.78,76.309C209.78,74.36 208.74,72.559 207.052,71.584" style="fill:rgb(119,187,185);fill-rule:nonzero;"/>
                            </g>
                            <g transform="matrix(1,0,0,1,4328.09,64.0117)">
                                <path d="M268.449,71.366L247.931,59.52C246.158,58.496 243.975,58.496 242.202,59.52L225.548,69.135L225.548,62.555L221.229,65.049C219.323,66.149 218.15,68.182 218.15,70.383L218.15,112.216C218.15,114.253 219.236,116.136 221.001,117.154L225.548,119.78L225.548,78.876C225.548,78.135 225.944,77.45 226.586,77.079L244.029,67.008C244.671,66.638 245.462,66.638 246.104,67.008L263.547,77.079C264.189,77.45 264.585,78.135 264.585,78.876L264.585,119.78L269.132,117.154C270.897,116.136 271.983,114.253 271.983,112.216L271.983,77.487C271.983,74.962 270.636,72.629 268.449,71.366" style="fill:rgb(119,187,185);fill-rule:nonzero;"/>
                            </g>
                        </g>
                        <g transform="matrix(1.00561,0,0,1.00561,-33.3189,-7.34936)">
                            <g transform="matrix(1.63064,0,0,1.63064,4283.31,-27.0789)">
                                <path d="M39.542,158.978L36.843,158.978L36.843,146.743L39.542,146.743L39.542,149.546C40.17,147.372 41.376,146.48 42.896,146.48C43.76,146.48 44.676,146.69 45.07,146.952L44.625,149.441C43.943,149.101 43.341,149.022 42.817,149.022C40.511,149.022 39.542,151.327 39.542,154.577L39.542,158.978Z" style="fill:rgb(119,187,185);fill-rule:nonzero;"/>
                            </g>
                            <g transform="matrix(1.63064,0,0,1.63064,4272.51,-27.0789)">
                                <path d="M72.411,152.821C72.411,150.568 70.734,149.127 68.691,149.127C66.673,149.127 64.997,150.568 64.997,152.821C64.997,155.127 66.673,156.62 68.691,156.62C70.734,156.62 72.411,155.127 72.411,152.821M62.324,152.821C62.324,148.943 65.232,146.481 68.691,146.481C72.175,146.481 75.11,148.943 75.11,152.821C75.11,156.698 72.175,159.24 68.691,159.24C65.232,159.24 62.324,156.698 62.324,152.821" style="fill:rgb(119,187,185);fill-rule:nonzero;"/>
                            </g>
                            <g transform="matrix(1.63064,0,0,1.63064,4261.7,-27.0789)">
                                <path d="M98.836,156.62C100.879,156.62 102.53,155.074 102.53,152.821C102.53,150.568 100.879,149.101 98.836,149.101C97.002,149.101 95.089,150.411 95.089,152.821C95.089,155.205 96.845,156.62 98.836,156.62M92.364,158.978L92.364,140.088L95.063,140.088L95.063,148.498C95.823,147.162 97.447,146.48 99.177,146.48C102.504,146.48 105.281,148.943 105.281,152.874C105.281,156.725 102.451,159.24 99.15,159.24C97.5,159.24 95.823,158.506 95.063,157.196L95.063,158.978L92.364,158.978Z" style="fill:rgb(119,187,185);fill-rule:nonzero;"/>
                            </g>
                            <g transform="matrix(1.63064,0,0,1.63064,4250.9,-27.0789)">
                                <path d="M132.623,152.821C132.623,150.568 130.946,149.127 128.903,149.127C126.885,149.127 125.208,150.568 125.208,152.821C125.208,155.127 126.885,156.62 128.903,156.62C130.946,156.62 132.623,155.127 132.623,152.821M122.536,152.821C122.536,148.943 125.444,146.481 128.903,146.481C132.387,146.481 135.322,148.943 135.322,152.821C135.322,156.698 132.387,159.24 128.903,159.24C125.444,159.24 122.536,156.698 122.536,152.821" style="fill:rgb(119,187,185);fill-rule:nonzero;"/>
                            </g>
                            <g transform="matrix(1.63064,0,0,1.63064,4240.1,-27.0789)">
                                <path d="M157.475,146.742L160.069,146.742L160.069,148.969L157.475,148.969L157.475,158.977L154.776,158.977L154.776,148.969L152.576,148.969L152.576,146.742L154.776,146.742L154.776,142.104L157.475,142.104L157.475,146.742Z" style="fill:rgb(119,187,185);fill-rule:nonzero;"/>
                            </g>
                            <g transform="matrix(1.63064,0,0,1.63064,4229.3,-27.0789)">
                                <path d="M180.468,146.742L177.796,146.742L177.796,158.977L180.468,158.977L180.468,146.742ZM179.132,140.088C180.127,140.088 180.913,140.821 180.913,141.791C180.913,142.76 180.127,143.494 179.132,143.494C178.162,143.494 177.324,142.76 177.324,141.791C177.324,140.821 178.162,140.088 179.132,140.088" style="fill:rgb(119,187,185);fill-rule:nonzero;"/>
                            </g>
                            <g transform="matrix(1.63064,0,0,1.63064,4218.5,-27.0789)">
                                <path d="M204.691,146.48C206.63,146.48 208.385,147.24 209.538,148.602L207.442,150.279C206.787,149.52 205.766,149.1 204.691,149.1C202.648,149.1 200.84,150.541 200.84,152.82C200.84,155.1 202.648,156.646 204.691,156.646C205.766,156.646 206.787,156.2 207.442,155.441L209.565,157.091C208.412,158.454 206.656,159.24 204.691,159.24C201.181,159.24 198.168,156.698 198.168,152.82C198.168,148.943 201.181,146.48 204.691,146.48" style="fill:rgb(119,187,185);fill-rule:nonzero;"/>
                            </g>
                            <g transform="matrix(1.63064,0,0,1.63064,4207.7,-27.0789)">
                                <path d="M227.16,149.703C227.317,147.895 229.282,146.48 231.535,146.48C233.71,146.48 235.832,147.476 235.989,150.096L233.422,150.096C233.317,149.179 232.479,148.786 231.64,148.786C230.959,148.786 230.173,149.048 229.911,149.467C229.701,149.807 229.675,150.201 229.806,150.568C229.964,151.039 230.645,151.327 231.3,151.51L233.186,151.982C235.832,152.637 236.382,154.314 236.382,155.546C236.382,157.904 234.313,159.24 231.509,159.24C229.23,159.24 226.872,157.799 226.819,155.231L229.308,155.231C229.44,156.279 230.304,156.986 231.719,156.986C232.95,156.986 233.893,156.436 233.893,155.519C233.893,154.733 233.081,154.288 232.19,154.078L230.54,153.685C227.946,152.978 227.003,151.668 227.16,149.703" style="fill:rgb(119,187,185);fill-rule:nonzero;"/>
                            </g>
                        </g>
                    </g>
                    <g transform="matrix(1,0,0,1,44.8945,3191.75)">
                        <path d="M36.382,147.406L97.158,224.375L157.933,147.406L36.382,147.406Z" style="fill:rgb(96,128,190);fill-rule:nonzero;"/>
                        <path d="M0,168.282L97.158,224.375L36.382,147.406L0,168.282Z" style="fill:rgb(241,136,127);fill-rule:nonzero;"/>
                        <path d="M97.158,224.375L194.315,168.282L157.933,147.406L97.158,224.375Z" style="fill:rgb(57,101,129);fill-rule:nonzero;"/>
                        <path d="M157.933,147.406L194.315,168.282L194.315,56.094L157.933,147.406Z" style="fill:rgb(253,214,137);fill-rule:nonzero;"/>
                        <path d="M0,168.282L36.382,147.406L0,56.094L0,168.282Z" style="fill:rgb(57,101,129);fill-rule:nonzero;"/>
                        <path d="M97.158,0L0,56.094L97.158,42.549L97.158,0Z" style="fill:rgb(96,128,190);fill-rule:nonzero;"/>
                        <path d="M97.158,0L97.158,42.549L194.315,56.094L97.158,0Z" style="fill:rgb(57,101,129);fill-rule:nonzero;"/>
                        <path d="M0,56.094L36.382,147.406L97.158,42.549L0,56.094Z" style="fill:rgb(253,214,137);fill-rule:nonzero;"/>
                        <path d="M157.933,147.406L194.315,56.094L97.158,42.549L157.933,147.406Z" style="fill:rgb(241,136,127);fill-rule:nonzero;"/>
                        <path d="M157.933,147.406L36.382,147.406L97.158,42.548L157.933,147.406Z" style="fill:rgb(119,187,185);fill-rule:nonzero;"/>
                    </g>
                </g>
            </g>
        </g>
    </g>
</svg>
