<svg clip-rule="evenodd" fill-rule="evenodd" stroke-linejoin="round" stroke-miterlimit="1.41421" viewBox="0 0 563 264" xmlns="http://www.w3.org/2000/svg" xmlns:xlink="http://www.w3.org/1999/xlink"><clipPath id="a"><path clip-rule="evenodd" d="m0 0h618v345h-618z"/></clipPath><g transform="scale(.910935 .764476)"><path d="m0 0h618v345h-618z" fill="none"/><g clip-path="url(#a)"><g transform="matrix(1.09777 0 0 1.30809 -30.9186 -4146.99)"><path d="m0 3131.46h617.518v344.95h-617.518z" fill="none"/><g fill-rule="nonzero"><g fill="#77bbb9"><path d="m107.646 100.541-17.532 10.122c-.614.355-1.371.355-1.986 0l-17.532-10.122c-.614-.355-.993-1.011-.993-1.72v-20.244c0-.71.379-1.366.993-1.72l17.532-10.122c.615-.355 1.372-.355 1.986 0l17.532 10.122c.615.354.993 1.01.993 1.72v20.244c0 .709-.378 1.365-.993 1.72m-21.554-41.174-20.859 12.043c-1.874 1.082-3.029 3.082-3.029 5.246v24.086c0 2.164 1.155 4.164 3.029 5.246l20.859 12.043c1.875 1.082 4.184 1.082 6.058 0l20.859-12.043c1.874-1.082 3.029-3.082 3.029-5.246v-24.086c0-2.164-1.155-4.164-3.029-5.246l-20.859-12.043c-1.874-1.082-4.183-1.082-6.058 0" transform="matrix(1.1431 0 0 1.1431 262.168299 3180.044534)"/><path d="m45.465 100.528-17.579 10.149c-.6.347-1.339.347-1.939 0l-17.579-10.149c-.6-.346-.97-.987-.97-1.679v-20.299c0-.692.37-1.333.97-1.679l17.579-10.149c.6-.347 1.339-.347 1.939 0l17.579 10.149c.6.346.97.987.97 1.679v20.299c0 .692-.37 1.333-.97 1.679m-21.235-41.359-21.544 12.439c-1.662.96-2.686 2.733-2.686 4.653v44.919c0 1.919 1.024 3.693 2.686 4.653l4.712 2.72v-8.543-11.498l16.832 9.717c1.663.96 3.711.96 5.373 0l21.544-12.438c1.662-.96 2.686-2.733 2.686-4.653v-24.877c0-1.92-1.024-3.693-2.686-4.653l-21.544-12.439c-1.662-.959-3.71-.959-5.373 0" transform="matrix(1.1431 0 0 1.1431 262.168299 3180.044534)"/><path d="m131.807 57.618-4.548 2.626c-1.764 1.018-2.851 2.901-2.851 4.938v47.034c0 2.037 1.087 3.92 2.851 4.938l4.548 2.626z" transform="matrix(1.1431 0 0 1.1431 262.168299 3180.044534)"/><path d="m147.576 57.618-4.548 2.626c-1.764 1.018-2.851 2.901-2.851 4.938v47.034c0 2.037 1.087 3.92 2.851 4.938l4.548 2.626z" transform="matrix(1.1431 0 0 1.1431 262.168299 3180.044534)"/><path d="m207.052 71.584-21.461-12.391c-1.688-.974-3.768-.974-5.456 0l-21.461 12.391c-1.688.975-2.728 2.776-2.728 4.725v24.781c0 1.949 1.04 3.75 2.728 4.725l24.189 13.965v-5.399c0-1.945-1.038-3.743-2.723-4.716l-15.757-9.098c-.642-.37-1.038-1.056-1.038-1.797v-20.141c0-.742.396-1.427 1.038-1.797l17.442-10.071c.642-.371 1.434-.371 2.076 0l17.442 10.071c.643.37 1.038 1.055 1.038 1.797v6.371h-14.662c-2.67 0-4.835 2.165-4.835 4.835v2.564h26.896v-16.09c0-1.949-1.04-3.75-2.728-4.725" transform="matrix(1.1431 0 0 1.1431 262.168299 3180.044534)"/><path d="m268.449 71.366-20.518-11.846c-1.773-1.024-3.956-1.024-5.729 0l-16.654 9.615v-6.58l-4.319 2.494c-1.906 1.1-3.079 3.133-3.079 5.334v41.833c0 2.037 1.086 3.92 2.851 4.938l4.547 2.626v-40.904c0-.741.396-1.426 1.038-1.797l17.443-10.071c.642-.37 1.433-.37 2.075 0l17.443 10.071c.642.371 1.038 1.056 1.038 1.797v40.904l4.547-2.626c1.765-1.018 2.851-2.901 2.851-4.938v-34.729c0-2.525-1.347-4.858-3.534-6.121" transform="matrix(1.1431 0 0 1.1431 262.168299 3180.044534)"/><path d="m39.542 158.978h-2.699v-12.235h2.699v2.803c.628-2.174 1.834-3.066 3.354-3.066.864 0 1.78.21 2.174.472l-.445 2.489c-.682-.34-1.284-.419-1.808-.419-2.306 0-3.275 2.305-3.275 5.555z" transform="matrix(1.63978789 0 0 1.63978789 231.631089 3097.279487)"/><path d="m72.411 152.821c0-2.253-1.677-3.694-3.72-3.694-2.018 0-3.694 1.441-3.694 3.694 0 2.306 1.676 3.799 3.694 3.799 2.043 0 3.72-1.493 3.72-3.799m-10.087 0c0-3.878 2.908-6.34 6.367-6.34 3.484 0 6.419 2.462 6.419 6.34 0 3.877-2.935 6.419-6.419 6.419-3.459 0-6.367-2.542-6.367-6.419" transform="matrix(1.63978789 0 0 1.63978789 220.770501 3097.279487)"/><path d="m98.836 156.62c2.043 0 3.694-1.546 3.694-3.799s-1.651-3.72-3.694-3.72c-1.834 0-3.747 1.31-3.747 3.72 0 2.384 1.756 3.799 3.747 3.799m-6.472 2.358v-18.89h2.699v8.41c.76-1.336 2.384-2.018 4.114-2.018 3.327 0 6.104 2.463 6.104 6.394 0 3.851-2.83 6.366-6.131 6.366-1.65 0-3.327-.734-4.087-2.044v1.782z" transform="matrix(1.63978789 0 0 1.63978789 209.899857 3097.279487)"/><path d="m132.623 152.821c0-2.253-1.677-3.694-3.72-3.694-2.018 0-3.695 1.441-3.695 3.694 0 2.306 1.677 3.799 3.695 3.799 2.043 0 3.72-1.493 3.72-3.799m-10.087 0c0-3.878 2.908-6.34 6.367-6.34 3.484 0 6.419 2.462 6.419 6.34 0 3.877-2.935 6.419-6.419 6.419-3.459 0-6.367-2.542-6.367-6.419" transform="matrix(1.63978789 0 0 1.63978789 199.039269 3097.279487)"/><path d="m157.475 146.742h2.594v2.227h-2.594v10.008h-2.699v-10.008h-2.2v-2.227h2.2v-4.638h2.699z" transform="matrix(1.63978789 0 0 1.63978789 188.178681 3097.279487)"/><path d="m180.468 146.742h-2.672v12.235h2.672zm-1.336-6.654c.995 0 1.781.733 1.781 1.703 0 .969-.786 1.703-1.781 1.703-.97 0-1.808-.734-1.808-1.703 0-.97.838-1.703 1.808-1.703" transform="matrix(1.63978789 0 0 1.63978789 177.318093 3097.279487)"/><path d="m204.691 146.48c1.939 0 3.694.76 4.847 2.122l-2.096 1.677c-.655-.759-1.676-1.179-2.751-1.179-2.043 0-3.851 1.441-3.851 3.72 0 2.28 1.808 3.826 3.851 3.826 1.075 0 2.096-.446 2.751-1.205l2.123 1.65c-1.153 1.363-2.909 2.149-4.874 2.149-3.51 0-6.523-2.542-6.523-6.42 0-3.877 3.013-6.34 6.523-6.34" transform="matrix(1.63978789 0 0 1.63978789 166.457505 3097.279487)"/><path d="m227.16 149.703c.157-1.808 2.122-3.223 4.375-3.223 2.175 0 4.297.996 4.454 3.616h-2.567c-.105-.917-.943-1.31-1.782-1.31-.681 0-1.467.262-1.729.681-.21.34-.236.734-.105 1.101.158.471.839.759 1.494.942l1.886.472c2.646.655 3.196 2.332 3.196 3.564 0 2.358-2.069 3.694-4.873 3.694-2.279 0-4.637-1.441-4.69-4.009h2.489c.132 1.048.996 1.755 2.411 1.755 1.231 0 2.174-.55 2.174-1.467 0-.786-.812-1.231-1.703-1.441l-1.65-.393c-2.594-.707-3.537-2.017-3.38-3.982" transform="matrix(1.63978789 0 0 1.63978789 155.596917 3097.279487)"/></g><g transform="translate(46.21512 3189.95966)"><path d="m36.382 147.406 60.776 76.969 60.775-76.969z" fill="#6080be"/><path d="m0 168.282 97.158 56.093-60.776-76.969z" fill="#f1887f"/><path d="m97.158 224.375 97.157-56.093-36.382-20.876z" fill="#396581"/><path d="m157.933 147.406 36.382 20.876v-112.188z" fill="#fdd689"/><path d="m0 168.282 36.382-20.876-36.382-91.312z" fill="#396581"/><path d="m97.158 0-97.158 56.094 97.158-13.545z" fill="#6080be"/><path d="m97.158 0v42.549l97.157 13.545z" fill="#396581"/><path d="m0 56.094 36.382 91.312 60.776-104.857z" fill="#fdd689"/><path d="m157.933 147.406 36.382-91.312-97.157-13.545z" fill="#f1887f"/><path d="m157.933 147.406h-121.551l60.776-104.858z" fill="#77bbb9"/></g></g></g></g></g></svg>