<svg xmlns="http://www.w3.org/2000/svg" viewBox="0 0 200 51.43"><defs><style>.cls-1{fill:#000}</style></defs><path d="M25.72 0a25.72 25.72 0 1 0 25.71 25.72A25.75 25.75 0 0 0 25.72 0zm8 27.22H17.78c-2.56 0-4.5 1.57-4.5 3.65s2 3.68 4.5 3.68h6.44v-4.26h3v7.26h-9.47c-4.29 0-7.66-2.93-7.66-6.68s3.36-6.65 7.66-6.65h15.9c2.56 0 4.5-1.57 4.5-3.65s-2-3.68-4.5-3.68h-6.44v4.26h-3v-7.26h9.49c4.29 0 7.66 2.93 7.66 6.68s-3.36 6.65-7.68 6.65z"/><path class="cls-1" d="M64.92 14.63h9.19a11.6 11.6 0 0 1 3.68.55 7.84 7.84 0 0 1 2.8 1.58 7 7 0 0 1 1.77 2.47 8 8 0 0 1 .62 3.2v.07a7.67 7.67 0 0 1-.73 3.45 7.16 7.16 0 0 1-2 2.48 9 9 0 0 1-3 1.52 12.47 12.47 0 0 1-3.64.52H69v7.5h-4.08zm8.84 12.13a5.46 5.46 0 0 0 3.69-1.17 3.8 3.8 0 0 0 1.35-3v-.09a3.7 3.7 0 0 0-1.37-3.13 5.88 5.88 0 0 0-3.68-1.05H69v8.43zm19.58 11.58a9.54 9.54 0 0 1-3.71-.72 9.21 9.21 0 0 1-3-1.95 8.82 8.82 0 0 1-1.95-2.9 9 9 0 0 1-.7-3.53v-.07a8.92 8.92 0 0 1 .72-3.56 9.18 9.18 0 0 1 4.93-4.9A9.45 9.45 0 0 1 93.4 20a9.64 9.64 0 0 1 3.75.72 9 9 0 0 1 4.91 4.86 9 9 0 0 1 .7 3.55v.07a8.84 8.84 0 0 1-.72 3.53 9.14 9.14 0 0 1-4.95 4.9 9.58 9.58 0 0 1-3.75.71zm.07-3.5a5.2 5.2 0 0 0 2.2-.45 5.11 5.11 0 0 0 1.67-1.22 5.26 5.26 0 0 0 1.06-1.78 6.33 6.33 0 0 0 .36-2.15v-.07a6.08 6.08 0 0 0-.4-2.2 5.53 5.53 0 0 0-1.11-1.8A5.31 5.31 0 0 0 95.51 24a5.46 5.46 0 0 0-4.34 0 5.25 5.25 0 0 0-1.67 1.2 5.06 5.06 0 0 0-1.06 1.8 6.47 6.47 0 0 0-.36 2.17v.07a5.94 5.94 0 0 0 .4 2.18 5.75 5.75 0 0 0 1.11 1.8 5.19 5.19 0 0 0 1.69 1.23 5 5 0 0 0 2.12.4zm17.85 3.44a11.74 11.74 0 0 1-3.85-.67 12.26 12.26 0 0 1-3.61-2l1.8-2.74a11.72 11.72 0 0 0 2.91 1.62 8.18 8.18 0 0 0 2.85.55 3.41 3.41 0 0 0 2-.52 1.62 1.62 0 0 0 .72-1.38v-.07a1.28 1.28 0 0 0-.32-.86 2.66 2.66 0 0 0-.87-.63 10 10 0 0 0-1.27-.5l-1.48-.47q-1-.27-1.95-.63a7.07 7.07 0 0 1-1.77-.95 4.74 4.74 0 0 1-1.28-1.45 4.19 4.19 0 0 1-.5-2.13v-.07a5 5 0 0 1 .48-2.23 5 5 0 0 1 1.33-1.7 6 6 0 0 1 2-1.06 8 8 0 0 1 2.45-.37 11.09 11.09 0 0 1 3.36.54 12 12 0 0 1 3.1 1.48L115.79 25a13.47 13.47 0 0 0-2.57-1.22 7.36 7.36 0 0 0-2.4-.45 2.92 2.92 0 0 0-1.82.5 1.53 1.53 0 0 0-.65 1.26v.07a1.14 1.14 0 0 0 .33.81 3.27 3.27 0 0 0 .88.63 9.7 9.7 0 0 0 1.27.53q.72.25 1.48.48 1 .3 1.93.7a8.09 8.09 0 0 1 1.75 1 4.87 4.87 0 0 1 1.28 1.41 3.87 3.87 0 0 1 .5 2v.07a5.51 5.51 0 0 1-.5 2.43 4.74 4.74 0 0 1-1.38 1.71 6.21 6.21 0 0 1-2.08 1 9.14 9.14 0 0 1-2.55.35zm15.59-.04a7.47 7.47 0 0 1-2-.27 4.18 4.18 0 0 1-1.63-.87 3.84 3.84 0 0 1-1.06-1.58 7 7 0 0 1-.37-2.45v-9.25h-2.23v-3.46h2.23v-4.83h4.06v4.83h4.73v3.46h-4.73v8.63a2.18 2.18 0 0 0 .57 1.68 2.29 2.29 0 0 0 1.6.52 5.52 5.52 0 0 0 2.5-.6v3.3a7 7 0 0 1-1.63.67 7.71 7.71 0 0 1-2.04.22zm6.83-24.61h4.06v24.31h-4.06zm7.89.2h4.36v3.83h-4.36zm.17 6.53h4.06v17.58h-4.06zm15.89 22.98a15 15 0 0 1-7.86-2.08l1.5-3a13.55 13.55 0 0 0 2.93 1.37 10.69 10.69 0 0 0 3.33.5 5.74 5.74 0 0 0 4.13-1.37 5.35 5.35 0 0 0 1.43-4.05v-1.4a9.44 9.44 0 0 1-2.57 2.33 6.82 6.82 0 0 1-3.63.9 8.08 8.08 0 0 1-3-.57 8 8 0 0 1-2.55-1.62 7.7 7.7 0 0 1-1.78-2.58 8.6 8.6 0 0 1-.67-3.46v-.07a8.72 8.72 0 0 1 .67-3.48 7.67 7.67 0 0 1 1.78-2.6 7.92 7.92 0 0 1 2.57-1.62 8.13 8.13 0 0 1 3-.57 7 7 0 0 1 3.68.88 10 10 0 0 1 2.47 2.15v-2.64h4v14q0 4.4-2.23 6.63a7.36 7.36 0 0 1-3 1.78 13.82 13.82 0 0 1-4.2.57zm.37-10.19a5.68 5.68 0 0 0 2-.35 4.86 4.86 0 0 0 1.65-1 5 5 0 0 0 1.12-1.53 4.51 4.51 0 0 0 .42-1.95v-.07a4.59 4.59 0 0 0-.42-2 5 5 0 0 0-1.12-1.53 4.86 4.86 0 0 0-1.65-1 5.68 5.68 0 0 0-2-.35 5.37 5.37 0 0 0-2 .35 4.92 4.92 0 0 0-1.58 1 4.46 4.46 0 0 0-1.07 1.52 4.93 4.93 0 0 0-.38 2v.07a4.75 4.75 0 0 0 .4 2 5 5 0 0 0 1.07 1.53 4.57 4.57 0 0 0 1.58 1 5.41 5.41 0 0 0 1.98.31zm12.85-19.52h4.06v9.49a9.85 9.85 0 0 1 .95-1.19 6.15 6.15 0 0 1 1.2-1 6.07 6.07 0 0 1 1.49-.69 6.22 6.22 0 0 1 1.85-.24 5.86 5.86 0 0 1 4.6 1.82 7.16 7.16 0 0 1 1.63 4.93v11.19h-4.06V28a4.67 4.67 0 0 0-1-3.17 3.47 3.47 0 0 0-2.76-1.11 3.74 3.74 0 0 0-2.81 1.11 4.47 4.47 0 0 0-1.08 3.17v9.9h-4.06zm25.45 24.61a7.47 7.47 0 0 1-2-.27 4.18 4.18 0 0 1-1.63-.87 3.84 3.84 0 0 1-1.06-1.58 7 7 0 0 1-.37-2.45v-9.25H189v-3.46h2.23v-4.83h4.06v4.83H200v3.46h-4.73v8.63a2.18 2.18 0 0 0 .57 1.68 2.29 2.29 0 0 0 1.6.52 5.52 5.52 0 0 0 2.5-.6v3.3a7 7 0 0 1-1.63.67 7.71 7.71 0 0 1-2.01.22z"/></svg>