<?xml version="1.0" encoding="utf-8"?>
<!-- Generator: Adobe Illustrator 13.0.1, SVG Export Plug-In . SVG Version: 6.00 Build 14948)  -->
<!DOCTYPE svg PUBLIC "-//W3C//DTD SVG 1.1//EN" "http://www.w3.org/Graphics/SVG/1.1/DTD/svg11.dtd">
<svg version="1.1" id="Layer_1" xmlns="http://www.w3.org/2000/svg" xmlns:xlink="http://www.w3.org/1999/xlink" x="0px" y="0px"
	 width="807.53px" height="383.371px" viewBox="0 0 807.53 383.371" enable-background="new 0 0 807.53 383.371"
	 xml:space="preserve">
<g>
	<path fill="#415968" d="M202.828,269.985c-9.751-0.203-28.393-0.423-38.564-0.423c-3.905,0-14.737,0.65-25.351,1.081
		c-10.613,0.657-21.011,1.3-24.701,1.3c-58.495,0-68.892-54.398-68.892-79.51c0-42.681,22.307-82.541,75.389-82.541
		c40.523,0,70.64,27.508,70.64,78.852c0,35.529-16.253,51.351-23.627,58.283c7.155-1.3,21.661-2.161,35.106-1.52V269.985z
		 M118.329,247.686c32.937,0,38.999-34.229,38.999-59.38c0-22.307-4.981-32.921-9.755-40.064
		c-3.893-6.071-12.995-14.522-28.163-14.522c-29.458,0-39.43,28.159-39.43,56.764C79.98,212.587,86.485,247.686,118.329,247.686"/>
	<rect x="220.346" y="181.609" fill="#415968" width="51.712" height="12.509"/>
	<path fill="#415968" d="M387.042,151.218c-2.498-18.344-18.353-25.855-35.442-25.855c-38.584,0-50.255,35.021-50.255,65.881
		c0,30.869,11.67,65.897,50.255,65.897c16.675,0,33.359-8.335,37.104-27.109h14.604c-4.379,25.236-27.528,39.625-51.707,39.625
		c-45.669,0-64.855-36.704-64.855-78.413c0-41.271,19.401-78.382,64.855-78.382c24.591,0,47.955,11.249,50.031,38.357H387.042z"/>
	<polygon fill="#415968" points="414.903,266.523 414.903,115.987 504.345,115.987 504.345,128.495 428.452,128.495 
		428.452,182.494 501.431,182.494 501.431,195.011 428.452,195.011 428.452,254.015 507.478,254.015 507.478,266.523 	"/>
	<path fill="#415968" d="M536.804,266.523h-13.568V115.987h49.215c13.127,0,23.967,0.822,35.441,7.918
		c10.436,6.243,15.432,17.099,15.432,31.479c0,16.269-11.459,27.947-28.98,32.326v0.415c19.182,3.117,23.357,16.049,25.221,33.563
		c2.725,24.391,1.879,35.655,7.926,44.834h-15.625c-3.549-10.002-4.395-20.646-5.225-31.275
		c-3.125-34.402-5.219-40.449-32.529-40.449h-37.307V266.523z M565.769,182.283c19.191,0,42.955-1.246,42.955-26.898
		c0-28.973-27.102-26.89-41.482-26.89h-30.438v53.788H565.769z"/>
	<polygon fill="#415968" points="683.509,128.495 634.915,128.495 634.915,115.987 745.011,115.987 745.011,128.495 
		697.263,128.495 697.06,266.523 683.728,266.523 	"/>
	<path fill="#FCB034" d="M24.81,108.295c0,0-63.578,202.412,115.493,212.799c46.499,3.877,79.103,1.292,79.103,1.292l-0.646-26.317
		l38.431,44.012l-38.431,43.291v-20.764c0,0-58.761,1.605-77.172-1.3C-6.983,347.278-24.739,210.621,24.81,108.295"/>
	<path fill="#FCB034" d="M782.718,275.068c0,0,63.58-202.413-115.477-212.791c-46.52-3.861-79.109-1.292-79.109-1.292l0.641,26.326
		l-38.434-44.02L588.772,0v20.756c0,0,58.768-1.606,77.16,1.3C814.519,36.093,832.269,172.734,782.718,275.068"/>
</g>
</svg>