<svg enable-background="new 0 0 807.53 383.371" height="383.371" viewBox="0 0 807.53 383.371" width="807.53" xmlns="http://www.w3.org/2000/svg"><g fill="#415968"><path d="m202.828 269.985c-9.751-.203-28.393-.423-38.564-.423-3.905 0-14.737.65-25.351 1.081-10.613.657-21.011 1.3-24.701 1.3-58.495 0-68.892-54.398-68.892-79.51 0-42.681 22.307-82.541 75.389-82.541 40.523 0 70.64 27.508 70.64 78.852 0 35.529-16.253 51.351-23.627 58.283 7.155-1.3 21.661-2.161 35.106-1.52zm-84.499-22.299c32.937 0 38.999-34.229 38.999-59.38 0-22.307-4.981-32.921-9.755-40.064-3.893-6.071-12.995-14.522-28.163-14.522-29.458 0-39.43 28.159-39.43 56.764 0 22.103 6.505 57.202 38.349 57.202"/><path d="m220.346 181.609h51.712v12.509h-51.712z"/><path d="m387.042 151.218c-2.498-18.344-18.353-25.855-35.442-25.855-38.584 0-50.255 35.021-50.255 65.881 0 30.869 11.67 65.897 50.255 65.897 16.675 0 33.359-8.335 37.104-27.109h14.604c-4.379 25.236-27.528 39.625-51.707 39.625-45.669 0-64.855-36.704-64.855-78.413 0-41.271 19.401-78.382 64.855-78.382 24.591 0 47.955 11.249 50.031 38.357h-14.59z"/><path d="m414.903 266.523v-150.536h89.442v12.508h-75.893v53.999h72.979v12.517h-72.979v59.004h79.026v12.508z"/><path d="m536.804 266.523h-13.568v-150.536h49.215c13.127 0 23.967.822 35.441 7.918 10.436 6.243 15.432 17.099 15.432 31.479 0 16.269-11.459 27.947-28.98 32.326v.415c19.182 3.117 23.357 16.049 25.221 33.563 2.725 24.391 1.879 35.655 7.926 44.834h-15.625c-3.549-10.002-4.395-20.646-5.225-31.275-3.125-34.402-5.219-40.449-32.529-40.449h-37.307v71.725zm28.965-84.24c19.191 0 42.955-1.246 42.955-26.898 0-28.973-27.102-26.89-41.482-26.89h-30.438v53.788z"/><path d="m683.509 128.495h-48.594v-12.508h110.096v12.508h-47.748l-.203 138.028h-13.332z"/></g><g fill="#fcb034"><path d="m24.81 108.295s-63.578 202.412 115.493 212.799c46.499 3.877 79.103 1.292 79.103 1.292l-.646-26.317 38.431 44.012-38.431 43.291v-20.764s-58.761 1.605-77.172-1.3c-148.571-14.03-166.327-150.687-116.778-253.013"/><path d="m782.718 275.068s63.58-202.413-115.477-212.791c-46.52-3.861-79.109-1.292-79.109-1.292l.641 26.326-38.434-44.02 38.433-43.291v20.756s58.768-1.606 77.16 1.3c148.587 14.037 166.337 150.678 116.786 253.012"/></g></svg>