<svg height="216" viewBox="0 0 545 216" width="545" xmlns="http://www.w3.org/2000/svg"><g fill="none" transform="translate(60 60)"><path d="m26.9496855 55.8993711c-.8459988.5527989-1.3784282 1.4752095-1.4339622 2.4842767v23.1194969c.055534 1.0090671.5879634 1.9314778 1.4339622 2.4842767l20.018868 11.5597484c.9017949.4551685 1.9661295.4551685 2.8679245 0l20.0188679-11.5597484c.8459988-.5527989 1.3784282-1.4752096 1.4339623-2.4842767v-23.1257862c-.0555341-1.0090672-.5879635-1.9314778-1.4339623-2.4842767l-20.0188679-11.5534592c-.901795-.4551685-1.9661296-.4551685-2.8679245 0zm25.1069183-43.4905661c-.8442754.551507-1.3764735 1.4711826-1.4339623 2.4779875v23.1257861c.055534 1.0090672.5879635 1.9314778 1.4339623 2.4842767l20.0188679 11.5534592c.9015543.4561785 1.9663703.4561785 2.8679245 0l20.0251573-11.5597485c.8459988-.5527989 1.3784282-1.4752095 1.4339622-2.4842767v-23.1132075c-.055534-1.0090672-.5879634-1.9314778-1.4339622-2.4842768l-20.0251573-11.5597484c-.9015542-.45617853-1.9663702-.45617853-2.8679245 0z" fill="#2a3e54"/><path d="m77.1006289 55.8616352c-.8459988.5527989-1.3784282 1.4752096-1.4339622 2.4842767v23.1194969c.055534 1.0090672.5879634 1.9314778 1.4339622 2.4842767l20.018868 11.5597485c.9017949.4551685 1.9661295.4551685 2.8679245 0l20.0188676-11.5597485c.845999-.5527989 1.378429-1.4752095 1.433963-2.4842767v-23.1194969c-.055534-1.0090671-.587964-1.9314778-1.433963-2.4842767l-20.006289-11.5597484c-.901795-.4551685-1.9661296-.4551685-2.8679245 0zm-75.58490563-43.6352201c-.8442754.551507-1.37647349 1.4711826-1.43396226 2.4779874v23.1194969c.05553404 1.0090672.58796346 1.9314778 1.43396226 2.4842767l20.01886793 11.5534591c.9015542.4561786 1.9663703.4561786 2.8679245 0l20.0188679-11.5597484c.8459989-.5527989 1.3784283-1.4752095 1.4339623-2.4842767v-23.1132076c-.0574888-1.0068048-.5896868-1.9264804-1.4339623-2.4779874l-20.0188679-11.55974843c-.9017949-.45516853-1.9661295-.45516853-2.8679245 0z" fill="#fdc116"/><path d="m0 4.4134918c2.3784748-.40093885 5.1731827-.73584071 8.38412368-1.00470558 3.21094102-.26886487 6.64545862-.40329731 10.30355282-.40329731 4.0737895-.05697652 8.1415723.3297706 12.1302215 1.1532888 3.1787914.65072593 6.155545 2.0429042 8.6838115 4.06127464 4.0386502 3.33958475 6.0579754 8.08481385 6.0579754 14.23568745.0174459 1.9629085-.3084754 3.9139533-.9632823 5.766444-.6097432 1.7135063-1.4600932 3.3332044-2.5259403 4.8112661-1.0251824 1.4183448-2.2674402 2.6692488-3.681879 3.7075051-1.3663927 1.0087708-2.8610916 1.8342873-4.4453694 2.4551608v.3042418c2.3268234.9080564 4.2944797 2.5389391 5.6084436 4.6485321 1.5272891 2.5250985 2.6355106 5.2771202 3.2822952 8.1508509.475695 1.886771.9513899 3.7876929 1.4270849 5.7027654.475695 1.9150726.9299837 3.7310898 1.3628661 5.4480514.4376393 1.6980939.8586294 3.2145862 1.2629701 4.5494767.2881658 1.0283358.6604422 2.0316511 1.1131262 2.9999659h-15.1699123c-.8399133-1.7766549-1.481164-3.6391422-1.9122937-5.5541822-.7373272-2.7688365-1.5412517-6.1909675-2.4117735-10.2663929-.8039245-4.2074994-1.9598632-7.037656-3.4678162-8.4904697-1.5079531-1.4528137-3.6652297-2.1980882-6.47183-2.2358236h-3.8388583v26.539793h-14.727516zm14.727516 29.4265527h4.9163074c3.5439275 0 6.2863089-.9221593 8.2271443-2.766478 1.9698356-1.9121261 3.0280871-4.5637874 2.9112532-7.2947285 0-6.3772861-3.44641-9.6319661-10.33923-9.7640401-1.191062-.0138185-2.3820133.0357806-3.5677122.1485832-.7205268.0717493-1.4355804.1899222-2.1406273.3537696zm55.6211182 38.1583901c-3.202898.0358078-6.3829044-.5430154-9.3674299-1.7050549-2.7852822-1.097036-5.2980582-2.7870068-7.3636637-4.9524417-2.1475775-2.2926475-3.8008224-5.0017555-4.8571859-7.9592814-1.2154926-3.4041315-1.8102216-6.9984733-1.7559506-10.6123751-.0629236-3.7018091.5488817-7.3841588 1.8055137-10.8670722 1.0979469-3.004413 2.8045139-5.7501292 5.0129557-8.0654051 2.1427122-2.2164091 4.7356709-3.9485232 7.6043989-5.0797902 3.0662832-1.1920593 6.3323065-1.787601 9.6223259-1.7545793 3.2292495-.0462795 6.4338712.5676607 9.416993 1.8041037 2.7470519 1.1601026 5.2088845 2.9030419 7.2149744 5.1080899 2.0700097 2.3150986 3.6542373 5.0215792 4.6589334 7.9592814 1.1335971 3.3024005 1.6916104 6.7746964 1.6497438 10.2657042.1036148 4.073908-.6189315 8.1266343-2.1241337 11.9141598-1.2336784 3.0246217-3.0941306 5.7540476-5.4590238 8.0088058-2.1690817 2.0289304-4.7508608 3.5661699-7.5689966 4.5067219-2.7112221.9232703-5.5543363 1.4011331-8.4186502 1.4149834zm.4035854-10.6123751c1.2746174.0133439 2.5183719-.3918035 3.5402229-1.1532114 1.1050286-.8524525 1.9969661-1.9495509 2.6056041-3.2049373.7496099-1.5043842 1.2903482-3.10391 1.6072612-4.7543441.3780485-1.9128391.5630667-3.8587541.5522748-5.8085066-.0005053-1.7947749-.1520892-3.5863274-.4531485-5.355712-.262685-1.6439461-.7511213-3.2438138-1.4514914-4.7543441-.6027665-1.314865-1.4931829-2.4777884-2.6056041-3.4030349-1.1083794-.880938-2.4927268-1.3420268-3.9084062-1.3017847-1.4764023-.0395855-2.9230966.4190074-4.1066586 1.3017847-1.1484357.9027226-2.0637507 2.0672003-2.6693281 3.39596-.7007937 1.5103685-1.1892482 3.110296-1.4514914 4.7543441-.3010926 1.7693804-.4526766 3.5609356-.4531485 5.3557119-.0146632 1.9827096.1703603 3.9618626.5522748 5.9075555.3089927 1.642518.8652176 3.2287871 1.6497439 4.7048197.6524204 1.241802 1.5769777 2.3204159 2.7047303 3.1554129 1.1139626.7809511 2.448863 1.1850754 3.8092799 1.1532114zm70.8575704-5.9640018c0 3.0705278.032518 5.9005072.097553 8.4899385.065035 2.5894312.162587 4.9477474.292657 7.0749487h-12.458839l-.696803-6.4099036h-.292657c-.592215.8856087-1.25153 1.7229898-1.971953 2.5045319-.84962.9198222-1.809391 1.7279428-2.856892 2.4054826-1.225405.7850489-2.552888 1.3922968-3.943905 1.8041119-1.665922.4906217-3.394016.7290198-5.128471.7074948-4.79865 0-8.612485-1.6696879-11.441506-5.0090636-2.82902-3.3393758-4.2319171-8.6668122-4.2086903-15.9823092l-.0002837-29.0072897h14.403203v26.8140556c0 3.542191.524925 6.2967044 1.574775 8.2635401.982204 1.9288348 2.994085 3.0862089 5.12847 2.9502536 1.553205.0823186 3.076424-.4560677 4.243531-1.4998891.974973-.8903915 1.749719-1.9834745 2.271578-3.2049518.443392-1.1228464.645329-2.3289383.592282-3.5374743v-29.7855341h14.395951zm25.612331-45.4220577v12.9151034h10.777879v10.4491128h-10.777879v18.8084029c0 2.95826.461771 5.0480825 1.385313 6.2694677s2.412814 1.8297558 4.467815 1.8251117c.770113.0093286 1.540158-.0232318 2.306437-.097525.580236-.0650167 1.247507-.1625418 2.001814-.2925752l.101541 10.9437041c-1.28703.3984306-2.610614.6783351-3.952856.835929-1.853373.2395296-3.721988.3535902-5.592022.3413377-2.204054.0313931-4.395856-.3202454-6.469628-1.0379452-1.763369-.5935788-3.373529-1.5437934-4.721668-2.7864301-1.52576-1.5263704-2.636733-3.3900869-3.234814-5.4265725-.798061-2.8273227-1.162129-5.7513939-1.080689-8.6797297v-20.7031754h-6.433364v-10.4491128h6.469628v-8.8747798zm21.617211 6.9692747c-2.121226.0880943-4.184403-.6813862-5.692581-2.1230989-1.432823-1.4144117-2.206316-3.3310336-2.142053-5.30774744-.073729-2.01844182.723086-3.97607356 2.20074-5.40682537 1.571484-1.45439636 3.693356-2.22202647 5.868639-2.12309897 2.121078-.08722692 4.183908.68212394 5.692581 2.12309897 1.446979 1.46346018 2.246785 3.41273925 2.230083 5.43513336.060981 1.98709025-.736059 3.90939185-2.20074 5.30774745-1.571954 1.4536761-3.693494 2.2211858-5.86864 2.1230989zm-7.416494 6.0437551h15.265799v48.9869702h-15.265799zm110.305707 47.957095c-1.60265.6742691-3.281839 1.1517737-5.000486 1.4219688-2.357651.4180979-4.748823.6203885-7.143552.6043367-3.464771.0548821-6.91025-.5234828-10.165273-1.7063625-2.902421-1.0776859-5.540085-2.7599581-7.736467-4.9342314-2.205097-2.2164808-3.897081-4.8856452-4.957625-7.820828-1.193534-3.3591861-1.776499-6.9030703-1.721595-10.4656898-.032826-3.5002519.567264-6.977836 1.7716-10.2666141 2.288478-6.3181129 7.20804-11.3440625 13.494169-13.7859867 3.606912-1.3967444 7.452831-2.0801889 11.322529-2.0120858 1.897436-.0042027 3.791263.1647711 5.657693.5047989 1.622431.2814255 3.213439.7195672 4.750462 1.3082113l-2.19307 10.9278296c-.98414-.3870041-1.999882-.6890993-3.03601-.9029502-1.464702-.2927235-2.956677-.4285842-4.450432-.4052611-3.843231 0-6.860191 1.3082113-9.05088 3.9246337s-3.286034 5.9722686-3.286034 10.0675385c0 4.4934212 1.190592 7.9488052 3.571776 10.366152 2.321261 2.4026562 5.553165 3.719264 8.900865 3.6260202 2.634399.0728593 5.25432-.4118169 7.686462-1.4219687zm-69.779882-49.9247973c-.069418-2.4137485.726165-4.7717871 2.240724-6.6413151 1.493817-1.8108368 4.171413-2.7162552 8.032787-2.7162552 1.066468-.0017326 2.132174.057618 3.191976.1777654v-11.68274167c-1.190825-.11376985-2.388697-.1777654-3.593615-.1777654-3.571776-.06382443-7.128561.48189499-10.520132 1.61410978-2.790798.93667058-5.368375 2.42577809-7.581824 4.3801393-1.994759 1.79816198-3.576997 4.01361529-4.636468 6.49199219-1.077755 2.542981-1.622345 5.2835205-1.599511 8.049217v2.2469546h-6.4826v10.6659236h6.4826v38.546648h14.564711v-38.546648h13.387978v38.546648h14.564711v-49.2125716h-28.051337z" fill="#2a3e54" transform="translate(132 12)"/></g></svg>