<svg enable-background="new 0 0 166.7 43.7" viewBox="0 0 166.7 43.7" xmlns="http://www.w3.org/2000/svg" xmlns:xlink="http://www.w3.org/1999/xlink"><filter id="a" filterUnits="userSpaceOnUse" height="36.1" width="35" x="6.4" y="2.2"><feColorMatrix values="1 0 0 0 0 0 1 0 0 0 0 0 1 0 0 0 0 0 1 0"/></filter><mask id="b" height="36.1" maskUnits="userSpaceOnUse" width="35" x="6.4" y="2.2"><g filter="url(#a)"><path d="m4.7-.8h37.7v41.1h-37.7z" fill="url(#c)"/></g></mask><linearGradient id="c" gradientTransform="matrix(-1 0 0 -1 5744.112 5775.334)" gradientUnits="userSpaceOnUse" x1="5700.899" x2="5740.288" y1="5775.309" y2="5735.92"><stop offset="0"/><stop offset=".003" stop-color="#010101"/><stop offset=".124" stop-color="#3c3c3c"/><stop offset=".248" stop-color="#707070"/><stop offset=".372" stop-color="#9c9c9c"/><stop offset=".496" stop-color="#c0c0c0"/><stop offset=".621" stop-color="#dbdbdb"/><stop offset=".746" stop-color="#efefef"/><stop offset=".872" stop-color="#fbfbfb"/><stop offset="1" stop-color="#fff"/></linearGradient><switch><g fill="#303030"><path d="m46.6 30.9c1 1 2.3 1.7 3.8 1.7 1.8 0 2.9-.9 2.9-2.2 0-1.4-1-1.8-2.3-2.4l-2-.9c-1.3-.5-2.8-1.5-2.8-3.5 0-2.1 1.8-3.6 4.3-3.6 1.6 0 3.1.7 4 1.7l-.9 1.1c-.8-.8-1.9-1.3-3.1-1.3-1.5 0-2.6.8-2.6 2 0 1.3 1.2 1.8 2.3 2.3l2 .8c1.6.7 2.8 1.6 2.8 3.6 0 2.2-1.8 3.9-4.7 3.9-1.9 0-3.6-.8-4.8-2zm16.6-3.4c0-1.3-.4-2.5-2.1-2.5-1.2 0-2.2.5-3 1.1l-.7-1.2c.9-.6 2.4-1.3 4-1.3 2.5 0 3.5 1.6 3.5 4.2v6.2h-1.4l-.1-1.2c-1 .8-2.1 1.5-3.4 1.5-1.7 0-3-1.1-3-2.9-.1-2.3 1.8-3.4 6.2-3.9zm-2.8 5.3c1 0 1.8-.5 2.8-1.4v-2.8c-3.4.4-4.5 1.2-4.5 2.5-.1 1.2.7 1.7 1.7 1.7zm7.7-9h1.4l.1 1.5h.1c1-1 2-1.7 3.4-1.7 2.1 0 3.1 1.4 3.1 4v6.4h-1.7v-6.2c0-1.9-.6-2.7-1.9-2.7-1 0-1.7.5-2.8 1.6v7.3h-1.7zm15-.3c1.2 0 1.9.4 2.8 1.2v-5.6h1.7v14.8h-1.4l-.1-1.2h-.1c-.8.8-1.9 1.4-3.1 1.4-2.5 0-4.2-1.9-4.2-5.3.1-3.2 2.1-5.3 4.4-5.3zm.2 9.2c.9 0 1.7-.5 2.6-1.4v-5.3c-.9-.7-1.6-1-2.5-1-1.6 0-2.9 1.6-2.9 3.9s1 3.8 2.8 3.8zm7.5-1.1c.9.7 1.8 1.2 3 1.2 1.3 0 2-.7 2-1.6 0-1-1.2-1.5-2.3-1.9-1.4-.5-3-1.2-3-2.9 0-1.6 1.3-2.9 3.5-2.9 1.3 0 2.4.5 3.1 1.1l-.8 1.1c-.7-.5-1.4-.9-2.3-.9-1.3 0-1.9.7-1.9 1.5 0 .9 1.1 1.3 2.2 1.7 1.5.5 3.1 1.1 3.1 3.1 0 1.6-1.3 3-3.7 3-1.4 0-2.8-.6-3.8-1.4zm9.3-6.4h-1.5v-1.3l1.6-.1.2-2.8h1.4v2.8h2.7v1.4h-2.7v5.6c0 1.2.4 2 1.6 2 .4 0 .8-.1 1.1-.3l.3 1.3c-.6.2-1.2.4-1.9.4-2.2 0-2.9-1.4-2.9-3.4v-5.6zm10.4-1.7c2.5 0 4.7 1.9 4.7 5.3s-2.2 5.3-4.7 5.3-4.7-1.9-4.7-5.3c0-3.3 2.2-5.3 4.7-5.3zm0 9.2c1.7 0 2.9-1.6 2.9-3.9s-1.2-3.9-2.9-3.9-2.9 1.6-2.9 3.9c0 2.4 1.2 3.9 2.9 3.9zm7.4-8.9h1.4l.1 1.8h.1c.7-1.3 1.7-2.1 2.9-2.1.4 0 .7.1 1.1.2l-.3 1.5c-.3-.1-.6-.2-1-.2-.9 0-1.9.6-2.6 2.3v6.5h-1.7zm7.2 0h1.4l.1 1.5h.1c.9-1 1.9-1.7 3.1-1.7 1.5 0 2.4.7 2.8 1.9 1.1-1.1 2.1-1.9 3.3-1.9 2.1 0 3.1 1.4 3.1 4v6.4h-1.7v-6.2c0-1.9-.6-2.7-1.9-2.7-.8 0-1.6.5-2.5 1.6v7.3h-1.7v-6.2c0-1.9-.6-2.7-1.9-2.7-.7 0-1.6.5-2.5 1.6v7.3h-1.7zm18.2 7.7c.7 0 1.2.5 1.2 1.3 0 .7-.6 1.3-1.2 1.3-.7 0-1.2-.5-1.2-1.3-.1-.7.5-1.3 1.2-1.3zm3.9-10.9c0-.7.5-1.1 1.2-1.1s1.2.4 1.2 1.1c0 .6-.5 1.1-1.2 1.1s-1.2-.5-1.2-1.1zm.3 3.2h1.7v10.1h-1.7zm9.1-.3c2.5 0 4.7 1.9 4.7 5.3s-2.2 5.3-4.7 5.3-4.7-1.9-4.7-5.3c0-3.3 2.2-5.3 4.7-5.3zm0 9.2c1.7 0 2.9-1.6 2.9-3.9s-1.2-3.9-2.9-3.9-2.9 1.6-2.9 3.9c0 2.4 1.2 3.9 2.9 3.9z"/><g mask="url(#b)"><path d="m13.2 18.4v1.3h1.3.1 1.4 1.3 1.4v-1.4-1.4h-1.4v-1.3h-1.3v-1.4h-1.4-.1-1.3v1.4.1 1.4z"/><path d="m23.5 6h1.5v1.5h-1.5z"/><path d="m17.7 16.5h1.5v-1.5h-1.5v-1.5h-1.5v1.5h1.5z"/><path d="m20.3 15.1v.2 1.2.1 1.3h1.3.2 1.2.1 1.3 1.4v-1.4h-1.4v-1.4h-1.3v-1.3h-1.3v-1.3h-1.5v1.4z"/><path d="m22.3 11.2h1.5v1.5h-1.5z"/><path d="m29.8 3.2h1.5v1.5h-1.5z"/><path d="m23.9 12.8h1.5v1.5h-1.5z"/><path d="m37.4 4.7v-1.4h-.8v-1.1h-1.4v1.5h.7v1z"/><path d="m32.6 6.3h1.5v1.5h-1.5z"/><path d="m25.4 14.4h1.5v1.5h-1.5z"/><path d="m18.9 21.3v.1 1.2.1 1.4 1.3h1.3.1 1.2.2 1.2.1 1.4v-1.3-.2-1.3h-1.4v-1.3h-1.3v-1.4h-1.5-1.3z"/><path d="m22 19.3v1.5h1.5v1.5h1.5v-1.5h-1.5v-1.5z"/><path d="m33.6 10h1.5v1.5h-1.5z"/><path d="m31.9 13.7h-.3v-.9h-1v-.4h-1.4v-1.4h-1.4v1.4 1.4 1.2.2 1.3h1.5 1.2 1.4 1.4v-1.5h-1.4z"/><path d="m28.5 17.4h1.5v1.5h-1.5z"/><path d="m37 10h1.5v1.5h-1.5z"/><path d="m30 19h1.5v1.5h-1.5z"/><path d="m41.4 7.6h-1.5v.5h-.1v1.5h1.5v-.6h.1z"/><path d="m37.8 13.2h1.5v1.5h-1.5z"/><path d="m31.6 20.5h1.5v1.5h-1.5z"/><path d="m30.5 22.5v-1.3h-1.3v-1.3h-1.4v-1.4h-1.4v1.5 1.2.1 1.2.2 1.3h1.3.1 1.2.2 1.2.1 1.3v-1.5z"/><path d="m27.8 25.1h1.5v1.5h-1.5z"/><path d="m36.9 19.4h1.5v1.5h-1.5z"/><path d="m29.3 26.6h1.5v1.5h-1.5z"/><path d="m30 28.3h-1.3v-1.3h-1.3v-1.4h-1.5-1.3v1.5 1.2.1 1.2.2 1.3h1.4 1.2.2 1.2.1 1.3v-1.5z"/><path d="m23 32.4v-5.4h-5.4v-5.3h-5.3v-5.3h-5.9v5.8 5.4 4.8 5.9h5.9 5.3 5.4 5.8v-5.9z"/></g></g></switch></svg>