<svg xmlns="http://www.w3.org/2000/svg" viewBox="0 0 324 144"><path fill="#18394E" d="M139.1 64.6c0-2.3-1.3-3.6-5-3.6s-5 1.3-5 3.6v.8c0 1.9 1.2 2.5 2.1 2.8l7.7 2.9c2.5 1 4.6 2.6 4.6 5.7v3.5c0 3.5-2.5 6.5-9.5 6.5-7.1 0-9.5-3-9.5-6.5V78c0-.6.3-.8.9-.8h2.5c.5 0 .7.2.7.8v1.9c0 2.3 1.6 3.6 5.4 3.6 3.8 0 5.4-1.3 5.4-3.6v-2c0-2.1-1.9-2.8-3.5-3.5l-7.1-2.7c-1.9-.7-3.7-2.6-3.7-5.2v-2.4c0-3.5 2.2-6.5 9-6.5 6.9 0 9.1 3 9.1 6.5V66c0 .5-.2.8-.7.8H140c-.6 0-.9-.2-.9-.8v-1.4zm27.5 15.8c0 3.5-2.1 6.5-9.4 6.5-7.3 0-9.4-3-9.4-6.5V64.1c0-3.5 2.1-6.5 9.4-6.5 7.3 0 9.4 3 9.4 6.5v2.1c0 .6-.2.8-.8.8h-2.4c-.6 0-.9-.2-.9-.8v-1.4c0-2.3-1.5-3.7-5.3-3.7s-5.3 1.4-5.3 3.7v15c0 2.3 1.5 3.7 5.3 3.7s5.3-1.4 5.3-3.7v-2c0-.5.3-.8.9-.8h2.4c.5 0 .8.3.8.8v2.6zm31.1 2.7h10.8c.5 0 .9.2.9.8v1.9c0 .6-.4.8-.9.8h-14.3c-.5 0-.7-.3-.7-.8v-27c0-.6.2-.9.8-.9h2.6c.5 0 .8.3.8.9v24.3zm43-25.2c.5 0 .7.2.7.8v1.9c0 .6-.1.8-.7.8h-6.6v24.4c0 .6-.3.8-.9.8h-2.6c-.5 0-.9-.3-.9-.8V61.4h-6.6c-.6 0-.7-.2-.7-.8v-1.9c0-.6.1-.8.7-.8h17.6z"/><path fill="#18394E" d="M139.1 64.6c0-2.3-1.3-3.6-5-3.6s-5 1.3-5 3.6v.8c0 1.9 1.2 2.5 2.1 2.8l7.7 2.9c2.5 1 4.6 2.6 4.6 5.7v3.5c0 3.5-2.5 6.5-9.5 6.5-7.1 0-9.5-3-9.5-6.5V78c0-.6.3-.8.9-.8h2.5c.5 0 .7.2.7.8v1.9c0 2.3 1.6 3.6 5.4 3.6 3.8 0 5.4-1.3 5.4-3.6v-2c0-2.1-1.9-2.8-3.5-3.5l-7.1-2.7c-1.9-.7-3.7-2.6-3.7-5.2v-2.4c0-3.5 2.2-6.5 9-6.5 6.9 0 9.1 3 9.1 6.5V66c0 .5-.2.8-.7.8H140c-.6 0-.9-.2-.9-.8v-1.4zm27.5 15.8c0 3.5-2.1 6.5-9.4 6.5-7.3 0-9.4-3-9.4-6.5V64.1c0-3.5 2.1-6.5 9.4-6.5 7.3 0 9.4 3 9.4 6.5v2.1c0 .6-.2.8-.8.8h-2.4c-.6 0-.9-.2-.9-.8v-1.4c0-2.3-1.5-3.7-5.3-3.7s-5.3 1.4-5.3 3.7v15c0 2.3 1.5 3.7 5.3 3.7s5.3-1.4 5.3-3.7v-2c0-.5.3-.8.9-.8h2.4c.5 0 .8.3.8.8v2.6zm31.1 2.7h10.8c.5 0 .9.2.9.8v1.9c0 .6-.4.8-.9.8h-14.3c-.5 0-.7-.3-.7-.8v-27c0-.6.2-.9.8-.9h2.6c.5 0 .8.3.8.9v24.3zm20.2 2.7c0 .6-.2.8-.8.8h-2.6c-.5 0-.7-.3-.7-.8v-27c0-.6.1-.9.7-.9h2.6c.6 0 .8.3.8.9v27zm22.8-27.9c.5 0 .7.2.7.8v1.9c0 .6-.1.8-.7.8h-6.6v24.4c0 .6-.3.8-.9.8h-2.6c-.5 0-.9-.3-.9-.8V61.4h-6.6c-.6 0-.7-.2-.7-.8v-1.9c0-.6.1-.8.7-.8h17.6zM253 71.2l6.3-12.5c.2-.4.4-.8.9-.8h2.6c.6 0 .9.3.6.8l-8.3 16.5v10.6c0 .5-.2.8-.8.8h-2.6c-.6 0-.7-.3-.7-.8V75.2l-8.4-16.5c-.3-.5 0-.8.6-.8h2.5c.6 0 .7.3 1 .8l6.3 12.5zm-72.3-13.3c.5 0 .8.3 1 .8l8.2 27.1c.2.5 0 .8-.6.8h-2.7c-.5 0-.8-.3-.9-.8l-1.9-6.5H175l-1.9 6.5c-.1.5-.4.8-.9.8h-2.7c-.6 0-.8-.3-.6-.8l8.2-27.1c.2-.5.5-.8 1-.8h2.6zm-1.3 6.2l-3.5 12h6.9l-3.4-12z"/><path fill="#3D9BD6" d="M82.6 49.1v8.2H87V49l5.7 3.3 2.2-3.8-5.8-3.3c-1.3-.8-2.8-1.1-4.4-1.1-1.5 0-3 .4-4.3 1.2l-5.8 3.3 2.2 3.8 5.8-3.3z"/><path fill="#007664" d="M82.6 49.1v8.2H87V49l5.7 3.3 2.2-3.8-5.8-3.3c-1.3-.8-2.8-1.1-4.4-1.1-1.5 0-3 .4-4.3 1.2l-5.8 3.3 2.2 3.8 5.8-3.3z"/><path fill="#EE4642" d="M82.6 94.6v-8.2H87v8.2l5.7-3.3 2.2 3.8-5.7 3.3c-1.3.8-2.9 1.2-4.4 1.2-1.5 0-3-.4-4.3-1.2l-5.8-3.3 2.2-3.8 5.7 3.3z"/><path fill="#2AAD8E" d="M103.4 58.5l-7.1 4.1 2.2 3.8 7.1-4.1v6.6h4.4v-6.7c0-1.5-.4-3-1.2-4.3-.8-1.3-1.9-2.4-3.2-3.2l-5.8-3.3-2.2 3.8 5.8 3.3z"/><path fill="#D71D4F" d="M64 81.3l7.1-4.1 2.2 3.8-7.1 4.1 5.7 3.3-2.2 3.8-5.8-3.3c-1.3-.8-2.4-1.9-3.1-3.2-.8-1.3-1.2-2.8-1.2-4.3v-6.7H64v6.6z"/><path fill="#9E2569" d="M64 62.4l7.1 4.1 2.2-3.8-7.1-4.1 5.7-3.3-2.2-3.8-5.8 3.3c-1.3.8-2.4 1.9-3.2 3.2-.8 1.3-1.2 2.8-1.2 4.4v6.7h4.4l.1-6.7z"/><path fill="#F79836" d="M103.4 85.1l-7-4.1 2.2-3.8 7.1 4.1v-6.6h4.4v6.7c0 1.5-.4 2.9-1.2 4.3-.8 1.3-1.9 2.4-3.2 3.2l-5.8 3.3-2.2-3.8 5.7-3.3z"/><path fill="#007664" d="M85.4 61.5L85.4 70.8 93.5 66.2z"/><path fill="#9E2569" d="M84.2 61.5L76.2 66.2 84.2 70.8z"/><path fill="#D71D4F" d="M83.7 71.8L75.7 67.2 75.7 76.4z"/><path fill="#2AAD8E" d="M86 71.8L94 76.4 94 67.3z"/><path fill="#EE4642" d="M84.2 72.9L76.3 77.5 84.2 82.2z"/><path fill="#F79836" d="M85.4 72.9L85.4 82.2 93.4 77.5z"/></svg>