<svg viewBox="0 0 324 144" xmlns="http://www.w3.org/2000/svg"><path d="m139.1 64.6c0-2.3-1.3-3.6-5-3.6s-5 1.3-5 3.6v.8c0 1.9 1.2 2.5 2.1 2.8l7.7 2.9c2.5 1 4.6 2.6 4.6 5.7v3.5c0 3.5-2.5 6.5-9.5 6.5-7.1 0-9.5-3-9.5-6.5v-2.3c0-.6.3-.8.9-.8h2.5c.5 0 .7.2.7.8v1.9c0 2.3 1.6 3.6 5.4 3.6s5.4-1.3 5.4-3.6v-2c0-2.1-1.9-2.8-3.5-3.5l-7.1-2.7c-1.9-.7-3.7-2.6-3.7-5.2v-2.4c0-3.5 2.2-6.5 9-6.5 6.9 0 9.1 3 9.1 6.5v1.9c0 .5-.2.8-.7.8h-2.5c-.6 0-.9-.2-.9-.8zm27.5 15.8c0 3.5-2.1 6.5-9.4 6.5s-9.4-3-9.4-6.5v-16.3c0-3.5 2.1-6.5 9.4-6.5s9.4 3 9.4 6.5v2.1c0 .6-.2.8-.8.8h-2.4c-.6 0-.9-.2-.9-.8v-1.4c0-2.3-1.5-3.7-5.3-3.7s-5.3 1.4-5.3 3.7v15c0 2.3 1.5 3.7 5.3 3.7s5.3-1.4 5.3-3.7v-2c0-.5.3-.8.9-.8h2.4c.5 0 .8.3.8.8zm31.1 2.7h10.8c.5 0 .9.2.9.8v1.9c0 .6-.4.8-.9.8h-14.3c-.5 0-.7-.3-.7-.8v-27c0-.6.2-.9.8-.9h2.6c.5 0 .8.3.8.9zm43-25.2c.5 0 .7.2.7.8v1.9c0 .6-.1.8-.7.8h-6.6v24.4c0 .6-.3.8-.9.8h-2.6c-.5 0-.9-.3-.9-.8v-24.4h-6.6c-.6 0-.7-.2-.7-.8v-1.9c0-.6.1-.8.7-.8z" fill="#18394e"/><path d="m139.1 64.6c0-2.3-1.3-3.6-5-3.6s-5 1.3-5 3.6v.8c0 1.9 1.2 2.5 2.1 2.8l7.7 2.9c2.5 1 4.6 2.6 4.6 5.7v3.5c0 3.5-2.5 6.5-9.5 6.5-7.1 0-9.5-3-9.5-6.5v-2.3c0-.6.3-.8.9-.8h2.5c.5 0 .7.2.7.8v1.9c0 2.3 1.6 3.6 5.4 3.6s5.4-1.3 5.4-3.6v-2c0-2.1-1.9-2.8-3.5-3.5l-7.1-2.7c-1.9-.7-3.7-2.6-3.7-5.2v-2.4c0-3.5 2.2-6.5 9-6.5 6.9 0 9.1 3 9.1 6.5v1.9c0 .5-.2.8-.7.8h-2.5c-.6 0-.9-.2-.9-.8zm27.5 15.8c0 3.5-2.1 6.5-9.4 6.5s-9.4-3-9.4-6.5v-16.3c0-3.5 2.1-6.5 9.4-6.5s9.4 3 9.4 6.5v2.1c0 .6-.2.8-.8.8h-2.4c-.6 0-.9-.2-.9-.8v-1.4c0-2.3-1.5-3.7-5.3-3.7s-5.3 1.4-5.3 3.7v15c0 2.3 1.5 3.7 5.3 3.7s5.3-1.4 5.3-3.7v-2c0-.5.3-.8.9-.8h2.4c.5 0 .8.3.8.8zm31.1 2.7h10.8c.5 0 .9.2.9.8v1.9c0 .6-.4.8-.9.8h-14.3c-.5 0-.7-.3-.7-.8v-27c0-.6.2-.9.8-.9h2.6c.5 0 .8.3.8.9zm20.2 2.7c0 .6-.2.8-.8.8h-2.6c-.5 0-.7-.3-.7-.8v-27c0-.6.1-.9.7-.9h2.6c.6 0 .8.3.8.9zm22.8-27.9c.5 0 .7.2.7.8v1.9c0 .6-.1.8-.7.8h-6.6v24.4c0 .6-.3.8-.9.8h-2.6c-.5 0-.9-.3-.9-.8v-24.4h-6.6c-.6 0-.7-.2-.7-.8v-1.9c0-.6.1-.8.7-.8zm12.3 13.3 6.3-12.5c.2-.4.4-.8.9-.8h2.6c.6 0 .9.3.6.8l-8.3 16.5v10.6c0 .5-.2.8-.8.8h-2.6c-.6 0-.7-.3-.7-.8v-10.6l-8.4-16.5c-.3-.5 0-.8.6-.8h2.5c.6 0 .7.3 1 .8zm-72.3-13.3c.5 0 .8.3 1 .8l8.2 27.1c.2.5 0 .8-.6.8h-2.7c-.5 0-.8-.3-.9-.8l-1.9-6.5h-8.8l-1.9 6.5c-.1.5-.4.8-.9.8h-2.7c-.6 0-.8-.3-.6-.8l8.2-27.1c.2-.5.5-.8 1-.8zm-1.3 6.2-3.5 12h6.9z" fill="#18394e"/><path d="m82.6 49.1v8.2h4.4v-8.3l5.7 3.3 2.2-3.8-5.8-3.3c-1.3-.8-2.8-1.1-4.4-1.1-1.5 0-3 .4-4.3 1.2l-5.8 3.3 2.2 3.8z" fill="#3d9bd6"/><path d="m82.6 49.1v8.2h4.4v-8.3l5.7 3.3 2.2-3.8-5.8-3.3c-1.3-.8-2.8-1.1-4.4-1.1-1.5 0-3 .4-4.3 1.2l-5.8 3.3 2.2 3.8z" fill="#007664"/><path d="m82.6 94.6v-8.2h4.4v8.2l5.7-3.3 2.2 3.8-5.7 3.3c-1.3.8-2.9 1.2-4.4 1.2s-3-.4-4.3-1.2l-5.8-3.3 2.2-3.8z" fill="#ee4642"/><path d="m103.4 58.5-7.1 4.1 2.2 3.8 7.1-4.1v6.6h4.4v-6.7c0-1.5-.4-3-1.2-4.3s-1.9-2.4-3.2-3.2l-5.8-3.3-2.2 3.8z" fill="#2aad8e"/><path d="m64 81.3 7.1-4.1 2.2 3.8-7.1 4.1 5.7 3.3-2.2 3.8-5.8-3.3c-1.3-.8-2.4-1.9-3.1-3.2-.8-1.3-1.2-2.8-1.2-4.3v-6.7h4.4z" fill="#d71d4f"/><path d="m64 62.4 7.1 4.1 2.2-3.8-7.1-4.1 5.7-3.3-2.2-3.8-5.8 3.3c-1.3.8-2.4 1.9-3.2 3.2s-1.2 2.8-1.2 4.4v6.7h4.4z" fill="#9e2569"/><path d="m103.4 85.1-7-4.1 2.2-3.8 7.1 4.1v-6.6h4.4v6.7c0 1.5-.4 2.9-1.2 4.3-.8 1.3-1.9 2.4-3.2 3.2l-5.8 3.3-2.2-3.8z" fill="#f79836"/><path d="m85.4 61.5v9.3l8.1-4.6z" fill="#007664"/><path d="m84.2 61.5-8 4.7 8 4.6z" fill="#9e2569"/><path d="m83.7 71.8-8-4.6v9.2z" fill="#d71d4f"/><path d="m86 71.8 8 4.6v-9.1z" fill="#2aad8e"/><path d="m84.2 72.9-7.9 4.6 7.9 4.7z" fill="#ee4642"/><path d="m85.4 72.9v9.3l8-4.7z" fill="#f79836"/></svg>