<svg xmlns="http://www.w3.org/2000/svg" viewBox="0 0 792 612"><path d="M491 330.9l-58.7-75.7h-14.6v101.5h14.8V279l60.3 77.8h12.9V255.2H491v75.7zm-147.7-18.8h52.6V299h-52.6v-30.6h59.3v-13.1h-74.4v101.5h75.2v-13.1h-60.1v-31.6zm-61.8-12.9c-20.5-4.9-26.1-8.8-26.1-18.2 0-8.5 7.5-14.2 18.7-14.2 9.3 0 18.5 3.3 28.1 10.1l8-11.3c-10.5-8.1-22-11.8-35.8-11.8-20.1 0-34.1 11.9-34.1 28.9 0 18.3 11.8 24.6 33.6 29.8 19.1 4.4 25 8.6 25 17.8 0 9.1-7.9 15-20.2 15-12 0-22.2-4-32.9-12.9l-9 10.7c11.8 10 26 15.3 41.4 15.3 21.7 0 35.8-11.7 35.8-29.8 0-15.5-9.1-23.7-32.5-29.4zm493-44l-30.6 47.9-30.3-47.9h-17.7l40.2 61.4v40.2h15.2v-40.6l40.2-60.9h-17zM517.8 269H551v87.8h15.2V269h33.3v-13.7h-81.8V269zm152.3 48.1c15.3-4.2 23.8-15 23.8-30.3 0-19.5-14.3-31.6-37.3-31.6h-45.1v101.5h15.1v-36.5h25.6l25.8 36.5h17.6l-27.8-39 2.3-.6zm-43.5-9.9v-38.5h28.5c14.9 0 23.4 7 23.4 19.2 0 11.8-9.1 19.3-23.2 19.3h-28.7zm-512.2-79.5c-3.3-5.7-9.1-9.1-15.7-9.1S86.3 222 83 227.7l-25.8 44.8 6.6 3.8c19.2 11 35.2 27.1 46.3 46.3 9.9 17.1 15.6 36.2 16.8 55.7h-18.1c-1.1-16.4-6-32.4-14.3-46.7-9.5-16.5-23.3-30.3-39.7-39.7l-6.6-3.8L24 329.9l6.6 3.8c16 9.2 27.3 26.3 29.6 44.5H18.8c-1.5 0-2.3-.9-2.6-1.5-.3-.6-.8-1.7 0-3l11.6-20c-3.9-3.3-8.4-5.8-13.1-7.5L3 366.2c-3.3 5.7-3.3 12.5 0 18.1 3.3 5.7 9.1 9.1 15.7 9.1h57v-7.6c0-13.2-3.5-26.2-10.1-37.7-5.3-9.3-12.6-17.3-21.2-23.5l9.1-15.7c11.3 7.8 20.8 18.1 27.8 30.1 8.2 14.2 12.5 30.4 12.5 46.7v7.6h48.3v-7.6c0-24.8-6.5-49.3-19-70.8-11.2-19.4-26.8-35.8-45.4-47.9l18.4-31.8c.8-1.3 1.9-1.5 2.6-1.5.6 0 1.8.2 2.6 1.5l80 138.5c.8 1.3.3 2.4 0 3-.3.6-1.1 1.5-2.6 1.5h-18.8c.2 5.1.3 10.1 0 15.1h18.8c6.6 0 12.4-3.4 15.7-9.1 3.3-5.7 3.3-12.4 0-18.1l-80-138.4z"/></svg>