<svg xmlns="http://www.w3.org/2000/svg" viewBox="0 0 499.81818 129.96074" height="129.961" width="499.818"><path d="M464.58 55.868c0-1.786.944-3.301 2.834-4.543 1.891-1.242 4.613-1.864 8.171-1.864h10.894V62.1h8.338V45.558h-19.23c-3.189 0-5.986.262-8.394.786-2.409.524-4.429 1.263-6.059 2.214-1.632.951-2.854 2.077-3.668 3.378a7.8 7.8 0 0 0-1.224 4.223V95.18c0 1.554.407 2.981 1.224 4.281.814 1.301 2.018 2.427 3.612 3.378 1.593.952 3.595 1.688 6.003 2.213 2.407.524 5.205.787 8.393.787 3.186 0 5.983-.292 8.393-.874 2.408-.582 4.428-1.398 6.06-2.446 1.63-1.049 2.851-2.291 3.668-3.728.813-1.437 1.223-3.008 1.223-4.717l-8.226.581c0 2.02-.945 3.738-2.836 5.155-1.89 1.417-4.576 2.125-8.059 2.125-3.557 0-6.3-.62-8.226-1.862-1.929-1.243-2.892-2.758-2.892-4.544V55.868zm-39.797-10.31c-3.187 0-5.985.262-8.392.786-2.41.524-4.43 1.263-6.059 2.214-1.632.951-2.854 2.077-3.668 3.378a7.884 7.884 0 0 0-1.224 4.28v39.139a7.78 7.78 0 0 0 1.224 4.224c.813 1.301 2.036 2.427 3.668 3.378 1.63.951 3.648 1.698 6.06 2.242 2.405.543 5.204.814 8.391.814 3.113 0 5.873-.301 8.282-.902 2.407-.602 4.408-1.427 6.003-2.476 1.592-1.048 2.796-2.29 3.612-3.727a9.299 9.299 0 0 0 1.223-4.66l-8.226.641c0 2.02-.945 3.729-2.834 5.125-1.89 1.398-4.577 2.097-8.06 2.097-3.558 0-6.28-.61-8.17-1.835-1.89-1.223-2.836-2.727-2.836-4.513V80.329h11.005c3.113 0 5.873-.264 8.282-.787 2.407-.524 4.427-1.262 6.058-2.213 1.63-.951 2.853-2.077 3.67-3.378a7.916 7.916 0 0 0 1.222-4.281V45.558h-19.23zm10.894 3.903v20.618c0 1.824-.945 3.34-2.834 4.543-1.89 1.204-4.577 1.805-8.06 1.805h-11.006V55.868c0-1.786.945-3.301 2.835-4.543 1.89-1.242 4.613-1.864 8.17-1.864h10.895zm-62.139 45.894c0 1.515.406 2.922 1.223 4.224.814 1.301 2.02 2.427 3.613 3.378 1.592.951 3.594 1.698 6.002 2.242 2.407.543 5.205.814 8.394.814h3.668v-3.96h-3.668c-3.558 0-6.265-.612-8.115-1.835-1.854-1.223-2.778-2.727-2.778-4.514V49.461h15.23v-3.902h-15.23v-7.338h-8.338v7.338h-9.227v3.902h9.227v45.894zm-54.026-1.106v10.6h5.56c2-.116 4.185-.465 6.558-1.048 2.371-.582 4.78-1.427 7.226-2.533a37.959 37.959 0 0 0 7.003-4.136c2.223-1.65 4.225-3.62 6.003-5.911 1.778-2.291 3.185-4.902 4.224-7.834 1.037-2.931 1.557-6.241 1.557-9.93V45.558h-8.338v27.898c0 4.621-.797 8.562-2.389 11.822-1.595 3.263-3.54 5.951-5.837 8.067-2.298 2.116-4.688 3.728-7.17 4.834-2.483 1.106-4.65 1.834-6.503 2.184V45.558h-7.893v32.965c0 3.378-.816 6.349-2.445 8.911-1.63 2.563-3.613 4.747-5.947 6.552-2.335 1.807-4.779 3.233-7.337 4.281-2.557 1.048-4.763 1.747-6.614 2.097V45.558h-8.336v59.29h6.002c1.778-.116 3.705-.396 5.78-.844a36.586 36.586 0 0 0 6.281-1.98 43.851 43.851 0 0 0 6.28-3.232 32.897 32.897 0 0 0 5.781-4.543h.554zM243.59 54.703c0-1.785.945-3.301 2.834-4.543 1.89-1.242 4.615-1.864 8.171-1.864h10.894v46.536c0 2.019-.944 3.736-2.835 5.153-1.89 1.418-4.577 2.126-8.059 2.126-3.557 0-6.28-.62-8.17-1.863-1.89-1.242-2.835-2.756-2.835-4.543V54.703zm30.236-10.31h-19.23c-3.188 0-5.986.262-8.394.786-2.409.525-4.429 1.263-6.058 2.214-1.63.952-2.854 2.077-3.669 3.378a7.798 7.798 0 0 0-1.223 4.223v40.361c0 1.554.407 2.98 1.223 4.281.815 1.301 2.02 2.427 3.613 3.378 1.593.952 3.594 1.689 6.003 2.213 2.407.524 5.206.786 8.393.786 3.186 0 5.982-.291 8.393-.873 2.407-.583 4.428-1.397 6.06-2.447 1.628-1.048 2.851-2.29 3.667-3.727.814-1.437 1.223-3.009 1.223-4.718V44.393zM220.8 13.759h-8.337v91.091h8.337V13.759zm-59.138 81.596c0 1.515.406 2.922 1.223 4.224.814 1.301 2.037 2.427 3.668 3.378 1.63.951 3.65 1.698 6.058 2.242 2.408.543 5.206.814 8.393.814 3.113 0 5.873-.271 8.282-.814 2.407-.544 4.427-1.291 6.058-2.242 1.63-.951 2.852-2.077 3.67-3.378a7.82 7.82 0 0 0 1.221-4.224v-6.931c0-1.552-.463-3.019-1.389-4.397-.928-1.378-2.15-2.688-3.669-3.931-1.519-1.243-3.26-2.427-5.224-3.553a302.19 302.19 0 0 0-6.059-3.378 318.476 318.476 0 0 1-5.057-2.825c-1.668-.951-3.15-1.931-4.447-2.941-1.297-1.009-2.353-2.087-3.168-3.232-.816-1.145-1.223-2.378-1.223-3.698v-5.766c0-1.785.945-3.301 2.835-4.543 1.89-1.242 4.613-1.864 8.17-1.864 3.483 0 6.17.622 8.06 1.864 1.89 1.242 2.834 2.758 2.834 4.543v5.125h8.337v-4.775c0-1.553-.408-2.98-1.222-4.281-.817-1.301-2.04-2.426-3.669-3.378-1.63-.951-3.65-1.688-6.058-2.214-2.409-.524-5.169-.786-8.282-.786-3.187 0-5.985.262-8.393.786-2.409.525-4.429 1.263-6.058 2.214-1.63.952-2.854 2.077-3.668 3.378a7.893 7.893 0 0 0-1.223 4.281v5.416c0 1.631.462 3.145 1.39 4.543.925 1.398 2.167 2.728 3.723 3.989 1.557 1.263 3.316 2.457 5.281 3.582a175.3 175.3 0 0 0 6.058 3.319c1.704.933 3.39 1.864 5.058 2.797 1.667.932 3.15 1.912 4.446 2.94 1.296 1.029 2.335 2.097 3.113 3.203.778 1.107 1.167 2.301 1.167 3.582v7.339c0 1.786-.945 3.29-2.834 4.513-1.89 1.225-4.577 1.835-8.06 1.835-3.557 0-6.28-.61-8.17-1.835-1.89-1.223-2.835-2.727-2.835-4.513v-4.368h-8.337v3.96z" fill="#1a1a1a"/><path d="M109.278 49.781a47.766 47.766 0 0 0-5.41-10.569l7.954-11.892-8.567-8.492-11.714 7.985a47.789 47.789 0 0 0-10.937-5.671L80.05 6.834 68.127 5l-4.752 13.259a48.177 48.177 0 0 0-13.155 2.083l-.224.128c-.438 1.753-1.022 4.624-1.209 7.493 13.323-5.354 29.063-3.603 41.104 5.976 17.833 14.185 20.79 40.14 6.605 57.973a40.955 40.955 0 0 1-18.444 13.16l-.022-.033c-1.77.624-3.554 1.087-5.339 1.461-2.64 3-5.186 5.236-9.163 7.138.267.122.098.097.098.097 2.141.438 6.03.259 8.834-.243 2.994-.535 5.291-1.248 5.433-1.29l9.12 11.074 10.6-5.756-4.183-13.24a48.042 48.042 0 0 0 8.323-8.186c.378-.476.735-.962 1.092-1.446l13.781 3.572 5.193-10.889-11.345-8.385a47.888 47.888 0 0 0 1.692-11.907l13.378-4.994-1.99-11.896-14.276-.368z" fill="#1a1a1a"/><path d="M55.606 6.11C43.924 15.602 41.408 31.606 48.7 42.829c3.843 5.915 9.106 11.225 13.78 16.613 5.697 6.566 11.662 12.877 13.635 22.8 2.055 10.335-4.184 20.409-12.05 25.641-2.429 1.616-6.096 3.101-9.053 4.019-2.44.758-3.595.588-4.506.865 0 0-4.279 4.702-6.292 6.86-1.9 2.038-4.095 4.457-5.273 5.11-.965.534-5.237-.034-5.226-.2.01-.166 2.213-2.755 3.333-3.949 8.65-9.213 19.42-17.886 17.835-33.279-.07-.687-.318-1.557-.472-2.178-3.978-15.999-14.21-28.06-18.93-43.763-.385 1.658.487 6.297 1.222 8.9.717 2.541 1.266 4.138 2.227 6.991 1.497 4.442 4.016 9.662 5.49 14.994 3.676 13.312 4.272 24.358-2.01 34.176-1.109 1.734-3.06 5.677-4.647 6.024-1.03.227-4.093-1.367-5.116-1.852-11.592-5.496-24.604-20.308-26.874-36.832-2.136-15.55.198-25.459 6.45-37.237 4.868-7.545 11.225-14.135 18.375-19.106C41.978 9.517 55.564 5.98 55.606 6.11" fill="#80c128"/></svg>