<?xml version="1.0" encoding="utf-8"?>
<!-- Generator: Adobe Illustrator 19.1.0, SVG Export Plug-In . SVG Version: 6.00 Build 0)  -->
<svg version="1.1" id="logo_1_" xmlns="http://www.w3.org/2000/svg" xmlns:xlink="http://www.w3.org/1999/xlink" x="0px" y="0px"
	 viewBox="0 0 442.8 97.9" style="enable-background:new 0 0 442.8 97.9;" xml:space="preserve">
<style type="text/css">
	.st0{fill:#3499CD;}
	.st1{fill:url(#SVGID_1_);}
	.st2{fill:#333333;}
</style>
<g id="logo">
	<g id="symbol">
		<polygon class="st0" points="102.5,0 94.6,19.4 62.6,97.9 39.8,97.9 7.9,19.4 0,0 45.3,0 45.3,19.4 30.3,19.4 51.3,73.4 
			72.3,19.4 57.2,19.4 57.2,0 		"/>
	</g>
	<linearGradient id="SVGID_1_" gradientUnits="userSpaceOnUse" x1="51.2075" y1="97.919" x2="51.2075" y2="19.3985">
		<stop  offset="0" style="stop-color:#3399CC"/>
		<stop  offset="0.421" style="stop-color:#3398CB"/>
		<stop  offset="0.5999" style="stop-color:#3093C6"/>
		<stop  offset="0.7328" style="stop-color:#2B8ABD"/>
		<stop  offset="0.8431" style="stop-color:#247FB2"/>
		<stop  offset="0.9381" style="stop-color:#1872A5"/>
		<stop  offset="1" style="stop-color:#0B679A"/>
	</linearGradient>
	<path class="st1" d="M72.3,19.4l-21,54l-21-54H7.9l31.9,78.5h22.8l31.9-78.5H72.3z"/>
	<g id="text">
		<path class="st2" d="M115.1,71.9l3.9-5c3.4,3.9,9,7.5,16.3,7.5c9.3,0,12.2-5,12.2-9c0-13.4-30.8-5.9-30.8-24.5
			c0-8.6,7.6-14.5,17.9-14.5c7.9,0,14,2.7,18.4,7.3l-3.9,4.8c-3.9-4.4-9.4-6.2-15.1-6.2c-6.2,0-10.7,3.4-10.7,8.3
			c0,11.7,30.8,5,30.8,24.4c0,7.5-5.1,15.3-19.2,15.3C126.1,80.1,119.4,76.7,115.1,71.9z"/>
		<path class="st2" d="M189.2,79.2V54.5c0-6.7-3.4-8.7-8.5-8.7c-4.6,0-8.9,2.8-11.2,5.8v27.5h-5.8V41.5h5.8V47
			c2.7-3.2,7.8-6.4,13.5-6.4c7.8,0,11.9,4,11.9,12.2v26.4H189.2z"/>
		<path class="st2" d="M230.3,79.2v-4.3c-3,3.4-7.4,5.2-12.5,5.2c-6.3,0-13.1-4.3-13.1-12.5c0-8.5,6.7-12.4,13.1-12.4
			c5.1,0,9.4,1.6,12.5,5.1v-6.8c0-5-4.1-7.9-9.5-7.9c-4.5,0-8.2,1.6-11.5,5.2l-2.7-4.1c4.1-4.2,8.9-6.2,15.1-6.2
			c8,0,14.6,3.6,14.6,12.7v25.9H230.3z M230.3,71.2v-7.2c-2.3-3-6.2-4.6-10.3-4.6c-5.5,0-9.4,3.4-9.4,8.2c0,4.8,3.8,8.3,9.4,8.3
			C224.1,75.9,228,74.4,230.3,71.2z"/>
		<path class="st2" d="M253.8,73.5v20h-5.8v-52h5.8v5.6c2.7-3.8,7.4-6.6,12.7-6.6c9.9,0,16.8,7.5,16.8,19.7
			c0,12.2-6.9,19.8-16.8,19.8C261.4,80.1,256.9,77.6,253.8,73.5z M277.1,60.3c0-8.3-4.5-14.5-12.1-14.5c-4.6,0-9.2,2.7-11.2,6v17
			c2,3.3,6.6,6.1,11.2,6.1C272.6,74.9,277.1,68.7,277.1,60.3z"/>
		<path class="st2" d="M302.6,79.2l-15.7-37.7h6.4l12.5,30.9l12.6-30.9h6.3L309,79.2H302.6z"/>
		<path class="st2" d="M329.8,32.2c0-2.2,1.8-4,4-4c2.2,0,3.9,1.8,3.9,4c0,2.2-1.7,3.9-3.9,3.9C331.5,36.1,329.8,34.4,329.8,32.2z
			 M330.8,79.2V41.5h5.8v37.7H330.8z"/>
		<path class="st2" d="M346.1,60.3c0-10.9,7.8-19.7,18.6-19.7c11.4,0,18.1,8.9,18.1,20.2v1.5h-30.4c0.5,7.1,5.4,13,13.5,13
			c4.4,0,8.7-1.7,11.7-4.8l2.8,3.8c-3.8,3.7-8.9,5.9-15,5.9C354.2,80.1,346.1,72.1,346.1,60.3z M364.6,45.4c-8,0-12,6.8-12.3,12.5
			H377C376.9,52.4,373.2,45.4,364.6,45.4z"/>
		<path class="st2" d="M424.8,79.2L415,48.9l-9.8,30.3h-5.9l-12-37.7h6.1l9.2,30l9.9-30h5.1l9.8,30l9.2-30h6.2l-12,37.7H424.8z"/>
		<polygon class="st2" points="322.3,47.4 307.8,47.4 307.8,41.5 324.7,41.5 		"/>
		<polygon class="st2" points="286.9,41.5 303.9,41.5 303.9,47.4 289.4,47.4 		"/>
	</g>
</g>
</svg>
