<svg enable-background="new 0 0 442.8 97.9" viewBox="0 0 442.8 97.9" xmlns="http://www.w3.org/2000/svg" xmlns:xlink="http://www.w3.org/1999/xlink"><linearGradient id="a" gradientUnits="userSpaceOnUse" x1="51.2075" x2="51.2075" y1="97.919" y2="19.3985"><stop offset="0" stop-color="#39c"/><stop offset=".421" stop-color="#3398cb"/><stop offset=".5999" stop-color="#3093c6"/><stop offset=".7328" stop-color="#2b8abd"/><stop offset=".8431" stop-color="#247fb2"/><stop offset=".9381" stop-color="#1872a5"/><stop offset="1" stop-color="#0b679a"/></linearGradient><path d="m102.5 0-7.9 19.4-32 78.5h-22.8l-31.9-78.5-7.9-19.4h45.3v19.4h-15l21 54 21-54h-15.1v-19.4z" fill="#3499cd"/><path d="m72.3 19.4-21 54-21-54h-22.4l31.9 78.5h22.8l31.9-78.5z" fill="url(#a)"/><g fill="#333"><path d="m115.1 71.9 3.9-5c3.4 3.9 9 7.5 16.3 7.5 9.3 0 12.2-5 12.2-9 0-13.4-30.8-5.9-30.8-24.5 0-8.6 7.6-14.5 17.9-14.5 7.9 0 14 2.7 18.4 7.3l-3.9 4.8c-3.9-4.4-9.4-6.2-15.1-6.2-6.2 0-10.7 3.4-10.7 8.3 0 11.7 30.8 5 30.8 24.4 0 7.5-5.1 15.3-19.2 15.3-8.8-.2-15.5-3.6-19.8-8.4z"/><path d="m189.2 79.2v-24.7c0-6.7-3.4-8.7-8.5-8.7-4.6 0-8.9 2.8-11.2 5.8v27.5h-5.8v-37.6h5.8v5.5c2.7-3.2 7.8-6.4 13.5-6.4 7.8 0 11.9 4 11.9 12.2v26.4z"/><path d="m230.3 79.2v-4.3c-3 3.4-7.4 5.2-12.5 5.2-6.3 0-13.1-4.3-13.1-12.5 0-8.5 6.7-12.4 13.1-12.4 5.1 0 9.4 1.6 12.5 5.1v-6.8c0-5-4.1-7.9-9.5-7.9-4.5 0-8.2 1.6-11.5 5.2l-2.7-4.1c4.1-4.2 8.9-6.2 15.1-6.2 8 0 14.6 3.6 14.6 12.7v25.9h-6zm0-8v-7.2c-2.3-3-6.2-4.6-10.3-4.6-5.5 0-9.4 3.4-9.4 8.2s3.8 8.3 9.4 8.3c4.1 0 8-1.5 10.3-4.7z"/><path d="m253.8 73.5v20h-5.8v-52h5.8v5.6c2.7-3.8 7.4-6.6 12.7-6.6 9.9 0 16.8 7.5 16.8 19.7s-6.9 19.8-16.8 19.8c-5.1.1-9.6-2.4-12.7-6.5zm23.3-13.2c0-8.3-4.5-14.5-12.1-14.5-4.6 0-9.2 2.7-11.2 6v17c2 3.3 6.6 6.1 11.2 6.1 7.6 0 12.1-6.2 12.1-14.6z"/><path d="m302.6 79.2-15.7-37.7h6.4l12.5 30.9 12.6-30.9h6.3l-15.7 37.7z"/><path d="m329.8 32.2c0-2.2 1.8-4 4-4s3.9 1.8 3.9 4-1.7 3.9-3.9 3.9c-2.3 0-4-1.7-4-3.9zm1 47v-37.7h5.8v37.7z"/><path d="m346.1 60.3c0-10.9 7.8-19.7 18.6-19.7 11.4 0 18.1 8.9 18.1 20.2v1.5h-30.4c.5 7.1 5.4 13 13.5 13 4.4 0 8.7-1.7 11.7-4.8l2.8 3.8c-3.8 3.7-8.9 5.9-15 5.9-11.2-.1-19.3-8.1-19.3-19.9zm18.5-14.9c-8 0-12 6.8-12.3 12.5h24.7c-.1-5.5-3.8-12.5-12.4-12.5z"/><path d="m424.8 79.2-9.8-30.3-9.8 30.3h-5.9l-12-37.7h6.1l9.2 30 9.9-30h5.1l9.8 30 9.2-30h6.2l-12 37.7z"/><path d="m322.3 47.4h-14.5v-5.9h16.9z"/><path d="m286.9 41.5h17v5.9h-14.5z"/></g></svg>