<svg id="Calque_1" data-name="Calque 1" xmlns="http://www.w3.org/2000/svg" viewBox="0 0 400 220"><defs><style>.cls-1{fill:#1922fa}</style></defs><title>Sans titre - 1</title><path class="cls-1" d="M109.2 90.17l-5.66 5.2a3.1 3.1 0 0 1-4.17.06 14.3 14.3 0 0 0-9.46-3.89c-3.24 0-6.21 1.89-6.21 5.67 0 3 2.43 5.13 6.48 6.62 9.31 3.37 24.57 6.34 24.57 20.92 0 12.28-9.45 22.68-24.17 22.68-12.58 0-21.44-7.87-25.63-15.5a3.11 3.11 0 0 1 1.23-4.25l7.82-4.19a3.08 3.08 0 0 1 4.19 1.25c2.61 5.06 6.77 8.37 12.39 8.37 5.13 0 8.37-2.29 8.37-7.29 0-5.67-8.77-6.88-17-10.39-7.42-3.1-13.77-7.83-13.77-18.36s8.5-19.84 21.73-19.84a25.51 25.51 0 0 1 19.61 8.72 3.07 3.07 0 0 1-.32 4.22m27.1-5.71a3 3 0 0 0 3.32-.61c4-3.95 12-6.62 19.81-6.62 10.78 0 20.93 6.88 20.93 20.52v45.5a3.09 3.09 0 0 1-3.09 3.09h-10.56a3.09 3.09 0 0 1-3.09-3.09v-40.51c0-8.1-4-11.21-9.72-11.21-9 0-15.53 4.8-15.53 22.76v29a3.09 3.09 0 0 1-3.09 3.09h-10.55a3.09 3.09 0 0 1-3.09-3.09V83a3.09 3.09 0 0 1 4.29-2.85zm62.8-36.24A10.8 10.8 0 1 1 188.3 59a10.58 10.58 0 0 1 10.8-10.8m5.28 98.41h-10.56a3.09 3.09 0 0 1-3.09-3.09V81.68a3.09 3.09 0 0 1 3.09-3.09h10.55a3.09 3.09 0 0 1 3.09 3.09v61.85a3.09 3.09 0 0 1-3.09 3.09m47.22.8a23.48 23.48 0 0 1-11.8-3.34 3.09 3.09 0 0 0-4.67 2.65v24.05a3.09 3.09 0 0 1-3.09 3.09h-10.56a3.09 3.09 0 0 1-3.09-3.09V83a3.09 3.09 0 0 1 4.29-2.85l10.18 4.27a3.14 3.14 0 0 0 3.57-.87 20.6 20.6 0 0 1 15.17-6.28c20.52 0 31 14.17 31 35.1s-10.53 35.1-31 35.1m-2.29-55.89c-8.77 0-15.66 7.29-15.66 20.79s6.88 20.79 15.66 20.79 15.79-7.29 15.79-20.79-7-20.79-15.79-20.79m80.7-1.41l-5.65 5.2a3.1 3.1 0 0 1-4.17.06 14.3 14.3 0 0 0-9.46-3.89c-3.24 0-6.21 1.89-6.21 5.67 0 3 2.43 5.13 6.48 6.62 9.32 3.37 24.57 6.34 24.57 20.92 0 12.28-9.45 22.68-24.16 22.68-12.58 0-21.45-7.87-25.64-15.5a3.11 3.11 0 0 1 1.23-4.25l7.81-4.18a3.08 3.08 0 0 1 4.19 1.25c2.61 5.06 6.77 8.37 12.4 8.37 5.13 0 8.37-2.29 8.37-7.29 0-5.67-8.78-6.88-17-10.39-7.42-3.1-13.77-7.83-13.77-18.36s8.51-19.84 21.73-19.84a25.51 25.51 0 0 1 19.61 8.72 3.07 3.07 0 0 1-.32 4.22"/></svg>