<svg id="Laag_1" data-name="Laag 1" xmlns="http://www.w3.org/2000/svg" xmlns:xlink="http://www.w3.org/1999/xlink" viewBox="0 0 595.28 841.89"><defs><style>.cls-1{fill:#004d6f}.cls-2{fill:url(#Naamloos_verloop_3)}.cls-3{fill:url(#Naamloos_verloop_5)}.cls-4{fill:#fff}.cls-5{fill:url(#Naamloos_verloop_22)}.cls-6{fill:url(#Naamloos_verloop_22-2)}</style><linearGradient id="Naamloos_verloop_3" x1="145.32" y1="448.63" x2="428.21" y2="448.63" gradientUnits="userSpaceOnUse"><stop offset="0" stop-color="#d9d9d9"/><stop offset=".14" stop-color="#b4c0ca"/><stop offset=".29" stop-color="#95abbc"/><stop offset=".45" stop-color="#7d9ab2"/><stop offset=".61" stop-color="#6c8eab"/><stop offset=".79" stop-color="#6187a6"/><stop offset="1" stop-color="#5e85a5"/></linearGradient><linearGradient id="Naamloos_verloop_5" x1="86.64" y1="197.93" x2="326.31" y2="197.93" xlink:href="#Naamloos_verloop_3"/><linearGradient id="Naamloos_verloop_22" x1="98.78" y1="157.3" x2="381.67" y2="157.3" gradientUnits="userSpaceOnUse"><stop offset="0" stop-color="#6f91af"/><stop offset=".1" stop-color="#5682a1"/><stop offset=".26" stop-color="#376f8f"/><stop offset=".42" stop-color="#1f6081"/><stop offset=".59" stop-color="#0e5577"/><stop offset=".78" stop-color="#034f71"/><stop offset="1" stop-color="#004d6f"/></linearGradient><linearGradient id="Naamloos_verloop_22-2" x1="178.35" y1="429.67" x2="456.09" y2="429.67" xlink:href="#Naamloos_verloop_22"/></defs><title>Logo Structure Systems-01</title><path class="cls-1" d="M73.75 612.84c-1.09-4.92-6.41-7-11.17-7-3.67.08-7.74 1.33-9.92 4.14a7.17 7.17 0 0 0-1.33 5.08c.39 5.63 6.56 6.33 12.42 6.88 7.5.94 16.8 2.89 18.91 11.64a19.44 19.44 0 0 1 .39 3.59c0 10.55-10.47 16.64-20.32 16.64-8.44 0-18.68-5-19.69-14.77l-.04-1.43 8-.16.08 1.17v-.31c.55 5.08 6.72 7.74 11.8 7.74 5.86 0 12.27-3.28 12.27-8.91a8.77 8.77 0 0 0-.23-1.88c-.94-4.14-6.56-4.84-12-5.39-8.52-.86-18.52-2.73-19.38-14.14v.08a14.8 14.8 0 0 1 3-10.39c3.67-4.77 10.24-7.27 16.57-7.27 8.44 0 17.19 4.38 18.6 14.38zM115 653.63V606H98.44v-7.3h40.95v7.3H122.9v47.59zm54.38-27.97h9.22c6.64 0 9.92-4.77 9.92-9.53s-3.28-9.46-9.92-9.46h-12.11v46.73h-7.81v-54.7h19.92c11.88 0 17.82 8.75 17.82 17.43a16.47 16.47 0 0 1-14.14 16.72l17.27 20.55h-10.24l-19.93-24zM215.87 637v-38.22h8v38.29c0 6 6.49 9 12.27 9s12.19-3 12.19-9.06v-38.23h8v38.29c0 11.1-10.78 16.88-20.16 16.88-9.67-.01-20.3-5.79-20.3-16.95zm65.79-30.41a26.38 26.38 0 0 1 18.91-8.13c12.5 0 22.35 7.81 25.47 20.16h-7.81c-2.89-8.21-9.61-12.35-17.66-12.35a18.61 18.61 0 0 0-13.44 5.86 20.2 20.2 0 0 0 0 28 18.82 18.82 0 0 0 31.57-7.19h7.74c-3.13 12.42-13.13 20.86-25.86 20.86a26.07 26.07 0 0 1-18.91-8.13 28.32 28.32 0 0 1 0-39.07zm76.42 47.04V606h-16.57v-7.3h40.95v7.3H366v47.59zM401.83 637v-38.22h8v38.29c0 6 6.49 9 12.27 9s12.19-3 12.19-9.06v-38.23h8v38.29c0 11.1-10.78 16.88-20.16 16.88-9.67-.01-20.3-5.79-20.3-16.95zm73.91-11.34H485c6.64 0 9.92-4.77 9.92-9.53s-3.28-9.46-9.92-9.46h-12.15v46.73H465v-54.7h20c11.88 0 17.82 8.75 17.82 17.43a16.47 16.47 0 0 1-14.14 16.72l17.27 20.55h-10.28l-19.93-24zm54.85 19.84H556v7.89h-33.38v-54.61h33.29v7.89h-25.32v15.39h24.77v8h-24.77zm-395.66 52.57c-1.09-4.92-6.41-7-11.17-7-3.67.08-7.74 1.33-9.92 4.14a7.17 7.17 0 0 0-1.33 5.08c.39 5.63 6.56 6.33 12.42 6.88 7.5.94 16.8 2.89 18.91 11.64a19.44 19.44 0 0 1 .39 3.59c0 10.55-10.47 16.64-20.32 16.64-8.44 0-18.68-5-19.69-14.77l-.08-1.48 8-.16.08 1.17v-.31c.55 5.08 6.72 7.74 11.8 7.74 5.86 0 12.27-3.28 12.27-8.91a8.77 8.77 0 0 0-.23-1.88c-.94-4.14-6.56-4.84-12-5.39-8.52-.86-18.52-2.73-19.38-14.14v.09a14.8 14.8 0 0 1 3-10.39c3.67-4.77 10.24-7.27 16.57-7.27 8.44 0 17.19 4.38 18.6 14.38zM167.35 684l14.92 24 14.92-24h9.38l-20.32 32.35v22.27h-8v-22.27L158.05 684zm84 14.07c-1.09-4.92-6.41-7-11.17-7-3.67.08-7.74 1.33-9.92 4.14a7.17 7.17 0 0 0-1.33 5.08c.39 5.63 6.56 6.33 12.42 6.88 7.5.94 16.8 2.89 18.91 11.64a19.44 19.44 0 0 1 .39 3.59c0 10.55-10.47 16.64-20.32 16.64-8.44 0-18.68-5-19.69-14.77l-.08-1.48 8-.16.08 1.17v-.31c.55 5.08 6.72 7.74 11.8 7.74 5.86 0 12.27-3.28 12.27-8.91a8.77 8.77 0 0 0-.23-1.88c-.94-4.14-6.56-4.84-12-5.39-8.52-.86-18.52-2.73-19.38-14.14v.09a14.8 14.8 0 0 1 3-10.39c3.67-4.77 10.24-7.27 16.57-7.27 8.44 0 17.19 4.38 18.6 14.38zm36.33 40.79v-47.59h-16.57v-7.35h40.95v7.35h-16.49v47.59zm51.25-8.13h25.4v7.89H331V684h33.29v7.89h-25.36v15.39h24.77v8h-24.77zm54.22 7.89h-7.89v-54.7h6.41l18 26.57 18.05-26.57H434v54.7h-7.81V700.1l-14.3 21.25h-4.45l-14.3-21.25zm91.73-40.55c-1.09-4.92-6.41-7-11.17-7-3.67.08-7.74 1.33-9.92 4.14a7.17 7.17 0 0 0-1.33 5.08c.39 5.63 6.56 6.33 12.42 6.88 7.5.94 16.8 2.89 18.91 11.64a19.44 19.44 0 0 1 .39 3.59c0 10.55-10.47 16.64-20.32 16.64-8.44 0-18.68-5-19.69-14.77l-.08-1.48 8-.16.08 1.17v-.31c.55 5.08 6.72 7.74 11.8 7.74 5.86 0 12.27-3.28 12.27-8.91a8.77 8.77 0 0 0-.23-1.88c-.94-4.14-6.56-4.84-12-5.39-8.52-.86-18.52-2.73-19.38-14.14v.09a14.79 14.79 0 0 1 3-10.39c3.67-4.77 10.24-7.27 16.57-7.27 8.44 0 17.19 4.38 18.6 14.38z"/><path class="cls-2" d="M267.23 535.73c12.41 2.52 127.07 18.78 161-48.31-23.08 9.88-148.23 47.19-159.89-83.86-2.15-26.05-20.53-45.28-68.82-45.57-56.73 1.61-54.18 50.12-54.18 50.12s3.49 103.03 121.89 127.62z"/><path class="cls-3" d="M186.47 291.36h139.84c-49.31-19.22-107.9-89-115.62-104.47-27.82-51.17 11.06-75.08 20.89-78.56 24.52-8.67-126.61 0-126.61 0-69.62 103.67 81.5 183.03 81.5 183.03z"/><path class="cls-4" d="M185.55 282.94c2.1-4 4.4-8.19 6.92-12.43 7.67 5.27 15.14 9.84 22.06 13.73-1.11 2.4-2.14 4.78-3.14 7.13h1.9q1.33-3.11 2.77-6.26c4.25 2.35 8.24 4.44 11.9 6.26h4c-4.5-2.17-9.62-4.79-15.16-7.87 1.85-3.95 3.86-7.92 6-11.9a300.78 300.78 0 0 0 23.68 13.37c-.69 2.14-1.34 4.27-2 6.39h1.82q.82-2.77 1.72-5.58c4.5 2.25 8.49 4.1 11.82 5.58h4.71c-5-2.14-10.77-4.68-16-7.28q1.84-5.54 4-11.12c8.58 5.09 16.47 9.2 23 12.37-.4 2-.76 4-1.1 6h1.78c.3-1.74.61-3.49 1-5.25 4.9 2.33 8.9 4.06 11.77 5.25h5.48q.66-4.29 1.54-8.57c6.32 3.07 13.88 6.29 19.44 8.57h2.15l-1.06-.59c-.18-.07-8.54-4.11-20.14-9.77.38-1.75.81-3.48 1.25-5.22l-1.54-1.08a176.7 176.7 0 0 0-1.34 5.51c-4.35-2.16-9.23-4.73-14.4-7.65.71-2.63 1.51-5.25 2.35-7.86l-1.46-1.18c-.88 2.71-1.72 5.42-2.46 8.15-6.36-3.64-13.15-7.85-20.09-12.63 1.71-3.47 3.59-6.88 5.56-10.25l-1.32-1.22c-2 3.44-3.95 6.93-5.7 10.47-5.66-4-11.38-8.28-17-13 2.93-3.65 6.09-7.13 9.4-10.49l-1.23-1.26c-3.34 3.4-6.54 6.92-9.5 10.6-1.5-1.27-3-2.52-4.47-3.84-3.59-3.22-7.18-6.72-10.73-10.41a143.05 143.05 0 0 1 11.77-10.27l-1.17-1.32a145.13 145.13 0 0 0-11.83 10.33 175.3 175.3 0 0 1-13.5-16.17 128.37 128.37 0 0 1 13.51-8.29l-1.1-1.41a130.3 130.3 0 0 0-13.41 8.26 150.63 150.63 0 0 1-10.9-17.53 129.59 129.59 0 0 1 13.55-6.35c-.29-.53-.53-1-.81-1.58a131.66 131.66 0 0 0-13.55 6.37 134.45 134.45 0 0 1-6.4-14.25 131.18 131.18 0 0 1 14.4-4.91c-.2-.58-.37-1.15-.55-1.72a132.33 132.33 0 0 0-14.43 4.91 126.75 126.75 0 0 1-4.76-16.63 133.09 133.09 0 0 1 16.45-2.82q-.06-.88-.08-1.75a135.38 135.38 0 0 0-16.7 2.9 126.51 126.51 0 0 1-2.23-20.17A135.48 135.48 0 0 1 204 136c.23-.59.47-1.17.72-1.74a136.61 136.61 0 0 0-22.87 1.17 134.65 134.65 0 0 1 .77-16.27 133 133 0 0 1 23.14 1.84c-.28 4-.32 7.8-.25 11.59q.83-1.68 1.76-3.23c0-2.63.07-5.29.26-8q2.45.46 4.87 1c.43-.5.87-1 1.31-1.46-2-.48-4-.91-6.06-1.28a137.05 137.05 0 0 1 2.13-15H208a138.64 138.64 0 0 0-2.08 14.71 134.83 134.83 0 0 0-23.09-1.77c.47-4.11 1.1-8.29 1.93-12.55h-1.81c-.82 4.25-1.45 8.42-1.91 12.52a169.84 169.84 0 0 0-19.48 1.48c.52-4.37 1.22-8.82 2.16-13.36l-1.84.07c-.93 4.6-1.62 9.1-2.13 13.52a211.72 211.72 0 0 0-22.26 4.46 147.49 147.49 0 0 1 2.77-17.07l-1.81.08a147.89 147.89 0 0 0-2.81 17.46c-6.58 1.73-12.88 3.67-18.73 5.7a147 147 0 0 1 3.25-19.52c3.07-1.1 6.27-2.18 9.57-3.23l-6.61.33-2.54.87c.06-.25.14-.5.2-.75l-1.82.09c-.11.45-.23.91-.34 1.36-7 2.52-13.24 5.1-18.64 7.51-1.06 1.86-2.06 3.71-3 5.55a140.59 140.59 0 0 0-2.38 16.62c-1.72.77-3.35 1.51-4.88 2.23-.2.74-.37 1.47-.55 2.21 1.67-.8 3.46-1.63 5.37-2.49a129.59 129.59 0 0 0 1.28 27.57c-3.32 2-6.17 3.86-8.59 5.46.08.66.16 1.31.25 2 2.39-1.6 5.26-3.47 8.63-5.53a128.69 128.69 0 0 0 8 27.74c-2.94 2.24-5.59 4.35-7.94 6.27.26.54.53 1.08.79 1.62 2.31-1.91 4.94-4 7.85-6.24a146.1 146.1 0 0 0 14.47 25.94c-2.07 2.12-4 4.15-5.77 6.1l1.13 1.41c1.76-1.92 3.65-3.92 5.68-6a176.09 176.09 0 0 0 15.23 18.53c-1.48 1.88-2.87 3.71-4.22 5.5l1.29 1.22c1.33-1.78 2.71-3.59 4.17-5.45 3.59 3.73 7.23 7.28 10.86 10.53 3.17 2.84 6.4 5.51 9.64 8.1-1.1 1.68-2.14 3.32-3.16 4.95l1.41 1.06c1-1.61 2-3.25 3.13-4.91a269 269 0 0 0 24.54 17.2c-.81 1.57-1.58 3.1-2.32 4.62l1.53.89c.74-1.51 1.5-3 2.31-4.6 4.09 2.5 8 4.78 11.81 6.86h3.71c-4.63-2.61-9.54-5.4-14.7-8.55zm6.39-14.94a242 242 0 0 1-22.1-17.32c3.22-4.19 6.69-8.39 10.37-12.51 2.68 2.68 5.38 5.27 8.08 7.69 3.84 3.44 7.76 6.65 11.69 9.73-2.87 4.13-5.56 8.29-8.04 12.41zm-11.77-32.42a177.44 177.44 0 0 1-16-18.56 188.75 188.75 0 0 1 14.95-12.29 163.88 163.88 0 0 0 13.35 18.54c-4.33 3.94-8.47 8.07-12.31 12.3zm13.44-11a193.33 193.33 0 0 0 16.72 17.27c-3.31 4-6.42 8.12-9.33 12.25-3.88-3-7.76-6.22-11.55-9.62-2.69-2.41-5.38-5-8.05-7.67 3.81-4.19 7.9-8.29 12.21-12.22zm-30.44-9a151.4 151.4 0 0 1-10.63-16.85 199.43 199.43 0 0 1 17.37-11.4 142.58 142.58 0 0 0 8.3 15.9 190.41 190.41 0 0 0-15.05 12.33zm-11.47-18.49a133.18 133.18 0 0 1-9.15-21.89 205.94 205.94 0 0 1 20-9.16 130.42 130.42 0 0 0 6.6 19.6 200.47 200.47 0 0 0-17.45 11.45zm-1.46 1.07c-5.25 3.9-10.19 7.91-14.78 11.9a137.67 137.67 0 0 1-11.57-24c5.29-3.38 11-6.77 17.06-10a135 135 0 0 0 9.29 22.1zm.84 1.62a153.44 153.44 0 0 0 10.76 17c-4.49 4.15-8.71 8.4-12.64 12.64a161.56 161.56 0 0 1-12.79-17.8c4.59-3.98 9.46-7.96 14.67-11.84zm11.78 18.44A179.62 179.62 0 0 0 179 236.9c-3.72 4.16-7.21 8.38-10.46 12.6a192.34 192.34 0 0 1-18.2-18.72c3.88-4.21 8.06-8.44 12.52-12.56zm52.44 64.41a289.3 289.3 0 0 1-21.91-13.64c2.46-4.07 5.12-8.2 8-12.32 6.74 5.2 13.49 9.85 20 14-2.2 3.98-4.23 7.99-6.09 11.96zm6.93-13.53c-6.47-4.11-13.17-8.73-19.85-13.89 2.88-4.09 6-8.16 9.24-12.14l.48.45c5.63 5 11.41 9.64 17.17 13.9-2.51 3.85-4.86 7.75-7.04 11.68zm24.88 14.18c-6.95-3.53-14.92-7.92-23.4-13.23a183.9 183.9 0 0 1 7-11.59c7 5.1 13.92 9.63 20.51 13.59q-2.22 5.63-4.11 11.23zm33-8.94c5.21 2.93 10.11 5.5 14.49 7.66-.62 3-1.18 6-1.64 9-2.63-1-8-3.24-15.17-6.65q.98-5 2.27-10.01zm-22-13.68c7.06 4.85 13.95 9.11 20.4 12.78q-1.33 5.06-2.37 10.09a300.48 300.48 0 0 1-22.73-12.24q2.14-5.34 4.68-10.63zm-18.82-14.23c5.76 4.81 11.59 9.21 17.36 13.23q-2.57 5.33-4.76 10.73c-6.5-3.92-13.32-8.38-20.21-13.41 2.32-3.6 4.89-7.12 7.59-10.55zm-5.83-5c1.48 1.33 3 2.58 4.5 3.86-2.72 3.46-5.28 7-7.7 10.65-5.7-4.22-11.42-8.77-17-13.76l-.48-.45c3.11-3.7 6.39-7.31 9.85-10.79 3.56 3.7 7.18 7.24 10.8 10.48zm-12.05-11.75c-3.48 3.5-6.79 7.12-9.91 10.84a191.06 191.06 0 0 1-16.56-17.12 154.2 154.2 0 0 1 12.67-10.18 177.34 177.34 0 0 0 13.77 16.45zm-14.81-17.9A156 156 0 0 0 193.78 222a161.78 161.78 0 0 1-13.22-18.4 153.47 153.47 0 0 1 15-9.56 152.39 152.39 0 0 0 11.01 17.73zm-11.82-19.24a155.4 155.4 0 0 0-15.11 9.62 140.76 140.76 0 0 1-8.18-15.74 160.91 160.91 0 0 1 16.79-8.31 136 136 0 0 0 6.47 14.42zm-7.07-16.15a162.12 162.12 0 0 0-16.93 8.36 128.77 128.77 0 0 1-6.48-19.35 164.59 164.59 0 0 1 18.57-5.88 128.34 128.34 0 0 0 4.81 16.85zm-5.24-18.55a166.82 166.82 0 0 0-18.57 5.88 125.49 125.49 0 0 1-3.12-22.23 170.65 170.65 0 0 1 19.43-4 128.05 128.05 0 0 0 2.23 20.33zm-21.1-37.1a168.47 168.47 0 0 1 19.48-1.52 136.09 136.09 0 0 0-.75 16.48 172.38 172.38 0 0 0-19.43 4 133.34 133.34 0 0 1 .66-18.98zm.84 43.63a208.07 208.07 0 0 0-20.21 9.17 125.41 125.41 0 0 1-4.72-24.25 213.32 213.32 0 0 1 21.7-7.34 127 127 0 0 0 3.2 22.4zm-24.94-38.87a210.58 210.58 0 0 1 22.25-4.5 134.63 134.63 0 0 0-.64 19.22 214.85 214.85 0 0 0-21.7 7.29 130.59 130.59 0 0 1 .06-22.03zm3.16 48.92c-6.06 3.22-11.77 6.59-17.07 10a125.69 125.69 0 0 1-6.12-26.05c5.67-2.84 11.79-5.68 18.32-8.33a126.81 126.81 0 0 0 4.84 24.36zm-5-48.44a132 132 0 0 0 0 22.19 258.19 258.19 0 0 0-18.49 8.35 130.18 130.18 0 0 1-.27-24.75c5.84-2.08 12.12-4.05 18.72-5.77zm-35.9-7.35c5.37-2.42 11.68-5.05 18.7-7.63a148.66 148.66 0 0 0-3.23 19.47c-6.86 2.44-13.1 5-18.53 7.33a146.18 146.18 0 0 1 3.02-19.19zM96.4 139.8c5.37-2.37 11.57-4.9 18.43-7.36a131.09 131.09 0 0 0 .46 24.92c-6.68 3.39-12.66 6.75-17.75 9.8a128.1 128.1 0 0 1-1.18-27.38zm1.38 29.2c5.05-3.05 11-6.45 17.74-9.86a127.39 127.39 0 0 0 6.25 26.2c-6 3.89-11.44 7.73-16.2 11.31A127.06 127.06 0 0 1 97.78 169zm8.5 29.3c4.71-3.56 10.09-7.39 16.06-11.27a139.51 139.51 0 0 0 11.77 24.2c-5 4.4-9.5 8.74-13.55 12.84a144.11 144.11 0 0 1-14.28-25.75zm30.39 45.7a173.9 173.9 0 0 1-15.08-18.42c4-4.08 8.51-8.39 13.46-12.77A163.74 163.74 0 0 0 148 230.73c-4.12 4.5-7.9 8.96-11.33 13.27zm21.61 19.83c-3.17-2.54-6.33-5.16-9.44-7.94-3.66-3.28-7.32-6.85-10.93-10.62 3.4-4.27 7.14-8.7 11.21-13.17a194.92 194.92 0 0 0 18.33 18.82c-3.31 4.36-6.36 8.69-9.17 12.9zM184 282a267 267 0 0 1-24.38-17.11c2.78-4.19 5.82-8.5 9.1-12.84A243.88 243.88 0 0 0 191 269.51c-2.52 4.27-4.83 8.49-7 12.49z"/><path class="cls-5" d="M259.77 70.2c-12.41-2.52-127.07-18.78-161 48.31 23.06-9.88 148.23-47.19 159.88 83.85 2.15 26.05 20.53 45.28 68.82 45.57 56.73-1.61 54.18-50.12 54.18-50.12S378.17 94.79 259.77 70.2z"/><path class="cls-4" d="M198.09 358.08c.29 3.05.66 6.26 1.15 9.62-6-.42-11.68-.9-16.93-1.41-.19-2.08-.33-4-.44-5.91-.56.15-1.13.3-1.67.45q.16 2.52.4 5.29-5.77-.57-10.76-1.15c-.78.41-1.53.84-2.26 1.28 4 .47 8.34 1 13.15 1.44.42 4.4 1 9.22 1.91 14.32-5.7-.53-10.95-1.09-15.61-1.64-.59-5-.92-9.39-1.09-13.08-.55.37-1.12.72-1.64 1.11.19 3.4.5 7.35 1 11.77-3.9-.47-7.36-.92-10.3-1.32 0-.48 0-.93.07-1.37q-1 1.33-1.86 2.67c-.16 4.17-.23 9.56.08 15.93-2.34-.33-4.48-.66-6.45-1-.14.56-.27 1.11-.38 1.65 2.11.34 4.4.69 6.93 1.05.28 4.86.78 10.18 1.59 15.83-3.5-.49-6.59-1-9.33-1.41.06.54.13 1.12.21 1.75 2.76.45 5.88.92 9.39 1.41.79 5.15 1.85 10.54 3.26 16.06-3.5-.46-6.66-.91-9.49-1.35.15.58.31 1.18.48 1.78 2.85.43 6 .88 9.49 1.33a146.79 146.79 0 0 0 5.4 16.3c-3.38-.4-6.46-.8-9.32-1.2.24.6.49 1.19.74 1.8 2.86.39 5.94.79 9.3 1.18a126.68 126.68 0 0 0 8.26 16.52c-3.26-.33-6.3-.67-9.17-1 .36.61.72 1.22 1.09 1.83 2.9.34 5.95.67 9.22 1a112.86 112.86 0 0 0 11.19 15c-3.37-.27-6.55-.54-9.64-.81.5.61 1 1.22 1.53 1.83 3.12.27 6.34.54 9.74.81a107.91 107.91 0 0 0 9.92 9.49c2.49 2.09 5.14 4 7.82 5.88q-6.48-.45-12.38-1c.74.64 1.49 1.27 2.25 1.9q6.12.52 12.83 1A126.61 126.61 0 0 0 240.49 519c-6.09.3-11.65.46-16.67.55q2 .82 4.11 1.62c5.44-.14 11.43-.37 17.94-.76a195.09 195.09 0 0 0 50.47 6.18c4.43 0 9-.15 13.63-.41 3.85-.77 7.88-1.64 12-2.6-26.61 2.39-50.28 1.26-70.83-3.52 14.37-1 30.9-2.72 48.82-5.59 7.51.74 15.2 1.23 23.28 1.23a306 306 0 0 0 32.32-1.86c-1.23.48-2.45.93-3.68 1.39A257.24 257.24 0 0 0 394.6 497q-2.37.44-4.83.83a274.62 274.62 0 0 1-28.32 13.62 286.52 286.52 0 0 1-54.76 1.86 502.44 502.44 0 0 0 50.91-11.55q12.36-1 25.51-3a154.14 154.14 0 0 1-24.69 1l-1.17.34a266.77 266.77 0 0 1-37.87.42q9.78-1.33 19.62-3.16-2.07-.44-4.13-1c-8.07 1.4-16.14 2.55-24.14 3.49a169.86 169.86 0 0 1-43-9.87q8.54.11 17.51.11c10.16 0 20.76-.12 31.72-.37q-1.56-.78-3.09-1.64c-18.06.37-35.08.38-50.88.12a127.79 127.79 0 0 1-26.49-15.07c8.18.19 16.73.32 25.94.32h5.78c13.35 6.91 28.48 11.65 45.19 14.41-1.35-.77-2.69-1.57-4-2.42a149.27 149.27 0 0 1-37.2-12c7.25-.06 14.71-.16 22.53-.35-.5-.54-1-1.1-1.47-1.66q-12.78.3-24.49.36a121.8 121.8 0 0 1-20.56-13.37c-.95-.77-1.83-1.57-2.74-2.35q8.17.12 17 .12c5.23 0 10.69 0 16.26-.12 1.77.94 3.63 1.79 5.47 2.65q-.76-1.3-1.5-2.65l-.15-.07h.11c-.3-.56-.6-1.11-.89-1.68h-2.6a117.6 117.6 0 0 1-19.26-12.84c-1.07-.88-2.08-1.8-3.1-2.71h5.65c4.14 0 8.43 0 12.82-.09-.19-.56-.38-1.12-.56-1.69q-10.32.1-19.85 0a113 113 0 0 1-14.05-15.82c6.9.13 14 .23 21.63.23h.54c2.3 2.31 4.69 4.58 7.27 6.74.79.66 1.63 1.25 2.45 1.89q-.33-1.29-.64-2.62l-.7-.56c-2.11-1.76-4.08-3.6-6-5.46h5.39c-.11-.56-.21-1.13-.31-1.69h-6.77a110.82 110.82 0 0 1-12.82-15.69c3.8 0 7.56.08 11.55.08h5.92c0-.22 0-.42-.07-.64s-.07-.71-.11-1.07h-18.39a123.57 123.57 0 0 1-8.77-16.24c7.42-.06 14.93-.26 22.46-.69-.26-.5-.53-1-.81-1.49-7.48.43-15 .65-22.31.7a141.24 141.24 0 0 1-5.21-14h4.18c3.69 0 7.41-.06 11.15-.15q-1.09-.77-2.25-1.51c-4.57.08-9.11.13-13.58.08q-1.06-3.48-1.93-6.9l-1.86-.53c.61 2.45 1.28 4.93 2 7.42-5.14-.06-10.19-.21-15.12-.4-.75-3.35-1.37-6.61-1.9-9.8l-1.74-.18c.53 3.22 1.15 6.52 1.9 9.91-5.17-.22-10.2-.5-15-.83-.5-3.43-.88-6.71-1.18-9.82h-.26c-.54.05-.97.11-1.45.13zm-15.17 25.5c.92 5.15 2.09 10.56 3.62 16.14q-9-.74-16.57-1.56a195.66 195.66 0 0 1-2.74-16.21c4.68.54 9.96 1.05 15.68 1.62zm9.55 33.91q-9.67-.71-17.75-1.52c-1.78-5.52-3.21-10.91-4.36-16.06 5 .54 10.66 1.05 16.67 1.54a165.77 165.77 0 0 0 5.43 16.04zm-3.64-15.9c5.87.46 12.25.87 19.06 1.23a149 149 0 0 0 6.85 16q-11-.5-20.4-1.18a163.14 163.14 0 0 1-5.52-16.05zm4.35 17.65A145.79 145.79 0 0 0 201 435.4q-10.49-.65-19.34-1.45a161.77 161.77 0 0 1-6.4-16.24c5.47.55 11.4 1.06 17.91 1.53zm8.82 17.92a129.48 129.48 0 0 0 11.2 16.23q-11.66-.55-21.56-1.3a142.89 142.89 0 0 1-9.11-16.37c5.95.53 12.4 1.02 19.47 1.44zm12.7 18a120.2 120.2 0 0 0 16.52 16.23c-9.13-.26-17.55-.63-25.37-1.06a128.51 128.51 0 0 1-13.06-16.46c6.72.49 14 .93 21.89 1.29zM204 437.28c7 .41 14.59.74 22.67 1a119.24 119.24 0 0 0 14.26 16q-13.62-.26-25.46-.8a127.11 127.11 0 0 1-11.47-16.2zm-1-1.77a143.27 143.27 0 0 1-8-16.15c6.39.45 13.17.85 20.58 1.18a131 131 0 0 0 9.8 16q-11.98-.39-22.38-1.02zm6.7-32.6c5.81.3 11.89.56 18.39.77a126.88 126.88 0 0 0 9.36 15.88q-11-.25-20.8-.68a146.37 146.37 0 0 1-6.94-15.96zm-.6-1.71a166.86 166.86 0 0 1-4.74-16q7.94.47 16.41.74a145 145 0 0 0 6.51 16c-6.38-.18-12.45-.43-18.17-.73zm-1.82-.09q-10.21-.55-19-1.26c-1.54-5.57-2.73-11-3.66-16.13 5.61.5 11.62 1 17.95 1.36 1.31 5.24 2.82 10.6 4.72 16.04zm-52.34-20.71c3 .41 6.54.87 10.55 1.35.62 5 1.48 10.41 2.7 16.22q-7.31-.81-13.15-1.63c-.32-6.34-.26-11.78-.1-15.94zm.19 17.65c4 .55 8.47 1.11 13.44 1.65a182 182 0 0 0 4.31 16.08c-6-.62-11.42-1.26-16.12-1.89-.83-5.66-1.34-10.99-1.63-15.89zm1.87 17.57c4.8.64 10.26 1.29 16.41 1.92a164.38 164.38 0 0 0 6.3 16.24c-7.31-.67-13.77-1.38-19.39-2.1-1.42-5.52-2.49-10.9-3.32-16.06zm3.81 17.83c5.74.72 12.28 1.44 19.73 2.11a145.64 145.64 0 0 0 8.94 16.37c-8.74-.67-16.46-1.43-23.18-2.2a144.18 144.18 0 0 1-5.47-16.28zm6.19 18.06c6.89.78 14.67 1.54 23.62 2.22a130.75 130.75 0 0 0 12.72 16.46c-10.46-.62-19.75-1.36-27.86-2.16a124.27 124.27 0 0 1-8.48-16.52zm9.63 18.33c8.3.8 17.73 1.54 28.41 2.15a124.31 124.31 0 0 0 13.76 12.54c1.12.87 2.33 1.61 3.48 2.45-12.55-.6-24-1.33-34.16-2.12a110.37 110.37 0 0 1-11.45-15.02zm21.69 24.86a106.1 106.1 0 0 1-8.51-8c10.48.79 22.18 1.52 35.05 2.11A135.66 135.66 0 0 0 252 503.39c-15.74.09-30.49-.45-43.65-1.3a111 111 0 0 1-9.99-7.4zm47.58 24a128.74 128.74 0 0 1-34.47-14.7c11.46.68 24 1.13 37.33 1.13 2.61 0 5.28 0 7.94-.07a173.62 173.62 0 0 0 36.51 8.74 555.69 555.69 0 0 1-47.28 4.87zm65.27-17.1a232.31 232.31 0 0 0 23.2 1.24c4.74 0 9.6-.14 14.55-.4-17.18 4.54-33.81 7.91-49.38 10.4a180.19 180.19 0 0 1-38.18-7.84c15.94-.38 32.74-1.42 49.84-3.44zm-7.87-.83c-15.94 1.62-31.54 2.4-46.34 2.61a136.71 136.71 0 0 1-29-14.42q16.25.7 34.78 1a163.65 163.65 0 0 0 40.59 10.78zm-44.39-12.57c-11.87-.23-23-.6-33.47-1.07-1.86-1.3-3.76-2.54-5.54-3.93a122.47 122.47 0 0 1-12.32-11.08c8 .43 16.64.79 26 1a128.22 128.22 0 0 0 25.33 15.08zm-11.73-28.45a122.94 122.94 0 0 0 18.15 12.06q-16.71 0-31.19-.35c-.48-.37-1-.69-1.46-1.06A118.35 118.35 0 0 1 217 455.26c8 .35 16.65.6 25.85.76 1.4 1.26 2.83 2.52 4.33 3.73zm11.66-16.89a119 119 0 0 0 17.1 11.57c-11.56.13-22.35.08-32.44-.08a117.08 117.08 0 0 1-14.61-16c7.9.24 16.4.38 25.33.45 1.49 1.39 3.02 2.74 4.61 4.06zm-6.39-5.73q-13.2-.11-24.86-.5a128.56 128.56 0 0 1-10-16c6.61.28 13.7.49 21.12.65a115.3 115.3 0 0 0 13.74 15.85zm8.9-17.29c-7.59 0-14.86-.08-21.74-.22a124.47 124.47 0 0 1-9.61-15.86c6 .18 12.3.29 18.84.37a112.72 112.72 0 0 0 12.5 15.7zm-13.53-17.4c-6.5-.08-12.7-.22-18.62-.4a142.32 142.32 0 0 1-6.62-16.04c4.82.13 9.71.23 14.69.23h1.89a125.93 125.93 0 0 0 8.65 16.2zm-14.48-31.78a143.49 143.49 0 0 0 5.14 14c-5.56 0-11-.07-16.39-.22-1.59-4.79-2.94-9.54-4-14.17q7.44.29 15.25.38zm-17-.46c1.07 4.64 2.41 9.39 4 14.2-5.6-.18-11-.44-16.3-.75-1.16-4.93-2.09-9.72-2.8-14.27 4.82.32 9.87.62 15.07.81zm-14.07 13.34c-6.29-.39-12.28-.86-17.85-1.36-.88-5.1-1.51-9.92-1.94-14.33 5.29.51 11 1 17 1.41.69 4.54 1.61 9.33 2.76 14.27z"/><path class="cls-6" d="M356.27 314.67H216.42c49.31 19.22 107.9 89 115.62 104.47 27.82 51.17-11 75.17-20.89 78.56s-91.41 27.37-132.8-11.1c14.43 22.9 40 34.89 57.05 42.52s47.83 11.82 64 13.78c102.31 12.45 138.36-45.21 138.36-45.21 69.63-103.69-81.49-183.02-81.49-183.02z"/></svg>