<svg enable-background="new 0 0 3067.8 855.2" viewBox="0 0 3067.8 855.2" xmlns="http://www.w3.org/2000/svg"><g fill="#554741"><path d="m243.7 484.4c-23.9-13-54.8-18.3-79.6-22.7l-10.5-1.8c-26.1-4.3-50.8-8.4-69.1-16.8-20.1-9.2-29.4-22.2-29.4-41.1 0-48.3 51.7-58.4 95.1-58.4 29.4 0 58.5 6.4 84 18.4 1 .5 1.6 1.5 1.6 2.7v37.3c0 8.2 6.7 14.9 15 14.9 8.1 0 14.6-6.3 14.9-14.4l1.5-48.4c.2-5.6-2.9-11-7.8-13.6-33.2-17.8-69.8-27.1-105.9-27.1h-3.2c-80.9 0-127.2 32.3-127.2 88.7 0 69 76 80.8 126.4 88.6 33.4 4.9 57.6 9.8 75.5 18.6 20 9.9 29.3 24 29.3 44.3 0 60.4-85 63.5-102 63.5-31.2 0-69-9.9-98.7-25.8-.9-.5-1.4-1.5-1.4-2.6v-38.9c0-8.9-7.6-15.7-17-14.8-7.6.7-13.3 7.4-13.3 15.1v50.5c0 5.5 3 10.6 7.9 13.2 40.6 21.7 72 33.5 121.2 33.5 16.7 0 49-1.8 78-14 36.9-15.5 55.8-42.1 56.2-79.1.3-31.6-13.2-54.4-41.5-69.8z"/><path d="m671.7 319.6h-103.9c-8.6 0-15.5 7.3-15 16.1.4 7.8 7.7 14.1 15.5 14.1h31.5c.7 0 1.4.2 1.9.7 1 .9 1.3 2.2.8 3.3l-67 164.7-28.5 73.7c-.7 1.7-2.3 1.9-2.7 1.9-1.3 0-2.2-.7-2.7-1.8l-28.9-72-71.1-166.3c-.4-.9-.3-1.9.3-2.8.6-.8 1.4-1.3 2.4-1.3h32.4c8.6 0 15.5-7.3 15-16.1-.4-7.8-7.7-14.1-15.5-14.1h-107c-8.6 0-15.5 7.3-15 16.1.4 7.8 7.7 14.1 15.5 14.1h35.1c1.2 0 2.2.7 2.7 1.8l120.6 280.9c.3.7.3 1.6 0 2.3l-42 97.5c-10.4 23.3-25.4 35.6-43.4 35.6-10.9 0-22.8-4.3-35.3-12.7-2.3-1.6-5.1-2.4-8.1-2.4-5.1 0-9.9 2.5-12.6 6.6l-.9 1.4c-2.2 3.4-2.9 7.4-2.1 11.3.9 3.9 3.2 7.2 6.5 9.4 17.6 11.5 35.2 17.3 52.1 17.3 32.2 0 58.8-20.7 73-56.8l163.2-390.5c.5-1.1 1.5-1.8 2.7-1.8h31.1c8.6 0 15.5-7.3 15-16.1-.6-7.7-7.8-14.1-15.6-14.1z"/><path d="m932.6 484.4c-23.9-13-54.8-18.3-79.6-22.7l-10.5-1.8c-26.1-4.3-50.8-8.4-69.1-16.8-20.1-9.2-29.4-22.2-29.4-41.1 0-48.3 51.7-58.4 95.1-58.4 29.5 0 58.5 6.4 84 18.4 1 .5 1.6 1.5 1.6 2.7v37.3c0 8.8 7.8 15.9 17 14.7 6.9-.9 12.7-7.8 12.9-14.8l1.4-47.9c.2-5.6-2.9-11-7.8-13.6-33.2-17.8-69.8-27.1-105.9-27.1h-3.2c-80.9 0-127.2 32.3-127.2 88.7 0 69 76 80.8 126.4 88.6 33.4 4.9 57.6 9.8 75.5 18.6 20 9.9 29.3 24 29.3 44.3 0 60.4-85 63.5-102 63.5-31.2 0-69-9.9-98.7-25.8-.9-.5-1.4-1.5-1.4-2.6v-38.9c0-8.9-7.6-15.7-17-14.8-7.6.7-13.3 7.4-13.3 15.1v50.5c0 5.5 3 10.6 7.9 13.2 40.6 21.7 72 33.5 121.2 33.5 16.7 0 49-1.8 78-14 36.9-15.5 55.8-42.1 56.2-79.1.4-31.5-13.1-54.3-41.4-69.7z"/><path d="m1212.9 604.7c-2 0-3.9.4-5.7 1.2-16.6 7.2-34.8 11.8-46.4 11.8-47.3 0-55.9-24.8-55.9-73.6v-196.6c.1-.1.1-.1.1-.1h96.9c8.4 0 15.2-7.5 14-16.3-.9-6.7-7.7-12.1-14.4-12.1h-96.5c-.1-.1-.1-.1-.1-.1v-83.1c0-6.7-5.4-12.1-12-12.1-.4 0-.9 0-1.3.1l-6.7.7c-6.2.6-10.9 5.8-10.9 12v82.4c-.1.1-.1.1-.1.1h-54c-8.4 0-15.2 7.5-14 16.3.9 6.7 7.7 12.1 14.4 12.1h53.5c.1.1.1.1.1.1v196.6c0 22.2 1.7 50.3 15 70.9 13.8 21.4 37.7 32 73.1 32.3 16.3 0 37.6-5.2 56.9-14 2.9-1.3 5.4-3.4 6.9-6.1 2.7-4.6 2.7-10 .3-14.6-2.4-4.8-7.6-7.9-13.2-7.9z"/><path d="m1407.5 315.2c-93.1 0-160.7 70-160.7 166.4 0 112.6 83.6 163.9 161.3 163.9 53.1 0 104.3-21.4 133.7-55.8 2.7-3.2 4-7.3 3.5-11.5s-2.7-7.9-6.3-10.5c-2.5-1.8-5.4-2.8-8.6-2.8-4.4 0-8.5 1.8-11.2 5-23.5 27.1-68.1 45.3-111.1 45.3-89 0-125.9-67.5-130.4-125.2-.1-1.9-.3-7.6-.3-9.6 0-1.7.3-7.1.3-7.2 5.2-77.5 56.1-127.7 129.8-127.7 41.3 0 73.9 10.4 96.8 30.9s34.8 49.8 35.5 87.2c0 .9-.3 1.7-.9 2.3s-1.3.9-2.1.9h-205.7c-8.4 0-15.2 7.2-14.7 15.8.4 7.6 7.6 13.9 15.2 13.9h222.9c7.8 0 14.4-6.1 14.8-13.8 3.2-49.5-9.2-89.6-37-119.2-28.9-31.2-73.3-48.3-124.8-48.3z"/><path d="m2056.7 317.9c-12.5-3.1-25.3-4.6-38-4.6-53.7 0-98.4 27.2-119.6 72.9-19.2-45.3-64.8-72.3-122.3-72.3-43.9 0-79.8 17.2-101.2 48.5v-31c0-6.5-5.3-11.8-11.8-11.8h-64.9c-9.1 0-16.3 8.1-15.1 17.5 1 7.2 8.3 13.1 15.5 13.1h44.3v284.4c0 6.5 5.3 11.8 11.8 11.8h8.4c6.5 0 11.8-5.3 11.8-11.8v-184.4c0-60.7 40.7-103.2 101.2-105.7 62.9 0 106.9 43.5 106.9 105.7v181.1c0 9.1 8.1 16.3 17.5 15.1 7.2-1 13.1-8.3 13.1-15.5v-180.7c0-62.6 42.9-106.3 104.4-106.3 62.8 0 105 41.7 105 103.7v187.1c0 6.5 5.3 11.8 11.8 11.8h8.4c6.5 0 11.8-5.3 11.8-11.8v-188.6c-.1-65.1-37.1-113.1-99-128.2z"/><path d="m2642 396.7c-25.6 67.6-24.3 132.7 4 188.5 4.9 9.6 10.5 19 16.8 27.8 32.5 45.9 81.1 76.3 136.8 85.7 5.7 1 11.5 1.7 17.1 2.2 6.2.6 12.6.8 18.9.8 43.8 0 85.9-13.1 121.7-37.9 46.2-32 76.7-79.9 85.9-134.7s-4-110-37.1-155.4c-33-45.2-81.9-75.2-137.7-84.6-3.2-.5-6.4-1-9.5-1.4-7.8-.9-15.8 1.6-21.6 6.8-5.7 5.1-9 12.2-9.2 19.8-.4 14.5 10.1 26.5 24.2 28.3 2.3.3 4.7.6 7 1 41.2 6.9 77.3 29.1 101.8 62.3 24.6 33.4 34.4 73.8 27.6 114-6.4 37.9-27.1 71.6-58.4 95-27.5 20.6-60.2 31.4-94.7 31.4-4.7 0-9.5-.2-14.2-.6-4.2-.4-8.5-.9-12.7-1.6-40.7-6.9-76.4-29.2-100.5-62.8-13.4-18.8-22.4-40.9-25.9-64-6.9-45.4 6.8-103.1 36.5-154.4.2-.4 5.1-9.2 13-23.4 35.3-63.9 142-256.8 151.2-273.9l2.7-8.2c4.2-12.6-1.2-26.4-12.9-32.8l-.6-.3c-4.1-2.3-8.7-3.4-13.3-3.4-8.3 0-16 3.6-21.3 10l-5.1 6.2-160.7 293.6c-10.2 20.5-21 42.9-29.8 66z"/><path d="m2294.8 830.5.7.4c4.2 2.3 8.9 3.4 13.6 3.4 10.7 0 20.4-5.8 25.5-15.2l278.4-516.4c6.9-12.8 3.1-28.7-8.6-37.1l-.4-.3c-4-3.2-11.9-5.5-18.5-5.5h-364.7c-13.6 0-24.9 11.1-25.3 24.7v1c-.1 4.7 1.2 9.4 3.8 13.5l71.8 120.9c4.5 7.3 12.6 11.7 21.4 11.7 4.8 0 9.6-1.4 13.8-4 6-3.8 10.2-9.4 11.8-16 1.7-6.7.6-13.5-3-19.3l-48.3-81.4h275.3l-259.1 480.5c-3.6 6.8-4.4 14.6-2.2 22s7.2 13.5 14 17.1z"/></g><path d="m3002.8 833.6h-335.1c-16.2 0-29.3-13.1-29.3-29.3v-.6c0-16.2 13.1-29.3 29.3-29.3h335.1c16.2 0 29.3 13.1 29.3 29.3v.6c0 16.2-13.1 29.3-29.3 29.3z" fill="#faa41a"/></svg>