<svg xmlns="http://www.w3.org/2000/svg" width="176" height="78.667" viewBox="0 0 176 78.666664"><g transform="matrix(.13333 0 0 -.13333 0 78.667)" fill="#231f20"><path d="M687.227 524.531c166.523 108.25 326.253 30.821 370.473-2.633-78.423-66.328-111.919-150.96-111.919-150.96s-81.426 143.246-258.554 153.593M40.219 204.914c.402-8.398 3-14.199 7.8-17.402 4.797-3.196 11.2-4.797 19.2-4.797 2.8 0 5.562.265 8.3.801 2.727.527 5.165 1.367 7.297 2.5 2.133 1.132 3.868 2.629 5.203 4.504 1.333 1.863 2 4.128 2 6.793 0 3.207-1.171 5.8-3.5 7.804-2.335 1.992-5.433 3.731-9.3 5.196-3.867 1.464-8.235 2.761-13.102 3.906a320.14 320.14 0 0 0-15.098 3.894 162.952 162.952 0 0 0-15.101 5.2c-5 2-9.469 4.57-13.399 7.703-3.937 3.125-7.136 7.004-9.601 11.601-2.473 4.602-3.7 10.164-3.7 16.699 0 7.727 1.766 14.368 5.301 19.903 3.532 5.527 8.102 10.031 13.696 13.496 5.601 3.469 11.87 5.996 18.804 7.598 6.93 1.601 13.731 2.402 20.403 2.402a81.9 81.9 0 0 0 20.894-2.703c6.868-1.797 12.965-4.563 18.305-8.293 5.328-3.739 9.66-8.504 12.996-14.305 3.328-5.805 5-12.695 5-20.695H85.422c.125 3.195-.473 5.898-1.805 8.094a15.574 15.574 0 0 1-5.297 5.304c-2.203 1.328-4.703 2.297-7.5 2.903-2.8.593-5.601.898-8.402.898-1.996 0-4.066-.207-6.203-.605-2.133-.403-4.067-1.067-5.793-1.997a12.896 12.896 0 0 1-4.305-3.699c-1.133-1.531-1.699-3.508-1.699-5.898 0-2.801 1.168-5.078 3.504-6.805 2.328-1.73 5.46-3.273 9.398-4.601 3.93-1.329 8.364-2.532 13.301-3.594 4.926-1.074 10-2.344 15.2-3.809a132.505 132.505 0 0 0 15.195-5.293c4.929-2.07 9.336-4.668 13.203-7.804 3.867-3.133 6.996-7 9.398-11.598 2.399-4.602 3.602-10.102 3.602-16.496 0-9.074-1.77-16.668-5.301-22.801-3.535-6.137-8.203-11.035-13.996-14.699-5.801-3.672-12.438-6.309-19.902-7.903-7.473-1.597-15.133-2.398-23-2.398-8.27 0-16.102.926-23.5 2.801-7.403 1.867-13.97 4.863-19.704 8.996-5.73 4.129-10.296 9.402-13.695 15.801-3.402 6.394-5.101 14.199-5.101 23.398h37.199"/><path d="M192.816 222.715a13.26 13.26 0 0 1-1.398 5.996 15.575 15.575 0 0 1-3.699 4.805 16.86 16.86 0 0 1-5.301 3.093 17.813 17.813 0 0 1-6.195 1.106c-4.805 0-8.641-.938-11.504-2.801-2.867-1.867-5.071-4.23-6.598-7.101-1.539-2.872-2.57-6.133-3.101-9.793a74.85 74.85 0 0 1-.801-10.911c0-3.332.367-6.629 1.097-9.89.735-3.274 1.934-6.172 3.602-8.703a20.741 20.741 0 0 1 6.301-6.203c2.531-1.598 5.601-2.399 9.199-2.399 6.004 0 10.531 1.57 13.602 4.695 3.066 3.137 5 7.5 5.796 13.106h33c-.796-6.934-2.668-13.133-5.593-18.606-2.938-5.464-6.707-10.066-11.305-13.796-4.602-3.731-9.898-6.563-15.898-8.497-6-1.933-12.473-2.898-19.399-2.898-7.871 0-15.105 1.27-21.699 3.797-6.606 2.531-12.336 6.133-17.203 10.801-4.867 4.668-8.668 10.261-11.403 16.797-2.734 6.535-4.097 13.796-4.097 21.796 0 8.274 1.265 15.871 3.801 22.805 2.527 6.934 6.168 12.899 10.898 17.899 4.73 5 10.434 8.906 17.098 11.699 6.668 2.801 14.207 4.199 22.605 4.199 6.399 0 12.563-.867 18.5-2.598 5.926-1.738 11.231-4.297 15.899-7.695 4.664-3.406 8.464-7.676 11.402-12.805 2.93-5.133 4.73-11.101 5.398-17.898h-33.004m36.997 77.004h34v-53.203h.402c1.328 2.664 3.129 5.066 5.398 7.195 2.266 2.141 4.828 3.934 7.7 5.398a42.385 42.385 0 0 0 9.097 3.403c3.203.801 6.336 1.199 9.406 1.199 8.661 0 15.497-1.398 20.497-4.199 5-2.793 8.73-6.231 11.203-10.293 2.464-4.074 4.027-8.438 4.695-13.106.672-4.668 1.004-8.867 1.004-12.597v-66.602h-34v60.598c0 3.465-.504 6.531-1.5 9.207-1 2.656-2.672 4.824-5 6.496-2.332 1.668-5.836 2.5-10.504 2.5-3.195 0-5.965-.637-8.301-1.899-2.332-1.265-4.23-2.937-5.695-5-1.473-2.066-2.57-4.441-3.301-7.097a30.831 30.831 0 0 1-1.101-8.203v-56.602h-34v142.805"/><path d="M336.41 228.711c.266 6.809 1.867 12.473 4.801 17.004 2.93 4.531 6.734 8.133 11.402 10.801 4.66 2.664 9.828 4.531 15.496 5.593 5.664 1.075 11.5 1.602 17.5 1.602 6.133 0 12.102-.43 17.903-1.297 5.801-.871 10.965-2.57 15.496-5.101 4.531-2.54 8.172-6.063 10.906-10.594 2.727-4.539 4.094-10.469 4.094-17.801v-45.402c0-4.407.168-8.907.504-13.504a35.689 35.689 0 0 1 3.5-13.098h-34.199c-.668 1.602-1.102 3.203-1.301 4.805a227.272 227.272 0 0 1-.699 5c-4.399-4.676-9.633-7.969-15.7-9.903-6.07-1.933-12.234-2.898-18.5-2.898-4.937 0-9.57.633-13.902 1.895-4.336 1.269-8.102 3.203-11.297 5.796-3.203 2.61-5.703 5.871-7.5 9.809-1.805 3.926-2.703 8.562-2.703 13.895 0 5.605.934 10.261 2.801 14.003 1.863 3.731 4.398 6.797 7.601 9.2 3.2 2.402 6.864 4.265 11 5.593a97.047 97.047 0 0 0 12.895 3.204c4.469.8 8.937 1.464 13.406 2.003 4.461.528 8.699 1.204 12.699 2 2.93.664 5.164 1.633 6.7 2.903 1.531 1.261 2.296 3.496 2.296 6.699 0 1.992-.531 3.664-1.597 5-1.071 1.328-2.399 2.434-4 3.301-1.602.859-3.371 1.496-5.297 1.894-1.942.403-3.774.606-5.504.606-9.731 0-15.402-4.336-16.996-13.008zm29.801-41.992c0-4.278 1.402-7.305 4.199-9.102 2.805-1.804 6.133-2.703 10-2.703 8.129 0 13.731 2.399 16.801 7.195 3.066 4.805 4.398 12.61 4 23.411-2.398-1.477-5.566-2.5-9.5-3.106a92.845 92.845 0 0 1-11.5-2.5c-3.867-.93-7.168-2.336-9.898-4.199-2.735-1.867-4.102-4.863-4.102-8.996m178.398-29.805h-33v14.199h-.398c-3.203-5.332-7.77-9.531-13.699-12.597-5.934-3.067-11.903-4.598-17.903-4.598-7.468 0-13.668 1.031-18.597 3.094-4.938 2.07-8.871 5.031-11.801 8.906-2.938 3.855-5 8.523-6.203 13.996-1.195 5.469-1.797 11.602-1.797 18.399v62.402h34V200.52c0-6.934 1.43-11.77 4.301-14.504 2.863-2.735 7.031-4.102 12.5-4.102 1.867 0 3.863.332 5.996.996 2.133.676 4.133 1.903 6 3.699 1.867 1.809 3.433 4.172 4.703 7.102 1.266 2.93 1.898 6.738 1.898 11.406v55.598h34V156.914m35.196 34.199c0-2.668.504-4.929 1.504-6.797.996-1.875 2.363-3.464 4.097-4.804 1.602-1.199 3.5-2.098 5.703-2.696 2.196-.605 4.496-.898 6.899-.898 1.597 0 3.332.195 5.199.598a19.256 19.256 0 0 1 5.199 1.902 12.203 12.203 0 0 1 4 3.398c1.067 1.399 1.602 3.098 1.602 5.098 0 2.004-.602 3.633-1.801 4.902-1.199 1.258-2.637 2.293-4.301 3.098a23.496 23.496 0 0 1-5.402 1.805c-1.934.39-3.633.793-5.098 1.191a282.396 282.396 0 0 1-16.5 3.606c-5.668 1.062-10.867 2.703-15.597 4.902-4.739 2.195-8.598 5.223-11.602 9.102-3 3.855-4.496 9.324-4.496 16.394 0 6.27 1.496 11.438 4.496 15.5 3.004 4.07 6.832 7.305 11.5 9.695 4.668 2.403 9.797 4.102 15.398 5.11 5.602.996 10.934 1.492 16 1.492 5.735 0 11.368-.496 16.903-1.492 5.531-1.008 10.562-2.739 15.105-5.207 4.532-2.469 8.223-5.867 11.094-10.196 2.871-4.336 4.434-9.902 4.707-16.699h-31.406c0 4.133-1.469 7.129-4.399 8.992-2.671 1.743-6.269 2.61-10.8 2.61-1.469 0-3.039-.078-4.704-.203a18.3 18.3 0 0 1-4.699-.996c-1.468-.54-2.699-1.34-3.699-2.407-1-1.07-1.5-2.468-1.5-4.195 0-2.402 1.266-4.406 3.801-6.008 2.527-1.594 5.699-2.898 9.5-3.894a154.082 154.082 0 0 1 12.5-2.7c4.531-.796 8.73-1.597 12.594-2.398 5.207-1.074 9.511-2.734 12.91-5 3.398-2.277 6.093-4.738 8.093-7.402 2.004-2.668 3.403-5.403 4.204-8.203.796-2.793 1.199-5.266 1.199-7.395 0-6.934-1.504-12.773-4.5-17.5-3-4.734-6.867-8.535-11.594-11.406-4.746-2.871-10.078-4.93-16.008-6.199-5.933-1.262-11.836-1.895-17.699-1.895a97.9 97.9 0 0 0-18.203 1.695c-5.996 1.137-11.367 3.137-16.098 5.996-4.73 2.871-8.597 6.704-11.601 11.504-2.996 4.797-4.633 10.805-4.899 18h32.399m70.8 69.602h32.403v-12.004h.398c6.809 10 16.34 15 28.606 15 8.125 0 15.129-1.602 20.996-4.793 5.871-3.203 10.664-7.473 14.394-12.805 3.743-5.332 6.504-11.433 8.301-18.3 1.809-6.868 2.703-13.965 2.703-21.297 0-6.797-.894-13.332-2.703-19.602-1.797-6.269-4.531-11.863-8.191-16.797-3.672-4.941-8.235-8.867-13.703-11.804-5.469-2.93-11.875-4.395-19.2-4.395-12.675 0-22.539 4.727-29.597 14.195h-.403v-46.004h-34.004zm53.606-23c-2.277 0-4.641-.442-7.102-1.297-2.468-.871-4.707-2.375-6.699-4.504-2.004-2.141-3.672-5-5-8.601-1.34-3.594-2.004-8.067-2.004-13.399 0-9.062 1.496-16.328 4.504-21.801 2.996-5.468 8.36-8.199 16.094-8.199 3.73 0 6.902.899 9.512 2.703 2.597 1.797 4.687 4.133 6.289 6.992 1.601 2.871 2.773 6.075 3.508 9.61a52.674 52.674 0 0 1 1.101 10.695c0 3.328-.344 6.629-1.008 9.899-.672 3.261-1.797 6.234-3.394 8.898-1.606 2.668-3.703 4.836-6.301 6.504-2.598 1.66-5.773 2.5-9.5 2.5m93.594 35.996h-34.004v26.008h34.004zm-34.004-12.996h34.004V156.914h-34.004v103.801m72.996-60.195c.266-7.207 2.402-12.942 6.406-17.207 3.992-4.27 9.59-6.399 16.797-6.399 4.121 0 7.988.93 11.582 2.805 3.613 1.863 6.211 4.722 7.813 8.594h31.796c-1.601-6-4.101-11.165-7.5-15.5-3.398-4.336-7.402-7.899-11.992-10.704-4.609-2.793-9.668-4.863-15.215-6.191a71.605 71.605 0 0 0-16.894-2c-8.399 0-16.094 1.227-23.094 3.699-7.004 2.461-13 6.067-18 10.801-5 4.727-8.867 10.527-11.601 17.395-2.735 6.863-4.102 14.636-4.102 23.296 0 8 1.465 15.332 4.402 22.004 2.934 6.668 6.965 12.403 12.102 17.2 5.137 4.8 11.094 8.562 17.898 11.296 6.801 2.735 13.996 4.102 21.606 4.102 9.324 0 17.449-1.629 24.383-4.895 6.933-3.269 12.675-7.769 17.207-13.503 4.531-5.731 7.871-12.43 10-20.098 2.129-7.664 3.007-15.899 2.597-24.695zm42.187 18.992c-.254 5.871-2.265 10.871-5.996 15-3.73 4.133-8.457 6.203-14.187 6.203-6.008 0-10.91-1.938-14.699-5.801-3.809-3.867-6.243-8.996-7.305-15.402h42.187"/><path d="M911.191 299.719h34.004V156.914h-34.004v142.805m-472.992-150h61.403c10.929 0 20.73-1.606 29.398-4.805 8.668-3.195 16-7.871 22-13.996 6.004-6.145 10.602-13.574 13.801-22.305 3.199-8.73 4.801-18.633 4.801-29.695 0-11.738-1.602-22.07-4.801-31.008-3.199-8.926-7.832-16.426-13.903-22.5-6.062-6.062-13.433-10.664-22.097-13.8-8.668-3.133-18.403-4.696-29.199-4.696h-61.403zm37.199-110.801H493c7.066.125 13.098.965 18.098 2.5 5 1.531 9.07 3.895 12.203 7.098 3.129 3.203 5.429 7.297 6.898 12.297 1.465 5 2.203 11.101 2.203 18.296 0 13.07-3.371 22.766-10.101 29.106-6.735 6.328-16.5 9.5-29.301 9.5h-17.602V38.918"/><path d="M561.598 58.71c0 7.735 1.328 14.974 4 21.7 2.664 6.738 6.398 12.57 11.199 17.5 4.801 4.934 10.566 8.809 17.301 11.602 6.726 2.801 14.093 4.199 22.097 4.199 8.004 0 15.368-1.398 22.106-4.199 6.719-2.793 12.519-6.668 17.39-11.602 4.875-4.93 8.633-10.762 11.301-17.5 2.676-6.726 4.004-13.965 4.004-21.7 0-7.858-1.328-15.124-4.004-21.796-2.668-6.668-6.426-12.433-11.301-17.305-4.871-4.863-10.671-8.691-17.39-11.496-6.738-2.8-14.102-4.195-22.106-4.195-8.004 0-15.371 1.395-22.097 4.195-6.735 2.805-12.5 6.633-17.301 11.496-4.801 4.871-8.535 10.637-11.199 17.305-2.672 6.672-4 13.938-4 21.797zm34 0c0-3.327.332-6.698 1-10.097.664-3.398 1.797-6.504 3.398-9.297 1.602-2.8 3.699-5.066 6.297-6.804 2.602-1.73 5.902-2.598 9.902-2.598 4 0 7.328.867 9.996 2.598 2.676 1.738 4.805 4.004 6.407 6.804 1.601 2.793 2.734 5.899 3.398 9.297a52.6 52.6 0 0 1 .996 10.098c0 3.332-.332 6.7-.996 10.105-.664 3.403-1.797 6.496-3.398 9.297a20.337 20.337 0 0 1-6.407 6.899c-2.668 1.804-5.996 2.703-9.996 2.703s-7.3-.899-9.902-2.703c-2.598-1.797-4.695-4.094-6.297-6.899-1.601-2.8-2.734-5.894-3.398-9.297a52.4 52.4 0 0 1-1-10.105m80.398 52.004h33V92.512h.399c2.531 6.668 6.523 11.707 11.992 15.105 5.468 3.399 11.875 5.098 19.211 5.098 1.328 0 2.664-.07 3.992-.203a40.345 40.345 0 0 0 4.004-.598V80.918c-2.266.664-4.434 1.164-6.504 1.496-2.07.332-4.231.496-6.492.496-4.27 0-7.969-.664-11.106-1.992-3.137-1.336-5.801-3.137-7.996-5.399a21.682 21.682 0 0 1-4.902-7.902A27.59 27.59 0 0 1 710 58.312V6.914h-34.004v103.801"/><path d="M816.594 88.71h-21.008V41.517c0-4.133 1.113-6.836 3.301-8.098 2.207-1.27 5.176-1.902 8.906-1.902 1.465 0 2.93.066 4.395.203a50.15 50.15 0 0 0 4.406.195v-25a212.192 212.192 0 0 1-9.297-.598c-3.137-.27-6.242-.398-9.309-.398-7.195 0-13.164.598-17.89 1.797-4.746 1.203-8.477 3.203-11.211 5.996-2.735 2.805-4.629 6.535-5.696 11.203-1.062 4.668-1.597 10.535-1.597 17.598V88.71h-17.199v22.004h17.199v31.394h33.992v-31.394h21.008V88.711m9.207 22.004h33v-14.2h.398c3.067 5.204 7.207 9.364 12.403 12.501 5.195 3.132 10.996 4.695 17.402 4.695 6.523 0 12.5-1.231 17.891-3.699 5.41-2.461 9.511-6.828 12.304-13.098 4.141 5.598 8.809 9.805 14.004 12.598 5.195 2.801 11.328 4.199 18.399 4.199 8.261 0 14.824-1.398 19.707-4.199 4.863-2.793 8.515-6.399 10.996-10.801 2.461-4.395 4.062-9.23 4.785-14.492.742-5.274 1.113-10.371 1.113-15.301V6.914h-34.004V67.91c0 5.606-1.269 9.973-3.808 13.106-2.52 3.125-5.996 4.699-10.391 4.699-3.594 0-6.465-.664-8.594-2.004-2.148-1.328-3.769-3.23-4.902-5.691-1.133-2.473-1.836-5.442-2.109-8.91-.274-3.465-.391-7.262-.391-11.395v-50.8H890v59.003c0 6.125-.977 10.957-2.91 14.492-1.934 3.535-5.235 5.305-9.883 5.305-6.133 0-10.586-2.07-13.301-6.203-2.734-4.13-4.101-11.465-4.101-22V6.914h-34.004v103.801M1100.2 6.915h-33.01v14.198h-.39c-3.21-5.332-7.78-9.531-13.71-12.597-5.94-3.067-11.9-4.598-17.89-4.598-7.49 0-13.68 1.031-18.62 3.094-4.92 2.07-8.87 5.031-11.79 8.906-2.93 3.855-5.005 8.523-6.196 13.996-1.211 5.469-1.797 11.602-1.797 18.398v62.403h33.983V50.519c0-6.933 1.45-11.769 4.32-14.503 2.85-2.735 7.03-4.102 12.5-4.102 1.85 0 3.86.332 5.99.996 2.13.676 4.12 1.902 6 3.7 1.87 1.808 3.44 4.171 4.71 7.1 1.25 2.93 1.89 6.74 1.89 11.407v55.598h34.01V6.915m8.78 103.8h33.01v-14.2h.41c1.58 2.665 3.6 5.067 6 7.196a36.296 36.296 0 0 0 7.99 5.398 44.653 44.653 0 0 0 9.2 3.403c3.2.801 6.34 1.199 9.41 1.199 8.65 0 15.49-1.398 20.49-4.199 5-2.793 8.73-6.231 11.21-10.293a34.608 34.608 0 0 0 4.69-13.106c.66-4.668 1.01-8.867 1.01-12.597V6.914h-34v60.598c0 3.465-.51 6.531-1.51 9.207-.99 2.656-2.67 4.824-5 6.496-2.34 1.668-5.84 2.5-10.5 2.5-3.21 0-5.96-.637-8.3-1.899-2.33-1.265-4.22-2.937-5.69-5-1.48-2.066-2.58-4.441-3.3-7.097a30.593 30.593 0 0 1-1.11-8.203V6.914h-34.01v103.801"/><path d="M1315.78 6.914h-32.4v12.004h-.39c-6.8-10-16.33-15-28.6-15-8.14 0-15.13 1.602-21.01 4.793-5.86 3.203-10.67 7.473-14.4 12.805-3.73 5.332-6.5 11.433-8.3 18.297-1.79 6.867-2.69 13.964-2.69 21.3 0 6.797.9 13.328 2.69 19.602 1.8 6.265 4.53 11.863 8.21 16.797 3.67 4.929 8.22 8.867 13.69 11.804 5.47 2.93 11.87 4.395 19.2 4.395 12.67 0 22.54-4.727 29.61-14.2h.39v50.208h34zm-52.99 80.8c-3.86 0-7.15-.839-9.8-2.5a19.169 19.169 0 0 1-6.41-6.503c-1.6-2.664-2.77-5.637-3.49-8.898-.75-3.27-1.1-6.57-1.1-9.899 0-3.598.35-7.168 1.1-10.695.72-3.535 1.89-6.738 3.49-9.61 1.6-2.859 3.73-5.195 6.41-6.992 2.65-1.804 5.94-2.703 9.8-2.703 4.12 0 7.5.899 10.1 2.703a19.756 19.756 0 0 1 6.19 6.895c1.55 2.8 2.58 5.898 3.11 9.304.52 3.403.8 6.758.8 10.102 0 3.727-.37 7.332-1.1 10.8-.74 3.466-1.91 6.532-3.51 9.2-1.6 2.664-3.65 4.793-6.19 6.395-2.54 1.601-5.67 2.402-9.4 2.402"/></g></svg>