<?xml version="1.0" encoding="UTF-8"?>
<!DOCTYPE svg PUBLIC "-//W3C//DTD SVG 1.1//EN" "http://www.w3.org/Graphics/SVG/1.1/DTD/svg11.dtd">
<!-- Creator: CorelDRAW 2018 (64-Bit Evaluation Version) -->
<svg xmlns="http://www.w3.org/2000/svg" xml:space="preserve" width="398.78mm" height="74.8285mm" version="1.1" style="shape-rendering:geometricPrecision; text-rendering:geometricPrecision; image-rendering:optimizeQuality; fill-rule:evenodd; clip-rule:evenodd"
viewBox="0 0 39877.98 7482.85"
 xmlns:xlink="http://www.w3.org/1999/xlink">
 <defs>
  <style type="text/css">
   <![CDATA[
    .fil2 {fill:#265987}
    .fil1 {fill:#29415D}
    .fil0 {fill:black}
   ]]>
  </style>
 </defs>
 <g id="Layer_x0020_1">
  <metadata id="CorelCorpID_0Corel-Layer"/>
  <g id="_1163258709808">
   <path class="fil0" d="M10397.06 2617.91l-953.14 0 0 -296.13 2226.91 0 0 296.13 -953.28 0 0 2543.22 -320.49 0 0 -2543.22zm1878.04 -296.13l0 0 2052.56 0 0 287.94 -1732.06 0 0 977.59 1549.52 0 0 288.05 -1549.52 0 0 997.83 1752.35 0 0 287.94 -2072.85 0 0 -2839.35zm3912.3 1448.12l0 0c106.16,0 203.53,-13.48 292.76,-40.52 89.89,-27.03 166.92,-65.67 231.91,-115.62 65.57,-50.16 116.27,-110.92 152.72,-182.6 36.51,-71.62 54.87,-153.42 54.87,-245.34l0 -8.23c0,-175.75 -63.6,-312.89 -191.43,-411.61 -127.19,-98.71 -306.25,-148.07 -536.71,-148.07l-878.18 0 0 1151.99 874.06 0zm-1194.5 -1448.12l0 0 1220.9 0c175.74,0 331.89,25 468.56,75 136.55,50.09 249.34,119.69 338.68,208.93 70.24,70.28 124.36,152.83 162.21,247.42 37.79,94.64 56.74,198.71 56.74,312.41l0 8.13c0,118.9 -18.95,225.06 -56.74,318.42 -37.85,93.19 -91.32,174.34 -160.28,243.28 -68.84,68.95 -150.74,125.81 -245.33,170.39 -94.65,44.6 -197.48,76.4 -308.34,95.24l872.13 1160.13 -393.45 0 -823.43 -1103.22 -8.07 0 -803.14 0 0 1103.22 -320.44 0 0 -2839.35zm4127.23 1448.12l0 0c106.15,0 203.47,-13.48 292.71,-40.52 89.82,-27.03 166.96,-65.67 231.9,-115.62 65.63,-50.16 116.27,-110.92 152.78,-182.6 36.5,-71.62 54.76,-153.42 54.76,-245.34l0 -8.23c0,-175.75 -63.6,-312.89 -191.43,-411.61 -127.03,-98.71 -306.09,-148.07 -536.76,-148.07l-878.13 0 0 1151.99 874.17 0zm-1194.67 -1448.12l0 0 1221.06 0c175.74,0 331.9,25 468.46,75 136.49,50.09 249.45,119.69 338.68,208.93 70.23,70.28 124.35,152.83 162.3,247.42 37.8,94.64 56.8,198.71 56.8,312.41l0 8.13c0,118.9 -19,225.06 -56.8,318.42 -37.95,93.19 -91.32,174.34 -160.27,243.28 -68.99,68.95 -150.73,125.81 -245.32,170.39 -94.75,44.6 -197.43,76.4 -308.35,95.24l872.14 1160.13 -393.46 0 -823.53 -1103.22 -8.08 0 -803.13 0 0 1103.22 -320.5 0 0 -2839.35zm4774.21 1801l0 0 -644.95 -1448.08 -648.92 1448.08 1293.87 0zm-790.98 -1821.24l0 0 300.09 0 1294.02 2859.59 -344.79 0 -332.54 -750.4 -1545.46 0 -336.71 750.4 -328.63 0 1294.02 -2859.59zm2093.07 20.24l0 0 673.27 0 746.34 1200.71 746.39 -1200.71 673.43 0 0 2839.35 -616.52 0 0 -1853.67 -799.18 1212.9 -16.27 0 -790.98 -1200.7 0 1841.47 -616.48 0 0 -2839.35zm5151.4 1650.9l0 0 -377.13 -920.84 -377.29 920.84 754.42 0zm-657.09 -1671.14l0 0 576.05 0 1216.87 2859.59 -653.03 0 -259.58 -636.86 -1200.7 0 -259.58 636.86 -636.92 0 1216.89 -2859.59zm3597.96 2908.3l0 0c-221.78,0 -423.86,-36.56 -606.41,-109.63 -182.54,-72.91 -339.45,-174.35 -470.43,-304.16 -131.32,-129.76 -233.35,-283.93 -306.42,-462.41 -72.97,-178.42 -109.48,-373.12 -109.48,-584.02l0 -8.09c0,-202.93 37.16,-392.75 111.62,-569.94 74.36,-177.14 177.72,-332.7 310.27,-466.52 132.54,-133.79 289.34,-239.3 470.49,-316.38 181.26,-77.09 379.96,-115.63 596.34,-115.63 127.03,0 242.71,8.83 346.78,26.39 104.06,17.62 200.74,42.56 289.98,75.1 89.34,32.45 173.07,72.97 251.49,121.68 78.48,48.61 154.23,104.13 227.19,166.27l-393.41 474.61c-54.11,-45.92 -108.24,-86.56 -162.31,-121.67 -54.11,-35.28 -110.27,-64.99 -168.35,-89.34 -58.19,-24.25 -120.98,-43.2 -188.7,-56.7 -67.51,-13.54 -141.91,-20.23 -223.06,-20.23 -113.55,0 -219.59,23.6 -318.41,70.93 -98.61,47.27 -185.12,111.5 -259.46,191.37 -74.41,79.71 -132.55,172.96 -174.47,280.51 -41.91,106.74 -62.84,221.78 -62.84,343.39l0 8.09c0,129.87 20.93,250.26 62.84,359.73 41.92,110.11 101.39,205.51 178.42,286.66 77.03,80.99 167.67,144.53 271.79,189.18 104.11,44.7 219.69,66.92 346.77,66.92 232.55,0 428.68,-57.39 588.15,-171.63l0 -408.28 -628.67 0 0 -539.59 1233.09 0 0 1233.03c-145.98,124.46 -319.69,230.67 -521.23,318.41 -201.49,88 -432,131.95 -691.57,131.95zm1813.16 -2888.06l0 0 576 0 1330.42 1748.33 0 -1748.33 616.64 0 0 2839.35 -531.42 0 -1375.11 -1804.96 0 1804.96 -616.53 0 0 -2839.35zm4835.03 1650.9l0 0 -377.13 -920.84 -377.3 920.84 754.43 0zm-657.16 -1671.14l0 0 576.16 0 1216.77 2859.59 -652.98 0 -259.57 -636.86 -1200.71 0 -259.63 636.86 -636.81 0 1216.77 -2859.59z"/>
   <path class="fil1" d="M326.38 4533.63c964.8,-964.89 1929.6,-1929.69 2894.5,-2894.49l135.17 -135.27 926.21 926.09 -135.28 135.22c-746.34,746.13 -1492.57,1492.35 -2238.69,2238.68l-55.99 56 -1852.3 0.1 326.38 -326.33z"/>
   <polygon class="fil1" points="6091.84,4013.95 7944.02,4013.95 4475.02,7482.85 2622.78,7482.85 "/>
   <polygon class="fil2" points="4475.02,0 7944.18,3469.01 6091.84,3469.01 2622.89,0 "/>
   <path class="fil2" d="M1637.85 5844.95c964.91,-964.86 1929.6,-1929.55 2894.5,-2894.39l135.22 -135.22 926.1 926.19 -135.22 135.11c-746.28,746.18 -1492.46,1492.57 -2238.69,2238.64l-55.99 56.05 -1852.36 0 326.44 -326.38z"/>
  </g>
 </g>
</svg>
