<svg height="382.06439" viewBox="0 0 1342.9703 382.06439" width="1342.9703" xmlns="http://www.w3.org/2000/svg" xmlns:xlink="http://www.w3.org/1999/xlink"><clipPath id="a"><path d="m0 521h1218v-521h-1218z"/></clipPath><g clip-path="url(#a)" fill="#1d1d1b" transform="matrix(1.3333333 0 0 -1.3333333 -140.51493 538.36559)"><path d="m0 0c-.224-10.958 7.678-14.312 17.369-14.312 5.59 0 14.088 3.055 14.088 10.809 0 6.037-6.038 8.423-10.958 9.616l-11.852 2.906c-6.262 1.565-12.001 4.548-12.001 12.822 0 5.217 3.354 14.983 18.337 14.983 10.511 0 19.754-5.666 19.679-16.549h-5.068c-.299 8.125-7.008 12.225-14.536 12.225-6.933 0-13.343-2.684-13.343-10.585 0-4.993 3.727-7.082 8.05-8.125l12.97-3.206c7.53-2.012 13.791-5.292 13.791-14.013 0-3.653-1.491-15.208-20.35-15.208-12.598 0-21.841 5.667-21.245 18.637z" transform="translate(167.7285 157.6003)"/><path d="m0 0c-.223 7.082-4.621 13.716-12.225 13.716-7.678 0-11.927-6.709-12.672-13.716zm-24.897-3.951c.074-6.858 3.652-15.132 12.672-15.132 6.858 0 10.585 4.025 12.076 9.84h4.697c-2.013-8.721-7.082-13.791-16.773-13.791-12.225 0-17.369 9.393-17.369 20.35 0 10.138 5.144 20.351 17.369 20.351 12.374 0 17.294-10.809 16.921-21.618z" transform="translate(239.0698 161.9978)"/><path d="m0 0h4.324v-9.019h.149c2.385 6.187 7.603 9.84 14.536 9.541v-4.696c-8.498.447-14.313-5.814-14.313-13.791v-20.499h-4.696z" transform="translate(250.1055 178.5461)"/><path d="m273.662 178.546h4.696v-38.464h-4.696zm0 14.76h4.696v-7.529h-4.696z"/><path d="m0 0c0-8.2 4.472-16.399 13.492-16.399s13.492 8.199 13.492 16.399-4.472 16.399-13.492 16.399-13.492-8.199-13.492-16.399m31.681 0c0-11.032-6.411-20.35-18.189-20.35-11.778 0-18.188 9.318-18.188 20.35s6.41 20.35 18.188 20.35 18.189-9.318 18.189-20.35" transform="translate(290.1374 159.3143)"/><path d="m0 0h-4.324v6.932h-.149c-2.46-5.143-7.529-8.051-13.268-8.051-9.691 0-13.493 5.667-13.493 14.611v24.972h4.697v-25.046c.223-6.932 2.832-10.586 10.286-10.586 8.051 0 11.555 7.604 11.555 15.431v20.201h4.696z" transform="translate(359.9886 140.0824)"/><path d="m0 0c-.224 5.814-4.696 8.423-10.064 8.423-4.174 0-9.094-1.639-9.094-6.634 0-4.175 4.771-5.666 7.977-6.485l6.261-1.417c5.367-.819 10.958-3.951 10.958-10.66 0-8.348-8.275-11.554-15.431-11.554-8.945 0-15.057 4.174-15.803 13.567h4.697c.372-6.336 5.068-9.616 11.33-9.616 4.398 0 10.511 1.938 10.511 7.306 0 4.472-4.175 5.963-8.424 7.006l-6.038 1.342c-6.113 1.641-10.734 3.728-10.734 10.287 0 7.828 7.678 10.809 14.461 10.809 7.679 0 13.791-4.025 14.089-12.374z" transform="translate(391.8963 167.2907)"/><path d="m404.794 193.306h4.696v-53.224h-4.696z"/><path d="m0 0h4.995l12.672-32.799 11.852 32.799h4.697l-16.698-44.353c-2.684-6.485-4.249-8.349-10.138-8.349-1.863.075-2.833.075-3.578.374v3.949c1.118-.223 2.162-.372 3.205-.372 4.175 0 5.144 2.461 6.709 6.039l1.64 4.397z" transform="translate(414.1875 178.5461)"/><path d="m0 0c-.224 5.814-4.696 8.423-10.064 8.423-4.174 0-9.094-1.639-9.094-6.634 0-4.175 4.771-5.666 7.976-6.485l6.262-1.417c5.367-.819 10.958-3.951 10.958-10.66 0-8.348-8.275-11.554-15.431-11.554-8.945 0-15.057 4.174-15.803 13.567h4.697c.372-6.336 5.068-9.616 11.33-9.616 4.398 0 10.511 1.938 10.511 7.306 0 4.472-4.175 5.963-8.424 7.006l-6.038 1.342c-6.112 1.641-10.734 3.728-10.734 10.287 0 7.828 7.678 10.809 14.461 10.809 7.678 0 13.791-4.025 14.089-12.374z" transform="translate(500.5348 167.2907)"/><path d="m0 0c-.223 7.082-4.621 13.716-12.225 13.716-7.678 0-11.927-6.709-12.672-13.716zm-24.897-3.951c.074-6.858 3.652-15.132 12.672-15.132 6.858 0 10.585 4.025 12.076 9.84h4.696c-2.012-8.721-7.081-13.791-16.772-13.791-12.225 0-17.369 9.393-17.369 20.35 0 10.138 5.144 20.351 17.369 20.351 12.374 0 17.294-10.809 16.921-21.618z" transform="translate(541.0136 161.9978)"/><path d="m0 0c-1.267 5.739-4.771 9.243-10.883 9.243-9.02 0-13.493-8.2-13.493-16.4s4.473-16.399 13.493-16.399c5.814 0 10.585 4.547 11.181 10.958h4.696c-1.267-9.243-7.305-14.909-15.877-14.909-11.778 0-18.189 9.318-18.189 20.35 0 11.032 6.411 20.351 18.189 20.351 8.199 0 14.535-4.398 15.579-13.194z" transform="translate(579.1833 166.471)"/><path d="m0 0h-4.324v6.932h-.149c-2.46-5.143-7.529-8.051-13.268-8.051-9.691 0-13.493 5.667-13.493 14.611v24.972h4.697v-25.046c.223-6.932 2.832-10.586 10.286-10.586 8.051 0 11.555 7.604 11.555 15.431v20.201h4.696z" transform="translate(621.9001 140.0824)"/><path d="m0 0h4.324v-9.019h.149c2.385 6.187 7.603 9.84 14.536 9.541v-4.696c-8.498.447-14.313-5.814-14.313-13.791v-20.499h-4.696z" transform="translate(630.7737 178.5461)"/><path d="m0 0c-.223 7.082-4.621 13.716-12.225 13.716-7.678 0-11.927-6.709-12.672-13.716zm-24.897-3.951c.074-6.858 3.652-15.132 12.672-15.132 6.858 0 10.585 4.025 12.076 9.84h4.696c-2.012-8.721-7.081-13.791-16.772-13.791-12.225 0-17.369 9.393-17.369 20.35 0 10.138 5.144 20.351 17.369 20.351 12.374 0 17.294-10.809 16.921-21.618z" transform="translate(680.5825 161.9978)"/><path d="m0 0h4.323v-6.485h.223c2.461 4.622 6.486 7.604 12.599 7.604 5.068 0 9.616-2.461 11.032-7.529 2.31 5.068 7.155 7.529 12.225 7.529 8.423 0 12.747-4.398 12.747-13.493v-26.09h-4.696v25.867c0 6.336-2.386 9.765-9.095 9.765-8.125 0-10.436-6.71-10.436-13.865v-21.767h-4.696v26.09c.074 5.218-2.087 9.542-8.051 9.542-8.125 0-11.404-6.113-11.48-14.164v-21.468h-4.695z" transform="translate(717.6807 178.5461)"/><path d="m0 0c-.223 7.082-4.622 13.716-12.225 13.716-7.678 0-11.926-6.709-12.672-13.716zm-24.897-3.951c.075-6.858 3.652-15.132 12.672-15.132 6.858 0 10.586 4.025 12.076 9.84h4.696c-2.012-8.721-7.082-13.791-16.772-13.791-12.225 0-17.368 9.393-17.368 20.35 0 10.138 5.143 20.351 17.368 20.351 12.374 0 17.295-10.809 16.921-21.618z" transform="translate(807.4346 161.9978)"/><path d="m0 0c-.223 5.814-4.696 8.423-10.062 8.423-4.176 0-9.095-1.639-9.095-6.634 0-4.175 4.77-5.666 7.976-6.485l6.261-1.417c5.368-.819 10.958-3.951 10.958-10.66 0-8.348-8.274-11.554-15.43-11.554-8.946 0-15.058 4.174-15.804 13.567h4.697c.373-6.336 5.069-9.616 11.331-9.616 4.397 0 10.51 1.938 10.51 7.306 0 4.472-4.174 5.963-8.423 7.006l-6.038 1.342c-6.113 1.641-10.735 3.728-10.735 10.287 0 7.828 7.679 10.809 14.462 10.809 7.678 0 13.791-4.025 14.088-12.374z" transform="translate(841.5045 167.2907)"/><path d="m0 0c-.223 5.814-4.696 8.423-10.062 8.423-4.176 0-9.095-1.639-9.095-6.634 0-4.175 4.77-5.666 7.976-6.485l6.261-1.417c5.368-.819 10.958-3.951 10.958-10.66 0-8.348-8.274-11.554-15.429-11.554-8.947 0-15.059 4.174-15.805 13.567h4.697c.373-6.336 5.069-9.616 11.331-9.616 4.397 0 10.51 1.938 10.51 7.306 0 4.472-4.174 5.963-8.423 7.006l-6.038 1.342c-6.113 1.641-10.735 3.728-10.735 10.287 0 7.828 7.679 10.809 14.463 10.809 7.677 0 13.79-4.025 14.087-12.374z" transform="translate(877.3614 167.2907)"/><path d="m0 0h-.15c-.595-1.119-2.682-1.491-3.95-1.715-7.976-1.416-17.891-1.342-17.891-8.871 0-4.696 4.175-7.603 8.573-7.603 7.155 0 13.492 4.548 13.418 12.076zm-25.047 5.665c.448 9.019 6.784 12.896 15.58 12.896 6.783 0 14.163-2.087 14.163-12.374v-20.425c0-1.789.894-2.832 2.758-2.832.521 0 1.118.148 1.491.297v-3.951c-1.044-.223-1.789-.297-3.057-.297-4.771 0-5.516 2.683-5.516 6.709h-.149c-3.28-4.994-6.635-7.828-14.015-7.828-7.081 0-12.896 3.503-12.896 11.257 0 10.809 10.512 11.181 20.65 12.374 3.875.447 6.038.968 6.038 5.218 0 6.336-4.548 7.901-10.064 7.901-5.815 0-10.138-2.684-10.286-8.945z" transform="translate(914.7859 161.1037)"/><path d="m0 0c0 7.529-3.503 15.952-12.374 15.952-8.945 0-12.672-7.976-12.672-15.952 0-7.753 4.026-15.282 12.672-15.282 8.125 0 12.374 7.454 12.374 15.282m4.696-16.548c-.074-11.48-4.472-18.488-17.07-18.488-7.678 0-15.281 3.43-15.952 11.63h4.697c1.043-5.666 6.038-7.679 11.255-7.679 8.647 0 12.374 5.144 12.374 14.537v5.217h-.149c-2.161-4.696-6.709-7.901-12.225-7.901-12.3 0-17.368 8.796-17.368 19.754 0 10.585 6.261 19.381 17.368 19.381 5.59 0 10.361-3.504 12.225-7.752h.149v6.633h4.696z" transform="translate(956.6822 159.7619)"/><path d="m970.403 178.546h4.696v-38.464h-4.696zm0 14.76h4.696v-7.529h-4.696z"/><path d="m0 0h4.696v-6.634h.15c1.714 4.621 6.858 7.753 12.3 7.753 10.808 0 14.088-5.665 14.088-14.835v-24.748h-4.696v24.003c0 6.634-2.162 11.629-9.765 11.629-7.455 0-11.927-5.665-12.077-13.194v-22.438h-4.696z" transform="translate(984.0441 178.5461)"/><path d="m0 0c0 7.529-3.503 15.952-12.374 15.952-8.945 0-12.672-7.976-12.672-15.952 0-7.753 4.026-15.282 12.672-15.282 8.125 0 12.374 7.454 12.374 15.282m4.696-16.548c-.074-11.48-4.472-18.488-17.07-18.488-7.678 0-15.281 3.43-15.952 11.63h4.697c1.043-5.666 6.038-7.679 11.255-7.679 8.647 0 12.374 5.144 12.374 14.537v5.217h-.149c-2.161-4.696-6.709-7.901-12.225-7.901-12.299 0-17.368 8.796-17.368 19.754 0 10.585 6.262 19.381 17.368 19.381 5.591 0 10.361-3.504 12.225-7.752h.149v6.633h4.696z" transform="translate(1051.9558 159.7619)"/><path d="m0 0v-30.821h-52.077v-143.24h-36.606v143.24h-52.313v30.821z" transform="translate(253.8822 396.2742)"/><path d="m0 0c6.465-2.758 11.777-6.975 15.933-12.646 3.526-4.809 5.681-9.753 6.465-14.835.784-5.081 1.176-13.375 1.176-24.877v-75.644h-34.362v78.38c0 6.936-1.174 12.532-3.517 16.787-3.049 5.989-8.831 8.985-17.348 8.985-8.83 0-15.533-2.975-20.104-8.926-4.572-5.95-6.857-14.442-6.857-25.476v-69.75h-33.655v173.469h33.655v-61.405c4.86 7.479 10.485 12.694 16.872 15.646 6.388 2.953 13.11 4.429 20.166 4.429 7.917 0 15.109-1.38 21.576-4.137" transform="translate(357.6707 350.2158)"/><path d="m0 0c.432-.041 1.397-.1 2.894-.178v-34.481c-2.126.237-4.015.394-5.669.473-1.654.078-2.993.119-4.015.119-13.542 0-22.634-4.411-27.279-13.227-2.597-4.96-3.896-12.596-3.896-22.908v-61.524h-33.891v128.715h32.12v-22.436c5.196 8.579 9.722 14.445 13.58 17.594 6.297 5.273 14.484 7.912 24.562 7.912.629 0 1.16-.021 1.594-.059" transform="translate(465.0465 353.9394)"/><path d="m0 0c-4.756-4.902-7.743-11.544-8.965-19.924h57.981c-.613 8.934-3.6 15.712-8.966 20.339-5.365 4.625-12.018 6.939-19.961 6.939-8.638 0-15.334-2.452-20.089-7.354m50.348 29.073c8.979-4.023 16.393-10.37 22.243-19.042 5.271-7.648 8.69-16.518 10.255-26.61.905-5.913 1.274-14.428 1.109-25.546h-93.747c.522-12.912 5.01-21.964 13.461-27.16 5.139-3.228 11.325-4.841 18.556-4.841 7.666 0 13.896 1.967 18.686 5.905 2.613 2.125 4.923 5.077 6.927 8.856h34.36c-.905-7.637-5.064-15.392-12.477-23.264-11.53-12.516-27.67-18.775-48.424-18.775-17.131 0-32.243 5.279-45.339 15.836-13.094 10.558-19.641 27.736-19.641 51.533 0 22.296 5.91 39.394 17.732 51.292 11.819 11.897 27.164 17.848 46.028 17.848 11.201 0 21.293-2.011 30.271-6.032" transform="translate(513.9325 319.2484)"/><path d="m0 0c-4.758-4.902-7.745-11.544-8.965-19.924h57.979c-.614 8.934-3.597 15.712-8.965 20.339-5.365 4.625-12.018 6.939-19.96 6.939-8.639 0-15.335-2.452-20.089-7.354m50.348 29.073c8.975-4.023 16.391-10.37 22.243-19.042 5.272-7.648 8.687-16.518 10.256-26.61.902-5.913 1.271-14.428 1.108-25.546h-93.748c.521-12.912 5.011-21.964 13.46-27.16 5.14-3.228 11.326-4.841 18.557-4.841 7.665 0 13.896 1.967 18.686 5.905 2.612 2.125 4.924 5.077 6.929 8.856h34.356c-.902-7.637-5.061-15.392-12.472-23.264-11.532-12.516-27.674-18.775-48.427-18.775-17.132 0-32.242 5.279-45.338 15.836-13.095 10.558-19.642 27.736-19.642 51.533 0 22.296 5.909 39.394 17.733 51.292 11.82 11.897 27.162 17.848 46.026 17.848 11.201 0 21.293-2.011 30.273-6.032" transform="translate(648.5472 319.2484)"/><path d="m0 0c5.512-2.204 10.51-6.063 15-11.572 3.617-4.488 6.058-9.998 7.32-16.533.787-4.33 1.18-10.668 1.18-19.011l-.235-81.126h-34.485v81.952c0 4.881-.787 8.896-2.36 12.045-2.993 5.982-8.5 8.975-16.53 8.975-9.292 0-15.705-3.858-19.25-11.572-1.813-4.094-2.715-9.016-2.715-14.761v-76.639h-33.89v76.639c0 7.635-.791 13.185-2.364 16.65-2.835 6.217-8.386 9.328-16.65 9.328-9.604 0-16.06-3.111-19.366-9.328-1.813-3.543-2.715-8.818-2.715-15.824v-77.465h-34.129v128.478h32.71v-18.775c4.173 6.69 8.106 11.454 11.809 14.288 6.534 5.038 14.996 7.557 25.39 7.557 9.839 0 17.792-2.165 23.855-6.493 4.878-4.015 8.577-9.173 11.1-15.47 4.408 7.557 9.877 13.107 16.41 16.65 6.927 3.542 14.645 5.313 23.145 5.313 5.67 0 11.259-1.103 16.77-3.306" transform="translate(902.863 350.4554)"/><path d="m0 0c-2.159-1.34-4.332-2.421-6.524-3.247-2.197-.827-5.209-1.594-9.037-2.303l-7.666-1.417c-7.18-1.261-12.337-2.796-15.465-4.606-5.3-3.07-7.953-7.834-7.953-14.288 0-5.748 1.617-9.901 4.859-12.458 3.233-2.559 7.172-3.838 11.81-3.838 7.354 0 14.127 2.126 20.325 6.377 6.192 4.251 9.411 12.004 9.651 23.262zm-20.579 15.706c6.265.786 10.745 1.771 13.441 2.951 4.836 2.047 7.258 5.235 7.258 9.565 0 5.275-1.857 8.917-5.569 10.924-3.708 2.008-9.158 3.011-16.338 3.011-8.059 0-13.768-1.969-17.116-5.904-2.398-2.914-3.991-6.849-4.787-11.809h-32.475c.71 11.257 3.871 20.506 9.488 27.751 8.932 11.336 24.273 17.003 46.017 17.003 14.151 0 26.723-2.795 37.713-8.383 10.989-5.591 16.482-16.139 16.482-31.648v-59.043c0-4.094.081-9.054.24-14.879.235-4.409.902-7.4 2.005-8.975s2.753-2.874 4.96-3.896v-4.96h-36.605c-1.027 2.597-1.737 5.037-2.125 7.321-.398 2.282-.71 4.881-.945 7.794-4.672-5.039-10.059-9.329-16.156-12.871-7.287-4.172-15.523-6.259-24.704-6.259-11.723 0-21.404 3.327-29.04 9.979-7.647 6.65-11.465 16.078-11.465 28.281 0 15.823 6.145 27.279 18.44 34.364 6.739 3.856 16.654 6.612 29.74 8.266z" transform="translate(1016.6929 284.7996)"/><path d="m1069.334 257.521h35.78v-35.307h-35.78z"/></g></svg>