<svg xmlns="http://www.w3.org/2000/svg" width="206.833" height="124.302" viewBox="0 0 155.12499 93.22656"><g transform="translate(-349.98 -228.656)"><path d="M362.375 304.176h6.371c.633 0 .899.21.899.66h.37v-4.414h-.37c0 .422-.266.633-.899.633h-16.5c-.633 0-.898-.211-.898-.633h-.368v4.414h.368c0-.45.265-.66.898-.66h6.375v14.96c0 .583-.11.798-.797.798v.367h5.367v-.367c-.687 0-.816-.215-.816-.797zm15.227 4.386v-6.343c0-.582.132-.793.765-.793v-.371h-5.312v.37c.687 0 .793.212.793.794v16.918c0 .582-.106.797-.793.797v.367h5.312v-.367c-.633 0-.765-.215-.765-.797v-7.242H389.5v7.242c0 .582-.105.797-.793.797v.367h5.285v-.367c-.605 0-.738-.215-.738-.797v-16.918c0-.582.133-.793.738-.793v-.371h-5.285v.37c.688 0 .793.212.793.794v6.344zm24.64 3.543h5.445l4.84 6.903c.262.367.34.5.34.71 0 .106-.05.216-.367.216v.367h5.867v-.367c-.555 0-.765-.266-1.137-.797l-4.89-6.926c3.254-.5 5.183-2.484 5.183-5.629 0-3.094-2.433-5.527-7.035-5.527h-12.742v.37c.637 0 .742.212.742.794v16.918c0 .582-.105.797-.742.797v.367h5.234v-.367c-.632 0-.738-.215-.738-.797zm.078-7.93h8.012c1.902 0 3.438.74 3.438 2.407 0 1.664-1.536 2.406-3.438 2.406h-8.012zm19.196 16.126h17.394c.633 0 .899.21.899.582h.37v-4.336h-.37c0 .422-.266.637-.899.637h-12.953V312h8.3c.317 0 .555.055.688.16.157.106.211.262.211.477h.371v-4.442h-.37c0 .473-.266.688-.9.688h-8.3v-4.707h12.715c.633 0 .898.21.898.687h.371v-4.39h-.37c0 .37-.266.582-.9.582h-17.155v.37c.578 0 .687.212.687.794v16.918c0 .582-.11.797-.687.797zm28.18-8.09l3.12-6.926 3.172 6.926zm-2.774 8.09v-.367c-.238-.028-.399-.16-.399-.399 0-.344.399-.87 1.93-4.308h9.07c1.77 3.78 2.008 4.148 2.008 4.441 0 .133-.133.266-.476.266v.367h5.261v-.367c-.554 0-.66-.188-1.03-1.008l-7.669-16.418c-.129-.262-.238-.473-.238-.688 0-.183.16-.343.558-.394v-.371h-5.765v.37c.344.052.555.184.555.477 0 .239-.157.528-.29.793l-7.218 16.23c-.371.848-.528.981-1.004 1.009v.367zm26.992-16.125h6.371c.633 0 .899.21.899.66h.37v-4.414h-.37c0 .422-.266.633-.899.633H463.79c-.637 0-.902-.211-.902-.633h-.367v4.414h.367c0-.45.265-.66.902-.66h6.371v14.96c0 .583-.105.798-.793.798v.367h5.367v-.367c-.687 0-.82-.215-.82-.797zm0 0" fill="#211e1e"/><path d="M489.246 320.3v-.366c-.344 0-.555-.133-.555-.344 0-.238.106-.32.239-.504l4.68-6.027 3.859 5.101c.504.66.953 1.192.953 1.43 0 .262-.106.344-.504.344v.367h6.187v-.367c-.714-.028-.898-.399-1.43-1.114l-6.66-8.855 5.762-7.43c.504-.633.848-1.082 1.72-1.11v-.37h-5.868v.37c.238 0 .45.134.45.345 0 .156-.161.37-.372.66l-3.754 4.84-3.598-4.813c-.261-.344-.394-.555-.394-.66 0-.266.21-.371.555-.371v-.371h-6.239v.37c.66 0 .899.395 1.059.61l6.238 8.3-6.61 8.485c-.503.66-.687 1.059-1.347 1.114v.367zm0 0" fill="#eb1923"/><path d="M434.45 292.402c-14.755-9.332-27.165-23.101-26.446-46.754 2.176 4.329 5.414 7.856 7.715 10.075-3.864-5-5.91-18.286-6.051-26.067 5.582 13.735 13.488 23.77 24.082 31.016 4.102 2.8 10.086 5.496 12.113 10.21.688 1.59.707 3.227-.426 4.743.274 2.762-1.05 3.852-2.804 4.227.262-.387.844-.04.578-2.075-1.156-6.738-18.582-6.382-8.762 14.625" fill="#eb1923" fill-rule="evenodd"/></g></svg>