<svg xmlns="http://www.w3.org/2000/svg" id="Ebene_1" viewBox="0 0 360 66" width="360" height="66"><style id="style2">.st0{fill:#b32c2e}</style><g id="g60" transform="translate(-54.13 -362.538)"><g id="g46"><path class="st0" d="M72.2 420c0 .3-.1.3-.3.3h-4.1c-.3 0-.3 0-.3-.3v-.8c0-.3.1-.3.3-.3h1v-7.5h-1.1v1.5c0 .2-.1.3-.3.3h-.9c-.2 0-.3 0-.3-.3V410c0-.2 0-.3.3-.3h6.7c.2 0 .3 0 .3.3v2.9c0 .2-.1.3-.3.3h-.9c-.2 0-.3 0-.3-.3v-1.5h-1.1v7.5h1c.3 0 .3 0 .3.3z" id="path4" fill="#b32c2e"/><path class="st0" d="M88.3 420c0 .3 0 .3-.3.3h-6.2c-.3 0-.3 0-.3-.3v-.8c0-.3.1-.3.3-.3h.8v-7.6h-.8c-.3 0-.3 0-.3-.3v-1c0-.3.1-.3.3-.3H88c.2 0 .3 0 .3.3v2.4c0 .3-.1.3-.3.3h-1c-.3 0-.3 0-.3-.3v-.9h-2v2.6h2.6c.3 0 .3 0 .3.3v1c0 .3-.1.3-.3.3h-2.6v3h2v-1.1c0-.3 0-.3.3-.3h1c.3 0 .3 0 .3.3z" id="path6" fill="#b32c2e"/><path class="st0" d="M103.6 419.6c0 .5-1.4.9-2.7.9-2.9 0-4.2-1.8-4.2-5.5 0-3.6 1.4-5.7 4.2-5.7 1.1 0 2.6.4 2.6 1v2.1c0 .2-.1.3-.3.3h-1.1c-.2 0-.3 0-.3-.3v-1.3c-.3-.1-.5-.1-.8-.1-1.4 0-2.1.9-2.1 3.6s.4 4.2 2.2 4.2c.3 0 .5 0 .8-.1v-1.4c0-.2 0-.3.3-.3h1.1c.2 0 .3.1.3.3z" id="path8" fill="#b32c2e"/><path class="st0" d="M121.1 420c0 .3-.1.3-.3.3h-3.6c-.3 0-.3 0-.3-.3v-.8c0-.3.1-.3.3-.3h.7v-3.2h-3v3.2h.7c.3 0 .3 0 .3.3v.8c0 .3-.1.3-.3.3H112c-.3 0-.3 0-.3-.3v-.8c0-.3.1-.3.3-.3h.8v-7.6h-.8c-.3 0-.3 0-.3-.3v-1c0-.3.1-.3.3-.3h3.6c.3 0 .3 0 .3.3v.8c0 .3-.1.3-.3.3h-.6v2.8h3v-2.8h-.7c-.3 0-.3 0-.3-.3v-.8c0-.3.1-.3.3-.3h3.6c.3 0 .3 0 .3.3v.8c0 .3-.1.3-.3.3h-.9v7.6h.8c.3 0 .3 0 .3.3z" id="path10" fill="#b32c2e"/><path class="st0" d="M137.7 420c0 .3 0 .3-.3.3h-1c-.2 0-.3 0-.4-.2l-2.9-5.3c-.5-.9-.6-1.2-.9-2.1 0 .5.1 1 .1 1.7v4.4h.8c.3 0 .3 0 .3.3v.8c0 .3-.1.3-.3.3h-3.3c-.3 0-.3 0-.3-.3v-.8c0-.3.1-.3.3-.3h.8v-7.6h-.8c-.3 0-.3 0-.3-.3v-.9c0-.3.1-.3.3-.3h2.4c.2 0 .3 0 .4.2l2.6 4.8c.4.8.7 1.6.9 2.2 0-.5-.1-1.5-.1-2v-3.8h-.8c-.3 0-.3 0-.3-.3v-.8c0-.3.1-.3.3-.3h3.3c.3 0 .3 0 .3.3v.8c0 .3-.1.3-.3.3h-.8z" id="path12" fill="#b32c2e"/><path class="st0" d="M150.6 420.5c-2.4 0-3.9-1.8-3.9-5.6s1.5-5.6 3.9-5.6 3.9 1.8 3.9 5.6-1.5 5.6-3.9 5.6zm1.7-5.5c0-2.4-.5-4-1.7-4s-1.7 1.5-1.7 4c0 2.4.5 3.9 1.7 3.9s1.7-1.5 1.7-3.9z" id="path14" fill="#b32c2e"/><path class="st0" d="M163.9 411.2h-.8c-.3 0-.3 0-.3-.3v-.9c0-.3.1-.3.3-.3h3.7c.3 0 .3 0 .3.3v.8c0 .3-.1.3-.3.3h-.8v7.5h2.3l.3-1.2c0-.2.1-.3.2-.3h.2l1 .2c.2 0 .3.1.3.2v.2l-.5 2.2c0 .2-.1.3-.3.3h-6.3c-.3 0-.3 0-.3-.3v-.8c0-.3.1-.3.3-.3h.8v-7.6z" id="path16" fill="#b32c2e"/><path class="st0" d="M182.1 420.5c-2.4 0-3.9-1.8-3.9-5.6s1.5-5.6 3.9-5.6 3.9 1.8 3.9 5.6c-.1 3.8-1.5 5.6-3.9 5.6zm1.6-5.5c0-2.4-.5-4-1.7-4s-1.7 1.5-1.7 4c0 2.4.5 3.9 1.7 3.9s1.7-1.5 1.7-3.9z" id="path18" fill="#b32c2e"/><path class="st0" d="M201.7 419.3c0 .7-1.8 1.2-3.1 1.2-2.7 0-4.2-1.8-4.2-5.5s1.4-5.6 4.2-5.6c1.2 0 2.9.4 2.9 1.1v2c0 .2 0 .3-.3.3H200c-.2 0-.3 0-.3-.3v-1.2c-.3-.1-.7-.2-1.1-.2-1.6 0-2.1 1.5-2.1 3.8 0 2.4.4 4 2.1 4 .6 0 1-.2 1.1-.2v-2.4h-1.2c-.3 0-.3 0-.3-.3v-1c0-.3.1-.3.3-.3h3.8c.3 0 .3 0 .3.3v.8c0 .3-.1.3-.3.3h-.8v3.2z" id="path20" fill="#b32c2e"/><path class="st0" d="M216.9 420c0 .3-.1.3-.3.3h-4.2c-.3 0-.3 0-.3-.3v-.8c0-.3.1-.3.3-.3h1.1V416l-2.5-4.8h-.4c-.2 0-.3 0-.3-.3v-1c0-.2 0-.3.3-.3h1.8c.2 0 .2 0 .3.2l1.2 2.5c.2.5.5 1.2.6 1.8.1-.6.4-1.2.6-1.8l1.2-2.5c.1-.2.1-.2.3-.2h1.7c.2 0 .3 0 .3.3v1c0 .2 0 .3-.3.3h-.5l-2.4 4.8v2.9h1.1c.3 0 .3 0 .3.3v.8z" id="path22" fill="#b32c2e"/><path class="st0" d="M248.4 420c0 .3-.1.3-.3.3h-3.2c-.3 0-.3 0-.3-.3v-.8c0-.3.1-.3.3-.3h.7l-.1-4.1v-2.5c-.1.6-.4 1.9-.5 2.4l-.9 3c-.1.2-.1.3-.3.3h-1c-.3 0-.3 0-.3-.3l-.9-3c-.2-.6-.4-1.9-.5-2.4v2.5l-.1 4.1h.7c.3 0 .3 0 .3.3v.8c0 .3-.1.3-.3.3h-3.2c-.3 0-.3 0-.3-.3v-.8c0-.3.1-.3.3-.3h.7l.3-7.6h-.7c-.3 0-.3 0-.3-.3v-1c0-.3.1-.3.3-.3h2.6c.2 0 .3 0 .3.2l1.3 3.9c.2.7.3 1.3.4 1.9.1-.6.2-1.1.4-1.9l1.3-3.9c.1-.2.1-.2.3-.2h2.6c.3 0 .3 0 .3.3v.8c0 .3-.1.3-.3.3h-.7l.3 7.6h.7c.3 0 .3 0 .3.3v1z" id="path24" fill="#b32c2e"/><path class="st0" d="M263.5 420c0 .3 0 .3-.3.3H257c-.3 0-.3 0-.3-.3v-.8c0-.3.1-.3.3-.3h.8v-7.6h-.8c-.3 0-.3 0-.3-.3v-1c0-.3.1-.3.3-.3h6.2c.2 0 .3 0 .3.3v2.4c0 .3-.1.3-.3.3h-1c-.3 0-.3 0-.3-.3v-.9h-2v2.6h2.6c.3 0 .3 0 .3.3v1c0 .3-.1.3-.3.3h-2.6v3h2v-1.1c0-.3 0-.3.3-.3h1c.3 0 .3 0 .3.3z" id="path26" fill="#b32c2e"/><path class="st0" d="M278.8 420c0 .3 0 .3-.3.3h-6.2c-.3 0-.3 0-.3-.3v-.8c0-.3.1-.3.3-.3h.8v-7.6h-.8c-.3 0-.3 0-.3-.3v-1c0-.3.1-.3.3-.3h6.2c.2 0 .3 0 .3.3v2.4c0 .3-.1.3-.3.3h-1c-.3 0-.3 0-.3-.3v-.9h-2v2.6h2.6c.3 0 .3 0 .3.3v1c0 .3-.1.3-.3.3h-2.6v3h2v-1.1c0-.3 0-.3.3-.3h1c.3 0 .3 0 .3.3z" id="path28" fill="#b32c2e"/><path class="st0" d="M293.1 420c0 .3-.1.3-.3.3h-4.1c-.3 0-.3 0-.3-.3v-.8c0-.3.1-.3.3-.3h1v-7.5h-1.1v1.5c0 .2-.1.3-.3.3h-.9c-.2 0-.3 0-.3-.3V410c0-.2 0-.3.3-.3h6.7c.2 0 .3 0 .3.3v2.9c0 .2-.1.3-.3.3h-.9c-.2 0-.3 0-.3-.3v-1.5h-1.1v7.5h1c.3 0 .3 0 .3.3z" id="path30" fill="#b32c2e"/><path class="st0" d="M306.6 411.3c-.2-.1-.5-.2-1-.2-.7 0-1.5.3-1.5 1.2 0 1.2 1.8 1.4 3.2 2.4.8.6 1.3 1.4 1.3 2.6 0 2-1.4 3.3-3.3 3.3-1.2 0-3.2-.4-3.2-1.1v-2.3c0-.2 0-.3.3-.3h1.1c.2 0 .3 0 .3.3v1.4c.2.1.8.3 1.5.3.9 0 1.4-.5 1.4-1.4 0-1.4-1.6-1.5-3.2-2.5-.8-.5-1.3-1.1-1.3-2.4 0-2.2 1.6-3.2 3.4-3.2 1.1 0 2.8.4 2.8 1v2.1c0 .2-.1.3-.3.3H307c-.2 0-.3 0-.3-.3v-1.2z" id="path32" fill="#b32c2e"/><path class="st0" d="M332.9 411.3c-.2-.1-.5-.2-1-.2-.7 0-1.5.3-1.5 1.2 0 1.2 1.8 1.4 3.2 2.4.8.6 1.3 1.4 1.3 2.6 0 2-1.4 3.3-3.3 3.3-1.2 0-3.2-.4-3.2-1.1v-2.3c0-.2 0-.3.3-.3h1.1c.2 0 .3 0 .3.3v1.4c.2.1.8.3 1.5.3.9 0 1.4-.5 1.4-1.4 0-1.4-1.6-1.5-3.2-2.5-.8-.5-1.3-1.1-1.3-2.4 0-2.2 1.6-3.2 3.4-3.2 1.1 0 2.8.4 2.8 1v2.1c0 .2-.1.3-.3.3h-1.1c-.2 0-.3 0-.3-.3v-1.2z" id="path34" fill="#b32c2e"/><path class="st0" d="M347.5 420c0 .3-.1.3-.3.3h-3.9c-.3 0-.3 0-.3-.3v-.8c0-.3.1-.3.3-.3h.8v-7.6h-.8c-.3 0-.3 0-.3-.3v-1c0-.3.1-.3.3-.3h3.6c1.3 0 3.6 0 3.6 2.9 0 2.6-1.9 3.5-3.5 3.5h-.8v2.8h1c.3 0 .3 0 .3.3zm-.8-5.6c.9 0 1.8-.2 1.8-1.7 0-1.3-.8-1.4-1.6-1.4h-.6v3.1z" id="path36" fill="#b32c2e"/><path class="st0" d="M363 420c0 .3-.1.3-.3.3H359c-.3 0-.3 0-.3-.3v-.8c0-.3.1-.3.3-.3h.8v-7.6h-.8c-.3 0-.3 0-.3-.3v-1c0-.3.1-.3.3-.3h3.7c.3 0 .3 0 .3.3v.8c0 .3-.1.3-.3.3h-.8v7.6h.8c.3 0 .3 0 .3.3z" id="path38" fill="#b32c2e"/><path class="st0" d="M380 420c0 .3-.1.3-.3.3h-2c-.2 0-.2 0-.4-.2l-2.1-4.2h-.7v2.9h.7c.3 0 .3 0 .3.3v.8c0 .3-.1.3-.3.3h-3.6c-.3 0-.3 0-.3-.3v-.8c0-.3.1-.3.3-.3h.8v-7.6h-.8c-.3 0-.3 0-.3-.3v-.9c0-.3.1-.3.3-.3h3.6c1.2 0 3.6.1 3.6 3 0 2-1.2 2.6-1.8 2.9l1.9 3.3h.7c.3 0 .3 0 .3.3v.8zm-5.1-5.7c1 0 1.9-.2 1.9-1.6 0-1.3-.9-1.4-1.7-1.4h-.6v3z" id="path40" fill="#b32c2e"/><path class="st0" d="M392.1 420c0 .3-.1.3-.3.3h-3.7c-.3 0-.3 0-.3-.3v-.8c0-.3.1-.3.3-.3h.8v-7.6h-.8c-.3 0-.3 0-.3-.3v-1c0-.3.1-.3.3-.3h3.7c.3 0 .3 0 .3.3v.8c0 .3-.1.3-.3.3h-.8v7.6h.8c.3 0 .3 0 .3.3z" id="path42" fill="#b32c2e"/><path class="st0" d="M406.3 420c0 .3-.1.3-.3.3h-4.1c-.3 0-.3 0-.3-.3v-.8c0-.3.1-.3.3-.3h1v-7.5h-1.1v1.5c0 .2-.1.3-.3.3h-.9c-.2 0-.3 0-.3-.3V410c0-.2 0-.3.3-.3h6.7c.2 0 .3 0 .3.3v2.9c0 .2-.1.3-.3.3h-.9c-.2 0-.3 0-.3-.3v-1.5H405v7.5h1c.3 0 .3 0 .3.3z" id="path44" fill="#b32c2e"/></g><g id="g58"><path class="st0" d="M120.5 370.7c-5.3 0-9.7 4.3-9.7 9.7 0 5.3 4.3 9.7 9.7 9.7 5.3 0 9.7-4.3 9.7-9.7 0-5.4-4.3-9.7-9.7-9.7m0 13.6c-2.2 0-3.9-1.8-3.9-3.9 0-2.2 1.8-3.9 3.9-3.9 2.2 0 3.9 1.8 3.9 3.9.1 2.1-1.7 3.9-3.9 3.9z" id="path48" fill="#b32c2e"/><path class="st0" d="M157.2 382.1c-.7 1.3-2 2.2-3.5 2.2-2.2 0-3.9-1.8-3.9-3.9 0-2.2 1.8-3.9 3.9-3.9 1.5 0 2.9.9 3.5 2.2h6c-.8-4.5-4.8-7.9-9.5-7.9-5.3 0-9.7 4.3-9.7 9.7 0 5.3 4.3 9.7 9.7 9.7 4.7 0 8.7-3.4 9.5-7.9h-6z" id="path50" fill="#b32c2e"/><path class="st0" d="M252.4 370.7c-5.3 0-9.7 4.3-9.7 9.7 0 5.3 4.3 9.7 9.7 9.7 5.3 0 9.7-4.3 9.7-9.7-.1-5.4-4.4-9.7-9.7-9.7m0 13.6c-2.2 0-3.9-1.8-3.9-3.9 0-2.2 1.8-3.9 3.9-3.9 2.2 0 3.9 1.8 3.9 3.9 0 2.1-1.7 3.9-3.9 3.9z" id="path52" fill="#b32c2e"/><path class="st0" d="M178.2 382.1c-.7 1.3-2 2.2-3.5 2.2-2.2 0-3.9-1.8-3.9-3.9 0-2.2 1.8-3.9 3.9-3.9 1.5 0 2.9.9 3.5 2.2h6c-.8-4.5-4.8-7.9-9.5-7.9-5.3 0-9.7 4.3-9.7 9.7 0 5.3 4.3 9.7 9.7 9.7 4.7 0 8.7-3.4 9.5-7.9h-6z" id="path54" fill="#b32c2e"/><path class="st0" id="polygon56" fill="#b32c2e" d="M67.3 376.7L67.3 389.6 73 389.6 73 376.7 79.4 376.7 79.4 371 60.9 371 60.9 376.7z"/></g></g></svg>