<svg height="240" width="710" xmlns="http://www.w3.org/2000/svg" xmlns:xlink="http://www.w3.org/1999/xlink"><clipPath id="a"><path d="m0 0h568v192h-568z"/></clipPath><clipPath id="b"><path d="m46.17 179.505c-2.577-2.292-44.136-20.027-46.113-79.339-1.719-51.557 36.089-76.189 38.094-78.193-29.502 34.943-32.652 121.729 8.019 157.532"/></clipPath><clipPath id="c"><path d="m.06 191.078h567.134v-191.018h-567.134v191.018z"/></clipPath><linearGradient id="d"><stop offset="0" stop-color="#9dc2e9"/><stop offset="1" stop-color="#527dc8"/></linearGradient><linearGradient id="e" gradientTransform="matrix(0 -157.533 -157.533 0 23.085 179.5048)" gradientUnits="userSpaceOnUse" spreadMethod="pad" x1="0" x2="1" xlink:href="#d" y1="0" y2="0"/><clipPath id="f"><path d="m142.465 189.07c-3.493.173-111.188 23.087-119.208-90.337.573-78.479 74.47-109.127 121.443-95.665-129.463 18.045-116.861 174.718-2.235 186.002"/></clipPath><clipPath id="g"><path d="m.06 191.078h567.134v-191.018h-567.134v191.018z"/></clipPath><linearGradient id="h" gradientTransform="matrix(0 -191.079 -191.079 0 83.9785 191.078)" gradientUnits="userSpaceOnUse" spreadMethod="pad" x1="0" x2="1" xlink:href="#d" y1="0" y2="0"/><clipPath id="i"><path d="m117.204 158.596c-12.89 3.437-60.722-11.457-62.154-55.566s34.37-58.717 36.662-60.149c-55.28 68.741-3.724 109.414 25.492 115.715"/></clipPath><linearGradient id="j" gradientTransform="matrix(0 -116.19 -116.19 0 86.1055 159.0707)" gradientUnits="userSpaceOnUse" spreadMethod="pad" x1="0" x2="1" xlink:href="#d" y1="0" y2="0"/><clipPath id="k"><path d="m174.202 128.521s-1.432 29.502-54.994 40.1c56.712 13.748 73.325-39.813 73.325-39.813z"/></clipPath><linearGradient id="l" gradientTransform="matrix(0 -42.356 -42.356 0 155.871 170.8773)" gradientUnits="userSpaceOnUse" spreadMethod="pad" x1="0" x2="1" xlink:href="#d" y1="0" y2="0"/><clipPath id="m"><path d="m173.342 48.609s-3.723-13.748-38.38-26.35c41.531 3.723 48.405 26.637 48.405 26.637"/></clipPath><linearGradient id="n" gradientTransform="matrix(0 -26.6377 -26.6377 0 159.165 48.896)" gradientUnits="userSpaceOnUse" spreadMethod="pad" x1="0" x2="1" xlink:href="#d" y1="0" y2="0"/><clipPath id="o"><path d="m.06 191.078h567.134v-191.018h-567.134v191.018z"/></clipPath><clipPath id="p"><path d="m0 0h568v192h-568z"/></clipPath><clipPath id="q"><path d="m286.945 115.52h-14.299v8.029c0 4.07 2.42 6.38 6.159 6.38 1.76 0 2.861-.33 6.05-1.87l4.729 9.129c-4.509 2.53-8.469 3.52-13.308 3.52-11.549 0-18.149-6.38-18.149-17.488 0-2.53.221-5.39.55-7.7h-16.716v8.029c0 4.07 2.42 6.38 6.16 6.38 1.759 0 2.859-.33 6.048-1.87l4.731 9.129c-4.51 2.53-8.47 3.52-13.309 3.52-11.549 0-18.148-6.38-18.148-17.488 0-2.53.22-5.39.55-7.7h-5.389v-11.058h5.059v-45.255h14.408v45.255h16.277v-45.255h14.407v45.255h16.277v-45.255h14.738v57.633l-8.423-1.32zm89.744 20.128h-15.729v-76.441h40.366l2.751 12.76h-27.388zm-30.465-61.923c-3.63-3.189-6.709-4.619-10.12-4.619-2.529 0-5.059 1.21-6.599 3.189-1.869 2.421-2.859 6.819-2.859 14.189 0 13.199 2.97 18.918 9.569 18.918 2.749 0 5.939-1.65 8.909-4.399l7.149 9.678c-2.419 2.09-3.409 2.86-5.499 3.96-3.079 1.649-7.149 2.529-10.889 2.529-4.729 0-10.228-1.65-13.968-4.179-6.599-4.51-11.549-13.089-11.549-26.067 0-18.258 9.019-29.037 24.527-29.037 5.39 0 9.789 1.211 13.748 3.52 1.981 1.209 2.97 1.98 5.17 4.18l-6.709 8.908zm203.472.11c-1.431-1.759-4.51-3.63-7.26-3.63-7.698 0-10.228 3.961-10.228 16.059 0 12.539 2.86 18.038 9.459 18.038 2.639 0 5.279-1.21 8.029-3.629zm14.408 5.939v58.514l-14.629 2.31v-19.358c0-3.3.221-7.149.441-8.359-2.75 2.2-5.94 3.189-10.009 3.189-14.299 0-24.088-12.098-24.088-29.695 0-17.488 9.019-28.598 23.318-28.598 5.06 0 9.349 1.539 12.979 4.73.218-1.54.439-2.42.879-3.3h13.199c-.99 2.2-2.09 6.709-2.09 20.567zm-126.812-8.029c-2.202-2.419-4.951-3.849-7.701-3.849-3.739 0-6.489 2.969-6.489 7.369 0 6.709 3.52 8.579 13.748 8.579h.66zm14.626 6.16.331 18.917c.11 6.05-.22 7.81-.99 10.119-2.2 6.27-8.689 9.789-18.148 9.789-5.169 0-9.899-.989-15.399-3.299-3.959-1.65-6.159-2.75-9.128-4.62l6.269-10.558c6.05 4.069 11.549 6.379 16.278 6.379 5.389 0 6.6-2.09 6.6-8.36v-2.309c-1.211.109-2.199.109-3.3.109-17.928 0-27.056-6.158-27.056-19.356 0-11.219 6.819-17.599 19.357-17.599 4.619 0 8.579 1.1 11.329 3.08 1.1.77 2.31 1.87 3.409 2.97 1.43-2.86 4.51-5.39 7.919-6.819l7.81 9.018c-4.95 3.74-5.39 6.379-5.281 12.539zm42.674 38.606c-3.299 0-7.149-.88-10.118-2.42-2.42-1.32-4.29-2.64-6.489-4.18 0 2.31-.771 4.73-2.09 7.04l-13.089-3.74c1.32-3.74 1.98-8.36 1.98-13.198v-40.806h14.738v39.815c3.41 3.08 7.259 5.06 10.228 5.06 3.85 0 4.951-1.87 4.951-8.249v-36.626h14.517v41.136c0 3.518-.329 5.939-1.099 8.028-1.76 4.84-7.259 8.14-13.529 8.14zm-328.188.329c-5.499 0-10.008-3.739-13.198-8.029-.22 3.19-.99 5.72-2.31 8.029l-13.198-3.519c1.21-3.19 2.09-8.909 2.09-16.499v-37.615h14.738v39.815c2.75 3.19 5.719 4.73 9.019 4.73 1.649 0 2.859-.33 4.289-1.1l4.07 12.979c-2.31.99-3.3 1.209-5.5 1.209zm-22.213 18.808h-55.103v-12.758h18.698v-63.683h15.618v63.683h18.258zm152.43 1.072c-5.06 0-9.239-4.069-9.239-9.128 0-5.06 4.07-9.129 9.019-9.129 5.059 0 9.129 4.069 9.129 9.129 0 5.059-3.959 9.128-8.909 9.128zm-96.454-64.975c-2.2-2.419-4.949-3.849-7.699-3.849-3.739 0-6.489 2.969-6.489 7.369 0 6.709 3.52 8.579 13.749 8.579h.659zm14.628 6.16.33 18.917c.111 6.05-.219 7.81-.99 10.119-2.199 6.27-8.689 9.789-18.147 9.789-5.17 0-9.899-.989-15.398-3.299-3.96-1.65-6.16-2.75-9.13-4.62l6.27-10.558c6.049 4.069 11.549 6.379 16.278 6.379 5.389 0 6.599-2.09 6.599-8.36v-2.309c-1.21.109-2.2.109-3.299.109-17.928 0-27.058-6.158-27.058-19.356 0-11.219 6.82-17.599 19.359-17.599 4.619 0 8.579 1.1 11.328 3.08 1.1.77 2.31 1.87 3.41 2.97 1.429-2.86 4.509-5.39 7.919-6.819l7.809 9.018c-4.95 3.74-5.389 6.379-5.28 12.539"/></clipPath><linearGradient id="r" gradientTransform="matrix(0 84.3599 84.3599 0 327.641 56.348)" gradientUnits="userSpaceOnUse" spreadMethod="pad" x1="0" x2="1" y1="0" y2="0"><stop offset="0" stop-color="#fad126"/><stop offset="1" stop-color="#fdf5d0"/></linearGradient><g transform="matrix(1.25 0 0 -1.25 0 240)"><g clip-path="url(#a)"><path d="m287.945 114.52h-14.299v8.029c0 4.07 2.42 6.38 6.159 6.38 1.76 0 2.861-.33 6.05-1.87l4.729 9.129c-4.509 2.53-8.469 3.52-13.308 3.52-11.549 0-18.149-6.38-18.149-17.488 0-2.53.221-5.39.55-7.7h-16.716v8.029c0 4.07 2.42 6.38 6.16 6.38 1.759 0 2.859-.33 6.048-1.87l4.731 9.129c-4.51 2.53-8.47 3.52-13.309 3.52-11.549 0-18.148-6.38-18.148-17.488 0-2.53.22-5.39.55-7.7h-5.389v-11.058h5.059v-45.255h14.408v45.255h16.277v-45.255h14.407v45.255h16.277v-45.255h14.738v57.633l-8.423-1.32zm89.744 20.128h-15.729v-76.441h40.366l2.751 12.76h-27.388zm-30.465-61.923c-3.63-3.189-6.709-4.619-10.12-4.619-2.529 0-5.059 1.21-6.599 3.189-1.869 2.421-2.859 6.819-2.859 14.189 0 13.199 2.97 18.918 9.569 18.918 2.749 0 5.939-1.65 8.909-4.399l7.149 9.678c-2.419 2.09-3.409 2.86-5.499 3.96-3.079 1.649-7.149 2.529-10.889 2.529-4.729 0-10.228-1.65-13.968-4.179-6.599-4.51-11.549-13.089-11.549-26.067 0-18.258 9.019-29.037 24.527-29.037 5.39 0 9.789 1.211 13.748 3.52 1.981 1.209 2.97 1.98 5.17 4.18l-6.709 8.908zm203.472.11c-1.431-1.759-4.51-3.63-7.26-3.63-7.698 0-10.228 3.961-10.228 16.059 0 12.539 2.86 18.038 9.459 18.038 2.639 0 5.279-1.21 8.029-3.629zm14.408 5.939v58.514l-14.629 2.31v-19.358c0-3.3.221-7.149.441-8.359-2.75 2.2-5.94 3.189-10.009 3.189-14.299 0-24.088-12.098-24.088-29.695 0-17.488 9.019-28.598 23.318-28.598 5.06 0 9.349 1.539 12.979 4.73.218-1.54.439-2.42.879-3.3h13.199c-.99 2.2-2.09 6.709-2.09 20.567zm-126.812-8.029c-2.202-2.419-4.951-3.849-7.701-3.849-3.739 0-6.489 2.969-6.489 7.369 0 6.709 3.52 8.579 13.748 8.579h.66zm14.626 6.16.331 18.917c.11 6.05-.22 7.81-.99 10.119-2.2 6.27-8.689 9.789-18.148 9.789-5.169 0-9.899-.989-15.399-3.299-3.959-1.65-6.159-2.75-9.128-4.62l6.269-10.558c6.05 4.069 11.549 6.379 16.278 6.379 5.389 0 6.6-2.09 6.6-8.36v-2.309c-1.211.109-2.199.109-3.3.109-17.928 0-27.056-6.158-27.056-19.356 0-11.219 6.819-17.599 19.357-17.599 4.619 0 8.579 1.1 11.329 3.08 1.1.77 2.31 1.87 3.409 2.97 1.43-2.86 4.51-5.39 7.919-6.819l7.81 9.018c-4.95 3.74-5.39 6.379-5.281 12.539zm42.674 38.606c-3.299 0-7.149-.88-10.118-2.42-2.42-1.32-4.29-2.64-6.489-4.18 0 2.31-.771 4.73-2.09 7.04l-13.089-3.74c1.32-3.74 1.98-8.36 1.98-13.198v-40.806h14.738v39.815c3.41 3.08 7.259 5.06 10.228 5.06 3.85 0 4.951-1.87 4.951-8.249v-36.626h14.517v41.136c0 3.518-.329 5.939-1.099 8.028-1.76 4.84-7.259 8.14-13.529 8.14zm-328.188.329c-5.499 0-10.008-3.739-13.198-8.029-.22 3.19-.99 5.72-2.31 8.029l-13.198-3.519c1.21-3.19 2.09-8.909 2.09-16.499v-37.615h14.738v39.815c2.75 3.19 5.719 4.73 9.019 4.73 1.649 0 2.859-.33 4.289-1.1l4.07 12.979c-2.31.99-3.3 1.209-5.5 1.209zm-22.213 18.808h-55.103v-12.758h18.698v-63.683h15.618v63.683h18.258zm152.43 1.072c-5.06 0-9.239-4.069-9.239-9.128 0-5.06 4.07-9.129 9.019-9.129 5.059 0 9.129 4.069 9.129 9.129 0 5.059-3.959 9.128-8.909 9.128zm-96.454-64.975c-2.2-2.419-4.949-3.849-7.699-3.849-3.739 0-6.489 2.969-6.489 7.369 0 6.709 3.52 8.579 13.749 8.579h.659zm14.628 6.16.33 18.917c.111 6.05-.219 7.81-.99 10.119-2.199 6.27-8.689 9.789-18.147 9.789-5.17 0-9.899-.989-15.398-3.299-3.96-1.65-6.16-2.75-9.13-4.62l6.27-10.558c6.049 4.069 11.549 6.379 16.278 6.379 5.389 0 6.599-2.09 6.599-8.36v-2.309c-1.21.109-2.2.109-3.299.109-17.928 0-27.058-6.158-27.058-19.356 0-11.219 6.82-17.599 19.359-17.599 4.619 0 8.579 1.1 11.328 3.08 1.1.77 2.31 1.87 3.41 2.97 1.429-2.86 4.509-5.39 7.919-6.819l7.809 9.018c-4.95 3.74-5.389 6.379-5.28 12.539" fill="#d3b149"/></g><g clip-path="url(#b)"><g clip-path="url(#c)"><path d="m0 0h568v192h-568z" fill="url(#e)"/></g></g><g clip-path="url(#f)"><g clip-path="url(#g)" fill="url(#h)"><path d="m0 0h568v192h-568z"/><path d="m0 0h568v192h-568z"/></g></g><g clip-path="url(#i)"><path d="m0 0h568v192h-568z" fill="url(#j)"/></g><g clip-path="url(#k)"><path d="m0 0h568v192h-568z" fill="url(#l)"/></g><g clip-path="url(#m)"><path d="m0 0h568v192h-568z" fill="url(#n)"/></g><g clip-path="url(#o)"><g clip-path="url(#p)"><path d="m101.844 152.874c-27.711-13.207-58.571-50.144-15.596-107.054 2.907-1.703 4.969-2.631 5.464-2.939-46.352 57.639-17.59 95.539 10.132 109.993zm40.621 36.196c-1.082.053-6.667.046-5.729 0-114.625-11.284-127.228-167.957 2.236-186.002-6.297-1.804-13.079-2.808-20.102-3.018 9.06-.284 17.836.727 25.83 3.018-129.463 18.045-116.861 174.718-2.235 186.002zm-23.257-20.449c53.562-10.598 54.994-40.1 54.994-40.1l4.578.072c-.116 1.567-2.925 29.727-54.989 40.028-1.253.232-2.532.477-4.583 0zm54.134-120.012s-3.723-13.748-38.38-26.35c3.159.283 6.094.689 8.864 1.175 31.748 12.267 35.245 25.175 35.245 25.175l4.241.121c.034.099.055.166.055.166zm-148.388-14.808c6.765-7.21 12.452-11.083 13.197-11.828-28.292 33.51-32.342 114.692 3.245 152.871-34.312-31.918-36.036-101.06-16.442-141.043" fill="#527dc8"/></g></g><g clip-path="url(#q)"><path d="m0 0h568v192h-568z" fill="url(#r)"/></g></g></svg>