<svg xmlns="http://www.w3.org/2000/svg" viewBox="0 0 1370 1050" height="1050" width="1370"><g transform="matrix(.13 0 0 -.13 0 1050)"><path d="M8131.99 4969.98v-567.99c44.03 43.99 88.01 76 128.01 91.99 48.01 24.01 104.02 32 160 32 111.99 4 204.02-27.99 280-87.99 80-68.01 120-156 120-264.01v-711.99h-188.01v611.99c0 83.99-20 148.01-63.98 196-43.99 48.01-96.02 76-160 76-96.02 0-168.01-36-220-100-36.02-56-56.02-132-56.02-235.98v-548.01H7940v1507.99h191.99m-2699.98-912.01c0-127.97-24-231.99-68.01-311.99-51.99-88.01-131.99-132-235.99-132-84.01 0-156 16.02-211.99 52-80 51.99-128.01 144.02-144.01 268l-4 32c0 104.02 31.99 188 100 256.01 60 56 128.01 87.99 208.01 87.99h355.99v-252.01zm0 896.01v-460h-404c-100-4-191.99-48-280-124-64.01-60-111.99-136-136-219.98-40-124.02-40-248.01 0-372.03 20-60 51.99-115.98 96-171.99 91.99-115.98 228.01-172 408.01-172h20c163.98 0 295.99 68.01 391.99 200 71.99 100 111.99 212 111.99 323.99v996.01h-207.99m-1244-1491.99h204v1507.99h-204V3461.99zm1876.01 1231.99c32 52 87.97 80 172 80h135.97v180h-167.97c-88 0-160-20-220-64-88-64-132.03-164-132.03-304V3461.99h184.03v831.99H6340v184.01h-303.98v47.99c0 76.01 8 132.01 28 168m460 116c-24.02-16-36.01-40-36.01-76 0-35.99 16.01-64 36.01-84 23.99-20 52-27.99 83.99-27.99 31.99 0 60 7.99 83.98 27.99 24.03 20 32.03 48.01 32.03 84 0 32-12.03 56-36.01 76-23.99 20-48.01 28.01-80 28.01-36.02 0-63.99-8.01-83.99-28.01m535.98-364c-80-40-115.98-112-115.98-220 0-83.99 23.99-148.01 75.98-200 48.01-43.99 120-80 220-108.01 144.02-35.98 240-67.97 280-95.98 36.02-24.02 56.02-51.99 56.02-88.01 0-36.01-16.02-60-44.03-71.99-20-11.99-51.99-16.01-91.99-16.01h-495.98v-183.99l492-4.02c91.99 0 168 16.01 223.98 44.02 80 43.99 120 120 120 231.99 0 83.99-23.98 152-71.99 200-48.01 48.01-131.99 96.02-256.02 140-35.97 12-103.98 32-200 56.02-75.97 27.97-115.97 63.98-115.97 111.99 0 36 15.97 56 51.99 67.99 31.99 12.01 76.01 20 136.01 20h403.99v164H7340c-128.01 0-220-15.99-280-48m-551.99-983.99h183.977v1031.99H6508.01V3461.99zM3724 4733.98c0-35.99 12.02-64 36-84 24-20 48.01-27.99 84-27.99 28.01 0 56 7.99 80 27.99 24.01 20 36 48.01 36 84 0 32-16 56-36 76-24 20-51.99 28.01-80 28.01-40 0-67.98-8.01-87.98-28.01-24.01-16-32.02-40-32.02-76m-247.98-976.01v736.01h-180V3870c0-76.02-12.02-136.02-44.01-176.02C3220 3650 3176.02 3630 3124 3630c-60 0-104 11.99-140 40-40 31.99-60 87.97-60 163.98v660h-204V3870c0-92.03-16-156.02-43.98-188.01-32.02-36.01-88.01-51.99-160-51.99-56.02 0-96.02 23.98-128.01 63.98-28.01 40-40 83.99-40 140v660h-200v-691.99c0-80 28.01-156.01 80-228.01 68.01-96.01 164-140 288.01-140 71.99 0 140 16.02 195.99 43.99 44.01 28.01 80 64.02 107.99 104.02 44-56.01 88.01-96.01 136.02-116.01 43.98-20 107.98-32 187.98-32 76 0 148.01 32 220 92 76 68 112.02 144.02 112.02 231.99M3740 3461.99h184v1031.99h-184V3461.99z" fill="#971a1f"/><path d="M270 360H0m360-90V0m-90 8040H0m360 90v270m10330-360h270m-360 90v270m90-8040h270m-360-90V0" fill="none" stroke="#100f0d" stroke-width="5"/></g></svg>