<svg id="Layer_1" data-name="Layer 1" xmlns="http://www.w3.org/2000/svg" viewBox="0 0 150.44 35.81"><title>YottaDB_logo</title><path d="M181.59,286.93v11.58h-1.86V287l-12.67-20.14h2l11.54,17.78L192,266.88h2Z" transform="translate(-167.06 -264.97)" style="fill:#3c176a"/><path d="M235.89,296.88a8.63,8.63,0,0,1-4.93,1.67c-3.35,0-5.34-2.13-5.34-6.56V277.15h-3.44v-1.63h3.44v-5.84h1.81v5.84h8v1.63h-8v14.62c0,3.35,1.31,5,3.76,4.93a7,7,0,0,0,4-1.36Z" transform="translate(-167.06 -264.97)" style="fill:#3c176a"/><path d="M252.73,296.88a8.64,8.64,0,0,1-4.93,1.67c-3.35,0-5.34-2.13-5.34-6.56V277.15H239v-1.63h3.44v-5.84h1.81v5.84h8v1.63h-8v14.62c0,3.35,1.31,5,3.76,4.93a7,7,0,0,0,4-1.36Z" transform="translate(-167.06 -264.97)" style="fill:#3c176a"/><path d="M273.63,298.51l0-4.66c-2,3.26-5.34,4.71-9.41,4.71-4.66,0-7.78-2.94-7.78-6.92s3.35-6.33,8.78-6.33h8.37V283c0-4-2.35-6.38-7.06-6.38a12.79,12.79,0,0,0-7.92,3.08l-.9-1.45c2.8-2,5.52-3.35,9.1-3.35,5.57,0,8.6,3.08,8.64,8l.09,15.66Zm0-7.69V287h-8.24c-4.62,0-7.15,1.58-7.15,4.61s2.4,5.25,6.25,5.25C268.84,296.84,272.14,294.94,273.59,290.82Z" transform="translate(-167.06 -264.97)" style="fill:#3c176a"/><polygon points="32.21 18.18 38.98 14.27 45.76 18.18 50.11 15.66 38.98 9.24 27.85 15.66 32.21 18.18" style="fill:#3c176a"/><polygon points="46.26 19.04 46.26 26.86 39.48 30.78 39.48 35.81 50.61 29.38 50.61 16.53 46.26 19.04" style="fill:#3c176a"/><polygon points="38.48 30.78 31.71 26.86 31.71 19.04 27.35 16.53 27.35 29.38 38.48 35.81 38.48 30.78" style="fill:#3c176a"/><path d="M299,274.21c0,5.44-4,9.24-9.87,9.24h-7.68V265h7.84C295,265,299,268.74,299,274.21Zm-4.25,0a5.45,5.45,0,0,0-5.54-5.75h-3.59v11.45h3.77C292.49,279.93,294.76,277.61,294.76,274.23Z" transform="translate(-167.06 -264.97)" style="fill:#fa780a"/><path d="M316.84,269.59a4.09,4.09,0,0,1-3.19,4.06,4.51,4.51,0,0,1,3.85,4.67c0,3.17-2.69,5.12-7,5.12h-8.79V265h8.5C314.31,265,316.84,266.74,316.84,269.59Zm-4.28.77c0-1.27-1-2-2.53-2h-4.12v4H310C311.62,272.41,312.57,271.64,312.57,270.35Zm.63,7.44c0-1.35-1.21-2.16-3.17-2.14h-4.12V280H310C312,280,313.2,279.22,313.2,277.79Z" transform="translate(-167.06 -264.97)" style="fill:#fa780a"/><polygon points="50.61 15.95 50.61 15.95 50.61 15.95 50.61 15.95" style="fill:#fa780a"/><polygon points="32.71 26.29 38.48 29.62 38.48 22.95 32.71 19.62 32.71 26.29" style="fill:#fa780a"/><polygon points="38.98 15.42 33.21 18.76 38.98 22.09 44.76 18.76 38.98 15.42" style="fill:#fa780a"/><polygon points="45.26 19.62 39.48 22.95 39.48 29.62 45.26 26.29 45.26 19.62" style="fill:#fa780a"/></svg>