<svg width="236.5" height="72.1" xmlns="http://www.w3.org/2000/svg"><path d="M53.4 1.9h15.9V70H53.4v-7.1c-7 8.1-15.5 9.2-20.4 9.2-21 0-33-17.5-33-36.2C0 13.7 15.2.1 33.2.1c5 0 13.8 1.3 20.2 9.7zM16.2 36.2c0 11.8 7.4 21.7 18.9 21.7 10 0 19.3-7.3 19.3-21.5 0-14.9-9.2-22-19.3-22-11.5 0-18.9 9.7-18.9 21.8zM88.1 1.9H104V8c1.8-2.1 4.4-4.4 6.6-5.7 3.1-1.8 6.1-2.3 9.7-2.3 3.9 0 8.1.6 12.5 3.2l-6.5 14.4c-3.6-2.3-6.5-2.4-8.1-2.4-3.4 0-6.8.5-9.9 3.7-4.4 4.7-4.4 11.2-4.4 15.7v35.3H88v-68zm54.9 0h15.9v6.3c5.3-6.5 11.6-8.1 16.8-8.1 7.1 0 13.8 3.4 17.6 10C199 2 207.5.1 213.5.1c8.3 0 15.5 3.9 19.4 10.7 1.3 2.3 3.6 7.3 3.6 17.2v42.1h-15.9V32.6c0-7.6-.8-10.7-1.5-12.1-1-2.6-3.4-6-9.1-6-3.9 0-7.3 2.1-9.4 5-2.8 3.9-3.1 9.7-3.1 15.5v35.1h-15.9V32.6c0-7.6-.8-10.7-1.5-12.1-1-2.6-3.4-6-9.1-6-3.9 0-7.3 2.1-9.4 5-2.8 3.9-3.1 9.7-3.1 15.5v35.1H143z" fill="#0091bd"/></svg>