<svg xmlns="http://www.w3.org/2000/svg" width="200" height="59.97"><path d="M29.724 14.915c-1.243 2.071-2.9 3.728-4.972 4.557 0 0-.414 0-.414.414 0 0-.415 0-.415.415-1.657.828-3.728 1.242-5.8 1.242-2.071 0-4.143-.414-5.8-1.242-2.071-1.243-4.143-2.9-5.8-4.972-1.243-1.657-3.315-2.071-4.972-.829-1.657 1.243-2.071 3.315-.828 4.972 2.485 3.314 5.386 5.8 8.7 7.457.829.415 1.243.415 2.071.829-2.9 2.071-6.214 4.972-7.457 9.115a17.21 17.21 0 000 12.843c1.657 3.728 4.143 7.043 7.872 8.7 4.143 2.072 9.114 2.072 13.672 0 4.557-2.071 7.871-6.214 8.286-10.357 0-4.972-2.072-9.115-6.215-11.186-4.143-1.658-8.7-.415-11.6 3.314-1.243 1.657-.829 3.729.414 5.386 1.657 1.243 3.729.828 5.386-.415.828-1.242 2.071-1.657 2.9-1.242.829.414 1.657 1.242 1.243 2.9 0 1.657-1.657 3.314-4.143 4.557-2.486 1.243-5.386 1.243-7.043 0-2.072-.829-3.729-2.9-4.557-4.972-.83-1.657-1.243-4.143 0-7.457.828-2.486 2.9-4.557 7.043-7.043 1.657-.829 3.314-2.072 4.971-2.9 2.072-1.243 3.729-2.072 5.386-3.315 2.9-1.657 5.386-3.728 7.457-7.043 1.243-1.657.829-4.143-.828-4.971-1.243-.829-3.315-.414-4.557 1.243zM17.709 17.4c2.486 0 4.557-.83 6.214-2.486 1.658-1.657 2.486-3.729 2.486-6.215 0-2.486-.828-4.557-2.486-6.214C22.266.829 20.195 0 17.71 0c-2.072 0-4.557.829-6.215 2.486C9.837 4.143 9.01 6.214 9.01 8.7s.828 4.558 2.485 6.215c1.658 1.657 4.143 2.486 6.215 2.486zM16.052 7.043c.414-.414 1.243-.829 1.657-.829.828 0 1.243.415 1.657.83.414.413.829 1.242.829 1.656 0 .829-.415 1.243-.829 1.657-.414.415-1.243.829-1.657.829-.829 0-1.243-.414-1.657-.829-.415-.414-.829-1.242-.829-1.657 0-.414.414-1.243.829-1.657zM62.453 18.23h-2.071c-4.558 0-7.872 2.486-7.872 8.7 0 2.9.829 5.8 2.9 7.043-1.243 1.243-2.9 2.9-2.9 4.143 0 1.243.829 2.072 2.9 2.486-2.071 1.243-3.729 3.315-3.729 5.386 0 2.486 1.243 5.386 7.458 5.386 6.214 0 9.114-3.729 9.114-7.872 0-3.728-2.9-4.971-5.8-5.386-3.729-.414-5.8-.414-5.8-1.242 0-.83.414-1.658 1.243-2.072h2.071c5.386 0 7.458-3.314 7.458-8.286 0-2.486-.829-4.143-1.658-5.386.83 0 1.243.414 1.658.414.828 0 1.243-.414 1.243-1.657 0-.828 0-1.657-.415-1.657zm-4.143 23.2h.829c4.143.415 5.386.83 5.386 2.9 0 1.658-1.658 3.73-4.972 3.73-3.314 0-4.143-1.243-4.143-2.486.414-1.657 1.243-3.315 2.9-4.143zm1.657-9.528c-2.9 0-3.314-2.072-3.314-5.386 0-4.143 1.657-5.8 3.729-5.8 2.071 0 3.314 1.657 3.314 4.971 0 4.143-1.243 6.215-3.729 6.215zm20.715-13.672c-4.557 0-7.457.414-8.286 1.243-.414.414-.414.829-.414 1.243 0 .414 0 1.657.414 2.486 1.657-.829 4.558-1.243 6.629-1.243 1.657 0 2.486.414 2.486 2.9V29c-.829-.414-2.486-.414-3.729-.414-2.9 0-6.214 1.242-6.214 7.871 0 7.043 3.314 7.458 6.628 7.458 2.9 0 5.386-.829 6.63-1.658 0 0 .413-6.628.413-14.914v-2.9c.415-4.972-1.242-6.215-4.557-6.215zm1.243 20.715c-.414.414-1.657.829-2.486.829-1.657 0-2.9 0-2.9-4.143s1.657-4.972 3.315-4.972c.828 0 1.657 0 2.071.414v7.872zm16.986-20.715c-2.485 0-5.8.829-7.871 1.657v22.787c3.728 0 3.728 0 3.728-.829V22.372c.829-.829 2.486-.829 3.729-.829 2.486 0 2.9 1.243 2.9 4.972v15.743c4.143 0 4.143 0 4.143-.828V26.515c0-6.214-.829-8.286-6.629-8.286zm21.958-8.7v9.529c-.829-.829-1.657-.829-3.314-.829-4.143 0-7.043 4.143-7.043 13.258 0 10.357 3.314 11.6 7.871 11.6 2.9 0 4.972-.414 6.63-1.243V7.872c-3.315 0-4.144 0-4.144 1.657zm0 29.415c-.829.414-1.657.829-2.9.829-2.071 0-3.729-.829-3.729-8.7 0-7.872 2.072-9.53 4.143-9.53.829 0 1.657 0 2.072.415v16.986zm12.015-31.072c-1.657 0-2.072 1.243-2.072 2.9 0 2.071.829 2.9 2.072 2.9s2.071-1.243 2.071-2.9c0-2.072-.414-2.9-2.071-2.9zM130.812 20.3v21.957c3.729 0 3.729 0 3.729-.828V18.643c-2.9 0-3.729 0-3.729 1.658zm12.015 16.986c-1.657 0-2.486 1.243-2.486 2.9 0 1.657.829 2.486 2.486 2.486 1.657 0 2.486-1.243 2.486-2.486.414-1.657-.415-2.9-2.486-2.9zm15.743-19.058c-2.486 0-5.8.829-7.871 1.657v22.787c3.728 0 3.728 0 3.728-.829V22.372c.829-.829 2.486-.829 3.729-.829 2.486 0 2.9 1.243 2.9 4.972v15.743c4.143 0 4.143 0 4.143-.828V26.515c0-6.214-.829-8.286-6.629-8.286zm25.687 7.457c0-4.971-2.072-7.871-5.8-7.871-4.143 0-8.286 1.657-8.286 13.672 0 9.528 3.314 11.186 7.457 11.186 3.729 0 6.629-1.243 6.629-1.658 0-.828 0-2.485-.415-3.314-1.657.829-3.314 1.657-5.8 1.657-2.486 0-3.728-.828-4.143-6.628 2.072 0 6.629 0 9.943-.83.415-1.656.415-4.142.415-6.214zm-3.729 3.315c-1.657.414-4.557.414-6.214.414.414-6.629 2.071-8.286 4.143-8.286 2.071 0 2.485 1.243 2.485 4.972-.414.828-.414 2.071-.414 2.9zm16.158 10.772c-1.658 0-1.658-1.658-1.658-3.73V21.959h4.143c.829 0 .829-.415.829-3.315h-4.972v-8.286c-2.9 0-3.728 0-3.728 1.243v7.043h-2.486c-.829 0-.829.415-.829 3.315h3.315V35.63c0 4.143 0 7.457 4.557 7.457 1.657 0 4.143-.414 4.143-1.657 0-.829 0-2.072-.414-2.486-1.243.414-1.657.829-2.9.829z"/></svg>