<svg xmlns="http://www.w3.org/2000/svg" height="48.7" width="289.2"><path fill="#354c9f" d="M1.7 1.4h40.1v35.3l-20.1 8.4-20-8.4z"/><path fill="#a7d2ee" d="M21.3 45.1l6.7-2.6-1-13.2-6.7-18.2-7.1-8.9-10.8.6.5 18 4.8 18.4z"/><path d="M38.8 1.3h-7.7C26 4.1 20.6 13.2 20.6 13.2l3.3 6.6c.2-.4.3 1 .5.6l2.9 10.3c5-14.2 13.9-16.6 13.9-16.6l.3-10.7c-.8.4-1.9-2.5-2.7-2.1z" fill="#fff"/><path d="M8.4 38.7H6C6 26.8.5 21.8.4 21.7L2 19.9c.3.2 6.4 5.9 6.4 18.8z" fill="#354c9f"/><path d="M0 0v38.1l21.7 9.2 21.7-9.2V0H0zm26.7 41.5l-4 1.7C23.3 23.1 12.3 9.3 6.4 3.4h5C14 6 19.2 11.8 22.8 20.5c2.5 5.7 4.1 12.8 3.9 21zM3.4 3.7c5.2 4.7 17.5 18.2 16.7 39.2L15.5 41c-.1-17.7-8.6-27.2-12.1-30.4V3.7zM30 3.4h7.3c-6.6 4.7-10.9 10.6-13 14.1-.8-1.7-1.6-3.3-2.4-4.8.5-1.3 2.7-5.5 8.1-9.3zm-9.7 6.7C18.4 7.2 16.5 5 15 3.3h10.9c-3.1 2.6-4.7 5.1-5.6 6.8zm5.2 10.2c1.1-2.1 5.6-10 14.6-15.9v8c-6.4 4.4-10.6 11.1-12.6 14.9-.5-2.6-1.2-4.9-2-7zM3.4 14.1C7 18 12.7 26.3 13 40l-9.6-4.1V14.1zm25.2 26.6c.2-3.3 0-6.4-.3-9.4 0-.1 4.1-10 11.9-16v20.5l-11.6 4.9z" fill="#354d9f"/><g fill="#3e4555"><path d="M59.3 6.1c-.7-.7-1-1.5-1-2.5s.3-1.8 1-2.5 1.5-1 2.5-1 1.8.3 2.5 1 1 1.5 1 2.5-.3 1.8-1 2.5-1.5 1-2.5 1-1.8-.3-2.5-1zm5.2 31.8h-5.6V11.4h5.6v26.5zM76.6 23.6V38H71V11.4h5.6v4.8c.9-1.6 2.1-2.9 3.7-3.8 1.6-.9 3.3-1.4 5.1-1.4 3 0 5.4.9 7.3 2.7 1.8 1.8 2.8 4.5 2.8 7.9v16.3h-5.6V23.4c0-4.9-2-7.3-6.1-7.3-1.9 0-3.6.6-5 1.9-1.5 1.2-2.2 3.1-2.2 5.6zM107.3 15.9v13.5c0 1.3.3 2.3 1 3 .7.7 1.6 1.1 2.8 1.1 1.2 0 2.3-.6 3.4-1.7l2.3 3.9c-2 1.8-4.1 2.6-6.5 2.6-2.4 0-4.4-.8-6.1-2.5-1.7-1.6-2.5-3.9-2.5-6.7V15.8h-3.3v-4.4h3.3V3.1h5.6v8.3h7v4.5h-7zM144.4 27.1h-20.8c.1 1.9 1 3.5 2.6 4.7 1.6 1.2 3.5 1.8 5.6 1.8 3.3 0 5.9-1 7.6-3.1l3.2 3.5c-2.9 3-6.6 4.4-11.2 4.4-3.7 0-6.9-1.2-9.5-3.7-2.6-2.5-3.9-5.8-3.9-10s1.3-7.5 4-10 5.8-3.7 9.4-3.7c3.6 0 6.7 1.1 9.2 3.3 2.5 2.2 3.8 5.2 3.8 9v3.8zm-20.8-4.4h15.2c0-2.2-.7-3.9-2.1-5.1-1.4-1.2-3.1-1.8-5.2-1.8-2 0-3.9.6-5.5 1.9-1.6 1.2-2.4 2.9-2.4 5zM173.8 11.4v23.2c0 4.7-1.3 8.2-3.8 10.6-2.5 2.4-5.8 3.5-9.8 3.5-4 0-7.6-1.2-10.8-3.7l2.6-4.2c2.6 2 5.2 2.9 7.9 2.9s4.7-.7 6.3-2c1.5-1.4 2.3-3.5 2.3-6.5v-3.4c-.8 1.6-2 2.8-3.6 3.7-1.6.9-3.3 1.4-5.2 1.4-3.5 0-6.4-1.2-8.7-3.7-2.3-2.5-3.4-5.5-3.4-9.2 0-3.7 1.1-6.7 3.4-9.2 2.3-2.5 5.2-3.7 8.7-3.7 3.5 0 6.4 1.4 8.6 4.3v-4h5.5zm-20.7 12.2c0 2.2.7 4.1 2 5.6 1.3 1.6 3.2 2.4 5.4 2.4 2.3 0 4.1-.8 5.5-2.3 1.4-1.5 2.1-3.4 2.1-5.7 0-2.3-.7-4.2-2.1-5.8-1.4-1.6-3.3-2.4-5.5-2.4-2.3 0-4.1.8-5.4 2.4-1.3 1.7-2 3.7-2 5.8zM203.9 27.1h-20.8c.1 1.9 1 3.5 2.6 4.7 1.6 1.2 3.5 1.8 5.6 1.8 3.3 0 5.9-1 7.6-3.1l3.2 3.5c-2.9 3-6.6 4.4-11.2 4.4-3.7 0-6.9-1.2-9.5-3.7-2.6-2.5-3.9-5.8-3.9-10s1.3-7.5 4-10 5.8-3.7 9.4-3.7c3.6 0 6.7 1.1 9.2 3.3 2.5 2.2 3.8 5.2 3.8 9v3.8zm-20.8-4.4h15.2c0-2.2-.7-3.9-2.1-5.1-1.4-1.2-3.1-1.8-5.2-1.8-2 0-3.9.6-5.5 1.9-1.6 1.2-2.4 2.9-2.4 5zM222.1 16.6c-2.8 0-4.8.9-6.2 2.7-1.4 1.8-2.1 4.2-2.1 7.2v11.4h-5.6V11.4h5.6v5.3c.9-1.7 2.1-3 3.7-4.1 1.6-1.1 3.2-1.6 4.9-1.6l.1 5.6h-.4zM239.1 8.3V3.1h20.4v4.6l-8.4 9.4c3.2.1 5.7 1.1 7.5 3 1.8 1.9 2.7 4.2 2.7 6.9 0 3.6-1.2 6.4-3.6 8.4-2.4 2-5.5 3-9.3 3-3.8 0-7.5-1.2-11.1-3.6l2.5-4.7c2.9 2 5.9 3 9 3 2 0 3.7-.5 5-1.4 1.3-.9 2-2.3 2-4.1 0-1.8-.7-3.2-2.2-4.3-1.5-1.1-3.5-1.6-6.1-1.6-1.3 0-2.5.2-3.7.5v-4.5l8.1-9.4h-12.8zM280.8 16.7c1-1.4 1.5-2.7 1.5-4.1 0-1.4-.5-2.6-1.6-3.6s-2.4-1.5-4-1.5c-2.9 0-5.2 1.5-7.1 4.4l-4.7-2.7c1.5-2.3 3.2-4 5.1-5.2 1.8-1.2 4.2-1.7 7.1-1.7 2.9 0 5.5.9 7.7 2.8 2.2 1.8 3.3 4.4 3.3 7.6 0 1.8-.5 3.5-1.4 5.1-.9 1.6-2.6 3.7-5.1 6.3l-8.2 8.3h15.8V38h-23.9v-5l10.6-10.6c2.2-2.5 3.9-4.4 4.9-5.7z"/></g></svg>